<?xml version="1.0" standalone="no"?>
<!DOCTYPE svg PUBLIC "-//W3C//DTD SVG 1.1//EN" "http://www.w3.org/Graphics/SVG/1.1/DTD/svg11.dtd" >
<svg>
<metadata>
Created by FontForge 20090622 at Thu Sep 20 02:07:42 2018
 By deploy user
Copyright (c) MY THUAT CONG NGHIEP HP
</metadata>
<defs>
<font id="HP-059" horiz-adv-x="355" >
  <font-face 
    font-family="HP-059"
    font-weight="400"
    font-stretch="normal"
    units-per-em="1000"
    panose-1="2 0 0 0 0 0 0 0 0 0"
    ascent="800"
    descent="-200"
    x-height="525"
    cap-height="764"
    bbox="-57 -240 523 1053"
    underline-thickness="0"
    underline-position="0"
    unicode-range="U+0020-U+201D"
  />
<missing-glyph 
 />
    <glyph glyph-name=".notdef" 
 />
    <glyph glyph-name="space" unicode=" " horiz-adv-x="123" 
 />
    <glyph glyph-name="space" unicode="&#xa0;" horiz-adv-x="123" 
 />
    <glyph glyph-name="exclam" unicode="!" horiz-adv-x="154" 
d="M107 2q-10 -6 -29 -6q-32 0 -45 47q4 47 47 47q21 0 35 -14t14 -35q0 -10 -6.5 -23.5t-15.5 -15.5zM31 256v508h96v-606q-40 0 -68 29t-28 69z" />
    <glyph glyph-name="quotedbl" unicode="&#x22;" horiz-adv-x="283" 
d="M70 762q20 0 35 -14.5t16 -34.5q1 -25 -13 -53q-15 -33 -38 -33h-13v41q-5 0 -19 12t-15 33q-1 19 13.5 34t33.5 15zM211 762q42 0 49 -49q0 -24 -13 -52q-15 -34 -36 -34h-16v41q-13 3 -21.5 18t-9.5 29q-1 19 13.5 33t33.5 14z" />
    <glyph glyph-name="numbersign" unicode="#" horiz-adv-x="459" 
d="M170 398v-37h-55v-39h55v-54h41v54h37v-54h41v54h53v41h-53v35h53v41h-53v55h-41v-53h-37v53h-41v-53h-53v-43h53zM211 361v37h37v-37h-37zM229 553q100 0 150 -87q23 -40 23 -87q0 -99 -86 -149q-39 -23 -87 -23q-72 0 -122 50.5t-50 121.5q0 101 86 151q39 23 86 23z
" />
    <glyph glyph-name="dollar" unicode="$" horiz-adv-x="342" 
d="M123 695v69h96v-67h95v-142h-95v74h-94v-213h74q62 0 99 -62q16 -27 16 -57v-113q0 -86 -95 -116v-66h-96v66h-94v143h96v-76h94v213h-67q-71 0 -107 64q-16 28 -16 65v105q0 57 46 95q22 18 48 18z" />
    <glyph glyph-name="percent" unicode="%" horiz-adv-x="455" 
d="M227 211q-109 0 -152 88q-20 41 -20 82q0 76 48.5 124t123.5 48q108 0 151 -88q20 -41 20 -84q0 -98 -78 -146q-39 -24 -93 -24zM203 270l119 226h-66l-121 -226h68zM119 455q6 -35 41 -41q41 7 41 41q0 15 -13 28t-28 13q-34 0 -41 -41zM258 311q5 -36 43 -41
q41 4 41 39q0 17 -13 30t-30 13q-33 0 -41 -41z" />
    <glyph glyph-name="ampersand" unicode="&#x26;" horiz-adv-x="463" 
d="M266 414v80h-69v-80h-78v-66h78v-80h69v80h78v66h-78zM232 553q100 0 149 -86q23 -40 23 -86q0 -101 -86 -151q-39 -23 -86 -23q-72 0 -121.5 51t-49.5 123q0 98 85 149q39 23 86 23z" />
    <glyph glyph-name="quotesingle" unicode="'" horiz-adv-x="145" 
d="M76 762q20 0 34 -14t15 -35q1 -25 -13 -53q-15 -33 -38 -33h-13v41q-14 2 -24 18t-10 31q4 45 49 45z" />
    <glyph glyph-name="parenleft" unicode="(" 
d="M160 -21h141q-8 -32 -38.5 -50.5t-55.5 -18.5h-29q-60 0 -98 65q-16 28 -16 58v701q0 28 18 56t43 43q29 17 57 17h27q55 0 94 -69h-143v-802z" />
    <glyph glyph-name="parenright" unicode=")" horiz-adv-x="354" 
d="M197 781h-140q13 28 39 48.5t54 20.5h30q58 0 95 -57q18 -28 18 -63v-697q0 -65 -56 -105q-25 -18 -57 -18h-30q-28 0 -55.5 21t-39.5 48h142v802z" />
    <glyph glyph-name="asterisk" unicode="*" horiz-adv-x="457" 
d="M227 428l-55 56l-47 -46l55 -57l-55 -55l47 -49l55 57l56 -57l47 49l-57 55l57 57l-47 46zM229 553q100 0 150 -85q23 -39 23 -87q0 -100 -86 -149q-41 -23 -87 -23q-72 0 -122 50.5t-50 121.5q0 72 50.5 122t121.5 50z" />
    <glyph glyph-name="plus" unicode="+" horiz-adv-x="451" 
d="M262 414v80h-69v-80h-78v-66h78v-80h69v80h80v66h-80zM230 553q100 0 149 -86q23 -40 23 -86q0 -101 -86 -151q-39 -23 -86 -23q-100 0 -150 87q-23 40 -23 87q0 98 87 149q39 23 86 23z" />
    <glyph glyph-name="comma" unicode="," horiz-adv-x="146" 
d="M72 92q24 0 36.5 -15.5t12.5 -35.5q0 -26 -13 -52q-15 -32 -38 -32h-13v41q-32 11 -32 47q0 19 14 33t33 14z" />
    <glyph glyph-name="hyphen" unicode="-" horiz-adv-x="453" 
d="M342 414h-227v-66h227v66zM230 553q100 0 149 -86q23 -40 23 -86q0 -101 -86 -151q-39 -23 -86 -23q-100 0 -150 87q-23 40 -23 87q0 98 87 149q39 23 86 23z" />
    <glyph glyph-name="period" unicode="." horiz-adv-x="152" 
d="M74 91q-20 0 -33.5 -13.5t-13.5 -33.5q0 -19 13.5 -33t33.5 -14q19 0 33 14t14 33q0 20 -13.5 33.5t-33.5 13.5z" />
    <glyph glyph-name="slash" unicode="/" horiz-adv-x="535" 
d="M393 854l91 -32l-343 -941l-88 31z" />
    <glyph glyph-name="zero" unicode="0" horiz-adv-x="363" 
d="M39 123l-2 527q0 28 17.5 56t44 44t53.5 16h55q63 0 100 -64q17 -29 17 -56v-531q0 -46 -35.5 -80.5t-81.5 -34.5h-59q-63 0 -95 65q-14 28 -14 58zM133 697v-629h96v629h-96z" />
    <glyph glyph-name="one" unicode="1" horiz-adv-x="160" 
d="M33 0v648q0 40 29 72t67 42v-762h-96z" />
    <glyph glyph-name="two" unicode="2" horiz-adv-x="352" 
d="M33 0v295q0 46 35 82.5t80 36.5h77v281h-96v-76h-96v143h156q71 0 111 -55q18 -24 18 -59v-171q0 -76 -60 -112q-28 -17 -63 -17h-66v-282h96v77h93v-143h-285z" />
    <glyph glyph-name="three" unicode="3" horiz-adv-x="352" 
d="M322 648v-531q0 -45 -35.5 -80t-81.5 -35h-170v143h96v-77h96v282h-96v66h96v281h-96v-76h-96v143h170q62 0 100 -58q17 -26 17 -58z" />
    <glyph glyph-name="four" unicode="4" horiz-adv-x="363" 
d="M314 238v-240h-93v240h-75q-50 0 -83.5 33t-33.5 83v343h96v-392h96v459h93v-459h40v-67h-40z" />
    <glyph glyph-name="five" unicode="5" horiz-adv-x="354" 
d="M35 348v414h289v-143h-95v76h-94v-281h66q52 0 87.5 -37.5t35.5 -89.5v-172q0 -51 -39.5 -83t-91.5 -32h-37q-48 0 -84.5 36.5t-36.5 84.5v22h98v-77h94v282h-192z" />
    <glyph glyph-name="six" unicode="6" horiz-adv-x="354" 
d="M133 457v-391h94v391h-94zM133 697v-172h72q63 0 100 -61q17 -28 17 -56v-291q0 -46 -35.5 -82.5t-81.5 -36.5h-53q-63 0 -100 61q-17 28 -17 54v535q0 62 63 99q29 17 54 17h170v-143h-95v76h-94z" />
    <glyph glyph-name="seven" unicode="7" horiz-adv-x="332" 
d="M301 0h-96v697h-96v-86h-93v153h168q65 0 100 -59q17 -29 17 -57v-648z" />
    <glyph glyph-name="eight" unicode="8" horiz-adv-x="354" 
d="M31 123v184l47 76l-47 76v191q0 28 17.5 56t44 44t53.5 16h55q61 0 98 -64q17 -29 17 -56v-187l-48 -76l48 -76v-192q0 -47 -34 -81t-81 -34h-56q-65 0 -99 64q-15 29 -15 59zM127 350v-282h94v282h-94zM127 699v-281h94v281h-94z" />
    <glyph glyph-name="nine" unicode="9" horiz-adv-x="354" 
d="M227 305v390h-94v-390h94zM227 66v172h-75q-64 0 -100 59q-17 28 -17 57v291q0 46 35.5 82.5t81.5 36.5h55q61 0 100 -61q17 -27 17 -55v-533q0 -61 -61 -98q-28 -17 -56 -17h-170v143h96v-77h94z" />
    <glyph glyph-name="colon" unicode=":" horiz-adv-x="154" 
d="M92 195q-6 0 -16 -2q-35 5 -45 32q0 4 -4 15q3 47 49 47q21 0 34 -14t13 -35q0 -36 -31 -43zM92 4q-3 0 -20 -4q-31 5 -45 47q3 47 51 47q20 0 32.5 -13.5t12.5 -33.5q0 -37 -31 -43z" />
    <glyph glyph-name="semicolon" unicode=";" horiz-adv-x="146" 
d="M86 191q-6 0 -14 -2q-37 5 -47 34q0 4 -4 15q3 47 49 47q22 0 35.5 -14.5t13.5 -36.5q0 -34 -33 -43zM72 92q22 0 35 -15q14 -19 14 -34q1 -25 -13 -53q-16 -33 -38 -33h-13v39q-15 4 -24.5 20.5t-9.5 32.5q0 19 15 31t34 12z" />
    <glyph glyph-name="glyph29" horiz-adv-x="455" 
d="M260 500l-121 -121l121 -121l35 37l-86 84l86 86zM229 553q72 0 122.5 -50.5t50.5 -121.5q0 -100 -86 -149q-41 -23 -87 -23q-72 0 -122 50.5t-50 121.5q0 72 50.5 122t121.5 50z" />
    <glyph glyph-name="equal" unicode="=" horiz-adv-x="461" 
d="M342 445h-227v-49h227v49zM342 361h-227v-48h227v48zM229 553q100 0 150 -85q23 -39 23 -87q0 -100 -86 -149q-41 -23 -87 -23q-72 0 -122 50.5t-50 121.5q0 72 50.5 122t121.5 50z" />
    <glyph glyph-name="glyph31" horiz-adv-x="463" 
d="M203 260l121 121l-121 121l-35 -37l84 -84l-84 -86zM232 551q72 0 122 -50.5t50 -121.5q0 -72 -50.5 -122t-121.5 -50q-45 0 -85.5 23t-63 63t-22.5 86q0 71 50.5 121.5t120.5 50.5z" />
    <glyph glyph-name="question" unicode="?" horiz-adv-x="348" 
d="M188 -4h-14q-20 0 -28 11q-5 7 -17 36q3 47 49 47q19 0 33 -15t14 -34q0 -35 -37 -45zM225 238v-80q-37 0 -66.5 25.5t-29.5 62.5v61h96v390h-96v-109h-96v58q0 47 35.5 83.5t81.5 36.5h53q29 0 56 -16q61 -36 61 -100v-287q0 -58 -29 -88q-21 -22 -49 -32q-11 -4 -17 -5
z" />
    <glyph glyph-name="at" unicode="@" horiz-adv-x="457" 
d="M188 371v-66h-30v66h30zM186 393l-18 2h-6q-12 0 -21.5 -11t-9.5 -23v-37q0 -16 9.5 -25.5t25.5 -9.5h64v20h-13v138h-41q-35 0 -35 -19h45v-35zM275 500h-27v-53h-12v-19h12v-104q0 -35 35 -35h39v20h-47v119h30v19h-30v53zM232 553q100 0 149 -86q23 -40 23 -86
q0 -101 -86 -151q-39 -23 -86 -23q-100 0 -148 87q-23 41 -23 87q0 100 86 149q41 23 85 23z" />
    <glyph glyph-name="A" unicode="A" 
d="M131 0h-98v648q0 45 36 80.5t81 35.5h53q64 0 101 -62q16 -27 16 -57v-645h-95v238h-94v-238zM129 697v-392h94v392h-94z" />
    <glyph glyph-name="B" unicode="B" horiz-adv-x="348" 
d="M123 348v-282h96v282h-96zM123 697v-281h96v281h-96zM195 0h-170v764h170q65 0 101 -62q17 -29 17 -57v-186l-47 -76l47 -74v-194q0 -47 -35.5 -81t-82.5 -34z" />
    <glyph glyph-name="C" unicode="C" horiz-adv-x="352" 
d="M318 525h-95v172h-94v-629h94v170h95v-123q0 -46 -35.5 -80.5t-81.5 -34.5h-56q-47 0 -79.5 37.5t-32.5 85.5v525q0 64 59 100q26 16 56 16h55q29 0 56 -17q59 -38 59 -102v-120z" />
    <glyph glyph-name="D" unicode="D" horiz-adv-x="357" 
d="M133 697v-631h94v631h-94zM37 0v764h166q63 0 101 -55q18 -26 18 -61v-533q0 -45 -37 -80t-80 -35h-168z" />
    <glyph glyph-name="E" unicode="E" horiz-adv-x="352" 
d="M35 113v535q0 44 36.5 80t80.5 36h168v-239h-95v170h-94v-281h94v-66h-94v-282h94v172h95v-240h-168q-45 0 -81 35t-36 80z" />
    <glyph glyph-name="F" unicode="F" horiz-adv-x="340" 
d="M318 764v-241h-95v172h-94v-281h94v-68h-94v-348h-96v650q0 61 61 99q27 17 54 17h170z" />
    <glyph glyph-name="G" unicode="G" horiz-adv-x="357" 
d="M318 525h-95v172h-94v-629h94v280h-57v68h152v-301q0 -46 -35.5 -80.5t-81.5 -34.5h-56q-47 0 -79.5 37.5t-32.5 85.5v525q0 64 59 100q26 16 56 16h55q29 0 56 -17q59 -38 59 -102v-120z" />
    <glyph glyph-name="H" unicode="H" horiz-adv-x="352" 
d="M33 0v764h96v-348h94v348h95v-764h-95v348h-94v-348h-96z" />
    <glyph glyph-name="I" unicode="I" horiz-adv-x="164" 
d="M37 764h96v-764h-96v764z" />
    <glyph glyph-name="J" unicode="J" horiz-adv-x="346" 
d="M223 764h95v-649q0 -46 -35.5 -80.5t-81.5 -34.5h-56q-47 0 -79.5 37.5t-32.5 85.5v182h96v-239h94v698z" />
    <glyph glyph-name="K" unicode="K" horiz-adv-x="361" 
d="M227 416v346h93v-303l-50 -76l50 -74v-354q-38 10 -65.5 43t-27.5 72v278h-96v-348h-96v762h96v-346h96z" />
    <glyph glyph-name="L" unicode="L" 
d="M37 764h96v-700h96v86h95v-152h-170q-48 0 -82.5 35t-34.5 82v649z" />
    <glyph glyph-name="M" unicode="M" horiz-adv-x="543" 
d="M508 0h-96v697h-96v-695h-95v695h-94v-695h-96v641q0 64 57 103q26 18 57 18h246q62 0 100 -60q17 -27 17 -56v-648z" />
    <glyph glyph-name="N" unicode="N" 
d="M35 764h168q64 0 101 -59q16 -25 16 -57v-648h-95v697h-94v-697h-96v764z" />
    <glyph glyph-name="O" unicode="O" 
d="M35 123v527q0 64 61 100q27 16 56 16h53q65 0 101 -63q16 -28 16 -57v-531q0 -47 -35 -81t-82 -34h-57q-61 0 -97 65q-16 29 -16 58zM131 697v-629h94v629h-94z" />
    <glyph glyph-name="P" unicode="P" horiz-adv-x="357" 
d="M131 697v-392h96v392h-96zM322 645v-284q0 -47 -35 -85t-82 -38h-74v-238h-96v648q0 45 36 80.5t81 35.5h53q64 0 101 -62q16 -27 16 -57z" />
    <glyph glyph-name="Q" unicode="Q" horiz-adv-x="354" 
d="M135 697v-631h94v631h-94zM229 -2h-79q-64 0 -96 65q-15 30 -15 58v527q0 28 17.5 56t44 44t53.5 16h55q62 0 99 -62q16 -27 16 -57v-711q-32 0 -59.5 17t-35.5 47z" />
    <glyph glyph-name="R" unicode="R" horiz-adv-x="352" 
d="M129 697v-281h96v281h-96zM248 0q-25 26 -25 66v282h-94v-346h-98v762h172q63 0 100 -63q17 -29 17 -56v-186l-49 -76l49 -74v-354q-40 11 -72 45z" />
    <glyph glyph-name="S" unicode="S" horiz-adv-x="350" 
d="M316 297v-182q0 -47 -35 -80t-82 -33h-168v143h96v-77h94v280h-67q-71 0 -107 64q-16 28 -16 65v171q0 33 20 61.5t48.5 41.5t62.5 13h154v-145h-95v76h-94v-281h74q63 0 99 -60q16 -27 16 -57z" />
    <glyph glyph-name="T" unicode="T" horiz-adv-x="336" 
d="M27 764h286v-67h-96v-697h-94v697h-96v67z" />
    <glyph glyph-name="U" unicode="U" horiz-adv-x="354" 
d="M227 764h95v-649q0 -47 -35 -81t-82 -34h-57q-61 0 -97 65q-16 29 -16 58v641h96v-698h96v698z" />
    <glyph glyph-name="V" unicode="V" horiz-adv-x="346" 
d="M221 764h95v-575l-142 -189l-143 188v576h96v-555l47 -63l47 63v555z" />
    <glyph glyph-name="W" unicode="W" horiz-adv-x="539" 
d="M510 650v-535q0 -45 -36 -80t-81 -35h-247q-61 0 -97 65q-16 29 -16 58v641h96v-698h96v698q37 -12 65 -40t28 -74v-584h96v698q10 -3 32 -11q64 -24 64 -103z" />
    <glyph glyph-name="X" unicode="X" 
d="M131 518l45 -61l49 61v246h95v-264l-90 -117l90 -121v-260h-95v240l-47 67l-47 -67v-240h-96v260l88 119l-88 117v266h96v-246z" />
    <glyph glyph-name="Y" unicode="Y" horiz-adv-x="352" 
d="M225 764h93v-409q0 -80 -93 -119v-238h-96v240q-42 12 -69 47t-27 78v401h96v-457h96v457z" />
    <glyph glyph-name="Z" unicode="Z" horiz-adv-x="350" 
d="M316 0h-287v201l192 363v133h-94v-76h-96v143h285v-200l-189 -363v-135h94v77h95v-143z" />
    <glyph glyph-name="glyph60" horiz-adv-x="352" 
d="M162 -21h141l-67 -69h-170v938h166l67 -67h-137v-802z" />
    <glyph glyph-name="glyph61" horiz-adv-x="492" 
d="M55 822l90 32l341 -942l-90 -31z" />
    <glyph glyph-name="glyph62" horiz-adv-x="354" 
d="M49 -21h140v804h-134l66 67h164v-938h-172z" />
    <glyph glyph-name="glyph63" horiz-adv-x="348" 
d="M174 762l121 -123l-35 -34l-86 84l-86 -84l-35 36z" />
    <glyph glyph-name="underscore" unicode="_" horiz-adv-x="402" 
d="M-16 -63h424v-68h-424v68z" />
    <glyph glyph-name="glyph65" horiz-adv-x="258" 
d="M86 764l121 -121l-35 -38l-121 122z" />
    <glyph glyph-name="a" unicode="a" horiz-adv-x="369" 
d="M219 66v215h-94v-215h94zM146 348l73 -2v111h-155q13 40 47 55q25 11 73 11h129v-457h46v-68h-214q-63 0 -100 60q-16 26 -16 55v125q0 59 63 94q30 17 54 16z" />
    <glyph glyph-name="b" unicode="b" horiz-adv-x="348" 
d="M123 457v-391h96v391h-96zM314 410v-291q0 -47 -35 -83t-82 -36h-52q-46 0 -81 34.5t-35 80.5v649h96v-239h70q62 0 101 -57q18 -26 18 -58z" />
    <glyph glyph-name="c" unicode="c" horiz-adv-x="348" 
d="M318 348h-95v109h-94v-391h94v120h95v-71q0 -46 -35.5 -81.5t-81.5 -35.5h-56q-63 0 -97 65q-15 29 -15 58v287q0 63 59 99q26 16 56 16h55q63 0 99 -62q16 -28 16 -57v-56z" />
    <glyph glyph-name="d" unicode="d" horiz-adv-x="354" 
d="M225 66v391h-96v-391h96zM33 119v291q0 62 61 99q26 16 56 16h75v239h93v-649q0 -64 -59 -99q-27 -16 -56 -16h-53q-66 0 -101 61q-16 28 -16 58z" />
    <glyph glyph-name="e" unicode="e" horiz-adv-x="348" 
d="M318 238h-191v-170h96v84h93v-37q0 -47 -34 -81t-81 -34h-56q-65 0 -99 64q-15 29 -15 59v287q0 62 61 99q26 16 56 16h53q64 0 101 -62q16 -27 16 -57v-168zM127 305h96v152h-96v-152z" />
    <glyph glyph-name="f" unicode="f" horiz-adv-x="295" 
d="M146 0h-91v457h-39v68h39v123q0 47 35 81.5t82 34.5h119v-67h-145v-172h98v-66h-98v-459z" />
    <glyph glyph-name="g" unicode="g" horiz-adv-x="354" 
d="M225 66v391h-94v-391h94zM318 525v-765h-164q-74 0 -106 60q-15 28 -15 63v45h98v-102h94v172h-75q-45 0 -81 35t-36 80v285q0 51 33.5 89t83.5 38h168z" />
    <glyph glyph-name="h" unicode="h" horiz-adv-x="354" 
d="M129 525h72q65 0 101 -58q16 -25 16 -57v-410h-95v459h-94v-459h-96v762h96v-237z" />
    <glyph glyph-name="i" unicode="i" horiz-adv-x="172" 
d="M131 438v-438h-96v525q43 0 69.5 -25.5t26.5 -61.5z" />
    <glyph glyph-name="j" unicode="j" horiz-adv-x="170" 
d="M33 525h96v-648q0 -62 -60 -99q-26 -16 -57 -16h-69v66h90v697z" />
    <glyph glyph-name="k" unicode="k" horiz-adv-x="357" 
d="M227 350v175h95v-132l-49 -77l49 -72v-289q-38 10 -66.5 43t-28.5 72v213h-94v-283h-96v764h96v-414h94z" />
    <glyph glyph-name="l" unicode="l" horiz-adv-x="160" 
d="M129 676v-676h-98v764q38 0 68 -25.5t30 -62.5z" />
    <glyph glyph-name="m" unicode="m" horiz-adv-x="551" 
d="M10 525h396q65 0 101 -58q16 -25 16 -57v-410h-95v459h-94v-459h-96v457h-95v-457h-94v457h-39v68z" />
    <glyph glyph-name="n" unicode="n" horiz-adv-x="367" 
d="M12 525h205q45 0 81 -35t36 -80v-410h-96v459h-93v-459h-96v457h-37v68z" />
    <glyph glyph-name="o" unicode="o" horiz-adv-x="354" 
d="M35 123v287q0 62 59 99q25 16 56 16h55q64 0 101 -62q16 -27 16 -57v-291q0 -46 -35.5 -80.5t-81.5 -34.5h-57q-61 0 -97 65q-16 29 -16 58zM131 457v-391h94v391h-94z" />
    <glyph glyph-name="p" unicode="p" horiz-adv-x="354" 
d="M129 457v-391h94v391h-94zM318 406v-291q0 -64 -59 -99q-27 -16 -56 -16h-74v-238h-92v648q0 44 33.5 79.5t77.5 35.5h55q62 0 99 -62q16 -27 16 -57z" />
    <glyph glyph-name="q" unicode="q" horiz-adv-x="354" 
d="M223 66v391h-94v-391h94zM29 117v289q0 63 61 102q27 17 56 17h55q62 0 98 -61q17 -29 17 -56v-648h-93v238h-75q-46 0 -82.5 36.5t-36.5 82.5z" />
    <glyph glyph-name="r" unicode="r" horiz-adv-x="344" 
d="M318 525v-177h-93v109h-96v-459h-96v412q0 62 61 99q26 16 56 16h168z" />
    <glyph glyph-name="s" unicode="s" horiz-adv-x="348" 
d="M318 186v-73q0 -63 -61 -99q-27 -16 -56 -16h-168v141h96v-73h94v170h-67q-52 0 -87.5 38.5t-35.5 90.5v43q0 34 20 61t48.5 40.5t62.5 13.5h154v-142h-95v76h-94v-152h74q29 0 56 -17q59 -38 59 -102z" />
    <glyph glyph-name="t" unicode="t" horiz-adv-x="309" 
d="M53 764h93v-241h96v-66h-96v-391h149v-68h-125q-49 0 -83 34.5t-34 82.5v342h-39v68h39v239z" />
    <glyph glyph-name="u" unicode="u" horiz-adv-x="367" 
d="M355 0h-210q-46 0 -79 33.5t-33 79.5v412h96v-459h94v459h95v-459h37v-66z" />
    <glyph glyph-name="v" unicode="v" horiz-adv-x="352" 
d="M225 525h93v-336l-142 -189l-143 188v337h96v-316l47 -63l49 63v316z" />
    <glyph glyph-name="w" unicode="w" horiz-adv-x="539" 
d="M512 412v-297q0 -65 -60 -99q-28 -16 -57 -16h-249q-64 0 -96 64q-15 30 -15 59v402h96v-459h94v459q40 -11 67.5 -43t27.5 -72v-344h96v459q96 -21 96 -113z" />
    <glyph glyph-name="x" unicode="x" horiz-adv-x="354" 
d="M133 400l47 -60l49 62v123h95v-142l-90 -117l90 -121v-143h-95v123l-49 66l-47 -66v-123h-96v143l90 119l-90 117v144h96v-125z" />
    <glyph glyph-name="y" unicode="y" 
d="M320 525l2 -648q0 -62 -61 -99q-26 -16 -56 -16h-170v152h96v-88h96v172h-75q-65 0 -101 58q-16 25 -16 57v412h96v-459h94v459h95z" />
    <glyph glyph-name="z" unicode="z" horiz-adv-x="354" 
d="M322 0h-289v141l192 255v61h-94v-74h-96v142h287v-146l-191 -256v-57h96v77h95v-143z" />
    <glyph glyph-name="glyph92" horiz-adv-x="395" 
d="M195 -21h145q-10 -25 -39.5 -46t-56.5 -21h-29q-45 0 -79 38.5t-34 84.5v272l-49 74l49 76v277q0 47 35 81.5t82 34.5h27q28 0 54.5 -20t37.5 -47h-143v-324l-47 -74l47 -76v-330z" />
    <glyph glyph-name="glyph93" horiz-adv-x="391" 
d="M57 -21h142v328l49 76l-49 74v324h-142q3 6 13 20q22 34 55 43q15 4 25 4h28q27 0 55.5 -17t45 -44t16.5 -55v-275l49 -76l-49 -74v-274q0 -60 -58 -104q-25 -19 -55 -19h-30q-29 0 -58.5 21t-36.5 48z" />
    <glyph glyph-name="quoteleft" unicode="&#x2018;" horiz-adv-x="146" 
d="M78 629q-49 0 -51 49q-1 38 25 72q11 14 24 14h16v-41q11 -4 21 -13.5t10 -33.5q0 -20 -12.5 -33.5t-32.5 -13.5z" />
    <glyph glyph-name="quoteright" unicode="&#x2019;" horiz-adv-x="145" 
d="M76 762q20 0 34 -14t15 -35q1 -25 -13 -53q-15 -33 -38 -33h-13v41q-14 2 -24 18t-10 31q4 45 49 45z" />
    <glyph glyph-name="quotedblleft" unicode="&#x201c;" horiz-adv-x="287" 
d="M80 629q-20 0 -35 14.5t-16 34.5q-1 23 13 52q16 34 36 34h16v-41q6 -2 18 -14.5t13 -34.5q1 -19 -12.5 -32t-32.5 -13zM219 629q-45 0 -49 49q0 27 11 53q15 33 38 33h13v-41q31 -12 32 -47q1 -19 -12.5 -33t-32.5 -14z" />
    <glyph glyph-name="quotedblright" unicode="&#x201d;" horiz-adv-x="279" 
d="M74 762q20 1 33.5 -14t15.5 -35q0 -26 -13 -53q-15 -33 -38 -33h-13v41q-32 14 -32 51q0 17 14.5 29.5t32.5 13.5zM213 762q42 0 49 -45q0 -29 -10 -55q-14 -35 -39 -35h-16v41q-31 13 -31 49q0 18 14.5 31.5t32.5 13.5z" />
    <glyph glyph-name="Aacute" unicode="&#xc1;" 
d="M131 0h-98v648q0 45 36 80.5t81 35.5h53q64 0 101 -62q16 -27 16 -57v-645h-95v238h-94v-238zM129 697v-392h94v392h-94zM94 854l121 121l35 -37l-121 -122z" />
    <glyph glyph-name="Agrave" unicode="&#xc0;" 
d="M131 0h-98v648q0 45 36 80.5t81 35.5h53q64 0 101 -62q16 -27 16 -57v-645h-95v238h-94v-238zM129 697v-392h94v392h-94zM134 969l121 -121l-35 -38l-121 122z" />
    <glyph glyph-name="Oslash" unicode="&#xd8;" 
d="M131 0h-98v648q0 45 36 80.5t81 35.5h53q64 0 101 -62q16 -27 16 -57v-645h-95v238h-94v-238zM129 697v-392h94v392h-94zM199 849v-30q-25 -2 -39 8q-14 9 -14 20v38h48v82h-37v-30h-51v20q0 23 28 33q16 5 28 5h26q33 0 48 -18q8 -12 8 -18v-73q0 -18 -15 -27
q-15 -10 -30 -10z" />
    <glyph glyph-name="Oslash" unicode="&#x1ea2;" 
d="M131 0h-98v648q0 45 36 80.5t81 35.5h53q64 0 101 -62q16 -27 16 -57v-645h-95v238h-94v-238zM129 697v-392h94v392h-94zM199 849v-30q-25 -2 -39 8q-14 9 -14 20v38h48v82h-37v-30h-51v20q0 23 28 33q16 5 28 5h26q33 0 48 -18q8 -12 8 -18v-73q0 -18 -15 -27
q-15 -10 -30 -10z" />
    <glyph glyph-name="Atilde" unicode="&#xc3;" 
d="M131 0h-98v648q0 45 36 80.5t81 35.5h53q64 0 101 -62q16 -27 16 -57v-645h-95v238h-94v-238zM129 697v-392h94v392h-94zM206 841h23h23v19.5v20.5h22.5h23.5v-7v-7q0 -13 -8 -27q-17 -32 -46 -32h-15h-13q-22 0 -40 17q-16 14 -16 39h-23.5h-22.5v-22v-21h-22.5h-22.5
v9.5v10.5q0 31 29 48q12 8 26 8h12.5h13.5q31 0 49 -30q7 -16 7 -26z" />
    <glyph glyph-name="Idieresis" unicode="&#xcf;" 
d="M131 0h-98v648q0 45 36 80.5t81 35.5h53q64 0 101 -62q16 -27 16 -57v-645h-95v238h-94v-238zM129 697v-392h94v392h-94zM155 -60q7 6 25 6q19 0 33 -15t14 -35q0 -21 -14 -32q-15 -13 -35 -13q-17 2 -28 12q-15 13 -17 27q-2 3 -2 11q3 28 24 39v0z" />
    <glyph glyph-name="Idieresis" unicode="&#x1ea0;" 
d="M131 0h-98v648q0 45 36 80.5t81 35.5h53q64 0 101 -62q16 -27 16 -57v-645h-95v238h-94v-238zM129 697v-392h94v392h-94zM155 -60q7 6 25 6q19 0 33 -15t14 -35q0 -21 -14 -32q-15 -13 -35 -13q-17 2 -28 12q-15 13 -17 27q-2 3 -2 11q3 28 24 39v0z" />
    <glyph glyph-name="Edieresis" unicode="&#xcb;" 
d="M131 0h-98v648q0 45 36 80.5t81 35.5h53q64 0 101 -62q16 -27 16 -57v-645h-95v238h-94v-238zM129 697v-392h94v392h-94zM168 800q-34 0 -65 17q-34 17 -58 53l33 27q39 -49 90 -49q52 0 90 49l33 -27q-21 -36 -57 -53q-30 -17 -66 -17z" />
    <glyph glyph-name="Edieresis" unicode="&#x102;" 
d="M131 0h-98v648q0 45 36 80.5t81 35.5h53q64 0 101 -62q16 -27 16 -57v-645h-95v238h-94v-238zM129 697v-392h94v392h-94zM168 800q-34 0 -65 17q-34 17 -58 53l33 27q39 -49 90 -49q52 0 90 49l33 -27q-21 -36 -57 -53q-30 -17 -66 -17z" />
    <glyph glyph-name="Ydieresis" unicode="&#x178;" 
d="M131 0h-98v648q0 45 36 80.5t81 35.5h53q64 0 101 -62q16 -27 16 -57v-645h-95v238h-94v-238zM129 697v-392h94v392h-94zM168 800q-34 0 -65 17q-34 17 -58 53l33 27q39 -49 90 -49q52 0 90 49l33 -27q-21 -36 -57 -53q-30 -17 -66 -17zM136 908l121 121l35 -37
l-121 -122z" />
    <glyph glyph-name="Ydieresis" unicode="&#x1eae;" 
d="M131 0h-98v648q0 45 36 80.5t81 35.5h53q64 0 101 -62q16 -27 16 -57v-645h-95v238h-94v-238zM129 697v-392h94v392h-94zM168 800q-34 0 -65 17q-34 17 -58 53l33 27q39 -49 90 -49q52 0 90 49l33 -27q-21 -36 -57 -53q-30 -17 -66 -17zM136 908l121 121l35 -37
l-121 -122z" />
    <glyph glyph-name="exclamdown" unicode="&#xa1;" 
d="M131 0h-98v648q0 45 36 80.5t81 35.5h53q64 0 101 -62q16 -27 16 -57v-645h-95v238h-94v-238zM129 697v-392h94v392h-94zM168 800q-34 0 -65 17q-34 17 -58 53l33 27q39 -49 90 -49q52 0 90 49l33 -27q-21 -36 -57 -53q-30 -17 -66 -17zM216 908l-121 121l-35 -37
l121 -122z" />
    <glyph glyph-name="exclamdown" unicode="&#x1eb0;" 
d="M131 0h-98v648q0 45 36 80.5t81 35.5h53q64 0 101 -62q16 -27 16 -57v-645h-95v238h-94v-238zM129 697v-392h94v392h-94zM168 800q-34 0 -65 17q-34 17 -58 53l33 27q39 -49 90 -49q52 0 90 49l33 -27q-21 -36 -57 -53q-30 -17 -66 -17zM216 908l-121 121l-35 -37
l121 -122z" />
    <glyph glyph-name="germandbls" unicode="&#xdf;" 
d="M131 0h-98v648q0 45 36 80.5t81 35.5h53q64 0 101 -62q16 -27 16 -57v-645h-95v238h-94v-238zM129 697v-392h94v392h-94zM168 800q-34 0 -65 17q-34 17 -58 53l33 27q39 -49 90 -49q52 0 90 49l33 -27q-21 -36 -57 -53q-30 -17 -66 -17zM191 907v-30q-25 -2 -39 8
q-14 9 -14 20v38h48v82h-37v-30h-51v20q0 23 28 33q16 5 28 5h26q33 0 48 -18q8 -12 8 -18v-73q0 -18 -15 -27q-15 -10 -30 -10z" />
    <glyph glyph-name="germandbls" unicode="&#x1eb2;" 
d="M131 0h-98v648q0 45 36 80.5t81 35.5h53q64 0 101 -62q16 -27 16 -57v-645h-95v238h-94v-238zM129 697v-392h94v392h-94zM168 800q-34 0 -65 17q-34 17 -58 53l33 27q39 -49 90 -49q52 0 90 49l33 -27q-21 -36 -57 -53q-30 -17 -66 -17zM191 907v-30q-25 -2 -39 8
q-14 9 -14 20v38h48v82h-37v-30h-51v20q0 23 28 33q16 5 28 5h26q33 0 48 -18q8 -12 8 -18v-73q0 -18 -15 -27q-15 -10 -30 -10z" />
    <glyph glyph-name="Udieresis" unicode="&#xdc;" 
d="M131 0h-98v648q0 45 36 80.5t81 35.5h53q64 0 101 -62q16 -27 16 -57v-645h-95v238h-94v-238zM129 697v-392h94v392h-94zM168 800q-34 0 -65 17q-34 17 -58 53l33 27q39 -49 90 -49q52 0 90 49l33 -27q-21 -36 -57 -53q-30 -17 -66 -17zM200 944h23h23v19.5v20.5h22.5
h23.5v-7v-7q0 -13 -8 -27q-17 -32 -46 -32h-15h-13q-22 0 -40 17q-16 14 -16 39h-23.5h-22.5v-22v-21h-22.5h-22.5v9.5v10.5q0 31 29 48q12 8 26 8h12.5h13.5q31 0 49 -30q7 -16 7 -26z" />
    <glyph glyph-name="Udieresis" unicode="&#x1eb4;" 
d="M131 0h-98v648q0 45 36 80.5t81 35.5h53q64 0 101 -62q16 -27 16 -57v-645h-95v238h-94v-238zM129 697v-392h94v392h-94zM168 800q-34 0 -65 17q-34 17 -58 53l33 27q39 -49 90 -49q52 0 90 49l33 -27q-21 -36 -57 -53q-30 -17 -66 -17zM200 944h23h23v19.5v20.5h22.5
h23.5v-7v-7q0 -13 -8 -27q-17 -32 -46 -32h-15h-13q-22 0 -40 17q-16 14 -16 39h-23.5h-22.5v-22v-21h-22.5h-22.5v9.5v10.5q0 31 29 48q12 8 26 8h12.5h13.5q31 0 49 -30q7 -16 7 -26z" />
    <glyph glyph-name="asciitilde" unicode="~" 
d="M131 0h-98v648q0 45 36 80.5t81 35.5h53q64 0 101 -62q16 -27 16 -57v-645h-95v238h-94v-238zM129 697v-392h94v392h-94zM168 800q-34 0 -65 17q-34 17 -58 53l33 27q39 -49 90 -49q52 0 90 49l33 -27q-21 -36 -57 -53q-30 -17 -66 -17zM155 -60q7 6 25 6q19 0 33 -15
t14 -35q0 -21 -14 -32q-15 -13 -35 -13q-17 2 -28 12q-15 13 -17 27q-2 3 -2 11q3 28 24 39v0z" />
    <glyph glyph-name="asciitilde" unicode="&#x1eb6;" 
d="M131 0h-98v648q0 45 36 80.5t81 35.5h53q64 0 101 -62q16 -27 16 -57v-645h-95v238h-94v-238zM129 697v-392h94v392h-94zM168 800q-34 0 -65 17q-34 17 -58 53l33 27q39 -49 90 -49q52 0 90 49l33 -27q-21 -36 -57 -53q-30 -17 -66 -17zM155 -60q7 6 25 6q19 0 33 -15
t14 -35q0 -21 -14 -32q-15 -13 -35 -13q-17 2 -28 12q-15 13 -17 27q-2 3 -2 11q3 28 24 39v0z" />
    <glyph glyph-name="Acircumflex" unicode="&#xc2;" 
d="M131 0h-98v648q0 45 36 80.5t81 35.5h53q64 0 101 -62q16 -27 16 -57v-645h-95v238h-94v-238zM129 697v-392h94v392h-94zM170 925l121 -108l-35 -31l-86 77l-84 -77l-35 31z" />
    <glyph glyph-name="Adieresis" unicode="&#xc4;" 
d="M131 0h-98v648q0 45 36 80.5t81 35.5h53q64 0 101 -62q16 -27 16 -57v-645h-95v238h-94v-238zM129 697v-392h94v392h-94zM170 925l121 -108l-35 -31l-86 77l-84 -77l-35 31zM229 908l121 121l35 -37l-121 -122z" />
    <glyph glyph-name="Adieresis" unicode="&#x1ea4;" 
d="M131 0h-98v648q0 45 36 80.5t81 35.5h53q64 0 101 -62q16 -27 16 -57v-645h-95v238h-94v-238zM129 697v-392h94v392h-94zM170 925l121 -108l-35 -31l-86 77l-84 -77l-35 31zM229 908l121 121l35 -37l-121 -122z" />
    <glyph glyph-name="OE" unicode="&#x152;" 
d="M131 0h-98v648q0 45 36 80.5t81 35.5h53q64 0 101 -62q16 -27 16 -57v-645h-95v238h-94v-238zM129 697v-392h94v392h-94zM170 925l121 -108l-35 -31l-86 77l-84 -77l-35 31zM134 908l-121 121l-35 -37l121 -122z" />
    <glyph glyph-name="OE" unicode="&#x1ea6;" 
d="M131 0h-98v648q0 45 36 80.5t81 35.5h53q64 0 101 -62q16 -27 16 -57v-645h-95v238h-94v-238zM129 697v-392h94v392h-94zM170 925l121 -108l-35 -31l-86 77l-84 -77l-35 31zM134 908l-121 121l-35 -37l121 -122z" />
    <glyph glyph-name="Icircumflex" unicode="&#xce;" 
d="M131 0h-98v648q0 45 36 80.5t81 35.5h53q64 0 101 -62q16 -27 16 -57v-645h-95v238h-94v-238zM129 697v-392h94v392h-94zM170 925l121 -108l-35 -31l-86 77l-84 -77l-35 31zM290 907v-30q-25 -2 -39 8q-14 9 -14 20v38h48v82h-37v-30h-51v20q0 23 28 33q16 5 28 5h26
q33 0 48 -18q8 -12 8 -18v-73q0 -18 -15 -27q-15 -10 -30 -10z" />
    <glyph glyph-name="Icircumflex" unicode="&#x1ea8;" 
d="M131 0h-98v648q0 45 36 80.5t81 35.5h53q64 0 101 -62q16 -27 16 -57v-645h-95v238h-94v-238zM129 697v-392h94v392h-94zM170 925l121 -108l-35 -31l-86 77l-84 -77l-35 31zM290 907v-30q-25 -2 -39 8q-14 9 -14 20v38h48v82h-37v-30h-51v20q0 23 28 33q16 5 28 5h26
q33 0 48 -18q8 -12 8 -18v-73q0 -18 -15 -27q-15 -10 -30 -10z" />
    <glyph glyph-name="threequarters" unicode="&#xbe;" 
d="M131 0h-98v648q0 45 36 80.5t81 35.5h53q64 0 101 -62q16 -27 16 -57v-645h-95v238h-94v-238zM129 697v-392h94v392h-94zM170 925l121 -108l-35 -31l-86 77l-84 -77l-35 31zM233 940h23h23v19.5v20.5h22.5h23.5v-7v-7q0 -13 -8 -27q-17 -32 -46 -32h-15h-13q-22 0 -40 17
q-16 14 -16 39h-23.5h-22.5v-22v-21h-22.5h-22.5v9.5v10.5q0 31 29 48q12 8 26 8h12.5h13.5q31 0 49 -30q7 -16 7 -26z" />
    <glyph glyph-name="threequarters" unicode="&#x1eaa;" 
d="M131 0h-98v648q0 45 36 80.5t81 35.5h53q64 0 101 -62q16 -27 16 -57v-645h-95v238h-94v-238zM129 697v-392h94v392h-94zM170 925l121 -108l-35 -31l-86 77l-84 -77l-35 31zM233 940h23h23v19.5v20.5h22.5h23.5v-7v-7q0 -13 -8 -27q-17 -32 -46 -32h-15h-13q-22 0 -40 17
q-16 14 -16 39h-23.5h-22.5v-22v-21h-22.5h-22.5v9.5v10.5q0 31 29 48q12 8 26 8h12.5h13.5q31 0 49 -30q7 -16 7 -26z" />
    <glyph glyph-name="florin" unicode="&#x192;" 
d="M131 0h-98v648q0 45 36 80.5t81 35.5h53q64 0 101 -62q16 -27 16 -57v-645h-95v238h-94v-238zM129 697v-392h94v392h-94zM170 925l121 -108l-35 -31l-86 77l-84 -77l-35 31zM155 -60q7 6 25 6q19 0 33 -15t14 -35q0 -21 -14 -32q-15 -13 -35 -13q-17 2 -28 12
q-15 13 -17 27q-2 3 -2 11q3 28 24 39v0z" />
    <glyph glyph-name="florin" unicode="&#x1eac;" 
d="M131 0h-98v648q0 45 36 80.5t81 35.5h53q64 0 101 -62q16 -27 16 -57v-645h-95v238h-94v-238zM129 697v-392h94v392h-94zM170 925l121 -108l-35 -31l-86 77l-84 -77l-35 31zM155 -60q7 6 25 6q19 0 33 -15t14 -35q0 -21 -14 -32q-15 -13 -35 -13q-17 2 -28 12
q-15 13 -17 27q-2 3 -2 11q3 28 24 39v0z" />
    <glyph glyph-name="Eacute" unicode="&#xc9;" horiz-adv-x="352" 
d="M35 113v535q0 44 36.5 80t80.5 36h168v-239h-95v170h-94v-281h94v-66h-94v-282h94v172h95v-240h-168q-45 0 -81 35t-36 80zM136 854l121 121l35 -37l-121 -122z" />
    <glyph glyph-name="Egrave" unicode="&#xc8;" horiz-adv-x="352" 
d="M35 113v535q0 44 36.5 80t80.5 36h168v-239h-95v170h-94v-281h94v-66h-94v-282h94v172h95v-240h-168q-45 0 -81 35t-36 80zM134 969l121 -121l-35 -38l-121 122z" />
    <glyph glyph-name="yen" unicode="&#xa5;" horiz-adv-x="352" 
d="M35 113v535q0 44 36.5 80t80.5 36h168v-239h-95v170h-94v-281h94v-66h-94v-282h94v172h95v-240h-168q-45 0 -81 35t-36 80zM221 849v-30q-25 -2 -39 8q-14 9 -14 20v38h48v82h-37v-30h-51v20q0 23 28 33q16 5 28 5h26q33 0 48 -18q8 -12 8 -18v-73q0 -18 -15 -27
q-15 -10 -30 -10z" />
    <glyph glyph-name="yen" unicode="&#x1eba;" horiz-adv-x="352" 
d="M35 113v535q0 44 36.5 80t80.5 36h168v-239h-95v170h-94v-281h94v-66h-94v-282h94v172h95v-240h-168q-45 0 -81 35t-36 80zM221 849v-30q-25 -2 -39 8q-14 9 -14 20v38h48v82h-37v-30h-51v20q0 23 28 33q16 5 28 5h26q33 0 48 -18q8 -12 8 -18v-73q0 -18 -15 -27
q-15 -10 -30 -10z" />
    <glyph glyph-name="questiondown" unicode="&#xbf;" horiz-adv-x="352" 
d="M35 113v535q0 44 36.5 80t80.5 36h168v-239h-95v170h-94v-281h94v-66h-94v-282h94v172h95v-240h-168q-45 0 -81 35t-36 80zM206 841h23h23v19.5v20.5h22.5h23.5v-7v-7q0 -13 -8 -27q-17 -32 -46 -32h-15h-13q-22 0 -40 17q-16 14 -16 39h-23.5h-22.5v-22v-21h-22.5h-22.5
v9.5v10.5q0 31 29 48q12 8 26 8h12.5h13.5q31 0 49 -30q7 -16 7 -26z" />
    <glyph glyph-name="questiondown" unicode="&#x1ebc;" horiz-adv-x="352" 
d="M35 113v535q0 44 36.5 80t80.5 36h168v-239h-95v170h-94v-281h94v-66h-94v-282h94v172h95v-240h-168q-45 0 -81 35t-36 80zM206 841h23h23v19.5v20.5h22.5h23.5v-7v-7q0 -13 -8 -27q-17 -32 -46 -32h-15h-13q-22 0 -40 17q-16 14 -16 39h-23.5h-22.5v-22v-21h-22.5h-22.5
v9.5v10.5q0 31 29 48q12 8 26 8h12.5h13.5q31 0 49 -30q7 -16 7 -26z" />
    <glyph glyph-name="logicalnot" unicode="&#xac;" horiz-adv-x="352" 
d="M35 113v535q0 44 36.5 80t80.5 36h168v-239h-95v170h-94v-281h94v-66h-94v-282h94v172h95v-240h-168q-45 0 -81 35t-36 80zM155 -60q7 6 25 6q19 0 33 -15t14 -35q0 -21 -14 -32q-15 -13 -35 -13q-17 2 -28 12q-15 13 -17 27q-2 3 -2 11q3 28 24 39v0z" />
    <glyph glyph-name="logicalnot" unicode="&#x1eb8;" horiz-adv-x="352" 
d="M35 113v535q0 44 36.5 80t80.5 36h168v-239h-95v170h-94v-281h94v-66h-94v-282h94v172h95v-240h-168q-45 0 -81 35t-36 80zM155 -60q7 6 25 6q19 0 33 -15t14 -35q0 -21 -14 -32q-15 -13 -35 -13q-17 2 -28 12q-15 13 -17 27q-2 3 -2 11q3 28 24 39v0z" />
    <glyph glyph-name="Ecircumflex" unicode="&#xca;" horiz-adv-x="352" 
d="M35 113v535q0 44 36.5 80t80.5 36h168v-239h-95v170h-94v-281h94v-66h-94v-282h94v172h95v-240h-168q-45 0 -81 35t-36 80zM197 925l121 -108l-35 -31l-86 77l-84 -77l-35 31z" />
    <glyph glyph-name="uni1EBE" unicode="&#x1ebe;" horiz-adv-x="352" 
d="M35 113v535q0 44 36.5 80t80.5 36h168v-239h-95v170h-94v-281h94v-66h-94v-282h94v172h95v-240h-168q-45 0 -81 35t-36 80zM197 925l121 -108l-35 -31l-86 77l-84 -77l-35 31zM252 908l121 121l35 -37l-121 -122z" />
    <glyph glyph-name="uni1EBE" unicode="&#x2022;" horiz-adv-x="352" 
d="M35 113v535q0 44 36.5 80t80.5 36h168v-239h-95v170h-94v-281h94v-66h-94v-282h94v172h95v-240h-168q-45 0 -81 35t-36 80zM197 925l121 -108l-35 -31l-86 77l-84 -77l-35 31zM252 908l121 121l35 -37l-121 -122z" />
    <glyph glyph-name="guillemotleft" unicode="&#xab;" horiz-adv-x="352" 
d="M35 113v535q0 44 36.5 80t80.5 36h168v-239h-95v170h-94v-281h94v-66h-94v-282h94v172h95v-240h-168q-45 0 -81 35t-36 80zM197 925l121 -108l-35 -31l-86 77l-84 -77l-35 31zM152 908l-121 121l-35 -37l121 -122z" />
    <glyph glyph-name="guillemotleft" unicode="&#x1ec0;" horiz-adv-x="352" 
d="M35 113v535q0 44 36.5 80t80.5 36h168v-239h-95v170h-94v-281h94v-66h-94v-282h94v172h95v-240h-168q-45 0 -81 35t-36 80zM197 925l121 -108l-35 -31l-86 77l-84 -77l-35 31zM152 908l-121 121l-35 -37l121 -122z" />
    <glyph glyph-name="uni1EC2" unicode="&#x1ec2;" horiz-adv-x="352" 
d="M35 113v535q0 44 36.5 80t80.5 36h168v-239h-95v170h-94v-281h94v-66h-94v-282h94v172h95v-240h-168q-45 0 -81 35t-36 80zM197 925l121 -108l-35 -31l-86 77l-84 -77l-35 31zM311 907v-30q-25 -2 -39 8q-14 9 -14 20v38h48v82h-37v-30h-51v20q0 23 28 33q16 5 28 5h26
q33 0 48 -18q8 -12 8 -18v-73q0 -18 -15 -27q-15 -10 -30 -10z" />
    <glyph glyph-name="uni1EC2" unicode="&#x2039;" horiz-adv-x="352" 
d="M35 113v535q0 44 36.5 80t80.5 36h168v-239h-95v170h-94v-281h94v-66h-94v-282h94v172h95v-240h-168q-45 0 -81 35t-36 80zM197 925l121 -108l-35 -31l-86 77l-84 -77l-35 31zM311 907v-30q-25 -2 -39 8q-14 9 -14 20v38h48v82h-37v-30h-51v20q0 23 28 33q16 5 28 5h26
q33 0 48 -18q8 -12 8 -18v-73q0 -18 -15 -27q-15 -10 -30 -10z" />
    <glyph glyph-name="degree" unicode="&#xb0;" horiz-adv-x="352" 
d="M35 113v535q0 44 36.5 80t80.5 36h168v-239h-95v170h-94v-281h94v-66h-94v-282h94v172h95v-240h-168q-45 0 -81 35t-36 80zM197 925l121 -108l-35 -31l-86 77l-84 -77l-35 31zM258 940h23h23v19.5v20.5h22.5h23.5v-7v-7q0 -13 -8 -27q-17 -32 -46 -32h-15h-13
q-22 0 -40 17q-16 14 -16 39h-23.5h-22.5v-22v-21h-22.5h-22.5v9.5v10.5q0 31 29 48q12 8 26 8h12.5h13.5q31 0 49 -30q7 -16 7 -26z" />
    <glyph glyph-name="degree" unicode="&#x1ec4;" horiz-adv-x="352" 
d="M35 113v535q0 44 36.5 80t80.5 36h168v-239h-95v170h-94v-281h94v-66h-94v-282h94v172h95v-240h-168q-45 0 -81 35t-36 80zM197 925l121 -108l-35 -31l-86 77l-84 -77l-35 31zM258 940h23h23v19.5v20.5h22.5h23.5v-7v-7q0 -13 -8 -27q-17 -32 -46 -32h-15h-13
q-22 0 -40 17q-16 14 -16 39h-23.5h-22.5v-22v-21h-22.5h-22.5v9.5v10.5q0 31 29 48q12 8 26 8h12.5h13.5q31 0 49 -30q7 -16 7 -26z" />
    <glyph glyph-name="onequarter" unicode="&#xbc;" horiz-adv-x="352" 
d="M35 113v535q0 44 36.5 80t80.5 36h168v-239h-95v170h-94v-281h94v-66h-94v-282h94v172h95v-240h-168q-45 0 -81 35t-36 80zM197 925l121 -108l-35 -31l-86 77l-84 -77l-35 31zM155 -60q7 6 25 6q19 0 33 -15t14 -35q0 -21 -14 -32q-15 -13 -35 -13q-17 2 -28 12
q-15 13 -17 27q-2 3 -2 11q3 28 24 39v0z" />
    <glyph glyph-name="onequarter" unicode="&#x1ec6;" horiz-adv-x="352" 
d="M35 113v535q0 44 36.5 80t80.5 36h168v-239h-95v170h-94v-281h94v-66h-94v-282h94v172h95v-240h-168q-45 0 -81 35t-36 80zM197 925l121 -108l-35 -31l-86 77l-84 -77l-35 31zM155 -60q7 6 25 6q19 0 33 -15t14 -35q0 -21 -14 -32q-15 -13 -35 -13q-17 2 -28 12
q-15 13 -17 27q-2 3 -2 11q3 28 24 39v0z" />
    <glyph glyph-name="Oacute" unicode="&#xd3;" 
d="M35 123v527q0 64 61 100q27 16 56 16h53q65 0 101 -63q16 -28 16 -57v-531q0 -47 -35 -81t-82 -34h-57q-61 0 -97 65q-16 29 -16 58zM131 697v-629h94v629h-94zM111 854l121 121l35 -37l-121 -122z" />
    <glyph glyph-name="Ograve" unicode="&#xd2;" 
d="M35 123v527q0 64 61 100q27 16 56 16h53q65 0 101 -63q16 -28 16 -57v-531q0 -47 -35 -81t-82 -34h-57q-61 0 -97 65q-16 29 -16 58zM131 697v-629h94v629h-94zM267 854l-121 121l-35 -37l121 -122z" />
    <glyph glyph-name="tilde" unicode="&#x2dc;" 
d="M35 123v527q0 64 61 100q27 16 56 16h53q65 0 101 -63q16 -28 16 -57v-531q0 -47 -35 -81t-82 -34h-57q-61 0 -97 65q-16 29 -16 58zM131 697v-629h94v629h-94zM210 849v-30q-25 -2 -39 8q-14 9 -14 20v38h48v82h-37v-30h-51v20q0 23 28 33q16 5 28 5h26q33 0 48 -18
q8 -12 8 -18v-73q0 -18 -15 -27q-15 -10 -30 -10z" />
    <glyph glyph-name="tilde" unicode="&#x1ece;" 
d="M35 123v527q0 64 61 100q27 16 56 16h53q65 0 101 -63q16 -28 16 -57v-531q0 -47 -35 -81t-82 -34h-57q-61 0 -97 65q-16 29 -16 58zM131 697v-629h94v629h-94zM210 849v-30q-25 -2 -39 8q-14 9 -14 20v38h48v82h-37v-30h-51v20q0 23 28 33q16 5 28 5h26q33 0 48 -18
q8 -12 8 -18v-73q0 -18 -15 -27q-15 -10 -30 -10z" />
    <glyph glyph-name="Otilde" unicode="&#xd5;" 
d="M35 123v527q0 64 61 100q27 16 56 16h53q65 0 101 -63q16 -28 16 -57v-531q0 -47 -35 -81t-82 -34h-57q-61 0 -97 65q-16 29 -16 58zM131 697v-629h94v629h-94zM206 841h23h23v19.5v20.5h22.5h23.5v-7v-7q0 -13 -8 -27q-17 -32 -46 -32h-15h-13q-22 0 -40 17
q-16 14 -16 39h-23.5h-22.5v-22v-21h-22.5h-22.5v9.5v10.5q0 31 29 48q12 8 26 8h12.5h13.5q31 0 49 -30q7 -16 7 -26z" />
    <glyph glyph-name="uni008D" 
d="M35 123v527q0 64 61 100q27 16 56 16h53q65 0 101 -63q16 -28 16 -57v-531q0 -47 -35 -81t-82 -34h-57q-61 0 -97 65q-16 29 -16 58zM131 697v-629h94v629h-94zM155 -60q7 6 25 6q19 0 33 -15t14 -35q0 -21 -14 -32q-15 -13 -35 -13q-17 2 -28 12q-15 13 -17 27
q-2 3 -2 11q3 28 24 39v0z" />
    <glyph glyph-name="uni008D" unicode="&#x1ecc;" 
d="M35 123v527q0 64 61 100q27 16 56 16h53q65 0 101 -63q16 -28 16 -57v-531q0 -47 -35 -81t-82 -34h-57q-61 0 -97 65q-16 29 -16 58zM131 697v-629h94v629h-94zM155 -60q7 6 25 6q19 0 33 -15t14 -35q0 -21 -14 -32q-15 -13 -35 -13q-17 2 -28 12q-15 13 -17 27
q-2 3 -2 11q3 28 24 39v0z" />
    <glyph glyph-name="Ocircumflex" unicode="&#xd4;" 
d="M35 123v527q0 64 61 100q27 16 56 16h53q65 0 101 -63q16 -28 16 -57v-531q0 -47 -35 -81t-82 -34h-57q-61 0 -97 65q-16 29 -16 58zM131 697v-629h94v629h-94zM170 925l121 -108l-35 -31l-86 77l-84 -77l-35 31z" />
    <glyph glyph-name="Ccedilla" unicode="&#xc7;" 
d="M35 123v527q0 64 61 100q27 16 56 16h53q65 0 101 -63q16 -28 16 -57v-531q0 -47 -35 -81t-82 -34h-57q-61 0 -97 65q-16 29 -16 58zM131 697v-629h94v629h-94zM170 925l121 -108l-35 -31l-86 77l-84 -77l-35 31zM221 908l121 121l35 -37l-121 -122z" />
    <glyph glyph-name="Ccedilla" unicode="&#x1ed0;" 
d="M35 123v527q0 64 61 100q27 16 56 16h53q65 0 101 -63q16 -28 16 -57v-531q0 -47 -35 -81t-82 -34h-57q-61 0 -97 65q-16 29 -16 58zM131 697v-629h94v629h-94zM170 925l121 -108l-35 -31l-86 77l-84 -77l-35 31zM221 908l121 121l35 -37l-121 -122z" />
    <glyph glyph-name="uni1ED2" unicode="&#x1ed2;" 
d="M35 123v527q0 64 61 100q27 16 56 16h53q65 0 101 -63q16 -28 16 -57v-531q0 -47 -35 -81t-82 -34h-57q-61 0 -97 65q-16 29 -16 58zM131 697v-629h94v629h-94zM170 925l121 -108l-35 -31l-86 77l-84 -77l-35 31zM126 908l-121 121l-35 -37l121 -122z" />
    <glyph glyph-name="uni1ED2" unicode="&#x20ac;" 
d="M35 123v527q0 64 61 100q27 16 56 16h53q65 0 101 -63q16 -28 16 -57v-531q0 -47 -35 -81t-82 -34h-57q-61 0 -97 65q-16 29 -16 58zM131 697v-629h94v629h-94zM170 925l121 -108l-35 -31l-86 77l-84 -77l-35 31zM126 908l-121 121l-35 -37l121 -122z" />
    <glyph glyph-name="Aring" unicode="&#xc5;" 
d="M35 123v527q0 64 61 100q27 16 56 16h53q65 0 101 -63q16 -28 16 -57v-531q0 -47 -35 -81t-82 -34h-57q-61 0 -97 65q-16 29 -16 58zM131 697v-629h94v629h-94zM170 925l121 -108l-35 -31l-86 77l-84 -77l-35 31zM290 907v-30q-25 -2 -39 8q-14 9 -14 20v38h48v82h-37
v-30h-51v20q0 23 28 33q16 5 28 5h26q33 0 48 -18q8 -12 8 -18v-73q0 -18 -15 -27q-15 -10 -30 -10z" />
    <glyph glyph-name="Aring" unicode="&#x1ed4;" 
d="M35 123v527q0 64 61 100q27 16 56 16h53q65 0 101 -63q16 -28 16 -57v-531q0 -47 -35 -81t-82 -34h-57q-61 0 -97 65q-16 29 -16 58zM131 697v-629h94v629h-94zM170 925l121 -108l-35 -31l-86 77l-84 -77l-35 31zM290 907v-30q-25 -2 -39 8q-14 9 -14 20v38h48v82h-37
v-30h-51v20q0 23 28 33q16 5 28 5h26q33 0 48 -18q8 -12 8 -18v-73q0 -18 -15 -27q-15 -10 -30 -10z" />
    <glyph glyph-name="uni00AD" unicode="&#xad;" 
d="M35 123v527q0 64 61 100q27 16 56 16h53q65 0 101 -63q16 -28 16 -57v-531q0 -47 -35 -81t-82 -34h-57q-61 0 -97 65q-16 29 -16 58zM131 697v-629h94v629h-94zM170 925l121 -108l-35 -31l-86 77l-84 -77l-35 31zM233 940h23h23v19.5v20.5h22.5h23.5v-7v-7q0 -13 -8 -27
q-17 -32 -46 -32h-15h-13q-22 0 -40 17q-16 14 -16 39h-23.5h-22.5v-22v-21h-22.5h-22.5v9.5v10.5q0 31 29 48q12 8 26 8h12.5h13.5q31 0 49 -30q7 -16 7 -26z" />
    <glyph glyph-name="uni00AD" unicode="&#x1ed6;" 
d="M35 123v527q0 64 61 100q27 16 56 16h53q65 0 101 -63q16 -28 16 -57v-531q0 -47 -35 -81t-82 -34h-57q-61 0 -97 65q-16 29 -16 58zM131 697v-629h94v629h-94zM170 925l121 -108l-35 -31l-86 77l-84 -77l-35 31zM233 940h23h23v19.5v20.5h22.5h23.5v-7v-7q0 -13 -8 -27
q-17 -32 -46 -32h-15h-13q-22 0 -40 17q-16 14 -16 39h-23.5h-22.5v-22v-21h-22.5h-22.5v9.5v10.5q0 31 29 48q12 8 26 8h12.5h13.5q31 0 49 -30q7 -16 7 -26z" />
    <glyph glyph-name="uni009D" 
d="M35 123v527q0 64 61 100q27 16 56 16h53q65 0 101 -63q16 -28 16 -57v-531q0 -47 -35 -81t-82 -34h-57q-61 0 -97 65q-16 29 -16 58zM131 697v-629h94v629h-94zM170 925l121 -108l-35 -31l-86 77l-84 -77l-35 31zM153 -60q7 6 25 6q19 0 33 -15t14 -35q0 -21 -14 -32
q-15 -13 -35 -13q-17 2 -28 12q-15 13 -17 27q-2 3 -2 11q3 28 24 39v0z" />
    <glyph glyph-name="uni009D" unicode="&#x1ed8;" 
d="M35 123v527q0 64 61 100q27 16 56 16h53q65 0 101 -63q16 -28 16 -57v-531q0 -47 -35 -81t-82 -34h-57q-61 0 -97 65q-16 29 -16 58zM131 697v-629h94v629h-94zM170 925l121 -108l-35 -31l-86 77l-84 -77l-35 31zM153 -60q7 6 25 6q19 0 33 -15t14 -35q0 -21 -14 -32
q-15 -13 -35 -13q-17 2 -28 12q-15 13 -17 27q-2 3 -2 11q3 28 24 39v0z" />
    <glyph glyph-name="Ntilde" unicode="&#xd1;" horiz-adv-x="395" 
d="M22 123v527q0 64 61 100q26 16 56 16h53q65 0 101 -63q16 -28 16 -57v-44q21 3 37 22q17 20 17 40q-26 9 -26 40q-8 51 40 56q46 -8 46 -58q0 -14 -4 -26q-13 -45 -46 -72q-35 -30 -64 -30v-459q0 -46 -35 -81q-34 -34 -82 -34h-57q-61 0 -97 65q-16 27 -16 58zM118 697
v-629h94v629h-94z" />
    <glyph glyph-name="Ntilde" unicode="&#x1a0;" horiz-adv-x="395" 
d="M22 123v527q0 64 61 100q26 16 56 16h53q65 0 101 -63q16 -28 16 -57v-44q21 3 37 22q17 20 17 40q-26 9 -26 40q-8 51 40 56q46 -8 46 -58q0 -14 -4 -26q-13 -45 -46 -72q-35 -30 -64 -30v-459q0 -46 -35 -81q-34 -34 -82 -34h-57q-61 0 -97 65q-16 27 -16 58zM118 697
v-629h94v629h-94z" />
    <glyph glyph-name="greater" unicode="&#x3e;" horiz-adv-x="395" 
d="M22 123v527q0 64 61 100q26 16 56 16h53q65 0 101 -63q16 -28 16 -57v-44q21 3 37 22q17 20 17 40q-26 9 -26 40q-8 51 40 56q46 -8 46 -58q0 -14 -4 -26q-13 -45 -46 -72q-35 -30 -64 -30v-459q0 -46 -35 -81q-34 -34 -82 -34h-57q-61 0 -97 65q-16 27 -16 58zM118 697
v-629h94v629h-94zM111 854l121 121l35 -37l-121 -122z" />
    <glyph glyph-name="greater" unicode="&#x1eda;" horiz-adv-x="395" 
d="M22 123v527q0 64 61 100q26 16 56 16h53q65 0 101 -63q16 -28 16 -57v-44q21 3 37 22q17 20 17 40q-26 9 -26 40q-8 51 40 56q46 -8 46 -58q0 -14 -4 -26q-13 -45 -46 -72q-35 -30 -64 -30v-459q0 -46 -35 -81q-34 -34 -82 -34h-57q-61 0 -97 65q-16 27 -16 58zM118 697
v-629h94v629h-94zM111 854l121 121l35 -37l-121 -122z" />
    <glyph glyph-name="uni1EDC" unicode="&#x1edc;" horiz-adv-x="395" 
d="M22 123v527q0 64 61 100q26 16 56 16h53q65 0 101 -63q16 -28 16 -57v-44q21 3 37 22q17 20 17 40q-26 9 -26 40q-8 51 40 56q46 -8 46 -58q0 -14 -4 -26q-13 -45 -46 -72q-35 -30 -64 -30v-459q0 -46 -35 -81q-34 -34 -82 -34h-57q-61 0 -97 65q-16 27 -16 58zM118 697
v-629h94v629h-94zM134 969l121 -121l-35 -38l-121 122z" />
    <glyph glyph-name="uni1EDC" unicode="&#x2122;" horiz-adv-x="395" 
d="M22 123v527q0 64 61 100q26 16 56 16h53q65 0 101 -63q16 -28 16 -57v-44q21 3 37 22q17 20 17 40q-26 9 -26 40q-8 51 40 56q46 -8 46 -58q0 -14 -4 -26q-13 -45 -46 -72q-35 -30 -64 -30v-459q0 -46 -35 -81q-34 -34 -82 -34h-57q-61 0 -97 65q-16 27 -16 58zM118 697
v-629h94v629h-94zM134 969l121 -121l-35 -38l-121 122z" />
    <glyph glyph-name="uni1EDE" unicode="&#x1ede;" horiz-adv-x="395" 
d="M22 123v527q0 64 61 100q26 16 56 16h53q65 0 101 -63q16 -28 16 -57v-44q21 3 37 22q17 20 17 40q-26 9 -26 40q-8 51 40 56q46 -8 46 -58q0 -14 -4 -26q-13 -45 -46 -72q-35 -30 -64 -30v-459q0 -46 -35 -81q-34 -34 -82 -34h-57q-61 0 -97 65q-16 27 -16 58zM118 697
v-629h94v629h-94zM210 849v-30q-25 -2 -39 8q-14 9 -14 20v38h48v82h-37v-30h-51v20q0 23 28 33q16 5 28 5h26q33 0 48 -18q8 -12 8 -18v-73q0 -18 -15 -27q-15 -10 -30 -10z" />
    <glyph glyph-name="uni1EDE" unicode="&#x2021;" horiz-adv-x="395" 
d="M22 123v527q0 64 61 100q26 16 56 16h53q65 0 101 -63q16 -28 16 -57v-44q21 3 37 22q17 20 17 40q-26 9 -26 40q-8 51 40 56q46 -8 46 -58q0 -14 -4 -26q-13 -45 -46 -72q-35 -30 -64 -30v-459q0 -46 -35 -81q-34 -34 -82 -34h-57q-61 0 -97 65q-16 27 -16 58zM118 697
v-629h94v629h-94zM210 849v-30q-25 -2 -39 8q-14 9 -14 20v38h48v82h-37v-30h-51v20q0 23 28 33q16 5 28 5h26q33 0 48 -18q8 -12 8 -18v-73q0 -18 -15 -27q-15 -10 -30 -10z" />
    <glyph glyph-name="registered" unicode="&#xae;" horiz-adv-x="395" 
d="M22 123v527q0 64 61 100q26 16 56 16h53q65 0 101 -63q16 -28 16 -57v-44q21 3 37 22q17 20 17 40q-26 9 -26 40q-8 51 40 56q46 -8 46 -58q0 -14 -4 -26q-13 -45 -46 -72q-35 -30 -64 -30v-459q0 -46 -35 -81q-34 -34 -82 -34h-57q-61 0 -97 65q-16 27 -16 58zM118 697
v-629h94v629h-94zM206 841h23h23v19.5v20.5h22.5h23.5v-7v-7q0 -13 -8 -27q-17 -32 -46 -32h-15h-13q-22 0 -40 17q-16 14 -16 39h-23.5h-22.5v-22v-21h-22.5h-22.5v9.5v10.5q0 31 29 48q12 8 26 8h12.5h13.5q31 0 49 -30q7 -16 7 -26z" />
    <glyph glyph-name="registered" unicode="&#x1ee0;" horiz-adv-x="395" 
d="M22 123v527q0 64 61 100q26 16 56 16h53q65 0 101 -63q16 -28 16 -57v-44q21 3 37 22q17 20 17 40q-26 9 -26 40q-8 51 40 56q46 -8 46 -58q0 -14 -4 -26q-13 -45 -46 -72q-35 -30 -64 -30v-459q0 -46 -35 -81q-34 -34 -82 -34h-57q-61 0 -97 65q-16 27 -16 58zM118 697
v-629h94v629h-94zM206 841h23h23v19.5v20.5h22.5h23.5v-7v-7q0 -13 -8 -27q-17 -32 -46 -32h-15h-13q-22 0 -40 17q-16 14 -16 39h-23.5h-22.5v-22v-21h-22.5h-22.5v9.5v10.5q0 31 29 48q12 8 26 8h12.5h13.5q31 0 49 -30q7 -16 7 -26z" />
    <glyph glyph-name="uni0090" horiz-adv-x="395" 
d="M22 123v527q0 64 61 100q26 16 56 16h53q65 0 101 -63q16 -28 16 -57v-44q21 3 37 22q17 20 17 40q-26 9 -26 40q-8 51 40 56q46 -8 46 -58q0 -14 -4 -26q-13 -45 -46 -72q-35 -30 -64 -30v-459q0 -46 -35 -81q-34 -34 -82 -34h-57q-61 0 -97 65q-16 27 -16 58zM118 697
v-629h94v629h-94zM142 -60q7 6 25 6q19 0 33 -15t14 -35q0 -21 -14 -32q-15 -13 -35 -13q-17 2 -28 12q-15 13 -17 27q-2 3 -2 11q3 28 24 39v0z" />
    <glyph glyph-name="uni0090" unicode="&#x1ee2;" horiz-adv-x="395" 
d="M22 123v527q0 64 61 100q26 16 56 16h53q65 0 101 -63q16 -28 16 -57v-44q21 3 37 22q17 20 17 40q-26 9 -26 40q-8 51 40 56q46 -8 46 -58q0 -14 -4 -26q-13 -45 -46 -72q-35 -30 -64 -30v-459q0 -46 -35 -81q-34 -34 -82 -34h-57q-61 0 -97 65q-16 27 -16 58zM118 697
v-629h94v629h-94zM142 -60q7 6 25 6q19 0 33 -15t14 -35q0 -21 -14 -32q-15 -13 -35 -13q-17 2 -28 12q-15 13 -17 27q-2 3 -2 11q3 28 24 39v0z" />
    <glyph glyph-name="Iacute" unicode="&#xcd;" horiz-adv-x="164" 
d="M37 764h96v-764h-96v764zM33 854l121 121l35 -37l-121 -122z" />
    <glyph glyph-name="Igrave" unicode="&#xcc;" horiz-adv-x="164" 
d="M37 764h96v-764h-96v764zM43 969l121 -121l-35 -38l-121 122z" />
    <glyph glyph-name="AE" unicode="&#xc6;" horiz-adv-x="164" 
d="M37 764h96v-764h-96v764zM103 849v-30q-25 -2 -39 8q-14 9 -14 20v38h48v82h-37v-30h-51v20q0 23 28 33q16 5 28 5h26q33 0 48 -18q8 -12 8 -18v-73q0 -18 -15 -27q-15 -10 -30 -10z" />
    <glyph glyph-name="AE" unicode="&#x1ec8;" horiz-adv-x="164" 
d="M37 764h96v-764h-96v764zM103 849v-30q-25 -2 -39 8q-14 9 -14 20v38h48v82h-37v-30h-51v20q0 23 28 33q16 5 28 5h26q33 0 48 -18q8 -12 8 -18v-73q0 -18 -15 -27q-15 -10 -30 -10z" />
    <glyph glyph-name="Itilde" unicode="&#x128;" horiz-adv-x="164" 
d="M37 764h96v-764h-96v764zM108 841h23h23v19.5v20.5h22.5h23.5v-7v-7q0 -13 -8 -27q-17 -32 -46 -32h-15h-13q-22 0 -40 17q-16 14 -16 39h-23.5h-22.5v-22v-21h-22.5h-22.5v9.5v10.5q0 31 29 48q12 8 26 8h12.5h13.5q31 0 49 -30q7 -16 7 -26z" />
    <glyph glyph-name="Itilde" unicode="&#x160;" horiz-adv-x="164" 
d="M37 764h96v-764h-96v764zM108 841h23h23v19.5v20.5h22.5h23.5v-7v-7q0 -13 -8 -27q-17 -32 -46 -32h-15h-13q-22 0 -40 17q-16 14 -16 39h-23.5h-22.5v-22v-21h-22.5h-22.5v9.5v10.5q0 31 29 48q12 8 26 8h12.5h13.5q31 0 49 -30q7 -16 7 -26z" />
    <glyph glyph-name="uni1ECA" unicode="&#x1eca;" horiz-adv-x="395" 
d="M37 764h96v-764h-96v764zM61 -60q7 6 25 6q19 0 33 -15t14 -35q0 -21 -14 -32q-15 -13 -35 -13q-17 2 -28 12q-15 13 -17 27q-2 3 -2 11q3 28 24 39v0z" />
    <glyph glyph-name="uni1ECA" unicode="&#x2013;" horiz-adv-x="395" 
d="M37 764h96v-764h-96v764zM61 -60q7 6 25 6q19 0 33 -15t14 -35q0 -21 -14 -32q-15 -13 -35 -13q-17 2 -28 12q-15 13 -17 27q-2 3 -2 11q3 28 24 39v0z" />
    <glyph glyph-name="Uacute" unicode="&#xda;" horiz-adv-x="354" 
d="M227 764h95v-649q0 -47 -35 -81t-82 -34h-57q-61 0 -97 65q-16 29 -16 58v641h96v-698h96v698zM111 854l121 121l35 -37l-121 -122z" />
    <glyph glyph-name="Ugrave" unicode="&#xd9;" horiz-adv-x="354" 
d="M227 764h95v-649q0 -47 -35 -81t-82 -34h-57q-61 0 -97 65q-16 29 -16 58v641h96v-698h96v698zM134 969l121 -121l-35 -38l-121 122z" />
    <glyph glyph-name="braceleft" unicode="{" horiz-adv-x="354" 
d="M227 764h95v-649q0 -47 -35 -81t-82 -34h-57q-61 0 -97 65q-16 29 -16 58v641h96v-698h96v698zM210 849v-30q-25 -2 -39 8q-14 9 -14 20v38h48v82h-37v-30h-51v20q0 23 28 33q16 5 28 5h26q33 0 48 -18q8 -12 8 -18v-73q0 -18 -15 -27q-15 -10 -30 -10z" />
    <glyph glyph-name="braceleft" unicode="&#x1ee6;" horiz-adv-x="354" 
d="M227 764h95v-649q0 -47 -35 -81t-82 -34h-57q-61 0 -97 65q-16 29 -16 58v641h96v-698h96v698zM210 849v-30q-25 -2 -39 8q-14 9 -14 20v38h48v82h-37v-30h-51v20q0 23 28 33q16 5 28 5h26q33 0 48 -18q8 -12 8 -18v-73q0 -18 -15 -27q-15 -10 -30 -10z" />
    <glyph glyph-name="braceright" unicode="}" horiz-adv-x="354" 
d="M227 764h95v-649q0 -47 -35 -81t-82 -34h-57q-61 0 -97 65q-16 29 -16 58v641h96v-698h96v698zM206 841h23h23v19.5v20.5h22.5h23.5v-7v-7q0 -13 -8 -27q-17 -32 -46 -32h-15h-13q-22 0 -40 17q-16 14 -16 39h-23.5h-22.5v-22v-21h-22.5h-22.5v9.5v10.5q0 31 29 48
q12 8 26 8h12.5h13.5q31 0 49 -30q7 -16 7 -26z" />
    <glyph glyph-name="braceright" unicode="&#x168;" horiz-adv-x="354" 
d="M227 764h95v-649q0 -47 -35 -81t-82 -34h-57q-61 0 -97 65q-16 29 -16 58v641h96v-698h96v698zM206 841h23h23v19.5v20.5h22.5h23.5v-7v-7q0 -13 -8 -27q-17 -32 -46 -32h-15h-13q-22 0 -40 17q-16 14 -16 39h-23.5h-22.5v-22v-21h-22.5h-22.5v9.5v10.5q0 31 29 48
q12 8 26 8h12.5h13.5q31 0 49 -30q7 -16 7 -26z" />
    <glyph glyph-name="bar" unicode="|" horiz-adv-x="354" 
d="M227 764h95v-649q0 -47 -35 -81t-82 -34h-57q-61 0 -97 65q-16 29 -16 58v641h96v-698h96v698zM156 -60q7 6 25 6q19 0 33 -15t14 -35q0 -21 -14 -32q-15 -13 -35 -13q-17 2 -28 12q-15 13 -17 27q-2 3 -2 11q3 28 24 39v0z" />
    <glyph glyph-name="bar" unicode="&#x1ee4;" horiz-adv-x="354" 
d="M227 764h95v-649q0 -47 -35 -81t-82 -34h-57q-61 0 -97 65q-16 29 -16 58v641h96v-698h96v698zM156 -60q7 6 25 6q19 0 33 -15t14 -35q0 -21 -14 -32q-15 -13 -35 -13q-17 2 -28 12q-15 13 -17 27q-2 3 -2 11q3 28 24 39v0z" />
    <glyph glyph-name="Odieresis" unicode="&#xd6;" horiz-adv-x="397" 
d="M214 764h95v-160q21 3 37 23q17 20 17 40q-26 9 -26 40q-8 52 40 57q46 -8 46 -58q0 -14 -4 -26q-12 -44 -46 -73q-35 -30 -64 -30v-462q0 -46 -35 -81q-34 -34 -82 -34h-57q-61 0 -97 65q-16 27 -16 58v641h96v-698h96v698z" />
    <glyph glyph-name="Odieresis" unicode="&#x1af;" horiz-adv-x="397" 
d="M214 764h95v-160q21 3 37 23q17 20 17 40q-26 9 -26 40q-8 52 40 57q46 -8 46 -58q0 -14 -4 -26q-12 -44 -46 -73q-35 -30 -64 -30v-462q0 -46 -35 -81q-34 -34 -82 -34h-57q-61 0 -97 65q-16 27 -16 58v641h96v-698h96v698z" />
    <glyph glyph-name="Thorn" unicode="&#xde;" horiz-adv-x="397" 
d="M214 764h95v-160q21 3 37 23q17 20 17 40q-26 9 -26 40q-8 52 40 57q46 -8 46 -58q0 -14 -4 -26q-12 -44 -46 -73q-35 -30 -64 -30v-462q0 -46 -35 -81q-34 -34 -82 -34h-57q-61 0 -97 65q-16 27 -16 58v641h96v-698h96v698zM111 854l121 121l35 -37l-121 -122z" />
    <glyph glyph-name="Thorn" unicode="&#x1ee8;" horiz-adv-x="397" 
d="M214 764h95v-160q21 3 37 23q17 20 17 40q-26 9 -26 40q-8 52 40 57q46 -8 46 -58q0 -14 -4 -26q-12 -44 -46 -73q-35 -30 -64 -30v-462q0 -46 -35 -81q-34 -34 -82 -34h-57q-61 0 -97 65q-16 27 -16 58v641h96v-698h96v698zM111 854l121 121l35 -37l-121 -122z" />
    <glyph glyph-name="macron" unicode="&#xaf;" horiz-adv-x="397" 
d="M214 764h95v-160q21 3 37 23q17 20 17 40q-26 9 -26 40q-8 52 40 57q46 -8 46 -58q0 -14 -4 -26q-12 -44 -46 -73q-35 -30 -64 -30v-462q0 -46 -35 -81q-34 -34 -82 -34h-57q-61 0 -97 65q-16 27 -16 58v641h96v-698h96v698zM134 969l121 -121l-35 -38l-121 122z" />
    <glyph glyph-name="macron" unicode="&#x1eea;" horiz-adv-x="397" 
d="M214 764h95v-160q21 3 37 23q17 20 17 40q-26 9 -26 40q-8 52 40 57q46 -8 46 -58q0 -14 -4 -26q-12 -44 -46 -73q-35 -30 -64 -30v-462q0 -46 -35 -81q-34 -34 -82 -34h-57q-61 0 -97 65q-16 27 -16 58v641h96v-698h96v698zM134 969l121 -121l-35 -38l-121 122z" />
    <glyph glyph-name="Ucircumflex" unicode="&#xdb;" horiz-adv-x="397" 
d="M214 764h95v-160q21 3 37 23q17 20 17 40q-26 9 -26 40q-8 52 40 57q46 -8 46 -58q0 -14 -4 -26q-12 -44 -46 -73q-35 -30 -64 -30v-462q0 -46 -35 -81q-34 -34 -82 -34h-57q-61 0 -97 65q-16 27 -16 58v641h96v-698h96v698zM210 849v-30q-25 -2 -39 8q-14 9 -14 20v38
h48v82h-37v-30h-51v20q0 23 28 33q16 5 28 5h26q33 0 48 -18q8 -12 8 -18v-73q0 -18 -15 -27q-15 -10 -30 -10z" />
    <glyph glyph-name="Ucircumflex" unicode="&#x1eec;" horiz-adv-x="397" 
d="M214 764h95v-160q21 3 37 23q17 20 17 40q-26 9 -26 40q-8 52 40 57q46 -8 46 -58q0 -14 -4 -26q-12 -44 -46 -73q-35 -30 -64 -30v-462q0 -46 -35 -81q-34 -34 -82 -34h-57q-61 0 -97 65q-16 27 -16 58v641h96v-698h96v698zM210 849v-30q-25 -2 -39 8q-14 9 -14 20v38
h48v82h-37v-30h-51v20q0 23 28 33q16 5 28 5h26q33 0 48 -18q8 -12 8 -18v-73q0 -18 -15 -27q-15 -10 -30 -10z" />
    <glyph glyph-name="cent" unicode="&#xa2;" horiz-adv-x="397" 
d="M214 764h95v-160q21 3 37 23q17 20 17 40q-26 9 -26 40q-8 52 40 57q46 -8 46 -58q0 -14 -4 -26q-12 -44 -46 -73q-35 -30 -64 -30v-462q0 -46 -35 -81q-34 -34 -82 -34h-57q-61 0 -97 65q-16 27 -16 58v641h96v-698h96v698zM189 841h23h23v19.5v20.5h22.5h23.5v-7v-7
q0 -13 -8 -27q-17 -32 -46 -32h-15h-13q-22 0 -40 17q-16 14 -16 39h-23.5h-22.5v-22v-21h-22.5h-22.5v9.5v10.5q0 31 29 48q12 8 26 8h12.5h13.5q31 0 49 -30q7 -16 7 -26z" />
    <glyph glyph-name="cent" unicode="&#x1eee;" horiz-adv-x="397" 
d="M214 764h95v-160q21 3 37 23q17 20 17 40q-26 9 -26 40q-8 52 40 57q46 -8 46 -58q0 -14 -4 -26q-12 -44 -46 -73q-35 -30 -64 -30v-462q0 -46 -35 -81q-34 -34 -82 -34h-57q-61 0 -97 65q-16 27 -16 58v641h96v-698h96v698zM189 841h23h23v19.5v20.5h22.5h23.5v-7v-7
q0 -13 -8 -27q-17 -32 -46 -32h-15h-13q-22 0 -40 17q-16 14 -16 39h-23.5h-22.5v-22v-21h-22.5h-22.5v9.5v10.5q0 31 29 48q12 8 26 8h12.5h13.5q31 0 49 -30q7 -16 7 -26z" />
    <glyph glyph-name="uni1EF0" unicode="&#x1ef0;" horiz-adv-x="397" 
d="M214 764h95v-160q21 3 37 23q17 20 17 40q-26 9 -26 40q-8 52 40 57q46 -8 46 -58q0 -14 -4 -26q-12 -44 -46 -73q-35 -30 -64 -30v-462q0 -46 -35 -81q-34 -34 -82 -34h-57q-61 0 -97 65q-16 27 -16 58v641h96v-698h96v698zM147 -60q7 6 25 6q19 0 33 -15t14 -35
q0 -21 -14 -32q-15 -13 -35 -13q-17 2 -28 12q-15 13 -17 27q-2 3 -2 11q3 28 24 39v0z" />
    <glyph glyph-name="uni1EF0" unicode="&#x201e;" horiz-adv-x="397" 
d="M214 764h95v-160q21 3 37 23q17 20 17 40q-26 9 -26 40q-8 52 40 57q46 -8 46 -58q0 -14 -4 -26q-12 -44 -46 -73q-35 -30 -64 -30v-462q0 -46 -35 -81q-34 -34 -82 -34h-57q-61 0 -97 65q-16 27 -16 58v641h96v-698h96v698zM147 -60q7 6 25 6q19 0 33 -15t14 -35
q0 -21 -14 -32q-15 -13 -35 -13q-17 2 -28 12q-15 13 -17 27q-2 3 -2 11q3 28 24 39v0z" />
    <glyph glyph-name="Yacute" unicode="&#xdd;" horiz-adv-x="352" 
d="M225 764h93v-409q0 -80 -93 -119v-238h-96v240q-42 12 -69 47t-27 78v401h96v-457h96v457zM111 854l121 121l35 -37l-121 -122z" />
    <glyph glyph-name="brokenbar" unicode="&#xa6;" horiz-adv-x="352" 
d="M225 764h93v-409q0 -80 -93 -119v-238h-96v240q-42 12 -69 47t-27 78v401h96v-457h96v457zM134 969l121 -121l-35 -38l-121 122z" />
    <glyph glyph-name="brokenbar" unicode="&#x1ef2;" horiz-adv-x="352" 
d="M225 764h93v-409q0 -80 -93 -119v-238h-96v240q-42 12 -69 47t-27 78v401h96v-457h96v457zM134 969l121 -121l-35 -38l-121 122z" />
    <glyph glyph-name="Zcaron" unicode="&#x17d;" horiz-adv-x="352" 
d="M225 764h93v-409q0 -80 -93 -119v-238h-96v240q-42 12 -69 47t-27 78v401h96v-457h96v457zM210 849v-30q-25 -2 -39 8q-14 9 -14 20v38h48v82h-37v-30h-51v20q0 23 28 33q16 5 28 5h26q33 0 48 -18q8 -12 8 -18v-73q0 -18 -15 -27q-15 -10 -30 -10z" />
    <glyph glyph-name="Zcaron" unicode="&#x1ef6;" horiz-adv-x="352" 
d="M225 764h93v-409q0 -80 -93 -119v-238h-96v240q-42 12 -69 47t-27 78v401h96v-457h96v457zM210 849v-30q-25 -2 -39 8q-14 9 -14 20v38h48v82h-37v-30h-51v20q0 23 28 33q16 5 28 5h26q33 0 48 -18q8 -12 8 -18v-73q0 -18 -15 -27q-15 -10 -30 -10z" />
    <glyph glyph-name="uni00B3" unicode="&#xb3;" horiz-adv-x="352" 
d="M225 764h93v-409q0 -80 -93 -119v-238h-96v240q-42 12 -69 47t-27 78v401h96v-457h96v457zM189 841h23h23v19.5v20.5h22.5h23.5v-7v-7q0 -13 -8 -27q-17 -32 -46 -32h-15h-13q-22 0 -40 17q-16 14 -16 39h-23.5h-22.5v-22v-21h-22.5h-22.5v9.5v10.5q0 31 29 48q12 8 26 8
h12.5h13.5q31 0 49 -30q7 -16 7 -26z" />
    <glyph glyph-name="uni00B3" unicode="&#x1ef8;" horiz-adv-x="352" 
d="M225 764h93v-409q0 -80 -93 -119v-238h-96v240q-42 12 -69 47t-27 78v401h96v-457h96v457zM189 841h23h23v19.5v20.5h22.5h23.5v-7v-7q0 -13 -8 -27q-17 -32 -46 -32h-15h-13q-22 0 -40 17q-16 14 -16 39h-23.5h-22.5v-22v-21h-22.5h-22.5v9.5v10.5q0 31 29 48q12 8 26 8
h12.5h13.5q31 0 49 -30q7 -16 7 -26z" />
    <glyph glyph-name="uni00B5" unicode="&#xb5;" horiz-adv-x="352" 
d="M225 764h93v-409q0 -80 -93 -119v-237h-96v239q-42 11 -69 47q-27 34 -27 78v401h96v-457h96v457zM178 -53q47 0 47 -48t-47 -48q-48 0 -48 48t48 48z" />
    <glyph glyph-name="uni00B5" unicode="&#x1ef4;" horiz-adv-x="352" 
d="M225 764h93v-409q0 -80 -93 -119v-237h-96v239q-42 11 -69 47q-27 34 -27 78v401h96v-457h96v457zM178 -53q47 0 47 -48t-47 -48q-48 0 -48 48t48 48z" />
    <glyph glyph-name="Eth" unicode="&#xd0;" horiz-adv-x="357" 
d="M133 414h78v-66h-78v-282h94v631h-94v-283zM37 414v350h166q63 0 101 -55q18 -26 18 -61v-533q0 -46 -37 -80q-39 -35 -80 -35h-168v348h-37v66h37z" />
    <glyph glyph-name="Eth" unicode="&#x110;" horiz-adv-x="357" 
d="M133 414h78v-66h-78v-282h94v631h-94v-283zM37 414v350h166q63 0 101 -55q18 -26 18 -61v-533q0 -46 -37 -80q-39 -35 -80 -35h-168v348h-37v66h37z" />
    <glyph glyph-name="aacute" unicode="&#xe1;" horiz-adv-x="369" 
d="M219 66v215h-94v-215h94zM146 348l73 -2v111h-155q13 40 47 55q25 11 73 11h129v-457h46v-68h-214q-63 0 -100 60q-16 26 -16 55v125q0 59 63 94q30 17 54 16zM132 615l121 121l35 -37l-121 -122z" />
    <glyph glyph-name="agrave" unicode="&#xe0;" horiz-adv-x="369" 
d="M219 66v215h-94v-215h94zM146 348l73 -2v111h-155q13 40 47 55q25 11 73 11h129v-457h46v-68h-214q-63 0 -100 60q-16 26 -16 55v125q0 59 63 94q30 17 54 16zM166 735l121 -121l-35 -38l-121 122z" />
    <glyph glyph-name="oslash" unicode="&#xf8;" horiz-adv-x="369" 
d="M219 66v215h-94v-215h94zM146 348l73 -2v111h-155q13 40 47 55q25 11 73 11h129v-457h46v-68h-214q-63 0 -100 60q-16 26 -16 55v125q0 59 63 94q30 17 54 16zM222 615v-30q-27 -2 -39 8q-14 9 -14 20v38h48v82h-37v-30h-51v20q0 24 28 33q16 5 28 5h26q33 0 48 -18
q8 -12 8 -18v-73q0 -18 -15 -27q-15 -10 -30 -10z" />
    <glyph glyph-name="oslash" unicode="&#x1ea3;" horiz-adv-x="369" 
d="M219 66v215h-94v-215h94zM146 348l73 -2v111h-155q13 40 47 55q25 11 73 11h129v-457h46v-68h-214q-63 0 -100 60q-16 26 -16 55v125q0 59 63 94q30 17 54 16zM222 615v-30q-27 -2 -39 8q-14 9 -14 20v38h48v82h-37v-30h-51v20q0 24 28 33q16 5 28 5h26q33 0 48 -18
q8 -12 8 -18v-73q0 -18 -15 -27q-15 -10 -30 -10z" />
    <glyph glyph-name="atilde" unicode="&#xe3;" horiz-adv-x="369" 
d="M219 66v215h-94v-215h94zM146 348l73 -2v111h-155q13 40 47 55q25 11 73 11h129v-457h46v-68h-214q-63 0 -100 60q-16 26 -16 55v125q0 59 63 94q30 17 54 16zM215 600h22h23v19.5v20.5h23.5h23.5v-7v-7q0 -13 -8 -27q-19 -32 -47 -32h-14h-13q-23 0 -40 17
q-17 15 -17 39h-23h-22v-22v-21h-22.5h-22.5v9.5v10.5q0 31 29 48q12 8 26 8h12.5h13.5q31 0 48 -30q8 -15 8 -26z" />
    <glyph glyph-name="idieresis" unicode="&#xef;" horiz-adv-x="369" 
d="M219 66v215h-94v-215h94zM146 348l73 -2v111h-155q13 40 47 55q25 11 73 11h129v-457h46v-68h-214q-63 0 -100 60q-16 26 -16 55v125q0 59 63 94q30 17 54 16zM193 -53q48 0 48 -48t-48 -48t-48 48t48 48z" />
    <glyph glyph-name="idieresis" unicode="&#x1ea1;" horiz-adv-x="369" 
d="M219 66v215h-94v-215h94zM146 348l73 -2v111h-155q13 40 47 55q25 11 73 11h129v-457h46v-68h-214q-63 0 -100 60q-16 26 -16 55v125q0 59 63 94q30 17 54 16zM193 -53q48 0 48 -48t-48 -48t-48 48t48 48z" />
    <glyph glyph-name="edieresis" unicode="&#xeb;" horiz-adv-x="369" 
d="M219 66v215h-94v-215h94zM146 348l73 -2v111h-155q13 40 47 55q25 11 73 11h129v-457h46v-68h-214q-63 0 -100 60q-16 26 -16 55v125q0 59 63 94q30 17 54 16zM198 563q-34 0 -66 17q-35 17 -57 53l33 27q39 -49 90 -49q52 0 90 49l33 -27q-21 -35 -58 -53
q-30 -17 -65 -17z" />
    <glyph glyph-name="edieresis" unicode="&#x103;" horiz-adv-x="369" 
d="M219 66v215h-94v-215h94zM146 348l73 -2v111h-155q13 40 47 55q25 11 73 11h129v-457h46v-68h-214q-63 0 -100 60q-16 26 -16 55v125q0 59 63 94q30 17 54 16zM198 563q-34 0 -66 17q-35 17 -57 53l33 27q39 -49 90 -49q52 0 90 49l33 -27q-21 -35 -58 -53
q-30 -17 -65 -17z" />
    <glyph glyph-name="ydieresis" unicode="&#xff;" horiz-adv-x="369" 
d="M219 66v215h-94v-215h94zM146 348l73 -2v111h-155q13 40 47 55q25 11 73 11h129v-457h46v-68h-214q-63 0 -100 60q-16 26 -16 55v125q0 59 63 94q30 17 54 16zM198 563q-34 0 -66 17q-35 17 -57 53l33 27q39 -49 90 -49q52 0 90 49l33 -27q-21 -35 -58 -53
q-30 -17 -65 -17zM167 679l121 121l35 -37l-121 -122z" />
    <glyph glyph-name="ydieresis" unicode="&#x1eaf;" horiz-adv-x="369" 
d="M219 66v215h-94v-215h94zM146 348l73 -2v111h-155q13 40 47 55q25 11 73 11h129v-457h46v-68h-214q-63 0 -100 60q-16 26 -16 55v125q0 59 63 94q30 17 54 16zM198 563q-34 0 -66 17q-35 17 -57 53l33 27q39 -49 90 -49q52 0 90 49l33 -27q-21 -35 -58 -53
q-30 -17 -65 -17zM167 679l121 121l35 -37l-121 -122z" />
    <glyph glyph-name="cedilla" unicode="&#xb8;" horiz-adv-x="369" 
d="M219 66v215h-94v-215h94zM146 348l73 -2v111h-155q13 40 47 55q25 11 73 11h129v-457h46v-68h-214q-63 0 -100 60q-16 26 -16 55v125q0 59 63 94q30 17 54 16zM198 563q-34 0 -66 17q-35 17 -57 53l33 27q39 -49 90 -49q52 0 90 49l33 -27q-21 -35 -58 -53
q-30 -17 -65 -17zM247 679l-121 121l-35 -37l121 -122z" />
    <glyph glyph-name="cedilla" unicode="&#x1eb1;" horiz-adv-x="369" 
d="M219 66v215h-94v-215h94zM146 348l73 -2v111h-155q13 40 47 55q25 11 73 11h129v-457h46v-68h-214q-63 0 -100 60q-16 26 -16 55v125q0 59 63 94q30 17 54 16zM198 563q-34 0 -66 17q-35 17 -57 53l33 27q39 -49 90 -49q52 0 90 49l33 -27q-21 -35 -58 -53
q-30 -17 -65 -17zM247 679l-121 121l-35 -37l121 -122z" />
    <glyph glyph-name="divide" unicode="&#xf7;" horiz-adv-x="369" 
d="M219 66v215h-94v-215h94zM146 348l73 -2v111h-155q13 40 47 55q25 11 73 11h129v-457h46v-68h-214q-63 0 -100 60q-16 26 -16 55v125q0 59 63 94q30 17 54 16zM198 563q-34 0 -66 17q-35 17 -57 53l33 27q39 -49 90 -49q52 0 90 49l33 -27q-21 -35 -58 -53
q-30 -17 -65 -17zM218 667v-30q-27 -2 -39 8q-14 9 -14 20v38h48v82h-37v-30h-51v20q0 24 28 33q16 5 28 5h26q33 0 48 -18q8 -12 8 -18v-73q0 -18 -15 -27q-15 -10 -30 -10z" />
    <glyph glyph-name="divide" unicode="&#x1eb3;" horiz-adv-x="369" 
d="M219 66v215h-94v-215h94zM146 348l73 -2v111h-155q13 40 47 55q25 11 73 11h129v-457h46v-68h-214q-63 0 -100 60q-16 26 -16 55v125q0 59 63 94q30 17 54 16zM198 563q-34 0 -66 17q-35 17 -57 53l33 27q39 -49 90 -49q52 0 90 49l33 -27q-21 -35 -58 -53
q-30 -17 -65 -17zM218 667v-30q-27 -2 -39 8q-14 9 -14 20v38h48v82h-37v-30h-51v20q0 24 28 33q16 5 28 5h26q33 0 48 -18q8 -12 8 -18v-73q0 -18 -15 -27q-15 -10 -30 -10z" />
    <glyph glyph-name="udieresis" unicode="&#xfc;" horiz-adv-x="369" 
d="M219 66v215h-94v-215h94zM146 348l73 -2v111h-155q13 40 47 55q25 11 73 11h129v-457h46v-68h-214q-63 0 -100 60q-16 26 -16 55v125q0 59 63 94q30 17 54 16zM198 563q-34 0 -66 17q-35 17 -57 53l33 27q39 -49 90 -49q52 0 90 49l33 -27q-21 -35 -58 -53
q-30 -17 -65 -17zM215 702h22h23v19.5v20.5h23.5h23.5v-7v-7q0 -13 -8 -27q-19 -32 -47 -32h-14h-13q-23 0 -40 17q-17 15 -17 39h-23h-22v-22v-21h-22.5h-22.5v9.5v10.5q0 31 29 48q12 8 26 8h12.5h13.5q31 0 48 -30q8 -15 8 -26z" />
    <glyph glyph-name="udieresis" unicode="&#x1eb5;" horiz-adv-x="369" 
d="M219 66v215h-94v-215h94zM146 348l73 -2v111h-155q13 40 47 55q25 11 73 11h129v-457h46v-68h-214q-63 0 -100 60q-16 26 -16 55v125q0 59 63 94q30 17 54 16zM198 563q-34 0 -66 17q-35 17 -57 53l33 27q39 -49 90 -49q52 0 90 49l33 -27q-21 -35 -58 -53
q-30 -17 -65 -17zM215 702h22h23v19.5v20.5h23.5h23.5v-7v-7q0 -13 -8 -27q-19 -32 -47 -32h-14h-13q-23 0 -40 17q-17 15 -17 39h-23h-22v-22v-21h-22.5h-22.5v9.5v10.5q0 31 29 48q12 8 26 8h12.5h13.5q31 0 48 -30q8 -15 8 -26z" />
    <glyph glyph-name="grave" unicode="`" horiz-adv-x="369" 
d="M219 66v215h-94v-215h94zM146 348l73 -2v111h-155q13 40 47 55q25 11 73 11h129v-457h46v-68h-214q-63 0 -100 60q-16 26 -16 55v125q0 59 63 94q30 17 54 16zM198 563q-34 0 -66 17q-35 17 -57 53l33 27q39 -49 90 -49q52 0 90 49l33 -27q-21 -35 -58 -53
q-30 -17 -65 -17zM193 -53q48 0 48 -48t-48 -48t-48 48t48 48z" />
    <glyph glyph-name="grave" unicode="&#x1eb7;" horiz-adv-x="369" 
d="M219 66v215h-94v-215h94zM146 348l73 -2v111h-155q13 40 47 55q25 11 73 11h129v-457h46v-68h-214q-63 0 -100 60q-16 26 -16 55v125q0 59 63 94q30 17 54 16zM198 563q-34 0 -66 17q-35 17 -57 53l33 27q39 -49 90 -49q52 0 90 49l33 -27q-21 -35 -58 -53
q-30 -17 -65 -17zM193 -53q48 0 48 -48t-48 -48t-48 48t48 48z" />
    <glyph glyph-name="acircumflex" unicode="&#xe2;" horiz-adv-x="369" 
d="M219 66v215h-94v-215h94zM146 348l73 -2v111h-155q13 40 47 55q25 11 73 11h129v-457h46v-68h-214q-63 0 -100 60q-16 26 -16 55v125q0 59 63 94q30 17 54 16zM200 689l121 -108l-35 -31l-86 77l-84 -77l-35 31z" />
    <glyph glyph-name="adieresis" unicode="&#xe4;" horiz-adv-x="369" 
d="M219 66v215h-94v-215h94zM146 348l73 -2v111h-155q13 40 47 55q25 11 73 11h129v-457h46v-68h-214q-63 0 -100 60q-16 26 -16 55v125q0 59 63 94q30 17 54 16zM200 689l121 -108l-35 -31l-86 77l-84 -77l-35 31zM257 671l121 121l35 -37l-121 -122z" />
    <glyph glyph-name="adieresis" unicode="&#x1ea5;" horiz-adv-x="369" 
d="M219 66v215h-94v-215h94zM146 348l73 -2v111h-155q13 40 47 55q25 11 73 11h129v-457h46v-68h-214q-63 0 -100 60q-16 26 -16 55v125q0 59 63 94q30 17 54 16zM200 689l121 -108l-35 -31l-86 77l-84 -77l-35 31zM257 671l121 121l35 -37l-121 -122z" />
    <glyph glyph-name="oe" unicode="&#x153;" horiz-adv-x="369" 
d="M219 66v215h-94v-215h94zM146 348l73 -2v111h-155q13 40 47 55q25 11 73 11h129v-457h46v-68h-214q-63 0 -100 60q-16 26 -16 55v125q0 59 63 94q30 17 54 16zM200 689l121 -108l-35 -31l-86 77l-84 -77l-35 31zM153 671l-121 121l-35 -37l121 -122z" />
    <glyph glyph-name="oe" unicode="&#x1ea7;" horiz-adv-x="369" 
d="M219 66v215h-94v-215h94zM146 348l73 -2v111h-155q13 40 47 55q25 11 73 11h129v-457h46v-68h-214q-63 0 -100 60q-16 26 -16 55v125q0 59 63 94q30 17 54 16zM200 689l121 -108l-35 -31l-86 77l-84 -77l-35 31zM153 671l-121 121l-35 -37l121 -122z" />
    <glyph glyph-name="icircumflex" unicode="&#xee;" horiz-adv-x="369" 
d="M219 66v215h-94v-215h94zM146 348l73 -2v111h-155q13 40 47 55q25 11 73 11h129v-457h46v-68h-214q-63 0 -100 60q-16 26 -16 55v125q0 59 63 94q30 17 54 16zM200 689l121 -108l-35 -31l-86 77l-84 -77l-35 31zM314 665v-30q-27 -2 -39 8q-14 9 -14 20v38h48v82h-37v-30
h-51v20q0 24 28 33q16 5 28 5h26q33 0 48 -18q8 -12 8 -18v-73q0 -18 -15 -27q-15 -10 -30 -10z" />
    <glyph glyph-name="icircumflex" unicode="&#x1ea9;" horiz-adv-x="369" 
d="M219 66v215h-94v-215h94zM146 348l73 -2v111h-155q13 40 47 55q25 11 73 11h129v-457h46v-68h-214q-63 0 -100 60q-16 26 -16 55v125q0 59 63 94q30 17 54 16zM200 689l121 -108l-35 -31l-86 77l-84 -77l-35 31zM314 665v-30q-27 -2 -39 8q-14 9 -14 20v38h48v82h-37v-30
h-51v20q0 24 28 33q16 5 28 5h26q33 0 48 -18q8 -12 8 -18v-73q0 -18 -15 -27q-15 -10 -30 -10z" />
    <glyph glyph-name="uni1EAB" unicode="&#x1eab;" horiz-adv-x="369" 
d="M219 66v215h-94v-215h94zM146 348l73 -2v111h-155q13 40 47 55q25 11 73 11h129v-457h46v-68h-214q-63 0 -100 60q-16 26 -16 55v125q0 59 63 94q30 17 54 16zM200 689l121 -108l-35 -31l-86 77l-84 -77l-35 31zM265 702h22h23v19.5v20.5h23.5h23.5v-7v-7q0 -13 -8 -27
q-19 -32 -47 -32h-14h-13q-23 0 -40 17q-17 15 -17 39h-23h-22v-22v-21h-22.5h-22.5v9.5v10.5q0 31 29 48q12 8 26 8h12.5h13.5q31 0 48 -30q8 -15 8 -26z" />
    <glyph glyph-name="uni1EAB" unicode="&#x2030;" horiz-adv-x="369" 
d="M219 66v215h-94v-215h94zM146 348l73 -2v111h-155q13 40 47 55q25 11 73 11h129v-457h46v-68h-214q-63 0 -100 60q-16 26 -16 55v125q0 59 63 94q30 17 54 16zM200 689l121 -108l-35 -31l-86 77l-84 -77l-35 31zM265 702h22h23v19.5v20.5h23.5h23.5v-7v-7q0 -13 -8 -27
q-19 -32 -47 -32h-14h-13q-23 0 -40 17q-17 15 -17 39h-23h-22v-22v-21h-22.5h-22.5v9.5v10.5q0 31 29 48q12 8 26 8h12.5h13.5q31 0 48 -30q8 -15 8 -26z" />
    <glyph glyph-name="section" unicode="&#xa7;" horiz-adv-x="369" 
d="M219 66v215h-94v-215h94zM146 348l73 -2v111h-155q13 40 47 55q25 11 73 11h129v-457h46v-68h-214q-63 0 -100 60q-16 26 -16 55v125q0 59 63 94q30 17 54 16zM200 689l121 -108l-35 -31l-86 77l-84 -77l-35 31zM193 -53q48 0 48 -48t-48 -48t-48 48t48 48z" />
    <glyph glyph-name="section" unicode="&#x1ead;" horiz-adv-x="369" 
d="M219 66v215h-94v-215h94zM146 348l73 -2v111h-155q13 40 47 55q25 11 73 11h129v-457h46v-68h-214q-63 0 -100 60q-16 26 -16 55v125q0 59 63 94q30 17 54 16zM200 689l121 -108l-35 -31l-86 77l-84 -77l-35 31zM193 -53q48 0 48 -48t-48 -48t-48 48t48 48z" />
    <glyph glyph-name="eacute" unicode="&#xe9;" horiz-adv-x="348" 
d="M318 238h-191v-170h96v84h93v-37q0 -47 -34 -81t-81 -34h-56q-65 0 -99 64q-15 29 -15 59v287q0 62 61 99q26 16 56 16h53q64 0 101 -62q16 -27 16 -57v-168zM127 305h96v152h-96v-152zM104 615l121 121l35 -37l-121 -122z" />
    <glyph glyph-name="egrave" unicode="&#xe8;" horiz-adv-x="348" 
d="M318 238h-191v-170h96v84h93v-37q0 -47 -34 -81t-81 -34h-56q-65 0 -99 64q-15 29 -15 59v287q0 62 61 99q26 16 56 16h53q64 0 101 -62q16 -27 16 -57v-168zM127 305h96v152h-96v-152zM151 735l121 -121l-35 -38l-121 122z" />
    <glyph glyph-name="sterling" unicode="&#xa3;" horiz-adv-x="348" 
d="M318 238h-191v-170h96v84h93v-37q0 -47 -34 -81t-81 -34h-56q-65 0 -99 64q-15 29 -15 59v287q0 62 61 99q26 16 56 16h53q64 0 101 -62q16 -27 16 -57v-168zM127 305h96v152h-96v-152zM191 615v-30q-27 -2 -39 8q-14 9 -14 20v38h48v82h-37v-30h-51v20q0 24 28 33
q16 5 28 5h26q33 0 48 -18q8 -12 8 -18v-73q0 -18 -15 -27q-15 -10 -30 -10z" />
    <glyph glyph-name="sterling" unicode="&#x1ebb;" horiz-adv-x="348" 
d="M318 238h-191v-170h96v84h93v-37q0 -47 -34 -81t-81 -34h-56q-65 0 -99 64q-15 29 -15 59v287q0 62 61 99q26 16 56 16h53q64 0 101 -62q16 -27 16 -57v-168zM127 305h96v152h-96v-152zM191 615v-30q-27 -2 -39 8q-14 9 -14 20v38h48v82h-37v-30h-51v20q0 24 28 33
q16 5 28 5h26q33 0 48 -18q8 -12 8 -18v-73q0 -18 -15 -27q-15 -10 -30 -10z" />
    <glyph glyph-name="multiply" unicode="&#xd7;" horiz-adv-x="348" 
d="M318 238h-191v-170h96v84h93v-37q0 -47 -34 -81t-81 -34h-56q-65 0 -99 64q-15 29 -15 59v287q0 62 61 99q26 16 56 16h53q64 0 101 -62q16 -27 16 -57v-168zM127 305h96v152h-96v-152zM200 600h22h23v19.5v20.5h23.5h23.5v-7v-7q0 -13 -8 -27q-19 -32 -47 -32h-14h-13
q-23 0 -40 17q-17 15 -17 39h-23h-22v-22v-21h-22.5h-22.5v9.5v10.5q0 31 29 48q12 8 26 8h12.5h13.5q31 0 48 -30q8 -15 8 -26z" />
    <glyph glyph-name="multiply" unicode="&#x1ebd;" horiz-adv-x="348" 
d="M318 238h-191v-170h96v84h93v-37q0 -47 -34 -81t-81 -34h-56q-65 0 -99 64q-15 29 -15 59v287q0 62 61 99q26 16 56 16h53q64 0 101 -62q16 -27 16 -57v-168zM127 305h96v152h-96v-152zM200 600h22h23v19.5v20.5h23.5h23.5v-7v-7q0 -13 -8 -27q-19 -32 -47 -32h-14h-13
q-23 0 -40 17q-17 15 -17 39h-23h-22v-22v-21h-22.5h-22.5v9.5v10.5q0 31 29 48q12 8 26 8h12.5h13.5q31 0 48 -30q8 -15 8 -26z" />
    <glyph glyph-name="dieresis" unicode="&#xa8;" horiz-adv-x="348" 
d="M318 238h-191v-170h96v84h93v-37q0 -47 -34 -81t-81 -34h-56q-65 0 -99 64q-15 29 -15 59v287q0 62 61 99q26 16 56 16h53q64 0 101 -62q16 -27 16 -57v-168zM127 305h96v152h-96v-152zM181 -53q48 0 48 -48t-48 -48t-48 48t48 48z" />
    <glyph glyph-name="dieresis" unicode="&#x1eb9;" horiz-adv-x="348" 
d="M318 238h-191v-170h96v84h93v-37q0 -47 -34 -81t-81 -34h-56q-65 0 -99 64q-15 29 -15 59v287q0 62 61 99q26 16 56 16h53q64 0 101 -62q16 -27 16 -57v-168zM127 305h96v152h-96v-152zM181 -53q48 0 48 -48t-48 -48t-48 48t48 48z" />
    <glyph glyph-name="ecircumflex" unicode="&#xea;" horiz-adv-x="348" 
d="M318 238h-191v-170h96v84h93v-37q0 -47 -34 -81t-81 -34h-56q-65 0 -99 64q-15 29 -15 59v287q0 62 61 99q26 16 56 16h53q64 0 101 -62q16 -27 16 -57v-168zM127 305h96v152h-96v-152zM172 689l121 -108l-35 -31l-86 77l-84 -77l-35 31z" />
    <glyph glyph-name="periodcentered" unicode="&#xb7;" horiz-adv-x="348" 
d="M318 238h-191v-170h96v84h93v-37q0 -47 -34 -81t-81 -34h-56q-65 0 -99 64q-15 29 -15 59v287q0 62 61 99q26 16 56 16h53q64 0 101 -62q16 -27 16 -57v-168zM127 305h96v152h-96v-152zM172 689l121 -108l-35 -31l-86 77l-84 -77l-35 31zM231 671l121 121l35 -37
l-121 -122z" />
    <glyph glyph-name="periodcentered" unicode="&#x2219;" horiz-adv-x="348" 
d="M318 238h-191v-170h96v84h93v-37q0 -47 -34 -81t-81 -34h-56q-65 0 -99 64q-15 29 -15 59v287q0 62 61 99q26 16 56 16h53q64 0 101 -62q16 -27 16 -57v-168zM127 305h96v152h-96v-152zM172 689l121 -108l-35 -31l-86 77l-84 -77l-35 31zM231 671l121 121l35 -37
l-121 -122z" />
    <glyph glyph-name="periodcentered" unicode="&#x1ebf;" horiz-adv-x="348" 
d="M318 238h-191v-170h96v84h93v-37q0 -47 -34 -81t-81 -34h-56q-65 0 -99 64q-15 29 -15 59v287q0 62 61 99q26 16 56 16h53q64 0 101 -62q16 -27 16 -57v-168zM127 305h96v152h-96v-152zM172 689l121 -108l-35 -31l-86 77l-84 -77l-35 31zM231 671l121 121l35 -37
l-121 -122z" />
    <glyph glyph-name="guillemotright" unicode="&#xbb;" horiz-adv-x="348" 
d="M318 238h-191v-170h96v84h93v-37q0 -47 -34 -81t-81 -34h-56q-65 0 -99 64q-15 29 -15 59v287q0 62 61 99q26 16 56 16h53q64 0 101 -62q16 -27 16 -57v-168zM127 305h96v152h-96v-152zM172 689l121 -108l-35 -31l-86 77l-84 -77l-35 31zM128 671l-121 121l-35 -37
l121 -122z" />
    <glyph glyph-name="guillemotright" unicode="&#x1ec1;" horiz-adv-x="348" 
d="M318 238h-191v-170h96v84h93v-37q0 -47 -34 -81t-81 -34h-56q-65 0 -99 64q-15 29 -15 59v287q0 62 61 99q26 16 56 16h53q64 0 101 -62q16 -27 16 -57v-168zM127 305h96v152h-96v-152zM172 689l121 -108l-35 -31l-86 77l-84 -77l-35 31zM128 671l-121 121l-35 -37
l121 -122z" />
    <glyph glyph-name="uni1EC3" unicode="&#x1ec3;" horiz-adv-x="348" 
d="M318 238h-191v-170h96v84h93v-37q0 -47 -34 -81t-81 -34h-56q-65 0 -99 64q-15 29 -15 59v287q0 62 61 99q26 16 56 16h53q64 0 101 -62q16 -27 16 -57v-168zM127 305h96v152h-96v-152zM172 689l121 -108l-35 -31l-86 77l-84 -77l-35 31zM291 665v-30q-27 -2 -39 8
q-14 9 -14 20v38h48v82h-37v-30h-51v20q0 24 28 33q16 5 28 5h26q33 0 48 -18q8 -12 8 -18v-73q0 -18 -15 -27q-15 -10 -30 -10z" />
    <glyph glyph-name="uni1EC3" unicode="&#x203a;" horiz-adv-x="348" 
d="M318 238h-191v-170h96v84h93v-37q0 -47 -34 -81t-81 -34h-56q-65 0 -99 64q-15 29 -15 59v287q0 62 61 99q26 16 56 16h53q64 0 101 -62q16 -27 16 -57v-168zM127 305h96v152h-96v-152zM172 689l121 -108l-35 -31l-86 77l-84 -77l-35 31zM291 665v-30q-27 -2 -39 8
q-14 9 -14 20v38h48v82h-37v-30h-51v20q0 24 28 33q16 5 28 5h26q33 0 48 -18q8 -12 8 -18v-73q0 -18 -15 -27q-15 -10 -30 -10z" />
    <glyph glyph-name="ordmasculine" unicode="&#xba;" horiz-adv-x="348" 
d="M318 238h-191v-170h96v84h93v-37q0 -47 -34 -81t-81 -34h-56q-65 0 -99 64q-15 29 -15 59v287q0 62 61 99q26 16 56 16h53q64 0 101 -62q16 -27 16 -57v-168zM127 305h96v152h-96v-152zM172 689l121 -108l-35 -31l-86 77l-84 -77l-35 31zM236 702h22h23v19.5v20.5h23.5
h23.5v-7v-7q0 -13 -8 -27q-19 -32 -47 -32h-14h-13q-23 0 -40 17q-17 15 -17 39h-23h-22v-22v-21h-22.5h-22.5v9.5v10.5q0 31 29 48q12 8 26 8h12.5h13.5q31 0 48 -30q8 -15 8 -26z" />
    <glyph glyph-name="ordmasculine" unicode="&#x1ec5;" horiz-adv-x="348" 
d="M318 238h-191v-170h96v84h93v-37q0 -47 -34 -81t-81 -34h-56q-65 0 -99 64q-15 29 -15 59v287q0 62 61 99q26 16 56 16h53q64 0 101 -62q16 -27 16 -57v-168zM127 305h96v152h-96v-152zM172 689l121 -108l-35 -31l-86 77l-84 -77l-35 31zM236 702h22h23v19.5v20.5h23.5
h23.5v-7v-7q0 -13 -8 -27q-19 -32 -47 -32h-14h-13q-23 0 -40 17q-17 15 -17 39h-23h-22v-22v-21h-22.5h-22.5v9.5v10.5q0 31 29 48q12 8 26 8h12.5h13.5q31 0 48 -30q8 -15 8 -26z" />
    <glyph glyph-name="onehalf" unicode="&#xbd;" horiz-adv-x="348" 
d="M318 238h-191v-170h96v84h93v-37q0 -47 -34 -81t-81 -34h-56q-65 0 -99 64q-15 29 -15 59v287q0 62 61 99q26 16 56 16h53q64 0 101 -62q16 -27 16 -57v-168zM127 305h96v152h-96v-152zM172 689l121 -108l-35 -31l-86 77l-84 -77l-35 31zM181 -53q48 0 48 -48t-48 -48
t-48 48t48 48z" />
    <glyph glyph-name="onehalf" unicode="&#x1ec7;" horiz-adv-x="348" 
d="M318 238h-191v-170h96v84h93v-37q0 -47 -34 -81t-81 -34h-56q-65 0 -99 64q-15 29 -15 59v287q0 62 61 99q26 16 56 16h53q64 0 101 -62q16 -27 16 -57v-168zM127 305h96v152h-96v-152zM172 689l121 -108l-35 -31l-86 77l-84 -77l-35 31zM181 -53q48 0 48 -48t-48 -48
t-48 48t48 48z" />
    <glyph glyph-name="oacute" unicode="&#xf3;" horiz-adv-x="354" 
d="M35 123v287q0 62 59 99q25 16 56 16h55q64 0 101 -62q16 -27 16 -57v-291q0 -46 -35.5 -80.5t-81.5 -34.5h-57q-61 0 -97 65q-16 29 -16 58zM131 457v-391h94v391h-94zM104 615l121 121l35 -37l-121 -122z" />
    <glyph glyph-name="ograve" unicode="&#xf2;" horiz-adv-x="354" 
d="M35 123v287q0 62 59 99q25 16 56 16h55q64 0 101 -62q16 -27 16 -57v-291q0 -46 -35.5 -80.5t-81.5 -34.5h-57q-61 0 -97 65q-16 29 -16 58zM131 457v-391h94v391h-94zM136 735l121 -121l-35 -38l-121 122z" />
    <glyph glyph-name="circumflex" unicode="&#x2c6;" horiz-adv-x="354" 
d="M35 123v287q0 62 59 99q25 16 56 16h55q64 0 101 -62q16 -27 16 -57v-291q0 -46 -35.5 -80.5t-81.5 -34.5h-57q-61 0 -97 65q-16 29 -16 58zM131 457v-391h94v391h-94zM201 615v-30q-27 -2 -39 8q-14 9 -14 20v38h48v82h-37v-30h-51v20q0 24 28 33q16 5 28 5h26
q33 0 48 -18q8 -12 8 -18v-73q0 -18 -15 -27q-15 -10 -30 -10z" />
    <glyph glyph-name="circumflex" unicode="&#x1ecf;" horiz-adv-x="354" 
d="M35 123v287q0 62 59 99q25 16 56 16h55q64 0 101 -62q16 -27 16 -57v-291q0 -46 -35.5 -80.5t-81.5 -34.5h-57q-61 0 -97 65q-16 29 -16 58zM131 457v-391h94v391h-94zM201 615v-30q-27 -2 -39 8q-14 9 -14 20v38h48v82h-37v-30h-51v20q0 24 28 33q16 5 28 5h26
q33 0 48 -18q8 -12 8 -18v-73q0 -18 -15 -27q-15 -10 -30 -10z" />
    <glyph glyph-name="otilde" unicode="&#xf5;" horiz-adv-x="354" 
d="M35 123v287q0 62 59 99q25 16 56 16h55q64 0 101 -62q16 -27 16 -57v-291q0 -46 -35.5 -80.5t-81.5 -34.5h-57q-61 0 -97 65q-16 29 -16 58zM131 457v-391h94v391h-94zM200 600h22h23v19.5v20.5h23.5h23.5v-7v-7q0 -13 -8 -27q-19 -32 -47 -32h-14h-13q-23 0 -40 17
q-17 15 -17 39h-23h-22v-22v-21h-22.5h-22.5v9.5v10.5q0 31 29 48q12 8 26 8h12.5h13.5q31 0 48 -30q8 -15 8 -26z" />
    <glyph glyph-name="uni0081" horiz-adv-x="354" 
d="M35 123v287q0 62 59 99q25 16 56 16h55q64 0 101 -62q16 -27 16 -57v-291q0 -46 -35.5 -80.5t-81.5 -34.5h-57q-61 0 -97 65q-16 29 -16 58zM131 457v-391h94v391h-94zM181 -53q48 0 48 -48t-48 -48t-48 48t48 48z" />
    <glyph glyph-name="uni0081" unicode="&#x1ecd;" horiz-adv-x="354" 
d="M35 123v287q0 62 59 99q25 16 56 16h55q64 0 101 -62q16 -27 16 -57v-291q0 -46 -35.5 -80.5t-81.5 -34.5h-57q-61 0 -97 65q-16 29 -16 58zM131 457v-391h94v391h-94zM181 -53q48 0 48 -48t-48 -48t-48 48t48 48z" />
    <glyph glyph-name="ocircumflex" unicode="&#xf4;" horiz-adv-x="354" 
d="M35 123v287q0 62 59 99q25 16 56 16h55q64 0 101 -62q16 -27 16 -57v-291q0 -46 -35.5 -80.5t-81.5 -34.5h-57q-61 0 -97 65q-16 29 -16 58zM131 457v-391h94v391h-94zM172 689l121 -108l-35 -31l-86 77l-84 -77l-35 31z" />
    <glyph glyph-name="ccedilla" unicode="&#xe7;" horiz-adv-x="354" 
d="M35 123v287q0 62 59 99q25 16 56 16h55q64 0 101 -62q16 -27 16 -57v-291q0 -46 -35.5 -80.5t-81.5 -34.5h-57q-61 0 -97 65q-16 29 -16 58zM131 457v-391h94v391h-94zM172 689l121 -108l-35 -31l-86 77l-84 -77l-35 31zM231 671l121 121l35 -37l-121 -122z" />
    <glyph glyph-name="ccedilla" unicode="&#x1ed1;" horiz-adv-x="354" 
d="M35 123v287q0 62 59 99q25 16 56 16h55q64 0 101 -62q16 -27 16 -57v-291q0 -46 -35.5 -80.5t-81.5 -34.5h-57q-61 0 -97 65q-16 29 -16 58zM131 457v-391h94v391h-94zM172 689l121 -108l-35 -31l-86 77l-84 -77l-35 31zM231 671l121 121l35 -37l-121 -122z" />
    <glyph glyph-name="asciicircum" unicode="^" horiz-adv-x="354" 
d="M35 123v287q0 62 59 99q25 16 56 16h55q64 0 101 -62q16 -27 16 -57v-291q0 -46 -35.5 -80.5t-81.5 -34.5h-57q-61 0 -97 65q-16 29 -16 58zM131 457v-391h94v391h-94zM172 689l121 -108l-35 -31l-86 77l-84 -77l-35 31zM125 671l-121 121l-35 -37l121 -122z" />
    <glyph glyph-name="asciicircum" unicode="&#x1ed3;" horiz-adv-x="354" 
d="M35 123v287q0 62 59 99q25 16 56 16h55q64 0 101 -62q16 -27 16 -57v-291q0 -46 -35.5 -80.5t-81.5 -34.5h-57q-61 0 -97 65q-16 29 -16 58zM131 457v-391h94v391h-94zM172 689l121 -108l-35 -31l-86 77l-84 -77l-35 31zM125 671l-121 121l-35 -37l121 -122z" />
    <glyph glyph-name="aring" unicode="&#xe5;" horiz-adv-x="354" 
d="M35 123v287q0 62 59 99q25 16 56 16h55q64 0 101 -62q16 -27 16 -57v-291q0 -46 -35.5 -80.5t-81.5 -34.5h-57q-61 0 -97 65q-16 29 -16 58zM131 457v-391h94v391h-94zM172 689l121 -108l-35 -31l-86 77l-84 -77l-35 31zM291 665v-30q-27 -2 -39 8q-14 9 -14 20v38h48v82
h-37v-30h-51v20q0 24 28 33q16 5 28 5h26q33 0 48 -18q8 -12 8 -18v-73q0 -18 -15 -27q-15 -10 -30 -10z" />
    <glyph glyph-name="aring" unicode="&#x1ed5;" horiz-adv-x="354" 
d="M35 123v287q0 62 59 99q25 16 56 16h55q64 0 101 -62q16 -27 16 -57v-291q0 -46 -35.5 -80.5t-81.5 -34.5h-57q-61 0 -97 65q-16 29 -16 58zM131 457v-391h94v391h-94zM172 689l121 -108l-35 -31l-86 77l-84 -77l-35 31zM291 665v-30q-27 -2 -39 8q-14 9 -14 20v38h48v82
h-37v-30h-51v20q0 24 28 33q16 5 28 5h26q33 0 48 -18q8 -12 8 -18v-73q0 -18 -15 -27q-15 -10 -30 -10z" />
    <glyph glyph-name="ordfeminine" unicode="&#xaa;" horiz-adv-x="354" 
d="M35 123v287q0 62 59 99q25 16 56 16h55q64 0 101 -62q16 -27 16 -57v-291q0 -46 -35.5 -80.5t-81.5 -34.5h-57q-61 0 -97 65q-16 29 -16 58zM131 457v-391h94v391h-94zM172 689l121 -108l-35 -31l-86 77l-84 -77l-35 31zM236 702h22h23v19.5v20.5h23.5h23.5v-7v-7
q0 -13 -8 -27q-19 -32 -47 -32h-14h-13q-23 0 -40 17q-17 15 -17 39h-23h-22v-22v-21h-22.5h-22.5v9.5v10.5q0 31 29 48q12 8 26 8h12.5h13.5q31 0 48 -30q8 -15 8 -26z" />
    <glyph glyph-name="ordfeminine" unicode="&#x1ed7;" horiz-adv-x="354" 
d="M35 123v287q0 62 59 99q25 16 56 16h55q64 0 101 -62q16 -27 16 -57v-291q0 -46 -35.5 -80.5t-81.5 -34.5h-57q-61 0 -97 65q-16 29 -16 58zM131 457v-391h94v391h-94zM172 689l121 -108l-35 -31l-86 77l-84 -77l-35 31zM236 702h22h23v19.5v20.5h23.5h23.5v-7v-7
q0 -13 -8 -27q-19 -32 -47 -32h-14h-13q-23 0 -40 17q-17 15 -17 39h-23h-22v-22v-21h-22.5h-22.5v9.5v10.5q0 31 29 48q12 8 26 8h12.5h13.5q31 0 48 -30q8 -15 8 -26z" />
    <glyph glyph-name="uni1ED9" unicode="&#x1ed9;" horiz-adv-x="354" 
d="M35 123v287q0 62 59 99q25 16 56 16h55q64 0 101 -62q16 -27 16 -57v-291q0 -46 -35.5 -80.5t-81.5 -34.5h-57q-61 0 -97 65q-16 29 -16 58zM131 457v-391h94v391h-94zM172 689l121 -108l-35 -31l-86 77l-84 -77l-35 31zM181 -53q48 0 48 -48t-48 -48t-48 48t48 48z" />
    <glyph glyph-name="uni1ED9" unicode="&#x2026;" horiz-adv-x="354" 
d="M35 123v287q0 62 59 99q25 16 56 16h55q64 0 101 -62q16 -27 16 -57v-291q0 -46 -35.5 -80.5t-81.5 -34.5h-57q-61 0 -97 65q-16 29 -16 58zM131 457v-391h94v391h-94zM172 689l121 -108l-35 -31l-86 77l-84 -77l-35 31zM181 -53q48 0 48 -48t-48 -48t-48 48t48 48z" />
    <glyph glyph-name="ntilde" unicode="&#xf1;" horiz-adv-x="375" 
d="M22 123v287q0 61 59 99q24 16 56 16h55q63 0 101 -62q16 -27 16 -57v-34q36 6 36 54q-26 9 -26 40q-8 51 40 56q42 -2 42 -80q0 -43 -32 -75q-29 -29 -60 -29v-223q0 -47 -35 -80q-37 -35 -82 -35h-57q-61 0 -97 65q-16 27 -16 58zM118 457v-391h94v391h-94z" />
    <glyph glyph-name="ntilde" unicode="&#x1a1;" horiz-adv-x="375" 
d="M22 123v287q0 61 59 99q24 16 56 16h55q63 0 101 -62q16 -27 16 -57v-34q36 6 36 54q-26 9 -26 40q-8 51 40 56q42 -2 42 -80q0 -43 -32 -75q-29 -29 -60 -29v-223q0 -47 -35 -80q-37 -35 -82 -35h-57q-61 0 -97 65q-16 27 -16 58zM118 457v-391h94v391h-94z" />
    <glyph glyph-name="less" unicode="&#x3c;" horiz-adv-x="375" 
d="M22 123v287q0 61 59 99q24 16 56 16h55q63 0 101 -62q16 -27 16 -57v-34q36 6 36 54q-26 9 -26 40q-8 51 40 56q42 -2 42 -80q0 -43 -32 -75q-29 -29 -60 -29v-223q0 -47 -35 -80q-37 -35 -82 -35h-57q-61 0 -97 65q-16 27 -16 58zM118 457v-391h94v391h-94zM104 615
l121 121l35 -37l-121 -122z" />
    <glyph glyph-name="less" unicode="&#x1edb;" horiz-adv-x="375" 
d="M22 123v287q0 61 59 99q24 16 56 16h55q63 0 101 -62q16 -27 16 -57v-34q36 6 36 54q-26 9 -26 40q-8 51 40 56q42 -2 42 -80q0 -43 -32 -75q-29 -29 -60 -29v-223q0 -47 -35 -80q-37 -35 -82 -35h-57q-61 0 -97 65q-16 27 -16 58zM118 457v-391h94v391h-94zM104 615
l121 121l35 -37l-121 -122z" />
    <glyph glyph-name="copyright" unicode="&#xa9;" horiz-adv-x="375" 
d="M22 123v287q0 61 59 99q24 16 56 16h55q63 0 101 -62q16 -27 16 -57v-34q36 6 36 54q-26 9 -26 40q-8 51 40 56q42 -2 42 -80q0 -43 -32 -75q-29 -29 -60 -29v-223q0 -47 -35 -80q-37 -35 -82 -35h-57q-61 0 -97 65q-16 27 -16 58zM118 457v-391h94v391h-94zM136 735
l121 -121l-35 -38l-121 122z" />
    <glyph glyph-name="copyright" unicode="&#x1edd;" horiz-adv-x="375" 
d="M22 123v287q0 61 59 99q24 16 56 16h55q63 0 101 -62q16 -27 16 -57v-34q36 6 36 54q-26 9 -26 40q-8 51 40 56q42 -2 42 -80q0 -43 -32 -75q-29 -29 -60 -29v-223q0 -47 -35 -80q-37 -35 -82 -35h-57q-61 0 -97 65q-16 27 -16 58zM118 457v-391h94v391h-94zM136 735
l121 -121l-35 -38l-121 122z" />
    <glyph glyph-name="uni1EDF" unicode="&#x1edf;" horiz-adv-x="375" 
d="M22 123v287q0 61 59 99q24 16 56 16h55q63 0 101 -62q16 -27 16 -57v-34q36 6 36 54q-26 9 -26 40q-8 51 40 56q42 -2 42 -80q0 -43 -32 -75q-29 -29 -60 -29v-223q0 -47 -35 -80q-37 -35 -82 -35h-57q-61 0 -97 65q-16 27 -16 58zM118 457v-391h94v391h-94zM191 615v-30
q-27 -2 -39 8q-14 9 -14 20v38h48v82h-37v-30h-51v20q0 24 28 33q16 5 28 5h26q33 0 48 -18q8 -12 8 -18v-73q0 -18 -15 -27q-15 -10 -30 -10z" />
    <glyph glyph-name="uni1EDF" unicode="&#x2020;" horiz-adv-x="375" 
d="M22 123v287q0 61 59 99q24 16 56 16h55q63 0 101 -62q16 -27 16 -57v-34q36 6 36 54q-26 9 -26 40q-8 51 40 56q42 -2 42 -80q0 -43 -32 -75q-29 -29 -60 -29v-223q0 -47 -35 -80q-37 -35 -82 -35h-57q-61 0 -97 65q-16 27 -16 58zM118 457v-391h94v391h-94zM191 615v-30
q-27 -2 -39 8q-14 9 -14 20v38h48v82h-37v-30h-51v20q0 24 28 33q16 5 28 5h26q33 0 48 -18q8 -12 8 -18v-73q0 -18 -15 -27q-15 -10 -30 -10z" />
    <glyph glyph-name="plusminus" unicode="&#xb1;" horiz-adv-x="375" 
d="M22 123v287q0 61 59 99q24 16 56 16h55q63 0 101 -62q16 -27 16 -57v-34q36 6 36 54q-26 9 -26 40q-8 51 40 56q42 -2 42 -80q0 -43 -32 -75q-29 -29 -60 -29v-223q0 -47 -35 -80q-37 -35 -82 -35h-57q-61 0 -97 65q-16 27 -16 58zM118 457v-391h94v391h-94zM191 600h22
h23v19.5v20.5h23.5h23.5v-7v-7q0 -13 -8 -27q-19 -32 -47 -32h-14h-13q-23 0 -40 17q-17 15 -17 39h-23h-22v-22v-21h-22.5h-22.5v9.5v10.5q0 31 29 48q12 8 26 8h12.5h13.5q31 0 48 -30q8 -15 8 -26z" />
    <glyph glyph-name="plusminus" unicode="&#x1ee1;" horiz-adv-x="375" 
d="M22 123v287q0 61 59 99q24 16 56 16h55q63 0 101 -62q16 -27 16 -57v-34q36 6 36 54q-26 9 -26 40q-8 51 40 56q42 -2 42 -80q0 -43 -32 -75q-29 -29 -60 -29v-223q0 -47 -35 -80q-37 -35 -82 -35h-57q-61 0 -97 65q-16 27 -16 58zM118 457v-391h94v391h-94zM191 600h22
h23v19.5v20.5h23.5h23.5v-7v-7q0 -13 -8 -27q-19 -32 -47 -32h-14h-13q-23 0 -40 17q-17 15 -17 39h-23h-22v-22v-21h-22.5h-22.5v9.5v10.5q0 31 29 48q12 8 26 8h12.5h13.5q31 0 48 -30q8 -15 8 -26z" />
    <glyph glyph-name="uni008F" horiz-adv-x="375" 
d="M22 123v287q0 61 59 99q24 16 56 16h55q63 0 101 -62q16 -27 16 -57v-34q36 6 36 54q-26 9 -26 40q-8 51 40 56q42 -2 42 -80q0 -43 -32 -75q-29 -29 -60 -29v-223q0 -47 -35 -80q-37 -35 -82 -35h-57q-61 0 -97 65q-16 27 -16 58zM118 457v-391h94v391h-94zM166 -53
q48 0 48 -48t-48 -48t-48 48t48 48z" />
    <glyph glyph-name="uni008F" unicode="&#x1ee3;" horiz-adv-x="375" 
d="M22 123v287q0 61 59 99q24 16 56 16h55q63 0 101 -62q16 -27 16 -57v-34q36 6 36 54q-26 9 -26 40q-8 51 40 56q42 -2 42 -80q0 -43 -32 -75q-29 -29 -60 -29v-223q0 -47 -35 -80q-37 -35 -82 -35h-57q-61 0 -97 65q-16 27 -16 58zM118 457v-391h94v391h-94zM166 -53
q48 0 48 -48t-48 -48t-48 48t48 48z" />
    <glyph glyph-name="iacute" unicode="&#xed;" horiz-adv-x="172" 
d="M131 438v-438h-96v525q42 0 69 -25q27 -26 27 -62zM16 615l121 121l35 -37l-121 -122z" />
    <glyph glyph-name="igrave" unicode="&#xec;" horiz-adv-x="172" 
d="M131 438v-438h-96v525q41 0 70 -25q26 -26 26 -62zM36 735l121 -121l-35 -38l-121 122z" />
    <glyph glyph-name="ae" unicode="&#xe6;" horiz-adv-x="172" 
d="M131 438v-438h-96v525q42 0 69 -25q27 -26 27 -62zM111 615v-30q-27 -2 -39 8q-14 9 -14 20v38h48v82h-37v-30h-51v20q0 24 28 33q16 5 28 5h26q33 0 48 -18q8 -12 8 -18v-73q0 -18 -15 -27q-15 -10 -30 -10z" />
    <glyph glyph-name="ae" unicode="&#x1ec9;" horiz-adv-x="172" 
d="M131 438v-438h-96v525q42 0 69 -25q27 -26 27 -62zM111 615v-30q-27 -2 -39 8q-14 9 -14 20v38h48v82h-37v-30h-51v20q0 24 28 33q16 5 28 5h26q33 0 48 -18q8 -12 8 -18v-73q0 -18 -15 -27q-15 -10 -30 -10z" />
    <glyph glyph-name="itilde" unicode="&#x129;" horiz-adv-x="172" 
d="M131 438v-438h-96v525q41 0 70 -25q26 -26 26 -62zM104 600h22h23v19.5v20.5h23.5h23.5v-7v-7q0 -13 -8 -27q-19 -32 -47 -32h-14h-13q-23 0 -40 17q-17 15 -17 39h-23h-22v-22v-21h-22.5h-22.5v9.5v10.5q0 31 29 48q12 8 26 8h12.5h13.5q31 0 48 -30q8 -15 8 -26z" />
    <glyph glyph-name="itilde" unicode="&#x161;" horiz-adv-x="172" 
d="M131 438v-438h-96v525q41 0 70 -25q26 -26 26 -62zM104 600h22h23v19.5v20.5h23.5h23.5v-7v-7q0 -13 -8 -27q-19 -32 -47 -32h-14h-13q-23 0 -40 17q-17 15 -17 39h-23h-22v-22v-21h-22.5h-22.5v9.5v10.5q0 31 29 48q12 8 26 8h12.5h13.5q31 0 48 -30q8 -15 8 -26z" />
    <glyph glyph-name="uni1ECB" unicode="&#x1ecb;" horiz-adv-x="172" 
d="M131 438v-438h-96v525q41 0 70 -25q26 -26 26 -62zM83 -53q48 0 48 -48t-48 -48t-48 48t48 48z" />
    <glyph glyph-name="uni1ECB" unicode="&#x2014;" horiz-adv-x="172" 
d="M131 438v-438h-96v525q41 0 70 -25q26 -26 26 -62zM83 -53q48 0 48 -48t-48 -48t-48 48t48 48z" />
    <glyph glyph-name="uacute" unicode="&#xfa;" horiz-adv-x="367" 
d="M355 0h-210q-46 0 -79 33.5t-33 79.5v412h96v-459h94v459h95v-459h37v-66zM104 615l121 121l35 -37l-121 -122z" />
    <glyph glyph-name="ugrave" unicode="&#xf9;" horiz-adv-x="367" 
d="M355 0h-210q-46 0 -79 33.5t-33 79.5v412h96v-459h94v459h95v-459h37v-66zM136 735l121 -121l-35 -38l-121 122z" />
    <glyph glyph-name="bracketleft" unicode="[" horiz-adv-x="367" 
d="M355 0h-210q-46 0 -79 33.5t-33 79.5v412h96v-459h94v459h95v-459h37v-66zM206 615v-30q-27 -2 -39 8q-14 9 -14 20v38h48v82h-37v-30h-51v20q0 24 28 33q16 5 28 5h26q33 0 48 -18q8 -12 8 -18v-73q0 -18 -15 -27q-15 -10 -30 -10z" />
    <glyph glyph-name="bracketleft" unicode="&#x1ee7;" horiz-adv-x="367" 
d="M355 0h-210q-46 0 -79 33.5t-33 79.5v412h96v-459h94v459h95v-459h37v-66zM206 615v-30q-27 -2 -39 8q-14 9 -14 20v38h48v82h-37v-30h-51v20q0 24 28 33q16 5 28 5h26q33 0 48 -18q8 -12 8 -18v-73q0 -18 -15 -27q-15 -10 -30 -10z" />
    <glyph glyph-name="bracketright" unicode="]" horiz-adv-x="367" 
d="M355 0h-210q-46 0 -79 33.5t-33 79.5v412h96v-459h94v459h95v-459h37v-66zM200 600h22h23v19.5v20.5h23.5h23.5v-7v-7q0 -13 -8 -27q-19 -32 -47 -32h-14h-13q-23 0 -40 17q-17 15 -17 39h-23h-22v-22v-21h-22.5h-22.5v9.5v10.5q0 31 29 48q12 8 26 8h12.5h13.5
q31 0 48 -30q8 -15 8 -26z" />
    <glyph glyph-name="bracketright" unicode="&#x169;" horiz-adv-x="367" 
d="M355 0h-210q-46 0 -79 33.5t-33 79.5v412h96v-459h94v459h95v-459h37v-66zM200 600h22h23v19.5v20.5h23.5h23.5v-7v-7q0 -13 -8 -27q-19 -32 -47 -32h-14h-13q-23 0 -40 17q-17 15 -17 39h-23h-22v-22v-21h-22.5h-22.5v9.5v10.5q0 31 29 48q12 8 26 8h12.5h13.5
q31 0 48 -30q8 -15 8 -26z" />
    <glyph glyph-name="backslash" unicode="\" horiz-adv-x="367" 
d="M355 0h-210q-46 0 -79 33.5t-33 79.5v412h96v-459h94v459h95v-459h37v-66zM180 -53q48 0 48 -48t-48 -48t-48 48t48 48z" />
    <glyph glyph-name="backslash" unicode="&#x1ee5;" horiz-adv-x="367" 
d="M355 0h-210q-46 0 -79 33.5t-33 79.5v412h96v-459h94v459h95v-459h37v-66zM180 -53q48 0 48 -48t-48 -48t-48 48t48 48z" />
    <glyph glyph-name="odieresis" unicode="&#xf6;" horiz-adv-x="395" 
d="M350 0h-210q-47 0 -79 32q-33 34 -33 80v412h96v-458h94v458h95v-156q22 3 37 22q17 20 17 39q-26 9 -26 40q-8 50 40 55q46 -8 46 -58q0 -14 -4 -26q-13 -43 -46 -72q-36 -29 -64 -29v-273h37v-66z" />
    <glyph glyph-name="odieresis" unicode="&#x1b0;" horiz-adv-x="395" 
d="M350 0h-210q-47 0 -79 32q-33 34 -33 80v412h96v-458h94v458h95v-156q22 3 37 22q17 20 17 39q-26 9 -26 40q-8 50 40 55q46 -8 46 -58q0 -14 -4 -26q-13 -43 -46 -72q-36 -29 -64 -29v-273h37v-66z" />
    <glyph glyph-name="thorn" unicode="&#xfe;" horiz-adv-x="395" 
d="M350 0h-210q-47 0 -79 32q-33 34 -33 80v412h96v-458h94v458h95v-156q22 3 37 22q17 20 17 39q-26 9 -26 40q-8 50 40 55q46 -8 46 -58q0 -14 -4 -26q-13 -43 -46 -72q-36 -29 -64 -29v-273h37v-66zM104 615l121 121l35 -37l-121 -122z" />
    <glyph glyph-name="thorn" unicode="&#x1ee9;" horiz-adv-x="395" 
d="M350 0h-210q-47 0 -79 32q-33 34 -33 80v412h96v-458h94v458h95v-156q22 3 37 22q17 20 17 39q-26 9 -26 40q-8 50 40 55q46 -8 46 -58q0 -14 -4 -26q-13 -43 -46 -72q-36 -29 -64 -29v-273h37v-66zM104 615l121 121l35 -37l-121 -122z" />
    <glyph glyph-name="uni00B2" unicode="&#xb2;" horiz-adv-x="395" 
d="M350 0h-210q-47 0 -79 32q-33 34 -33 80v412h96v-458h94v458h95v-156q22 3 37 22q17 20 17 39q-26 9 -26 40q-8 50 40 55q46 -8 46 -58q0 -14 -4 -26q-13 -43 -46 -72q-36 -29 -64 -29v-273h37v-66zM136 735l121 -121l-35 -38l-121 122z" />
    <glyph glyph-name="uni00B2" unicode="&#x1eeb;" horiz-adv-x="395" 
d="M350 0h-210q-47 0 -79 32q-33 34 -33 80v412h96v-458h94v458h95v-156q22 3 37 22q17 20 17 39q-26 9 -26 40q-8 50 40 55q46 -8 46 -58q0 -14 -4 -26q-13 -43 -46 -72q-36 -29 -64 -29v-273h37v-66zM136 735l121 -121l-35 -38l-121 122z" />
    <glyph glyph-name="ucircumflex" unicode="&#xfb;" horiz-adv-x="395" 
d="M350 0h-210q-47 0 -79 32q-33 34 -33 80v412h96v-458h94v458h95v-156q22 3 37 22q17 20 17 39q-26 9 -26 40q-8 50 40 55q46 -8 46 -58q0 -14 -4 -26q-13 -43 -46 -72q-36 -29 -64 -29v-273h37v-66zM206 615v-30q-27 -2 -39 8q-14 9 -14 20v38h48v82h-37v-30h-51v20
q0 24 28 33q16 5 28 5h26q33 0 48 -18q8 -12 8 -18v-73q0 -18 -15 -27q-15 -10 -30 -10z" />
    <glyph glyph-name="ucircumflex" unicode="&#x1eed;" horiz-adv-x="395" 
d="M350 0h-210q-47 0 -79 32q-33 34 -33 80v412h96v-458h94v458h95v-156q22 3 37 22q17 20 17 39q-26 9 -26 40q-8 50 40 55q46 -8 46 -58q0 -14 -4 -26q-13 -43 -46 -72q-36 -29 -64 -29v-273h37v-66zM206 615v-30q-27 -2 -39 8q-14 9 -14 20v38h48v82h-37v-30h-51v20
q0 24 28 33q16 5 28 5h26q33 0 48 -18q8 -12 8 -18v-73q0 -18 -15 -27q-15 -10 -30 -10z" />
    <glyph glyph-name="uni00B9" unicode="&#xb9;" horiz-adv-x="395" 
d="M350 0h-210q-47 0 -79 32q-33 34 -33 80v412h96v-458h94v458h95v-156q22 3 37 22q17 20 17 39q-26 9 -26 40q-8 50 40 55q46 -8 46 -58q0 -14 -4 -26q-13 -43 -46 -72q-36 -29 -64 -29v-273h37v-66zM200 600h22h23v19.5v20.5h23.5h23.5v-7v-7q0 -13 -8 -27
q-19 -32 -47 -32h-14h-13q-23 0 -40 17q-17 15 -17 39h-23h-22v-22v-21h-22.5h-22.5v9.5v10.5q0 31 29 48q12 8 26 8h12.5h13.5q31 0 48 -30q8 -15 8 -26z" />
    <glyph glyph-name="uni00B9" unicode="&#x1eef;" horiz-adv-x="395" 
d="M350 0h-210q-47 0 -79 32q-33 34 -33 80v412h96v-458h94v458h95v-156q22 3 37 22q17 20 17 39q-26 9 -26 40q-8 50 40 55q46 -8 46 -58q0 -14 -4 -26q-13 -43 -46 -72q-36 -29 -64 -29v-273h37v-66zM200 600h22h23v19.5v20.5h23.5h23.5v-7v-7q0 -13 -8 -27
q-19 -32 -47 -32h-14h-13q-23 0 -40 17q-17 15 -17 39h-23h-22v-22v-21h-22.5h-22.5v9.5v10.5q0 31 29 48q12 8 26 8h12.5h13.5q31 0 48 -30q8 -15 8 -26z" />
    <glyph glyph-name="uni1EF1" unicode="&#x1ef1;" horiz-adv-x="395" 
d="M350 0h-210q-47 0 -79 32q-33 34 -33 80v412h96v-458h94v458h95v-156q22 3 37 22q17 20 17 39q-26 9 -26 40q-8 50 40 55q46 -8 46 -58q0 -14 -4 -26q-13 -43 -46 -72q-36 -29 -64 -29v-273h37v-66zM166 -53q48 0 48 -48t-48 -48t-48 48t48 48z" />
    <glyph glyph-name="uni1EF1" unicode="&#x201a;" horiz-adv-x="395" 
d="M350 0h-210q-47 0 -79 32q-33 34 -33 80v412h96v-458h94v458h95v-156q22 3 37 22q17 20 17 39q-26 9 -26 40q-8 50 40 55q46 -8 46 -58q0 -14 -4 -26q-13 -43 -46 -72q-36 -29 -64 -29v-273h37v-66zM166 -53q48 0 48 -48t-48 -48t-48 48t48 48z" />
    <glyph glyph-name="yacute" unicode="&#xfd;" 
d="M320 525l2 -648q0 -62 -61 -99q-26 -16 -56 -16h-170v152h96v-88h96v172h-75q-65 0 -101 58q-16 25 -16 57v412h96v-459h94v459h95zM104 615l121 121l35 -37l-121 -122z" />
    <glyph glyph-name="currency" unicode="&#xa4;" 
d="M320 525l2 -648q0 -62 -61 -99q-26 -16 -56 -16h-170v152h96v-88h96v172h-75q-65 0 -101 58q-16 25 -16 57v412h96v-459h94v459h95zM136 735l121 -121l-35 -38l-121 122z" />
    <glyph glyph-name="currency" unicode="&#x1ef3;" 
d="M320 525l2 -648q0 -62 -61 -99q-26 -16 -56 -16h-170v152h96v-88h96v172h-75q-65 0 -101 58q-16 25 -16 57v412h96v-459h94v459h95zM136 735l121 -121l-35 -38l-121 122z" />
    <glyph glyph-name="zcaron" unicode="&#x17e;" 
d="M320 525l2 -648q0 -62 -61 -99q-26 -16 -56 -16h-170v152h96v-88h96v172h-75q-65 0 -101 58q-16 25 -16 57v412h96v-459h94v459h95zM206 615v-30q-27 -2 -39 8q-14 9 -14 20v38h48v82h-37v-30h-51v20q0 24 28 33q16 5 28 5h26q33 0 48 -18q8 -12 8 -18v-73q0 -18 -15 -27
q-15 -10 -30 -10z" />
    <glyph glyph-name="zcaron" unicode="&#x1ef7;" 
d="M320 525l2 -648q0 -62 -61 -99q-26 -16 -56 -16h-170v152h96v-88h96v172h-75q-65 0 -101 58q-16 25 -16 57v412h96v-459h94v459h95zM206 615v-30q-27 -2 -39 8q-14 9 -14 20v38h48v82h-37v-30h-51v20q0 24 28 33q16 5 28 5h26q33 0 48 -18q8 -12 8 -18v-73q0 -18 -15 -27
q-15 -10 -30 -10z" />
    <glyph glyph-name="acute" unicode="&#xb4;" 
d="M320 525l2 -648q0 -62 -61 -99q-26 -16 -56 -16h-170v152h96v-88h96v172h-75q-65 0 -101 58q-16 25 -16 57v412h96v-459h94v459h95zM200 600h22h23v19.5v20.5h23.5h23.5v-7v-7q0 -13 -8 -27q-19 -32 -47 -32h-14h-13q-23 0 -40 17q-17 15 -17 39h-23h-22v-22v-21h-22.5
h-22.5v9.5v10.5q0 31 29 48q12 8 26 8h12.5h13.5q31 0 48 -30q8 -15 8 -26z" />
    <glyph glyph-name="acute" unicode="&#x1ef9;" 
d="M320 525l2 -648q0 -62 -61 -99q-26 -16 -56 -16h-170v152h96v-88h96v172h-75q-65 0 -101 58q-16 25 -16 57v412h96v-459h94v459h95zM200 600h22h23v19.5v20.5h23.5h23.5v-7v-7q0 -13 -8 -27q-19 -32 -47 -32h-14h-13q-23 0 -40 17q-17 15 -17 39h-23h-22v-22v-21h-22.5
h-22.5v9.5v10.5q0 31 29 48q12 8 26 8h12.5h13.5q31 0 48 -30q8 -15 8 -26z" />
    <glyph glyph-name="paragraph" unicode="&#xb6;" 
d="M320 525v-647q0 -61 -61 -99q-25 -16 -55 -16h-169v152h96v-88h94v172h-74q-67 0 -100 57q-16 24 -16 57v412h96v-459h94v459h95zM171 -10q48 0 48 -48t-48 -48q-47 0 -47 48q0 49 47 48z" />
    <glyph glyph-name="paragraph" unicode="&#x1ef5;" 
d="M320 525v-647q0 -61 -61 -99q-25 -16 -55 -16h-169v152h96v-88h94v172h-74q-67 0 -100 57q-16 24 -16 57v412h96v-459h94v459h95zM171 -10q48 0 48 -48t-48 -48q-47 0 -47 48q0 49 47 48z" />
    <glyph glyph-name="eth" unicode="&#xf0;" horiz-adv-x="354" 
d="M225 66v391h-96v-391h96zM33 119v291q0 61 61 99q24 16 56 16h75v89h-96v45h96v105h93v-105h36v-45h-36v-499q0 -65 -59 -99q-27 -16 -56 -16h-53q-67 0 -101 61q-16 27 -16 58z" />
    <glyph glyph-name="eth" unicode="&#x111;" horiz-adv-x="354" 
d="M225 66v391h-96v-391h96zM33 119v291q0 61 61 99q24 16 56 16h75v89h-96v45h96v105h93v-105h36v-45h-36v-499q0 -65 -59 -99q-27 -16 -56 -16h-53q-67 0 -101 61q-16 27 -16 58z" />
  </font>
</defs>
</svg>
