<svg xmlns="http://www.w3.org/2000/svg">
<defs>
<font id="UTMYenTu" horiz-adv-x="573" >
  <font-face 
    font-family="UTM Yen Tu"
    font-weight="400"
    font-stretch="normal"
    units-per-em="2048"
    panose-1="2 4 6 3 5 5 6 2 2 4"
    ascent="1638"
    descent="-410"
    x-height="324"
    cap-height="1665"
    bbox="-1286 -1081 4942 2366"
    underline-thickness="109"
    underline-position="-143"
    unicode-range="U+0020-U+2026"
  />
<missing-glyph horiz-adv-x="5040" 
d="M3351 2045h10q37 -10 37 -52q0 -12 -32 -57h-28q0 24 28 54l2 10q-5 13 -10 15h-9q-8 0 -10 -19h-30q6 49 42 49zM2019 2016l29 -31q0 -16 -40 -30h-19l-59 12l-11 -12l-28 25q11 29 43 29h11l42 -11h2q10 0 30 18zM468 1980h142v-60h-94v-75h89v-59h-89v-129l-5 -5h-49
v323zM1155 1980h43l6 -5v-78h30v-52h-30v-188l-6 -5h-49v193h-25v52h25v78zM1621 1980h42l4 -5v-94h3q23 24 54 24h2q58 0 83 -71l2 -39v-143h-52v115q0 80 -42 80h-7q-43 0 -43 -86v-109h-51v323zM2200 1980h49l5 -5v-222q10 -51 45 -51q44 7 44 59v214l5 5h49v-216
q0 -85 -66 -112q-15 -8 -35 -8q-47 0 -82 55q-14 24 -14 57v224zM2435 1980h159v-60h-56v-268h-53v268h-55v55zM2621 1980h71q7 -4 83 -251h2l80 251h73v-328h-54v242h-2l-74 -242h-44q-4 0 -58 182l-19 60h-3v-242h-55v328zM3760 1980h52v-328h-45l-5 5v11l3 2l-3 14
q-29 -40 -78 -40q-67 0 -100 91l-5 39v3q0 94 92 125l23 3q35 0 63 -32h3v107zM2057 1928h36l4 -6v-49h-45v-221h-48v23q-23 -31 -59 -31q-89 14 -89 97v156h51v-104q0 -79 26 -86l18 -5h6q26 0 39 36l3 26v133h53v25zM3476 1928v-55h-31v-221h-47v25h-2q-15 -33 -57 -33
q-68 0 -86 78l-3 29v146h52v-120q0 -50 19 -68l21 -7h9q42 0 42 69v126h27q4 0 4 28l3 3h49zM758 1905q68 0 103 -77q9 -18 12 -54q0 -88 -90 -127l-32 -3q-63 0 -101 73q-12 22 -12 52v10q0 94 101 126h19zM1011 1905h3q74 0 83 -101v-152h-51v119q0 76 -42 76h-5
q-44 0 -44 -76v-119h-52v245h46v-21q30 29 62 29zM1466 1905h7q72 0 105 -89h-60q-16 31 -42 31h-17q-53 -14 -53 -61l-3 -15q12 -69 61 -69h9q22 0 47 27h40l2 3h3l2 -3l2 3l3 -3l2 3l2 -7q-33 -81 -110 -81q-76 0 -110 94l-4 36v3q0 85 77 120q15 8 37 8zM3141 1905h2

<glyph glyph-name=".notdef" horiz-adv-x="5040" 
d="M3351 2045h10q37 -10 37 -52q0 -12 -32 -57h-28q0 24 28 54l2 10q-5 13 -10 15h-9q-8 0 -10 -19h-30q6 49 42 49zM2019 2016l29 -31q0 -16 -40 -30h-19l-59 12l-11 -12l-28 25q11 29 43 29h11l42 -11h2q10 0 30 18zM468 1980h142v-60h-94v-75h89v-59h-89v-129l-5 -5h-49
v323zM1155 1980h43l6 -5v-78h30v-52h-30v-188l-6 -5h-49v193h-25v52h25v78zM1621 1980h42l4 -5v-94h3q23 24 54 24h2q58 0 83 -71l2 -39v-143h-52v115q0 80 -42 80h-7q-43 0 -43 -86v-109h-51v323zM2200 1980h49l5 -5v-222q10 -51 45 -51q44 7 44 59v214l5 5h49v-216
q0 -85 -66 -112q-15 -8 -35 -8q-47 0 -82 55q-14 24 -14 57v224zM2435 1980h159v-60h-56v-268h-53v268h-55v55zM2621 1980h71q7 -4 83 -251h2l80 251h73v-328h-54v242h-2l-74 -242h-44q-4 0 -58 182l-19 60h-3v-242h-55v328zM3760 1980h52v-328h-45l-5 5v11l3 2l-3 14
q-29 -40 -78 -40q-67 0 -100 91l-5 39v3q0 94 92 125l23 3q35 0 63 -32h3v107zM2057 1928h36l4 -6v-49h-45v-221h-48v23q-23 -31 -59 -31q-89 14 -89 97v156h51v-104q0 -79 26 -86l18 -5h6q26 0 39 36l3 26v133h53v25zM3476 1928v-55h-31v-221h-47v25h-2q-15 -33 -57 -33
q-68 0 -86 78l-3 29v146h52v-120q0 -50 19 -68l21 -7h9q42 0 42 69v126h27q4 0 4 28l3 3h49zM758 1905q68 0 103 -77q9 -18 12 -54q0 -88 -90 -127l-32 -3q-63 0 -101 73q-12 22 -12 52v10q0 94 101 126h19zM1011 1905h3q74 0 83 -101v-152h-51v119q0 76 -42 76h-5
q-44 0 -44 -76v-119h-52v245h46v-21q30 29 62 29zM1466 1905h7q72 0 105 -89h-60q-16 31 -42 31h-17q-53 -14 -53 -61l-3 -15q12 -69 61 -69h9q22 0 47 27h40l2 3h3l2 -3l2 3l3 -3l2 3l2 -7q-33 -81 -110 -81q-76 0 -110 94l-4 36v3q0 85 77 120q15 8 37 8zM3141 1905h2
q49 0 70 -60v-14h-52q0 16 -16 16h-4q-14 0 -19 -13v-13q0 -9 68 -35q30 -19 30 -59q0 -58 -61 -80l-23 -3q-76 12 -76 83h54q0 -20 27 -25h4q19 0 24 23q0 22 -68 44q-34 27 -34 59q0 66 74 77zM4203 1905q55 0 77 -63q7 -18 7 -65v-125h-52v112q0 83 -40 83h-11
q-33 0 -40 -54v-141h-52v5h-2l2 2v238h47v-21q25 29 64 29zM4432 1905h5q40 0 69 -40v18l-3 3l3 11h47v-208q0 -97 -85 -132l-33 -4h-7q-70 0 -104 80h59q24 -22 45 -23h13q22 0 43 22q15 13 22 52h-3q-32 -40 -73 -40q-57 0 -96 70q-10 18 -14 63q0 88 87 125zM3851 1897
h53v-136q6 -59 40 -59h7q46 0 46 93v102h51v-245h-47l-3 10h3l-3 3v5l3 2v3h-4q0 -23 -57 -31h-3q-59 0 -84 75l-2 85v93zM690 1771q10 -69 63 -69h7q59 14 59 65v15q-13 65 -59 65h-5q-58 0 -65 -76zM3630 1774q13 -72 61 -72h5q58 0 66 75q0 49 -51 70h-22q-37 0 -56 -57z
M4374 1774q8 -72 65 -72h5q59 12 59 72q0 61 -59 73h-14q-56 -16 -56 -62v-11zM3928 1620h52v-57h-52v57zM1054 1402q43 -11 43 -49v-4q0 -17 -32 -60h-28q0 25 31 57v7q0 12 -7 15h-12q-10 -4 -10 -19h-28v6q0 32 33 44zM3349 1339q92 0 138 -99h-60q-37 42 -80 42
q-55 0 -87 -68q-10 -22 -10 -47q0 -78 81 -110l18 -1q36 0 75 39h61q-44 -97 -138 -97q-93 0 -141 112q-10 31 -10 62q0 97 90 152q29 15 63 15zM3664 1339q57 0 103 -47q46 -51 46 -115v-20q0 -89 -91 -146q-33 -13 -63 -13q-89 0 -138 101q-13 33 -13 60v18q0 98 98 151
q29 11 58 11zM2261 1337h2l47 -11h3q11 0 26 11l18 -36q-18 -19 -35 -19h-3l-54 10l-20 -7l-20 36q18 16 36 16zM716 1334h19q118 0 129 -26q25 -26 25 -62q-10 -57 -30 -57v-6q47 -23 47 -66v-18q0 -63 -69 -88l-54 -5h-67v328zM2550 1334h53v-217q6 -61 45 -61q29 0 44 39
l3 30v203l4 6h45l5 -6v-171q0 -118 -40 -133q-24 -26 -64 -26q-55 0 -91 76l-4 54v206zM2805 1334h59q4 0 122 -237h4v237h50l4 -6v-322h-58q-29 48 -125 238h-3v-238h-53v328zM3101 1334h54v-328h-54v328zM3859 1334h8q155 0 174 -40q23 -11 47 -75l4 -36v-11l3 -2
q0 -94 -82 -149q-35 -15 -99 -15h-55v328zM4141 1334h153v-60h-103v-75h101v-57h-101v-74l4 -5h99v-57h-157v322zM3563 1175v-10q0 -76 79 -108l19 -1q68 0 96 86l3 20v15q0 61 -60 94q-12 8 -39 11q-66 0 -96 -83zM770 1274v-67h9q54 0 54 28l3 14q-11 25 -29 25h-37z
M3912 1274v-206l2 -3v-2q104 0 122 76l2 15v29q0 34 -32 68q-25 23 -78 23h-16zM1041 1259h5q38 0 71 -40v32h49v-245h-49v32q-36 -40 -80 -40q-75 0 -101 97l-5 36q0 89 85 125zM1314 1259h3q74 0 83 -102v-151h-51v128q0 67 -42 67h-10q-34 0 -39 -62v-133h-52v245h47v-21
q28 29 61 29zM1543 1259h5q45 0 71 -40v32h47v-219q0 -95 -104 -126h-16q-74 0 -108 82h59q26 -25 44 -25h14q52 0 64 77q-33 -42 -76 -42q-60 0 -101 81l-7 44v16q0 79 85 117zM1912 1259h2q43 0 61 -37h2q32 37 69 37h4q57 0 79 -55q8 -25 8 -45v-153h-52v138q0 44 -23 55
l-12 2h-15q-32 0 -36 -65v-130h-52v136q0 59 -43 59h-8q-32 0 -36 -57v-138h-54v245h50v-21h2q6 24 54 29zM2282 1259q47 0 75 -42v34h47v-245h-47v32q-36 -40 -78 -40q-74 0 -102 92l-6 41q0 90 85 125zM985 1117q0 -48 61 -61h4q45 0 62 46l3 15v22q-12 62 -57 62h-14
q-41 0 -59 -57v-27zM1487 1128q0 -48 43 -68l18 -4h5q47 0 63 57v23q-11 65 -58 65h-12q-50 0 -59 -73zM2225 1131v-14q15 -61 57 -61h14q58 12 58 64v11q0 45 -37 65l-18 5h-10q-64 -8 -64 -70zM770 1150v-82q0 -5 7 -5q77 0 77 45q0 34 -47 42h-37zM2966 753l24 -28
l-51 -55q-18 12 -27 26zM1524 727l85 -54q0 -15 -21 -42l-87 54q18 41 23 42zM2850 693h38l55 -60h-54l-21 26l-23 -26h-54q54 60 59 60zM3422 693h40l56 -60h-54l-24 26h-1q0 -5 -19 -26h-54zM622 685h52q8 -4 47 -137l34 -110q9 8 34 100l48 147h54v-2l-112 -326h-44z
M1159 685h51v-54h-51v54zM1354 685h46l6 -5v-323h-52v328zM2317 685h45l4 -5v-78h31v-52h-31v-193h-53v193h-26v52h26v78zM2425 685h52v-98h2q23 23 54 23h3q57 0 81 -71l3 -38v-144h-52v115q0 81 -39 81h-10q-42 0 -42 -87v-109h-52v328zM2664 685h52v-54h-52v54zM3028 685
h44l6 -5v-78h29v-52h-29v-193h-54v193h-27v52h27v78zM3234 685h52v-328h-52v328zM3957 685h52v-328h-52v328zM4316 685h51v-54h-51v54zM1555 610h5q83 0 110 -102l3 -23v-11q0 -83 -85 -120l-35 -5q-76 0 -111 97l-4 32q0 97 93 130zM1811 610h4q53 0 78 -60q7 -25 7 -81
v-112h-54v146q-7 50 -37 50h-10q-38 0 -42 -57v-139h-54v245h49v-21q26 29 59 29zM2046 610h4q45 0 63 -39h3v31h49v-206q0 -102 -89 -135l-28 -3h-5q-73 0 -106 81h52l37 -20l15 -3h14q50 0 61 72q-33 -39 -73 -39q-62 0 -98 76q-11 23 -12 60q0 85 86 123zM2866 610h2
q82 0 111 -104l2 -25l-2 -27h-172q15 -45 45 -45l14 -3q29 0 49 22h57v-3q-35 -76 -108 -76q-77 0 -111 97l-1 28v8q0 49 32 89q34 39 82 39zM3429 610h5q41 0 70 -39h2v31h47v-245h-47v31h-2q-35 -39 -77 -39q-71 0 -101 89l-5 36v14q0 86 84 120zM3711 610h7
q88 0 107 -128l-2 -1v-15q0 -65 -66 -106q-21 -11 -46 -11q-34 0 -64 32v-99l-5 -5h-49v325h49v-28q31 36 69 36zM4151 610q44 0 75 -39v31h49v-245h-49v31q-35 -39 -77 -39q-92 0 -108 132q0 84 73 121q15 8 37 8zM922 602h50v-136q3 -60 42 -60h5q44 0 44 87v109h52v-245
h-47v24h-5q0 -23 -56 -32h-3q-55 0 -82 68q-4 35 -4 99v81zM1159 602h51v-245h-51v245zM2664 602h52v-245h-52v245zM4316 602h51v-245h-51v245zM1492 488v-16q13 -66 59 -66h4q59 0 66 76q-13 71 -59 71h-11q-59 -16 -59 -65zM1987 472q15 -66 59 -66h11q48 0 59 75v1
q-13 71 -59 71h-14q-39 0 -56 -57v-24zM2805 506h122v2q-16 45 -59 45h-7q-35 0 -56 -47zM3373 474q13 -68 61 -68h5q52 0 65 63v12q-10 72 -57 72h-16q-56 -14 -56 -63zM3642 478q12 -72 61 -72h3q50 0 65 60v22q0 43 -49 65h-22q-47 0 -58 -72v-3zM4095 472q10 -66 66 -66
q43 0 61 48l2 15v16q0 54 -52 68h-18q-42 0 -59 -60v-21zM3416 321h51v-52h-51v52zM4137 321h51v-52h-51v52zM2733 133h4q35 0 43 -50v-2q0 -16 -24 -41l-10 -17h-28q0 25 28 56l3 2v2q-3 19 -9 19h-10q-8 0 -9 -19h-30q6 50 42 50zM1546 116l52 -60l-26 -19l-52 52zM352 79
h4q75 -48 85 -60l-20 -37q-88 49 -88 58zM3490 79l86 -58l-18 -39q-10 0 -91 55q15 36 23 42zM4578 76l19 -42l-91 -52l-20 39l92 58v-3zM1204 53h51v-19l5 -5h14v-36h-14l-5 -5v-279h-46v31q-34 -40 -81 -40q-72 0 -102 105l-3 26q0 102 101 131h14q33 0 66 -33v59l-6 5
h-43v36h49v24zM1480 45h40l56 -61h-53l-23 27l-23 -27h-53zM2641 45h33q12 0 63 -61h-54l-23 27q-19 -21 -19 -27h-58v4zM49 37h160v-60h-56v-268h-50l-4 5v245l2 3v2l-2 2l2 3l-2 2l2 3l-2 3h-54v54zM699 37h47v-73l2 -2l-2 -3v-3l2 -2l-2 -3v-3l2 -2v-2l-2 -3l2 -3h3
q17 24 51 24h3q53 0 77 -58q7 -17 7 -42v-153h-52v127q0 68 -40 68h-8q-43 0 -43 -86v-109h-52v322zM1297 37h47l5 -6v-49h-52v55zM1987 37h52v-198l70 115h62l-78 -118l90 -125v-2h-70q-10 22 -74 115v-115h-52v328zM2271 37v-99q24 24 53 24q57 0 80 -56q10 -19 10 -77
v-120h-54v133q0 62 -41 62h-11q-31 0 -37 -55v-140h-53v314l-1 3v3l1 2l-1 3l1 3h53zM2458 37h51v-55h-51v55zM3148 37h51v-108q27 33 68 33h3q75 0 105 -94l5 -37q0 -75 -64 -120q-30 -11 -49 -11q-41 0 -72 40v-31h-47v328zM4275 37h52v-99h2q23 24 54 24h3q60 0 82 -74
l2 -41v-138h-52v111q0 82 -32 82l-10 2h-12q-37 0 -37 -80v-115h-52v328zM329 -38h3v-58h-5q-42 0 -42 -57v-138h-53v245h47v-21q18 29 50 29zM564 -38q71 0 86 -87v-166h-51v136q-6 59 -41 59h-6q-45 0 -45 -84v-111h-52v245h50v-21q25 29 59 29zM1504 -38q72 0 105 -94
l5 -39q-2 -24 -7 -24h-169q17 -47 62 -47q24 0 48 21h57q-33 -79 -108 -79q-82 0 -113 105v37q0 81 89 117zM2657 -38h5q77 0 107 -97l3 -26v-21l-3 -13h-170q18 -47 53 -47h12q21 0 42 21h59q-34 -79 -105 -79q-84 0 -115 102l-2 29q0 93 91 128zM2915 -38h4q54 0 78 -60
q7 -25 7 -82v-111h-54v138q0 48 -35 57h-11q-38 0 -43 -57v-138h-54v245h50v-21q25 29 58 29zM3508 -38h6q40 0 70 -40h2v32h47v-245h-47v31h-2q-34 -40 -78 -40q-71 0 -101 90l-4 37v12q0 82 77 117q11 6 30 6zM3781 -38h4q62 0 82 -78l3 -84v-91h-54v138q0 48 -38 57h-9
q-38 0 -42 -52v-143h-54v245h49v-21q26 29 59 29zM4133 -38h1q74 0 104 -93l4 -40q0 -88 -84 -126l-25 -3q-41 0 -68 34v-106h-52v326h47v-29q30 37 73 37zM4714 -38h5q34 0 63 -37q27 37 69 37h6q56 0 79 -66l6 -51v-136h-52v122q0 73 -39 73h-7q-35 0 -41 -50v-140l-5 -5
h-48v140q0 42 -31 55h-17q-40 0 -40 -77v-118h-51v245h47v-21q22 29 56 29zM359 -46h49l5 -6v-234l-5 -5h-49v245zM1297 -46h52v-245h-52v245zM1649 -46h52v-136q4 -60 43 -60h4q44 0 44 81v115h52v-245h-47v24h-5q-12 -33 -59 -33q-52 0 -79 63q-5 12 -5 34v157zM2458 -46
h51v-245h-51v245zM4515 -46h51v-245h-51v245zM1077 -169q0 -53 51 -73h12q54 0 66 66v10q0 53 -54 70h-17q-38 0 -58 -57v-16zM1438 -143h122q-18 47 -53 47h-7q-43 0 -62 -44v-3zM2599 -143h122q-21 47 -54 47h-7q-46 0 -61 -47zM3196 -158v-11q10 -73 61 -73h5q64 8 64 71
v5q0 45 -38 65l-18 5h-14q-60 -14 -60 -62zM3452 -173q14 -69 62 -69h11q41 0 59 60v13q-8 73 -56 73h-17q-47 0 -59 -73v-4zM4062 -158v-22q0 -47 59 -62h9q50 0 61 76q-13 70 -58 70h-15q-56 -17 -56 -62z" />
    <glyph glyph-name=".null" horiz-adv-x="0" 
 />
    <glyph glyph-name="nonmarkingreturn" horiz-adv-x="571" 
 />
    <glyph glyph-name="space" unicode=" " horiz-adv-x="450" 
 />
    <glyph glyph-name="exclam" unicode="!" horiz-adv-x="649" 
d="M1117 1401q0 -33 -82 -94q-10 -9 -162 -183l-364 -419q-193 -224 -238 -289q-33 -49 -33 -101q0 -22 8.5 -54t8.5 -50t-20.5 -30.5t-33.5 -12.5q-34 0 -34 72q0 114 290 491l515 666l20 43.5t55 21.5q70 0 70 -61zM134 -14q0 -27 -34 -45.5t-54 -18.5q-78 0 -78 58
q0 24 27.5 40.5t58.5 16.5q80 0 80 -51z" />
    <glyph glyph-name="quotedbl" unicode="&#x22;" horiz-adv-x="339" 
d="M828 1223q0 -41 -18 -68q-2 -4 -80 -96q-88 -76 -121 -76q-12 0 -12 27q0 16 25 30q32 25 53 52q35 47 55 133q8 32 49 32q49 0 49 -34zM656 1223q0 -41 -16 -66q-6 -10 -82 -98q-86 -76 -121 -76q-12 0 -12 27q0 14 25 30q34 25 53 52q37 47 55 133q8 32 49 32
q49 0 49 -34z" />
    <glyph glyph-name="numbersign" unicode="#" horiz-adv-x="1044" 
d="M1131 733q0 -39 -29 -47q-6 -2 -47 -2q-127 0 -144.5 6t-127.5 6q-45 -49 -162 -198l289 -11q0 -38 -29 -47q-6 -2 -47 -2q-113 0 -256 4q-221 -286 -266 -358l-43 4q73 119 256 356q-117 7 -258 7q-199 -205 -283 -342l-43 4q115 180 264 342l-155 4q-76 2 -76 10
q0 31 67 41h211l162 205l-160 6q-75 2 -75 10q0 31 67 41l209 -6l207 258l59 -27l-192 -233l239 -8l230 276l59 -26l-219 -250zM721 700l-235 11l-164 -201l244 -10z" />
    <glyph glyph-name="dollar" unicode="$" horiz-adv-x="706" 
d="M1029 1188q0 -58 -92 -90q-74 -27 -74 0q0 4 47.5 30.5t49.5 59.5q2 55 -78 55q-127 0 -272 -63q-173 -74 -173 -174q0 -50 66 -70l207 -66q100 -32 100 -106q0 -90 -55 -143q-41 -37 -135 -76q-111 -45 -226 -45q-43 0 -90 6l-118 -209l-25 20l113 197q-62 27 -103 74
l21 18q63 -49 110 -63q35 -8 121 -8q109 0 221 49q131 57 131 137q0 45 -34 55l-277 86q-102 33 -102 131q0 183 514 285l110 172l23 -16l-96 -156q116 -8 116 -90z" />
    <glyph glyph-name="percent" unicode="%" horiz-adv-x="1341" 
d="M1670 1300l-449 -311q-270 -196 -448 -354l-439 -406q-194 -188 -204 -194q-23 -70 -45.5 -94.5t-67.5 -24.5q-12 0 -27.5 8t-15.5 13q0 20 66.5 103t128.5 136q751 647 1220 981q-393 -149 -477 -149q-100 0 -145 26q-211 -172 -320 -172q-127 0 -127 92q0 129 123 248
t266 119l35 -14q-141 -21 -254 -113t-113 -184q0 -41 34 -70t79 -29q57 0 152 66q82 55 102 90q-18 100 10.5 181t81.5 81t53 -47q0 -119 -90 -215q43 -29 101 -29q100 0 432 144l143 73q101 52 139 52q27 0 56 -7zM1260 395q0 -88 -172 -237q-178 -152 -295 -152
q-41 0 -69.5 35t-28.5 86q0 76 102 178q88 88 213 162l17 -12q-74 -49 -111 -76q-70 -51 -108 -96q-50 -56 -50 -107q0 -45 26 -79t67 -34q88 0 208 99q132 104 132 205q0 100 -107 86q0 36 33 36q67 0 108 -28q35 -27 35 -66zM853 1253q0 35 -23 35q-20 0 -35.5 -25.5
t-15.5 -52.5q0 -102 2 -110q72 86 72 153z" />
    <glyph glyph-name="ampersand" unicode="&#x26;" horiz-adv-x="1740" 
d="M1648 485q0 -12 -32 -22l-65 -21q-39 -16 -194 -24q-70 -88 -154 -205q43 -55 116 -115.5l142 -117.5l-41 -33q-51 24 -100 53q-117 72 -197 152q-182 -127 -297 -172q-127 -50 -290 -50q-179 0 -294.5 84t-115.5 211q0 131 110.5 244t397.5 285q-35 108 -35 241
q0 156 206 347.5t382 191.5q69 0 119.5 -46t50.5 -110q0 -127 -262 -348q-156 -131 -363 -264q84 -213 430 -520q62 51 146 176q-64 0 -64 24q0 29 51 56q17 8 88 8q265 0 265 -25zM1271 1341q0 121 -162 121q-158 0 -302 -142t-144 -296q0 -57 22 -133q14 -47 29 -92
l311 211q246 186 246 331zM1087 184q-93 74 -173 154q-186 190 -270 377q-231 -142 -321.5 -247.5t-90.5 -227.5q0 -127 82 -201t222 -74q170 0 274 41t277 178z" />
    <glyph glyph-name="quotesingle" unicode="'" horiz-adv-x="0" 
d="M509 1221q0 -43 -12 -65.5t-78 -98.5q-74 -66 -115 -66q-14 0 -14 29q0 14 27 35q34 28 45 43q20 28 29.5 60l18.5 64.5t50 32.5q49 0 49 -34z" />
    <glyph glyph-name="parenleft" unicode="(" horiz-adv-x="628" 
d="M1148 1409q-338 -260 -391 -309q-168 -156 -344 -434q-170 -269 -229 -418q-70 -178 -92 -436q-25 24 -25 34q0 451 219 824q121 204 268 350q115 110 285 223l299 193z" />
    <glyph glyph-name="parenright" unicode=")" horiz-adv-x="628" 
d="M656 1358q0 -451 -219 -823q-121 -205 -268 -351q-115 -110 -285 -223l-299 -192l-10 26q338 260 391 309q168 156 344 435q170 268 230 417q69 179 92 437q24 -25 24 -35z" />
    <glyph glyph-name="asterisk" unicode="*" horiz-adv-x="315" 
d="M797 1352q0 -29 -127 -80q71 -45 71 -74q0 -18 -16 -18q-27 0 -82 63v-96q0 -37 -33 -37q-28 0 -28 55v45q-95 -47 -136 -47q-14 0 -10 13q0 14 14 24q41 23 127 78q-67 61 -67 88q0 18 20 18q15 0 34.5 -19t35.5 -38q14 57 41 57q20 0 4 -69q94 51 133 51q19 0 19 -14z
" />
    <glyph glyph-name="plus" unicode="+" horiz-adv-x="921" 
d="M923 487q0 -38 -29 -47q-6 -2 -47 -2q-127 0 -205.5 6.5t-189.5 6.5q-199 -205 -283 -342l-43 4q115 180 264 342l-286 4q-76 2 -76 10q0 31 68 41h342l245 235l60 -26l-236 -209z" />
    <glyph glyph-name="comma" unicode="," horiz-adv-x="507" 
d="M168 90q0 -41 -18 -67q-4 -5 -82 -97q-88 -78 -119 -78q-14 0 -14 29q0 14 29 35q39 29 49 43q18 27 55 137q10 33 51 33q49 0 49 -35z" />
    <glyph glyph-name="hyphen" unicode="-" horiz-adv-x="706" 
d="M667 362q0 -18 -54 -18q-16 0 -49.5 9t-48.5 9q-100 0 -194 -18q-84 -16 -95 -16q-57 0 -86 22q-59 45 -59 64q0 6 16 6q11 0 56 -6t67 -6q6 0 108.5 14t174.5 14q59 0 115 -26q49 -27 49 -48z" />
    <glyph glyph-name="hyphen" unicode="&#x2010;" horiz-adv-x="706" 
d="M667 362q0 -18 -54 -18q-16 0 -49.5 9t-48.5 9q-100 0 -194 -18q-84 -16 -95 -16q-57 0 -86 22q-59 45 -59 64q0 6 16 6q11 0 56 -6t67 -6q6 0 108.5 14t174.5 14q59 0 115 -26q49 -27 49 -48z" />
    <glyph glyph-name="period" unicode="." horiz-adv-x="503" 
d="M204 43q0 -66 -88 -66q-82 0 -82 66q0 68 84 68q33 0 59.5 -19.5t26.5 -48.5z" />
    <glyph glyph-name="slash" unicode="/" horiz-adv-x="1036" 
d="M1580 1278q-33 -45 -68.5 -68.5l-72.5 -46.5q-387 -262 -680 -504q-195 -159 -443 -393q-219 -207 -256 -254q-22 -28 -28 -82q-47 -53 -95 -53q-18 0 -20 23q2 -21 2 43q0 86 823 749q168 135 375 283l350 246q6 4 9 28q2 19 26 23q78 16 78 6z" />
    <glyph glyph-name="zero" unicode="0" horiz-adv-x="1583" 
d="M1652 1047q0 -220 -184 -492q-177 -256 -430 -436q-269 -189 -488 -189q-143 0 -244.5 115t-101.5 272q0 215 147 435q109 159 250 268q176 135 402 223v-20q-314 -113 -517.5 -344.5t-203.5 -475.5q0 -163 101.5 -286t238.5 -123q198 0 430 166q217 155 366 385
q156 239 156 438q0 107 -80 176.5t-203 69.5q-108 0 -211.5 -39t-261.5 -137q-12 6 -10 20q4 17 25 29q327 190 530 190q289 0 289 -245z" />
    <glyph glyph-name="one" unicode="1" horiz-adv-x="948" 
d="M1094 1214q0 -34 -352 -481l-571 -717l153 4l-49 -63l-274 -49q-37 -6 -43 -6q-70 2 -70 35q0 28 70 43l172 34q592 713 878 1116q-129 17 -129 35q0 27 82 72q74 39 90 39q17 0 43 -62z" />
    <glyph glyph-name="two" unicode="2" horiz-adv-x="1572" 
d="M1694 1151q0 -96 -106 -252q-160 -233 -432 -422l-473 -293q411 -186 565 -192q18 -6 8 -21q-94 -14 -182 -14q-170 0 -504 156q-291 -148 -438 -148q-74 0 -118 33t-44 86q0 86 81 149.5t187 63.5q97 0 232 -41l159 -53q191 82 486 291q198 141 335.5 313t137.5 289
q0 73 -53.5 121.5t-137.5 48.5q-253 0 -550 -332l-15 12q185 209 328 292t315 83q219 0 219 -170zM500 147q-192 101 -311 101q-176 0 -176 -127q0 -47 39 -77t102 -30q105 0 346 133z" />
    <glyph glyph-name="three" unicode="3" horiz-adv-x="1255" 
d="M1369 1165q0 -86 -84 -166q-90 -86 -340 -229q117 -14 186 -84q62 -65 62 -149q0 -117 -121 -258q-125 -148 -315 -242q-215 -107 -441 -107q-241 0 -399 209l12 2q138 -102 224 -136t206 -34q277 0 506.5 166t229.5 371q0 96 -68 163.5t-160 63.5q-276 -110 -334 -110
q-67 0 -67 61q0 29 71.5 62.5t131.5 33.5q43 0 96 -2q67 -4 104 -4q387 180 387 354q0 68 -52 94.5t-181 26.5q-150 0 -297 -73q-51 -27 -291 -181l-6 13l141 112q117 86 238 135q166 64 350 64q211 0 211 -156zM748 741q-38 11 -73 9q-39 -2 -102.5 -31t-63.5 -45
q0 -10 20 -10q31 0 111 30q72 27 108 47z" />
    <glyph glyph-name="four" unicode="4" horiz-adv-x="1449" 
d="M1567 489q0 -26 -15 -26q-20 0 -34.5 9t-26.5 9q-39 0 -278.5 -17.5t-256.5 -17.5q-45 -53 -323 -356q-15 -16 -19 -43q-8 -53 -8 -55q-16 -62 -92 -62q-43 0 -43 27q0 33 84 104q37 33 137 148l197 225q-430 -24 -439 -24q-276 0 -276 127q0 59 77 138t283 222
q265 182 534 317.5t378 135.5q43 0 70.5 -27t27.5 -66q0 -30 -22 -61l-58 -70l-475 -610q371 45 477 45q37 0 69 -20.5t32 -51.5zM1452 1223q0 69 -98 69q-199 0 -801 -426q-322 -227 -322 -274q0 -103 234 -103q43 0 96 3l369 20l311 385q211 268 211 326z" />
    <glyph glyph-name="five" unicode="5" horiz-adv-x="1269" 
d="M1485 1354q-10 -25 -49 -68q-55 -33 -74 -41q-28 -12 -67 -16q-15 -6 -508 -47q-39 -37 -377 -475q305 116 494 116q110 0 180 -74.5t70 -189.5q0 -219 -275 -424q-287 -213 -620 -213q-209 0 -322 225l10 13q127 -195 312 -195q303 0 538 160q250 168 250 405
q0 232 -305 232q-53 0 -199.5 -50l-146.5 -50q-35 0 -35 30q0 47 453 580q622 82 671 82z" />
    <glyph glyph-name="six" unicode="6" horiz-adv-x="1337" 
d="M1542 1174q0 -48 -31 -129.5t-51 -81.5q-27 0 -27 26q0 27 12.5 87.5t12.5 103.5q0 61 -59.5 101t-145.5 40q-205 0 -451 -172q-233 -162 -393 -401q-168 -250 -168 -459q0 -144 79 -245t189 -101q183 0 363 139q197 154 197 356q0 144 -76 223.5t-213 79.5
q-109 0 -346 -98v21q223 120 358 120q170 0 262 -75.5t92 -214.5q0 -222 -233 -410q-219 -176 -430 -176q-139 0 -235.5 107.5t-96.5 267.5q0 219 205 489q188 250 461 428q280 184 491 184q107 0 170.5 -57t63.5 -153z" />
    <glyph glyph-name="seven" unicode="7" horiz-adv-x="923" 
d="M1296 1257q0 -20 -47 -53q-80 -55 -107 -78l-252 -229q-229 -213 -374 -375q-359 -397 -359 -485q0 -27 8.5 -45.5t8.5 -22.5q0 -12 -32 -29.5t-46 -17.5q-35 0 -35 72q0 92 201 301l331 371q293 311 639 583q-43 11 -116 11q-76 0 -259.5 -20.5t-248.5 -37.5
q-55 -14 -119 -45q-49 -27 -70 -27q-49 0 -49 52q0 49 72 67l166 33q67 14 272 33q215 18 326 16q90 -2 90 -74z" />
    <glyph glyph-name="eight" unicode="8" horiz-adv-x="1302" 
d="M1511 1159q-95 -178 -385 -301l-340 -143q378 -219 378 -412q0 -147 -188 -267t-426 -120q-194 0 -333.5 97.5t-139.5 234.5q0 282 614 479q-98 129 -98 227q0 144 149.5 255.5t344.5 111.5q123 0 196.5 -48t73.5 -128q0 -88 -20 -129q65 47 83 65q35 33 64 93z
M1285 1102q0 84 -64.5 134t-174.5 50q-170 0 -297 -97t-127 -228q0 -99 110 -216q64 19 299 103q254 92 254 254zM1087 283q0 104 -129 219l-254 205q-256 -111 -363 -191q-166 -123 -166 -283q0 -133 98.5 -211.5t276.5 -78.5q223 0 380 98t157 242z" />
    <glyph glyph-name="nine" unicode="9" horiz-adv-x="1314" 
d="M1385 954q0 -227 -179 -475q-163 -231 -409 -389q-254 -160 -465 -160q-96 0 -182 45t-201 160l23 12q104 -110 181 -150t179 -40q235 0 473 168q215 151 358.5 381.5t143.5 419.5q0 137 -97.5 234t-234.5 97q-201 0 -355.5 -134t-154.5 -310q0 -164 109.5 -269.5
t279.5 -105.5t170 -8q0 -20 -2 -20q-135 -35 -260 -35q-147 0 -261 111.5t-114 254.5q0 222 192.5 394t436.5 172q164 0 266.5 -97.5t102.5 -255.5z" />
    <glyph glyph-name="colon" unicode=":" horiz-adv-x="483" 
d="M301 264q0 -65 -86 -65q-82 0 -82 65q0 68 84 68q33 0 58.5 -19.5t25.5 -48.5zM213 43q0 -66 -88 -66q-82 0 -82 66q0 68 84 68q33 0 59.5 -19.5t26.5 -48.5z" />
    <glyph glyph-name="semicolon" unicode=";" horiz-adv-x="466" 
d="M281 264q0 -65 -88 -65q-82 0 -82 65q0 68 84 68q33 0 59.5 -19.5t26.5 -48.5zM170 90q0 -41 -18 -67q-4 -5 -82 -97q-88 -78 -119 -78q-14 0 -14 29q0 17 25 33q34 22 53 49q35 45 55 133q8 33 51 33q49 0 49 -35z" />
    <glyph glyph-name="less" unicode="&#x3c;" horiz-adv-x="786" 
d="M799 889q10 -37 -70 -84q-63 -55 -135 -105q-172 -118 -359 -188q156 -84 412 -104q141 -13 143 -46q3 -24 -71 -24q-199 0 -314 37l-182 53q-92 39 -86 104q2 29 17.5 38.5t72.5 19.5q37 6 166 69q164 80 277 168q47 37 104 76q19 8 25 -14z" />
    <glyph glyph-name="equal" unicode="=" horiz-adv-x="950" 
d="M932 692q0 -20 -28 -39.5t-54 -23.5q-236 -2 -545 -11q-45 -4 -92 -6q-39 -2 -39 15q0 37 47 49q12 2 109 10q225 4 506 10q30 4 63 9q33 2 33 -13zM932 463q0 -21 -28 -40.5t-54 -23.5q-236 -2 -545 -10q-45 -4 -92 -6q-39 -2 -39 14q0 37 47 49q12 3 109 11
q225 4 506 10l63 8q33 2 33 -12z" />
    <glyph glyph-name="greater" unicode="&#x3e;" horiz-adv-x="786" 
d="M810 481q-4 -26 -21.5 -33.5t-74.5 -5.5q-156 -10 -404 -114q-116 -49 -127 -47q-20 0 -16 24q4 29 90 57q66 35 135 62q166 70 324 98q-131 96 -424 178q-127 35 -119 70q2 18 70 12q178 -18 333.5 -97t164.5 -83q81 -55 69 -121z" />
    <glyph glyph-name="question" unicode="?" horiz-adv-x="1191" 
d="M1603 1124q0 -116 -109 -223q-90 -86 -190 -117l-619 -168q-151 -43 -264 -112q-121 -76 -145 -148q-10 -32 -8 -65q4 -72 4 -66q0 -18 -18.5 -29.5t-39.5 -7.5q-37 9 -37 45q0 132 132 232q108 82 331 162q68 24 373 106q215 58 315 119q70 43 120 127t50 158
q0 112 -97 179.5t-257 67.5q-221 0 -420 -108q-80 -43 -176 -123l-123 -104l-18 2q117 108 233 200q219 176 570 176q182 0 284 -73q109 -80 109 -230zM239 8q0 -26 -39 -49q-31 -16 -51 -16q-78 0 -78 51q0 26 36 47.5t70 21.5q62 0 62 -55z" />
    <glyph glyph-name="at" unicode="@" horiz-adv-x="1630" 
d="M1585 918q0 -242 -162 -478.5t-321 -236.5q-45 0 -77 42t-32 89q0 90 57 229l-10 6q-117 -143 -176 -192q-121 -103 -254 -103q-78 0 -134 39t-56 97q0 176 176 385q190 223 413 264q48 8 76 8q64 0 72 -47q6 -33 6 -55q0 -66 -61 -64q-4 0 -21.5 30t-38.5 46
q-30 24 -76 16q-151 -26 -305 -225q-147 -188 -147 -322q0 -26 32.5 -50.5t59.5 -24.5q145 0 385 229q64 59 150 191q69 104 90 108q14 2 32.5 -4t22.5 -21q2 -10 -57 -90q-72 -96 -97 -151q-69 -162 -69 -271q0 -92 67 -92q105 0 250 217q152 226 152 414q0 182 -117 276.5
t-326 94.5q-196 0 -405 -160q-187 -143 -316 -357t-129 -378q0 -404 588 -404q318 0 580 258q16 23 45 23q12 0 6 -16q-129 -146 -303 -229t-354 -83q-277 0 -435 92q-188 111 -188 338q0 199 141 430q140 226 348 375q224 162 435 162q225 0 354 -105.5t129 -299.5z" />
    <glyph glyph-name="A" unicode="A" horiz-adv-x="1972" 
d="M1741 850q0 -137 -25.5 -370.5t-56.5 -368.5q16 6 28.5 18t24.5 12q19 0 19 -14q0 -12 -80 -74l-13 -102q-4 -29 -29.5 -48.5t-47.5 -19.5q-15 0 -15 33q0 41 11 104q-211 -86 -359 -86q-100 0 -362.5 102.5t-329.5 102.5q-152 0 -305 -57q-117 -43 -262 -135l-240 -154
q-23 -14 -59 -14q-25 0 -25 22q0 -4 72 33q125 64 356 242q137 106 444 411q297 293 484 504q233 264 469 264q172 0 248 -145q53 -102 53 -260zM1643 809q0 383 -246 383q-146 0 -320 -152q-32 -28 -334 -335l-329 -338q-176 -172 -357 -314q185 80 242 99q98 28 229 28
q142 0 432.5 -95t317.5 -95q76 0 162 30l125 52l49 401q29 242 29 336z" />
    <glyph glyph-name="B" unicode="B" horiz-adv-x="1662" 
d="M1739 1311q0 -240 -443 -557q261 -144 261 -262q0 -211 -435 -410q-399 -182 -725 -182q-264 0 -321 12l-221 -252q-33 -37 -60 -37q-12 0 -12 21q0 4 233 274q-153 39 -153 70q0 45 63 49q27 2 73 -15.5t81 -17.5l332 438q-326 39 -326 150q0 108 225 182q103 35 224 55
q92 17 182 31q260 342 475 479q178 113 385 113q64 0 113 -40t49 -101zM1655 1255q0 54 -52.5 90.5t-131.5 36.5q-205 0 -426 -211q-78 -75 -263 -311q125 0 295 -41l185 -49q190 158 274 250q119 135 119 235zM1153 711q-283 82 -420 82l-194 -269q180 15 385 84
q164 58 229 103zM1479 457q0 78 -119 159q-107 74 -164 74q-311 -174 -715 -244l-346 -456q123 -6 303 -6q355 0 691 143q350 149 350 330zM668 791q-84 8 -357 -58q-159 -39 -159 -98q0 -47 133 -84q108 -31 184 -31z" />
    <glyph glyph-name="C" unicode="C" horiz-adv-x="1589" 
d="M1719 1389q0 -211 -256 -418q-243 -197 -458 -197q-27 0 -58 12q-41 17 -41 45q0 35 31 64t62 29q16 -62 27 -77.5t42 -15.5q129 0 268 89q148 92 201 153q90 103 90 252q0 234 -291 234q-251 0 -538 -161t-471 -411q-205 -274 -205 -559q0 -217 135 -338t373 -121
q137 0 311 66q86 33 199 88q90 47 96 47q12 0 12 -14q0 -39 -174 -121q-307 -144 -522 -144q-231 0 -372.5 130.5t-141.5 343.5q0 297 225 602q211 284 532.5 473.5t604.5 189.5q139 0 229 -67.5t90 -173.5z" />
    <glyph glyph-name="D" unicode="D" horiz-adv-x="1806" 
d="M1844 803q0 -230 -197 -447q-184 -206 -483 -335.5t-600 -129.5q-213 0 -470 74t-257 131q0 49 55 49q2 0 60 -28q71 -35 157 -64q129 -41 293 -63q191 116 291 198q135 109 254 261q113 145 459 657q22 -4 26 -35q-82 -158 -438 -639q-76 -100 -207 -219
q-164 -147 -323 -231q90 -9 231 -9q379 0 721 234q356 242 356 538q0 158 -129 318q-63 78 -303 299l-233 207q-90 90 -90 194q0 164 20 164h29q-6 -29 -6 -55q0 -127 133 -262l266 -234q227 -209 260 -246q125 -151 125 -327z" />
    <glyph glyph-name="E" unicode="E" horiz-adv-x="1605" 
d="M1729 1348q0 -115 -164 -227.5t-338 -112.5q-141 0 -141 92q0 61 65 69q56 7 56 -20q0 -4 -4.5 -26.5t-2.5 -30.5q7 -35 82 -35q135 0 252 83t117 171q0 69 -79 116.5t-204 47.5q-237 0 -486 -145.5t-249 -287.5q0 -65 65.5 -149t65.5 -111q0 -61 -170 -145
q-266 -131 -315 -166q-127 -86 -164 -123q-76 -80 -76 -188q0 -121 91 -195t235 -74q225 0 428 70q211 74 459 240q8 -4 16 -27q-258 -188 -483.5 -270t-477.5 -82q-170 0 -265 74.5t-95 207.5q0 150 111 256q63 62 249 166l246 133q117 66 117 93q0 26 -65.5 116t-65.5 144
q0 168 307 343t600 175q121 0 202 -52.5t81 -129.5z" />
    <glyph glyph-name="F" unicode="F" horiz-adv-x="1699" 
d="M2291 1262q-94 -54 -160 -58q-51 -2 -94 8l-913 234q-138 35 -226 35q-202 0 -424 -131q-247 -146 -247 -328q0 -111 135 -204t303 -93q121 0 311 92q23 4 29 -20q-277 -127 -453 -127q-180 0 -287.5 87t-107.5 230q0 207 258 375t576 168q217 0 612 -103
q536 -139 688 -165zM1705 1198q-84 -102 -424 -586q240 29 320 29q20 0 14 -18q-18 -52 -88 -60l-311 -35q-150 -204 -289 -372q-246 -295 -326 -295q-43 0 -49 45q0 35 19 35q30 0 37 2q90 30 219 162.5t342 414.5q-49 0 -164 -16q-164 -25 -236 -33q-10 14 -10 33
q0 59 86 59q76 0 391 45q160 234 447 613z" />
    <glyph glyph-name="G" unicode="G" horiz-adv-x="1843" 
d="M1816 647q0 -14 -43 -51q-61 -51 -90 -88q-35 -43 -98 -184q-78 -168 -135 -263q82 45 151 45q19 0 19 -18q0 -6 -49 -16q-72 -13 -140 -54q-256 -352 -358 -464q-256 -285 -432 -285q-29 0 -60 20q-45 29 -45 80q0 123 256 316q215 161 555 331q74 123 195 361
q-535 -408 -1086 -408q-194 0 -319 119t-125 305q0 244 229 504q215 244 543 403q336 166 633 166q156 0 258 -71.5t102 -182.5q0 -190 -254 -384.5t-507 -194.5q-113 0 -113 92q0 25 22.5 49.5t47.5 24.5q47 0 47 -15q0 -12 -4.5 -23t-4.5 -20q0 -45 88 -45q187 0 386 152
q208 158 208 330q0 100 -92 159.5t-254 59.5q-288 0 -583 -146q-285 -141 -467 -362q-193 -232 -193 -461q0 -168 135 -289t344 -121q222 0 527 144q270 125 399 252l168 170q78 73 123 82q16 2 16 -19zM1333 -29q-303 -149 -496 -299q-217 -166 -217 -274q0 -23 27 -40
t63 -17q138 0 371 278q156 186 252 352z" />
    <glyph glyph-name="H" unicode="H" horiz-adv-x="2664" 
d="M3029 1700q-33 -47 -150 -182q-129 -150 -203 -250q-274 -369 -508 -748q41 -20 473 -69v-29l-546 -8l-113 -176v-43q0 -21 -14.5 -35.5t-24.5 -14.5q-22 0 -22 19q0 35 56 146.5l56 111.5l-268 63q-586 -600 -1217 -600q-221 0 -374.5 120t-153.5 290q0 213 228.5 367.5
t541.5 154.5q162 0 571.5 -106.5t427.5 -106.5q105 133 308 432q190 281 274 381l80 94q27 35 27 62q0 16 -11.5 35.5t-11.5 38.5q0 22 94 65q88 41 109 41q18 0 18 -45q0 -18 -90 -115q-127 -135 -174 -194q-119 -150 -325.5 -462t-233.5 -345l258 -60l162 265
q190 305 344 518q309 428 385 428q24 0 27 -43zM1708 506q-72 16 -562 147q-272 72 -448 72q-266 0 -444.5 -114.5t-178.5 -288.5q0 -154 150.5 -253.5t374.5 -99.5q364 0 694 185q268 149 414 352z" />
    <glyph glyph-name="I" unicode="I" horiz-adv-x="1679" 
d="M2028 1407q0 -211 -172 -512q-262 -457 -630 -713t-769 -256q-205 0 -335 108.5t-130 274.5q0 217 211 375q199 147 438 147q297 0 523.5 -80.5t226.5 -187.5q0 -41 -10 -41q-3 0 -103 56q-119 67 -237 106q-177 55 -365 55q-254 0 -437.5 -102t-183.5 -250
q0 -166 143.5 -274.5t364.5 -108.5q342 0 673 234.5t564 648.5q156 274 156 520q0 82 -71.5 131t-190.5 49q-92 0 -135 -6q123 84 227 84q119 0 186 -86q56 -74 56 -172z" />
    <glyph glyph-name="J" unicode="J" horiz-adv-x="1763" 
d="M1712 1393q0 -170 -166 -469q-192 -346 -557 -766l273 -109q176 -80 176 -137q0 -27 -51 -27l-156 78q-172 86 -305 121q-436 -432 -666 -598q-332 -238 -610 -238q-111 0 -182.5 64.5t-71.5 163.5q0 149 161 320t414 280q281 123 582 123q178 0 375 -31q215 207 444 555
q271 414 271 631q0 219 -256 219q-62 0 -162 -14q72 57 121 74.5t127 17.5q239 0 239 -258zM860 90q-184 37 -307 37q-428 0 -761 -183.5t-333 -412.5q0 -84 73 -144.5t173 -60.5q219 0 531 203q323 209 624 561z" />
    <glyph glyph-name="K" unicode="K" horiz-adv-x="2785" 
d="M1456 471q293 -188 985 -534l-131 -46l-387 197q-422 219 -588 336q-229 -121 -520 -184q-227 -258 -330 -359q-135 -131 -356 -293q-6 9 -6 25q0 12 67 65q111 84 209 175q166 155 352 376q-204 -30 -299 -30q-202 0 -311 90q-90 76 -90 188q0 133 154.5 222t382.5 89
q98 0 211 -28q77 -19 284 -86l516 631l21 -43l-488 -613q76 -37 258 -141q252 129 586 375q297 217 514 415q33 29 160 162q70 70 94 70q21 0 43.5 -13.5t22.5 -27.5q0 -86 -414 -408q-451 -350 -940 -610zM1284 455l-211 120l-201 -253q119 18 412 133zM1026 590
q-303 135 -551 135q-150 0 -255.5 -65.5t-105.5 -159.5t104.5 -156.5t264.5 -62.5q47 0 324 24z" />
    <glyph glyph-name="L" unicode="L" horiz-adv-x="2543" 
d="M3093 -248q-102 -65 -159 -78q-37 -8 -162 -8q-146 0 -314 45q-32 8 -329 103l-387 123q-275 -252 -527 -377q-348 -174 -753 -174q-238 0 -383 92q-158 100 -158 284q0 234 254 388q221 135 465 135q303 0 694 -113l416 -133q80 80 199 237l288 386q121 155 273 319
q188 201 235 201q12 0 8 -39q-6 -45 -30 -129q-41 20 -68 20q-43 0 -174 -145q-104 -113 -209 -250l-248 -354q-133 -193 -205 -260l371 -123q512 -170 735 -170q62 0 86.5 7t81.5 42q6 -8 15 -14q2 -5 -15 -15zM1672 -41q-352 109 -469 141q-393 105 -606 105
q-252 0 -416 -94q-203 -117 -203 -349q0 -124 152 -217q166 -98 430 -98q322 0 621 154q225 118 491 358z" />
    <glyph glyph-name="M" unicode="M" horiz-adv-x="2652" 
d="M2639 1247q0 -41 -147 -484.5t-147 -592.5q0 -23 4 -51.5t4 -52.5q0 -15 -23.5 -23t-36.5 -4q-49 8 -49 121q0 155 76 381l141 372q76 203 76 299q0 72 -102 72q-133 0 -363 -217l-641 -621q-20 -18 -215 -251q-170 -205 -194 -205q-15 0 -18 4t-1 14q2 17 2 23
q0 24 213 293q240 299 266 342q195 309 195 391q0 28 -19.5 53t-44.5 25q-135 0 -477 -291q-315 -269 -555 -557q-262 -318 -297 -318q-8 0 -8 15q0 32 81 128.5l163 192.5q199 246 344 488q176 294 176 434q0 94 -77 159.5t-183 65.5q-174 0 -336 -96q-115 -68 -231 -191
l-133 -143l-23 14l170 197q127 135 250 207q166 98 352 98q137 0 223 -69.5t86 -184.5q0 -129 -32 -219q-45 -119 -193 -346q336 303 508 409q135 84 242 84q57 0 92 -32.5t35 -85.5q0 -101 -230 -455q461 451 598 563q221 180 373 180q106 0 106 -135z" />
    <glyph glyph-name="N" unicode="N" horiz-adv-x="2076" 
d="M2017 1235q0 -94 -170 -721q-61 -225 -100 -475q-47 14 -62 41q-8 16 -8 59q0 97 37 228l57 208q19 84 90 365q41 156 41 229q0 50 -28.5 89.5t-67.5 39.5q-72 0 -251 -151.5t-345 -351.5l-282 -338q-121 -146 -218 -281q-106 -149 -131 -180q-43 -53 -71 -53
q-19 0 -19 16q0 33 150 244q289 407 405 628q111 216 111 361q0 119 -68 188q-61 62 -149 62q-137 0 -334 -101q-170 -86 -270 -184q-29 -29 -119 -127q-55 -59 -70 -59q-10 0 -10 16q0 19 172 191q154 153 346.5 249.5t345.5 96.5q117 0 188.5 -73t71.5 -189
q0 -107 -40 -218.5t-150 -318.5l377 389q272 262 442 262q57 0 93 -39t36 -102z" />
    <glyph glyph-name="O" unicode="O" horiz-adv-x="1728" 
d="M1927 1114q0 -254 -224 -534q-212 -267 -534 -445q-336 -186 -641 -186q-201 0 -334 128t-133 322q0 297 182 553q156 217 404 363q223 129 405 137v-25q-90 11 -297 -102q-243 -131 -401 -321q-201 -242 -201 -519q0 -202 128 -327t339 -125q264 0 551 160
q281 153 463 389q192 249 192 489q0 154 -124.5 264.5t-299.5 110.5q-165 0 -395 -137q-241 -144 -393 -346q-16 -13 -37 -5q277 359 537 474q127 55 161 67q78 25 179 25q229 0 351 -104.5t122 -305.5z" />
    <glyph glyph-name="P" unicode="P" horiz-adv-x="1570" 
d="M2431 1792q0 -178 -301 -426q-213 -176 -553 -299t-614 -123q-160 0 -231 6q-152 -229 -392 -542q-135 -177 -317 -338q-168 -148 -215 -148q-41 0 -41 49q0 21 18.5 48.5t38.5 27.5q19 0 29 -9t27 -9q59 0 407 422q332 403 385 507q-213 39 -348 95q-41 16 -41 53
q0 33 57 29q37 -2 160 -37q150 -41 221 -56q242 344 545 607q443 383 819 383q160 0 253 -64.5t93 -175.5zM2339 1729q4 94 -87 156.5t-230 62.5q-572 0 -1245 -920h229q244 2 553 100q319 105 532 256q238 170 248 345z" />
    <glyph glyph-name="Q" unicode="Q" horiz-adv-x="2367" 
d="M2948 -229q0 -17 -115 -66q-125 -51 -209 -51q-280 0 -1026 303q-288 -248 -696 -379q-291 -94 -469 -94q-201 0 -358.5 122t-157.5 279q0 187 205 332q194 141 418 141q174 0 323 -36q230 -60 764 -267q254 211 353.5 364.5t99.5 336.5q0 135 -85 216t-223 81
q-292 0 -520 -213q-16 -17 -100 -113q-16 -12 -33 6q29 43 107 135q258 269 614 269q156 0 247 -91.5t91 -248.5q0 -152 -82 -295q-63 -111 -192 -244l-228 -223q226 -96 568 -203q352 -108 444 -108q68 0 140.5 28.5t94.5 28.5q25 0 25 -10zM1553 -23q-110 33 -354 127
q-233 91 -360 127q-203 58 -371 58q-191 0 -328 -101.5t-137 -244.5q0 -174 148.5 -285t379.5 -111q277 0 621 172q260 129 401 258z" />
    <glyph glyph-name="R" unicode="R" horiz-adv-x="2201" 
d="M2356 1141q0 -230 -325 -490q-228 -182 -658 -407l656 -396q57 -36 229 -106q0 -23 -6 -26t-45 -3q-172 0 -975 475q-72 -43 -266 -108q-226 -74 -379 -90q-158 -209 -357 -428q-305 -336 -411 -336q-31 0 -31 51q0 16 22.5 37.5t38.5 21.5q13 0 30.5 -7t25.5 -3
q305 236 620 658q-186 2 -343.5 116.5t-157.5 255.5q0 144 119.5 245t289.5 101q225 0 502 -167q618 839 1116 839q129 0 217 -66.5t88 -166.5zM2258 1100q0 78 -92 133q-86 49 -191 49q-254 0 -514 -227q-147 -131 -487 -545q41 -39 370 -240q369 193 605 385
q309 252 309 445zM1199 217l-291 197l-262 -348q217 10 553 151zM863 442q-74 62 -182 117q-156 80 -275 80q-143 0 -241 -72.5t-98 -173.5q0 -143 188 -243q170 -91 336 -84z" />
    <glyph glyph-name="S" unicode="S" horiz-adv-x="1708" 
d="M1797 1255q0 -141 -137 -254.5t-295 -113.5q-57 0 -99 23.5t-42 54.5q0 86 53 86q35 0 35 -25q0 -8 -8.5 -18.5t-8.5 -20.5q0 -24 30 -43.5t77 -19.5q106 0 204.5 95t98.5 193q0 91 -89 152t-222 61q-220 0 -473 -135q-277 -145 -277 -303q0 -119 145 -174l512 -195
q191 -71 191 -210q0 -218 -221 -350t-584 -132q-303 0 -515 103.5t-212 251.5q0 122 160 170q76 22 76 -2q0 -3 -65 -45t-65 -109q0 -154 180.5 -243t483.5 -89q297 0 494.5 108.5t197.5 272.5q0 127 -176 197l-506 200q-151 60 -151 203q0 201 268 366t586 165
q168 0 261 -59.5t93 -160.5z" />
    <glyph glyph-name="T" unicode="T" horiz-adv-x="1867" 
d="M2382 1255q-11 -14 -44 -26q-38 -17 -69 -17q-352 0 -471 72q-590 -805 -854 -1106q-127 -143 -258 -258q-142 -121 -191 -121q-39 0 -39 49q0 25 19.5 51.5t42.5 26.5q4 0 20.5 -7t34.5 -7q17 0 125 96q117 107 205 209q371 432 837 1075q-612 238 -757 238
q-721 0 -721 -395q0 -136 123 -230t293 -94q81 0 262 55q24 11 32 4q9 -4 3 -18q-213 -98 -353 -98q-176 0 -307 104.5t-131 247.5q0 223 237.5 364.5t614.5 141.5q176 0 780 -215q137 145 203 145q8 0 8 -16q0 -4 -57 -47q-64 -52 -94 -97q63 -28 303 -71q203 -37 203 -56z
" />
    <glyph glyph-name="U" unicode="U" horiz-adv-x="2252" 
d="M2633 1282q0 -14 -403.5 -581.5t-403.5 -639.5q0 -43 29 -43q8 0 20.5 4.5t22.5 4.5q-55 -72 -107 -72q-18 0 -36.5 15.5t-18.5 33.5q0 72 182 354q207 322 213 336l-469 -450q-303 -275 -456 -275q-60 0 -99 53.5t-39 120.5q0 74 125 447t125 530q0 209 -129 320.5
t-372 111.5q-121 0 -246 -59q-82 -39 -172 -111q-78 -59 -82 -59q-35 0 -35 14q0 15 156 123q243 170 471 170q233 0 374.5 -128t141.5 -339q0 -114 -127 -527t-127 -470q0 -45 30.5 -82t67.5 -37q127 0 617 469q432 412 524 545q115 164 139 196q45 58 66 58q16 0 18 -4
v-29z" />
    <glyph glyph-name="V" unicode="V" horiz-adv-x="2156" 
d="M2519 1530q0 -80 -98 -324q-142 -338 -369 -618q-211 -258 -426 -434q-242 -197 -385 -197q-65 0 -113.5 56.5t-48.5 131.5q0 74 117 414t117 449q0 188 -132 310t-335 122q-334 0 -559 -283q-6 -6 -17 -2q-12 6 -12 23q0 94 211 219q233 139 483 139q199 0 328 -143.5
t129 -364.5q0 -147 -109.5 -487t-109.5 -373q0 -53 34.5 -98t80.5 -45q108 0 333 204q191 174 379 410q164 205 301 516q121 275 121 373v41q-55 0 -55 -84q0 -17 -2 -70q-2 -41 0 -72q0 -10 -23 -16q-24 -8 -26 0q-19 90 -19 158q0 90 64 135q43 31 71 31q70 0 70 -121z
" />
    <glyph glyph-name="W" unicode="W" horiz-adv-x="2844" 
d="M3119 1354q0 -305 -224 -641q-207 -314 -514 -527q-317 -217 -583 -217q-131 0 -220.5 92.5t-97.5 225.5q-8 143 182 501l-305 -247q-350 -293 -575 -508q-29 0 -29 20q629 559 629 989q0 175 -121 282.5t-317 107.5q-175 0 -351 -76q-215 -92 -374 -277l-25 6
q340 418 813 418q211 0 338 -115.5t127 -302.5q0 -120 -45 -236t-166 -308q182 139 559 454l178 158q60 47 90 47q11 0 11 -12t-35 -39q-53 -47 -74 -68q-156 -157 -268 -358q-131 -234 -131 -406q0 -114 71.5 -196t192.5 -82q221 0 507 189.5t476 463.5q211 305 211 592
q0 80 -31 138.5t-76 58.5q-47 0 -98 -29l-10 12q65 103 143 103q60 0 101 -61.5t41 -151.5z" />
    <glyph glyph-name="X" unicode="X" horiz-adv-x="1947" 
d="M2035 1458q-152 -94 -228.5 -174l-152.5 -160l-340 -342l84 -348q51 -192 119 -338q14 -28 58 -48.5t91 -12.5v-8q-51 -29 -90 -29q-90 0 -145 74q-47 63 -84 200l-113 426l-311 -309q-322 -315 -381 -366q-236 -209 -338 -209q-41 0 -41 28q0 19 16.5 37.5t32.5 18.5
q6 0 24.5 -8.5t43.5 -4.5q147 52 631 553q108 101 307 316q-64 274 -156 413q-133 201 -356 201q-224 0 -471 -215l-11 10q162 156 282 216.5t278 60.5q366 0 518 -611l319 324l174 180q90 82 223 146z" />
    <glyph glyph-name="Y" unicode="Y" horiz-adv-x="2424" 
d="M2748 1085q0 -14 -35 -49l-43 -41q-745 -901 -1257 -1663q-170 -254 -170 -309q0 -16 23.5 -33.5t23.5 -23.5q0 -47 -37 -47q-18 0 -51 36.5t-33 61.5q0 84 103 240q166 251 221 323l647 834q-446 -351 -448 -351q-179 -129 -279 -129q-123 0 -203 181q-61 137 -102 405
l-60 436q-20 148 -124 267q-115 131 -263 131q-188 0 -442 -113l6 35q70 49 197 100q162 64 270 64q131 0 262 -117q146 -129 189 -322l120 -684q66 -305 207 -305q103 0 394 234q272 221 507 479q19 20 228 260q112 129 129 129q20 0 20 -29z" />
    <glyph glyph-name="Z" unicode="Z" horiz-adv-x="2744" 
d="M2474 121q-195 -121 -317 -163t-277 -42q-180 0 -473 108.5t-389 108.5q-181 0 -412 -176q-19 0 -19 14l1274 1055q-417 195 -661 279q-289 100 -486 100q-188 0 -324 -107.5t-136 -250.5q0 -144 121.5 -242t302.5 -98q215 0 393 63l4 -14q-281 -107 -424 -107
q-197 0 -332 101.5t-135 244.5q0 203 195.5 335t496.5 132q187 0 424 -80q203 -69 604 -256q33 -8 95 -30l-1147 -942q57 8 170 32q75 17 110 17q164 0 430.5 -116t401.5 -116q137 0 508 158z" />
    <glyph glyph-name="bracketleft" unicode="[" horiz-adv-x="714" 
d="M1369 1360l-31 -39q-8 -10 -30 -10l-144 -2q-94 -2 -133 -47l-704 -824q-441 -524 -510 -653q-21 -51 24 -51h152q16 0 6 -19l-10 -20q-11 -19 -43 -19h-215q-27 0 -27 27q0 23 152 227q59 80 264 332l452 539l447 520q37 45 141 45h180q33 0 29 -6z" />
    <glyph glyph-name="backslash" unicode="\" horiz-adv-x="59" 
d="M146 313q0 -16 -6 -22q-191 -168 -305 -240q-181 -114 -326 -114q18 30 92 69q129 0 526 313q19 15 19 -6z" />
    <glyph glyph-name="bracketright" unicode="]" horiz-adv-x="714" 
d="M1123 1339q0 -22 -151 -227q-60 -80 -265 -332l-452 -538l-447 -521q-37 -45 -141 -45h-180q-33 0 -29 7l31 38q8 11 31 11l143 2q92 2 131 47l704 823q443 524 512 653q21 52 -24 52h-152q-8 0 -8 10q0 4 2 8l10 21q9 18 43 18h215q27 0 27 -27z" />
    <glyph glyph-name="asciicircum" unicode="^" horiz-adv-x="638" 
d="M900 1382q19 0 19 -32q0 -37 -31 -158q-33 -139 -41 -188l-12 -123.5t-23 -87.5q-4 -19 -24 -19q-31 0 -9 187q19 143 74 337q-45 -34 -100 -90q-137 -129 -318 -334l-86 -98q-30 -28 -51 -28q-4 0 -6 2q0 -7 41 63q47 82 274 311q148 150 179 176q86 80 114 82z" />
    <glyph glyph-name="underscore" unicode="_" horiz-adv-x="1015" 
d="M1027 -75q0 -18 -53 -18q-16 0 -50 9t-48 9q-349 0 -535 -18q-12 -2 -129 -16q-104 -13 -115 -13q-57 0 -86 23q-59 45 -59 63q0 6 12 6q11 0 58 -8t69 -8q82 0 370 22.5t402 22.5q60 0 115 -26q49 -27 49 -48z" />
    <glyph glyph-name="grave" unicode="`" horiz-adv-x="440" 
d="M317 489q-31 0 -76 56l-98 123q-4 8 -4 37q0 22 25 22q20 0 32 -14l97 -154q32 -53 32 -61q0 -9 -8 -9z" />
    <glyph glyph-name="a" unicode="a" horiz-adv-x="780" 
d="M865 311q0 -12 -8 -20q-197 -164 -274 -217q-191 -131 -316 -131q-106 0 -106 153q-49 -41 -131 -82q-88 -43 -138 -43q-36 0 -69 17.5t-33 46.5q0 84 154.5 204.5t273.5 120.5q72 0 72 -34q0 -35 -23.5 -55.5t-48.5 -16.5q2 0 -12.5 28.5t-44.5 28.5q-78 0 -173.5 -82
t-95.5 -145q0 -41 29 -41q98 0 215 78q29 20 84 84q41 47 66 43q24 0 24 -21q0 -14 -31.5 -70.5t-31.5 -78.5q0 -72 69 -72q88 0 275 127q47 31 254 186q6 5 12 3q8 -3 8 -11z" />
    <glyph glyph-name="b" unicode="b" horiz-adv-x="690" 
d="M814 1110q0 -18 -35 -53l-100 -94q-252 -250 -430 -465q-240 -293 -240 -406q0 -37 27.5 -61.5t64.5 -24.5q105 0 201 144q82 118 82 176q0 41 -57 41q-41 0 -77 -48.5t-36 -82.5q0 -19 17.5 -31t17.5 -21q0 -22 -35 -22q-49 0 -49 63q0 76 82 142q71 57 129 57
q28 0 53 -22.5t25 -49.5q0 -94 -129 -248q-150 -174 -302 -174q-106 0 -106 105q0 98 121 262l264 317q74 91 246 256q131 127 131 146q0 2 -24.5 16.5t-24.5 26.5q0 20 155 65q29 4 29 -14z" />
    <glyph glyph-name="c" unicode="c" horiz-adv-x="704" 
d="M787 305q0 -10 -111 -102q-104 -84 -153 -117q-242 -164 -457 -164q-78 0 -127 45t-49 111q0 96 127 211q137 127 289 127q65 0 65 -56q0 -57 -84 -108q-75 -47 -129 -47q-43 0 -43 20q0 58 58 58q8 0 22 -8.5t37 -8.5q25 0 49.5 29t24.5 51q0 21 -49 21
q-88 0 -185.5 -91.5t-97.5 -162.5q0 -54 45 -90.5t119 -36.5q117 0 276 88q105 57 242 162q113 88 119 88q12 0 12 -19z" />
    <glyph glyph-name="d" unicode="d" horiz-adv-x="956" 
d="M1295 1137q0 -156 -487 -594q-168 -150 -512 -404q26 -149 147 -149q86 0 236 86q102 59 235 162l113 86q12 0 12 -17q0 -16 -155 -139q-146 -115 -215 -156q-138 -82 -246 -82q-137 0 -178 172l-168 -92q-95 -45 -181 -45q-43 0 -73.5 25.5t-30.5 66.5q0 70 106 158
q154 127 291 127q33 0 55.5 -17.5t22.5 -39.5q0 -49 -33 -54q-10 -2 -15 15.5t-11 35t-68 17.5q-78 0 -205 -127q-53 -53 -53 -96q0 -47 62 -47q43 0 141 43q90 39 158 84q32 120 92 225q6 12 90 141q160 246 377 457q258 250 409 250q84 0 84 -92zM1217 1137q0 51 -49 51
q-88 0 -279.5 -174t-357.5 -402q-182 -247 -229 -422q278 205 500 398q161 139 282 297q133 168 133 252z" />
    <glyph glyph-name="e" unicode="e" horiz-adv-x="428" 
d="M511 311q0 -12 -8 -20q-199 -168 -275 -217q-194 -131 -342 -131q-133 0 -133 135q0 88 98.5 195.5t171.5 107.5q23 0 43.5 -17.5t20.5 -39.5q0 -35 -35 -67t-70 -60q-59 -52 -145 -93q-6 -51 37 -77q31 -21 69 -21q103 0 293 127q41 27 254 186q6 5 13 3q8 -3 8 -11z
M3 303q0 14 -23 14q-32 0 -85.5 -56t-53.5 -97q10 2 35 10q127 76 127 129z" />
    <glyph glyph-name="f" unicode="f" 
d="M1049 1223q0 -88 -197 -312q-188 -213 -409 -385q-211 -166 -390 -254l-73 -131h315q37 0 37 -35q0 -20 -37 -22l-367 -14q-188 -244 -227 -287q-86 -105 -248 -268q-108 -111 -235 -197q-213 -145 -377 -145q-53 0 -90 27.5t-37 64.5q0 43 49 43l60 -51q47 -41 90 -41
q82 0 224 84t271 215q156 157 297 344q131 174 131 211h-20q-45 0 -45 39q0 32 73 32h58q74 123 309 467q500 699 750 699q39 0 63.5 -25t24.5 -59zM975 1223q0 43 -66 43q-65 0 -217.5 -137.5t-269.5 -294.5q-125 -170 -350 -504l268 174q195 117 408 350q227 246 227 369z
" />
    <glyph glyph-name="g" unicode="g" horiz-adv-x="763" 
d="M846 311q0 -12 -8 -20q-203 -170 -221 -182q-145 -107 -328 -168q-133 -172 -440 -408q-422 -324 -666 -324q-63 0 -105 34t-42 85q0 228 492 414q112 43 380.5 125t311.5 98q137 148 137 283q0 92 -107 92q-81 0 -153 -41q-78 -43 -78 -100q0 -78 64 -78q47 0 131 41
l94 49l-15 -27l-106 -65q-88 -49 -162 -49q-45 0 -71.5 28.5t-26.5 71.5q0 70 117.5 140.5t220.5 70.5q76 0 123 -39t47 -102q0 -86 -96 -234q127 41 487 313q6 5 12 3q8 -3 8 -11zM187 -88l-358 -102q-310 -91 -480 -181q-241 -127 -241 -258q0 -49 53 -84q47 -28 100 -28
q62 0 172 45q119 47 215 116q392 283 539 492z" />
    <glyph glyph-name="h" unicode="h" horiz-adv-x="735" 
d="M1151 1249q0 -82 -178 -288q-324 -377 -655 -572l-113 -72q-64 -38 -168 -79l-109 -160q33 20 324 213q105 69 143 69q27 0 27 -28q0 -10 -52 -81t-52 -118q0 -39 10 -53q14 -23 67 -23q54 0 265 156l147 109q10 0 10 -19q0 -8 -43 -43q-69 -57 -88 -76
q-59 -55 -143 -108q-125 -76 -205 -76q-113 0 -113 98q0 35 15 121q-15 -2 -43 -14q-17 -10 -215 -158q-113 -82 -144 -82q-16 0 -16 21q0 32 70 131q123 170 147 207q176 274 504 626q362 391 487 391q47 0 84 -25.5t37 -66.5zM1065 1229q0 55 -63 55q-82 0 -232 -141
q-94 -92 -286 -320l-275 -327q-123 -158 -133 -201q86 14 330 194q254 189 440 385q219 232 219 355z" />
    <glyph glyph-name="i" unicode="i" horiz-adv-x="464" 
d="M238 453q0 -54 -73 -54q-74 0 -74 54q0 55 74 55q73 0 73 -55zM548 311q0 -12 -9 -20q-204 -172 -256 -209q-168 -123 -254 -123q-55 0 -101 32t-46 75q0 71 74 165q69 88 116 99q25 0 25 -17q0 -14 -58.5 -83.5t-58.5 -129.5q0 -77 70 -77q84 0 477 296q6 5 12 3
q9 -3 9 -11z" />
    <glyph glyph-name="j" unicode="j" horiz-adv-x="501" 
d="M447 553q0 -49 -74 -49q-73 0 -73 49q0 51 73 51q74 0 74 -51zM283 403q0 -16 -125 -174q-104 -131 -159 -194q-389 -447 -742 -805q-149 -162 -198 -162q-27 0 -27 60q0 26 68 75q122 90 241 207q275 273 557 600q248 287 248 312q-27 -5 -71 -33.5t-46 -28.5
q-10 4 -10 16q0 11 17 25q51 45 131 82q67 33 92 33q24 0 24 -13z" />
    <glyph glyph-name="k" unicode="k" horiz-adv-x="974" 
d="M1058 303q0 -12 -9 -20q-370 -312 -596 -312q-65 0 -208.5 46t-159.5 46q-78 0 -195 -81l-143 -103l-35 8l461 549q516 641 565 744q-22 2 -57 20q-6 10 -6 35q0 14 38 31q62 22 101 51h69q3 -41 -464 -625q-482 -604 -488 -614l264 141q256 133 385 133q70 0 70 -49
q0 -41 -39 -41q-16 0 -51 7t-51 7q-121 0 -240 -57q-78 -37 -113 -72q258 -104 381 -104q144 0 500 268q6 4 12 2q9 -2 9 -10z" />
    <glyph glyph-name="l" unicode="l" horiz-adv-x="569" 
d="M869 1204q0 -162 -281 -463q-172 -186 -391 -368q-141 -117 -336 -258q4 -45 62.5 -76t130.5 -31q135 0 328 125q18 12 249 186q7 5 13 3q8 -3 8 -11q0 -12 -8 -20q-170 -141 -277 -209q-196 -121 -348 -121q-260 0 -260 201q0 184 190 469q179 264 414 465
q248 211 400 211q47 0 76.5 -30t29.5 -73zM783 1182q0 78 -98 69q-105 -8 -307.5 -182t-333.5 -364q-90 -130 -146 -285q-51 -137 -51 -217q0 -29 8 -41q54 28 221 164q207 168 377 336q164 161 234 264q96 137 96 256z" />
    <glyph glyph-name="m" unicode="m" horiz-adv-x="1296" 
d="M1379 311q0 -12 -8 -20q-176 -148 -270 -211q-187 -121 -312 -121q-112 0 -112 107q0 73 39 147q-25 0 -89 -39l-108 -70l-177 -100t-110 -49q-37 0 -37 35q0 33 52 96l127 152q-437 -275 -461 -275q-31 0 -31 27q0 2 107.5 116.5t107.5 151.5q0 12 -23.5 14t-23.5 13
q0 20 27.5 38.5t52.5 18.5q63 0 63 -70q0 -30 -37.5 -74l-74.5 -87l268 159q70 41 100 41q51 0 51 -39q0 -26 -61 -92q-76 -80 -94 -119q278 166 354 205q98 51 150 51q12 0 12 -24q0 -2 -50 -80t-50 -127q0 -76 69 -76q88 0 275 125q63 41 254 184q6 5 12 3q8 -3 8 -11z
" />
    <glyph glyph-name="n" unicode="n" horiz-adv-x="886" 
d="M969 311q0 -12 -8 -20q-187 -156 -256 -203q-174 -117 -299 -117q-109 0 -109 115q0 45 21 125q-144 -82 -302 -182q-112 -74 -120 -74q-4 0 -15.5 8t-11.5 12q0 27 72 127q82 117 94 144q-6 14 -6 33q0 16 24.5 32.5t40.5 16.5q66 0 66 -49q0 -17 -62 -97
q-55 -71 -84 -100q363 246 465 246q15 0 15 -25q0 -4 -57.5 -70.5t-57.5 -128.5q0 -69 96 -69q76 0 240 112q33 21 233 172q6 5 13 3q8 -3 8 -11z" />
    <glyph glyph-name="o" unicode="o" 
d="M655 311q0 -14 -8 -22q-69 -84 -209 -180q-151 -109 -227 -109q-53 0 -92 37q-17 -27 -86 -64q-84 -43 -152 -43q-98 0 -98 76q0 105 147 230q144 116 242 116t98 -90q0 -102 -114 -199q24 -24 61 -24q62 0 209 104q127 90 209 176q4 7 12 3q8 -3 8 -11zM242 276
q0 35 -35 35q-41 0 -74 -37.5t-33 -83.5q0 -67 27 -92q115 92 115 178zM96 68q-37 38 -37 98q0 84 35 117q-227 -105 -227 -220q0 -69 57 -69q80 0 172 74z" />
    <glyph glyph-name="p" unicode="p" horiz-adv-x="712" 
d="M437 692q0 -8 -399 -459l147 78q92 41 164 41q84 0 84 -69q0 -50 -72.5 -126.5t-181.5 -134t-176 -57.5q-25 0 -42 20.5t-17 43.5q2 57 36 57q19 0 26 -11.5t13 -25.5q17 -31 58 -31q59 0 168.5 90.5t109.5 153.5q0 35 -69 35q-62 0 -129 -41q-56 -37 -209 -166
q-197 -166 -420 -465q-199 -270 -211 -346q-2 -16 0 -67q0 -25 -19.5 -39.5t-35.5 -14.5q-23 0 -44.5 12.5t-21.5 30.5q0 31 23 64q47 71 49 76q121 221 465 620q161 191 649 725q24 27 41 27q14 0 14 -21z" />
    <glyph glyph-name="q" unicode="q" horiz-adv-x="669" 
d="M424 274q0 -30 -43 -53q-391 -327 -594 -565q-133 -158 -182 -221q-86 -119 -110 -203l364 299q170 145 246 145q43 0 43 -43q0 -20 -17.5 -37.5t-29.5 -17.5q-15 0 -41.5 2t-52.5 2q-68 0 -430 -336q-33 -28 -78 -77q-47 -78 -78 -78q-37 0 -37 35q0 53 102 215
q164 258 668 731q-57 -25 -113 -47q-71 -31 -98 -31q-39 0 -68.5 32.5t-29.5 73.5q0 97 174 197q164 94 285 94q32 0 54.5 -17.5t22.5 -39.5q0 -45 -92 -58q0 9 3 20t3 17q0 35 -41 35q-55 0 -178 -63q-149 -78 -149 -164q0 -25 18.5 -44.5t34.5 -19.5q37 0 85 22.5l93 45.5
q60 29 166 104q76 54 100 45z" />
    <glyph glyph-name="r" unicode="r" horiz-adv-x="696" 
d="M779 313q0 -12 -8 -20q-201 -168 -281 -221q-203 -135 -356 -135q-41 0 -75 32.5t-34 73.5q0 37 53 100l97 105q-37 0 -83 -7.5t-73 -7.5h-6q-211 -178 -348 -237q-33 0 -33 10q0 14 18 35q109 43 326 207q-14 14 -14 28q0 39 64.5 108t105.5 69q35 0 35 -27
q0 -47 -64 -107q82 21 107 21q57 0 57 -41q0 -43 -82 -118t-82 -115q0 -29 21.5 -50.5t52.5 -21.5q112 0 317 133q51 33 264 195q7 4 13 2q8 -2 8 -11z" />
    <glyph glyph-name="s" unicode="s" horiz-adv-x="579" 
d="M662 311q0 -12 -8 -20q-221 -185 -268 -215q-201 -127 -424 -127q-68 0 -113 28q-16 11 -67 60q0 12 4 20q-66 -39 -121 -61q-33 0 -33 10q0 14 18 35q179 86 377 246q2 4 2 6q54 45 115 45q92 0 92 -86q0 -55 -57.5 -132t-102.5 -102q117 0 310 121q84 49 256 180
q6 5 12 3q8 -3 8 -11zM146 227q0 49 -49 49q-25 0 -37 -4q-143 -125 -248 -196q10 0 17 -2q71 -45 112 -45q82 0 148 75q57 66 57 123z" />
    <glyph glyph-name="t" unicode="t" horiz-adv-x="542" 
d="M1031 727q0 -37 -74 -45h-92h-400q-256 -270 -276 -293q-191 -219 -191 -313q0 -62 80 -62q105 0 285 123l242 182q6 5 12 3q8 -3 8 -11q0 -12 -8 -20q-197 -164 -274 -217q-189 -131 -314 -131q-47 0 -76.5 34.5t-29.5 83.5q0 113 192 332l277 289l-684 18q-27 0 -19 33
q4 17 39 17h731l170 165q15 15 47 15q11 0 19 -12q6 -15 0 -21l-166 -147z" />
    <glyph glyph-name="u" unicode="u" horiz-adv-x="751" 
d="M834 311q0 -12 -8 -20q-418 -350 -580 -350q-94 0 -106 147q-53 -55 -145 -98q-78 -35 -109 -35q-33 0 -58.5 24.5t-25.5 59.5q0 70 56.5 127t224.5 164q20 0 10 -27l-98 -72q-95 -77 -95 -143q0 -63 35 -63q14 0 74 26q67 31 107 62.5t126 142.5q70 88 97 88
q26 0 26 -22q0 -19 -70.5 -85.5t-70.5 -111.5q0 -43 26.5 -78t51.5 -35q80 0 262 123q51 35 250 184q6 5 12 3q8 -3 8 -11z" />
    <glyph glyph-name="v" unicode="v" horiz-adv-x="778" 
d="M860 311q0 -12 -8 -22q-65 -76 -188 -164q-170 -121 -285 -121q-55 0 -127 78q-145 -145 -242 -145q-43 0 -73.5 25.5t-30.5 66.5q0 96 139 282q11 15 37 15q17 0 17 -11q0 -4 -3 -8q-16 0 -68 -91t-52 -138q0 -78 71 -78q58 0 183 113q-35 47 -35 129q0 49 27.5 86
t70.5 37q74 0 74 -84q0 -93 -78 -172q51 -66 96 -66q86 0 240 98q143 92 215 178q4 7 12 3q8 -3 8 -11zM336 274q0 56 -35 56q-65 0 -65 -80q0 -62 26 -107l52 62q22 33 22 69z" />
    <glyph glyph-name="w" unicode="w" horiz-adv-x="1056" 
d="M1139 311q0 -12 -8 -22q-65 -76 -188 -164q-170 -121 -285 -121q-55 0 -127 78q-145 -145 -241 -145q-33 0 -65 40.5t-32 94.5q0 43 23 82q-74 -68 -176.5 -125.5t-149.5 -57.5q-33 0 -41 10.5t-8 47.5q0 69 74 151l147 148q35 37 74 37t39 -48q0 -4 -26.5 -12t-33.5 -12
q-194 -143 -194 -223q0 -21 29 -21q77 0 397 256q10 8 18 8q15 0 15 -22q0 6 -49.5 -62.5t-49.5 -138.5q0 -76 78 -76q39 0 150 99q-35 47 -35 129q0 49 27.5 86t70.5 37q74 0 74 -84q0 -93 -78 -172q51 -66 96 -66q86 0 240 98q143 92 215 178q4 7 12 3q8 -3 8 -11z
M615 274q0 56 -35 56q-65 0 -65 -80q0 -62 26 -107q48 56 52 62q22 33 22 69z" />
    <glyph glyph-name="x" unicode="x" horiz-adv-x="845" 
d="M928 311q0 -12 -8 -20q-131 -133 -272 -228q-174 -118 -289 -118q-119 0 -186 194q-86 -61 -271 -223q-16 -16 -39 -12q-14 4 -14 8q0 25 119 119l184 143q-37 66 -70 78q-43 16 -43 35q0 47 66 47q49 0 82 -35q10 -12 43 -70q92 72 178 121q113 64 154 64q18 0 28 -11
q2 -16 -34 -28q-74 -27 -95 -37q-125 -62 -217 -148l62 -98q47 -78 96 -78q78 0 258 123q51 33 248 182q6 5 12 3q8 -3 8 -11z" />
    <glyph glyph-name="y" unicode="y" horiz-adv-x="720" 
d="M500 270q0 -22 -123 -143l-305 -307q-219 -234 -397 -465q-78 -103 -78 -141q0 -11 5 -32.5t3 -31.5q-26 -63 -92 -63q-8 45 -8 71q0 88 106 205l631 696q-159 -104 -250 -104q-90 0 -90 92q0 78 64 174q57 84 98 103q35 4 35 -19q0 8 -66.5 -73.5t-66.5 -149.5
q0 -64 98 -64q74 0 234.5 131.5t181.5 131.5q20 0 20 -11z" />
    <glyph glyph-name="z" unicode="z" horiz-adv-x="794" 
d="M877 311q0 -8 -8 -16q-148 -137 -289 -227.5t-215 -90.5q-18 0 -120.5 24t-153.5 24q-47 0 -107 -23l-84 -35q-2 -2 -4 0t-4 2q164 148 360 285h-194q-31 0 -31 16q0 33 33 45.5t133 16.5l129 6q64 0 64 -31q0 -6 -141.5 -101t-153.5 -118q172 -2 236.5 -18.5
t101.5 -16.5q84 0 229 101q113 75 199 161q20 17 20 -4z" />
    <glyph glyph-name="braceleft" unicode="{" horiz-adv-x="784" 
d="M1334 1315q0 -19 -37 -19h-109q-104 0 -194 -90l-172 -205l-252 -286q-90 -105 -157 -139.5t-146 -26.5l-5 -6q27 -19 27 -58q0 -86 -98 -211l-228 -286q-141 -178 -141 -215t76 -37h80q16 0 16 -25q0 -20 -47 -20h-74q-100 0 -100 71q0 52 100 181l265 338
q102 131 102 192q0 21 -16.5 44.5t-16.5 33.5q0 6 4 14q17 29 78 29q121 0 248 145l280 322l170 199q89 81 213 81h111q23 0 23 -26z" />
    <glyph glyph-name="bar" unicode="|" horiz-adv-x="454" 
d="M376 1364q0 -80 -32 -240q-13 -63 -29 -313q-21 -299 -21 -569q0 -207 13 -369q2 -31 23.5 -86t21.5 -82q0 -29 -19 -55q-2 -2 -2 -9.5t-2 -9.5q-18 0 -41 15q-55 127 -55 415q0 394 31 818q37 520 92 520q20 0 20 -35z" />
    <glyph glyph-name="braceright" unicode="}" horiz-adv-x="784" 
d="M996 1270q0 -51 -101 -180l-264 -338q-102 -131 -102 -193q0 -20 16 -43.5t16 -34.5q0 -6 -4 -14q-16 -29 -78 -29q-120 0 -247 -145l-281 -322l-170 -198q-88 -82 -213 -82h-110q-23 0 -23 26q0 19 37 19h108q105 0 195 90l172 205l252 286q90 105 160 140q63 35 143 26
l4 6q-27 19 -27 58q0 86 99 211l227 286q141 179 141 216q0 36 -75 36h-80q-17 0 -17 25q0 20 47 20h74q101 0 101 -71z" />
    <glyph glyph-name="asciitilde" unicode="~" horiz-adv-x="1032" 
d="M976 684q-33 -90 -121 -153.5t-180 -63.5q-117 0 -186 141q-33 68 -82 68q-76 0 -160 -54.5t-129 -123.5q-14 -15 -31 -15q-18 0 -12 19q25 69 133 149q119 86 215 86q74 0 125 -98q31 -57 49 -78q37 -37 95 -37q151 0 227 168q12 29 39 25q31 0 18 -33z" />
    <glyph glyph-name="dieresis" unicode="&#xa8;" horiz-adv-x="1024" 
 />
    <glyph glyph-name="copyright" unicode="&#xa9;" horiz-adv-x="2086" 
d="M1689 1169q0 -151 -182 -301q-176 -141 -330 -141q-20 0 -47 12q-33 17 -33 41q0 29 28 52.5t58 23.5q13 -45 17 -51q6 -12 22 -12q86 0 183.5 60t134.5 103q61 68 61 168q0 152 -190 152q-275 0 -547 -232q-291 -247 -291 -546q0 -146 91 -228t251 -82q88 0 215 48
q61 22 141 61q64 33 68 33q18 0 20 -2v-21q0 -33 -129 -94q-219 -102 -368 -102q-168 0 -270.5 94t-102.5 248q0 211 160 428q147 202 375.5 336.5t429.5 134.5q102 0 168.5 -52.5t66.5 -130.5zM1988 1126q0 -282 -180 -586t-455 -501q-295 -209 -590 -209q-241 0 -401 137
q-170 148 -170 391q0 291 143 564q131 243 336 407q201 156 381 168v-24q-100 4 -282 -123q-213 -146 -349 -363q-172 -270 -172 -581q0 -220 148.5 -367.5t378.5 -147.5q293 0 569 193q258 180 422 468t164 572q0 187 -135 289q-125 94 -326 94q-209 0 -467 -164
q-246 -159 -420 -391l-22 11q137 182 327 335q320 261 600 261q242 0 371 -111t129 -322z" />
    <glyph glyph-name="registered" unicode="&#xae;" horiz-adv-x="2086" 
d="M1988 1126q0 -282 -180 -586t-455 -501q-295 -209 -590 -209q-241 0 -401 137q-170 148 -170 391q0 291 143 564q131 243 336 407q201 156 381 168v-24q-100 4 -282 -123q-213 -146 -349 -363q-172 -270 -172 -581q0 -220 148.5 -367.5t378.5 -147.5q293 0 569 193
q258 180 422 468t164 572q0 187 -135 289q-125 94 -326 94q-209 0 -467 -164q-246 -159 -420 -391l-22 11q137 182 327 335q320 261 600 261q242 0 371 -111t129 -322zM1718 1180q0 -121 -185 -271q-294 -237 -657 -237h-43l416 -592q0 -19 -23 -21q23 2 -59 2
q-33 0 -176 246q-166 283 -244 355l-145 -259q-129 -202 -220 -202q-40 0 -40 45q0 16 16 37.5t35 21.5q10 0 15 -5t13 -5q29 0 127 156l140 233q-99 23 -172 51q-33 13 -33 45q0 15 15.5 35.5t35.5 20.5q61 -17 203 -48q129 185 311 336q250 207 459 207q94 0 152.5 -42
t58.5 -109zM1619 1124q3 45 -42.5 73t-114.5 28q-312 0 -649 -447h88q217 0 450 99q260 110 268 247z" />
    <glyph glyph-name="acute" unicode="&#xb4;" horiz-adv-x="1024" 
 />
    <glyph glyph-name="paragraph" unicode="&#xb6;" horiz-adv-x="1024" 
 />
    <glyph glyph-name="onequarter" unicode="&#xbc;" horiz-adv-x="1950" 
 />
    <glyph glyph-name="onehalf" unicode="&#xbd;" horiz-adv-x="1950" 
 />
    <glyph glyph-name="threequarters" unicode="&#xbe;" horiz-adv-x="1950" 
 />
    <glyph glyph-name="Agrave" unicode="&#xc0;" horiz-adv-x="1972" 
d="M1741 850q0 -137 -25.5 -370.5t-56.5 -368.5q16 6 28.5 18t24.5 12q19 0 19 -14q0 -12 -80 -74l-13 -102q-4 -29 -29.5 -48.5t-47.5 -19.5q-15 0 -15 33q0 41 11 104q-211 -86 -359 -86q-100 0 -362.5 102.5t-329.5 102.5q-152 0 -305 -57q-117 -43 -262 -135l-240 -154
q-23 -14 -59 -14q-25 0 -25 22q0 -4 72 33q125 64 356 242q137 106 444 411q297 293 484 504q233 264 469 264q172 0 248 -145q53 -102 53 -260zM1643 809q0 383 -246 383q-146 0 -320 -152q-32 -28 -334 -335l-329 -338q-176 -172 -357 -314q185 80 242 99q98 28 229 28
q142 0 432.5 -95t317.5 -95q76 0 162 30l125 52l49 401q29 242 29 336zM1583 1337q-20 0 -29 7q-169 140 -241 224q-117 134 -117 259q47 -20 90 -79q0 -93 310 -380q33 -31 -13 -31z" />
    <glyph glyph-name="Aacute" unicode="&#xc1;" horiz-adv-x="1972" 
d="M1741 850q0 -137 -25.5 -370.5t-56.5 -368.5q16 6 28.5 18t24.5 12q19 0 19 -14q0 -12 -80 -74l-13 -102q-4 -29 -29.5 -48.5t-47.5 -19.5q-15 0 -15 33q0 41 11 104q-211 -86 -359 -86q-100 0 -362.5 102.5t-329.5 102.5q-152 0 -305 -57q-117 -43 -262 -135l-240 -154
q-23 -14 -59 -14q-25 0 -25 22q0 -4 72 33q125 64 356 242q137 106 444 411q297 293 484 504q233 264 469 264q172 0 248 -145q53 -102 53 -260zM1643 809q0 383 -246 383q-146 0 -320 -152q-32 -28 -334 -335l-329 -338q-176 -172 -357 -314q185 80 242 99q98 28 229 28
q142 0 432.5 -95t317.5 -95q76 0 162 30l125 52l49 401q29 242 29 336zM1536 1368q310 287 310 380q42 59 90 79q0 -125 -118 -259q-72 -84 -241 -224q-9 -7 -28 -7q-46 0 -13 31z" />
    <glyph glyph-name="uni1EA2" unicode="&#x1ea2;" horiz-adv-x="1972" 
d="M1741 850q0 -137 -25.5 -370.5t-56.5 -368.5q16 6 28.5 18t24.5 12q19 0 19 -14q0 -12 -80 -74l-13 -102q-4 -29 -29.5 -48.5t-47.5 -19.5q-15 0 -15 33q0 41 11 104q-211 -86 -359 -86q-100 0 -362.5 102.5t-329.5 102.5q-152 0 -305 -57q-117 -43 -262 -135l-240 -154
q-23 -14 -59 -14q-25 0 -25 22q0 -4 72 33q125 64 356 242q137 106 444 411q297 293 484 504q233 264 469 264q172 0 248 -145q53 -102 53 -260zM1643 809q0 383 -246 383q-146 0 -320 -152q-32 -28 -334 -335l-329 -338q-176 -172 -357 -314q185 80 242 99q98 28 229 28
q142 0 432.5 -95t317.5 -95q76 0 162 30l125 52l49 401q29 242 29 336zM2063 1792q-28 21 -84 21q-121 0 -195 -63q-45 -37 -70 -62l-100 12q45 41 70 62q42 37 78 57q90 52 191 52q80 0 133 -39t53 -103q0 -39 -24.5 -82.5t-60.5 -66.5q-46 -30 -139 -56q-120 -34 -144 -43
q-83 -31 -120 -61q-38 -30 -38 -69q0 -25 -29 -18q7 -2 -8 -11.5l-15 -9.5q0 33 -2 61q-1 19 5 38q14 43 74 83q51 33 118 53l246 70q29 9 57 38q32 33 32 69q0 46 -28 68z" />
    <glyph glyph-name="Atilde" unicode="&#xc3;" horiz-adv-x="1972" 
d="M1741 850q0 -137 -25.5 -370.5t-56.5 -368.5q16 6 28.5 18t24.5 12q19 0 19 -14q0 -12 -80 -74l-13 -102q-4 -29 -29.5 -48.5t-47.5 -19.5q-15 0 -15 33q0 41 11 104q-211 -86 -359 -86q-100 0 -362.5 102.5t-329.5 102.5q-152 0 -305 -57q-117 -43 -262 -135l-240 -154
q-23 -14 -59 -14q-25 0 -25 22q0 -4 72 33q125 64 356 242q137 106 444 411q297 293 484 504q233 264 469 264q172 0 248 -145q53 -102 53 -260zM1643 809q0 383 -246 383q-146 0 -320 -152q-32 -28 -334 -335l-329 -338q-176 -172 -357 -314q185 80 242 99q98 28 229 28
q142 0 432.5 -95t317.5 -95q76 0 162 30l125 52l49 401q29 242 29 336zM2006 1598q-30 -70 -110.5 -119t-164.5 -49q-109 0 -174 110q-26 46 -65 46q-65 0 -137.5 -39.5t-112.5 -90.5q-16 -14 -34 -14q-29 0 -19 26q23 55 122 116q108 66 196 66q70 0 118 -78q27 -41 42 -56
q30 -25 78 -25q129 0 194 121q14 27 43 23q41 0 24 -37z" />
    <glyph glyph-name="uni1EA0" unicode="&#x1ea0;" horiz-adv-x="1972" 
d="M1741 850q0 -137 -25.5 -370.5t-56.5 -368.5q16 6 28.5 18t24.5 12q19 0 19 -14q0 -12 -80 -74l-13 -102q-4 -29 -29.5 -48.5t-47.5 -19.5q-15 0 -15 33q0 41 11 104q-211 -86 -359 -86q-100 0 -362.5 102.5t-329.5 102.5q-152 0 -305 -57q-117 -43 -262 -135l-240 -154
q-23 -14 -59 -14q-25 0 -25 22q0 -4 72 33q125 64 356 242q137 106 444 411q297 293 484 504q233 264 469 264q172 0 248 -145q53 -102 53 -260zM1643 809q0 383 -246 383q-146 0 -320 -152q-32 -28 -334 -335l-329 -338q-176 -172 -357 -314q185 80 242 99q98 28 229 28
q142 0 432.5 -95t317.5 -95q76 0 162 30l125 52l49 401q29 242 29 336zM854 -286q0 -59 -89 -59q-86 0 -86 59q0 61 88 61q34 0 60.5 -17.5t26.5 -43.5z" />
    <glyph glyph-name="Acircumflex" unicode="&#xc2;" horiz-adv-x="1972" 
d="M1741 850q0 -137 -25.5 -370.5t-56.5 -368.5q16 6 28.5 18t24.5 12q19 0 19 -14q0 -12 -80 -74l-13 -102q-4 -29 -29.5 -48.5t-47.5 -19.5q-15 0 -15 33q0 41 11 104q-211 -86 -359 -86q-100 0 -362.5 102.5t-329.5 102.5q-152 0 -305 -57q-117 -43 -262 -135l-240 -154
q-23 -14 -59 -14q-25 0 -25 22q0 -4 72 33q125 64 356 242q137 106 444 411q297 293 484 504q233 264 469 264q172 0 248 -145q53 -102 53 -260zM1643 809q0 383 -246 383q-146 0 -320 -152q-32 -28 -334 -335l-329 -338q-176 -172 -357 -314q185 80 242 99q98 28 229 28
q142 0 432.5 -95t317.5 -95q76 0 162 30l125 52l49 401q29 242 29 336zM1574 1613q24 0 46 -15q23 -15 59 -64q43 -54 62 -73l60.5 -50.5t28.5 -38.5q15 -19 -30 -19q-39 0 -125 76q-64 58 -110 128q-23 -10 -54 -31q-81 -50 -168 -130q-37 -34 -42 -40q-22 -13 -49 -13
q-6 0 42 -11q-53 36 -50 49q7 36 138 129q83 59 103 69q54 33 89 34z" />
    <glyph glyph-name="uni1EA6" unicode="&#x1ea6;" horiz-adv-x="1972" 
d="M1741 850q0 -137 -25.5 -370.5t-56.5 -368.5q16 6 28.5 18t24.5 12q19 0 19 -14q0 -12 -80 -74l-13 -102q-4 -29 -29.5 -48.5t-47.5 -19.5q-15 0 -15 33q0 41 11 104q-211 -86 -359 -86q-100 0 -362.5 102.5t-329.5 102.5q-152 0 -305 -57q-117 -43 -262 -135l-240 -154
q-23 -14 -59 -14q-25 0 -25 22q0 -4 72 33q125 64 356 242q137 106 444 411q297 293 484 504q233 264 469 264q172 0 248 -145q53 -102 53 -260zM1643 809q0 383 -246 383q-146 0 -320 -152q-32 -28 -334 -335l-329 -338q-176 -172 -357 -314q185 80 242 99q98 28 229 28
q142 0 432.5 -95t317.5 -95q76 0 162 30l125 52l49 401q29 242 29 336zM1804 1529q-20 0 -29 7q-169 140 -241 224q-117 134 -117 259q47 -20 90 -79q0 -93 310 -380q33 -31 -13 -31zM1574 1613q24 0 46 -15q23 -15 59 -64q43 -54 62 -73l60.5 -50.5t28.5 -38.5
q15 -19 -30 -19q-39 0 -125 76q-64 58 -110 128q-23 -10 -54 -31q-81 -50 -168 -130q-37 -34 -42 -40q-22 -13 -49 -13q-6 0 42 -11q-53 36 -50 49q7 36 138 129q83 59 103 69q54 33 89 34z" />
    <glyph glyph-name="uni1EA4" unicode="&#x1ea4;" horiz-adv-x="1972" 
d="M1741 850q0 -137 -25.5 -370.5t-56.5 -368.5q16 6 28.5 18t24.5 12q19 0 19 -14q0 -12 -80 -74l-13 -102q-4 -29 -29.5 -48.5t-47.5 -19.5q-15 0 -15 33q0 41 11 104q-211 -86 -359 -86q-100 0 -362.5 102.5t-329.5 102.5q-152 0 -305 -57q-117 -43 -262 -135l-240 -154
q-23 -14 -59 -14q-25 0 -25 22q0 -4 72 33q125 64 356 242q137 106 444 411q297 293 484 504q233 264 469 264q172 0 248 -145q53 -102 53 -260zM1643 809q0 383 -246 383q-146 0 -320 -152q-32 -28 -334 -335l-329 -338q-176 -172 -357 -314q185 80 242 99q98 28 229 28
q142 0 432.5 -95t317.5 -95q76 0 162 30l125 52l49 401q29 242 29 336zM1784 1560q310 287 310 380q42 59 90 79q0 -125 -118 -259q-72 -84 -241 -224q-9 -7 -28 -7q-46 0 -13 31zM1574 1613q24 0 46 -15q23 -15 59 -64q43 -54 62 -73l60.5 -50.5t28.5 -38.5q15 -19 -30 -19
q-39 0 -125 76q-64 58 -110 128q-23 -10 -54 -31q-81 -50 -168 -130q-37 -34 -42 -40q-22 -13 -49 -13q-6 0 42 -11q-53 36 -50 49q7 36 138 129q83 59 103 69q54 33 89 34z" />
    <glyph glyph-name="uni1EA8" unicode="&#x1ea8;" horiz-adv-x="1972" 
d="M1741 850q0 -137 -25.5 -370.5t-56.5 -368.5q16 6 28.5 18t24.5 12q19 0 19 -14q0 -12 -80 -74l-13 -102q-4 -29 -29.5 -48.5t-47.5 -19.5q-15 0 -15 33q0 41 11 104q-211 -86 -359 -86q-100 0 -362.5 102.5t-329.5 102.5q-152 0 -305 -57q-117 -43 -262 -135l-240 -154
q-23 -14 -59 -14q-25 0 -25 22q0 -4 72 33q125 64 356 242q137 106 444 411q297 293 484 504q233 264 469 264q172 0 248 -145q53 -102 53 -260zM1643 809q0 383 -246 383q-146 0 -320 -152q-32 -28 -334 -335l-329 -338q-176 -172 -357 -314q185 80 242 99q98 28 229 28
q142 0 432.5 -95t317.5 -95q76 0 162 30l125 52l49 401q29 242 29 336zM1574 1613q24 0 46 -15q23 -15 59 -64q43 -54 62 -73l60.5 -50.5t28.5 -38.5q15 -19 -30 -19q-39 0 -125 76q-64 58 -110 128q-23 -10 -54 -31q-81 -50 -168 -130q-37 -34 -42 -40q-22 -13 -49 -13
q-6 0 42 -11q-53 36 -50 49q7 36 138 129q83 59 103 69q54 33 89 34zM2255 2003q-28 21 -84 21q-121 0 -195 -63q-45 -37 -70 -62l-100 12q45 41 70 62q42 37 78 57q90 52 191 52q80 0 133 -39t53 -103q0 -39 -24.5 -82.5t-60.5 -66.5q-46 -30 -139 -56q-120 -34 -144 -43
q-83 -31 -120 -61q-38 -30 -38 -69q0 -25 -29 -18q7 -2 -8 -11.5l-15 -9.5q0 33 -2 61q-1 19 5 38q14 43 74 83q51 33 118 53l246 70q29 9 57 38q32 33 32 69q0 46 -28 68z" />
    <glyph glyph-name="uni1EAA" unicode="&#x1eaa;" horiz-adv-x="1972" 
d="M1741 850q0 -137 -25.5 -370.5t-56.5 -368.5q16 6 28.5 18t24.5 12q19 0 19 -14q0 -12 -80 -74l-13 -102q-4 -29 -29.5 -48.5t-47.5 -19.5q-15 0 -15 33q0 41 11 104q-211 -86 -359 -86q-100 0 -362.5 102.5t-329.5 102.5q-152 0 -305 -57q-117 -43 -262 -135l-240 -154
q-23 -14 -59 -14q-25 0 -25 22q0 -4 72 33q125 64 356 242q137 106 444 411q297 293 484 504q233 264 469 264q172 0 248 -145q53 -102 53 -260zM1643 809q0 383 -246 383q-146 0 -320 -152q-32 -28 -334 -335l-329 -338q-176 -172 -357 -314q185 80 242 99q98 28 229 28
q142 0 432.5 -95t317.5 -95q76 0 162 30l125 52l49 401q29 242 29 336zM1574 1613q24 0 46 -15q23 -15 59 -64q43 -54 62 -73l60.5 -50.5t28.5 -38.5q15 -19 -30 -19q-39 0 -125 76q-64 58 -110 128q-23 -10 -54 -31q-81 -50 -168 -130q-37 -34 -42 -40q-22 -13 -49 -13
q-6 0 42 -11q-53 36 -50 49q7 36 138 129q83 59 103 69q54 33 89 34zM2131 1751q-30 -70 -110.5 -119t-164.5 -49q-109 0 -174 110q-26 46 -65 46q-65 0 -137.5 -39.5t-112.5 -90.5q-16 -14 -34 -14q-29 0 -19 26q23 55 122 116q108 66 196 66q70 0 118 -78q27 -41 42 -56
q30 -25 78 -25q129 0 194 121q14 27 43 23q41 0 24 -37z" />
    <glyph glyph-name="uni1EAC" unicode="&#x1eac;" horiz-adv-x="1972" 
d="M1741 850q0 -137 -25.5 -370.5t-56.5 -368.5q16 6 28.5 18t24.5 12q19 0 19 -14q0 -12 -80 -74l-13 -102q-4 -29 -29.5 -48.5t-47.5 -19.5q-15 0 -15 33q0 41 11 104q-211 -86 -359 -86q-100 0 -362.5 102.5t-329.5 102.5q-152 0 -305 -57q-117 -43 -262 -135l-240 -154
q-23 -14 -59 -14q-25 0 -25 22q0 -4 72 33q125 64 356 242q137 106 444 411q297 293 484 504q233 264 469 264q172 0 248 -145q53 -102 53 -260zM1643 809q0 383 -246 383q-146 0 -320 -152q-32 -28 -334 -335l-329 -338q-176 -172 -357 -314q185 80 242 99q98 28 229 28
q142 0 432.5 -95t317.5 -95q76 0 162 30l125 52l49 401q29 242 29 336zM1574 1613q24 0 46 -15q23 -15 59 -64q43 -54 62 -73l60.5 -50.5t28.5 -38.5q15 -19 -30 -19q-39 0 -125 76q-64 58 -110 128q-23 -10 -54 -31q-81 -50 -168 -130q-37 -34 -42 -40q-22 -13 -49 -13
q-6 0 42 -11q-53 36 -50 49q7 36 138 129q83 59 103 69q54 33 89 34zM854 -286q0 -59 -89 -59q-86 0 -86 59q0 61 88 61q34 0 60.5 -17.5t26.5 -43.5z" />
    <glyph glyph-name="Abreve" unicode="&#x102;" horiz-adv-x="1972" 
d="M1741 850q0 -137 -25.5 -370.5t-56.5 -368.5q16 6 28.5 18t24.5 12q19 0 19 -14q0 -12 -80 -74l-13 -102q-4 -29 -29.5 -48.5t-47.5 -19.5q-15 0 -15 33q0 41 11 104q-211 -86 -359 -86q-100 0 -362.5 102.5t-329.5 102.5q-152 0 -305 -57q-117 -43 -262 -135l-240 -154
q-23 -14 -59 -14q-25 0 -25 22q0 -4 72 33q125 64 356 242q137 106 444 411q297 293 484 504q233 264 469 264q172 0 248 -145q53 -102 53 -260zM1643 809q0 383 -246 383q-146 0 -320 -152q-32 -28 -334 -335l-329 -338q-176 -172 -357 -314q185 80 242 99q98 28 229 28
q142 0 432.5 -95t317.5 -95q76 0 162 30l125 52l49 401q29 242 29 336zM2039 1556l6 1q-164 -148 -379 -212q-88 -27 -169.5 -15.5t-119.5 51.5q-55 59 21 172q7 11 22.5 25t34 5t12.5 -20q-58 -88 -15 -132q30 -33 102 -40.5t156 16.5q127 38 250 138l47 39q87 80 94 82
q13 1 23 -11q6 -8 -76 -90q-5 -4 -9 -9z" />
    <glyph glyph-name="uni1EB0" unicode="&#x1eb0;" horiz-adv-x="1972" 
d="M1741 850q0 -137 -25.5 -370.5t-56.5 -368.5q16 6 28.5 18t24.5 12q19 0 19 -14q0 -12 -80 -74l-13 -102q-4 -29 -29.5 -48.5t-47.5 -19.5q-15 0 -15 33q0 41 11 104q-211 -86 -359 -86q-100 0 -362.5 102.5t-329.5 102.5q-152 0 -305 -57q-117 -43 -262 -135l-240 -154
q-23 -14 -59 -14q-25 0 -25 22q0 -4 72 33q125 64 356 242q137 106 444 411q297 293 484 504q233 264 469 264q172 0 248 -145q53 -102 53 -260zM1643 809q0 383 -246 383q-146 0 -320 -152q-32 -28 -334 -335l-329 -338q-176 -172 -357 -314q185 80 242 99q98 28 229 28
q142 0 432.5 -95t317.5 -95q76 0 162 30l125 52l49 401q29 242 29 336zM2039 1556l6 1q-164 -148 -379 -212q-88 -27 -169.5 -15.5t-119.5 51.5q-55 59 21 172q7 11 22.5 25t34 5t12.5 -20q-58 -88 -15 -132q30 -33 102 -40.5t156 16.5q127 38 250 138l47 39q87 80 94 82
q13 1 23 -11q6 -8 -76 -90q-5 -4 -9 -9zM1739 1567q-19 -5 -30 -1q-200 89 -293 150q-149 98 -183 218q52 -7 108 -52q25 -89 402 -282q40 -20 -4 -33z" />
    <glyph glyph-name="uni1EAE" unicode="&#x1eae;" horiz-adv-x="1972" 
d="M1741 850q0 -137 -25.5 -370.5t-56.5 -368.5q16 6 28.5 18t24.5 12q19 0 19 -14q0 -12 -80 -74l-13 -102q-4 -29 -29.5 -48.5t-47.5 -19.5q-15 0 -15 33q0 41 11 104q-211 -86 -359 -86q-100 0 -362.5 102.5t-329.5 102.5q-152 0 -305 -57q-117 -43 -262 -135l-240 -154
q-23 -14 -59 -14q-25 0 -25 22q0 -4 72 33q125 64 356 242q137 106 444 411q297 293 484 504q233 264 469 264q172 0 248 -145q53 -102 53 -260zM1643 809q0 383 -246 383q-146 0 -320 -152q-32 -28 -334 -335l-329 -338q-176 -172 -357 -314q185 80 242 99q98 28 229 28
q142 0 432.5 -95t317.5 -95q76 0 162 30l125 52l49 401q29 242 29 336zM2039 1556l6 1q-164 -148 -379 -212q-88 -27 -169.5 -15.5t-119.5 51.5q-55 59 21 172q7 11 22.5 25t34 5t12.5 -20q-58 -88 -15 -132q30 -33 102 -40.5t156 16.5q127 38 250 138l47 39q87 80 94 82
q13 1 23 -11q6 -8 -76 -90q-5 -4 -9 -9zM1645 1600q377 193 402 282q57 45 108 52q-34 -120 -183 -218q-93 -61 -293 -150q-11 -4 -29 1q-44 13 -5 33z" />
    <glyph glyph-name="uni1EB2" unicode="&#x1eb2;" horiz-adv-x="1972" 
d="M1741 850q0 -137 -25.5 -370.5t-56.5 -368.5q16 6 28.5 18t24.5 12q19 0 19 -14q0 -12 -80 -74l-13 -102q-4 -29 -29.5 -48.5t-47.5 -19.5q-15 0 -15 33q0 41 11 104q-211 -86 -359 -86q-100 0 -362.5 102.5t-329.5 102.5q-152 0 -305 -57q-117 -43 -262 -135l-240 -154
q-23 -14 -59 -14q-25 0 -25 22q0 -4 72 33q125 64 356 242q137 106 444 411q297 293 484 504q233 264 469 264q172 0 248 -145q53 -102 53 -260zM1643 809q0 383 -246 383q-146 0 -320 -152q-32 -28 -334 -335l-329 -338q-176 -172 -357 -314q185 80 242 99q98 28 229 28
q142 0 432.5 -95t317.5 -95q76 0 162 30l125 52l49 401q29 242 29 336zM2039 1556l6 1q-164 -148 -379 -212q-88 -27 -169.5 -15.5t-119.5 51.5q-55 59 21 172q7 11 22.5 25t34 5t12.5 -20q-58 -88 -15 -132q30 -33 102 -40.5t156 16.5q127 38 250 138l47 39q87 80 94 82
q13 1 23 -11q6 -8 -76 -90q-5 -4 -9 -9zM2121 2003q-28 21 -84 21q-121 0 -195 -63q-45 -37 -70 -62l-100 12q45 41 70 62q42 37 78 57q90 52 191 52q80 0 133 -39t53 -103q0 -39 -24.5 -82.5t-60.5 -66.5q-46 -30 -139 -56q-120 -34 -144 -43q-83 -31 -120 -61
q-38 -30 -38 -69q0 -25 -29 -18q7 -2 -8 -11.5l-15 -9.5q0 33 -2 61q-1 19 5 38q14 43 74 83q51 33 118 53l246 70q29 9 57 38q32 33 32 69q0 46 -28 68z" />
    <glyph glyph-name="uni1EB4" unicode="&#x1eb4;" horiz-adv-x="1972" 
d="M1741 850q0 -137 -25.5 -370.5t-56.5 -368.5q16 6 28.5 18t24.5 12q19 0 19 -14q0 -12 -80 -74l-13 -102q-4 -29 -29.5 -48.5t-47.5 -19.5q-15 0 -15 33q0 41 11 104q-211 -86 -359 -86q-100 0 -362.5 102.5t-329.5 102.5q-152 0 -305 -57q-117 -43 -262 -135l-240 -154
q-23 -14 -59 -14q-25 0 -25 22q0 -4 72 33q125 64 356 242q137 106 444 411q297 293 484 504q233 264 469 264q172 0 248 -145q53 -102 53 -260zM1643 809q0 383 -246 383q-146 0 -320 -152q-32 -28 -334 -335l-329 -338q-176 -172 -357 -314q185 80 242 99q98 28 229 28
q142 0 432.5 -95t317.5 -95q76 0 162 30l125 52l49 401q29 242 29 336zM2039 1556l6 1q-164 -148 -379 -212q-88 -27 -169.5 -15.5t-119.5 51.5q-55 59 21 172q7 11 22.5 25t34 5t12.5 -20q-58 -88 -15 -132q30 -33 102 -40.5t156 16.5q127 38 250 138l47 39q87 80 94 82
q13 1 23 -11q6 -8 -76 -90q-5 -4 -9 -9zM2101 1742q-30 -70 -110.5 -119t-164.5 -49q-109 0 -174 110q-26 46 -65 46q-65 0 -137.5 -39.5t-112.5 -90.5q-16 -14 -34 -14q-29 0 -19 26q23 55 122 116q108 66 196 66q70 0 118 -78q27 -41 42 -56q30 -25 78 -25q129 0 194 121
q14 27 43 23q41 0 24 -37z" />
    <glyph glyph-name="uni1EB6" unicode="&#x1eb6;" horiz-adv-x="1972" 
d="M1741 850q0 -137 -25.5 -370.5t-56.5 -368.5q16 6 28.5 18t24.5 12q19 0 19 -14q0 -12 -80 -74l-13 -102q-4 -29 -29.5 -48.5t-47.5 -19.5q-15 0 -15 33q0 41 11 104q-211 -86 -359 -86q-100 0 -362.5 102.5t-329.5 102.5q-152 0 -305 -57q-117 -43 -262 -135l-240 -154
q-23 -14 -59 -14q-25 0 -25 22q0 -4 72 33q125 64 356 242q137 106 444 411q297 293 484 504q233 264 469 264q172 0 248 -145q53 -102 53 -260zM1643 809q0 383 -246 383q-146 0 -320 -152q-32 -28 -334 -335l-329 -338q-176 -172 -357 -314q185 80 242 99q98 28 229 28
q142 0 432.5 -95t317.5 -95q76 0 162 30l125 52l49 401q29 242 29 336zM2039 1556l6 1q-164 -148 -379 -212q-88 -27 -169.5 -15.5t-119.5 51.5q-55 59 21 172q7 11 22.5 25t34 5t12.5 -20q-58 -88 -15 -132q30 -33 102 -40.5t156 16.5q127 38 250 138l47 39q87 80 94 82
q13 1 23 -11q6 -8 -76 -90q-5 -4 -9 -9zM854 -286q0 -59 -89 -59q-86 0 -86 59q0 61 88 61q34 0 60.5 -17.5t26.5 -43.5z" />
    <glyph glyph-name="Egrave" unicode="&#xc8;" horiz-adv-x="1605" 
d="M1729 1348q0 -115 -164 -227.5t-338 -112.5q-141 0 -141 92q0 61 65 69q56 7 56 -20q0 -4 -4.5 -26.5t-2.5 -30.5q7 -35 82 -35q135 0 252 83t117 171q0 69 -79 116.5t-204 47.5q-237 0 -486 -145.5t-249 -287.5q0 -65 65.5 -149t65.5 -111q0 -61 -170 -145
q-266 -131 -315 -166q-127 -86 -164 -123q-76 -80 -76 -188q0 -121 91 -195t235 -74q225 0 428 70q211 74 459 240q8 -4 16 -27q-258 -188 -483.5 -270t-477.5 -82q-170 0 -265 74.5t-95 207.5q0 150 111 256q63 62 249 166l246 133q117 66 117 93q0 26 -65.5 116t-65.5 144
q0 168 307 343t600 175q121 0 202 -52.5t81 -129.5zM1439 1615q-19 0 -28 7q-169 140 -242 224q-117 134 -117 259q48 -20 90 -79q0 -93 310 -380q33 -31 -13 -31z" />
    <glyph glyph-name="Eacute" unicode="&#xc9;" horiz-adv-x="1605" 
d="M1729 1348q0 -115 -164 -227.5t-338 -112.5q-141 0 -141 92q0 61 65 69q56 7 56 -20q0 -4 -4.5 -26.5t-2.5 -30.5q7 -35 82 -35q135 0 252 83t117 171q0 69 -79 116.5t-204 47.5q-237 0 -486 -145.5t-249 -287.5q0 -65 65.5 -149t65.5 -111q0 -61 -170 -145
q-266 -131 -315 -166q-127 -86 -164 -123q-76 -80 -76 -188q0 -121 91 -195t235 -74q225 0 428 70q211 74 459 240q8 -4 16 -27q-258 -188 -483.5 -270t-477.5 -82q-170 0 -265 74.5t-95 207.5q0 150 111 256q63 62 249 166l246 133q117 66 117 93q0 26 -65.5 116t-65.5 144
q0 168 307 343t600 175q121 0 202 -52.5t81 -129.5zM1440 1646q310 287 310 380q43 59 90 79q0 -125 -117 -259q-73 -84 -241 -224q-9 -7 -29 -7q-46 0 -13 31z" />
    <glyph glyph-name="uni1EBA" unicode="&#x1eba;" horiz-adv-x="1605" 
d="M1729 1348q0 -115 -164 -227.5t-338 -112.5q-141 0 -141 92q0 61 65 69q56 7 56 -20q0 -4 -4.5 -26.5t-2.5 -30.5q7 -35 82 -35q135 0 252 83t117 171q0 69 -79 116.5t-204 47.5q-237 0 -486 -145.5t-249 -287.5q0 -65 65.5 -149t65.5 -111q0 -61 -170 -145
q-266 -131 -315 -166q-127 -86 -164 -123q-76 -80 -76 -188q0 -121 91 -195t235 -74q225 0 428 70q211 74 459 240q8 -4 16 -27q-258 -188 -483.5 -270t-477.5 -82q-170 0 -265 74.5t-95 207.5q0 150 111 256q63 62 249 166l246 133q117 66 117 93q0 26 -65.5 116t-65.5 144
q0 168 307 343t600 175q121 0 202 -52.5t81 -129.5zM1986 2090q-27 21 -83 21q-122 0 -196 -63q-45 -37 -70 -62l-100 12q45 41 70 62q42 37 78 57q90 52 192 52q80 0 133 -39t53 -103q0 -39 -25 -82.5t-61 -66.5q-46 -30 -139 -56q-119 -34 -144 -43q-82 -31 -120 -61
t-38 -69q0 -25 -29 -18q7 -2 -8 -11.5l-15 -9.5q0 33 -1 61q-2 19 4 38q14 43 75 83q50 33 118 53l246 70q28 9 56 38q32 33 32 69q0 46 -28 68z" />
    <glyph glyph-name="uni1EBC" unicode="&#x1ebc;" horiz-adv-x="1605" 
d="M1729 1348q0 -115 -164 -227.5t-338 -112.5q-141 0 -141 92q0 61 65 69q56 7 56 -20q0 -4 -4.5 -26.5t-2.5 -30.5q7 -35 82 -35q135 0 252 83t117 171q0 69 -79 116.5t-204 47.5q-237 0 -486 -145.5t-249 -287.5q0 -65 65.5 -149t65.5 -111q0 -61 -170 -145
q-266 -131 -315 -166q-127 -86 -164 -123q-76 -80 -76 -188q0 -121 91 -195t235 -74q225 0 428 70q211 74 459 240q8 -4 16 -27q-258 -188 -483.5 -270t-477.5 -82q-170 0 -265 74.5t-95 207.5q0 150 111 256q63 62 249 166l246 133q117 66 117 93q0 26 -65.5 116t-65.5 144
q0 168 307 343t600 175q121 0 202 -52.5t81 -129.5zM2016 1790q-30 -70 -110.5 -119t-164.5 -49q-109 0 -174 110q-26 46 -65 46q-65 0 -137.5 -39.5t-111.5 -90.5q-16 -14 -34 -14q-30 0 -20 26q23 55 122 116q108 66 196 66q71 0 119 -78q26 -41 42 -56q30 -25 77 -25
q130 0 194 121q14 27 43 23q41 0 24 -37z" />
    <glyph glyph-name="uni1EB8" unicode="&#x1eb8;" horiz-adv-x="1605" 
d="M1729 1348q0 -115 -164 -227.5t-338 -112.5q-142 0 -142 92q0 61 66 69q55 7 55 -20q0 -4 -4 -26.5t-2 -30.5q6 -35 82 -35q135 0 252 83t117 171q0 69 -79 116.5t-204 47.5q-238 0 -486.5 -145.5t-248.5 -287.5q0 -65 65.5 -149t65.5 -111q0 -61 -170 -145
q-266 -131 -315 -166q-127 -86 -164 -123q-76 -80 -76 -188q0 -121 91 -195t235 -74q225 0 428 70q211 74 458 240q9 -4 17 -27q-258 -188 -483.5 -270t-477.5 -82q-170 0 -265 74.5t-95 207.5q0 150 110 256q64 62 250 166l246 133q117 66 117 93q0 26 -65.5 116t-65.5 144
q0 168 307 343t600 175q121 0 202 -52.5t81 -129.5zM87 -315q0 -59 -90 -59q-85 0 -85 59q0 61 88 61q34 0 60.5 -17.5t26.5 -43.5z" />
    <glyph glyph-name="Ecircumflex" unicode="&#xca;" horiz-adv-x="1605" 
d="M1729 1348q0 -115 -164 -227.5t-338 -112.5q-141 0 -141 92q0 61 65 69q56 7 56 -20q0 -4 -4.5 -26.5t-2.5 -30.5q7 -35 82 -35q135 0 252 83t117 171q0 69 -79 116.5t-204 47.5q-237 0 -486 -145.5t-249 -287.5q0 -65 65.5 -149t65.5 -111q0 -61 -170 -145
q-266 -131 -315 -166q-127 -86 -164 -123q-76 -80 -76 -188q0 -121 91 -195t235 -74q225 0 428 70q211 74 459 240q8 -4 16 -27q-258 -188 -483.5 -270t-477.5 -82q-170 0 -265 74.5t-95 207.5q0 150 111 256q63 62 249 166l246 133q117 66 117 93q0 26 -65.5 116t-65.5 144
q0 168 307 343t600 175q121 0 202 -52.5t81 -129.5zM1555 1901q24 0 46 -15q23 -15 59 -64q44 -54 62 -73l61 -50.5t28 -38.5q16 -19 -29 -19q-40 0 -126 76q-63 58 -110 128q-23 -10 -53 -31q-82 -50 -169 -130q-37 -34 -42 -40q-22 -13 -48 -13q-6 0 41 -11q-53 36 -50 49
q7 36 138 129q83 59 103 69q54 33 89 34z" />
    <glyph glyph-name="uni1EC0" unicode="&#x1ec0;" horiz-adv-x="1605" 
d="M1729 1348q0 -115 -164 -227.5t-338 -112.5q-141 0 -141 92q0 61 65 69q56 7 56 -20q0 -4 -4.5 -26.5t-2.5 -30.5q7 -35 82 -35q135 0 252 83t117 171q0 69 -79 116.5t-204 47.5q-237 0 -486 -145.5t-249 -287.5q0 -65 65.5 -149t65.5 -111q0 -61 -170 -145
q-266 -131 -315 -166q-127 -86 -164 -123q-76 -80 -76 -188q0 -121 91 -195t235 -74q225 0 428 70q211 74 459 240q8 -4 16 -27q-258 -188 -483.5 -270t-477.5 -82q-170 0 -265 74.5t-95 207.5q0 150 111 256q63 62 249 166l246 133q117 66 117 93q0 26 -65.5 116t-65.5 144
q0 168 307 343t600 175q121 0 202 -52.5t81 -129.5zM1794 1807q-19 0 -28 7q-169 140 -242 224q-117 134 -117 259q48 -20 90 -79q0 -93 310 -380q33 -31 -13 -31zM1555 1901q24 0 46 -15q23 -15 59 -64q44 -54 62 -73l61 -50.5t28 -38.5q16 -19 -29 -19q-40 0 -126 76
q-63 58 -110 128q-23 -10 -53 -31q-82 -50 -169 -130q-37 -34 -42 -40q-22 -13 -48 -13q-6 0 41 -11q-53 36 -50 49q7 36 138 129q83 59 103 69q54 33 89 34z" />
    <glyph glyph-name="uni1EBE" unicode="&#x1ebe;" horiz-adv-x="1605" 
d="M1729 1348q0 -115 -164 -227.5t-338 -112.5q-141 0 -141 92q0 61 65 69q56 7 56 -20q0 -4 -4.5 -26.5t-2.5 -30.5q7 -35 82 -35q135 0 252 83t117 171q0 69 -79 116.5t-204 47.5q-237 0 -486 -145.5t-249 -287.5q0 -65 65.5 -149t65.5 -111q0 -61 -170 -145
q-266 -131 -315 -166q-127 -86 -164 -123q-76 -80 -76 -188q0 -121 91 -195t235 -74q225 0 428 70q211 74 459 240q8 -4 16 -27q-258 -188 -483.5 -270t-477.5 -82q-170 0 -265 74.5t-95 207.5q0 150 111 256q63 62 249 166l246 133q117 66 117 93q0 26 -65.5 116t-65.5 144
q0 168 307 343t600 175q121 0 202 -52.5t81 -129.5zM1759 1838q310 287 310 380q43 59 90 79q0 -125 -117 -259q-73 -84 -241 -224q-9 -7 -29 -7q-46 0 -13 31zM1555 1901q24 0 46 -15q23 -15 59 -64q44 -54 62 -73l61 -50.5t28 -38.5q16 -19 -29 -19q-40 0 -126 76
q-63 58 -110 128q-23 -10 -53 -31q-82 -50 -169 -130q-37 -34 -42 -40q-22 -13 -48 -13q-6 0 41 -11q-53 36 -50 49q7 36 138 129q83 59 103 69q54 33 89 34z" />
    <glyph glyph-name="uni1EC2" unicode="&#x1ec2;" horiz-adv-x="1605" 
d="M1729 1348q0 -115 -164 -227.5t-338 -112.5q-141 0 -141 92q0 61 65 69q56 7 56 -20q0 -4 -4.5 -26.5t-2.5 -30.5q7 -35 82 -35q135 0 252 83t117 171q0 69 -79 116.5t-204 47.5q-237 0 -486 -145.5t-249 -287.5q0 -65 65.5 -149t65.5 -111q0 -61 -170 -145
q-266 -131 -315 -166q-127 -86 -164 -123q-76 -80 -76 -188q0 -121 91 -195t235 -74q225 0 428 70q211 74 459 240q8 -4 16 -27q-258 -188 -483.5 -270t-477.5 -82q-170 0 -265 74.5t-95 207.5q0 150 111 256q63 62 249 166l246 133q117 66 117 93q0 26 -65.5 116t-65.5 144
q0 168 307 343t600 175q121 0 202 -52.5t81 -129.5zM2236 2287q-27 21 -83 21q-122 0 -196 -63q-45 -37 -70 -62l-100 12q45 41 70 62q42 37 78 57q90 52 192 52q80 0 133 -39t53 -103q0 -39 -25 -82.5t-61 -66.5q-46 -30 -139 -56q-119 -34 -144 -43q-82 -31 -120 -61
t-38 -69q0 -25 -29 -18q7 -2 -8 -11.5l-15 -9.5q0 33 -1 61q-2 19 4 38q14 43 75 83q50 33 118 53l246 70q28 9 56 38q32 33 32 69q0 46 -28 68zM1555 1901q24 0 46 -15q23 -15 59 -64q44 -54 62 -73l61 -50.5t28 -38.5q16 -19 -29 -19q-40 0 -126 76q-63 58 -110 128
q-23 -10 -53 -31q-82 -50 -169 -130q-37 -34 -42 -40q-22 -13 -48 -13q-6 0 41 -11q-53 36 -50 49q7 36 138 129q83 59 103 69q54 33 89 34z" />
    <glyph glyph-name="uni1EC4" unicode="&#x1ec4;" horiz-adv-x="1605" 
d="M1729 1348q0 -115 -164 -227.5t-338 -112.5q-141 0 -141 92q0 61 65 69q56 7 56 -20q0 -4 -4.5 -26.5t-2.5 -30.5q7 -35 82 -35q135 0 252 83t117 171q0 69 -79 116.5t-204 47.5q-237 0 -486 -145.5t-249 -287.5q0 -65 65.5 -149t65.5 -111q0 -61 -170 -145
q-266 -131 -315 -166q-127 -86 -164 -123q-76 -80 -76 -188q0 -121 91 -195t235 -74q225 0 428 70q211 74 459 240q8 -4 16 -27q-258 -188 -483.5 -270t-477.5 -82q-170 0 -265 74.5t-95 207.5q0 150 111 256q63 62 249 166l246 133q117 66 117 93q0 26 -65.5 116t-65.5 144
q0 168 307 343t600 175q121 0 202 -52.5t81 -129.5zM2122 2048q-30 -70 -110.5 -119t-164.5 -49q-109 0 -174 110q-26 46 -65 46q-65 0 -137.5 -39.5t-111.5 -90.5q-16 -14 -34 -14q-30 0 -20 26q23 55 122 116q108 66 196 66q71 0 119 -78q26 -41 42 -56q30 -25 77 -25
q130 0 194 121q14 27 43 23q41 0 24 -37zM1555 1901q24 0 46 -15q23 -15 59 -64q44 -54 62 -73l61 -50.5t28 -38.5q16 -19 -29 -19q-40 0 -126 76q-63 58 -110 128q-23 -10 -53 -31q-82 -50 -169 -130q-37 -34 -42 -40q-22 -13 -48 -13q-6 0 41 -11q-53 36 -50 49
q7 36 138 129q83 59 103 69q54 33 89 34z" />
    <glyph glyph-name="uni1EC6" unicode="&#x1ec6;" horiz-adv-x="1605" 
d="M1729 1348q0 -115 -164 -227.5t-338 -112.5q-142 0 -142 92q0 61 66 69q55 7 55 -20q0 -4 -4 -26.5t-2 -30.5q6 -35 82 -35q135 0 252 83t117 171q0 69 -79 116.5t-204 47.5q-238 0 -486.5 -145.5t-248.5 -287.5q0 -65 65.5 -149t65.5 -111q0 -61 -170 -145
q-266 -131 -315 -166q-127 -86 -164 -123q-76 -80 -76 -188q0 -121 91 -195t235 -74q225 0 428 70q211 74 458 240q9 -4 17 -27q-258 -188 -483.5 -270t-477.5 -82q-170 0 -265 74.5t-95 207.5q0 150 110 256q64 62 250 166l246 133q117 66 117 93q0 26 -65.5 116t-65.5 144
q0 168 307 343t600 175q121 0 202 -52.5t81 -129.5zM1555 1901q24 0 46 -15q23 -15 59 -64q43 -54 62 -73l60.5 -50.5t27.5 -38.5q16 -19 -29 -19q-39 0 -125 76q-64 58 -110 128q-23 -10 -54 -31q-81 -50 -168 -130q-37 -34 -42 -40q-22 -13 -49 -13q-6 0 42 -11
q-53 36 -50 49q7 36 138 129q83 59 103 69q54 33 89 34zM87 -315q0 -59 -90 -59q-85 0 -85 59q0 61 88 61q34 0 60.5 -17.5t26.5 -43.5z" />
    <glyph glyph-name="Igrave" unicode="&#xcc;" horiz-adv-x="1679" 
d="M2028 1407q0 -211 -172 -512q-262 -457 -630 -713t-769 -256q-205 0 -335 108.5t-130 274.5q0 217 211 375q199 147 438 147q297 0 523.5 -80.5t226.5 -187.5q0 -41 -10 -41q-3 0 -103 56q-119 67 -237 106q-177 55 -365 55q-254 0 -437.5 -102t-183.5 -250
q0 -166 143.5 -274.5t364.5 -108.5q342 0 673 234.5t564 648.5q156 274 156 520q0 82 -71.5 131t-190.5 49q-92 0 -135 -6q123 84 227 84q119 0 186 -86q56 -74 56 -172zM2072 1702q-20 0 -29 7q-169 140 -241 224q-117 134 -117 259q47 -20 89 -79q0 -93 311 -380
q32 -31 -13 -31z" />
    <glyph glyph-name="Iacute" unicode="&#xcd;" horiz-adv-x="1679" 
d="M2028 1407q0 -211 -172 -512q-262 -457 -630 -713t-769 -256q-205 0 -335 108.5t-130 274.5q0 217 211 375q199 147 438 147q297 0 523.5 -80.5t226.5 -187.5q0 -41 -10 -41q-3 0 -103 56q-119 67 -237 106q-177 55 -365 55q-254 0 -437.5 -102t-183.5 -250
q0 -166 143.5 -274.5t364.5 -108.5q342 0 673 234.5t564 648.5q156 274 156 520q0 82 -71.5 131t-190.5 49q-92 0 -135 -6q123 84 227 84q119 0 186 -86q56 -74 56 -172zM1890 1733q310 287 310 380q42 59 89 79q0 -125 -117 -259q-72 -84 -241 -224q-9 -7 -29 -7
q-45 0 -12 31z" />
    <glyph glyph-name="uni1EC8" unicode="&#x1ec8;" horiz-adv-x="1679" 
d="M2028 1407q0 -211 -172 -512q-262 -457 -630 -713t-769 -256q-205 0 -335 108.5t-130 274.5q0 217 211 375q199 147 438 147q297 0 523.5 -80.5t226.5 -187.5q0 -41 -10 -41q-3 0 -103 56q-119 67 -237 106q-177 55 -365 55q-254 0 -437.5 -102t-183.5 -250
q0 -166 143.5 -274.5t364.5 -108.5q342 0 673 234.5t564 648.5q156 274 156 520q0 82 -71.5 131t-190.5 49q-92 0 -135 -6q123 84 227 84q119 0 186 -86q56 -74 56 -172zM2456 2205q-28 21 -84 21q-121 0 -195 -63q-46 -37 -71 -62l-99 12q45 41 70 62q42 37 77 57
q91 52 192 52q80 0 133 -39t53 -103q0 -39 -24.5 -82.5t-61.5 -66.5q-46 -30 -138 -56q-120 -34 -145 -43q-82 -31 -119 -61q-38 -30 -38 -69q0 -25 -30 -18q7 -2 -7.5 -11.5l-14.5 -9.5q0 33 -2 61q-1 19 5 38q14 43 74 83q51 33 118 53l246 70q28 9 56 38q33 33 33 69
q0 46 -28 68z" />
    <glyph glyph-name="Itilde" unicode="&#x128;" horiz-adv-x="1679" 
d="M2028 1407q0 -211 -172 -512q-262 -457 -630 -713t-769 -256q-205 0 -335 108.5t-130 274.5q0 217 211 375q199 147 438 147q297 0 523.5 -80.5t226.5 -187.5q0 -41 -10 -41q-3 0 -103 56q-119 67 -237 106q-177 55 -365 55q-254 0 -437.5 -102t-183.5 -250
q0 -166 143.5 -274.5t364.5 -108.5q342 0 673 234.5t564 648.5q156 274 156 520q0 82 -71.5 131t-190.5 49q-92 0 -135 -6q123 84 227 84q119 0 186 -86q56 -74 56 -172zM2447 1924q-30 -70 -110.5 -119t-165.5 -49q-109 0 -173 110q-27 46 -65 46q-65 0 -137.5 -39.5
t-112.5 -90.5q-16 -14 -34 -14q-29 0 -19 26q23 55 122 116q108 66 196 66q70 0 118 -78q27 -41 42 -56q30 -25 78 -25q129 0 194 121q13 27 43 23q40 0 24 -37z" />
    <glyph glyph-name="uni1ECA" unicode="&#x1eca;" horiz-adv-x="1679" 
d="M2028 1407q0 -211 -172 -512q-262 -457 -630 -713t-769 -256q-205 0 -335 108.5t-130 274.5q0 217 211 375q199 147 438 147q297 0 523.5 -80.5t226.5 -187.5q0 -41 -10 -41q-3 0 -103 56q-119 67 -237 106q-177 55 -365 55q-254 0 -437.5 -102t-183.5 -250
q0 -166 143.5 -274.5t364.5 -108.5q342 0 673 234.5t564 648.5q156 274 156 520q0 82 -71.5 131t-190.5 49q-92 0 -135 -6q123 84 227 84q119 0 186 -86q56 -74 56 -172zM653 -315q0 -59 -90 -59q-85 0 -85 59q0 61 87 61q35 0 61.5 -17.5t26.5 -43.5z" />
    <glyph glyph-name="Ograve" unicode="&#xd2;" horiz-adv-x="1728" 
d="M1927 1114q0 -254 -224 -534q-212 -267 -534 -445q-336 -186 -641 -186q-201 0 -334 128t-133 322q0 297 182 553q156 217 404 363q223 129 405 137v-25q-90 11 -297 -102q-243 -131 -401 -321q-201 -242 -201 -519q0 -202 128 -327t339 -125q264 0 551 160
q281 153 463 389q192 249 192 489q0 154 -124.5 264.5t-299.5 110.5q-165 0 -395 -137q-241 -144 -393 -346q-16 -13 -37 -5q277 359 537 474q127 55 161 67q78 25 179 25q229 0 351 -104.5t122 -305.5zM1198 1654q-19 0 -28 7q-169 140 -241 224q-117 134 -117 259
q47 -20 89 -79q0 -93 310 -380q33 -31 -13 -31z" />
    <glyph glyph-name="Oacute" unicode="&#xd3;" horiz-adv-x="1728" 
d="M1927 1114q0 -254 -224 -534q-212 -267 -534 -445q-336 -186 -641 -186q-201 0 -334 128t-133 322q0 297 182 553q156 217 404 363q223 129 405 137v-25q-90 11 -297 -102q-243 -131 -401 -321q-201 -242 -201 -519q0 -202 128 -327t339 -125q264 0 551 160
q281 153 463 389q192 249 192 489q0 154 -124.5 264.5t-299.5 110.5q-165 0 -395 -137q-241 -144 -393 -346q-16 -13 -37 -5q277 359 537 474q127 55 161 67q78 25 179 25q229 0 351 -104.5t122 -305.5zM1132 1685q311 287 311 380q42 59 89 79q0 -125 -117 -259
q-72 -84 -241 -224q-9 -7 -29 -7q-45 0 -13 31z" />
    <glyph glyph-name="uni1ECE" unicode="&#x1ece;" horiz-adv-x="1728" 
d="M1927 1114q0 -254 -224 -534q-212 -267 -534 -445q-336 -186 -641 -186q-201 0 -334 128t-133 322q0 297 182 553q156 217 404 363q223 129 405 137v-25q-90 11 -297 -102q-243 -131 -401 -321q-201 -242 -201 -519q0 -202 128 -327t339 -125q264 0 551 160
q281 153 463 389q192 249 192 489q0 154 -124.5 264.5t-299.5 110.5q-165 0 -395 -137q-241 -144 -393 -346q-16 -13 -37 -5q277 359 537 474q127 55 161 67q78 25 179 25q229 0 351 -104.5t122 -305.5zM1986 2090q-28 21 -84 21q-121 0 -196 -63q-45 -37 -70 -62l-99 12
q45 41 70 62q41 37 77 57q90 52 192 52q80 0 133 -39t53 -103q0 -39 -24.5 -82.5t-61.5 -66.5q-46 -30 -139 -56q-119 -34 -144 -43q-82 -31 -119 -61q-38 -30 -38 -69q0 -25 -30 -18q7 -2 -7.5 -11.5l-14.5 -9.5q0 33 -2 61q-1 19 5 38q14 43 74 83q51 33 118 53l246 70
q28 9 56 38q33 33 33 69q0 46 -28 68z" />
    <glyph glyph-name="Otilde" unicode="&#xd5;" horiz-adv-x="1728" 
d="M1927 1114q0 -254 -224 -534q-212 -267 -534 -445q-336 -186 -641 -186q-201 0 -334 128t-133 322q0 297 182 553q156 217 404 363q223 129 405 137v-25q-90 11 -297 -102q-243 -131 -401 -321q-201 -242 -201 -519q0 -202 128 -327t339 -125q264 0 551 160
q281 153 463 389q192 249 192 489q0 154 -124.5 264.5t-299.5 110.5q-165 0 -395 -137q-241 -144 -393 -346q-16 -13 -37 -5q277 359 537 474q127 55 161 67q78 25 179 25q229 0 351 -104.5t122 -305.5zM2016 1790q-31 -70 -111.5 -119t-164.5 -49q-109 0 -173 110
q-27 46 -65 46q-65 0 -138 -39.5t-112 -90.5q-16 -14 -34 -14q-30 0 -19 26q23 55 122 116q107 66 195 66q71 0 119 -78q27 -41 42 -56q30 -25 78 -25q129 0 194 121q13 27 43 23q40 0 24 -37z" />
    <glyph glyph-name="uni1ECC" unicode="&#x1ecc;" horiz-adv-x="1728" 
d="M1927 1114q0 -254 -224 -534q-212 -267 -534 -445q-336 -186 -641 -186q-201 0 -334 128t-133 322q0 297 182 553q156 217 404 363q223 129 405 137v-25q-90 11 -297 -102q-243 -131 -401 -321q-201 -242 -201 -519q0 -202 128 -327t339 -125q264 0 551 160
q281 153 463 389q192 249 192 489q0 154 -124.5 264.5t-299.5 110.5q-165 0 -395 -137q-241 -144 -393 -346q-16 -13 -37 -5q277 359 537 474q127 55 161 67q78 25 179 25q229 0 351 -104.5t122 -305.5zM653 -315q0 -59 -90 -59q-85 0 -85 59q0 61 87 61q34 0 61 -17.5
t27 -43.5z" />
    <glyph glyph-name="Ocircumflex" unicode="&#xd4;" horiz-adv-x="1728" 
d="M1927 1114q0 -254 -224 -534q-212 -267 -534 -445q-336 -186 -641 -186q-201 0 -334 128t-133 322q0 297 182 553q156 217 404 363q223 129 405 137v-25q-90 11 -297 -102q-243 -131 -401 -321q-201 -242 -201 -519q0 -202 128 -327t339 -125q264 0 551 160
q281 153 463 389q192 249 192 489q0 154 -124.5 264.5t-299.5 110.5q-165 0 -395 -137q-241 -144 -393 -346q-16 -13 -37 -5q277 359 537 474q127 55 161 67q78 25 179 25q229 0 351 -104.5t122 -305.5zM1554 1901q25 0 46 -15q24 -15 60 -64q43 -54 62 -73l60 -50.5
t28 -38.5q16 -19 -29 -19q-39 0 -125 76q-64 58 -110 128q-23 -10 -54 -31q-82 -50 -169 -130q-36 -34 -41 -40q-23 -13 -49 -13q-6 0 42 -11q-53 36 -50 49q7 36 138 129q82 59 103 69q54 33 88 34z" />
    <glyph glyph-name="uni1ED2" unicode="&#x1ed2;" horiz-adv-x="1728" 
d="M1927 1114q0 -254 -224 -534q-212 -267 -534 -445q-336 -186 -641 -186q-201 0 -334 128t-133 322q0 297 182 553q156 217 404 363q223 129 405 137v-25q-90 11 -297 -102q-243 -131 -401 -321q-201 -242 -201 -519q0 -202 128 -327t339 -125q264 0 551 160
q281 153 463 389q192 249 192 489q0 154 -124.5 264.5t-299.5 110.5q-165 0 -395 -137q-241 -144 -393 -346q-16 -13 -37 -5q277 359 537 474q127 55 161 67q78 25 179 25q229 0 351 -104.5t122 -305.5zM1554 1901q25 0 46 -15q24 -15 60 -64q43 -54 62 -73l60 -50.5
t28 -38.5q16 -19 -29 -19q-39 0 -125 76q-64 58 -110 128q-23 -10 -54 -31q-82 -50 -169 -130q-36 -34 -41 -40q-23 -13 -49 -13q-6 0 42 -11q-53 36 -50 49q7 36 138 129q82 59 103 69q54 33 88 34zM1794 1807q-20 0 -29 7q-169 140 -241 224q-117 134 -117 259
q47 -20 90 -79q0 -93 310 -380q32 -31 -13 -31z" />
    <glyph glyph-name="uni1ED0" unicode="&#x1ed0;" horiz-adv-x="1728" 
d="M1927 1114q0 -254 -224 -534q-212 -267 -534 -445q-336 -186 -641 -186q-201 0 -334 128t-133 322q0 297 182 553q156 217 404 363q223 129 405 137v-25q-90 11 -297 -102q-243 -131 -401 -321q-201 -242 -201 -519q0 -202 128 -327t339 -125q264 0 551 160
q281 153 463 389q192 249 192 489q0 154 -124.5 264.5t-299.5 110.5q-165 0 -395 -137q-241 -144 -393 -346q-16 -13 -37 -5q277 359 537 474q127 55 161 67q78 25 179 25q229 0 351 -104.5t122 -305.5zM1554 1901q25 0 46 -15q24 -15 60 -64q43 -54 62 -73l60 -50.5
t28 -38.5q16 -19 -29 -19q-39 0 -125 76q-64 58 -110 128q-23 -10 -54 -31q-82 -50 -169 -130q-36 -34 -41 -40q-23 -13 -49 -13q-6 0 42 -11q-53 36 -50 49q7 36 138 129q82 59 103 69q54 33 88 34zM1759 1838q310 287 310 380q42 59 89 79q0 -125 -117 -259
q-72 -84 -241 -224q-9 -7 -28 -7q-46 0 -13 31z" />
    <glyph glyph-name="uni1ED4" unicode="&#x1ed4;" horiz-adv-x="1728" 
d="M1927 1114q0 -254 -224 -534q-212 -267 -534 -445q-336 -186 -641 -186q-201 0 -334 128t-133 322q0 297 182 553q156 217 404 363q223 129 405 137v-25q-90 11 -297 -102q-243 -131 -401 -321q-201 -242 -201 -519q0 -202 128 -327t339 -125q264 0 551 160
q281 153 463 389q192 249 192 489q0 154 -124.5 264.5t-299.5 110.5q-165 0 -395 -137q-241 -144 -393 -346q-16 -13 -37 -5q277 359 537 474q127 55 161 67q78 25 179 25q229 0 351 -104.5t122 -305.5zM1554 1901q25 0 46 -15q24 -15 60 -64q43 -54 62 -73l60 -50.5
t28 -38.5q16 -19 -29 -19q-39 0 -125 76q-64 58 -110 128q-23 -10 -54 -31q-82 -50 -169 -130q-36 -34 -41 -40q-23 -13 -49 -13q-6 0 42 -11q-53 36 -50 49q7 36 138 129q82 59 103 69q54 33 88 34zM2236 2287q-28 21 -84 21q-121 0 -195 -63q-46 -37 -71 -62l-99 12
q45 41 70 62q42 37 77 57q91 52 192 52q80 0 133 -39t53 -103q0 -39 -24.5 -82.5t-61.5 -66.5q-46 -30 -138 -56q-120 -34 -145 -43q-82 -31 -119 -61q-38 -30 -38 -69q0 -25 -30 -18q8 -2 -7 -11.5l-15 -9.5q0 33 -2 61q-1 19 5 38q14 43 74 83q51 33 118 53l246 70
q28 9 56 38q33 33 33 69q0 46 -28 68z" />
    <glyph glyph-name="uni1ED6" unicode="&#x1ed6;" horiz-adv-x="1728" 
d="M1927 1114q0 -254 -224 -534q-212 -267 -534 -445q-336 -186 -641 -186q-201 0 -334 128t-133 322q0 297 182 553q156 217 404 363q223 129 405 137v-25q-90 11 -297 -102q-243 -131 -401 -321q-201 -242 -201 -519q0 -202 128 -327t339 -125q264 0 551 160
q281 153 463 389q192 249 192 489q0 154 -124.5 264.5t-299.5 110.5q-165 0 -395 -137q-241 -144 -393 -346q-16 -13 -37 -5q277 359 537 474q127 55 161 67q78 25 179 25q229 0 351 -104.5t122 -305.5zM1554 1901q25 0 46 -15q24 -15 60 -64q43 -54 62 -73l60 -50.5
t28 -38.5q16 -19 -29 -19q-39 0 -125 76q-64 58 -110 128q-23 -10 -54 -31q-82 -50 -169 -130q-36 -34 -41 -40q-23 -13 -49 -13q-6 0 42 -11q-53 36 -50 49q7 36 138 129q82 59 103 69q54 33 88 34zM2122 2048q-30 -70 -110.5 -119t-165.5 -49q-109 0 -173 110
q-27 46 -65 46q-65 0 -137.5 -39.5t-112.5 -90.5q-16 -14 -34 -14q-29 0 -19 26q23 55 122 116q108 66 196 66q70 0 118 -78q27 -41 42 -56q30 -25 78 -25q129 0 194 121q14 27 43 23q41 0 24 -37z" />
    <glyph glyph-name="uni1ED8" unicode="&#x1ed8;" horiz-adv-x="1728" 
d="M1927 1114q0 -254 -224 -534q-212 -267 -534 -445q-336 -186 -641 -186q-201 0 -334 128t-133 322q0 297 182 553q156 217 404 363q223 129 405 137v-25q-90 11 -297 -102q-243 -131 -401 -321q-201 -242 -201 -519q0 -202 128 -327t339 -125q264 0 551 160
q281 153 463 389q192 249 192 489q0 154 -124.5 264.5t-299.5 110.5q-165 0 -395 -137q-241 -144 -393 -346q-16 -13 -37 -5q277 359 537 474q127 55 161 67q78 25 179 25q229 0 351 -104.5t122 -305.5zM1554 1901q25 0 46 -15q24 -15 60 -64q43 -54 62 -73l60 -50.5
t28 -38.5q16 -19 -29 -19q-39 0 -125 76q-64 58 -110 128q-23 -10 -54 -31q-82 -50 -169 -130q-36 -34 -41 -40q-23 -13 -49 -13q-6 0 42 -11q-53 36 -50 49q7 36 138 129q82 59 103 69q54 33 88 34zM652 -315q0 -59 -89 -59q-86 0 -86 59q0 61 88 61q34 0 60.5 -17.5
t26.5 -43.5z" />
    <glyph glyph-name="Ugrave" unicode="&#xd9;" horiz-adv-x="2252" 
d="M2633 1282q0 -14 -403.5 -581.5t-403.5 -639.5q0 -43 29 -43q8 0 20.5 4.5t22.5 4.5q-55 -72 -107 -72q-18 0 -36.5 15.5t-18.5 33.5q0 72 182 354q207 322 213 336l-469 -450q-303 -275 -456 -275q-60 0 -99 53.5t-39 120.5q0 74 125 447t125 530q0 209 -129 320.5
t-372 111.5q-121 0 -246 -59q-82 -39 -172 -111q-78 -59 -82 -59q-35 0 -35 14q0 15 156 123q243 170 471 170q233 0 374.5 -128t141.5 -339q0 -114 -127 -527t-127 -470q0 -45 30.5 -82t67.5 -37q127 0 617 469q432 412 524 545q115 164 139 196q45 58 66 58q16 0 18 -4
v-29zM2033 1539q-20 0 -29 7q-169 140 -241 224q-117 134 -117 259q47 -20 90 -79q0 -93 310 -380q33 -31 -13 -31z" />
    <glyph glyph-name="Uacute" unicode="&#xda;" horiz-adv-x="2252" 
d="M2633 1282q0 -14 -403.5 -581.5t-403.5 -639.5q0 -43 29 -43q8 0 20.5 4.5t22.5 4.5q-55 -72 -107 -72q-18 0 -36.5 15.5t-18.5 33.5q0 72 182 354q207 322 213 336l-469 -450q-303 -275 -456 -275q-60 0 -99 53.5t-39 120.5q0 74 125 447t125 530q0 209 -129 320.5
t-372 111.5q-121 0 -246 -59q-82 -39 -172 -111q-78 -59 -82 -59q-35 0 -35 14q0 15 156 123q243 170 471 170q233 0 374.5 -128t141.5 -339q0 -114 -127 -527t-127 -470q0 -45 30.5 -82t67.5 -37q127 0 617 469q432 412 524 545q115 164 139 196q45 58 66 58q16 0 18 -4
v-29zM1948 1570q310 287 310 380q42 59 90 79q0 -125 -118 -259q-72 -84 -241 -224q-9 -7 -28 -7q-46 0 -13 31z" />
    <glyph glyph-name="uni1EE6" unicode="&#x1ee6;" horiz-adv-x="2252" 
d="M2633 1282q0 -14 -403.5 -581.5t-403.5 -639.5q0 -43 29 -43q8 0 20.5 4.5t22.5 4.5q-55 -72 -107 -72q-18 0 -36.5 15.5t-18.5 33.5q0 72 182 354q207 322 213 336l-469 -450q-303 -275 -456 -275q-60 0 -99 53.5t-39 120.5q0 74 125 447t125 530q0 209 -129 320.5
t-372 111.5q-121 0 -246 -59q-82 -39 -172 -111q-78 -59 -82 -59q-35 0 -35 14q0 15 156 123q243 170 471 170q233 0 374.5 -128t141.5 -339q0 -114 -127 -527t-127 -470q0 -45 30.5 -82t67.5 -37q127 0 617 469q432 412 524 545q115 164 139 196q45 58 66 58q16 0 18 -4
v-29zM2484 1927q-28 21 -84 21q-121 0 -195 -63q-45 -37 -71 -62l-99 12q45 41 70 62q42 37 77 57q91 52 192 52q80 0 133 -39t53 -103q0 -39 -24.5 -82.5t-60.5 -66.5q-47 -30 -139 -56q-120 -34 -145 -43q-82 -31 -119 -61q-38 -30 -38 -69q0 -25 -30 -18q8 -2 -7 -11.5
l-15 -9.5q0 33 -2 61q-1 19 5 38q14 43 74 83q51 33 118 53l246 70q28 9 56 38q33 33 33 69q0 46 -28 68z" />
    <glyph glyph-name="Utilde" unicode="&#x168;" horiz-adv-x="2252" 
d="M2633 1282q0 -14 -403.5 -581.5t-403.5 -639.5q0 -43 29 -43q8 0 20.5 4.5t22.5 4.5q-55 -72 -107 -72q-18 0 -36.5 15.5t-18.5 33.5q0 72 182 354q207 322 213 336l-469 -450q-303 -275 -456 -275q-60 0 -99 53.5t-39 120.5q0 74 125 447t125 530q0 209 -129 320.5
t-372 111.5q-121 0 -246 -59q-82 -39 -172 -111q-78 -59 -82 -59q-35 0 -35 14q0 15 156 123q243 170 471 170q233 0 374.5 -128t141.5 -339q0 -114 -127 -527t-127 -470q0 -45 30.5 -82t67.5 -37q127 0 617 469q432 412 524 545q115 164 139 196q45 58 66 58q16 0 18 -4
v-29zM2475 1771q-30 -70 -110.5 -119t-165.5 -49q-108 0 -173 110q-26 46 -65 46q-65 0 -137.5 -39.5t-112.5 -90.5q-16 -14 -34 -14q-29 0 -19 26q23 55 122 116q108 66 196 66q70 0 118 -78q27 -41 42 -56q30 -25 78 -25q129 0 194 121q14 27 43 23q41 0 24 -37z" />
    <glyph glyph-name="uni1EE4" unicode="&#x1ee4;" horiz-adv-x="2252" 
d="M2633 1282q0 -14 -403.5 -581.5t-403.5 -639.5q0 -43 29 -43q8 0 20.5 4.5t22.5 4.5q-55 -72 -107 -72q-18 0 -36.5 15.5t-18.5 33.5q0 72 182 354q207 322 213 336l-469 -450q-303 -275 -456 -275q-60 0 -99 53.5t-39 120.5q0 74 125 447t125 530q0 209 -129 320.5
t-372 111.5q-121 0 -246 -59q-82 -39 -172 -111q-78 -59 -82 -59q-35 0 -35 14q0 15 156 123q243 170 471 170q233 0 374.5 -128t141.5 -339q0 -114 -127 -527t-127 -470q0 -45 30.5 -82t67.5 -37q127 0 617 469q432 412 524 545q115 164 139 196q45 58 66 58q16 0 18 -4
v-29zM1497 -315q0 -59 -90 -59q-85 0 -85 59q0 61 88 61q34 0 60.5 -17.5t26.5 -43.5z" />
    <glyph glyph-name="Uhorn" unicode="&#x1af;" horiz-adv-x="2252" 
d="M2633 1282q0 -14 -403.5 -581.5t-403.5 -639.5q0 -43 29 -43q8 0 20.5 4.5t22.5 4.5q-55 -72 -107 -72q-18 0 -36.5 15.5t-18.5 33.5q0 72 182 354q207 322 213 336l-469 -450q-303 -275 -456 -275q-60 0 -99 53.5t-39 120.5q0 74 125 447t125 530q0 209 -129 320.5
t-372 111.5q-121 0 -246 -59q-82 -39 -172 -111q-78 -59 -82 -59q-35 0 -35 14q0 15 156 123q243 170 471 170q233 0 374.5 -128t141.5 -339q0 -114 -127 -527t-127 -470q0 -45 30.5 -82t67.5 -37q127 0 617 469q432 412 524 545q115 164 139 196q45 58 66 58q16 0 18 -4
v-29zM2842 1406q-6 -49 -29 -77q-4 -4 -95 -100q-99 -77 -129 -71q-14 2 -10 36q2 17 34 37q42 27 55 42q22 29 75 154q15 37 55 29q49 -8 44 -50z" />
    <glyph glyph-name="uni1EEA" unicode="&#x1eea;" horiz-adv-x="2252" 
d="M2633 1282q0 -14 -403.5 -581.5t-403.5 -639.5q0 -43 29 -43q8 0 20.5 4.5t22.5 4.5q-55 -72 -107 -72q-18 0 -36.5 15.5t-18.5 33.5q0 72 182 354q207 322 213 336l-469 -450q-303 -275 -456 -275q-60 0 -99 53.5t-39 120.5q0 74 125 447t125 530q0 209 -129 320.5
t-372 111.5q-121 0 -246 -59q-82 -39 -172 -111q-78 -59 -82 -59q-35 0 -35 14q0 15 156 123q243 170 471 170q233 0 374.5 -128t141.5 -339q0 -114 -127 -527t-127 -470q0 -45 30.5 -82t67.5 -37q127 0 617 469q432 412 524 545q115 164 139 196q45 58 66 58q16 0 18 -4
v-29zM2033 1539q-20 0 -29 7q-169 140 -241 224q-117 134 -117 259q47 -20 90 -79q0 -93 310 -380q33 -31 -13 -31zM2842 1406q-6 -49 -29 -77q-4 -4 -95 -100q-99 -77 -129 -71q-14 2 -10 36q2 17 34 37q42 27 55 42q22 29 75 154q15 37 55 29q49 -8 44 -50z" />
    <glyph glyph-name="uni1EE8" unicode="&#x1ee8;" horiz-adv-x="2252" 
d="M2633 1282q0 -14 -403.5 -581.5t-403.5 -639.5q0 -43 29 -43q8 0 20.5 4.5t22.5 4.5q-55 -72 -107 -72q-18 0 -36.5 15.5t-18.5 33.5q0 72 182 354q207 322 213 336l-469 -450q-303 -275 -456 -275q-60 0 -99 53.5t-39 120.5q0 74 125 447t125 530q0 209 -129 320.5
t-372 111.5q-121 0 -246 -59q-82 -39 -172 -111q-78 -59 -82 -59q-35 0 -35 14q0 15 156 123q243 170 471 170q233 0 374.5 -128t141.5 -339q0 -114 -127 -527t-127 -470q0 -45 30.5 -82t67.5 -37q127 0 617 469q432 412 524 545q115 164 139 196q45 58 66 58q16 0 18 -4
v-29zM1948 1570q310 287 310 380q42 59 90 79q0 -125 -118 -259q-72 -84 -241 -224q-9 -7 -28 -7q-46 0 -13 31zM2842 1406q-6 -49 -29 -77q-4 -4 -95 -100q-99 -77 -129 -71q-14 2 -10 36q2 17 34 37q42 27 55 42q22 29 75 154q15 37 55 29q49 -8 44 -50z" />
    <glyph glyph-name="uni1EEC" unicode="&#x1eec;" horiz-adv-x="2252" 
d="M2633 1282q0 -14 -403.5 -581.5t-403.5 -639.5q0 -43 29 -43q8 0 20.5 4.5t22.5 4.5q-55 -72 -107 -72q-18 0 -36.5 15.5t-18.5 33.5q0 72 182 354q207 322 213 336l-469 -450q-303 -275 -456 -275q-60 0 -99 53.5t-39 120.5q0 74 125 447t125 530q0 209 -129 320.5
t-372 111.5q-121 0 -246 -59q-82 -39 -172 -111q-78 -59 -82 -59q-35 0 -35 14q0 15 156 123q243 170 471 170q233 0 374.5 -128t141.5 -339q0 -114 -127 -527t-127 -470q0 -45 30.5 -82t67.5 -37q127 0 617 469q432 412 524 545q115 164 139 196q45 58 66 58q16 0 18 -4
v-29zM2484 1927q-28 21 -84 21q-121 0 -195 -63q-45 -37 -71 -62l-99 12q45 41 70 62q42 37 77 57q91 52 192 52q80 0 133 -39t53 -103q0 -39 -24.5 -82.5t-60.5 -66.5q-47 -30 -139 -56q-120 -34 -145 -43q-82 -31 -119 -61q-38 -30 -38 -69q0 -25 -30 -18q8 -2 -7 -11.5
l-15 -9.5q0 33 -2 61q-1 19 5 38q14 43 74 83q51 33 118 53l246 70q28 9 56 38q33 33 33 69q0 46 -28 68zM2842 1406q-6 -49 -29 -77q-4 -4 -95 -100q-99 -77 -129 -71q-14 2 -10 36q2 17 34 37q42 27 55 42q22 29 75 154q15 37 55 29q49 -8 44 -50z" />
    <glyph glyph-name="uni1EEE" unicode="&#x1eee;" horiz-adv-x="2252" 
d="M2633 1282q0 -14 -403.5 -581.5t-403.5 -639.5q0 -43 29 -43q8 0 20.5 4.5t22.5 4.5q-55 -72 -107 -72q-18 0 -36.5 15.5t-18.5 33.5q0 72 182 354q207 322 213 336l-469 -450q-303 -275 -456 -275q-60 0 -99 53.5t-39 120.5q0 74 125 447t125 530q0 209 -129 320.5
t-372 111.5q-121 0 -246 -59q-82 -39 -172 -111q-78 -59 -82 -59q-35 0 -35 14q0 15 156 123q243 170 471 170q233 0 374.5 -128t141.5 -339q0 -114 -127 -527t-127 -470q0 -45 30.5 -82t67.5 -37q127 0 617 469q432 412 524 545q115 164 139 196q45 58 66 58q16 0 18 -4
v-29zM2475 1771q-30 -70 -110.5 -119t-165.5 -49q-108 0 -173 110q-26 46 -65 46q-65 0 -137.5 -39.5t-112.5 -90.5q-16 -14 -34 -14q-29 0 -19 26q23 55 122 116q108 66 196 66q70 0 118 -78q27 -41 42 -56q30 -25 78 -25q129 0 194 121q14 27 43 23q41 0 24 -37z
M2842 1406q-6 -49 -29 -77q-4 -4 -95 -100q-99 -77 -129 -71q-14 2 -10 36q2 17 34 37q42 27 55 42q22 29 75 154q15 37 55 29q49 -8 44 -50z" />
    <glyph glyph-name="uni1EF0" unicode="&#x1ef0;" horiz-adv-x="2252" 
d="M2633 1282q0 -14 -403.5 -581.5t-403.5 -639.5q0 -43 29 -43q8 0 20.5 4.5t22.5 4.5q-55 -72 -107 -72q-18 0 -36.5 15.5t-18.5 33.5q0 72 182 354q207 322 213 336l-469 -450q-303 -275 -456 -275q-60 0 -99 53.5t-39 120.5q0 74 125 447t125 530q0 209 -129 320.5
t-372 111.5q-121 0 -246 -59q-82 -39 -172 -111q-78 -59 -82 -59q-35 0 -35 14q0 15 156 123q243 170 471 170q233 0 374.5 -128t141.5 -339q0 -114 -127 -527t-127 -470q0 -45 30.5 -82t67.5 -37q127 0 617 469q432 412 524 545q115 164 139 196q45 58 66 58q16 0 18 -4
v-29zM1497 -315q0 -59 -90 -59q-85 0 -85 59q0 61 88 61q34 0 60.5 -17.5t26.5 -43.5zM2842 1406q-6 -49 -29 -77q-4 -4 -95 -100q-99 -77 -129 -71q-14 2 -10 36q2 17 34 37q42 27 55 42q22 29 75 154q15 37 55 29q49 -8 44 -50z" />
    <glyph glyph-name="Ohorn" unicode="&#x1a0;" horiz-adv-x="1728" 
d="M1925 1158q2 -21 2 -44q0 -254 -224 -534q-212 -267 -534 -445q-336 -186 -641 -186q-201 0 -334 128t-133 322q0 297 182 553q156 217 404 363q223 129 405 137v-25q-90 11 -297 -102q-243 -131 -401 -321q-201 -242 -201 -519q0 -202 128 -327t339 -125q264 0 551 160
q281 153 463 389q192 249 192 489q0 154 -124.5 264.5t-299.5 110.5q-165 0 -395 -137q-241 -144 -393 -346q-16 -13 -37 -5q277 359 537 474q127 55 161 67q78 25 179 25q229 0 351 -104q93 -80 115 -217q8 13 31 28q43 27 55 42q22 29 75 154q15 37 56 29q48 -8 43 -50
q-6 -49 -28 -77q-5 -4 -96 -100q-98 -77 -129 -71h-2z" />
    <glyph glyph-name="uni1EDC" unicode="&#x1edc;" horiz-adv-x="1728" 
d="M1198 1654q-19 0 -28 7q-169 140 -241 224q-117 134 -117 259q47 -20 89 -79q0 -93 310 -380q33 -31 -13 -31zM1925 1159q2 -22 2 -45q0 -254 -224 -534q-212 -267 -534 -445q-336 -186 -641 -186q-201 0 -334 128t-133 322q0 297 182 553q156 217 404 363
q223 129 405 137v-25q-90 11 -297 -102q-243 -131 -401 -321q-201 -242 -201 -519q0 -202 128 -327t339 -125q264 0 551 160q281 153 463 389q192 249 192 489q0 154 -124.5 264.5t-299.5 110.5q-165 0 -395 -137q-241 -144 -393 -346q-16 -13 -37 -5q277 359 537 474
q127 55 161 67q78 25 179 25q229 0 351 -104q94 -81 115 -218q7 14 31 29q43 27 55 42q23 29 75 154q16 37 56 29q49 -8 43 -50q-6 -49 -28 -77q-5 -4 -95 -100q-99 -77 -129 -71q-1 0 -3 1z" />
    <glyph glyph-name="uni1EDA" unicode="&#x1eda;" horiz-adv-x="1728" 
d="M1132 1685q311 287 311 380q42 59 89 79q0 -125 -117 -259q-72 -84 -241 -224q-9 -7 -29 -7q-45 0 -13 31zM1925 1159q2 -22 2 -45q0 -254 -224 -534q-212 -267 -534 -445q-336 -186 -641 -186q-201 0 -334 128t-133 322q0 297 182 553q156 217 404 363q223 129 405 137
v-25q-90 11 -297 -102q-243 -131 -401 -321q-201 -242 -201 -519q0 -202 128 -327t339 -125q264 0 551 160q281 153 463 389q192 249 192 489q0 154 -124.5 264.5t-299.5 110.5q-165 0 -395 -137q-241 -144 -393 -346q-16 -13 -37 -5q277 359 537 474q127 55 161 67
q78 25 179 25q229 0 351 -104q94 -81 115 -218q7 14 31 29q43 27 55 42q23 29 75 154q16 37 56 29q49 -8 43 -50q-6 -49 -28 -77q-5 -4 -95 -100q-99 -77 -129 -71q-1 0 -3 1z" />
    <glyph glyph-name="uni1EDE" unicode="&#x1ede;" horiz-adv-x="1728" 
d="M1986 2090q-28 21 -84 21q-121 0 -196 -63q-45 -37 -70 -62l-99 12q45 41 70 62q41 37 77 57q90 52 192 52q80 0 133 -39t53 -103q0 -39 -24.5 -82.5t-61.5 -66.5q-46 -30 -139 -56q-119 -34 -144 -43q-82 -31 -119 -61q-38 -30 -38 -69q0 -25 -30 -18q7 -2 -7.5 -11.5
l-14.5 -9.5q0 33 -2 61q-1 19 5 38q14 43 74 83q51 33 118 53l246 70q28 9 56 38q33 33 33 69q0 46 -28 68zM1925 1159q2 -22 2 -45q0 -254 -224 -534q-212 -267 -534 -445q-336 -186 -641 -186q-201 0 -334 128t-133 322q0 297 182 553q156 217 404 363q223 129 405 137
v-25q-90 11 -297 -102q-243 -131 -401 -321q-201 -242 -201 -519q0 -202 128 -327t339 -125q264 0 551 160q281 153 463 389q192 249 192 489q0 154 -124.5 264.5t-299.5 110.5q-165 0 -395 -137q-241 -144 -393 -346q-16 -13 -37 -5q277 359 537 474q127 55 161 67
q78 25 179 25q229 0 351 -104q94 -81 115 -218q7 14 31 29q43 27 55 42q23 29 75 154q16 37 56 29q49 -8 43 -50q-6 -49 -28 -77q-5 -4 -95 -100q-99 -77 -129 -71q-1 0 -3 1z" />
    <glyph glyph-name="uni1EE0" unicode="&#x1ee0;" horiz-adv-x="1728" 
d="M2016 1790q-31 -70 -111.5 -119t-164.5 -49q-109 0 -173 110q-27 46 -65 46q-65 0 -138 -39.5t-112 -90.5q-16 -14 -34 -14q-30 0 -19 26q23 55 122 116q107 66 195 66q71 0 119 -78q27 -41 42 -56q30 -25 78 -25q129 0 194 121q13 27 43 23q40 0 24 -37zM1925 1159
q2 -22 2 -45q0 -254 -224 -534q-212 -267 -534 -445q-336 -186 -641 -186q-201 0 -334 128t-133 322q0 297 182 553q156 217 404 363q223 129 405 137v-25q-90 11 -297 -102q-243 -131 -401 -321q-201 -242 -201 -519q0 -202 128 -327t339 -125q264 0 551 160
q281 153 463 389q192 249 192 489q0 154 -124.5 264.5t-299.5 110.5q-165 0 -395 -137q-241 -144 -393 -346q-16 -13 -37 -5q277 359 537 474q127 55 161 67q78 25 179 25q229 0 351 -104q94 -81 115 -218q7 14 31 29q43 27 55 42q23 29 75 154q16 37 56 29q49 -8 43 -50
q-6 -49 -28 -77q-5 -4 -95 -100q-99 -77 -129 -71q-1 0 -3 1z" />
    <glyph glyph-name="uni1EE2" unicode="&#x1ee2;" horiz-adv-x="1728" 
d="M653 -315q0 -59 -90 -59q-85 0 -85 59q0 61 87 61q34 0 61 -17.5t27 -43.5zM1925 1159q2 -22 2 -45q0 -254 -224 -534q-212 -267 -534 -445q-336 -186 -641 -186q-201 0 -334 128t-133 322q0 297 182 553q156 217 404 363q223 129 405 137v-25q-90 11 -297 -102
q-243 -131 -401 -321q-201 -242 -201 -519q0 -202 128 -327t339 -125q264 0 551 160q281 153 463 389q192 249 192 489q0 154 -124.5 264.5t-299.5 110.5q-165 0 -395 -137q-241 -144 -393 -346q-16 -13 -37 -5q277 359 537 474q127 55 161 67q78 25 179 25q229 0 351 -104
q94 -81 115 -218q7 14 31 29q43 27 55 42q23 29 75 154q16 37 56 29q49 -8 43 -50q-6 -49 -28 -77q-5 -4 -95 -100q-99 -77 -129 -71q-1 0 -3 1z" />
    <glyph glyph-name="Ygrave" unicode="&#x1ef2;" horiz-adv-x="2424" 
d="M2748 1085q0 -14 -35 -49l-43 -41q-745 -901 -1257 -1663q-170 -254 -170 -309q0 -16 23.5 -33.5t23.5 -23.5q0 -47 -37 -47q-18 0 -51 36.5t-33 61.5q0 84 103 240q166 251 221 323l647 834q-446 -351 -448 -351q-179 -129 -279 -129q-123 0 -203 181q-61 137 -102 405
l-60 436q-20 148 -124 267q-115 131 -263 131q-188 0 -442 -113l6 35q70 49 197 100q162 64 270 64q131 0 262 -117q146 -129 189 -322l120 -684q66 -305 207 -305q103 0 394 234q272 221 507 479q19 20 228 260q112 129 129 129q20 0 20 -29zM1915 1357q-19 0 -28 7
q-169 140 -241 224q-117 134 -117 259q47 -20 89 -79q0 -93 310 -380q33 -31 -13 -31z" />
    <glyph glyph-name="Yacute" unicode="&#xdd;" horiz-adv-x="2424" 
d="M2748 1085q0 -14 -35 -49l-43 -41q-745 -901 -1257 -1663q-170 -254 -170 -309q0 -16 23.5 -33.5t23.5 -23.5q0 -47 -37 -47q-18 0 -51 36.5t-33 61.5q0 84 103 240q166 251 221 323l647 834q-446 -351 -448 -351q-179 -129 -279 -129q-123 0 -203 181q-61 137 -102 405
l-60 436q-20 148 -124 267q-115 131 -263 131q-188 0 -442 -113l6 35q70 49 197 100q162 64 270 64q131 0 262 -117q146 -129 189 -322l120 -684q66 -305 207 -305q103 0 394 234q272 221 507 479q19 20 228 260q112 129 129 129q20 0 20 -29zM1810 1388q310 287 310 380
q43 59 90 79q0 -125 -117 -259q-72 -84 -241 -224q-9 -7 -29 -7q-46 0 -13 31z" />
    <glyph glyph-name="uni1EF6" unicode="&#x1ef6;" horiz-adv-x="2424" 
d="M2748 1085q0 -14 -35 -49l-43 -41q-745 -901 -1257 -1663q-170 -254 -170 -309q0 -16 23.5 -33.5t23.5 -23.5q0 -47 -37 -47q-18 0 -51 36.5t-33 61.5q0 84 103 240q166 251 221 323l647 834q-446 -351 -448 -351q-179 -129 -279 -129q-123 0 -203 181q-61 137 -102 405
l-60 436q-20 148 -124 267q-115 131 -263 131q-188 0 -442 -113l6 35q70 49 197 100q162 64 270 64q131 0 262 -117q146 -129 189 -322l120 -684q66 -305 207 -305q103 0 394 234q272 221 507 479q19 20 228 260q112 129 129 129q20 0 20 -29zM2271 1713q-28 21 -84 21
q-121 0 -196 -63q-45 -37 -70 -62l-99 12l69 62q42 37 78 57q90 52 192 52q80 0 133 -39t53 -103q0 -39 -24.5 -82.5t-61.5 -66.5q-46 -30 -139 -56q-119 -34 -144 -43q-82 -31 -120 -61q-37 -30 -37 -69q0 -25 -30 -18q7 -2 -8 -11.5l-15 -9.5q0 33 -1 61q-1 19 4 38
q14 43 75 83q51 33 118 53l246 70q28 9 56 38q33 33 33 69q0 46 -28 68z" />
    <glyph glyph-name="uni1EF8" unicode="&#x1ef8;" horiz-adv-x="2424" 
d="M2748 1085q0 -14 -35 -49l-43 -41q-745 -901 -1257 -1663q-170 -254 -170 -309q0 -16 23.5 -33.5t23.5 -23.5q0 -47 -37 -47q-18 0 -51 36.5t-33 61.5q0 84 103 240q166 251 221 323l647 834q-446 -351 -448 -351q-179 -129 -279 -129q-123 0 -203 181q-61 137 -102 405
l-60 436q-20 148 -124 267q-115 131 -263 131q-188 0 -442 -113l6 35q70 49 197 100q162 64 270 64q131 0 262 -117q146 -129 189 -322l120 -684q66 -305 207 -305q103 0 394 234q272 221 507 479q19 20 228 260q112 129 129 129q20 0 20 -29zM2347 1621
q-31 -70 -111.5 -119t-164.5 -49q-109 0 -173 110q-27 46 -65 46q-65 0 -138 -39.5t-112 -90.5q-16 -14 -34 -14q-30 0 -19 26q23 55 121 116q108 66 196 66q71 0 119 -78q26 -41 42 -56q30 -25 77 -25q130 0 194 121q14 27 44 23q40 0 24 -37z" />
    <glyph glyph-name="uni1EF4" unicode="&#x1ef4;" horiz-adv-x="2424" 
d="M2748 1085q0 -14 -35 -49l-43 -41q-745 -901 -1257 -1663q-170 -254 -170 -309q0 -16 23.5 -33.5t23.5 -23.5q0 -47 -37 -47q-18 0 -51 36.5t-33 61.5q0 84 103 240q166 251 221 323l647 834q-446 -351 -448 -351q-179 -129 -279 -129q-123 0 -203 181q-61 137 -102 405
l-60 436q-20 148 -124 267q-115 131 -263 131q-188 0 -442 -113l6 35q70 49 197 100q162 64 270 64q131 0 262 -117q146 -129 189 -322l120 -684q66 -305 207 -305q103 0 394 234q272 221 507 479q19 20 228 260q112 129 129 129q20 0 20 -29zM2078 -315q0 -59 -90 -59
q-86 0 -86 59q0 61 88 61q34 0 61 -17.5t27 -43.5z" />
    <glyph glyph-name="agrave" unicode="&#xe0;" horiz-adv-x="780" 
d="M865 311q0 -12 -8 -20q-197 -164 -274 -217q-191 -131 -316 -131q-106 0 -106 153q-49 -41 -131 -82q-88 -43 -138 -43q-36 0 -69 17.5t-33 46.5q0 84 154.5 204.5t273.5 120.5q72 0 72 -34q0 -35 -23.5 -55.5t-48.5 -16.5q2 0 -12.5 28.5t-44.5 28.5q-78 0 -173.5 -82
t-95.5 -145q0 -41 29 -41q98 0 215 78q29 20 84 84q41 47 66 43q24 0 24 -21q0 -14 -31.5 -70.5t-31.5 -78.5q0 -72 69 -72q88 0 275 127q47 31 254 186q6 5 12 3q8 -3 8 -11zM498 355q-19 -5 -30 -1q-198 92 -290 156q-147 100 -179 221q51 -8 107 -54q24 -90 396 -289
q40 -22 -4 -33z" />
    <glyph glyph-name="aacute" unicode="&#xe1;" horiz-adv-x="780" 
d="M865 311q0 -12 -8 -20q-197 -164 -274 -217q-191 -131 -316 -131q-106 0 -106 153q-49 -41 -131 -82q-88 -43 -138 -43q-36 0 -69 17.5t-33 46.5q0 84 154.5 204.5t273.5 120.5q72 0 72 -34q0 -35 -23.5 -55.5t-48.5 -16.5q2 0 -12.5 28.5t-44.5 28.5q-78 0 -173.5 -82
t-95.5 -145q0 -41 29 -41q98 0 215 78q29 20 84 84q41 47 66 43q24 0 24 -21q0 -14 -31.5 -70.5t-31.5 -78.5q0 -72 69 -72q88 0 275 127q47 31 254 186q6 5 12 3q8 -3 8 -11zM37 445q373 199 396 289q56 46 107 54q-32 -121 -179 -221q-91 -64 -290 -156q-10 -4 -29 1
q-45 11 -5 33z" />
    <glyph glyph-name="uni1EA3" unicode="&#x1ea3;" horiz-adv-x="780" 
d="M865 311q0 -12 -8 -20q-197 -164 -274 -217q-191 -131 -316 -131q-106 0 -106 153q-49 -41 -131 -82q-88 -43 -138 -43q-36 0 -69 17.5t-33 46.5q0 84 154.5 204.5t273.5 120.5q72 0 72 -34q0 -35 -23.5 -55.5t-48.5 -16.5q2 0 -12.5 28.5t-44.5 28.5q-78 0 -173.5 -82
t-95.5 -145q0 -41 29 -41q98 0 215 78q29 20 84 84q41 47 66 43q24 0 24 -21q0 -14 -31.5 -70.5t-31.5 -78.5q0 -72 69 -72q88 0 275 127q47 31 254 186q6 5 12 3q8 -3 8 -11zM732 783q-24 16 -71 16q-104 0 -167 -49q-38 -29 -60 -48l-84 9l59 49q36 28 66 44q77 40 163 40
q68 0 113.5 -30t45.5 -80q0 -30 -21 -63.5t-52 -52.5q-39 -23 -118 -43q-102 -26 -123 -33q-70 -24 -102 -47q-32 -24 -32 -54q0 -19 -26 -14q7 -1 -6 -8.5l-13 -7.5q0 25 -1 47q-1 15 4 30q12 33 63 64q43 26 101 41l209 55q24 7 48 28q28 27 28 54q0 36 -24 53z" />
    <glyph glyph-name="atilde" unicode="&#xe3;" horiz-adv-x="780" 
d="M865 311q0 -12 -8 -20q-197 -164 -274 -217q-191 -131 -316 -131q-106 0 -106 153q-49 -41 -131 -82q-88 -43 -138 -43q-36 0 -69 17.5t-33 46.5q0 84 154.5 204.5t273.5 120.5q72 0 72 -34q0 -35 -23.5 -55.5t-48.5 -16.5q2 0 -12.5 28.5t-44.5 28.5q-78 0 -173.5 -82
t-95.5 -145q0 -41 29 -41q98 0 215 78q29 20 84 84q41 47 66 43q24 0 24 -21q0 -14 -31.5 -70.5t-31.5 -78.5q0 -72 69 -72q88 0 275 127q47 31 254 186q6 5 12 3q8 -3 8 -11zM669 556q-24 -55 -88 -94t-131 -39q-87 0 -138 88q-21 36 -52 36q-52 0 -109.5 -31.5
t-89.5 -72.5q-12 -10 -27 -10q-23 0 -15 21q18 43 97 92q86 52 156 52q56 0 94 -62q21 -33 33 -44q24 -21 62 -21q103 0 154 96q11 22 35 19q32 0 19 -30z" />
    <glyph glyph-name="uni1EA1" unicode="&#x1ea1;" horiz-adv-x="780" 
d="M865 311q0 -12 -8 -20q-197 -164 -274 -217q-191 -131 -316 -131q-106 0 -106 153q-49 -41 -131 -82q-88 -43 -138 -43q-36 0 -69 17.5t-33 46.5q0 84 154.5 204.5t273.5 120.5q72 0 72 -34q0 -35 -23.5 -55.5t-48.5 -16.5q2 0 -12.5 28.5t-44.5 28.5q-78 0 -173.5 -82
t-95.5 -145q0 -41 29 -41q98 0 215 78q29 20 84 84q41 47 66 43q24 0 24 -21q0 -14 -31.5 -70.5t-31.5 -78.5q0 -72 69 -72q88 0 275 127q47 31 254 186q6 5 12 3q8 -3 8 -11zM69 -199q0 -59 -90 -59q-85 0 -85 59q0 61 87 61q34 0 61 -17.5t27 -43.5z" />
    <glyph glyph-name="acircumflex" unicode="&#xe2;" horiz-adv-x="780" 
d="M865 311q0 -12 -8 -20q-197 -164 -274 -217q-191 -131 -316 -131q-106 0 -106 153q-49 -41 -131 -82q-88 -43 -138 -43q-36 0 -69 17.5t-33 46.5q0 84 154.5 204.5t273.5 120.5q72 0 72 -34q0 -35 -23.5 -55.5t-48.5 -16.5q2 0 -12.5 28.5t-44.5 28.5q-78 0 -173.5 -82
t-95.5 -145q0 -41 29 -41q98 0 215 78q29 20 84 84q41 47 66 43q24 0 24 -21q0 -14 -31.5 -70.5t-31.5 -78.5q0 -72 69 -72q88 0 275 127q47 31 254 186q6 5 12 3q8 -3 8 -11zM274 604q18 0 33 -10q17 -12 43 -47q31 -39 44 -52l44 -36.5t20 -27.5q11 -14 -21 -14
q-28 0 -90 55q-46 41 -79 92q-17 -7 -39 -22q-58 -37 -121 -94q-26 -24 -30 -28q-16 -10 -35 -10q-4 0 30 -8q-38 26 -36 35q5 26 99 93q60 42 74 50q39 23 64 24z" />
    <glyph glyph-name="uni1EA7" unicode="&#x1ea7;" horiz-adv-x="780" 
d="M865 311q0 -12 -8 -20q-197 -164 -274 -217q-191 -131 -316 -131q-106 0 -106 153q-49 -41 -131 -82q-88 -43 -138 -43q-36 0 -69 17.5t-33 46.5q0 84 154.5 204.5t273.5 120.5q72 0 72 -34q0 -35 -23.5 -55.5t-48.5 -16.5q2 0 -12.5 28.5t-44.5 28.5q-78 0 -173.5 -82
t-95.5 -145q0 -41 29 -41q98 0 215 78q29 20 84 84q41 47 66 43q24 0 24 -21q0 -14 -31.5 -70.5t-31.5 -78.5q0 -72 69 -72q88 0 275 127q47 31 254 186q6 5 12 3q8 -3 8 -11zM274 604q18 0 33 -10q17 -12 43 -47q31 -39 44 -52l44 -36.5t20 -27.5q11 -14 -21 -14
q-28 0 -90 55q-46 41 -79 92q-17 -7 -39 -22q-58 -37 -121 -94q-26 -24 -30 -28q-16 -10 -35 -10q-4 0 30 -8q-38 26 -36 35q5 26 99 93q60 42 74 50q39 23 64 24zM565 538q-19 -5 -30 -1q-198 92 -290 156q-147 100 -179 221q51 -8 107 -54q24 -90 396 -289q40 -22 -4 -33z
" />
    <glyph glyph-name="uni1EA5" unicode="&#x1ea5;" horiz-adv-x="780" 
d="M865 311q0 -12 -8 -20q-197 -164 -274 -217q-191 -131 -316 -131q-106 0 -106 153q-49 -41 -131 -82q-88 -43 -138 -43q-36 0 -69 17.5t-33 46.5q0 84 154.5 204.5t273.5 120.5q72 0 72 -34q0 -35 -23.5 -55.5t-48.5 -16.5q2 0 -12.5 28.5t-44.5 28.5q-78 0 -173.5 -82
t-95.5 -145q0 -41 29 -41q98 0 215 78q29 20 84 84q41 47 66 43q24 0 24 -21q0 -14 -31.5 -70.5t-31.5 -78.5q0 -72 69 -72q88 0 275 127q47 31 254 186q6 5 12 3q8 -3 8 -11zM274 604q18 0 33 -10q17 -12 43 -47q31 -39 44 -52l44 -36.5t20 -27.5q11 -14 -21 -14
q-28 0 -90 55q-46 41 -79 92q-17 -7 -39 -22q-58 -37 -121 -94q-26 -24 -30 -28q-16 -10 -35 -10q-4 0 30 -8q-38 26 -36 35q5 26 99 93q60 42 74 50q39 23 64 24zM-21 571q373 199 396 289q56 46 107 54q-32 -121 -179 -221q-91 -64 -290 -156q-10 -4 -29 1q-45 11 -5 33z
" />
    <glyph glyph-name="uni1EA9" unicode="&#x1ea9;" horiz-adv-x="780" 
d="M865 311q0 -12 -8 -20q-197 -164 -274 -217q-191 -131 -316 -131q-106 0 -106 153q-49 -41 -131 -82q-88 -43 -138 -43q-36 0 -69 17.5t-33 46.5q0 84 154.5 204.5t273.5 120.5q72 0 72 -34q0 -35 -23.5 -55.5t-48.5 -16.5q2 0 -12.5 28.5t-44.5 28.5q-78 0 -173.5 -82
t-95.5 -145q0 -41 29 -41q98 0 215 78q29 20 84 84q41 47 66 43q24 0 24 -21q0 -14 -31.5 -70.5t-31.5 -78.5q0 -72 69 -72q88 0 275 127q47 31 254 186q6 5 12 3q8 -3 8 -11zM274 604q18 0 33 -10q17 -12 43 -47q31 -39 44 -52l44 -36.5t20 -27.5q11 -14 -21 -14
q-28 0 -90 55q-46 41 -79 92q-17 -7 -39 -22q-58 -37 -121 -94q-26 -24 -30 -28q-16 -10 -35 -10q-4 0 30 -8q-38 26 -36 35q5 26 99 93q60 42 74 50q39 23 64 24zM847 907q-24 16 -71 16q-104 0 -167 -49q-38 -29 -60 -48l-84 9l59 49q36 28 66 44q77 40 163 40
q68 0 113.5 -30t45.5 -80q0 -30 -21 -63.5t-52 -52.5q-39 -23 -118 -43q-102 -26 -123 -33q-70 -24 -102 -47q-32 -24 -32 -54q0 -19 -26 -14q7 -1 -6 -8.5l-13 -7.5q0 25 -1 47q-1 15 4 30q12 33 63 64q43 26 101 41l209 55q24 7 48 28q28 27 28 54q0 36 -24 53z" />
    <glyph glyph-name="uni1EAB" unicode="&#x1eab;" horiz-adv-x="780" 
d="M865 311q0 -12 -8 -20q-197 -164 -274 -217q-191 -131 -316 -131q-106 0 -106 153q-49 -41 -131 -82q-88 -43 -138 -43q-36 0 -69 17.5t-33 46.5q0 84 154.5 204.5t273.5 120.5q72 0 72 -34q0 -35 -23.5 -55.5t-48.5 -16.5q2 0 -12.5 28.5t-44.5 28.5q-78 0 -173.5 -82
t-95.5 -145q0 -41 29 -41q98 0 215 78q29 20 84 84q41 47 66 43q24 0 24 -21q0 -14 -31.5 -70.5t-31.5 -78.5q0 -72 69 -72q88 0 275 127q47 31 254 186q6 5 12 3q8 -3 8 -11zM274 604q18 0 33 -10q17 -12 43 -47q31 -39 44 -52l44 -36.5t20 -27.5q11 -14 -21 -14
q-28 0 -90 55q-46 41 -79 92q-17 -7 -39 -22q-58 -37 -121 -94q-26 -24 -30 -28q-16 -10 -35 -10q-4 0 30 -8q-38 26 -36 35q5 26 99 93q60 42 74 50q39 23 64 24zM783 707q-24 -55 -88 -94t-131 -39q-87 0 -138 88q-21 36 -52 36q-52 0 -109.5 -31.5t-89.5 -72.5
q-12 -10 -27 -10q-23 0 -15 21q18 43 97 92q86 52 156 52q56 0 94 -62q21 -33 33 -44q24 -21 62 -21q103 0 154 96q11 22 35 19q32 0 19 -30z" />
    <glyph glyph-name="uni1EAD" unicode="&#x1ead;" horiz-adv-x="780" 
d="M865 311q0 -12 -8 -20q-197 -164 -274 -217q-191 -131 -316 -131q-106 0 -106 153q-49 -41 -131 -82q-88 -43 -138 -43q-36 0 -69 17.5t-33 46.5q0 84 154.5 204.5t273.5 120.5q72 0 72 -34q0 -35 -23.5 -55.5t-48.5 -16.5q2 0 -12.5 28.5t-44.5 28.5q-78 0 -173.5 -82
t-95.5 -145q0 -41 29 -41q98 0 215 78q29 20 84 84q41 47 66 43q24 0 24 -21q0 -14 -31.5 -70.5t-31.5 -78.5q0 -72 69 -72q88 0 275 127q47 31 254 186q6 5 12 3q8 -3 8 -11zM274 604q18 0 33 -10q17 -12 43 -47q31 -39 44 -52l44 -36.5t20 -27.5q11 -14 -21 -14
q-28 0 -90 55q-46 41 -79 92q-17 -7 -39 -22q-58 -37 -121 -94q-26 -24 -30 -28q-16 -10 -35 -10q-4 0 30 -8q-38 26 -36 35q5 26 99 93q60 42 74 50q39 23 64 24zM69 -199q0 -59 -90 -59q-85 0 -85 59q0 61 87 61q34 0 61 -17.5t27 -43.5z" />
    <glyph glyph-name="abreve" unicode="&#x103;" horiz-adv-x="780" 
d="M865 311q0 -12 -8 -20q-197 -164 -274 -217q-191 -131 -316 -131q-106 0 -106 153q-49 -41 -131 -82q-88 -43 -138 -43q-36 0 -69 17.5t-33 46.5q0 84 154.5 204.5t273.5 120.5q72 0 72 -34q0 -35 -23.5 -55.5t-48.5 -16.5q2 0 -12.5 28.5t-44.5 28.5q-78 0 -173.5 -82
t-95.5 -145q0 -41 29 -41q98 0 215 78q29 20 84 84q41 47 66 43q24 0 24 -21q0 -14 -31.5 -70.5t-31.5 -78.5q0 -72 69 -72q88 0 275 127q47 31 254 186q6 5 12 3q8 -3 8 -11zM830 605l5 1q-138 -117 -320 -167q-74 -21 -142.5 -12t-101.5 41q-46 46 18 134q6 9 19 20
t28.5 3.5t11.5 -15.5q-49 -69 -14 -103q26 -26 87 -32.5t132 13.5q106 29 211 108l39 31q73 62 79 64q12 1 20 -9q5 -6 -64 -70q-4 -4 -8 -7z" />
    <glyph glyph-name="uni1EB1" unicode="&#x1eb1;" horiz-adv-x="780" 
d="M865 311q0 -12 -8 -20q-197 -164 -274 -217q-191 -131 -316 -131q-106 0 -106 153q-49 -41 -131 -82q-88 -43 -138 -43q-36 0 -69 17.5t-33 46.5q0 84 154.5 204.5t273.5 120.5q72 0 72 -34q0 -35 -23.5 -55.5t-48.5 -16.5q2 0 -12.5 28.5t-44.5 28.5q-78 0 -173.5 -82
t-95.5 -145q0 -41 29 -41q98 0 215 78q29 20 84 84q41 47 66 43q24 0 24 -21q0 -14 -31.5 -70.5t-31.5 -78.5q0 -72 69 -72q88 0 275 127q47 31 254 186q6 5 12 3q8 -3 8 -11zM830 605l5 1q-138 -117 -320 -167q-74 -21 -142.5 -12t-101.5 41q-46 46 18 134q6 9 19 20
t28.5 3.5t11.5 -15.5q-49 -69 -14 -103q26 -26 87 -32.5t132 13.5q106 29 211 108l39 31q73 62 79 64q12 1 20 -9q5 -6 -64 -70q-4 -4 -8 -7zM632 585q-19 -5 -30 -1q-198 92 -290 156q-147 100 -179 221q51 -8 107 -54q24 -90 396 -289q40 -22 -4 -33z" />
    <glyph glyph-name="uni1EAF" unicode="&#x1eaf;" horiz-adv-x="780" 
d="M865 311q0 -12 -8 -20q-197 -164 -274 -217q-191 -131 -316 -131q-106 0 -106 153q-49 -41 -131 -82q-88 -43 -138 -43q-36 0 -69 17.5t-33 46.5q0 84 154.5 204.5t273.5 120.5q72 0 72 -34q0 -35 -23.5 -55.5t-48.5 -16.5q2 0 -12.5 28.5t-44.5 28.5q-78 0 -173.5 -82
t-95.5 -145q0 -41 29 -41q98 0 215 78q29 20 84 84q41 47 66 43q24 0 24 -21q0 -14 -31.5 -70.5t-31.5 -78.5q0 -72 69 -72q88 0 275 127q47 31 254 186q6 5 12 3q8 -3 8 -11zM830 605l5 1q-138 -117 -320 -167q-74 -21 -142.5 -12t-101.5 41q-46 46 18 134q6 9 19 20
t28.5 3.5t11.5 -15.5q-49 -69 -14 -103q26 -26 87 -32.5t132 13.5q106 29 211 108l39 31q73 62 79 64q12 1 20 -9q5 -6 -64 -70q-4 -4 -8 -7zM450 579q373 199 396 289q56 46 107 54q-32 -121 -179 -221q-91 -64 -290 -156q-10 -4 -29 1q-45 11 -5 33z" />
    <glyph glyph-name="uni1EB3" unicode="&#x1eb3;" horiz-adv-x="780" 
d="M865 311q0 -12 -8 -20q-197 -164 -274 -217q-191 -131 -316 -131q-106 0 -106 153q-49 -41 -131 -82q-88 -43 -138 -43q-36 0 -69 17.5t-33 46.5q0 84 154.5 204.5t273.5 120.5q72 0 72 -34q0 -35 -23.5 -55.5t-48.5 -16.5q2 0 -12.5 28.5t-44.5 28.5q-78 0 -173.5 -82
t-95.5 -145q0 -41 29 -41q98 0 215 78q29 20 84 84q41 47 66 43q24 0 24 -21q0 -14 -31.5 -70.5t-31.5 -78.5q0 -72 69 -72q88 0 275 127q47 31 254 186q6 5 12 3q8 -3 8 -11zM830 605l5 1q-138 -117 -320 -167q-74 -21 -142.5 -12t-101.5 41q-46 46 18 134q6 9 19 20
t28.5 3.5t11.5 -15.5q-49 -69 -14 -103q26 -26 87 -32.5t132 13.5q106 29 211 108l39 31q73 62 79 64q12 1 20 -9q5 -6 -64 -70q-4 -4 -8 -7zM896 928q-24 16 -71 16q-104 0 -167 -49q-38 -29 -60 -48l-84 9l59 49q36 28 66 44q77 40 163 40q68 0 113.5 -30t45.5 -80
q0 -30 -21 -63.5t-52 -52.5q-39 -23 -118 -43q-102 -26 -123 -33q-70 -24 -102 -47q-32 -24 -32 -54q0 -19 -26 -14q7 -1 -6 -8.5l-13 -7.5q0 25 -1 47q-1 15 4 30q12 33 63 64q43 26 101 41l209 55q24 7 48 28q28 27 28 54q0 36 -24 53z" />
    <glyph glyph-name="uni1EB5" unicode="&#x1eb5;" horiz-adv-x="780" 
d="M865 311q0 -12 -8 -20q-197 -164 -274 -217q-191 -131 -316 -131q-106 0 -106 153q-49 -41 -131 -82q-88 -43 -138 -43q-36 0 -69 17.5t-33 46.5q0 84 154.5 204.5t273.5 120.5q72 0 72 -34q0 -35 -23.5 -55.5t-48.5 -16.5q2 0 -12.5 28.5t-44.5 28.5q-78 0 -173.5 -82
t-95.5 -145q0 -41 29 -41q98 0 215 78q29 20 84 84q41 47 66 43q24 0 24 -21q0 -14 -31.5 -70.5t-31.5 -78.5q0 -72 69 -72q88 0 275 127q47 31 254 186q6 5 12 3q8 -3 8 -11zM830 605l5 1q-138 -117 -320 -167q-74 -21 -142.5 -12t-101.5 41q-46 46 18 134q6 9 19 20
t28.5 3.5t11.5 -15.5q-49 -69 -14 -103q26 -26 87 -32.5t132 13.5q106 29 211 108l39 31q73 62 79 64q12 1 20 -9q5 -6 -64 -70q-4 -4 -8 -7zM852 766q-24 -55 -88 -94t-131 -39q-87 0 -138 88q-21 36 -52 36q-52 0 -109.5 -31.5t-89.5 -72.5q-12 -10 -27 -10q-23 0 -15 21
q18 43 97 92q86 52 156 52q56 0 94 -62q21 -33 33 -44q24 -21 62 -21q103 0 154 96q11 22 35 19q32 0 19 -30z" />
    <glyph glyph-name="uni1EB7" unicode="&#x1eb7;" horiz-adv-x="780" 
d="M865 311q0 -12 -8 -20q-197 -164 -274 -217q-191 -131 -316 -131q-106 0 -106 153q-49 -41 -131 -82q-88 -43 -138 -43q-36 0 -69 17.5t-33 46.5q0 84 154.5 204.5t273.5 120.5q72 0 72 -34q0 -35 -23.5 -55.5t-48.5 -16.5q2 0 -12.5 28.5t-44.5 28.5q-78 0 -173.5 -82
t-95.5 -145q0 -41 29 -41q98 0 215 78q29 20 84 84q41 47 66 43q24 0 24 -21q0 -14 -31.5 -70.5t-31.5 -78.5q0 -72 69 -72q88 0 275 127q47 31 254 186q6 5 12 3q8 -3 8 -11zM830 605l5 1q-138 -117 -320 -167q-74 -21 -142.5 -12t-101.5 41q-46 46 18 134q6 9 19 20
t28.5 3.5t11.5 -15.5q-49 -69 -14 -103q26 -26 87 -32.5t132 13.5q106 29 211 108l39 31q73 62 79 64q12 1 20 -9q5 -6 -64 -70q-4 -4 -8 -7zM69 -199q0 -59 -90 -59q-85 0 -85 59q0 61 87 61q34 0 61 -17.5t27 -43.5z" />
    <glyph glyph-name="egrave" unicode="&#xe8;" horiz-adv-x="428" 
d="M511 311q0 -12 -9 -20q-198 -168 -274 -217q-195 -131 -342 -131q-133 0 -133 135q0 88 98.5 195.5t171.5 107.5q23 0 43.5 -17.5t20.5 -39.5q0 -35 -35 -67t-70 -60q-59 -52 -145 -93q-6 -51 37 -77q30 -21 69 -21q103 0 293 127q41 27 254 186q6 5 12 3q9 -3 9 -11z
M3 303q0 14 -23 14q-33 0 -86 -56t-53 -97q10 2 35 10q127 76 127 129zM238 393q-19 -5 -29 -1q-199 92 -290 156q-147 100 -179 221q51 -8 107 -54q23 -90 396 -289q40 -22 -5 -33z" />
    <glyph glyph-name="eacute" unicode="&#xe9;" horiz-adv-x="428" 
d="M511 311q0 -12 -8 -20q-199 -168 -275 -217q-194 -131 -342 -131q-133 0 -133 135q0 88 98.5 195.5t171.5 107.5q23 0 43.5 -17.5t20.5 -39.5q0 -35 -35 -67t-70 -60q-59 -52 -145 -93q-6 -51 37 -77q31 -21 69 -21q103 0 293 127q41 27 254 186q6 5 13 3q8 -3 8 -11z
M3 303q0 14 -23 14q-32 0 -85.5 -56t-53.5 -97q10 2 35 10q127 76 127 129zM-135 455q373 199 396 289q56 46 107 54q-32 -121 -179 -221q-91 -64 -290 -156q-11 -4 -30 1q-44 11 -4 33z" />
    <glyph glyph-name="uni1EBB" unicode="&#x1ebb;" horiz-adv-x="428" 
d="M511 311q0 -12 -8 -20q-199 -168 -275 -217q-194 -131 -342 -131q-133 0 -133 135q0 88 98.5 195.5t171.5 107.5q23 0 43.5 -17.5t20.5 -39.5q0 -35 -35 -67t-70 -60q-59 -52 -145 -93q-6 -51 37 -77q31 -21 69 -21q103 0 293 127q41 27 254 186q6 5 13 3q8 -3 8 -11z
M3 303q0 14 -23 14q-32 0 -85.5 -56t-53.5 -97q10 2 35 10q127 76 127 129zM540 764q-24 16 -71 16q-104 0 -167 -49q-39 -29 -60 -48l-85 9l60 49q35 28 66 44q77 40 163 40q68 0 113.5 -30t45.5 -80q0 -30 -21 -63.5t-52 -52.5q-40 -23 -119 -43q-101 -26 -122 -33
q-70 -24 -102 -47q-32 -24 -32 -54q0 -19 -26 -14q6 -1 -6.5 -8.5l-12.5 -7.5q0 25 -1 47q-1 15 4 30q12 33 63 64q43 26 101 41l209 55q24 7 48 28q28 27 28 54q0 36 -24 53z" />
    <glyph glyph-name="uni1EBD" unicode="&#x1ebd;" horiz-adv-x="428" 
d="M511 311q0 -12 -8 -20q-199 -168 -275 -217q-194 -131 -342 -131q-133 0 -133 135q0 88 98.5 195.5t171.5 107.5q23 0 43.5 -17.5t20.5 -39.5q0 -35 -35 -67t-70 -60q-59 -52 -145 -93q-6 -51 37 -77q31 -21 69 -21q103 0 293 127q41 27 254 186q6 5 13 3q8 -3 8 -11z
M3 303q0 14 -23 14q-32 0 -85.5 -56t-53.5 -97q10 2 35 10q127 76 127 129zM506 556q-24 -55 -88 -94t-132 -39q-86 0 -137 88q-21 36 -52 36q-52 0 -109.5 -31.5t-89.5 -72.5q-12 -10 -27 -10q-23 0 -15 21q18 43 97 92q86 52 156 52q56 0 94 -62q21 -33 33 -44
q24 -21 62 -21q103 0 154 96q11 22 35 19q32 0 19 -30z" />
    <glyph glyph-name="uni1EB9" unicode="&#x1eb9;" horiz-adv-x="428" 
d="M511 311q0 -12 -8 -20q-199 -168 -275 -217q-194 -131 -342 -131q-133 0 -133 135q0 88 98.5 195.5t171.5 107.5q23 0 43.5 -17.5t20.5 -39.5q0 -35 -35 -67t-70 -60q-59 -52 -145 -93q-6 -51 37 -77q31 -21 69 -21q103 0 293 127q41 27 254 186q6 5 13 3q8 -3 8 -11z
M3 303q0 14 -23 14q-32 0 -85.5 -56t-53.5 -97q10 2 35 10q127 76 127 129zM31 -199q0 -59 -90 -59q-86 0 -86 59q0 61 88 61q34 0 61 -17.5t27 -43.5z" />
    <glyph glyph-name="ecircumflex" unicode="&#xea;" horiz-adv-x="428" 
d="M511 311q0 -12 -8 -20q-199 -168 -275 -217q-194 -131 -342 -131q-133 0 -133 135q0 88 98.5 195.5t171.5 107.5q23 0 43.5 -17.5t20.5 -39.5q0 -35 -35 -67t-70 -60q-59 -52 -145 -93q-6 -51 37 -77q31 -21 69 -21q103 0 293 127q41 27 254 186q6 5 13 3q8 -3 8 -11z
M3 303q0 14 -23 14q-32 0 -85.5 -56t-53.5 -97q10 2 35 10q127 76 127 129zM92 604q17 0 33 -10q17 -12 43 -47q31 -39 44 -52l43.5 -36.5t20.5 -27.5q11 -14 -21 -14q-28 0 -90 55q-46 41 -79 92q-17 -7 -39 -22q-59 -37 -121 -94q-26 -24 -30 -28q-16 -10 -35 -10
q-4 0 30 -8q-38 26 -36 35q5 26 99 93q60 42 74 50q39 23 64 24z" />
    <glyph glyph-name="uni1EC1" unicode="&#x1ec1;" horiz-adv-x="428" 
d="M511 311q0 -12 -8 -20q-199 -168 -275 -217q-194 -131 -342 -131q-133 0 -133 135q0 88 98.5 195.5t171.5 107.5q23 0 43.5 -17.5t20.5 -39.5q0 -35 -35 -67t-70 -60q-59 -52 -145 -93q-6 -51 37 -77q31 -21 69 -21q103 0 293 127q41 27 254 186q6 5 13 3q8 -3 8 -11z
M3 303q0 14 -23 14q-32 0 -85.5 -56t-53.5 -97q10 2 35 10q127 76 127 129zM383 538q-19 -5 -30 -1q-199 92 -290 156q-147 100 -179 221q51 -8 107 -54q23 -90 396 -289q40 -22 -4 -33zM92 604q17 0 33 -10q17 -12 43 -47q31 -39 44 -52l43.5 -36.5t20.5 -27.5
q11 -14 -21 -14q-28 0 -90 55q-46 41 -79 92q-17 -7 -39 -22q-59 -37 -121 -94q-26 -24 -30 -28q-16 -10 -35 -10q-4 0 30 -8q-38 26 -36 35q5 26 99 93q60 42 74 50q39 23 64 24z" />
    <glyph glyph-name="uni1EBF" unicode="&#x1ebf;" horiz-adv-x="428" 
d="M511 311q0 -12 -8 -20q-199 -168 -275 -217q-194 -131 -342 -131q-133 0 -133 135q0 88 98.5 195.5t171.5 107.5q23 0 43.5 -17.5t20.5 -39.5q0 -35 -35 -67t-70 -60q-59 -52 -145 -93q-6 -51 37 -77q31 -21 69 -21q103 0 293 127q41 27 254 186q6 5 13 3q8 -3 8 -11z
M3 303q0 14 -23 14q-32 0 -85.5 -56t-53.5 -97q10 2 35 10q127 76 127 129zM-116 610q373 199 396 289q56 46 107 54q-32 -121 -179 -221q-91 -64 -290 -156q-11 -4 -30 1q-44 11 -4 33zM92 604q17 0 33 -10q17 -12 43 -47q31 -39 44 -52l43.5 -36.5t20.5 -27.5
q11 -14 -21 -14q-28 0 -90 55q-46 41 -79 92q-17 -7 -39 -22q-59 -37 -121 -94q-26 -24 -30 -28q-16 -10 -35 -10q-4 0 30 -8q-38 26 -36 35q5 26 99 93q60 42 74 50q39 23 64 24z" />
    <glyph glyph-name="uni1EC3" unicode="&#x1ec3;" horiz-adv-x="428" 
d="M511 311q0 -12 -8 -20q-199 -168 -275 -217q-194 -131 -342 -131q-133 0 -133 135q0 88 98.5 195.5t171.5 107.5q23 0 43.5 -17.5t20.5 -39.5q0 -35 -35 -67t-70 -60q-59 -52 -145 -93q-6 -51 37 -77q31 -21 69 -21q103 0 293 127q41 27 254 186q6 5 13 3q8 -3 8 -11z
M3 303q0 14 -23 14q-32 0 -85.5 -56t-53.5 -97q10 2 35 10q127 76 127 129zM92 604q17 0 33 -10q17 -12 43 -47q31 -39 44 -52l43.5 -36.5t20.5 -27.5q11 -14 -21 -14q-28 0 -90 55q-46 41 -79 92q-17 -7 -39 -22q-59 -37 -121 -94q-26 -24 -30 -28q-16 -10 -35 -10
q-4 0 30 -8q-38 26 -36 35q5 26 99 93q60 42 74 50q39 23 64 24zM626 907q-24 16 -71 16q-104 0 -167 -49q-39 -29 -60 -48l-85 9l60 49q35 28 66 44q77 40 163 40q68 0 113.5 -30t45.5 -80q0 -30 -21 -63.5t-52 -52.5q-40 -23 -119 -43q-101 -26 -122 -33q-70 -24 -102 -47
q-32 -24 -32 -54q0 -19 -26 -14q6 -1 -6.5 -8.5l-12.5 -7.5q0 25 -1 47q-1 15 4 30q12 33 63 64q43 26 101 41l209 55q24 7 48 28q28 27 28 54q0 36 -24 53z" />
    <glyph glyph-name="uni1EC5" unicode="&#x1ec5;" horiz-adv-x="428" 
d="M511 311q0 -12 -8 -20q-199 -168 -275 -217q-194 -131 -342 -131q-133 0 -133 135q0 88 98.5 195.5t171.5 107.5q23 0 43.5 -17.5t20.5 -39.5q0 -35 -35 -67t-70 -60q-59 -52 -145 -93q-6 -51 37 -77q31 -21 69 -21q103 0 293 127q41 27 254 186q6 5 13 3q8 -3 8 -11z
M3 303q0 14 -23 14q-32 0 -85.5 -56t-53.5 -97q10 2 35 10q127 76 127 129zM92 604q17 0 33 -10q17 -12 43 -47q31 -39 44 -52l43.5 -36.5t20.5 -27.5q11 -14 -21 -14q-28 0 -90 55q-46 41 -79 92q-17 -7 -39 -22q-59 -37 -121 -94q-26 -24 -30 -28q-16 -10 -35 -10
q-4 0 30 -8q-38 26 -36 35q5 26 99 93q60 42 74 50q39 23 64 24zM567 685q-24 -55 -88 -94t-132 -39q-86 0 -137 88q-21 36 -52 36q-52 0 -109.5 -31.5t-89.5 -72.5q-12 -10 -27 -10q-23 0 -15 21q18 43 97 92q86 52 156 52q56 0 94 -62q21 -33 33 -44q24 -21 62 -21
q103 0 154 96q11 22 35 19q32 0 19 -30z" />
    <glyph glyph-name="uni1EC7" unicode="&#x1ec7;" horiz-adv-x="428" 
d="M511 311q0 -12 -8 -20q-199 -168 -275 -217q-194 -131 -342 -131q-133 0 -133 135q0 88 98.5 195.5t171.5 107.5q23 0 43.5 -17.5t20.5 -39.5q0 -35 -35 -67t-70 -60q-59 -52 -145 -93q-6 -51 37 -77q31 -21 69 -21q103 0 293 127q41 27 254 186q6 5 13 3q8 -3 8 -11z
M3 303q0 14 -23 14q-32 0 -85.5 -56t-53.5 -97q10 2 35 10q127 76 127 129zM92 604q17 0 33 -10q17 -12 43 -47q31 -39 44 -52l43.5 -36.5t20.5 -27.5q11 -14 -21 -14q-28 0 -90 55q-46 41 -79 92q-17 -7 -39 -22q-59 -37 -121 -94q-26 -24 -30 -28q-16 -10 -35 -10
q-4 0 30 -8q-38 26 -36 35q5 26 99 93q60 42 74 50q39 23 64 24zM31 -199q0 -59 -90 -59q-86 0 -86 59q0 61 88 61q34 0 61 -17.5t27 -43.5z" />
    <glyph glyph-name="igrave" unicode="&#xec;" horiz-adv-x="464" 
d="M548 311q0 -12 -8 -20q-205 -172 -256 -209q-168 -123 -254 -123q-56 0 -102 32t-46 75q0 71 74 165q70 88 117 99q24 0 24 -17q0 -14 -58 -83.5t-58 -129.5q0 -77 69 -77q84 0 477 296q6 5 13 3q8 -3 8 -11zM239 393q-19 -5 -29 -1q-199 92 -290 156q-147 100 -179 221
q51 -8 107 -54q23 -90 396 -289q40 -22 -5 -33z" />
    <glyph glyph-name="iacute" unicode="&#xed;" horiz-adv-x="464" 
d="M548 311q0 -12 -9 -20q-204 -172 -256 -209q-168 -123 -254 -123q-55 0 -101 32t-46 75q0 71 74 165q69 88 116 99q25 0 25 -17q0 -14 -58.5 -83.5t-58.5 -129.5q0 -77 70 -77q84 0 477 296q6 5 12 3q9 -3 9 -11zM94 426q373 199 397 289q56 46 107 54
q-32 -121 -179 -221q-92 -64 -290 -156q-11 -4 -30 1q-44 11 -5 33z" />
    <glyph glyph-name="uni1EC9" unicode="&#x1ec9;" horiz-adv-x="464" 
d="M548 311q0 -12 -9 -20q-204 -172 -256 -209q-168 -123 -254 -123q-55 0 -101 32t-46 75q0 71 74 165q69 88 116 99q25 0 25 -17q0 -14 -58.5 -83.5t-58.5 -129.5q0 -77 70 -77q84 0 477 296q6 5 12 3q9 -3 9 -11zM550 716q-24 16 -72 16q-103 0 -166 -49q-39 -29 -60 -48
l-85 9q38 32 60 49q35 28 66 44q77 40 163 40q68 0 113 -30t45 -80q0 -30 -20.5 -63.5t-52.5 -52.5q-39 -23 -118 -43q-101 -26 -123 -33q-70 -24 -101 -47q-33 -24 -33 -54q0 -19 -25 -14q6 -1 -6.5 -8.5l-12.5 -7.5q0 25 -2 47q0 15 4 30q12 33 64 64q43 26 100 41l210 55
q24 7 48 28q27 27 27 54q0 36 -23 53z" />
    <glyph glyph-name="itilde" unicode="&#x129;" horiz-adv-x="464" 
d="M548 311q0 -12 -8 -20q-205 -172 -256 -209q-168 -123 -254 -123q-55 0 -101.5 32t-46.5 75q0 71 74 165q70 88 117 99q24 0 24 -17q0 -14 -58 -83.5t-58 -129.5q0 -77 69 -77q84 0 478 296q6 5 12 3q8 -3 8 -11zM507 556q-24 -55 -88 -94t-131 -39q-87 0 -138 88
q-21 36 -52 36q-51 0 -109 -31.5t-90 -72.5q-12 -10 -26 -10q-24 0 -16 21q19 43 97 92q86 52 156 52q56 0 94 -62q21 -33 33 -44q24 -21 62 -21q103 0 154 96q11 22 35 19q32 0 19 -30z" />
    <glyph glyph-name="uni1ECB" unicode="&#x1ecb;" horiz-adv-x="464" 
d="M238 453q0 -54 -74 -54q-73 0 -73 54q0 55 73 55q74 0 74 -55zM547 311q0 -12 -8 -20q-205 -172 -256 -209q-168 -123 -254 -123q-55 0 -101 32t-46 75q0 71 74 165q69 88 116 99q25 0 25 -17q0 -14 -58.5 -83.5t-58.5 -129.5q0 -77 70 -77q84 0 477 296q6 5 12 3
q8 -3 8 -11zM31 -199q0 -59 -90 -59q-85 0 -85 59q0 61 88 61q34 0 60.5 -17.5t26.5 -43.5z" />
    <glyph glyph-name="ograve" unicode="&#xf2;" 
d="M655 311q0 -14 -8 -22q-69 -84 -209 -180q-151 -109 -227 -109q-53 0 -92 37q-17 -27 -86 -64q-84 -43 -152 -43q-98 0 -98 76q0 105 147 230q144 116 242 116t98 -90q0 -102 -114 -199q24 -24 61 -24q62 0 209 104q127 90 209 176q4 7 12 3q8 -3 8 -11zM242 276
q0 35 -35 35q-41 0 -74 -37.5t-33 -83.5q0 -67 27 -92q115 92 115 178zM96 68q-37 38 -37 98q0 84 35 117q-227 -105 -227 -220q0 -69 57 -69q80 0 172 74zM355 393q-19 -5 -30 -1q-199 92 -290 156q-147 100 -179 221q51 -8 107 -54q23 -90 396 -289q40 -22 -4 -33z" />
    <glyph glyph-name="oacute" unicode="&#xf3;" 
d="M655 311q0 -14 -8 -22q-69 -84 -209 -180q-151 -109 -227 -109q-53 0 -92 37q-17 -27 -86 -64q-84 -43 -152 -43q-98 0 -98 76q0 105 147 230q144 116 242 116t98 -90q0 -102 -114 -199q24 -24 61 -24q62 0 209 104q127 90 209 176q4 7 12 3q8 -3 8 -11zM242 276
q0 35 -35 35q-41 0 -74 -37.5t-33 -83.5q0 -67 27 -92q115 92 115 178zM96 68q-37 38 -37 98q0 84 35 117q-227 -105 -227 -220q0 -69 57 -69q80 0 172 74zM248 426q373 199 396 289q56 46 107 54q-32 -121 -179 -221q-91 -64 -290 -156q-11 -4 -30 1q-44 11 -4 33z" />
    <glyph glyph-name="uni1ECF" unicode="&#x1ecf;" 
d="M655 311q0 -14 -8 -22q-69 -84 -209 -180q-151 -109 -227 -109q-53 0 -92 37q-17 -27 -86 -64q-84 -43 -152 -43q-98 0 -98 76q0 105 147 230q144 116 242 116t98 -90q0 -102 -114 -199q24 -24 61 -24q62 0 209 104q127 90 209 176q4 7 12 3q8 -3 8 -11zM242 276
q0 35 -35 35q-41 0 -74 -37.5t-33 -83.5q0 -67 27 -92q115 92 115 178zM96 68q-37 38 -37 98q0 84 35 117q-227 -105 -227 -220q0 -69 57 -69q80 0 172 74zM654 755q-24 16 -71 16q-104 0 -167 -49q-39 -29 -60 -48l-84 9l59 49q36 28 66 44q77 40 163 40q68 0 113.5 -30
t45.5 -80q0 -30 -21 -63.5t-52 -52.5q-40 -23 -118 -43q-102 -26 -123 -33q-70 -24 -102 -47q-32 -24 -32 -54q0 -19 -26 -14q6 -1 -6.5 -8.5l-12.5 -7.5q0 25 -1 47q-1 15 4 30q12 33 63 64q43 26 101 41l209 55q24 7 48 28q28 27 28 54q0 36 -24 53z" />
    <glyph glyph-name="otilde" unicode="&#xf5;" 
d="M655 311q0 -14 -8 -22q-69 -84 -209 -180q-151 -109 -227 -109q-53 0 -92 37q-17 -27 -86 -64q-84 -43 -152 -43q-98 0 -98 76q0 105 147 230q144 116 242 116t98 -90q0 -102 -114 -199q24 -24 61 -24q62 0 209 104q127 90 209 176q4 7 12 3q8 -3 8 -11zM242 276
q0 35 -35 35q-41 0 -74 -37.5t-33 -83.5q0 -67 27 -92q115 92 115 178zM96 68q-37 38 -37 98q0 84 35 117q-227 -105 -227 -220q0 -69 57 -69q80 0 172 74zM641 556q-24 -55 -88 -94t-131 -39q-87 0 -138 88q-21 36 -52 36q-52 0 -109.5 -31.5t-89.5 -72.5q-12 -10 -27 -10
q-23 0 -15 21q18 43 97 92q86 52 156 52q56 0 94 -62q21 -33 33 -44q24 -21 62 -21q103 0 154 96q11 22 35 19q32 0 19 -30z" />
    <glyph glyph-name="uni1ECD" unicode="&#x1ecd;" 
d="M655 311q0 -14 -8 -22q-69 -84 -209 -180q-151 -109 -227 -109q-53 0 -92 37q-17 -27 -86 -64q-84 -43 -152 -43q-98 0 -98 76q0 105 147 230q144 116 242 116t98 -90q0 -102 -114 -199q24 -24 61 -24q62 0 209 104q127 90 209 176q4 7 12 3q8 -3 8 -11zM242 276
q0 35 -35 35q-41 0 -74 -37.5t-33 -83.5q0 -67 27 -92q115 92 115 178zM96 68q-37 38 -37 98q0 84 35 117q-227 -105 -227 -220q0 -69 57 -69q80 0 172 74zM31 -199q0 -59 -90 -59q-86 0 -86 59q0 61 88 61q34 0 61 -17.5t27 -43.5z" />
    <glyph glyph-name="ocircumflex" unicode="&#xf4;" 
d="M655 311q0 -14 -8 -22q-69 -84 -209 -180q-151 -109 -227 -109q-53 0 -92 37q-17 -27 -86 -64q-84 -43 -152 -43q-98 0 -98 76q0 105 147 230q144 116 242 116t98 -90q0 -102 -114 -199q24 -24 61 -24q62 0 209 104q127 90 209 176q4 7 12 3q8 -3 8 -11zM242 276
q0 35 -35 35q-41 0 -74 -37.5t-33 -83.5q0 -67 27 -92q115 92 115 178zM96 68q-37 38 -37 98q0 84 35 117q-227 -105 -227 -220q0 -69 57 -69q80 0 172 74zM236 594q18 0 33 -10q17 -12 43 -47q31 -39 44 -52l44 -36.5t20 -27.5q11 -14 -21 -14q-28 0 -90 55q-46 41 -79 92
q-17 -7 -39 -22q-59 -37 -121 -94q-26 -24 -30 -28q-16 -10 -35 -10q-4 0 30 -8q-38 26 -36 35q5 26 99 93q60 42 74 50q39 23 64 24z" />
    <glyph glyph-name="uni1ED3" unicode="&#x1ed3;" 
d="M655 311q0 -14 -8 -22q-69 -84 -209 -180q-151 -109 -227 -109q-53 0 -92 37q-17 -27 -86 -64q-84 -43 -152 -43q-98 0 -98 76q0 105 147 230q144 116 242 116t98 -90q0 -102 -114 -199q24 -24 61 -24q62 0 209 104q127 90 209 176q4 7 12 3q8 -3 8 -11zM242 276
q0 35 -35 35q-41 0 -74 -37.5t-33 -83.5q0 -67 27 -92q115 92 115 178zM96 68q-37 38 -37 98q0 84 35 117q-227 -105 -227 -220q0 -69 57 -69q80 0 172 74zM518 538q-19 -5 -30 -1q-199 92 -290 156q-147 100 -179 221q51 -8 107 -54q24 -90 396 -289q40 -22 -4 -33z
M236 594q18 0 33 -10q17 -12 43 -47q31 -39 44 -52l44 -36.5t20 -27.5q11 -14 -21 -14q-28 0 -90 55q-46 41 -79 92q-17 -7 -39 -22q-59 -37 -121 -94q-26 -24 -30 -28q-16 -10 -35 -10q-4 0 30 -8q-38 26 -36 35q5 26 99 93q60 42 74 50q39 23 64 24z" />
    <glyph glyph-name="uni1ED1" unicode="&#x1ed1;" 
d="M655 311q0 -14 -8 -22q-69 -84 -209 -180q-151 -109 -227 -109q-53 0 -92 37q-17 -27 -86 -64q-84 -43 -152 -43q-98 0 -98 76q0 105 147 230q144 116 242 116t98 -90q0 -102 -114 -199q24 -24 61 -24q62 0 209 104q127 90 209 176q4 7 12 3q8 -3 8 -11zM242 276
q0 35 -35 35q-41 0 -74 -37.5t-33 -83.5q0 -67 27 -92q115 92 115 178zM96 68q-37 38 -37 98q0 84 35 117q-227 -105 -227 -220q0 -69 57 -69q80 0 172 74zM-39 571q373 199 396 289q56 46 107 54q-32 -121 -179 -221q-91 -64 -290 -156q-10 -4 -29 1q-45 11 -5 33zM236 594
q18 0 33 -10q17 -12 43 -47q31 -39 44 -52l44 -36.5t20 -27.5q11 -14 -21 -14q-28 0 -90 55q-46 41 -79 92q-17 -7 -39 -22q-59 -37 -121 -94q-26 -24 -30 -28q-16 -10 -35 -10q-4 0 30 -8q-38 26 -36 35q5 26 99 93q60 42 74 50q39 23 64 24z" />
    <glyph glyph-name="uni1ED5" unicode="&#x1ed5;" 
d="M655 311q0 -14 -8 -22q-69 -84 -209 -180q-151 -109 -227 -109q-53 0 -92 37q-17 -27 -86 -64q-84 -43 -152 -43q-98 0 -98 76q0 105 147 230q144 116 242 116t98 -90q0 -102 -114 -199q24 -24 61 -24q62 0 209 104q127 90 209 176q4 7 12 3q8 -3 8 -11zM242 276
q0 35 -35 35q-41 0 -74 -37.5t-33 -83.5q0 -67 27 -92q115 92 115 178zM96 68q-37 38 -37 98q0 84 35 117q-227 -105 -227 -220q0 -69 57 -69q80 0 172 74zM236 594q18 0 33 -10q17 -12 43 -47q31 -39 44 -52l44 -36.5t20 -27.5q11 -14 -21 -14q-28 0 -90 55q-46 41 -79 92
q-17 -7 -39 -22q-59 -37 -121 -94q-26 -24 -30 -28q-16 -10 -35 -10q-4 0 30 -8q-38 26 -36 35q5 26 99 93q60 42 74 50q39 23 64 24zM773 907q-24 16 -71 16q-104 0 -167 -49q-39 -29 -60 -48l-84 9l59 49q36 28 66 44q77 40 163 40q68 0 113.5 -30t45.5 -80
q0 -30 -21 -63.5t-52 -52.5q-40 -23 -118 -43q-102 -26 -123 -33q-70 -24 -102 -47q-32 -24 -32 -54q0 -19 -26 -14q6 -1 -6.5 -8.5l-12.5 -7.5q0 25 -1 47q-1 15 4 30q12 33 63 64q43 26 101 41l209 55q24 7 48 28q28 27 28 54q0 36 -24 53z" />
    <glyph glyph-name="uni1ED7" unicode="&#x1ed7;" 
d="M655 311q0 -14 -8 -22q-69 -84 -209 -180q-151 -109 -227 -109q-53 0 -92 37q-17 -27 -86 -64q-84 -43 -152 -43q-98 0 -98 76q0 105 147 230q144 116 242 116t98 -90q0 -102 -114 -199q24 -24 61 -24q62 0 209 104q127 90 209 176q4 7 12 3q8 -3 8 -11zM242 276
q0 35 -35 35q-41 0 -74 -37.5t-33 -83.5q0 -67 27 -92q115 92 115 178zM96 68q-37 38 -37 98q0 84 35 117q-227 -105 -227 -220q0 -69 57 -69q80 0 172 74zM236 594q18 0 33 -10q17 -12 43 -47q31 -39 44 -52l44 -36.5t20 -27.5q11 -14 -21 -14q-28 0 -90 55q-46 41 -79 92
q-17 -7 -39 -22q-59 -37 -121 -94q-26 -24 -30 -28q-16 -10 -35 -10q-4 0 30 -8q-38 26 -36 35q5 26 99 93q60 42 74 50q39 23 64 24zM698 719q-24 -55 -88 -94t-131 -39q-87 0 -138 88q-21 36 -52 36q-52 0 -109.5 -31.5t-89.5 -72.5q-12 -10 -27 -10q-23 0 -15 21
q18 43 97 92q86 52 156 52q56 0 94 -62q21 -33 33 -44q24 -21 62 -21q103 0 154 96q11 22 35 19q32 0 19 -30z" />
    <glyph glyph-name="uni1ED9" unicode="&#x1ed9;" 
d="M655 311q0 -14 -8 -22q-69 -84 -209 -180q-151 -109 -227 -109q-53 0 -92 37q-17 -27 -86 -64q-84 -43 -152 -43q-98 0 -98 76q0 105 147 230q144 116 242 116t98 -90q0 -102 -114 -199q24 -24 61 -24q62 0 209 104q127 90 209 176q4 7 12 3q8 -3 8 -11zM242 276
q0 35 -35 35q-41 0 -74 -37.5t-33 -83.5q0 -67 27 -92q115 92 115 178zM96 68q-37 38 -37 98q0 84 35 117q-227 -105 -227 -220q0 -69 57 -69q80 0 172 74zM236 594q18 0 33 -10q17 -12 43 -47q31 -39 44 -52l44 -36.5t20 -27.5q11 -14 -21 -14q-28 0 -90 55q-46 41 -79 92
q-17 -7 -39 -22q-59 -37 -121 -94q-26 -24 -30 -28q-16 -10 -35 -10q-4 0 30 -8q-38 26 -36 35q5 26 99 93q60 42 74 50q39 23 64 24zM31 -199q0 -59 -90 -59q-86 0 -86 59q0 61 88 61q34 0 61 -17.5t27 -43.5z" />
    <glyph glyph-name="glyph216" unicode="&#xf9;" horiz-adv-x="751" 
d="M834 311q0 -12 -8 -20q-418 -350 -580 -350q-94 0 -106 147q-53 -55 -145 -98q-78 -35 -109 -35q-33 0 -58.5 24.5t-25.5 59.5q0 70 56.5 127t224.5 164q20 0 10 -27l-98 -72q-95 -77 -95 -143q0 -63 35 -63q14 0 74 26q67 31 107 62.5t126 142.5q70 88 97 88
q26 0 26 -22q0 -19 -70.5 -85.5t-70.5 -111.5q0 -43 26.5 -78t51.5 -35q80 0 262 123q51 35 250 184q6 5 12 3q8 -3 8 -11zM355 393q-19 -5 -29 -1q-199 92 -290 156q-148 100 -179 221q51 -8 106 -54q24 -90 397 -289q39 -22 -5 -33z" />
    <glyph glyph-name="glyph217" unicode="&#xfa;" horiz-adv-x="751" 
d="M834 311q0 -12 -8 -20q-418 -350 -580 -350q-94 0 -106 147q-53 -55 -145 -98q-78 -35 -109 -35q-33 0 -58.5 24.5t-25.5 59.5q0 70 56.5 127t224.5 164q20 0 10 -27l-98 -72q-95 -77 -95 -143q0 -63 35 -63q14 0 74 26q67 31 107 62.5t126 142.5q70 88 97 88
q26 0 26 -22q0 -19 -70.5 -85.5t-70.5 -111.5q0 -43 26.5 -78t51.5 -35q80 0 262 123q51 35 250 184q6 5 12 3q8 -3 8 -11zM202 426q373 199 397 289q56 46 106 54q-31 -121 -179 -221q-91 -64 -290 -156q-10 -4 -29 1q-44 11 -5 33z" />
    <glyph glyph-name="uni1EE7" unicode="&#x1ee7;" horiz-adv-x="751" 
d="M834 311q0 -12 -8 -20q-418 -350 -580 -350q-94 0 -106 147q-53 -55 -145 -98q-78 -35 -109 -35q-33 0 -58.5 24.5t-25.5 59.5q0 70 56.5 127t224.5 164q20 0 10 -27l-98 -72q-95 -77 -95 -143q0 -63 35 -63q14 0 74 26q67 31 107 62.5t126 142.5q70 88 97 88
q26 0 26 -22q0 -19 -70.5 -85.5t-70.5 -111.5q0 -43 26.5 -78t51.5 -35q80 0 262 123q51 35 250 184q6 5 12 3q8 -3 8 -11zM664 755q-23 16 -71 16q-103 0 -166 -49q-39 -29 -60 -48l-85 9q38 32 60 49q35 28 66 44q76 40 163 40q68 0 113 -30t45 -80q0 -30 -21 -63.5
t-52 -52.5q-39 -23 -118 -43q-102 -26 -123 -33q-70 -24 -102 -47q-32 -24 -32 -54q0 -19 -25 -14q6 -1 -6.5 -8.5l-12.5 -7.5q0 25 -2 47q-1 15 4 30q12 33 64 64q43 26 100 41l210 55q24 7 48 28q27 27 27 54q0 36 -24 53z" />
    <glyph glyph-name="utilde" unicode="&#x169;" horiz-adv-x="751" 
d="M834 311q0 -12 -8 -20q-418 -350 -580 -350q-94 0 -106 147q-53 -55 -145 -98q-78 -35 -109 -35q-33 0 -58.5 24.5t-25.5 59.5q0 70 56.5 127t224.5 164q20 0 10 -27l-98 -72q-95 -77 -95 -143q0 -63 35 -63q14 0 74 26q67 31 107 62.5t126 142.5q70 88 97 88
q26 0 26 -22q0 -19 -70.5 -85.5t-70.5 -111.5q0 -43 26.5 -78t51.5 -35q80 0 262 123q51 35 250 184q6 5 12 3q8 -3 8 -11zM641 556q-24 -55 -88 -94t-131 -39q-86 0 -138 88q-21 36 -51 36q-52 0 -110 -31.5t-89 -72.5q-13 -10 -27 -10q-24 0 -15 21q18 43 97 92
q85 52 155 52q56 0 95 -62q21 -33 33 -44q24 -21 62 -21q102 0 154 96q11 22 34 19q32 0 19 -30z" />
    <glyph glyph-name="uni1EE5" unicode="&#x1ee5;" horiz-adv-x="751" 
d="M834 311q0 -12 -8 -20q-418 -350 -580 -350q-94 0 -106 147q-53 -55 -145 -98q-78 -35 -109 -35q-33 0 -58.5 24.5t-25.5 59.5q0 70 56.5 127t224.5 164q20 0 10 -27l-98 -72q-95 -77 -95 -143q0 -63 35 -63q14 0 74 26q67 31 107 62.5t126 142.5q70 88 97 88
q26 0 26 -22q0 -19 -70.5 -85.5t-70.5 -111.5q0 -43 26.5 -78t51.5 -35q80 0 262 123q51 35 250 184q6 5 12 3q8 -3 8 -11zM31 -199q0 -59 -89 -59q-86 0 -86 59q0 61 88 61q34 0 60.5 -17.5t26.5 -43.5z" />
    <glyph glyph-name="uhorn" unicode="&#x1b0;" horiz-adv-x="751" 
d="M834 311q0 -12 -8 -20q-418 -350 -580 -350q-94 0 -106 147q-53 -55 -145 -98q-78 -35 -109 -35q-33 0 -58.5 24.5t-25.5 59.5q0 70 56.5 127t224.5 164q20 0 10 -27l-98 -72q-95 -77 -95 -143q0 -63 35 -63q14 0 74 26q67 31 107 62.5t126 142.5q70 88 97 88
q26 0 26 -22q0 -19 -70.5 -85.5t-70.5 -111.5q0 -43 26.5 -78t51.5 -35q80 0 262 123q51 35 250 184q6 5 12 3q8 -3 8 -11zM527 392q-9 -39 -30 -61q-4 -3 -90 -78q-92 -60 -118 -55q-12 2 -6 28q4 14 32 29q39 21 51 33q22 22 77 120q16 29 51 23q41 -7 33 -39z" />
    <glyph glyph-name="uni1EEB" unicode="&#x1eeb;" horiz-adv-x="751" 
d="M835 311q0 -12 -9 -20q-417 -350 -579 -350q-94 0 -107 147q-53 -55 -145 -98q-78 -35 -109 -35q-32 0 -58 24.5t-26 59.5q0 70 56.5 127t224.5 164q20 0 10 -27l-98 -72q-94 -77 -94 -143q0 -63 34 -63q15 0 74 26q68 31 108 62.5t126 142.5q69 88 96 88t27 -22
q0 -19 -71 -85.5t-71 -111.5q0 -43 26.5 -78t51.5 -35q80 0 262 123q51 35 250 184q6 5 12 3q9 -3 9 -11zM528 392q-9 -39 -31 -61q-4 -3 -90 -78q-92 -60 -118 -55q-12 2 -5 28q3 14 32 29q39 21 51 33q21 22 77 120q15 29 50 23q41 -7 34 -39zM276 382q-19 -5 -29 -1
q-199 92 -290 156q-147 100 -179 221q51 -8 107 -54q23 -90 396 -289q40 -22 -5 -33z" />
    <glyph glyph-name="uni1EE9" unicode="&#x1ee9;" horiz-adv-x="751" 
d="M834 311q0 -12 -8 -20q-418 -350 -580 -350q-94 0 -106 147q-53 -55 -145 -98q-78 -35 -109 -35q-33 0 -58.5 24.5t-25.5 59.5q0 70 56.5 127t224.5 164q20 0 10 -27l-98 -72q-95 -77 -95 -143q0 -63 35 -63q14 0 74 26q67 31 107 62.5t126 142.5q70 88 97 88
q26 0 26 -22q0 -19 -70.5 -85.5t-70.5 -111.5q0 -43 26.5 -78t51.5 -35q80 0 262 123q51 35 250 184q6 5 12 3q8 -3 8 -11zM527 392q-9 -39 -30 -61q-4 -3 -90 -78q-92 -60 -118 -55q-12 2 -6 28q4 14 32 29q39 21 51 33q22 22 77 120q16 29 51 23q41 -7 33 -39zM200 426
q373 199 397 289q56 46 106 54q-31 -121 -179 -221q-91 -64 -290 -156q-10 -4 -29 1q-44 11 -5 33z" />
    <glyph glyph-name="uni1EED" unicode="&#x1eed;" horiz-adv-x="751" 
d="M834 311q0 -12 -8 -20q-418 -350 -580 -350q-94 0 -106 147q-53 -55 -145 -98q-78 -35 -109 -35q-33 0 -58.5 24.5t-25.5 59.5q0 70 56.5 127t224.5 164q20 0 10 -27l-98 -72q-95 -77 -95 -143q0 -63 35 -63q14 0 74 26q67 31 107 62.5t126 142.5q70 88 97 88
q26 0 26 -22q0 -19 -70.5 -85.5t-70.5 -111.5q0 -43 26.5 -78t51.5 -35q80 0 262 123q51 35 250 184q6 5 12 3q8 -3 8 -11zM664 755q-23 16 -71 16q-103 0 -166 -49q-39 -29 -60 -48l-85 9q38 32 60 49q35 28 66 44q76 40 163 40q68 0 113 -30t45 -80q0 -30 -21 -63.5
t-52 -52.5q-39 -23 -118 -43q-102 -26 -123 -33q-70 -24 -102 -47q-32 -24 -32 -54q0 -19 -25 -14q6 -1 -6.5 -8.5l-12.5 -7.5q0 25 -2 47q-1 15 4 30q12 33 64 64q43 26 100 41l210 55q24 7 48 28q27 27 27 54q0 36 -24 53zM527 392q-9 -39 -30 -61q-4 -3 -90 -78
q-92 -60 -118 -55q-12 2 -6 28q4 14 32 29q39 21 51 33q22 22 77 120q16 29 51 23q41 -7 33 -39z" />
    <glyph glyph-name="uni1EEF" unicode="&#x1eef;" horiz-adv-x="751" 
d="M834 311q0 -12 -8 -20q-418 -350 -580 -350q-94 0 -106 147q-53 -55 -145 -98q-78 -35 -109 -35q-33 0 -58.5 24.5t-25.5 59.5q0 70 56.5 127t224.5 164q20 0 10 -27l-98 -72q-95 -77 -95 -143q0 -63 35 -63q14 0 74 26q67 31 107 62.5t126 142.5q70 88 97 88
q26 0 26 -22q0 -19 -70.5 -85.5t-70.5 -111.5q0 -43 26.5 -78t51.5 -35q80 0 262 123q51 35 250 184q6 5 12 3q8 -3 8 -11zM728 605q-24 -55 -88 -94t-131 -39q-86 0 -138 88q-21 36 -51 36q-52 0 -110 -31.5t-89 -72.5q-13 -10 -27 -10q-24 0 -15 21q18 43 97 92
q85 52 155 52q56 0 95 -62q21 -33 33 -44q24 -21 62 -21q102 0 154 96q11 22 34 19q32 0 19 -30zM527 392q-9 -39 -30 -61q-4 -3 -90 -78q-92 -60 -118 -55q-12 2 -6 28q4 14 32 29q39 21 51 33q22 22 77 120q16 29 51 23q41 -7 33 -39z" />
    <glyph glyph-name="uni1EF1" unicode="&#x1ef1;" horiz-adv-x="751" 
d="M834 311q0 -12 -8 -20q-418 -350 -580 -350q-94 0 -106 147q-53 -55 -145 -98q-78 -35 -109 -35q-33 0 -58.5 24.5t-25.5 59.5q0 70 56.5 127t224.5 164q20 0 10 -27l-98 -72q-95 -77 -95 -143q0 -63 35 -63q14 0 74 26q67 31 107 62.5t126 142.5q70 88 97 88
q26 0 26 -22q0 -19 -70.5 -85.5t-70.5 -111.5q0 -43 26.5 -78t51.5 -35q80 0 262 123q51 35 250 184q6 5 12 3q8 -3 8 -11zM31 -199q0 -59 -89 -59q-86 0 -86 59q0 61 88 61q34 0 60.5 -17.5t26.5 -43.5zM527 392q-9 -39 -30 -61q-4 -3 -90 -78q-92 -60 -118 -55
q-12 2 -6 28q4 14 32 29q39 21 51 33q22 22 77 120q16 29 51 23q41 -7 33 -39z" />
    <glyph glyph-name="ohorn" unicode="&#x1a1;" 
d="M655 311q0 -14 -8 -22q-69 -84 -209 -180q-151 -109 -227 -109q-53 0 -92 37q-17 -27 -86 -64q-84 -43 -152 -43q-98 0 -98 76q0 105 147 230q144 116 242 116t98 -90q0 -102 -114 -199q24 -24 61 -24q62 0 209 104q127 90 209 176q4 7 12 3q8 -3 8 -11zM242 276
q0 35 -35 35q-41 0 -74 -37.5t-33 -83.5q0 -67 27 -92q115 92 115 178zM96 68q-37 38 -37 98q0 84 35 117q-227 -105 -227 -220q0 -69 57 -69q80 0 172 74zM491 392q-9 -39 -31 -61q-4 -3 -90 -78q-92 -60 -117 -55q-13 2 -6 28q3 14 32 29q39 21 51 33q21 22 77 120
q16 29 50 23q41 -7 34 -39z" />
    <glyph glyph-name="uni1EDD" unicode="&#x1edd;" 
d="M655 311q0 -14 -8 -22q-69 -84 -209 -180q-151 -109 -227 -109q-53 0 -92 37q-17 -27 -86 -64q-84 -43 -152 -43q-98 0 -98 76q0 105 147 230q144 116 242 116t98 -90q0 -102 -114 -199q24 -24 61 -24q62 0 209 104q127 90 209 176q4 7 12 3q8 -3 8 -11zM242 276
q0 35 -35 35q-41 0 -74 -37.5t-33 -83.5q0 -67 27 -92q115 92 115 178zM96 68q-37 38 -37 98q0 84 35 117q-227 -105 -227 -220q0 -69 57 -69q80 0 172 74zM275 366q-20 -1 -30 5q-180 124 -259 202q-128 124 -139 248q49 -16 96 -71q8 -93 342 -352q35 -28 -10 -32z
M491 392q-9 -39 -31 -61q-4 -3 -90 -78q-92 -60 -117 -55q-13 2 -6 28q3 14 32 29q39 21 51 33q21 22 77 120q16 29 50 23q41 -7 34 -39z" />
    <glyph glyph-name="uni1EDB" unicode="&#x1edb;" 
d="M655 311q0 -14 -8 -22q-69 -84 -209 -180q-151 -109 -227 -109q-53 0 -92 37q-17 -27 -86 -64q-84 -43 -152 -43q-98 0 -98 76q0 105 147 230q144 116 242 116t98 -90q0 -102 -114 -199q24 -24 61 -24q62 0 209 104q127 90 209 176q4 7 12 3q8 -3 8 -11zM242 276
q0 35 -35 35q-41 0 -74 -37.5t-33 -83.5q0 -67 27 -92q115 92 115 178zM96 68q-37 38 -37 98q0 84 35 117q-227 -105 -227 -220q0 -69 57 -69q80 0 172 74zM168 479q387 170 417 258q59 41 111 45q-41 -118 -196 -207q-95 -56 -301 -133q-10 -3 -29 3q-43 15 -2 34zM491 392
q-9 -39 -31 -61q-4 -3 -90 -78q-92 -60 -117 -55q-13 2 -6 28q3 14 32 29q39 21 51 33q21 22 77 120q16 29 50 23q41 -7 34 -39z" />
    <glyph glyph-name="uni1EDF" unicode="&#x1edf;" 
d="M655 311q0 -14 -8 -22q-69 -84 -209 -180q-151 -109 -227 -109q-53 0 -92 37q-17 -27 -86 -64q-84 -43 -152 -43q-98 0 -98 76q0 105 147 230q144 116 242 116t98 -90q0 -102 -114 -199q24 -24 61 -24q62 0 209 104q127 90 209 176q4 7 12 3q8 -3 8 -11zM242 276
q0 35 -35 35q-41 0 -74 -37.5t-33 -83.5q0 -67 27 -92q115 92 115 178zM96 68q-37 38 -37 98q0 84 35 117q-227 -105 -227 -220q0 -69 57 -69q80 0 172 74zM654 755q-24 16 -71 16q-104 0 -167 -49q-39 -29 -60 -48l-84 9l59 49q36 28 66 44q77 40 163 40q68 0 113.5 -30
t45.5 -80q0 -30 -21 -63.5t-52 -52.5q-40 -23 -118 -43q-102 -26 -123 -33q-70 -24 -102 -47q-32 -24 -32 -54q0 -19 -26 -14q6 -1 -6.5 -8.5l-12.5 -7.5q0 25 -1 47q-1 15 4 30q12 33 63 64q43 26 101 41l209 55q24 7 48 28q28 27 28 54q0 36 -24 53zM491 392
q-9 -39 -31 -61q-4 -3 -90 -78q-92 -60 -117 -55q-13 2 -6 28q3 14 32 29q39 21 51 33q21 22 77 120q16 29 50 23q41 -7 34 -39z" />
    <glyph glyph-name="uni1EE1" unicode="&#x1ee1;" 
d="M655 311q0 -14 -8 -22q-69 -84 -209 -180q-151 -109 -227 -109q-53 0 -92 37q-17 -27 -86 -64q-84 -43 -152 -43q-98 0 -98 76q0 105 147 230q144 116 242 116t98 -90q0 -102 -114 -199q24 -24 61 -24q62 0 209 104q127 90 209 176q4 7 12 3q8 -3 8 -11zM242 276
q0 35 -35 35q-41 0 -74 -37.5t-33 -83.5q0 -67 27 -92q115 92 115 178zM96 68q-37 38 -37 98q0 84 35 117q-227 -105 -227 -220q0 -69 57 -69q80 0 172 74zM731 595q-24 -55 -88 -94t-131 -39q-87 0 -138 88q-21 36 -52 36q-52 0 -109.5 -31.5t-89.5 -72.5q-12 -10 -27 -10
q-23 0 -15 21q18 43 97 92q86 52 156 52q56 0 94 -62q21 -33 33 -44q24 -21 62 -21q103 0 154 96q11 22 35 19q32 0 19 -30zM491 392q-9 -39 -31 -61q-4 -3 -90 -78q-92 -60 -117 -55q-13 2 -6 28q3 14 32 29q39 21 51 33q21 22 77 120q16 29 50 23q41 -7 34 -39z" />
    <glyph glyph-name="uni1EE3" unicode="&#x1ee3;" 
d="M655 311q0 -14 -8 -22q-69 -84 -209 -180q-151 -109 -227 -109q-53 0 -92 37q-17 -27 -86 -64q-84 -43 -152 -43q-98 0 -98 76q0 105 147 230q144 116 242 116t98 -90q0 -102 -114 -199q24 -24 61 -24q62 0 209 104q127 90 209 176q4 7 12 3q8 -3 8 -11zM242 276
q0 35 -35 35q-41 0 -74 -37.5t-33 -83.5q0 -67 27 -92q115 92 115 178zM96 68q-37 38 -37 98q0 84 35 117q-227 -105 -227 -220q0 -69 57 -69q80 0 172 74zM31 -199q0 -59 -90 -59q-86 0 -86 59q0 61 88 61q34 0 61 -17.5t27 -43.5zM491 392q-9 -39 -31 -61q-4 -3 -90 -78
q-92 -60 -117 -55q-13 2 -6 28q3 14 32 29q39 21 51 33q21 22 77 120q16 29 50 23q41 -7 34 -39z" />
    <glyph glyph-name="ygrave" unicode="&#x1ef3;" horiz-adv-x="720" 
d="M500 270q0 -22 -123 -143l-305 -307q-219 -234 -397 -465q-78 -103 -78 -141q0 -11 5 -32.5t3 -31.5q-26 -63 -92 -63q-8 45 -8 71q0 88 106 205l631 696q-159 -104 -250 -104q-90 0 -90 92q0 78 64 174q57 84 98 103q35 4 35 -19q0 8 -66.5 -73.5t-66.5 -149.5
q0 -64 98 -64q74 0 234.5 131.5t181.5 131.5q20 0 20 -11zM355 332q-19 -5 -29 -1q-199 92 -290 156q-148 100 -179 221q51 -8 106 -54q24 -90 397 -289q39 -22 -5 -33z" />
    <glyph glyph-name="glyph234" unicode="&#xfd;" horiz-adv-x="720" 
d="M500 270q0 -22 -123 -143l-305 -307q-219 -234 -397 -465q-78 -103 -78 -141q0 -11 5 -32.5t3 -31.5q-26 -63 -92 -63q-8 45 -8 71q0 88 106 205l631 696q-159 -104 -250 -104q-90 0 -90 92q0 78 64 174q57 84 98 103q35 4 35 -19q0 8 -66.5 -73.5t-66.5 -149.5
q0 -64 98 -64q74 0 234.5 131.5t181.5 131.5q20 0 20 -11zM251 365q373 199 397 289q55 46 106 54q-31 -121 -179 -221q-91 -64 -290 -156q-10 -4 -29 1q-44 11 -5 33z" />
    <glyph glyph-name="uni1EF7" unicode="&#x1ef7;" horiz-adv-x="720" 
d="M500 270q0 -22 -123 -143l-305 -307q-219 -234 -397 -465q-78 -103 -78 -141q0 -11 5 -32.5t3 -31.5q-26 -63 -92 -63q-8 45 -8 71q0 88 106 205l631 696q-159 -104 -250 -104q-90 0 -90 92q0 78 64 174q57 84 98 103q35 4 35 -19q0 8 -66.5 -73.5t-66.5 -149.5
q0 -64 98 -64q74 0 234.5 131.5t181.5 131.5q20 0 20 -11zM685 704q-23 16 -71 16q-103 0 -166 -49q-39 -29 -60 -48l-85 9l59 49q36 28 67 44q76 40 163 40q68 0 113 -30t45 -80q0 -30 -21 -63.5t-52 -52.5q-39 -23 -118 -43q-102 -26 -123 -33q-70 -24 -102 -47
q-32 -24 -32 -54q0 -19 -25 -14q6 -1 -6.5 -8.5l-12.5 -7.5q0 25 -2 47q-1 15 4 30q12 33 64 64q43 26 100 41l210 55q24 7 47 28q28 27 28 54q0 36 -24 53z" />
    <glyph glyph-name="uni1EF9" unicode="&#x1ef9;" horiz-adv-x="720" 
d="M500 270q0 -22 -123 -143l-305 -307q-219 -234 -397 -465q-78 -103 -78 -141q0 -11 5 -32.5t3 -31.5q-26 -63 -92 -63q-8 45 -8 71q0 88 106 205l631 696q-159 -104 -250 -104q-90 0 -90 92q0 78 64 174q57 84 98 103q35 4 35 -19q0 8 -66.5 -73.5t-66.5 -149.5
q0 -64 98 -64q74 0 234.5 131.5t181.5 131.5q20 0 20 -11zM813 451q-24 -55 -88 -94t-131 -39q-86 0 -138 88q-21 36 -51 36q-52 0 -110 -31.5t-89 -72.5q-13 -10 -27 -10q-24 0 -15 21q18 43 97 92q85 52 155 52q56 0 94 -62q22 -33 34 -44q24 -21 62 -21q102 0 154 96
q11 22 34 19q32 0 19 -30z" />
    <glyph glyph-name="uni1EF5" unicode="&#x1ef5;" horiz-adv-x="720" 
d="M500 270q0 -22 -123 -143l-305 -307q-219 -234 -397 -465q-78 -103 -78 -141q0 -11 5 -32.5t3 -31.5q-26 -63 -92 -63q-8 45 -8 71q0 88 106 205l631 696q-159 -104 -250 -104q-90 0 -90 92q0 78 64 174q57 84 98 103q35 4 35 -19q0 8 -66.5 -73.5t-66.5 -149.5
q0 -64 98 -64q74 0 234.5 131.5t181.5 131.5q20 0 20 -11zM285 -260q0 -59 -90 -59q-85 0 -85 59q0 61 88 61q34 0 60.5 -17.5t26.5 -43.5z" />
    <glyph glyph-name="divide" unicode="&#xf7;" horiz-adv-x="1706" 
 />
    <glyph glyph-name="ugrave" horiz-adv-x="582" 
 />
    <glyph glyph-name="uacute" horiz-adv-x="580" 
 />
    <glyph glyph-name="yacute" horiz-adv-x="629" 
 />
    <glyph glyph-name="Ccaron" unicode="&#x10c;" horiz-adv-x="1274" 
 />
    <glyph glyph-name="ccaron" unicode="&#x10d;" horiz-adv-x="922" 
 />
    <glyph glyph-name="Dslash" unicode="&#x110;" horiz-adv-x="1806" 
d="M1088 559l-94 -127q-75 -100 -207 -219q-163 -147 -323 -231q90 -9 231 -9q379 0 721 234q357 242 357 538q0 158 -130 318q-63 78 -303 299l-233 207q-90 90 -90 194q0 164 20 164h29q-6 -29 -6 -55q0 -127 133 -262l266 -234q228 -209 260 -246q125 -151 125 -327
q0 -230 -196 -447q-185 -206 -484 -335.5t-600 -129.5q-213 0 -470 74t-257 131q0 49 55 49q3 0 60 -28q72 -35 158 -64q129 -41 292 -63q191 116 291 198q135 109 254 261l82 110h-20l-684 19q-27 0 -19 32q4 17 39 17h732l329 479q22 -4 27 -35q-64 -123 -296 -444h9
l502 -23q0 -37 -74 -45h-486z" />
    <glyph glyph-name="dcroat" unicode="&#x111;" horiz-adv-x="956" 
d="M1043 833l41 52q134 168 134 252q0 51 -50 51q-88 0 -279 -174q-92 -83 -177 -178h269zM657 773q-65 -77 -126 -161q-182 -247 -229 -422q279 205 500 398q101 86 185 180h-143zM612 774l-452 13q-27 0 -19 32q4 17 39 17h485q65 73 137 143q258 250 409 250q84 0 84 -92
q0 -98 -192 -307l380 -17q0 -37 -74 -45h-365q-98 -101 -236 -225q-168 -150 -512 -404q27 -149 147 -149q86 0 236 86q102 59 235 162l113 86q12 0 12 -17q0 -16 -155 -139q-146 -115 -215 -156q-138 -82 -246 -82q-137 0 -178 172l-168 -92q-94 -45 -180 -45
q-43 0 -74 25.5t-31 66.5q0 70 107 158q153 127 290 127q33 0 55.5 -17.5t22.5 -39.5q0 -49 -33 -54q-10 -2 -15 15.5t-11 35t-68 17.5q-78 0 -205 -127q-53 -53 -53 -96q0 -47 62 -47q43 0 141 43q90 39 158 84q32 120 92 225q6 12 90 141q85 131 187 252z" />
    <glyph glyph-name="quoteleft" unicode="&#x2018;" horiz-adv-x="245" 
d="M544 1227q0 -15 -26 -35q-35 -29 -46 -43q-20 -29 -28 -57l-19.5 -68t-50.5 -33q-49 0 -49 35q0 43 12.5 65.5t77.5 98.5q74 65 115 65q14 0 14 -28z" />
    <glyph glyph-name="quoteright" unicode="&#x2019;" horiz-adv-x="245" 
d="M579 1221q0 -43 -12 -65.5t-78 -98.5q-74 -66 -115 -66q-14 0 -14 29q0 14 27 35q34 28 45 43q20 28 29.5 60l18.5 64.5t50 32.5q49 0 49 -34z" />
    <glyph glyph-name="quotedblleft" unicode="&#x201c;" horiz-adv-x="339" 
d="M792 1231q0 -14 -24 -31q-35 -24 -53 -51q-37 -47 -56 -133q-8 -33 -49 -33q-49 0 -49 35q0 41 16 65q7 11 82 99q86 75 121 75q12 0 12 -26zM620 1231q0 -17 -24 -31q-33 -24 -53 -51q-35 -47 -56 -133q-8 -33 -49 -33q-49 0 -49 35q0 41 18 67q2 5 80 97q88 75 121 75
q12 0 12 -26z" />
    <glyph glyph-name="quotedblright" unicode="&#x201d;" horiz-adv-x="339" 
d="M828 1223q0 -41 -18 -68q-2 -4 -80 -96q-88 -76 -121 -76q-12 0 -12 27q0 16 25 30q32 25 53 52q35 47 55 133q8 32 49 32q49 0 49 -34zM656 1223q0 -41 -16 -66q-6 -10 -82 -98q-86 -76 -121 -76q-12 0 -12 27q0 14 25 30q34 25 53 52q37 47 55 133q8 32 49 32
q49 0 49 -34z" />
    <glyph glyph-name="ellipsis" unicode="&#x2026;" horiz-adv-x="1051" 
d="M204 43q0 -66 -88 -66q-82 0 -82 66q0 68 84 68q33 0 59.5 -19.5t26.5 -48.5zM523 43q0 -66 -88 -66q-82 0 -82 66q0 68 84 68q33 0 59.5 -19.5t26.5 -48.5zM889 43q0 -66 -88 -66q-82 0 -82 66q0 68 84 68q33 0 59.5 -19.5t26.5 -48.5z" />
  </font>
</defs>
</svg>
