<?xml version="1.0" standalone="no"?>
<!DOCTYPE svg PUBLIC "-//W3C//DTD SVG 1.1//EN" "http://www.w3.org/Graphics/SVG/1.1/DTD/svg11.dtd" >
<svg>
<metadata>
Created by FontForge 20090622 at Wed Sep  5 04:11:26 2018
 By deploy user
Generated by Fontographer 3.5
</metadata>
<defs>
<font id="Vn3DHNormal" horiz-adv-x="4096" >
  <font-face 
    font-family=".Vn3DH"
    font-weight="400"
    font-stretch="normal"
    units-per-em="4096"
    panose-1="2 11 114 0 0 0 0 0 0 0"
    ascent="3277"
    descent="-819"
    x-height="3178"
    cap-height="3322"
    bbox="-487 -2109 4534 6107"
    underline-thickness="196"
    underline-position="-2"
    unicode-range="U+0020-U+2219"
  />
<missing-glyph horiz-adv-x="3072" 
d="M512 0v2560h2048v-2560h-2048zM2494 66v2428h-1916v-2428h1916z" />
    <glyph glyph-name=".notdef" horiz-adv-x="3072" 
d="M512 0v2560h2048v-2560h-2048zM2494 66v2428h-1916v-2428h1916z" />
    <glyph glyph-name=".null" horiz-adv-x="0" 
 />
    <glyph glyph-name="nonmarkingreturn" horiz-adv-x="1782" 
 />
    <glyph glyph-name="space" unicode=" " horiz-adv-x="1782" 
 />
    <glyph glyph-name="exclam" unicode="!" horiz-adv-x="1229" 
d="M942 2785l-631 570v-2098h-282l536 -659h377v2187zM1024 -266l-713 737v-459h-323l704 -704h332v426z" />
    <glyph glyph-name="quotedbl" unicode="&#x22;" horiz-adv-x="1679" 
d="M614 2896l-331 348v-1466h-295l450 -549h332v299l348 -299h328v1462l-549 553v-1466h-283v1118z" />
    <glyph glyph-name="dollar" unicode="$" horiz-adv-x="2703" 
d="M831 2519v631q-372 -45 -552 -189q-160 -127 -160 -319q0 -180 147 -361q148 -180 361 -266q-17 94 -17 180q0 136 49 205q50 70 172 119zM831 1651q-139 20 -417 204q-238 156 -336 254q41 -270 233 -544q234 -332 520 -385v471zM786 266l-831 787q0 -185 61 -324
q58 -143 172 -258q115 -106 267 -156q147 -49 331 -49zM831 12q-24 -8 -49 -8q-131 0 -352 98q-225 95 -307 197q180 -287 373 -467q172 -160 335 -225v405zM1462 516q0 57 -4 102q-16 177 -16 197q0 131 49 131q33 0 98 -65q-8 114 -24 184q-111 410 -529 541v-1262
q25 -8 62 -12q32 -4 57 -4q172 0 307 188zM1667 3023l-156 -127q-159 127 -188 147q-115 82 -287 107v-1295l381 -204v913q49 8 82 8q127 0 266 -57q140 -61 234 -168l172 217zM1462 3244l-274 279t-152 131v-205q115 0 262 -103q115 -77 164 -102zM1417 -942v328
q488 49 754 307q250 241 250 594q0 299 -180.5 602t-524.5 545q70 -160 98.5 -299.5t28.5 -274.5q0 -389 -254 -635q-225 -217 -504 -217q-32 4 -49 4v-499h-205l381 -455h205z" />
    <glyph glyph-name="percent" unicode="%" horiz-adv-x="3564" 
d="M926 2867q-25 185 -119 275t-225 90q-152 0 -299 -103q-148 -102 -222 -266q-73 -168 -73 -385q0 -258 98 -430q115 -197 311 -197q25 4 41 4q-12 74 -20 152q-21 131 -21 197q0 237 95 389q126 209 434 274zM1528 2015v123q0 316 -78 508q-127 311 -475 504
q98 -66 155 -230q54 -163 54 -368q0 -365 -144 -623q-168 -303 -458 -303q-107 0 -209 37q-103 33 -234 115q172 -308 422 -443q176 -94 365 -94q49 0 77.5 4t49.5 12h4q41 0 221 308q139 233 250 450zM2912 3117l-426 332l-1888 -3478h-365l459 -487h156l803 1397
q-4 28 -4 90q0 270 159 483q148 197 303 197zM2265 94q8 25 8 78q0 33 -16 139q-16 103 -16 148q0 82 16 147q12 66 57 164q45 164 185 258q114 78 233 78q37 0 53 -4q4 33 4 49q0 164 -127 287q-41 37 -127 90q-73 8 -106 8q-291 0 -463 -250q-151 -221 -151 -541
q0 -266 122 -458q119 -193 328 -193zM3371 676q-37 196 -156 381q-123 180 -348 344q78 -152 115 -316q37 -163 37 -315q0 -369 -180.5 -618.5t-450.5 -249.5q-205 0 -406 159q168 -278 377 -417q189 -127 389 -127q263 0 443 221q180 217 180 561q0 20 8 94q4 70 4 111
q0 90 -12 172z" />
    <glyph glyph-name="ampersand" unicode="&#x26;" horiz-adv-x="3686" 
d="M1761 1528q279 151 406 327q127 173 127 365q0 262 -226 549q-184 233 -512 475q70 -135 107 -258q33 -123 33 -229q0 -295 -238 -521q-196 -188 -577 -348l929 -1040q111 180 156 459zM1434 2785q4 41 4 62q0 217 -140 331q-143 115 -344 115q-221 0 -376 -123
q-177 -139 -177 -364q0 -152 82 -320q82 -172 271 -377l348 156q-103 176 -103 303q0 123 95 176q90 49 229 49h57q37 -8 54 -8zM1147 1180l-549 598q-344 -168 -508 -385q-143 -193 -143 -414q0 -258 188 -459q189 -201 414 -221q0 389 196 610q119 135 402 271zM3527 -565
l-881 1036q66 115 94 279q29 159 29 352q-107 135 -209 237q-131 131 -262 217q0 -98 -66 -335l-172 -578l381 -504h-348l-250 283q0 -57 -274 -217q-340 -201 -697 -201q-188 0 -385 62q-200 61 -393 200q266 -471 598 -688q283 -184 615 -184q389 0 770 250l270 250
l504 -459h676z" />
    <glyph glyph-name="quotesingle" unicode="'" horiz-adv-x="1434" 
d="M1118 2896l-504 459l-331 -963h-295l544 -659h160z" />
    <glyph glyph-name="parenleft" unicode="(" horiz-adv-x="1229" 
d="M897 2691v426l-504 365v-205q-188 -29 -287 -115q-135 -115 -135 -344v-2474q0 -225 144 -328q106 -77 278 -77v-250q-114 0 -229 49q-78 33 -193 106q197 -270 561 -495q279 -172 381 -172q17 0 29 4v381q-53 0 -225 155l-74 50v2752q0 86 78 131q74 41 176 41z" />
    <glyph glyph-name="parenright" unicode=")" horiz-adv-x="1638" 
d="M1335 217v2253q4 24 4 78q0 270 -237 536q-221 246 -647 492q155 -78 221 -324q20 -78 33 -229v-2425q0 -397 -99 -598q-151 -311 -565 -311l156 -176q319 -271 381 -332q336 33 553 323q204 275 204 615q0 65 -4 98zM-45 3482l455 -664q12 57 12 111q0 188 -94 331
q-62 99 -156 160q-98 62 -217 62z" />
    <glyph glyph-name="asterisk" unicode="*" horiz-adv-x="2662" 
d="M1495 3355l-504 -570l754 82v-348l-754 78l504 -582l-299 -160l-377 664l-287 -709l-249 172l659 -675l254 503l504 -458l250 204l-250 553l659 -94v377l-454 426l45 78zM659 2597l-671 -127l323 -328zM1024 3072l-586 377l381 -631z" />
    <glyph glyph-name="plus" unicode="+" horiz-adv-x="3564" 
d="M2060 2236l-532 549v-1229h532v680zM1229 1257h-1258l578 -581h680v581zM3244 1053l-553 553v-349h-1163v-1163h-348l553 -581h327v1208h1184v332z" />
    <glyph glyph-name="comma" unicode="," horiz-adv-x="1516" 
d="M1229 266l-426 455l-537 -909h-295l451 -455h299z" />
    <glyph glyph-name="hyphen" unicode="-" horiz-adv-x="2048" 
d="M1102 1479v-250h-1131l578 -586h1212v160z" />
    <glyph glyph-name="period" unicode="." horiz-adv-x="1229" 
d="M881 -156l-631 754v-586h-250l549 -626h332v458z" />
    <glyph glyph-name="slash" unicode="/" horiz-adv-x="1679" 
d="M1417 2990l-520 459l-614 -3510h-295l450 -582h254z" />
    <glyph glyph-name="zero" unicode="0" horiz-adv-x="3031" 
d="M754 1982q90 332 295 496q180 148 405 148q37 0 82 -5q41 -8 102 -24q-65 311 -262 479q-200 164 -446 164q-365 0 -631 -291q-299 -323 -299 -840q0 -139 -4 -258l-8 -225q0 -704 221 -1048q188 -291 545 -361q-49 250 -82 532.5t-33 507.5q0 435 115 725zM2724 1229
l-49 438q-66 377 -254 692q-258 434 -754 758q168 -168 307 -717q119 -475 119 -749q0 -631 -262 -1106q-315 -574 -864 -574q-152 0 -299 37q-152 37 -340 131q147 -270 508 -512q356 -241 581 -241q590 0 975 573q340 508 340 1110v102q-8 41 -8 58z" />
    <glyph glyph-name="one" unicode="1" horiz-adv-x="1884" 
d="M516 3023l-545 -238l545 -549v787zM1556 -643v3428l-753 664v-3437h-332l786 -655h299z" />
    <glyph glyph-name="two" unicode="2" horiz-adv-x="3113" 
d="M1761 2564q0 283 -192 459q-197 172 -471 172q-279 0 -496 -172q-250 -197 -336 -553l-295 49l750 -664h160q0 431 295 599q184 106 479 106h106v4zM2646 1937q-33 332 -348 676q-246 266 -410 332q152 -209 152 -479q0 -324 -242 -746q-139 -245 -520 -745
q-365 -479 -475 -676h1007l598 840q250 426 250 688q0 61 -12 110zM2867 -360l-725 659v-287h-2081l693 -704h2113v332z" />
    <glyph glyph-name="three" unicode="3" horiz-adv-x="2785" 
d="M1540 2691q0 275 -176 442q-180 164 -434 164q-185 0 -352.5 -86t-294.5 -266q-33 -33 -82 -41q-54 -8 -213 -8q319 -299 360 -332q250 -217 311 -217q29 0 74 12q45 8 62 8q49 0 102 -20q57 131 131 205q139 139 512 139zM2331 2441q-50 156 -381 447q-111 94 -328 262
q102 -213 143 -348q37 -136 37 -262q0 -201 -98 -361q-119 -192 -381 -324q315 -245 410 -446q94 -205 94 -639q-37 -377 -332 -586q-258 -184 -614 -184q-176 0 -332 49q-160 49 -266 139q249 -413 598 -626q319 -197 655 -197q406 0 680 270q270 267 270 709
q0 344 -151 590l-303 323q110 41 249 242q181 254 181 520q0 107 -29 213q-33 103 -102 209zM1540 803q16 53 16 127q0 205 -225 475l-213 246q-65 16 -131 37q-69 16 -135 16q-70 0 -115 -21zM156 1008q0 -426 270 -623q192 -139 463 -139q106 0 135 20q-53 0 -180 82
q-103 66 -279 201q-57 65 -184 188q-197 193 -225 271z" />
    <glyph glyph-name="four" unicode="4" horiz-adv-x="3154" 
d="M2441 721v2097l-708 664v-2429h327v-250h-327v-791h-299l753 -704h254v880h426l-49 283zM1479 1683v1102l-1135 -1732h758zM1479 188v615h-1508l545 -615h963z" />
    <glyph glyph-name="five" unicode="5" horiz-adv-x="2949" 
d="M2236 2945q-53 25 -196 164l-389 373v-238h-1307v-1102q49 0 98 4q168 58 344 58h86q33 0 136 -17v459h1228v299zM1556 1528q-73 225 -278 364q-205 136 -471 136q-156 0 -299 -50q-143 -53 -291 -168l537 -503q151 127 278 188q123 61 275 61q118 0 249 -28zM754 299
l-783 676q0 -139 62 -283q61 -143 172 -254q90 -78 188 -123q94 -49 197 -49q74 0 164 33zM2564 598q0 479 -455 889l-426 368q99 -204 152 -405q49 -201 49 -381q0 -487 -307 -795q-307 -307 -758 -307q-155 0 -311 45q-160 41 -320 127q209 -348 562 -540
q327 -181 692 -181q475 0 782 291q340 320 340 889z" />
    <glyph glyph-name="six" unicode="6" horiz-adv-x="2949" 
d="M2060 2867l-352 225q-192 132 -356 263q-115 -156 -336 -426q-311 -377 -377 -463q-205 -266 -340 -484q262 107 508 107q127 0 254 -25q123 -28 246 -82q82 140 258 353q213 258 495 532zM1606 1307q-123 270 -340 413q-222 140 -471 140q-303 0 -537 -193
q-238 -197 -287 -537q-4 -40 -4 -69q-4 -33 -4 -53q0 -312 217 -549q189 -205 361 -205q32 0 57 12q-12 45 -16 94q-4 50 -4 107q0 377 286 610q283 230 742 230zM2314 -233l176 327q70 176 70 348q0 291 -184 590q-230 373 -725 746q123 -189 184 -377q57 -193 57 -381
q0 -447 -303 -758q-307 -315 -741 -315q-160 0 -311 45q-156 45 -320 147q332 -422 668 -622q303 -185 598 -185q241 0 446 115q205 111 385 320z" />
    <glyph glyph-name="seven" unicode="7" horiz-adv-x="2990" 
d="M2724 2818l-553 631l-1622 -3437h-426l631 -704h254zM1417 2470l344 725h-1761l676 -725h741z" />
    <glyph glyph-name="eight" unicode="8" horiz-adv-x="2662" 
d="M1307 2597q0 319 -197 491q-172 148 -426 148q-147 0 -274 -58q-131 -61 -189 -147q-61 -90 -90 -188q-33 -99 -33 -197q0 -270 172 -487q168 -222 357 -222q-13 37 -17 94.5t-4 65.5q0 225 168 373q164 143 389 143q82 0 144 -16zM1352 1102q-95 250 -312 422
q-217 168 -454 168q-205 0 -369 -136q-94 -77 -160 -208q-65 -131 -65 -275q0 -192 110 -377q127 -213 402 -397q-21 90 -21 160q0 278 209 475q205 192 488 192q86 0 172 -24zM2187 2109q0 283 -258 603q-213 266 -545 483q111 -139 168 -283q54 -143 54 -270
q0 -234 -181 -459q-135 -172 -372 -328q331 -180 508 -458q163 -258 163 -537q0 -221 -94 -405.5t-278 -315.5q-172 -73 -324 -102q-156 -33 -307 -33q-197 0 -381 53q-262 74 -262 78q0 -12 16 -41q189 -327 504 -520q356 -217 709 -217q413 0 696 266t283 668
q0 258 -127 512q-144 287 -426 549q225 139 315 282q106 168 139 475z" />
    <glyph glyph-name="nine" unicode="9" horiz-adv-x="2867" 
d="M1556 2740q-77 213 -315 361q-237 147 -508 147q-155 0 -303 -61q-147 -66 -250 -189q-106 -127 -155 -282q-54 -156 -54 -308q0 -344 205 -610q205 -270 500 -270q-70 151 -70 332q0 352 254 618t615 266q53 0 81 -4zM1212 1352q-118 -21 -254 -41q-135 -25 -229 -25
q-147 0 -266 41q-123 41 -246 152q156 -189 283 -312q143 -139 381 -319q118 119 184 213q86 119 147 291zM2552 1937q-37 308 -185 533q-118 184 -339 352q-86 66 -439 295q148 -160 221 -348q70 -189 70 -377q0 -274 -139 -618q-107 -263 -307 -594l-369 -500l-303 -393
q-131 -160 -213 -226h-299l631 -704h204q127 119 451 528q418 529 672 979q348 615 348 983q0 62 -4 90z" />
    <glyph glyph-name="colon" unicode=":" horiz-adv-x="1147" 
d="M881 -106l-631 749v-582h-250l549 -626h332v459zM881 1352l-631 757v-675h-250l549 -631h332v549z" />
    <glyph glyph-name="semicolon" unicode=";" horiz-adv-x="1638" 
d="M1323 1401l-631 741v-586h-254l553 -630h332v475zM770 -819l553 958l-459 537l-553 -942h-323l450 -553h332z" />
    <glyph glyph-name="less" unicode="&#x3c;" horiz-adv-x="3564" 
d="M3228 2236l-553 549v-344l-2298 -1040l786 -426l2065 913v348zM2675 -29l-2675 1258q111 -115 377 -348q106 -95 172 -160l2679 -1237v328l-553 487v-328z" />
    <glyph glyph-name="equal" unicode="=" horiz-adv-x="3523" 
d="M3228 1479l-459 536v-237h-2724l582 -598h2601v299zM3228 471l-504 582v-283h-2724l549 -553h2679v254z" />
    <glyph glyph-name="greater" unicode="&#x3e;" horiz-adv-x="3584" 
d="M2314 1352l-2343 1089l422 -459l1622 -753zM3244 1053l-504 475v-299l-2769 -1258l451 -487l2822 1237v332z" />
    <glyph glyph-name="question" unicode="?" horiz-adv-x="2171" 
d="M1241 -156q-115 111 -332 398l-295 401v-582h-303l553 -675h377v458zM1745 1479q49 86 74 192q24 107 24 213q0 295 -160 594q-159 295 -442 512q74 -147 111 -283q32 -139 32 -274q0 -344 -221 -561q-225 -221 -549 -221v-394h-254l582 -659h332v504q172 20 258 90
q86 65 213 287zM1118 2597q-45 278 -225 442t-414 164q-131 0 -254 -49q-123 -53 -237 -164l499 -549q119 107 234 131q110 25 397 25z" />
    <glyph glyph-name="A" unicode="A" 
d="M2298 2740l-914 709l1512 -3478h-266l753 -585h426zM1716 1937l-381 881l-549 -1417h770zM2425 422l-283 708h-1433l-381 -1159h-328l676 -585h155l381 1036h1213z" />
    <glyph glyph-name="B" unicode="B" horiz-adv-x="2703" 
d="M1446 2392q0 447 -307 614q-267 144 -906 144v-1372h709v614q78 21 164 21q49 0 172 -9q123 -12 168 -12zM2032 2470q-54 82 -271 311q-233 246 -278 246v-45q24 -57 90 -164q131 -221 131 -434q0 -217 -139 -406q-103 -139 -275 -245q279 -111 430 -353
q140 -225 140 -503q0 -365 -222 -623q-245 -283 -647 -283h-1003l544 -663h1090q422 0 676 373q205 299 205 618q-29 315 -222 553q-122 152 -376 328q127 24 245 229q115 205 115 455q0 168 -53 319q-53 148 -180 287zM1622 848q-4 86 -78 274q-160 406 -647 406h-664
v-1262h758v615q213 0 357 -4q139 -9 274 -29z" />
    <glyph glyph-name="C" unicode="C" horiz-adv-x="3400" 
d="M1368 2392q180 70 344 107q213 49 422 49q307 0 623 -107q16 0 36 4q62 107 86 152q-221 221 -495 471l-230 209l-16 -41q-16 -164 -61 -164q-135 37 -275 57q-139 21 -278 21q-492 0 -856 -230q-402 -254 -562 -733l-53 -172q-73 -246 -73 -454q0 -312 139 -570
q176 -327 573 -569q127 -70 172 -70q29 0 29 29q0 33 -90 217q-94 184 -111 283q-28 147 -28 299q0 458 266 815q172 229 438 397zM3039 -360l-33 299l-647 577v-328q-241 -106 -401 -155q-221 -66 -442 -66q-213 0 -439 58q-225 53 -512 192q778 -835 1585 -835
q447 0 889 258z" />
    <glyph glyph-name="D" unicode="D" horiz-adv-x="3154" 
d="M864 3150h-614v-2851q61 -20 172 -20q180 0 397 61q217 57 217 82v2048q316 0 606 -78q95 -25 230 -78q-25 246 -320 525q-327 311 -688 311zM2879 598q62 115 62 385q0 221 -41 447q-45 225 -143 425q-91 230 -394 545q-270 279 -327 279q4 -17 12 -33
q160 -225 246 -487q82 -267 82 -537q0 -352 -131 -664q-136 -315 -402 -565q-188 -155 -684 -274q-500 -123 -938 -123q-155 0 -266 16l672 -655h835q148 0 418 106q365 144 614 385q332 320 385 750z" />
    <glyph glyph-name="E" unicode="E" horiz-adv-x="3072" 
d="M1446 3355v-238h-1163v-1229h741v504h1102v254zM2077 1257l-631 631v-282h-1163v-1307h786v676h1008v282zM1495 299v-238h-1507l704 -704h1512v332z" />
    <glyph glyph-name="F" unicode="F" horiz-adv-x="2458" 
d="M2204 2597l-664 758v-238h-1229v-1262h713v537h1180v205zM2032 1180l-709 708v-282h-1012v-1545h-323l704 -704h377v1491h963v332z" />
    <glyph glyph-name="G" unicode="G" horiz-adv-x="3564" 
d="M2757 3117l-127 -250q-205 160 -451 242q-246 78 -500 78q-663 0 -1163 -455q-528 -479 -528 -1176q41 -450 241 -749q144 -213 357 -336q135 -78 184 -78q12 -8 21 -8q8 -4 12 -4q-12 65 -21 131q-139 393 -139 659q0 189 49 369q49 176 172 348q201 287 504 475
q369 230 774 230q254 0 508 -94.5t516 -311.5l172 205zM2408 1229h-913l913 -807v807zM3289 926q-147 127 -323 315q-181 189 -209 238v-1180q-41 -90 -476 -225q-434 -135 -786 -135q-287 0 -590 118q-360 144 -373 160q259 -385 709 -627q479 -258 1000 -258q274 0 536 74
q258 70 512 234v1286z" />
    <glyph glyph-name="H" unicode="H" horiz-adv-x="3604" 
d="M1053 2646l-787 709v-1545h787v836zM1053 881h1134v647h-1921v-1467h-295l750 -675h332v1495zM3195 2740l-754 615v-3294h-254l680 -675h328v3354z" />
    <glyph glyph-name="I" unicode="I" horiz-adv-x="1556" 
d="M1053 2662l-820 660v-3310h-245l671 -655h377z" />
    <glyph glyph-name="J" unicode="J" horiz-adv-x="2540" 
d="M2126 217v2474l-742 664v-2585q0 -475 -229 -684q-176 -160 -475 -160q-135 0 -258 33q-123 29 -172 53l110 -151q369 -361 598 -504q95 -57 304 -57q335 0 565 159q303 209 303 631v78q-4 33 -4 49zM0 848q-16 0 -16 -41q0 -176 151 -393q197 -279 492 -279q53 0 82 4
q-107 54 -209 148q-62 57 -172 184z" />
    <glyph glyph-name="K" unicode="K" horiz-adv-x="3277" 
d="M991 2785l-741 615v-1512l741 758v139zM991 803l-741 975v-1717h-295l704 -704h332v1446zM1290 1651l1262 1245l-459 553l-1561 -1639l1340 -1749h-234l693 -704h643z" />
    <glyph glyph-name="L" unicode="L" horiz-adv-x="2662" 
d="M1118 2691l-807 709v-3183h807v2474zM1667 266v-254h-1679l782 -704h1483l28 78v254z" />
    <glyph glyph-name="M" unicode="M" horiz-adv-x="4710" 
d="M1241 1352l-422 1245l-536 -2585h-295l544 -704h287zM1745 2646l-1008 836l1008 -2884l381 958zM3006 1352l-249 1245l-885 -2658l536 -553zM3621 2818l-836 664l758 -3470h-332l803 -655h332z" />
    <glyph glyph-name="N" unicode="N" horiz-adv-x="3686" 
d="M991 1810l-786 975v-2814h-217l671 -614h332v2453zM1446 2597l-1417 803l2302 -2851v1007zM3338 2691l-708 664v-3416l708 -582v3334z" />
    <glyph glyph-name="O" unicode="O" 
d="M1417 2470q148 74 303 106q152 29 283 29q127 0 229 -16q111 -25 222 -45q20 0 20 16v8q-4 21 -49 78q-164 250 -443 393q-278 139 -593 139q-345 0 -664 -163q-324 -168 -553 -496q-111 -176 -168 -405q-61 -230 -61 -484q0 -377 135 -696q131 -320 377 -463
q131 -86 180 -86q24 0 24 33q-53 176 -90 352q-37 172 -37 332q0 291 185 655q250 496 700 713zM3731 1008q0 41 4.5 90t4.5 78q0 512 -316 966q-278 402 -778 725q188 -172 320 -467q163 -364 163 -749q0 -242 -65 -484q-66 -245 -213 -491q-221 -385 -615 -586
q-360 -184 -790 -184q-275 0 -537 82t-454 229q-33 25 -41 29h-21q0 -29 209 -246l262 -266q312 -205 623 -307.5t581 -102.5q721 0 1221 586q442 520 442 1098z" />
    <glyph glyph-name="P" unicode="P" horiz-adv-x="2580" 
d="M991 1810v709q0 16 41 33q41 12 144 12h36q37 -12 58 -12q45 0 45 57q0 82 -66 221q-8 25 -37 66q-139 156 -303 213q-164 53 -360 53q-90 0 -176 -4l-168 -8v-1467q65 -16 229 -16q189 0 344 33q152 33 213 110zM2154 2142q-90 320 -425 647l-324 197q0 -25 41 -90
q53 -66 94 -205q37 -143 37 -307q0 -139 -29 -275q-32 -135 -102 -254q-152 -294 -574 -380q-200 -41 -667 -41v-1422h-217v-41l577 -663h426v1462q619 0 938 324q275 274 275 708q0 172 -50 340z" />
    <glyph glyph-name="Q" unicode="Q" horiz-adv-x="4137" 
d="M2154 3023q-159 82 -335 127q-181 41 -344 41q-414 0 -779 -225q-336 -205 -508 -525q-110 -217 -163 -438q-58 -221 -58 -414q0 -372 180 -680q160 -270 418 -438q140 -90 185 -90q28 0 28 41q-49 205 -90 401q-41 197 -41 357q0 73 8 151q4 78 37 197q107 483 500 786
q369 287 795 287q61 0 90 -4q123 0 290 -17q168 -16 201 -16q70 0 70 25q0 32 -107 127q-106 94 -377 307zM3781 1352q0 237 -115 491q-143 320 -422 598q-135 139 -303 283l-205 147q0 -12 49 -86q189 -299 303 -631q115 -335 115 -655q0 -295 -98 -549q-99 -258 -320 -479
l504 -500l-172 -204l-537 499q-147 -168 -499 -282q-279 -90 -430 -90q-361 0 -701 126q-499 189 -499 234q0 -21 65 -115l168 -164q217 -200 418 -335q291 -197 520 -254q156 -25 311 -54q172 -24 279 -24q213 0 414 53q241 66 458 201l410 -381l205 205l-328 426
q193 147 315 598q107 389 107 753q0 115 -12 189z" />
    <glyph glyph-name="R" unicode="R" horiz-adv-x="2867" 
d="M897 2519h426q8 74 8 98q0 176 -90 295q-41 54 -123 111q-49 65 -241 106q-197 37 -410 37q-148 0 -234 -16v-1340q115 -20 242 -20q213 0 422 65v664zM897 676l-664 975v-1590h-245l671 -753h238v1368zM1540 1008q303 94 467 348q147 233 147 545q0 348 -176 663
q-180 315 -483 459q-37 24 -49 24q37 -94 94 -278q53 -189 53 -365q0 -118 -8 -192q-12 -78 -45 -197q-74 -180 -344 -319q-274 -140 -582 -140l959 -1495h-332l836 -753h553z" />
    <glyph glyph-name="S" unicode="S" horiz-adv-x="2867" 
d="M2314 2564q-53 57 -233 234l-365 352l-205 -205q-151 172 -307 238q-155 61 -340 61q-348 0 -573 -209q-230 -213 -230 -487q0 -221 152 -389q172 -193 496 -271q-21 103 -21 176q0 267 201 426q180 144 454 144q205 0 397.5 -94.5t307.5 -274.5zM377 1810
q-29 13 -103 74q-73 62 -94 62q-16 0 -16 -37l8 -54q74 -114 111 -176q114 -176 172 -245q114 -103 594 -226q254 -65 462 -200q0 409 -426 565zM2126 1008l-234 258l-233 209q0 -25 57 -123q107 -217 107 -451q0 -315 -172 -573q-176 -262 -439 -357q-139 -45 -294 -45
q-189 0 -381 66l-332 147q-17 25 -58 25q-28 0 -28 -25q0 -49 127 -168q164 -151 540 -409q37 -41 213 -103q226 -77 455 -77q164 0 307 40q144 41 287 140q127 119 188 200q193 263 193 537q0 172 -70 348q-69 176 -233 361zM-45 926q57 -381 397 -586q254 -152 512 -152
q-209 136 -307 205q-41 29 -180 139q-103 78 -213 185z" />
    <glyph glyph-name="T" unicode="T" horiz-adv-x="2990" 
d="M2613 2441v344l-536 664v-254h-930v-3224h-283l709 -614h299v3084h741zM864 2441v754h-876l544 -754h332z" />
    <glyph glyph-name="U" unicode="U" horiz-adv-x="3236" 
d="M770 2691l-782 664v-2380q0 -389 381 -610q303 -177 667 -177q-73 45 -151 103q-78 53 -115 225v2175zM2912 975v1765l-835 709v-2441q0 -484 -357 -787q-331 -282 -790 -282q-234 0 -443 81q-213 78 -381 246q-73 78 -106 94q-8 -4 -16 -4q0 -69 249 -348
q295 -332 586 -495q328 -148 656 -148q315 0 602 135q282 131 503 394q111 114 164 225q168 336 168 856z" />
    <glyph glyph-name="V" unicode="V" horiz-adv-x="3277" 
d="M1118 2441l-1130 959l1159 -2757l348 913zM3006 2834l-520 521l-1290 -3416l504 -521z" />
    <glyph glyph-name="W" unicode="W" horiz-adv-x="4792" 
d="M1008 2441l-1037 803l910 -2363q20 -58 28 -86q33 -86 62 -86q24 0 37 94l299 880zM2187 1434q-151 442 -217 659q-94 307 -115 471q-45 -209 -233 -811l-356 -1102l-258 -757q122 -115 343.5 -287t254.5 -172zM2769 2646l-881 709l836 -2679l348 880q4 9 4 25
q0 107 -151 561q-127 377 -156 504zM4534 2740l-549 504l-1339 -3350l598 -508z" />
    <glyph glyph-name="X" unicode="X" horiz-adv-x="3604" 
d="M1229 2818l-930 582l831 -1418l304 488zM2015 1556l725 1246l-504 520l-979 -1589l852 -1467q33 -61 99 -164q37 -57 37 -73q0 -13 -45 -13h-25q-70 4 -111 4h-77q-37 0 -99 -8l979 -655h410zM1556 721l-454 758l-836 -1467h-295l545 -655h287z" />
    <glyph glyph-name="Y" unicode="Y" horiz-adv-x="3277" 
d="M991 2867l-1003 533l909 -1590l41 41l303 496zM1778 1434l835 1433l-487 488l-1102 -1876v-1418h-365l742 -704h377v2077z" />
    <glyph glyph-name="Z" unicode="Z" horiz-adv-x="2990" 
d="M1589 3150h-1634l672 -680h585zM2597 2867l-549 533l-1765 -3101h880zM2757 -311l-664 655v-332h-2138l672 -655h2130v332z" />
    <glyph glyph-name="bracketleft" unicode="[" horiz-adv-x="1843" 
d="M1446 2519v377q-119 90 -488 389q-53 41 -139 115v-283h-536v-3023h581v-282h-876l626 -582h881v283l-553 499v2507h504z" />
    <glyph glyph-name="backslash" unicode="\" horiz-adv-x="3072" 
d="M786 2990q-307 213 -540 356q-131 78 -246 136q213 -385 676 -1307l741 -1487q357 -721 377 -749h-377l582 -582h676z" />
    <glyph glyph-name="bracketright" unicode="]" horiz-adv-x="1638" 
d="M1290 -737v3555l-631 537v-3543h-671v-45q82 -91 315 -299l229 -205h758zM360 3150h-372l372 -365v365z" />
    <glyph glyph-name="underscore" unicode="_" horiz-adv-x="3215" 
d="M3211 -942l-553 549v-250h-2674l548 -553h2679v254z" />
    <glyph glyph-name="a" unicode="a" 
d="M2298 2740l-914 709l1512 -3478h-266l753 -585h426zM1716 1937l-381 881l-549 -1417h770zM2425 422l-283 708h-1433l-381 -1159h-328l676 -585h155l381 1036h1213z" />
    <glyph glyph-name="b" unicode="b" horiz-adv-x="2703" 
d="M1446 2392q0 447 -307 614q-267 144 -906 144v-1372h709v614q78 21 164 21q49 0 172 -9q123 -12 168 -12zM2032 2470q-54 82 -271 311q-233 246 -278 246v-45q24 -57 90 -164q131 -221 131 -434q0 -217 -139 -406q-103 -139 -275 -245q279 -111 430 -353
q140 -225 140 -503q0 -365 -222 -623q-245 -283 -647 -283h-1003l544 -663h1090q422 0 676 373q205 299 205 618q-29 315 -222 553q-122 152 -376 328q127 24 245 229q115 205 115 455q0 168 -53 319q-53 148 -180 287zM1622 848q-4 86 -78 274q-160 406 -647 406h-664
v-1262h758v615q213 0 357 -4q139 -9 274 -29z" />
    <glyph glyph-name="c" unicode="c" horiz-adv-x="3400" 
d="M1368 2392q180 70 344 107q213 49 422 49q307 0 623 -107q16 0 36 4q62 107 86 152q-221 221 -495 471l-230 209l-16 -41q-16 -164 -61 -164q-135 37 -275 57q-139 21 -278 21q-492 0 -856 -230q-402 -254 -562 -733l-53 -172q-73 -246 -73 -454q0 -312 139 -570
q176 -327 573 -569q127 -70 172 -70q29 0 29 29q0 33 -90 217q-94 184 -111 283q-28 147 -28 299q0 458 266 815q172 229 438 397zM3039 -360l-33 299l-647 577v-328q-241 -106 -401 -155q-221 -66 -442 -66q-213 0 -439 58q-225 53 -512 192q778 -835 1585 -835
q447 0 889 258z" />
    <glyph glyph-name="d" unicode="d" horiz-adv-x="3154" 
d="M864 3150h-614v-2851q61 -20 172 -20q180 0 397 61q217 57 217 82v2048q316 0 606 -78q95 -25 230 -78q-25 246 -320 525q-327 311 -688 311zM2879 598q62 115 62 385q0 221 -41 447q-45 225 -143 425q-91 230 -394 545q-270 279 -327 279q4 -17 12 -33
q160 -225 246 -487q82 -267 82 -537q0 -352 -131 -664q-136 -315 -402 -565q-188 -155 -684 -274q-500 -123 -938 -123q-155 0 -266 16l672 -655h835q148 0 418 106q365 144 614 385q332 320 385 750z" />
    <glyph glyph-name="e" unicode="e" horiz-adv-x="3072" 
d="M1446 3355v-238h-1163v-1229h741v504h1102v254zM2077 1257l-631 631v-282h-1163v-1307h786v676h1008v282zM1495 299v-238h-1507l704 -704h1512v332z" />
    <glyph glyph-name="f" unicode="f" horiz-adv-x="2458" 
d="M2204 2597l-664 758v-238h-1229v-1262h713v537h1180v205zM2032 1180l-709 708v-282h-1012v-1545h-323l704 -704h377v1491h963v332z" />
    <glyph glyph-name="g" unicode="g" horiz-adv-x="3564" 
d="M2757 3117l-127 -250q-205 160 -451 242q-246 78 -500 78q-663 0 -1163 -455q-528 -479 -528 -1176q41 -450 241 -749q144 -213 357 -336q135 -78 184 -78q12 -8 21 -8q8 -4 12 -4q-12 65 -21 131q-139 393 -139 659q0 189 49 369q49 176 172 348q201 287 504 475
q369 230 774 230q254 0 508 -94.5t516 -311.5l172 205zM2408 1229h-913l913 -807v807zM3289 926q-147 127 -323 315q-181 189 -209 238v-1180q-41 -90 -476 -225q-434 -135 -786 -135q-287 0 -590 118q-360 144 -373 160q259 -385 709 -627q479 -258 1000 -258q274 0 536 74
q258 70 512 234v1286z" />
    <glyph glyph-name="h" unicode="h" horiz-adv-x="3604" 
d="M1053 2646l-787 709v-1545h787v836zM1053 881h1134v647h-1921v-1467h-295l750 -675h332v1495zM3195 2740l-754 615v-3294h-254l680 -675h328v3354z" />
    <glyph glyph-name="i" unicode="i" horiz-adv-x="1556" 
d="M1053 2662l-820 660v-3310h-245l671 -655h377z" />
    <glyph glyph-name="j" unicode="j" horiz-adv-x="2540" 
d="M2126 217v2474l-742 664v-2585q0 -475 -229 -684q-176 -160 -475 -160q-135 0 -258 33q-123 29 -172 53l110 -151q369 -361 598 -504q95 -57 304 -57q335 0 565 159q303 209 303 631v78q-4 33 -4 49zM0 848q-16 0 -16 -41q0 -176 151 -393q197 -279 492 -279q53 0 82 4
q-107 54 -209 148q-62 57 -172 184z" />
    <glyph glyph-name="k" unicode="k" horiz-adv-x="3277" 
d="M991 2785l-741 615v-1512l741 758v139zM991 803l-741 975v-1717h-295l704 -704h332v1446zM1290 1651l1262 1245l-459 553l-1561 -1639l1340 -1749h-234l693 -704h643z" />
    <glyph glyph-name="l" unicode="l" horiz-adv-x="2662" 
d="M1118 2691l-807 709v-3183h807v2474zM1667 266v-254h-1679l782 -704h1483l28 78v254z" />
    <glyph glyph-name="m" unicode="m" horiz-adv-x="4710" 
d="M1241 1352l-422 1245l-536 -2585h-295l544 -704h287zM1745 2646l-1008 836l1008 -2884l381 958zM3006 1352l-249 1245l-885 -2658l536 -553zM3621 2818l-836 664l758 -3470h-332l803 -655h332z" />
    <glyph glyph-name="n" unicode="n" horiz-adv-x="3686" 
d="M991 1810l-786 975v-2814h-217l671 -614h332v2453zM1446 2597l-1417 803l2302 -2851v1007zM3338 2691l-708 664v-3416l708 -582v3334z" />
    <glyph glyph-name="o" unicode="o" 
d="M1417 2470q148 74 303 106q152 29 283 29q127 0 229 -16q111 -25 222 -45q20 0 20 16v8q-4 21 -49 78q-164 250 -443 393q-278 139 -593 139q-345 0 -664 -163q-324 -168 -553 -496q-111 -176 -168 -405q-61 -230 -61 -484q0 -377 135 -696q131 -320 377 -463
q131 -86 180 -86q24 0 24 33q-53 176 -90 352q-37 172 -37 332q0 291 185 655q250 496 700 713zM3731 1008q0 41 4.5 90t4.5 78q0 512 -316 966q-278 402 -778 725q188 -172 320 -467q163 -364 163 -749q0 -242 -65 -484q-66 -245 -213 -491q-221 -385 -615 -586
q-360 -184 -790 -184q-275 0 -537 82t-454 229q-33 25 -41 29h-21q0 -29 209 -246l262 -266q312 -205 623 -307.5t581 -102.5q721 0 1221 586q442 520 442 1098z" />
    <glyph glyph-name="p" unicode="p" horiz-adv-x="2580" 
d="M991 1810v709q0 16 41 33q41 12 144 12h36q37 -12 58 -12q45 0 45 57q0 82 -66 221q-8 25 -37 66q-139 156 -303 213q-164 53 -360 53q-90 0 -176 -4l-168 -8v-1467q65 -16 229 -16q189 0 344 33q152 33 213 110zM2154 2142q-90 320 -425 647l-324 197q0 -25 41 -90
q53 -66 94 -205q37 -143 37 -307q0 -139 -29 -275q-32 -135 -102 -254q-152 -294 -574 -380q-200 -41 -667 -41v-1422h-217v-41l577 -663h426v1462q619 0 938 324q275 274 275 708q0 172 -50 340z" />
    <glyph glyph-name="q" unicode="q" horiz-adv-x="4137" 
d="M2154 3023q-159 82 -335 127q-181 41 -344 41q-414 0 -779 -225q-336 -205 -508 -525q-110 -217 -163 -438q-58 -221 -58 -414q0 -372 180 -680q160 -270 418 -438q140 -90 185 -90q28 0 28 41q-49 205 -90 401q-41 197 -41 357q0 73 8 151q4 78 37 197q107 483 500 786
q369 287 795 287q61 0 90 -4q123 0 290 -17q168 -16 201 -16q70 0 70 25q0 32 -107 127q-106 94 -377 307zM3781 1352q0 237 -115 491q-143 320 -422 598q-135 139 -303 283l-205 147q0 -12 49 -86q189 -299 303 -631q115 -335 115 -655q0 -295 -98 -549q-99 -258 -320 -479
l504 -500l-172 -204l-537 499q-147 -168 -499 -282q-279 -90 -430 -90q-361 0 -701 126q-499 189 -499 234q0 -21 65 -115l168 -164q217 -200 418 -335q291 -197 520 -254q156 -25 311 -54q172 -24 279 -24q213 0 414 53q241 66 458 201l410 -381l205 205l-328 426
q193 147 315 598q107 389 107 753q0 115 -12 189z" />
    <glyph glyph-name="r" unicode="r" horiz-adv-x="2867" 
d="M897 2519h426q8 74 8 98q0 176 -90 295q-41 54 -123 111q-49 65 -241 106q-197 37 -410 37q-148 0 -234 -16v-1340q115 -20 242 -20q213 0 422 65v664zM897 676l-664 975v-1590h-245l671 -753h238v1368zM1540 1008q303 94 467 348q147 233 147 545q0 348 -176 663
q-180 315 -483 459q-37 24 -49 24q37 -94 94 -278q53 -189 53 -365q0 -118 -8 -192q-12 -78 -45 -197q-74 -180 -344 -319q-274 -140 -582 -140l959 -1495h-332l836 -753h553z" />
    <glyph glyph-name="s" unicode="s" horiz-adv-x="2867" 
d="M2314 2564q-53 57 -233 234l-365 352l-205 -205q-151 172 -307 238q-155 61 -340 61q-348 0 -573 -209q-230 -213 -230 -487q0 -221 152 -389q172 -193 496 -271q-21 103 -21 176q0 267 201 426q180 144 454 144q205 0 397.5 -94.5t307.5 -274.5zM377 1810
q-29 13 -103 74q-73 62 -94 62q-16 0 -16 -37l8 -54q74 -114 111 -176q114 -176 172 -245q114 -103 594 -226q254 -65 462 -200q0 409 -426 565zM2126 1008l-234 258l-233 209q0 -25 57 -123q107 -217 107 -451q0 -315 -172 -573q-176 -262 -439 -357q-139 -45 -294 -45
q-189 0 -381 66l-332 147q-17 25 -58 25q-28 0 -28 -25q0 -49 127 -168q164 -151 540 -409q37 -41 213 -103q226 -77 455 -77q164 0 307 40q144 41 287 140q127 119 188 200q193 263 193 537q0 172 -70 348q-69 176 -233 361zM-45 926q57 -381 397 -586q254 -152 512 -152
q-209 136 -307 205q-41 29 -180 139q-103 78 -213 185z" />
    <glyph glyph-name="t" unicode="t" horiz-adv-x="2990" 
d="M2613 2441v344l-536 664v-254h-930v-3224h-283l709 -614h299v3084h741zM864 2441v754h-876l544 -754h332z" />
    <glyph glyph-name="u" unicode="u" horiz-adv-x="3236" 
d="M770 2691l-782 664v-2380q0 -389 381 -610q303 -177 667 -177q-73 45 -151 103q-78 53 -115 225v2175zM2912 975v1765l-835 709v-2441q0 -484 -357 -787q-331 -282 -790 -282q-234 0 -443 81q-213 78 -381 246q-73 78 -106 94q-8 -4 -16 -4q0 -69 249 -348
q295 -332 586 -495q328 -148 656 -148q315 0 602 135q282 131 503 394q111 114 164 225q168 336 168 856z" />
    <glyph glyph-name="v" unicode="v" horiz-adv-x="3277" 
d="M1118 2441l-1130 959l1159 -2757l348 913zM3006 2834l-520 521l-1290 -3416l504 -521z" />
    <glyph glyph-name="w" unicode="w" horiz-adv-x="4792" 
d="M1008 2441l-1037 803l910 -2363q20 -58 28 -86q33 -86 62 -86q24 0 37 94l299 880zM2187 1434q-151 442 -217 659q-94 307 -115 471q-45 -209 -233 -811l-356 -1102l-258 -757q122 -115 343.5 -287t254.5 -172zM2769 2646l-881 709l836 -2679l348 880q4 9 4 25
q0 107 -151 561q-127 377 -156 504zM4534 2740l-549 504l-1339 -3350l598 -508z" />
    <glyph glyph-name="x" unicode="x" horiz-adv-x="3604" 
d="M1229 2818l-930 582l831 -1418l304 488zM2015 1556l725 1246l-504 520l-979 -1589l852 -1467q33 -61 99 -164q37 -57 37 -73q0 -13 -45 -13h-25q-70 4 -111 4h-77q-37 0 -99 -8l979 -655h410zM1556 721l-454 758l-836 -1467h-295l545 -655h287z" />
    <glyph glyph-name="y" unicode="y" horiz-adv-x="3277" 
d="M991 2867l-1003 533l909 -1590l41 41l303 496zM1778 1434l835 1433l-487 488l-1102 -1876v-1418h-365l742 -704h377v2077z" />
    <glyph glyph-name="z" unicode="z" horiz-adv-x="2990" 
d="M1589 3150h-1634l672 -680h585zM2597 2867l-549 533l-1765 -3101h880zM2757 -311l-664 655v-332h-2138l672 -655h2130v332z" />
    <glyph glyph-name="exclamdown" unicode="&#xa1;" 
d="M2298 2740l-914 709l1512 -3478h-266l753 -585h426zM1716 1937l-381 881l-549 -1417h770zM2425 422l-283 708h-1433l-381 -1159h-328l676 -585h155l381 1036h1213zM2470 4301l-393 282q0 -323 -185 -483q-159 -139 -413 -139q-140 0 -279 45q-143 45 -242 119
q33 -82 144 -213l110 -119q123 -123 312 -213q184 -90 368 -90q254 0 402 172q176 209 176 639zM1417 4125l-459 458q-16 -45 -16 -102q0 -139 111 -229q155 -127 364 -127z" />
    <glyph glyph-name="cent" unicode="&#xa2;" 
d="M2298 2740l-914 709l1512 -3478h-266l753 -585h426zM1716 1937l-381 881l-549 -1417h770zM2425 422l-283 708h-1433l-381 -1159h-328l676 -585h155l381 1036h1213zM1606 4157l-299 299q-25 -73 -209 -323l-172 -230q0 -16 -49 -16q-17 0 -66 4t-74 4q-41 0 -53 -4
t-12 -16q0 -8 4 -17l332 -376h172l217 290q164 226 209 308v77zM2519 3699q-57 53 -147 168q-160 213 -185 213q-110 49 -377 254q-90 65 -254 200q-45 37 -69 49h-21q0 -32 217 -311q234 -299 254 -369h-254l459 -421h377v217z" />
    <glyph glyph-name="sterling" unicode="&#xa3;" horiz-adv-x="3072" 
d="M1446 3355v-238h-1163v-1229h741v504h1102v254zM2077 1257l-631 631v-282h-1163v-1307h786v676h1008v282zM1495 299v-238h-1507l704 -704h1512v332zM1036 4125l-282 282q-33 -53 -226 -319l-168 -230q0 -16 -41 -16q-16 0 -69 4t-78 4q-37 0 -53 -8q-13 -8 -13 -25v-8
l332 -360h176l217 291q156 209 205 290v95zM1950 3654q-49 53 -193 233q-110 143 -135 143q-119 66 -381 263q-90 65 -250 196q-41 29 -73 45h-21q0 -24 225 -311q226 -287 246 -365h-250l455 -409h377v205z" />
    <glyph glyph-name="currency" unicode="&#xa4;" 
d="M1417 2470q148 74 303 106q152 29 283 29q127 0 229 -16q111 -25 222 -45q20 0 20 16v8q-4 21 -49 78q-164 250 -443 393q-278 139 -593 139q-345 0 -664 -163q-324 -168 -553 -496q-111 -176 -168 -405q-61 -230 -61 -484q0 -377 135 -696q131 -320 377 -463
q131 -86 180 -86q24 0 24 33q-53 176 -90 352q-37 172 -37 332q0 291 185 655q250 496 700 713zM3731 1008q0 41 4.5 90t4.5 78q0 512 -316 966q-278 402 -778 725q188 -172 320 -467q163 -364 163 -749q0 -242 -65 -484q-66 -245 -213 -491q-221 -385 -615 -586
q-360 -184 -790 -184q-275 0 -537 82t-454 229q-33 25 -41 29h-21q0 -29 209 -246l262 -266q312 -205 623 -307.5t581 -102.5q721 0 1221 586q442 520 442 1098zM1827 4202l-303 300q-17 -58 -148 -246l-213 -307q0 -17 -53 -17q-16 0 -70 4q-57 4 -86 4q-45 0 -57 -4
q-4 -4 -4 -12q-4 -8 4 -21l344 -376h160l270 376l156 222v77zM2740 3744q-41 41 -188 229q-119 152 -144 152q-110 49 -376 254q-90 65 -254 200q-45 37 -74 49h-21q0 -28 226 -315q225 -291 245 -364h-249l471 -422h364v217z" />
    <glyph glyph-name="yen" unicode="&#xa5;" 
d="M2613 2896q193 -172 336 -483q172 -377 172 -779q0 -237 -65.5 -479t-204.5 -479q-221 -385 -615 -586q-360 -184 -790 -184q-275 0 -537 82t-454 229q-33 25 -41 29h-21q0 -29 209 -246l262 -266q312 -205 623 -307.5t581 -102.5q721 0 1221 586q442 520 442 1098
q0 282 -180 766q-57 159 -180 430q176 86 262 221q82 135 82 295q0 262 -192 545q-197 282 -451 434q41 -70 66 -152q24 -86 24 -151q0 -209 -160 -353q-163 -147 -389 -147zM1417 2470q148 74 303 106q152 29 283 29q127 0 229 -16q111 -25 222 -45q20 0 20 16v8
q-4 21 -49 78q-164 250 -443 393q-278 139 -593 139q-345 0 -664 -163q-324 -168 -553 -496q-111 -176 -168 -405q-61 -230 -61 -484q0 -377 135 -696q131 -320 377 -463q131 -86 180 -86q24 0 24 33q-53 176 -90 352q-37 172 -37 332q0 291 185 655q250 496 700 713z
M2597 3793l270 -266q17 0 29 -9q12 -8 49 -8q-20 123 -143 205q-99 66 -205 78z" />
    <glyph glyph-name="brokenbar" unicode="&#xa6;" horiz-adv-x="3564" 
d="M2093 3084q70 0 143 29q111 41 111 115l-254 221v-365zM786 2691l-786 664v-2380q0 -389 385 -610q307 -177 668 -177q-74 45 -148 95q-82 65 -119 233v2175zM2929 975v1261q127 37 233 185q90 127 90 270v45q-8 33 -8 49q-53 209 -315 533q-242 299 -377 381
q41 -70 65 -152q25 -86 25 -151q0 -209 -160 -353q-164 -147 -389 -147v-1888q0 -484 -356 -787q-332 -282 -791 -282q-233 0 -442 81q-213 78 -381 246q-74 78 -107 94q-8 -4 -16 -4q0 -69 250 -348q295 -332 581 -495q328 -148 660 -148q315 0 602 135q283 131 504 394
q110 114 164 225q168 336 168 856zM2077 3793l270 -266q29 -17 94 -17q-33 127 -143 201q-111 70 -221 82z" />
    <glyph glyph-name="section" unicode="&#xa7;" horiz-adv-x="3482" 
d="M1212 1921v-283h-675v-1339q61 -20 172 -20q180 0 397 61q217 57 217 82v680h365v155l-365 521v692q315 0 606 -78q94 -25 230 -78q-25 246 -320 525q-328 311 -688 311h-614v-1229h675zM242 1638h-676l438 -536h238v536zM3166 598q62 115 62 385q0 221 -41 447
q-45 225 -144 425q-90 230 -393 545q-270 279 -328 279q5 -17 13 -33q159 -225 245 -487q82 -267 82 -537q0 -352 -131 -664q-135 -315 -401 -565q-188 -155 -684 -274q-500 -123 -938 -123q-156 0 -266 16l626 -655h881q147 0 418 106q364 144 614 385q332 320 385 750z
" />
    <glyph glyph-name="dieresis" unicode="&#xa8;" 
d="M2298 2740l-914 709l1512 -3478h-266l753 -585h426zM1716 1937l-381 881l-549 -1417h770zM2425 422l-283 708h-1433l-381 -1159h-328l676 -585h155l381 1036h1213zM2470 4301l-393 282q0 -323 -185 -483q-159 -139 -413 -139q-140 0 -279 45q-143 45 -242 119
q33 -82 144 -213l110 -119q123 -123 312 -213q184 -90 368 -90q254 0 402 172q176 209 176 639zM1417 4125l-459 458q-16 -45 -16 -102q0 -139 111 -229q155 -127 364 -127z" />
    <glyph glyph-name="copyright" unicode="&#xa9;" 
d="M2298 2740l-914 709l1512 -3478h-266l753 -585h426zM1716 1937l-381 881l-549 -1417h770zM2425 422l-283 708h-1433l-381 -1159h-328l676 -585h155l381 1036h1213zM1606 4157l-299 299q-25 -73 -209 -323l-172 -230q0 -16 -49 -16q-17 0 -66 4t-74 4q-41 0 -53 -4
t-12 -16q0 -8 4 -17l332 -376h172l217 290q164 226 209 308v77zM2519 3699q-57 53 -147 168q-160 213 -185 213q-110 49 -377 254q-90 65 -254 200q-45 37 -69 49h-21q0 -32 217 -311q234 -299 254 -369h-254l459 -421h377v217z" />
    <glyph glyph-name="ordfeminine" unicode="&#xaa;" horiz-adv-x="3072" 
d="M1446 3355v-238h-1163v-1229h741v504h1102v254zM2077 1257l-631 631v-282h-1163v-1307h786v676h1008v282zM1495 299v-238h-1507l704 -704h1512v332zM1036 4125l-282 282q-33 -53 -226 -319l-168 -230q0 -16 -41 -16q-16 0 -69 4t-78 4q-37 0 -53 -8q-13 -8 -13 -25v-8
l332 -360h176l217 291q156 209 205 290v95zM1950 3654q-49 53 -193 233q-110 143 -135 143q-119 66 -381 263q-90 65 -250 196q-41 29 -73 45h-21q0 -24 225 -311q226 -287 246 -365h-250l455 -409h377v205z" />
    <glyph glyph-name="guillemotleft" unicode="&#xab;" 
d="M1417 2470q148 74 303 106q152 29 283 29q127 0 229 -16q111 -25 222 -45q20 0 20 16v8q-4 21 -49 78q-164 250 -443 393q-278 139 -593 139q-345 0 -664 -163q-324 -168 -553 -496q-111 -176 -168 -405q-61 -230 -61 -484q0 -377 135 -696q131 -320 377 -463
q131 -86 180 -86q24 0 24 33q-53 176 -90 352q-37 172 -37 332q0 291 185 655q250 496 700 713zM3731 1008q0 41 4.5 90t4.5 78q0 512 -316 966q-278 402 -778 725q188 -172 320 -467q163 -364 163 -749q0 -242 -65 -484q-66 -245 -213 -491q-221 -385 -615 -586
q-360 -184 -790 -184q-275 0 -537 82t-454 229q-33 25 -41 29h-21q0 -29 209 -246l262 -266q312 -205 623 -307.5t581 -102.5q721 0 1221 586q442 520 442 1098zM1827 4202l-303 300q-17 -58 -148 -246l-213 -307q0 -17 -53 -17q-16 0 -70 4q-57 4 -86 4q-45 0 -57 -4
q-4 -4 -4 -12q-4 -8 4 -21l344 -376h160l270 376l156 222v77zM2740 3744q-41 41 -188 229q-119 152 -144 152q-110 49 -376 254q-90 65 -254 200q-45 37 -74 49h-21q0 -28 226 -315q225 -291 245 -364h-249l471 -422h364v217z" />
    <glyph glyph-name="logicalnot" unicode="&#xac;" 
d="M2613 2896q193 -172 336 -483q172 -377 172 -779q0 -237 -65.5 -479t-204.5 -479q-221 -385 -615 -586q-360 -184 -790 -184q-275 0 -537 82t-454 229q-33 25 -41 29h-21q0 -29 209 -246l262 -266q312 -205 623 -307.5t581 -102.5q721 0 1221 586q442 520 442 1098
q0 282 -180 766q-57 159 -180 430q176 86 262 221q82 135 82 295q0 262 -192 545q-197 282 -451 434q41 -70 66 -152q24 -86 24 -151q0 -209 -160 -353q-163 -147 -389 -147zM1417 2470q148 74 303 106q152 29 283 29q127 0 229 -16q111 -25 222 -45q20 0 20 16v8
q-4 21 -49 78q-164 250 -443 393q-278 139 -593 139q-345 0 -664 -163q-324 -168 -553 -496q-111 -176 -168 -405q-61 -230 -61 -484q0 -377 135 -696q131 -320 377 -463q131 -86 180 -86q24 0 24 33q-53 176 -90 352q-37 172 -37 332q0 291 185 655q250 496 700 713z
M2597 3793l270 -266q17 0 29 -9q12 -8 49 -8q-20 123 -143 205q-99 66 -205 78z" />
    <glyph glyph-name="minus" unicode="&#xad;" horiz-adv-x="3564" 
d="M2093 3084q70 0 143 29q111 41 111 115l-254 221v-365zM786 2691l-786 664v-2380q0 -389 385 -610q307 -177 668 -177q-74 45 -148 95q-82 65 -119 233v2175zM2929 975v1261q127 37 233 185q90 127 90 270v45q-8 33 -8 49q-53 209 -315 533q-242 299 -377 381
q41 -70 65 -152q25 -86 25 -151q0 -209 -160 -353q-164 -147 -389 -147v-1888q0 -484 -356 -787q-332 -282 -791 -282q-233 0 -442 81q-213 78 -381 246q-74 78 -107 94q-8 -4 -16 -4q0 -69 250 -348q295 -332 581 -495q328 -148 660 -148q315 0 602 135q283 131 504 394
q110 114 164 225q168 336 168 856zM2077 3793l270 -266q29 -17 94 -17q-33 127 -143 201q-111 70 -221 82z" />
    <glyph glyph-name="registered" unicode="&#xae;" horiz-adv-x="3482" 
d="M1212 1921v-283h-675v-1339q61 -20 172 -20q180 0 397 61q217 57 217 82v680h365v155l-365 521v692q315 0 606 -78q94 -25 230 -78q-25 246 -320 525q-328 311 -688 311h-614v-1229h675zM242 1638h-676l438 -536h238v536zM3166 598q62 115 62 385q0 221 -41 447
q-45 225 -144 425q-90 230 -393 545q-270 279 -328 279q5 -17 13 -33q159 -225 245 -487q82 -267 82 -537q0 -352 -131 -664q-135 -315 -401 -565q-188 -155 -684 -274q-500 -123 -938 -123q-156 0 -266 16l626 -655h881q147 0 418 106q364 144 614 385q332 320 385 750z
" />
    <glyph glyph-name="mu" unicode="&#xb5;" 
d="M2298 2740l-914 709l1512 -3478h-266l753 -585h426zM1716 1937l-381 881l-549 -1417h770zM2425 422l-283 708h-1433l-381 -1159h-328l676 -585h155l381 1036h1213zM1081 4862q82 -78 213 -397l119 -312h-250l426 -422h283q94 0 94 86q0 95 -111 295l-143 263l-360 290
q-181 144 -271 197z" />
    <glyph glyph-name="paragraph" unicode="&#xb6;" 
d="M2298 2740l-914 709l1512 -3478h-266l753 -585h426zM1716 1937l-381 881l-549 -1417h770zM2425 422l-283 708h-1433l-381 -1159h-328l676 -585h155l381 1036h1213zM2220 4014q61 107 61 229q0 177 -110 349q-111 168 -316 290q103 -163 103 -327q0 -201 -152 -324
q-151 -123 -372 -123v-217h-177l410 -381h221v283q127 12 189 53q57 37 143 168zM1778 4661q-29 164 -152 258q-123 90 -283 90q-184 0 -335 -127l344 -315q78 66 159 82q78 12 267 12z" />
    <glyph glyph-name="periodcentered" unicode="&#xb7;" 
d="M2298 2740l-914 709l1512 -3478h-266l753 -585h426zM1716 1937l-381 881l-549 -1417h770zM2425 422l-283 708h-1433l-381 -1159h-328l676 -585h155l381 1036h1213zM1069 3621h221v377q8 20 13 28q20 33 61 33q45 0 111 -45q90 -61 192 -188q57 -37 135 -99
q74 -61 119 -106q70 -41 135 -41q144 0 234 197q86 196 86 475q-99 139 -254 303l-74 73q-25 29 -41 29q-41 0 -45 -90q-8 -90 -12 -143q-41 -189 -115 -271q-74 -86 -164 -86q-115 0 -258 115q-45 37 -123 119q-82 119 -172 192q-94 70 -172 70q-102 0 -127 -139v-250h-205
q-4 -21 -4 -41q21 -25 99 -103q32 -53 114 -139q201 -213 246 -270z" />
    <glyph glyph-name="cedilla" unicode="&#xb8;" 
d="M2298 2740l-914 709l1512 -3478h-266l753 -585h426zM1716 1937l-381 881l-549 -1417h770zM2425 422l-283 708h-1433l-381 -1159h-328l676 -585h155l381 1036h1213zM2298 4252l-377 237l-332 -680h-254l381 -360h205z" />
    <glyph glyph-name="onesuperior" unicode="&#xb9;" 
d="M2298 2740l-914 709l1512 -3478h-266l753 -585h426zM1716 1937l-381 881l-549 -1417h770zM2425 422l-283 708h-1433l-381 -1159h-328l676 -585h155l381 1036h1213zM2314 -1434l-614 758v-581h-254l536 -631h332v454z" />
    <glyph glyph-name="guillemotright" unicode="&#xbb;" 
d="M2298 2740l-914 709l1512 -3478h-266l753 -585h426zM1716 1937l-381 881l-549 -1417h770zM2425 422l-283 708h-1433l-381 -1159h-328l676 -585h155l381 1036h1213zM2470 4301l-393 282q0 -323 -185 -483q-159 -139 -413 -139q-140 0 -279 45q-143 45 -242 119
q33 -82 144 -213l110 -119q123 -123 312 -213q184 -90 368 -90q254 0 402 172q176 209 176 639zM1417 4125l-459 458q-16 -45 -16 -102q0 -139 111 -229q155 -127 364 -127zM881 5558q77 -78 221 -401l127 -307h-271l426 -426h299q82 0 82 82q0 94 -110 303l-144 262
l-356 295q-180 135 -274 192z" />
    <glyph glyph-name="onequarter" unicode="&#xbc;" 
d="M2298 2740l-914 709l1512 -3478h-266l753 -585h426zM1716 1937l-381 881l-549 -1417h770zM2425 422l-283 708h-1433l-381 -1159h-328l676 -585h155l381 1036h1213zM2470 4301l-393 282q0 -323 -185 -483q-159 -139 -413 -139q-140 0 -279 45q-143 45 -242 119
q33 -82 144 -213l110 -119q123 -123 312 -213q184 -90 368 -90q254 0 402 172q176 209 176 639zM1417 4125l-459 458q-16 -45 -16 -102q0 -139 111 -229q155 -127 364 -127zM2064 4882q62 107 62 230q0 172 -111 344q-114 172 -315 291q102 -168 102 -324q0 -197 -151 -319
q-156 -127 -377 -127v-205h-172l409 -393h222v299q118 12 168 41q73 41 163 163zM1622 5530q-29 159 -152 254q-122 90 -282 90q-189 0 -340 -127l348 -316q78 70 152 86q73 13 274 13z" />
    <glyph glyph-name="onehalf" unicode="&#xbd;" 
d="M2298 2740l-914 709l1512 -3478h-266l753 -585h426zM1716 1937l-381 881l-549 -1417h770zM2425 422l-283 708h-1433l-381 -1159h-328l676 -585h155l381 1036h1213zM2470 4301l-393 282q0 -323 -185 -483q-159 -139 -413 -139q-140 0 -279 45q-143 45 -242 119
q33 -82 144 -213l110 -119q123 -123 312 -213q184 -90 368 -90q254 0 402 172q176 209 176 639zM1417 4125l-459 458q-16 -45 -16 -102q0 -139 111 -229q155 -127 364 -127zM1368 4694h238v344q4 21 8 29q20 33 57 33q45 0 107 -46q82 -61 188 -188l172 -131q66 -49 82 -74
q78 -41 143 -41q148 0 234 197q82 192 82 475q-103 135 -258 303l-74 74q-16 29 -33 29q-33 0 -37 -91q-4 -90 -8 -143q-45 -192 -119 -274q-77 -86 -172 -86q-114 0 -254 114q-45 37 -118 119q-99 127 -185 197q-90 69 -164 69q-98 0 -122 -139v-250h-205q-29 0 -29 -16
q0 -25 53 -78l54 -49q36 -62 167.5 -180.5t192.5 -196.5z" />
    <glyph glyph-name="threequarters" unicode="&#xbe;" 
d="M2298 2740l-914 709l1512 -3478h-266l753 -585h426zM1716 1937l-381 881l-549 -1417h770zM2425 422l-283 708h-1433l-381 -1159h-328l676 -585h155l381 1036h1213zM2470 4301l-393 282q0 -323 -185 -483q-159 -139 -413 -139q-140 0 -279 45q-143 45 -242 119
q33 -82 144 -213l110 -119q123 -123 312 -213q184 -90 368 -90q254 0 402 172q176 209 176 639zM1417 4125l-459 458q-16 -45 -16 -102q0 -139 111 -229q155 -127 364 -127zM2126 5259l-332 205l-299 -725h-250l438 -438z" />
    <glyph glyph-name="AE" unicode="&#xc6;" 
d="M2298 2740l-914 709l1512 -3478h-266l753 -585h426zM1716 1937l-381 881l-549 -1417h770zM2425 422l-283 708h-1433l-381 -1159h-328l676 -585h155l381 1036h1213zM2470 4301l-393 282q0 -323 -185 -483q-159 -139 -413 -139q-140 0 -279 45q-143 45 -242 119
q33 -82 144 -213l110 -119q123 -123 312 -213q184 -90 368 -90q254 0 402 172q176 209 176 639zM1417 4125l-459 458q-16 -45 -16 -102q0 -139 111 -229q155 -127 364 -127zM2388 -1417l-614 741l-29 -528l-225 -37l536 -647h332v471z" />
    <glyph glyph-name="Ccedilla" unicode="&#xc7;" 
d="M2298 2740l-914 709l1512 -3478h-266l753 -585h426zM1716 1937l-381 881l-549 -1417h770zM2425 422l-283 708h-1433l-381 -1159h-328l676 -585h155l381 1036h1213zM1606 4157l-299 299q-25 -73 -209 -323l-172 -230q0 -16 -49 -16q-17 0 -66 4t-74 4q-41 0 -53 -4
t-12 -16q0 -8 4 -17l332 -376h172l217 290q164 226 209 308v77zM2519 3699q-57 53 -147 168q-160 213 -185 213q-110 49 -377 254q-90 65 -254 200q-45 37 -69 49h-21q0 -32 217 -311q234 -299 254 -369h-254l459 -421h377v217zM78 5431q78 -78 217 -401l127 -307h-250
l426 -426h283q86 0 86 82q0 86 -107 286q-139 258 -139 262q-197 177 -365 308q-168 127 -278 196z" />
    <glyph glyph-name="Egrave" unicode="&#xc8;" 
d="M2298 2740l-914 709l1512 -3478h-266l753 -585h426zM1716 1937l-381 881l-549 -1417h770zM2425 422l-283 708h-1433l-381 -1159h-328l676 -585h155l381 1036h1213zM1606 4157l-299 299q-25 -73 -209 -323l-172 -230q0 -16 -49 -16q-17 0 -66 4t-74 4q-41 0 -53 -4
t-12 -16q0 -8 4 -17l332 -376h172l217 290q164 226 209 308v77zM2519 3699q-57 53 -147 168q-160 213 -185 213q-110 49 -377 254q-90 65 -254 200q-45 37 -69 49h-21q0 -32 217 -311q234 -299 254 -369h-254l459 -421h377v217zM3084 4534q66 103 66 234q0 172 -111 340
q-110 168 -303 291q98 -173 98 -324q0 -197 -147 -320q-152 -127 -373 -127v-221h-176l393 -377h238v283q119 29 168 57q69 45 147 164zM2658 5181q-28 160 -147 254q-123 91 -283 91q-188 0 -340 -127l344 -316q78 70 156 86q74 12 270 12z" />
    <glyph glyph-name="Eacute" unicode="&#xc9;" 
d="M2298 2740l-914 709l1512 -3478h-266l753 -585h426zM1716 1937l-381 881l-549 -1417h770zM2425 422l-283 708h-1433l-381 -1159h-328l676 -585h155l381 1036h1213zM1606 4157l-299 299q-25 -73 -209 -323l-172 -230q0 -16 -49 -16q-17 0 -66 4t-74 4q-41 0 -53 -4
t-12 -16q0 -8 4 -17l332 -376h172l217 290q164 226 209 308v77zM2519 3699q-57 53 -147 168q-160 213 -185 213q-110 49 -377 254q-90 65 -254 200q-45 37 -69 49h-21q0 -32 217 -311q234 -299 254 -369h-254l459 -421h377v217zM1130 4850l173 188q4 16 12 28.5t37 12.5
q45 0 106 -45q90 -61 209 -201q37 -41 119 -106q78 -66 143 -103q66 -41 127 -41q144 0 234 201q86 197 86 475l-213 246q-41 49 -119 131q-25 29 -37 29q-33 0 -41 -82q-12 -82 -16 -168q-41 -193 -111 -270.5t-164 -77.5q-114 0 -262 119q-45 36 -123 118
q-82 115 -172 185q-94 65 -172 65q-102 0 -131 -139v-238h-205q8 -37 17 -69q20 -21 78 -70l331 -381z" />
    <glyph glyph-name="Ecircumflex" unicode="&#xca;" 
d="M2298 2740l-914 709l1512 -3478h-266l753 -585h426zM1716 1937l-381 881l-549 -1417h770zM2425 422l-283 708h-1433l-381 -1159h-328l676 -585h155l381 1036h1213zM1606 4157l-299 299q-25 -73 -209 -323l-172 -230q0 -16 -49 -16q-17 0 -66 4t-74 4q-41 0 -53 -4
t-12 -16q0 -8 4 -17l332 -376h172l217 290q164 226 209 308v77zM2519 3699q-57 53 -147 168q-160 213 -185 213q-110 49 -377 254q-90 65 -254 200q-45 37 -69 49h-21q0 -32 217 -311q234 -299 254 -369h-254l459 -421h377v217zM3023 4862l-377 254l-332 -680h-254l381 -377
h205z" />
    <glyph glyph-name="Edieresis" unicode="&#xcb;" 
d="M2298 2740l-914 709l1512 -3478h-266l753 -585h426zM1716 1937l-381 881l-549 -1417h770zM2425 422l-283 708h-1433l-381 -1159h-328l676 -585h155l381 1036h1213zM1606 4157l-299 299q-25 -73 -209 -323l-172 -230q0 -16 -49 -16q-17 0 -66 4t-74 4q-41 0 -53 -4
t-12 -16q0 -8 4 -17l332 -376h172l217 290q164 226 209 308v77zM2519 3699q-57 53 -147 168q-160 213 -185 213q-110 49 -377 254q-90 65 -254 200q-45 37 -69 49h-21q0 -32 217 -311q234 -299 254 -369h-254l459 -421h377v217zM2281 -1389l-614 758v-581h-254l537 -631h331
v454z" />
    <glyph glyph-name="Igrave" unicode="&#xcc;" horiz-adv-x="3072" 
d="M1446 3355v-238h-1163v-1229h741v504h1102v254zM2077 1257l-631 631v-282h-1163v-1307h786v676h1008v282zM1495 299v-238h-1507l704 -704h1512v332zM377 4723q78 -74 217 -406l127 -319h-250l426 -410h283q123 0 123 41q0 16 -46 86l-135 283q-78 168 -98 221
q-389 315 -455 364q-131 103 -192 140z" />
    <glyph glyph-name="Icircumflex" unicode="&#xce;" horiz-adv-x="3072" 
d="M1446 3355v-238h-1163v-1229h741v504h1102v254zM2077 1257l-631 631v-282h-1163v-1307h786v676h1008v282zM1495 299v-238h-1507l704 -704h1512v332zM1606 4014q65 107 65 238q0 172 -110.5 340t-303.5 290q99 -180 99 -323q0 -201 -148 -324q-151 -127 -377 -127v-217
h-172l394 -381h237v283q115 12 176 53q58 41 140 168zM1180 4661q-29 164 -152 258q-123 90 -283 90q-184 0 -335 -127l344 -315q77 66 155 82q74 12 271 12z" />
    <glyph glyph-name="Idieresis" unicode="&#xcf;" horiz-adv-x="3072" 
d="M1446 3355v-238h-1163v-1229h741v504h1102v254zM2077 1257l-631 631v-282h-1163v-1307h786v676h1008v282zM1495 299v-238h-1507l704 -704h1512v332zM504 3654h221v376q4 13 4 17q16 45 57 45q50 0 123 -49q70 -53 176 -185q29 -28 86 -73l168 -131q78 -41 144 -41
q147 0 229 192q82 193 82 479q-98 140 -254 304l-74 73q-16 29 -32 29q-37 0 -41 -90t-9 -144q-45 -192 -118 -274q-78 -86 -168 -86q-115 0 -254 115q-45 37 -119 118q-94 127 -188.5 197t-167.5 70q-103 0 -119 -140v-254h-205q-8 -20 -12 -40q16 -25 94 -99
q41 -69 168 -192q160 -156 209 -217z" />
    <glyph glyph-name="Eth" unicode="&#xd0;" horiz-adv-x="3072" 
d="M1446 3355v-238h-1163v-1229h741v504h1102v254zM2077 1257l-631 631v-282h-1163v-1307h786v676h1008v282zM1495 299v-238h-1507l704 -704h1512v332zM1638 4284l-381 250l-331 -676h-267l394 -376h204z" />
    <glyph glyph-name="Ntilde" unicode="&#xd1;" horiz-adv-x="3072" 
d="M1446 3355v-238h-1163v-1229h741v504h1102v254zM2077 1257l-631 631v-282h-1163v-1307h786v676h1008v282zM1495 299v-238h-1507l704 -704h1512v332zM1765 -1573l-630 754v-582h-254l536 -647h348v475z" />
    <glyph glyph-name="Ograve" unicode="&#xd2;" horiz-adv-x="3072" 
d="M1446 3355v-238h-1163v-1229h741v504h1102v254zM2077 1257l-631 631v-282h-1163v-1307h786v676h1008v282zM1495 299v-238h-1507l704 -704h1512v332zM1036 4125l-282 282q-33 -53 -226 -319l-168 -230q0 -16 -41 -16q-16 0 -69 4t-78 4q-37 0 -53 -8q-13 -8 -13 -25v-8
l332 -360h176l217 291q156 209 205 290v95zM1950 3654q-49 53 -193 233q-110 143 -135 143q-119 66 -381 263q-90 65 -250 196q-41 29 -73 45h-21q0 -24 225 -311q226 -287 246 -365h-250l455 -409h377v205zM-487 5403q77 -70 217 -394q45 -106 127 -315h-267l426 -410h295
q82 0 82 78q0 86 -110 291l-148 262l-356 291q-180 143 -266 197z" />
    <glyph glyph-name="Oacute" unicode="&#xd3;" horiz-adv-x="3072" 
d="M1446 3355v-238h-1163v-1229h741v504h1102v254zM2077 1257l-631 631v-282h-1163v-1307h786v676h1008v282zM1495 299v-238h-1507l704 -704h1512v332zM1036 4125l-282 282q-33 -53 -226 -319l-168 -230q0 -16 -41 -16q-16 0 -69 4t-78 4q-37 0 -53 -8q-13 -8 -13 -25v-8
l332 -360h176l217 291q156 209 205 290v95zM1950 3654q-49 53 -193 233q-110 143 -135 143q-119 66 -381 263q-90 65 -250 196q-41 29 -73 45h-21q0 -24 225 -311q226 -287 246 -365h-250l455 -409h377v205zM2515 4473q65 102 65 233q0 172 -110.5 340t-302.5 291
q98 -172 98 -323q0 -197 -147 -320q-152 -127 -373 -127v-221h-193l410 -377h238v299q118 12 167 41q70 41 148 164zM2073 5116q-29 164 -152 258q-123 90 -283 90q-184 0 -335 -127l348 -315q73 65 155 82q82 12 267 12z" />
    <glyph glyph-name="Ocircumflex" unicode="&#xd4;" horiz-adv-x="3072" 
d="M1446 3355v-238h-1163v-1229h741v504h1102v254zM2077 1257l-631 631v-282h-1163v-1307h786v676h1008v282zM1495 299v-238h-1507l704 -704h1512v332zM1036 4125l-282 282q-33 -53 -226 -319l-168 -230q0 -16 -41 -16q-16 0 -69 4t-78 4q-37 0 -53 -8q-13 -8 -13 -25v-8
l332 -360h176l217 291q156 209 205 290v95zM1950 3654q-49 53 -193 233q-110 143 -135 143q-119 66 -381 263q-90 65 -250 196q-41 29 -73 45h-21q0 -24 225 -311q226 -287 246 -365h-250l455 -409h377v205zM610 4866l172 188q4 17 12.5 29t36.5 12q46 0 107 -45
q86 -61 205 -200q33 -29 127 -103q94 -78 127 -102q69 -41 135 -41q147 0 237 197q86 196 86 475l-213 245q-40 50 -118 131q-25 29 -37 29q-33 0 -41 -82q-12 -82 -16 -168q-46 -188 -115 -270q-74 -82 -168 -82q-115 0 -258 115q-45 37 -123 114q-82 119 -172 193
q-94 70 -172 70q-103 0 -127 -140v-233h-205q8 -37 16 -70l78 -74l332 -376z" />
    <glyph glyph-name="Otilde" unicode="&#xd5;" horiz-adv-x="3072" 
d="M1446 3355v-238h-1163v-1229h741v504h1102v254zM2077 1257l-631 631v-282h-1163v-1307h786v676h1008v282zM1495 299v-238h-1507l704 -704h1512v332zM1036 4125l-282 282q-33 -53 -226 -319l-168 -230q0 -16 -41 -16q-16 0 -69 4t-78 4q-37 0 -53 -8q-13 -8 -13 -25v-8
l332 -360h176l217 291q156 209 205 290v95zM1950 3654q-49 53 -193 233q-110 143 -135 143q-119 66 -381 263q-90 65 -250 196q-41 29 -73 45h-21q0 -24 225 -311q226 -287 246 -365h-250l455 -409h377v205zM2454 4817l-377 254l-332 -680h-270l397 -361h205z" />
    <glyph glyph-name="Odieresis" unicode="&#xd6;" horiz-adv-x="3072" 
d="M1446 3355v-238h-1163v-1229h741v504h1102v254zM2077 1257l-631 631v-282h-1163v-1307h786v676h1008v282zM1495 299v-238h-1507l704 -704h1512v332zM1036 4125l-282 282q-33 -53 -226 -319l-168 -230q0 -16 -41 -16q-16 0 -69 4t-78 4q-37 0 -53 -8q-13 -8 -13 -25v-8
l332 -360h176l217 291q156 209 205 290v95zM1950 3654q-49 53 -193 233q-110 143 -135 143q-119 66 -381 263q-90 65 -250 196q-41 29 -73 45h-21q0 -24 225 -311q226 -287 246 -365h-250l455 -409h377v205zM1712 -1556l-614 753v-581h-254l536 -631h332v459z" />
    <glyph glyph-name="multiply" unicode="&#xd7;" horiz-adv-x="1556" 
d="M1053 2662l-820 660v-3310h-245l671 -655h377zM160 4801q73 -74 205 -398l118 -311h-233l409 -422h283q127 0 127 41q0 12 -12 41l-21 41q-57 106 -143 291l-107 229l-364 291q-193 151 -262 197z" />
    <glyph glyph-name="Oslash" unicode="&#xd8;" horiz-adv-x="1556" 
d="M1053 2662l-820 660v-3310h-245l671 -655h377zM1004 3998q61 106 61 233q0 172 -111 344q-114 168 -311 291q102 -176 102 -324q0 -196 -151 -319q-156 -127 -377 -127v-221h-172l410 -381h217v299q123 12 180 45t152 160zM565 4645q-28 164 -151 258q-123 90 -283 90
q-192 0 -336 -127l344 -315q78 65 156 82q74 12 270 12z" />
    <glyph glyph-name="Udieresis" unicode="&#xdc;" horiz-adv-x="1556" 
d="M1053 2662l-820 660v-3310h-245l671 -655h377zM-20 3559h221v377q4 21 8 29q20 33 57 33q45 0 111 -45q90 -62 201 -189q94 -78 159 -127q62 -53 78 -78q82 -45 143 -45q148 0 234 201q82 197 82 475q-74 115 -205 254l-127 123q-16 29 -33 29q-32 0 -37 -90
q-4 -91 -8 -144q-45 -196 -114.5 -278t-167.5 -82q-115 0 -258 114q-45 37 -123 119q-82 119 -172 193q-95 69 -172 69q-99 0 -123 -135v-254h-205q4 -37 8 -69q17 -21 70 -70q28 -41 225 -238q90 -90 148 -172z" />
    <glyph glyph-name="Yacute" unicode="&#xdd;" horiz-adv-x="1556" 
d="M1053 2662l-820 660v-3310h-245l671 -655h377zM1036 4329l-422 254l-303 -725h-233l332 -376h204z" />
    <glyph glyph-name="Thorn" unicode="&#xde;" horiz-adv-x="1556" 
d="M1053 2662l-820 660v-3310h-245l671 -655h377zM848 -1401l-615 758v-586h-249l532 -626h332v454z" />
    <glyph glyph-name="germandbls" unicode="&#xdf;" 
d="M1417 2470q148 74 303 106q152 29 283 29q127 0 229 -16q111 -25 222 -45q20 0 20 16v8q-4 21 -49 78q-164 250 -443 393q-278 139 -593 139q-345 0 -664 -163q-324 -168 -553 -496q-111 -176 -168 -405q-61 -230 -61 -484q0 -377 135 -696q131 -320 377 -463
q131 -86 180 -86q24 0 24 33q-53 176 -90 352q-37 172 -37 332q0 291 185 655q250 496 700 713zM3731 1008q0 41 4.5 90t4.5 78q0 512 -316 966q-278 402 -778 725q188 -172 320 -467q163 -364 163 -749q0 -242 -65 -484q-66 -245 -213 -491q-221 -385 -615 -586
q-360 -184 -790 -184q-275 0 -537 82t-454 229q-33 25 -41 29h-21q0 -29 209 -246l262 -266q312 -205 623 -307.5t581 -102.5q721 0 1221 586q442 520 442 1098zM1290 4612q82 -78 221 -397l127 -312h-254l410 -421h299q82 0 82 82q0 90 -111 299l-143 262l-365 290
q-196 152 -266 197z" />
    <glyph glyph-name="aacute" unicode="&#xe1;" 
d="M1417 2470q148 74 303 106q152 29 283 29q127 0 229 -16q111 -25 222 -45q20 0 20 16v8q-4 21 -49 78q-164 250 -443 393q-278 139 -593 139q-345 0 -664 -163q-324 -168 -553 -496q-111 -176 -168 -405q-61 -230 -61 -484q0 -377 135 -696q131 -320 377 -463
q131 -86 180 -86q24 0 24 33q-53 176 -90 352q-37 172 -37 332q0 291 185 655q250 496 700 713zM3731 1008q0 41 4.5 90t4.5 78q0 512 -316 966q-278 402 -778 725q188 -172 320 -467q163 -364 163 -749q0 -242 -65 -484q-66 -245 -213 -491q-221 -385 -615 -586
q-360 -184 -790 -184q-275 0 -537 82t-454 229q-33 25 -41 29h-21q0 -29 209 -246l262 -266q312 -205 623 -307.5t581 -102.5q721 0 1221 586q442 520 442 1098zM2331 3998q65 102 65 229q0 168 -110 340q-115 168 -304 283q95 -160 95 -312q0 -192 -148 -315
q-151 -127 -373 -127v-221h-172l394 -393h237v299q119 12 168 41q70 41 148 176zM1905 4645q-29 156 -148 250q-123 90 -282 90q-189 0 -345 -135l349 -299q77 65 155 82q74 12 271 12z" />
    <glyph glyph-name="acircumflex" unicode="&#xe2;" 
d="M1417 2470q148 74 303 106q152 29 283 29q127 0 229 -16q111 -25 222 -45q20 0 20 16v8q-4 21 -49 78q-164 250 -443 393q-278 139 -593 139q-345 0 -664 -163q-324 -168 -553 -496q-111 -176 -168 -405q-61 -230 -61 -484q0 -377 135 -696q131 -320 377 -463
q131 -86 180 -86q24 0 24 33q-53 176 -90 352q-37 172 -37 332q0 291 185 655q250 496 700 713zM3731 1008q0 41 4.5 90t4.5 78q0 512 -316 966q-278 402 -778 725q188 -172 320 -467q163 -364 163 -749q0 -242 -65 -484q-66 -245 -213 -491q-221 -385 -615 -586
q-360 -184 -790 -184q-275 0 -537 82t-454 229q-33 25 -41 29h-21q0 -29 209 -246l262 -266q312 -205 623 -307.5t581 -102.5q721 0 1221 586q442 520 442 1098zM1307 3482h204v376q5 13 5 17q20 49 69 49t123 -49q70 -49 180 -176l254 -217q74 -37 135 -37q156 0 246 196
q90 197 90 484q-102 127 -270 290q-29 29 -78 74q-16 29 -33 29q-32 0 -37 -90q-4 -90 -8 -144q-45 -192 -119 -270q-77 -82 -176 -82q-118 0 -262 111q-45 37 -119 114q-73 115 -163 189q-95 74 -168 74q-99 0 -127 -136v-254h-222l17 -61q20 -20 78 -66q28 -45 225 -241
q90 -90 156 -180z" />
    <glyph glyph-name="atilde" unicode="&#xe3;" 
d="M1417 2470q148 74 303 106q152 29 283 29q127 0 229 -16q111 -25 222 -45q20 0 20 16v8q-4 21 -49 78q-164 250 -443 393q-278 139 -593 139q-345 0 -664 -163q-324 -168 -553 -496q-111 -176 -168 -405q-61 -230 -61 -484q0 -377 135 -696q131 -320 377 -463
q131 -86 180 -86q24 0 24 33q-53 176 -90 352q-37 172 -37 332q0 291 185 655q250 496 700 713zM3731 1008q0 41 4.5 90t4.5 78q0 512 -316 966q-278 402 -778 725q188 -172 320 -467q163 -364 163 -749q0 -242 -65 -484q-66 -245 -213 -491q-221 -385 -615 -586
q-360 -184 -790 -184q-275 0 -537 82t-454 229q-33 25 -41 29h-21q0 -29 209 -246l262 -266q312 -205 623 -307.5t581 -102.5q721 0 1221 586q442 520 442 1098zM2331 4252l-332 282l-332 -676h-283l361 -376h254z" />
    <glyph glyph-name="adieresis" unicode="&#xe4;" 
d="M1417 2470q148 74 303 106q152 29 283 29q127 0 229 -16q111 -25 222 -45q20 0 20 16v8q-4 21 -49 78q-164 250 -443 393q-278 139 -593 139q-345 0 -664 -163q-324 -168 -553 -496q-111 -176 -168 -405q-61 -230 -61 -484q0 -377 135 -696q131 -320 377 -463
q131 -86 180 -86q24 0 24 33q-53 176 -90 352q-37 172 -37 332q0 291 185 655q250 496 700 713zM3731 1008q0 41 4.5 90t4.5 78q0 512 -316 966q-278 402 -778 725q188 -172 320 -467q163 -364 163 -749q0 -242 -65 -484q-66 -245 -213 -491q-221 -385 -615 -586
q-360 -184 -790 -184q-275 0 -537 82t-454 229q-33 25 -41 29h-21q0 -29 209 -246l262 -266q312 -205 623 -307.5t581 -102.5q721 0 1221 586q442 520 442 1098zM2347 -1589l-614 741v-586h-254l536 -626h332v471z" />
    <glyph glyph-name="aring" unicode="&#xe5;" 
d="M1417 2470q148 74 303 106q152 29 283 29q127 0 229 -16q111 -25 222 -45q20 0 20 16v8q-4 21 -49 78q-164 250 -443 393q-278 139 -593 139q-345 0 -664 -163q-324 -168 -553 -496q-111 -176 -168 -405q-61 -230 -61 -484q0 -377 135 -696q131 -320 377 -463
q131 -86 180 -86q24 0 24 33q-53 176 -90 352q-37 172 -37 332q0 291 185 655q250 496 700 713zM3731 1008q0 41 4.5 90t4.5 78q0 512 -316 966q-278 402 -778 725q188 -172 320 -467q163 -364 163 -749q0 -242 -65 -484q-66 -245 -213 -491q-221 -385 -615 -586
q-360 -184 -790 -184q-275 0 -537 82t-454 229q-33 25 -41 29h-21q0 -29 209 -246l262 -266q312 -205 623 -307.5t581 -102.5q721 0 1221 586q442 520 442 1098zM1827 4202l-303 300q-17 -58 -148 -246l-213 -307q0 -17 -53 -17q-16 0 -70 4q-57 4 -86 4q-45 0 -57 -4
q-4 -4 -4 -12q-4 -8 4 -21l344 -376h160l270 376l156 222v77zM2740 3744q-41 41 -188 229q-119 152 -144 152q-110 49 -376 254q-90 65 -254 200q-45 37 -74 49h-21q0 -28 226 -315q225 -291 245 -364h-249l471 -422h364v217zM1651 5956q78 -78 217 -402l127 -307h-266
l438 -426h287q90 0 90 86q0 78 -66 213q-45 94 -201 332q-180 168 -352 303q-147 115 -274 201z" />
    <glyph glyph-name="ae" unicode="&#xe6;" 
d="M1417 2470q148 74 303 106q152 29 283 29q127 0 229 -16q111 -25 222 -45q20 0 20 16v8q-4 21 -49 78q-164 250 -443 393q-278 139 -593 139q-345 0 -664 -163q-324 -168 -553 -496q-111 -176 -168 -405q-61 -230 -61 -484q0 -377 135 -696q131 -320 377 -463
q131 -86 180 -86q24 0 24 33q-53 176 -90 352q-37 172 -37 332q0 291 185 655q250 496 700 713zM3731 1008q0 41 4.5 90t4.5 78q0 512 -316 966q-278 402 -778 725q188 -172 320 -467q163 -364 163 -749q0 -242 -65 -484q-66 -245 -213 -491q-221 -385 -615 -586
q-360 -184 -790 -184q-275 0 -537 82t-454 229q-33 25 -41 29h-21q0 -29 209 -246l262 -266q312 -205 623 -307.5t581 -102.5q721 0 1221 586q442 520 442 1098zM1827 4202l-303 300q-17 -58 -148 -246l-213 -307q0 -17 -53 -17q-16 0 -70 4q-57 4 -86 4q-45 0 -57 -4
q-4 -4 -4 -12q-4 -8 4 -21l344 -376h160l270 376l156 222v77zM2740 3744q-41 41 -188 229q-119 152 -144 152q-110 49 -376 254q-90 65 -254 200q-45 37 -74 49h-21q0 -28 226 -315q225 -291 245 -364h-249l471 -422h364v217zM3113 5116q70 106 70 233q0 172 -111 340
t-303 291q102 -168 102 -323q0 -197 -151 -320q-156 -127 -377 -127v-221h-176l397 -377h234v299q118 12 168 41q69 41 147 164zM2687 5759q-29 164 -152 258q-122 90 -282 90q-185 0 -336 -127l348 -315q74 65 152 82q73 12 270 12z" />
    <glyph glyph-name="ccedilla" unicode="&#xe7;" 
d="M1417 2470q148 74 303 106q152 29 283 29q127 0 229 -16q111 -25 222 -45q20 0 20 16v8q-4 21 -49 78q-164 250 -443 393q-278 139 -593 139q-345 0 -664 -163q-324 -168 -553 -496q-111 -176 -168 -405q-61 -230 -61 -484q0 -377 135 -696q131 -320 377 -463
q131 -86 180 -86q24 0 24 33q-53 176 -90 352q-37 172 -37 332q0 291 185 655q250 496 700 713zM3731 1008q0 41 4.5 90t4.5 78q0 512 -316 966q-278 402 -778 725q188 -172 320 -467q163 -364 163 -749q0 -242 -65 -484q-66 -245 -213 -491q-221 -385 -615 -586
q-360 -184 -790 -184q-275 0 -537 82t-454 229q-33 25 -41 29h-21q0 -29 209 -246l262 -266q312 -205 623 -307.5t581 -102.5q721 0 1221 586q442 520 442 1098zM1827 4202l-303 300q-17 -58 -148 -246l-213 -307q0 -17 -53 -17q-16 0 -70 4q-57 4 -86 4q-45 0 -57 -4
q-4 -4 -4 -12q-4 -8 4 -21l344 -376h160l270 376l156 222v77zM2740 3744q-41 41 -188 229q-119 152 -144 152q-110 49 -376 254q-90 65 -254 200q-45 37 -74 49h-21q0 -28 226 -315q225 -291 245 -364h-249l471 -422h364v217zM1233 5190l172 188q4 16 12 28.5t37 12.5
q45 0 107 -45q90 -61 208 -201q29 -33 123 -110q111 -95 127 -111q70 -37 127 -37q152 0 242 201q90 197 90 483q-102 127 -258 287l-74 74q-16 28 -32 28q-33 0 -37 -90t-9 -143q-45 -193 -118 -270q-78 -82 -176 -82q-119 0 -263 110q-45 37 -122 115q-82 123 -172 197
q-95 69 -168 69q-99 0 -115 -139v-250h-221q8 -33 16 -61q21 -21 78 -66l332 -393z" />
    <glyph glyph-name="egrave" unicode="&#xe8;" 
d="M1417 2470q148 74 303 106q152 29 283 29q127 0 229 -16q111 -25 222 -45q20 0 20 16v8q-4 21 -49 78q-164 250 -443 393q-278 139 -593 139q-345 0 -664 -163q-324 -168 -553 -496q-111 -176 -168 -405q-61 -230 -61 -484q0 -377 135 -696q131 -320 377 -463
q131 -86 180 -86q24 0 24 33q-53 176 -90 352q-37 172 -37 332q0 291 185 655q250 496 700 713zM3731 1008q0 41 4.5 90t4.5 78q0 512 -316 966q-278 402 -778 725q188 -172 320 -467q163 -364 163 -749q0 -242 -65 -484q-66 -245 -213 -491q-221 -385 -615 -586
q-360 -184 -790 -184q-275 0 -537 82t-454 229q-33 25 -41 29h-21q0 -29 209 -246l262 -266q312 -205 623 -307.5t581 -102.5q721 0 1221 586q442 520 442 1098zM1827 4202l-303 300q-17 -58 -148 -246l-213 -307q0 -17 -53 -17q-16 0 -70 4q-57 4 -86 4q-45 0 -57 -4
q-4 -4 -4 -12q-4 -8 4 -21l344 -376h160l270 376l156 222v77zM2740 3744q-41 41 -188 229q-119 152 -144 152q-110 49 -376 254q-90 65 -254 200q-45 37 -74 49h-21q0 -28 226 -315q225 -291 245 -364h-249l471 -422h364v217zM3154 5353l-361 254l-348 -680h-250l377 -360
h221z" />
    <glyph glyph-name="eacute" unicode="&#xe9;" 
d="M1417 2470q148 74 303 106q152 29 283 29q127 0 229 -16q111 -25 222 -45q20 0 20 16v8q-4 21 -49 78q-164 250 -443 393q-278 139 -593 139q-345 0 -664 -163q-324 -168 -553 -496q-111 -176 -168 -405q-61 -230 -61 -484q0 -377 135 -696q131 -320 377 -463
q131 -86 180 -86q24 0 24 33q-53 176 -90 352q-37 172 -37 332q0 291 185 655q250 496 700 713zM3731 1008q0 41 4.5 90t4.5 78q0 512 -316 966q-278 402 -778 725q188 -172 320 -467q163 -364 163 -749q0 -242 -65 -484q-66 -245 -213 -491q-221 -385 -615 -586
q-360 -184 -790 -184q-275 0 -537 82t-454 229q-33 25 -41 29h-21q0 -29 209 -246l262 -266q312 -205 623 -307.5t581 -102.5q721 0 1221 586q442 520 442 1098zM1827 4202l-303 300q-17 -58 -148 -246l-213 -307q0 -17 -53 -17q-16 0 -70 4q-57 4 -86 4q-45 0 -57 -4
q-4 -4 -4 -12q-4 -8 4 -21l344 -376h160l270 376l156 222v77zM2740 3744q-41 41 -188 229q-119 152 -144 152q-110 49 -376 254q-90 65 -254 200q-45 37 -74 49h-21q0 -28 226 -315q225 -291 245 -364h-249l471 -422h364v217zM2265 -1638l-614 757v-585h-250l532 -631h332
v459z" />
    <glyph glyph-name="ecircumflex" unicode="&#xea;" 
d="M2613 2896q193 -172 336 -483q172 -377 172 -779q0 -237 -65.5 -479t-204.5 -479q-221 -385 -615 -586q-360 -184 -790 -184q-275 0 -537 82t-454 229q-33 25 -41 29h-21q0 -29 209 -246l262 -266q312 -205 623 -307.5t581 -102.5q721 0 1221 586q442 520 442 1098
q0 282 -180 766q-57 159 -180 430q176 86 262 221q82 135 82 295q0 262 -192 545q-197 282 -451 434q41 -70 66 -152q24 -86 24 -151q0 -209 -160 -353q-163 -147 -389 -147zM1417 2470q148 74 303 106q152 29 283 29q127 0 229 -16q111 -25 222 -45q20 0 20 16v8
q-4 21 -49 78q-164 250 -443 393q-278 139 -593 139q-345 0 -664 -163q-324 -168 -553 -496q-111 -176 -168 -405q-61 -230 -61 -484q0 -377 135 -696q131 -320 377 -463q131 -86 180 -86q24 0 24 33q-53 176 -90 352q-37 172 -37 332q0 291 185 655q250 496 700 713z
M2597 3793l270 -266q17 0 29 -9q12 -8 49 -8q-20 123 -143 205q-99 66 -205 78zM1290 4612q82 -78 221 -397l127 -312h-254l410 -421h299q82 0 82 82q0 90 -111 299l-143 262l-365 290q-196 152 -266 197z" />
    <glyph glyph-name="edieresis" unicode="&#xeb;" 
d="M2613 2896q193 -172 336 -483q172 -377 172 -779q0 -237 -65.5 -479t-204.5 -479q-221 -385 -615 -586q-360 -184 -790 -184q-275 0 -537 82t-454 229q-33 25 -41 29h-21q0 -29 209 -246l262 -266q312 -205 623 -307.5t581 -102.5q721 0 1221 586q442 520 442 1098
q0 282 -180 766q-57 159 -180 430q176 86 262 221q82 135 82 295q0 262 -192 545q-197 282 -451 434q41 -70 66 -152q24 -86 24 -151q0 -209 -160 -353q-163 -147 -389 -147zM1417 2470q148 74 303 106q152 29 283 29q127 0 229 -16q111 -25 222 -45q20 0 20 16v8
q-4 21 -49 78q-164 250 -443 393q-278 139 -593 139q-345 0 -664 -163q-324 -168 -553 -496q-111 -176 -168 -405q-61 -230 -61 -484q0 -377 135 -696q131 -320 377 -463q131 -86 180 -86q24 0 24 33q-53 176 -90 352q-37 172 -37 332q0 291 185 655q250 496 700 713z
M2597 3793l270 -266q17 0 29 -9q12 -8 49 -8q-20 123 -143 205q-99 66 -205 78zM2441 4014q66 107 66 238q0 172 -111 340q-110 168 -303 290q94 -163 94 -323q0 -201 -147 -324q-148 -127 -373 -127v-217h-188l409 -381h238v283q115 12 176 53q57 37 139 168zM1999 4661
q-29 164 -152 258q-123 90 -282 90q-185 0 -336 -127l344 -315q90 66 168 82q74 12 258 12z" />
    <glyph glyph-name="igrave" unicode="&#xec;" 
d="M2613 2896q193 -172 336 -483q172 -377 172 -779q0 -237 -65.5 -479t-204.5 -479q-221 -385 -615 -586q-360 -184 -790 -184q-275 0 -537 82t-454 229q-33 25 -41 29h-21q0 -29 209 -246l262 -266q312 -205 623 -307.5t581 -102.5q721 0 1221 586q442 520 442 1098
q0 282 -180 766q-57 159 -180 430q176 86 262 221q82 135 82 295q0 262 -192 545q-197 282 -451 434q41 -70 66 -152q24 -86 24 -151q0 -209 -160 -353q-163 -147 -389 -147zM1417 2470q148 74 303 106q152 29 283 29q127 0 229 -16q111 -25 222 -45q20 0 20 16v8
q-4 21 -49 78q-164 250 -443 393q-278 139 -593 139q-345 0 -664 -163q-324 -168 -553 -496q-111 -176 -168 -405q-61 -230 -61 -484q0 -377 135 -696q131 -320 377 -463q131 -86 180 -86q24 0 24 33q-53 176 -90 352q-37 172 -37 332q0 291 185 655q250 496 700 713z
M2597 3793l270 -266q17 0 29 -9q12 -8 49 -8q-20 123 -143 205q-99 66 -205 78zM1118 3715h205v381q12 25 20 33q25 20 50 20q45 0 110 -45q90 -61 197 -184q12 -12 160 -127q65 -49 90 -78q78 -41 143 -41q156 0 246 197q86 192 86 475q-82 110 -221 254l-127 123
q-17 28 -33 28q-33 0 -37 -90t-8 -143q-45 -189 -119 -270q-78 -86 -172 -86q-119 0 -262 114q-45 37 -123 119q-74 115 -164 188q-94 74 -168 74q-98 0 -127 -139v-266h-205q0 -33 5 -62q20 -20 73 -65q33 -49 123 -140q201 -200 258 -270z" />
    <glyph glyph-name="iacute" unicode="&#xed;" 
d="M2613 2896q193 -172 336 -483q172 -377 172 -779q0 -237 -65.5 -479t-204.5 -479q-221 -385 -615 -586q-360 -184 -790 -184q-275 0 -537 82t-454 229q-33 25 -41 29h-21q0 -29 209 -246l262 -266q312 -205 623 -307.5t581 -102.5q721 0 1221 586q442 520 442 1098
q0 282 -180 766q-57 159 -180 430q176 86 262 221q82 135 82 295q0 262 -192 545q-197 282 -451 434q41 -70 66 -152q24 -86 24 -151q0 -209 -160 -353q-163 -147 -389 -147zM1417 2470q148 74 303 106q152 29 283 29q127 0 229 -16q111 -25 222 -45q20 0 20 16v8
q-4 21 -49 78q-164 250 -443 393q-278 139 -593 139q-345 0 -664 -163q-324 -168 -553 -496q-111 -176 -168 -405q-61 -230 -61 -484q0 -377 135 -696q131 -320 377 -463q131 -86 180 -86q24 0 24 33q-53 176 -90 352q-37 172 -37 332q0 291 185 655q250 496 700 713z
M2597 3793l270 -266q17 0 29 -9q12 -8 49 -8q-20 123 -143 205q-99 66 -205 78zM2331 4252l-332 282l-332 -676h-283l361 -376h254z" />
    <glyph glyph-name="icircumflex" unicode="&#xee;" 
d="M2613 2896q193 -172 336 -483q172 -377 172 -779q0 -237 -65.5 -479t-204.5 -479q-221 -385 -615 -586q-360 -184 -790 -184q-275 0 -537 82t-454 229q-33 25 -41 29h-21q0 -29 209 -246l262 -266q312 -205 623 -307.5t581 -102.5q721 0 1221 586q442 520 442 1098
q0 282 -180 766q-57 159 -180 430q176 86 262 221q82 135 82 295q0 262 -192 545q-197 282 -451 434q41 -70 66 -152q24 -86 24 -151q0 -209 -160 -353q-163 -147 -389 -147zM1417 2470q148 74 303 106q152 29 283 29q127 0 229 -16q111 -25 222 -45q20 0 20 16v8
q-4 21 -49 78q-164 250 -443 393q-278 139 -593 139q-345 0 -664 -163q-324 -168 -553 -496q-111 -176 -168 -405q-61 -230 -61 -484q0 -377 135 -696q131 -320 377 -463q131 -86 180 -86q24 0 24 33q-53 176 -90 352q-37 172 -37 332q0 291 185 655q250 496 700 713z
M2597 3793l270 -266q17 0 29 -9q12 -8 49 -8q-20 123 -143 205q-99 66 -205 78zM2331 -1638l-631 757v-581h-254l553 -647h332v471z" />
    <glyph glyph-name="idieresis" unicode="&#xef;" horiz-adv-x="3236" 
d="M770 2691l-782 664v-2380q0 -389 381 -610q303 -177 667 -177q-73 45 -151 103q-78 53 -115 225v2175zM2912 975v1765l-835 709v-2441q0 -484 -357 -787q-331 -282 -790 -282q-234 0 -443 81q-213 78 -381 246q-73 78 -106 94q-8 -4 -16 -4q0 -69 249 -348
q295 -332 586 -495q328 -148 656 -148q315 0 602 135q282 131 503 394q111 114 164 225q168 336 168 856zM770 4612q82 -78 221 -397l127 -312h-254l426 -421h283q94 0 94 86q0 73 -70 213l-180 344l-373 295q-196 147 -274 192z" />
    <glyph glyph-name="ntilde" unicode="&#xf1;" horiz-adv-x="3236" 
d="M770 2691l-782 664v-2380q0 -389 381 -610q303 -177 667 -177q-73 45 -151 103q-78 53 -115 225v2175zM2912 975v1765l-835 709v-2441q0 -484 -357 -787q-331 -282 -790 -282q-234 0 -443 81q-213 78 -381 246q-73 78 -106 94q-8 -4 -16 -4q0 -69 249 -348
q295 -332 586 -495q328 -148 656 -148q315 0 602 135q282 131 503 394q111 114 164 225q168 336 168 856zM1937 4014q66 107 66 238q0 172 -111 340q-110 168 -303 290q94 -163 94 -323q0 -201 -147 -324q-147 -127 -373 -127v-217h-172l393 -381h238v283q115 12 176 53
q57 37 139 168zM1511 4661q-28 164 -151 258q-123 90 -283 90q-188 0 -340 -127l348 -315q78 66 156 82q74 12 270 12z" />
    <glyph glyph-name="ograve" unicode="&#xf2;" horiz-adv-x="3236" 
d="M770 2691l-782 664v-2380q0 -389 381 -610q303 -177 667 -177q-73 45 -151 103q-78 53 -115 225v2175zM2912 975v1765l-835 709v-2441q0 -484 -357 -787q-331 -282 -790 -282q-234 0 -443 81q-213 78 -381 246q-73 78 -106 94q-8 -4 -16 -4q0 -69 249 -348
q295 -332 586 -495q328 -148 656 -148q315 0 602 135q282 131 503 394q111 114 164 225q168 336 168 856zM627 3654h221v376q8 21 12 29q21 33 62 33q49 0 114 -45q86 -62 193 -189q12 -24 78 -73l172 -131q69 -41 135 -41q147 0 237 196q86 197 86 475q-102 136 -258 304
l-73 73q-25 29 -41 29q-37 0 -41 -90l-13 -144q-45 -196 -114.5 -278t-167.5 -82q-115 0 -258 115q-45 37 -123 118q-86 123 -176 197q-90 70 -168 70q-103 0 -127 -140v-254h-205l8 -69q17 -21 70 -70q41 -57 225 -241q94 -95 152 -168z" />
    <glyph glyph-name="oacute" unicode="&#xf3;" horiz-adv-x="3236" 
d="M770 2691l-782 664v-2380q0 -389 381 -610q303 -177 667 -177q-73 45 -151 103q-78 53 -115 225v2175zM2912 975v1765l-835 709v-2441q0 -484 -357 -787q-331 -282 -790 -282q-234 0 -443 81q-213 78 -381 246q-73 78 -106 94q-8 -4 -16 -4q0 -69 249 -348
q295 -332 586 -495q328 -148 656 -148q315 0 602 135q282 131 503 394q111 114 164 225q168 336 168 856zM1778 4284l-361 299l-299 -680h-299l393 -376h205z" />
    <glyph glyph-name="ocircumflex" unicode="&#xf4;" horiz-adv-x="3236" 
d="M770 2691l-782 664v-2380q0 -389 381 -610q303 -177 667 -177q-73 45 -151 103q-78 53 -115 225v2175zM2912 975v1765l-835 709v-2441q0 -484 -357 -787q-331 -282 -790 -282q-234 0 -443 81q-213 78 -381 246q-73 78 -106 94q-8 -4 -16 -4q0 -69 249 -348
q295 -332 586 -495q328 -148 656 -148q315 0 602 135q282 131 503 394q111 114 164 225q168 336 168 856zM1921 -1556l-631 753v-581h-237l536 -631h332v459z" />
    <glyph glyph-name="otilde" unicode="&#xf5;" horiz-adv-x="3564" 
d="M2093 3084q70 0 143 29q111 41 111 115l-254 221v-365zM786 2691l-786 664v-2380q0 -389 385 -610q307 -177 668 -177q-74 45 -148 95q-82 65 -119 233v2175zM2929 975v1261q127 37 233 185q90 127 90 270v45q-8 33 -8 49q-53 209 -315 533q-242 299 -377 381
q41 -70 65 -152q25 -86 25 -151q0 -209 -160 -353q-164 -147 -389 -147v-1888q0 -484 -356 -787q-332 -282 -791 -282q-233 0 -442 81q-213 78 -381 246q-74 78 -107 94q-8 -4 -16 -4q0 -69 250 -348q295 -332 581 -495q328 -148 660 -148q315 0 602 135q283 131 504 394
q110 114 164 225q168 336 168 856zM2077 3793l270 -266q29 -17 94 -17q-33 127 -143 201q-111 70 -221 82zM786 4612q78 -74 218 -397l126 -312h-249l426 -421h282q94 0 94 86q0 73 -69 213l-180 344l-373 295q-197 147 -275 192z" />
    <glyph glyph-name="odieresis" unicode="&#xf6;" horiz-adv-x="3564" 
d="M2093 3084q70 0 143 29q111 41 111 115l-254 221v-365zM786 2691l-786 664v-2380q0 -389 385 -610q307 -177 668 -177q-74 45 -148 95q-82 65 -119 233v2175zM2929 975v1261q127 37 233 185q90 127 90 270v45q-8 33 -8 49q-53 209 -315 533q-242 299 -377 381
q41 -70 65 -152q25 -86 25 -151q0 -209 -160 -353q-164 -147 -389 -147v-1888q0 -484 -356 -787q-332 -282 -791 -282q-233 0 -442 81q-213 78 -381 246q-74 78 -107 94q-8 -4 -16 -4q0 -69 250 -348q295 -332 581 -495q328 -148 660 -148q315 0 602 135q283 131 504 394
q110 114 164 225q168 336 168 856zM2077 3793l270 -266q29 -17 94 -17q-33 127 -143 201q-111 70 -221 82zM1950 4014q69 107 69 238q0 172 -110.5 340t-302.5 290q94 -163 94 -323q0 -201 -148 -324q-147 -127 -372 -127v-217h-172l393 -381h237v283q115 12 172 53
q58 37 140 168zM1528 4661q-29 164 -152 258q-123 90 -286 90q-185 0 -336 -127l348 -315q78 66 155 82q74 12 271 12z" />
    <glyph glyph-name="divide" unicode="&#xf7;" horiz-adv-x="3564" 
d="M2093 3084q70 0 143 29q111 41 111 115l-254 221v-365zM786 2691l-786 664v-2380q0 -389 385 -610q307 -177 668 -177q-74 45 -148 95q-82 65 -119 233v2175zM2929 975v1261q127 37 233 185q90 127 90 270v45q-8 33 -8 49q-53 209 -315 533q-242 299 -377 381
q41 -70 65 -152q25 -86 25 -151q0 -209 -160 -353q-164 -147 -389 -147v-1888q0 -484 -356 -787q-332 -282 -791 -282q-233 0 -442 81q-213 78 -381 246q-74 78 -107 94q-8 -4 -16 -4q0 -69 250 -348q295 -332 581 -495q328 -148 660 -148q315 0 602 135q283 131 504 394
q110 114 164 225q168 336 168 856zM2077 3793l270 -266q29 -17 94 -17q-33 127 -143 201q-111 70 -221 82zM582 3715h221v381q12 25 20 33q25 20 49 20q46 0 111 -45q90 -61 197 -184q102 -82 163 -123q58 -45 91 -82q69 -41 135 -41q143 0 233 197q86 196 86 475
q-102 135 -258 303l-74 74q-24 28 -40 28q-37 0 -41 -90q-9 -90 -13 -143q-41 -189 -114 -270q-74 -86 -164 -86q-115 0 -258 114q-45 37 -123 119q-82 115 -176 188q-95 74 -168 74q-103 0 -131 -139v-250h-205q8 -37 16 -70l78 -73q49 -74 164 -193q147 -151 201 -217z
" />
    <glyph glyph-name="oslash" unicode="&#xf8;" horiz-adv-x="3564" 
d="M2093 3084q70 0 143 29q111 41 111 115l-254 221v-365zM786 2691l-786 664v-2380q0 -389 385 -610q307 -177 668 -177q-74 45 -148 95q-82 65 -119 233v2175zM2929 975v1261q127 37 233 185q90 127 90 270v45q-8 33 -8 49q-53 209 -315 533q-242 299 -377 381
q41 -70 65 -152q25 -86 25 -151q0 -209 -160 -353q-164 -147 -389 -147v-1888q0 -484 -356 -787q-332 -282 -791 -282q-233 0 -442 81q-213 78 -381 246q-74 78 -107 94q-8 -4 -16 -4q0 -69 250 -348q295 -332 581 -495q328 -148 660 -148q315 0 602 135q283 131 504 394
q110 114 164 225q168 336 168 856zM2077 3793l270 -266q29 -17 94 -17q-33 127 -143 201q-111 70 -221 82zM1794 4284l-360 299l-304 -680h-299l398 -376h205z" />
    <glyph glyph-name="ugrave" unicode="&#xf9;" horiz-adv-x="3564" 
d="M2093 3084q70 0 143 29q111 41 111 115l-254 221v-365zM786 2691l-786 664v-2380q0 -389 385 -610q307 -177 668 -177q-74 45 -148 95q-82 65 -119 233v2175zM2929 975v1261q127 37 233 185q90 127 90 270v45q-8 33 -8 49q-53 209 -315 533q-242 299 -377 381
q41 -70 65 -152q25 -86 25 -151q0 -209 -160 -353q-164 -147 -389 -147v-1888q0 -484 -356 -787q-332 -282 -791 -282q-233 0 -442 81q-213 78 -381 246q-74 78 -107 94q-8 -4 -16 -4q0 -69 250 -348q295 -332 581 -495q328 -148 660 -148q315 0 602 135q283 131 504 394
q110 114 164 225q168 336 168 856zM2077 3793l270 -266q29 -17 94 -17q-33 127 -143 201q-111 70 -221 82zM1999 -1638l-631 757v-581h-238l537 -647h332v471z" />
    <glyph glyph-name="uacute" unicode="&#xfa;" horiz-adv-x="3277" 
d="M991 2867l-1003 533l909 -1590l41 41l303 496zM1778 1434l835 1433l-487 488l-1102 -1876v-1418h-365l742 -704h377v2077zM754 4612q65 -74 204 -397q46 -107 127 -312h-254l426 -421h283q98 0 98 90t-110 291l-144 262l-372.5 294.5t-257.5 192.5z" />
    <glyph glyph-name="ucircumflex" unicode="&#xfb;" horiz-adv-x="3277" 
d="M991 2867l-1003 533l909 -1590l41 41l303 496zM1778 1434l835 1433l-487 488l-1102 -1876v-1418h-365l742 -704h377v2077zM1937 4014q66 107 66 238q0 172 -111 340q-110 168 -303 290q94 -163 94 -323q0 -201 -147 -324q-147 -127 -373 -127v-217h-172l393 -381h238v283
q115 12 176 53q57 37 139 168zM1511 4661q-28 164 -151 258q-123 90 -283 90q-188 0 -340 -127l348 -315q78 66 156 82q74 12 270 12z" />
    <glyph glyph-name="udieresis" unicode="&#xfc;" horiz-adv-x="3277" 
d="M991 2867l-1003 533l909 -1590l41 41l303 496zM1778 1434l835 1433l-487 488l-1102 -1876v-1418h-365l742 -704h377v2077zM721 3482h205v376q8 25 12 33q20 33 66 33q45 0 110 -45q90 -62 193 -180l249 -217q70 -37 132 -37q151 0 241 200q86 197 86 480q-73 90 -213 241
q-41 45 -119 123q-16 29 -32 29q-33 0 -37 -90t-8 -144q-45 -192 -119 -270q-78 -82 -176 -82q-119 0 -262 111q-45 37 -123 114q-78 115 -172.5 189t-167.5 74q-99 0 -115 -136v-254h-221l16 -61q21 -20 78 -66q33 -53 119 -139q201 -205 258 -282z" />
    <glyph glyph-name="yacute" unicode="&#xfd;" horiz-adv-x="3277" 
d="M991 2867l-1003 533l909 -1590l41 41l303 496zM1778 1434l835 1433l-487 488l-1102 -1876v-1418h-365l742 -704h377v2077zM1905 4284l-377 250l-332 -676h-270l397 -376h205z" />
    <glyph glyph-name="thorn" unicode="&#xfe;" horiz-adv-x="3277" 
d="M991 2867l-1003 533l909 -1590l41 41l303 496zM1778 1434l835 1433l-487 488l-1102 -1876v-1418h-365l742 -704h377v2077zM1638 -1417l-614 741v-565h-254l537 -647h331v471z" />
    <glyph glyph-name="dotoperator" unicode="&#x2219;" 
d="M2298 2740l-914 709l1512 -3478h-266l753 -585h426zM1716 1937l-381 881l-549 -1417h770zM2425 422l-283 708h-1433l-381 -1159h-328l676 -585h155l381 1036h1213zM1069 3621h221v377q8 20 13 28q20 33 61 33q45 0 111 -45q90 -61 192 -188q57 -37 135 -99
q74 -61 119 -106q70 -41 135 -41q144 0 234 197q86 196 86 475q-99 139 -254 303l-74 73q-25 29 -41 29q-41 0 -45 -90q-8 -90 -12 -143q-41 -189 -115 -271q-74 -86 -164 -86q-115 0 -258 115q-45 37 -123 119q-82 119 -172 192q-94 70 -172 70q-102 0 -127 -139v-250h-205
q-4 -21 -4 -41q21 -25 99 -103q32 -53 114 -139q201 -213 246 -270z" />
  </font>
</defs>
</svg>
