<?xml version="1.0" standalone="no"?>
<!DOCTYPE svg PUBLIC "-//W3C//DTD SVG 1.1//EN" "http://www.w3.org/Graphics/SVG/1.1/DTD/svg11.dtd" >
<svg>
<metadata>
Created by FontForge 20090622 at Tue Dec 18 01:52:58 2018
 By deploy user
Copyright (c) MY THUAT CONG NGHIEP HP
</metadata>
<defs>
<font id="HP-076Italic" horiz-adv-x="650" >
  <font-face 
    font-family="HP-076"
    font-weight="400"
    font-style="italic"
    font-stretch="normal"
    units-per-em="1000"
    panose-1="2 11 6 3 5 3 2 2 2 4"
    ascent="800"
    descent="-200"
    x-height="376"
    cap-height="694"
    bbox="-102 -270 1202 1068"
    underline-thickness="50"
    underline-position="5"
    unicode-range="U+0020-U+201D"
  />
<missing-glyph horiz-adv-x="476" 
 />
    <glyph glyph-name=".notdef" horiz-adv-x="476" 
 />
    <glyph glyph-name="space" unicode=" " horiz-adv-x="310" 
 />
    <glyph glyph-name="exclam" unicode="!" horiz-adv-x="404" 
d="M126 -12q-20 0 -37 15t-17 35q0 34 15 73q19 49 43 49q26 0 44 -19t18 -45q0 -35 -15 -67q-19 -41 -51 -41zM160 316l140 322l16 33q12 19 28 19q7 0 19 -3.5t28 -7t18 -4.5q17 -6 17 -17q0 -14 -16 -46q-11 -20 -14 -26l-178 -350q4 -12 4 -16q0 -15 -9 -29.5t-23 -14.5
q-18 0 -39 18t-21 36q0 13 6.5 32.5t23.5 53.5z" />
    <glyph glyph-name="quotedbl" unicode="&#x22;" horiz-adv-x="682" 
d="M300 588q0 31 30.5 64.5t61.5 33.5q21 0 36.5 -4t15.5 -20q0 -18 -17.5 -56t-30.5 -54q-32 -40 -57 -56q-19 -12 -35 -12l-10 2q14 17 23 31q13 19 21 37q-24 8 -31 15t-7 19zM470 588q0 32 30 65t62 33q20 0 35 -4t15 -20q0 -18 -16.5 -56t-29.5 -54q-33 -39 -59 -56
q-19 -12 -35 -12l-10 2q17 21 24 31q14 19 22 37q-24 8 -31 15t-7 19z" />
    <glyph glyph-name="numbersign" unicode="#" horiz-adv-x="769" 
d="M346 416l-44 -124h125l44 124h-125zM359 713h93l-75 -213h122l76 213h93l-75 -213h142l-29 -84h-143l-44 -123h151l-30 -84h-150l-76 -212h-93l76 212h-123l-77 -212h-93l76 212h-146l30 84h145l44 123h-154l30 84h154z" />
    <glyph glyph-name="dollar" unicode="$" horiz-adv-x="628" 
d="M284 374l36 114q-26 -4 -73 -29q-55 -29 -55 -47q0 -15 39 -27q26 -8 53 -11zM348 290l-32 -122l77 26q57 23 57 44q0 18 -42 33q-30 9 -60 19zM232 158l36 150q-62 11 -83 14t-49 14q-18 6 -25 18.5t-7 35.5q0 20 11.5 58.5t22.5 57.5q21 37 102 72q54 23 124 42
q37 95 49 116q41 74 89 74q13 0 20.5 -9.5t7.5 -22.5q0 -12 -4.5 -22.5t-13.5 -21.5q-26 -31 -35 -46.5t-21 -53.5l92 6q27 0 53 -2.5t44.5 -6.5t18.5 -17v-4q-6 -54 -21 -73.5t-61 -36.5q-26 -8 -42.5 -15.5t-35.5 -22.5q-6 -4 -16.5 -9t-17.5 -5q-12 0 -12 10
q3 10 30 30.5l42 31.5l-2 2l-120 -16l-44 -150l107 -38q67 -31 67 -76q0 -38 -25 -74q-21 -30 -57.5 -54t-79.5 -42q-35 -14 -86 -28l-24 -132l-45 10q-29 10 -29 32q0 14 5 39t5 31l-46 -2l-72 2q-65 0 -91.5 13.5t-26.5 36.5q0 18 21 47q25 35 53 35z" />
    <glyph glyph-name="percent" unicode="%" horiz-adv-x="748" 
d="M206 204l202 244q61 69 112 117q63 58 128 101l2 -28q0 -30 -22 -65q-25 -39 -94 -111q-86 -91 -167 -193q-90 -114 -149 -209q-10 -14 -19 -28q-12 -19 -17 -32q-8 -22 -9 -23q-7 -11 -21 -11q-20 0 -35 19.5t-15 40.5q0 33 40 93q20 30 64 85zM318 646q27 0 38.5 -15.5
t11.5 -44.5q0 -74 -58 -152q-63 -84 -134 -84q-39 0 -63.5 36t-24.5 78q0 86 76 159q66 64 128 71q13 0 24.5 -10.5t11.5 -21.5q0 -6 -10 -16zM244 600q-33 -21 -58.5 -60t-25.5 -76q0 -6 4 -18q1 -4 4 -12l6 -2q42 0 96 74q48 66 48 94q0 12 -16 12q-8 0 -20 -10t-18 -10
q-8 0 -20 8zM598 290q27 0 38.5 -15.5t11.5 -44.5q0 -75 -58 -153q-63 -85 -134 -85q-39 0 -63.5 37t-24.5 79q0 86 76 159q66 64 128 71q13 0 24.5 -10.5t11.5 -21.5q0 -6 -10 -16zM524 244q-33 -21 -58.5 -60t-25.5 -76q0 -6 4 -18q1 -4 4 -12l6 -2q42 0 96 74
q48 66 48 94q0 12 -16 12q-8 0 -20 -10t-18 -10q-8 0 -20 8z" />
    <glyph glyph-name="ampersand" unicode="&#x26;" horiz-adv-x="606" 
d="M340 466q90 55 124 88q40 39 40 70q0 12 -14 12q-73 -13 -109 -66q-19 -28 -41 -104zM294 182l-56 126q-39 -15 -88 -66q-54 -56 -54 -90q0 -11 11.5 -15.5t26.5 -4.5l10 2q38 0 73.5 12.5t76.5 35.5zM502 464l-148 -88q4 -32 16 -62.5t32 -61.5l160 128l13 -40t7 -38
q0 -44 -58 -97l-54 -47q3 -13 11.5 -19.5t18.5 -6.5q6 0 16 4t14 4q16 0 16 -18q0 -24 -33 -72q-36 -52 -61 -52q-15 0 -46 31q-32 35 -40 43q-101 -60 -128 -71q-46 -19 -86 -19q-64 0 -111 41.5t-47 102.5v14q7 74 41 125q28 42 79 77q28 19 102 58q0 5 -2 15t-2 15
q0 104 96 183q88 73 186 73q38 0 68 -27t30 -65q0 -41 -27 -76q-21 -26 -63 -54z" />
    <glyph glyph-name="quotesingle" unicode="'" horiz-adv-x="520" 
d="M182 588q0 31 30.5 64.5t61.5 33.5q21 0 36.5 -4t15.5 -20q0 -18 -17.5 -56t-30.5 -54q-32 -40 -57 -56q-19 -12 -35 -12l-10 2q14 17 23 31q13 19 21 37q-24 8 -31 15t-7 19z" />
    <glyph glyph-name="parenleft" unicode="(" horiz-adv-x="564" 
d="M144 406q38 90 90 174q78 126 128 126q36 0 36 -38q0 -9 -7.5 -23.5t-14.5 -24.5q-80 -112 -144 -277q-70 -180 -70 -303q0 -25 1 -36.5t7 -51.5l10 2q7 0 11.5 -15.5t4.5 -24.5q0 -29 -18 -51.5t-46 -22.5q-40 0 -61 49.5t-21 154.5q0 85 28 185q23 82 66 177z" />
    <glyph glyph-name="parenright" unicode=")" horiz-adv-x="564" 
d="M272 142q-47 -103 -91 -175q-78 -127 -127 -127q-36 0 -36 38q0 9 7.5 24.5t14.5 23.5q80 113 143 279q69 181 69 303q0 20 -1 29.5t-7 58.5q-2 -2 -10 -2q-7 0 -10.5 15.5t-3.5 24.5q0 28 17.5 50t44.5 22q52 0 72 -80q12 -47 12 -122q0 -85 -28 -185q-23 -82 -66 -177z
" />
    <glyph glyph-name="asterisk" unicode="*" horiz-adv-x="638" 
d="M374 464l88 -70q8 -8 16 -15q10 -11 10 -19q0 -10 -10 -31q-13 -27 -14 -31l-122 106l-10 -168q-25 7 -49 15q-19 10 -19 43q0 28 4 56q7 37 10 56l-96 -66q-9 -7 -17 -14q-12 -8 -21 -8q-13 0 -20.5 11t-7.5 25q0 34 55 70l85 50q-32 29 -68 50q-22 13 -25 15
q-15 13 -15 41q0 16 6 28t20 12q17 0 32 -12l24 -24q9 -9 29 -26t29 -26l2 72l-2 12q0 21 12 36q12 12 21 19q17 13 25 13q24 0 24 -24q0 -7 -2 -15t-4 -13q-6 -21 -6 -50l-6 -54q33 20 61 34q45 22 65 22q16 0 29.5 -20t22.5 -28z" />
    <glyph glyph-name="plus" unicode="+" horiz-adv-x="458" 
d="M359 354q36 3 76 5l40 2q24 0 24 -14t-33 -61q-7 -11 -16.5 -15t-33.5 -6q-12 0 -49 -4q-33 -3 -60 -4q-43 -91 -45 -136q-3 -35 -4 -41t-7 -6q-1 0 -16 2q-60 8 -71 15q-15 10 -15 30q0 25 15 62q3 7 14 28q5 14 17 40q-28 -2 -36 -2q-21 -1 -27 -1q-31 -3 -36 -3
q-14 0 -27 7t-13 14t13 20q9 9 19 21q19 24 30.5 29.5t42.5 5.5q8 0 38 3q9 0 39 2q48 100 75 136.5t54 36.5q13 0 32.5 -13t19.5 -21q0 -16 -26 -68q-6 -12 -19 -35z" />
    <glyph glyph-name="comma" unicode="," horiz-adv-x="520" 
d="M56 44q0 31 30.5 63.5t61.5 32.5q24 0 38 -3.5t14 -18.5q0 -19 -17 -56t-31 -56q-32 -40 -57 -55q-18 -11 -35 -11h-10q14 17 23 31q13 19 21 37q-25 8 -31.5 15t-6.5 21z" />
    <glyph glyph-name="hyphen" unicode="-" horiz-adv-x="520" 
d="M471 341q22 0 22 -15q0 -13 -33 -61q-8 -12 -17.5 -15.5t-33.5 -5.5q-14 -1 -50 -5q-49 -5 -171 -10q-63 -2 -69 -3q-26 -3 -32 -3q-17 0 -31.5 6t-14.5 14t13 22l20 21q15 19 25 26.5t24 8.5q26 1 269 16q24 1 79 4z" />
    <glyph glyph-name="period" unicode="." horiz-adv-x="520" 
d="M118 -6q-29 4 -40 10q-22 11 -22 34q0 29 25 65q29 41 63 41h12q31 -4 37 -8q13 -8 13 -24q-11 -40 -20 -59q-27 -59 -64 -59h-4z" />
    <glyph glyph-name="slash" unicode="/" horiz-adv-x="574" 
d="M496 628l-198 -322q-80 -139 -114.5 -211t-65.5 -167q-2 -8 -6.5 -15t-11.5 -7q-28 0 -47 20t-19 48q0 41 43 132q36 76 95 178l96 160q72 122 143 209q57 70 111 115q10 -30 10 -54q0 -20 -12 -45q-8 -17 -24 -41z" />
    <glyph glyph-name="zero" unicode="0" horiz-adv-x="564" 
d="M556 562q30 -9 42 -42q8 -22 8 -62q0 -158 -117 -308q-128 -164 -297 -164h-10q-61 0 -98.5 52.5t-37.5 117.5q0 80 45 172q39 79 102 148t158 121.5t147 52.5q29 0 59.5 -25.5t30.5 -44.5q0 -6 -14.5 -10.5t-17.5 -7.5zM306 134l98 90q43 48 81 111q49 80 49 123
q0 22 -8 38q-11 22 -30 22q-12 0 -28.5 -12.5l-33.5 -25.5q-6 0 -8 5.5t-2 12.5q-128 -71 -200 -171q-66 -92 -66 -175q0 -25 5 -44q9 -32 27 -32q20 0 60 22q30 16 56 36z" />
    <glyph glyph-name="one" unicode="1" horiz-adv-x="390" 
d="M322 530l-94 -36l-14.5 -5.5t-13.5 -4.5q-10 0 -10 14l2 8q0 20 14 32q4 4 32 20l89 50q68 36 85 36q18 0 32 -26t14 -42q0 -18 -5.5 -30.5t-40.5 -74.5q-1 -2 -110 -189q-39 -63 -72 -130q-46 -94 -46 -136q0 -6 2 -18t2 -18q0 -14 -14 -14q-16 6 -22 8l-54 30
q-26 19 -26 52q0 36 23 101.5t47 104.5q49 82 107 164q3 5 75 102z" />
    <glyph glyph-name="two" unicode="2" horiz-adv-x="574" 
d="M304 404l-108 -20l-34 -6q-12 0 -17 12t-5 28q0 27 17.5 68.5t38.5 63.5q40 46 142 74q86 24 164 24q61 0 84 -27q28 -33 28 -131q0 -53 -30 -87q-50 -57 -216 -145q-105 -57 -126 -70q-65 -39 -120 -82l2 -2l390 68q-27 -77 -43 -101q-31 -47 -91 -59q-141 -24 -228 -24
q-53 0 -70 10q-21 17 -32.5 49.5t-11.5 62.5q0 41 77 104q58 47 157 105l128 71q51 27 85 53q55 43 55 77q0 13 -12.5 19.5t-25.5 6.5q-55 0 -138 -33q-35 -14 -132 -61l60 -8q22 -4 23 -4q15 -5 15 -18q0 -9 -7 -12.5t-19 -5.5z" />
    <glyph glyph-name="three" unicode="3" horiz-adv-x="606" 
d="M268 508q13 -3 25.5 -6.5t12.5 -11.5q0 -5 -7.5 -8t-15 -4.5t-42.5 -3.5t-47 -2q-50 0 -50 54q0 33 33 57q18 13 61.5 30.5t92 24t105.5 6.5q91 0 135 -19q67 -29 67 -107q0 -27 -18 -56t-42 -44q-19 -12 -45 -22t-73 -20l-152 -34q115 -23 134 -31q74 -31 74 -103v-4
q0 -65 -90 -132q-110 -82 -276 -82q-92 0 -142 30q-40 24 -40 52q0 18 35 57t53 39q16 0 16 -12q0 -2 -9.5 -13.5t-14.5 -16.5q29 -10 52.5 -16t45.5 -6q101 0 198.5 43.5t97.5 74.5q0 36 -78 51q-47 9 -108 9q-31 0 -48.5 -1.5t-39.5 -6.5l-30 -4q-16 0 -16 16l2 6
q6 50 30.5 77t77.5 27q68 0 188 33q146 40 146 85q0 26 -37 36q-22 6 -61 6h-6q-54 0 -106.5 -10.5t-107.5 -31.5z" />
    <glyph glyph-name="four" unicode="4" horiz-adv-x="606" 
d="M326 272l240 290l-2 2l-63.5 -29.5t-66.5 -34.5q-137 -80 -213 -148q-54 -48 -67 -78q0 -10 38 -10q30 0 61.5 1.5t72.5 6.5zM526 172l-140 -18q-8 -26 -13 -44.5t-5 -29.5q0 -13 6 -26q3 -6 14 -24q-49 -26 -80 -41t-40 -15q-13 0 -18.5 17t-5.5 33q0 22 4 44l16 78
q-29 0 -75 -3t-59 -3q-25 0 -32 1q-24 4 -30 17q-13 25 -20 42q-10 26 -10 46q0 35 43 91q34 44 73 77q91 79 237.5 154.5t196.5 75.5q16 0 27 -6.5t11 -21.5q0 -7 -6 -15.5t-14 -16.5q20 -9 20 -34v-10q-3 -29 -26 -58q-35 -44 -73 -97q-32 -46 -69 -105q12 0 37 3t39 3
q18 0 27 -5t9 -21q0 -13 -19 -46z" />
    <glyph glyph-name="five" unicode="5" horiz-adv-x="606" 
d="M182 498l104 110q30 27 48.5 33.5t55.5 6.5h258q-42 -78 -53 -93q-30 -43 -93 -43l-12 2l-170 2q-26 -21 -48 -47t-38 -55q33 8 71 14t69 6q70 0 114 -32q50 -37 50 -104q0 -62 -36 -122q-50 -82 -147 -131q-109 -55 -253 -55q-70 0 -89 19q-15 15 -15 67q0 47 73 84
q56 28 85 28q16 0 16 -12q0 -5 -6 -10.5t-14 -11.5l-62 -42l2 -2q165 18 275 81q97 55 97 105q0 18 -23.5 28t-44.5 10q-27 0 -59.5 -4.5t-64.5 -11.5l-51 -12q-25 -6 -31 -6q-27 0 -41.5 37.5t-14.5 70.5q0 21 17 48q2 4 31 42z" />
    <glyph glyph-name="six" unicode="6" horiz-adv-x="530" 
d="M418 508l-136 -118l2 -2l60 27q37 15 66 15q54 0 87 -39t33 -95q0 -110 -115 -216q-102 -94 -167 -94q-50 0 -107 55q-67 65 -67 151q0 82 54 167q46 72 128 145q67 59 146 108q38 23 56 28.5t58 5.5h32q13 0 30.5 -1.5t17.5 -10.5q0 -7 -7 -13q-1 -1 -13 -9
q-30 -14 -80 -48zM400 356q-27 0 -80 -37q-33 -23 -74 -59q-28 -24 -37 -35q-21 -25 -21 -73q0 -26 3.5 -46t16.5 -20l4 2q66 11 136 74q82 74 82 156q0 20 -5 29t-25 9z" />
    <glyph glyph-name="seven" unicode="7" horiz-adv-x="530" 
d="M268 292l212 222h-64q-113 0 -168 -14q-15 -4 -66 -28q-9 -5 -18 -9.5t-14 -4.5q-8 0 -17 7t-9 15q0 12 19 40q23 33 57 72q26 26 89 39q83 17 251 17q18 0 33 -3.5t22 -13.5t16 -39.5t9 -41.5q0 -14 -19 -33q-7 -7 -31 -25q-106 -91 -171 -184q-78 -111 -113 -246
q16 4 24 4q9 0 12 -10q0 -13 -59 -50.5t-87 -37.5h-4q-24 0 -35 18t-11 46q0 62 75 171q29 41 67 89z" />
    <glyph glyph-name="eight" unicode="8" horiz-adv-x="530" 
d="M520 520l-76 6q-81 0 -126.5 -23t-45.5 -57q0 -14 19 -44t37 -48zM296 240l-84 -76q-19 -17 -34 -38q-20 -28 -20 -46q0 -22 24 -22l10 2q49 0 89 25q47 29 47 75q0 29 -13 52zM532 456l-166 -148q50 -61 50 -146v-4q0 -59 -46 -107q-63 -65 -184 -65h-10q-39 0 -70 21
q-36 24 -36 61q0 60 100 155l82 73l-42 54q-38 54 -38 106q0 58 45 103q39 39 99 59q45 15 94.5 24.5t95.5 9.5h20q35 0 62 -3t46 -7q16 -6 16 -20q0 -16 -10 -35l-20 -33q-28 -40 -48 -40l-8 2l2 -16q0 -15 -34 -44z" />
    <glyph glyph-name="nine" unicode="9" horiz-adv-x="530" 
d="M554 494l-36 -24l-16.5 -8t-15.5 -4q-12 0 -12 12q6 8 14 16q17 18 38 36l-2 2q-166 -43 -250 -108q-70 -54 -70 -110q0 -16 16 -16q52 0 139 44q77 39 127 82q18 15 32 25q25 17 38 17q12 0 33 -8t21 -18q0 -9 -11.5 -25l-20.5 -29l-264 -308q-41 -51 -71.5 -72
t-62.5 -24q-22 0 -22 18q0 9 10 27q13 20 16 25l15 25q14 19 37 19h6l188 226l-2 2q-41 -31 -97 -61q-72 -39 -105 -39q-31 0 -74 44q-50 52 -50 108q0 90 139 185t269 95h4q26 0 62 -41t36 -61q0 -14 -22 -30q-11 -8 -36 -22z" />
    <glyph glyph-name="colon" unicode=":" horiz-adv-x="520" 
d="M112 -6q-31 4 -42 10q-22 11 -22 34q0 30 25 65q29 41 65 41h12q31 -4 36 -8q12 -8 12 -24q-11 -40 -19 -59q-26 -59 -63 -59h-4zM230 232q-31 5 -40 9q-22 10 -22 33q0 29 25 66q29 42 63 42h12q15 -4 30 -7q20 -8 20 -25q-11 -40 -20 -60q-27 -60 -64 -60z" />
    <glyph glyph-name="semicolon" unicode=";" horiz-adv-x="520" 
d="M56 44q0 32 29.5 64t62.5 32q23 0 36.5 -3.5t13.5 -18.5q0 -19 -16.5 -56.5t-29.5 -55.5q-33 -39 -59 -55q-18 -11 -35 -11h-10q17 21 24 31q14 19 22 37q-25 8 -31.5 15t-6.5 21zM232 234q-26 0 -42 8q-22 11 -22 34q0 30 25 65q29 41 65 41h12q31 -4 36 -8
q12 -8 12 -24q-11 -40 -20 -59q-27 -59 -62 -59z" />
    <glyph glyph-name="glyph29" horiz-adv-x="368" 
d="M172 114q-29 0 -82.5 48t-53.5 80l2 6q0 15 8 30q4 8 20 28q36 54 53 82t27 52q13 -24 19 -38q13 -28 13 -44q0 -11 -9.5 -23t-12.5 -15q-8 -10 -26 -39t-18 -37t12 -20q16 -16 44 -24q19 -5 30.5 -16.5t11.5 -31.5q0 -16 -10 -27t-28 -11z" />
    <glyph glyph-name="equal" unicode="=" horiz-adv-x="520" 
d="M531 443q22 0 22 -15q0 -13 -33 -61q-8 -12 -17.5 -15.5t-33.5 -5.5q-14 -1 -50 -5q-49 -5 -171 -10q-63 -2 -69 -3q-26 -3 -32 -3q-17 0 -31.5 6t-14.5 14t13 22l20 21q15 19 25 26.5t24 8.5q26 1 269 16q24 1 79 4zM470 294q22 0 22 -15q0 -13 -33 -61
q-8 -11 -17.5 -15t-33.5 -6q-14 -1 -50 -4q-48 -5 -171 -11q-63 -2 -69 -3q-26 -3 -32 -3q-17 0 -31.5 6.5t-14.5 14.5t13 21q9 9 20 22q15 19 25 26t24 8q26 1 269 16z" />
    <glyph glyph-name="glyph31" horiz-adv-x="368" 
d="M108 440q28 0 81 -49t53 -81v-4q0 -15 -8 -30q-4 -8 -20 -28q-36 -54 -53 -82t-27 -52l-24 49q-8 20 -8 33q0 11 11 25q8 10 11 13q8 10 26 39t18 37t-12 20q-16 16 -39.5 22.5t-33.5 16.5q-13 13 -13 33q0 16 10 27t28 11z" />
    <glyph glyph-name="question" unicode="?" horiz-adv-x="606" 
d="M224 548l10 -4q9 -5 19.5 -10t10.5 -14q0 -18 -20 -18l-18 2l-40 6q-16 1 -31 3q-17 5 -17 23q0 13 5 30q9 30 21 52q18 30 97 51q65 17 115 17q60 0 91 -23.5t31 -82.5q0 -36 -13 -74t-57 -100l-130 -154q-7 -8 -14 -15q-12 -14 -12 -31q0 -4 3 -13t3 -13q0 -24 -22 -24
q-24 0 -41 23.5t-17 48.5q0 39 35 84q11 14 37 40l116 106q31 26 40 36q22 25 22 48q0 28 -23 37q-13 5 -47 5q-31 0 -60 -6t-94 -30zM174 -12q-20 0 -37 15t-17 35q0 34 15 73q19 49 43 49q26 0 44 -19t18 -45q0 -35 -15 -67q-19 -41 -51 -41z" />
    <glyph glyph-name="at" unicode="@" horiz-adv-x="853" 
d="M491 217q-23 -36 -53 -53t-72 -17q-63 0 -96 36t-33 103q0 96 56.5 162.5t137.5 66.5q36 0 61 -14.5t41 -44.5l22 44h64l-61 -241q-1 -2 -1 -5q-3 -11 -3 -15q0 -16 11 -25t29 -9q21 0 44.5 12.5t43.5 34.5q29 31 45 73t16 89q0 104 -77 169t-202 65q-56 0 -105 -13
t-89 -39q-74 -46 -114.5 -119.5t-40.5 -162.5q0 -128 86.5 -205t229.5 -77q69 0 133.5 20t120.5 58l27 -40q-61 -47 -131 -70.5t-146 -23.5q-79 0 -144.5 20t-115.5 58q-64 49 -95.5 114t-31.5 147q0 68 21.5 129t62.5 112q61 74 146 112t189 38q68 0 129.5 -18.5
t104.5 -52.5q55 -42 82 -97t27 -124q0 -66 -26.5 -123.5t-76.5 -97.5q-28 -23 -61.5 -34.5t-69.5 -11.5q-43 0 -64 16.5t-21 51.5v2zM515 391q-6 35 -25.5 53.5t-50.5 18.5q-52 0 -89.5 -52.5t-37.5 -127.5q0 -41 19 -62.5t53 -21.5q37 0 67.5 27.5t40.5 70.5z" />
    <glyph glyph-name="A" unicode="A" 
d="M444 348l62 228l-2 2l-214 -238l4 -2zM528 230l-22 -122q6 -16 24 -16q14 0 33.5 19l36.5 35l26 -26q-36 -55 -66 -83q-49 -47 -96 -47q-26 0 -45 18t-27 44q-2 2 -4 6t-2 14q0 24 26 148l-216 -6l-140 -204q-25 -40 -40.5 -54t-33.5 -14q-21 0 -30.5 5.5t-13.5 16.5v12
q0 34 31 79q36 52 87 73l50 86l-52 -2q-44 0 -50 22l-2 2q0 21 27 61q31 46 61 57q14 4 34.5 8t33.5 4q22 0 22 -6q0 -7 -33 -14t-33 -12q8 -10 20 -10l58 4l164 186q90 92 115 115q63 57 93 57q14 0 29.5 -14.5t17.5 -23.5t2.5 -15t0.5 -11q0 -11 -3 -25.5t-5 -26.5
l-54 -218q25 0 35 0.5t17 1.5l42 -6q-14 -26 -22.5 -51.5t-15.5 -62.5z" />
    <glyph glyph-name="B" unicode="B" horiz-adv-x="736" 
d="M346 326l184 -34q132 -35 132 -96q0 -59 -95 -125q-119 -83 -297 -83h-16q-62 0 -104 24q-52 30 -52 88l-2 8q0 20 17 49q22 38 95 133q-32 0 -56 7q-36 10 -36 33q0 26 73 39q48 7 97 15l75 73q81 73 157 73q-9 -19 -20 -33q-19 -26 -78 -93q146 18 222 62q56 32 56 62
q0 18 -24 32q-32 18 -90 18h-32q-57 -5 -126.5 -22t-153.5 -48q14 -5 14 -14q0 -10 -14 -17q-9 -4 -22 -7q-59 -10 -67 -12q-26 -10 -73 -26l-30 -6q-26 0 -26 26q0 8 11.5 30.5t34.5 53.5q28 35 37 45q25 26 47 35q75 28 195 52t193 24q117 0 171 -40q43 -32 43 -82
q0 -104 -166 -165q-71 -26 -254 -61zM302 276l-56 -62q-17 -17 -23 -25q-13 -18 -13 -31q0 -28 44 -44q34 -12 68 -12q66 0 146 38t80 68q0 33 -108 53q-81 15 -138 15z" />
    <glyph glyph-name="C" unicode="C" horiz-adv-x="726" 
d="M348 318l74 64q19 19 32.5 29.5t19.5 10.5q10 0 10 -14v-10l2 -2q69 60 116 123q44 59 44 85q0 8 -7 14t-15 6h-6l-50 -14q-53 -21 -118 -72q-87 -68 -188 -186q-52 -61 -86 -136t-34 -132q0 -114 106 -114q59 0 149 45q73 37 163 101q70 50 128 102v-14q0 -39 -50 -86
q-135 -130 -266 -196q-108 -54 -190 -54q-84 0 -138 50t-54 136q0 100 75 219q60 95 153 183q84 80 193 150q140 90 221 90q47 0 74.5 -24t27.5 -70v-6q0 -100 -140.5 -246t-237.5 -158l-8 -2q-19 0 -33.5 14.5t-14.5 35.5t16 43q7 10 32 35z" />
    <glyph glyph-name="D" unicode="D" horiz-adv-x="802" 
d="M446 476l-220 -288q-26 -38 -26 -54l4 -14q6 -9 22.5 -13.5t35.5 -4.5q49 0 112 12.5t118 31.5q148 52 220 128q62 65 62 140q0 83 -113 116q-69 20 -181 20q-6 -24 -8 -30q-7 -22 -26 -44zM184 248l240 298q-52 0 -105 -12t-111 -34l42 -2q9 0 24.5 -1.5t15.5 -10.5
q0 -8 -12 -13q-4 -2 -20 -5l-166 -38q-38 0 -38 34q0 13 4.5 32.5t9.5 37.5q10 37 32 57.5t64 38.5q70 31 164.5 50.5t175.5 19.5q64 0 129 -12.5t109 -39.5q53 -35 81 -97q25 -56 25 -125q0 -100 -74 -191q-62 -76 -164 -133q-81 -46 -201 -80t-211 -34q-33 0 -52.5 2
t-33 9.5t-19 22.5t-5.5 32q0 49 32 104q12 20 64 90z" />
    <glyph glyph-name="E" unicode="E" horiz-adv-x="682" 
d="M746 658l2 -42v-28q0 -22 -9.5 -30.5t-43 -19.5t-70.5 -30q-69 -36 -71 -36q-12 0 -12 10q0 9 35 41t35 33l-2 -2l2 2q-155 0 -272 -52q-98 -43 -98 -78l2 -2q0 -17 26 -25q50 -15 194 -15l98 2q25 0 45.5 -3.5t20.5 -18.5q0 -14 -11.5 -34.5t-23 -30t-49.5 -17.5
l-48 -10q-170 -28 -277 -97q-85 -55 -85 -93q0 -32 84 -32l28 -2q82 0 208 36q45 14 103 47l99 59v-34q0 -40 -12 -69.5t-46 -56.5q-66 -53 -166 -85q-92 -29 -192 -29h-12q-42 0 -86 9q-9 2 -44.5 11.5t-55.5 46t-20 69.5q0 63 80 131q103 87 302 137q-155 1 -222 38
q-52 29 -52 80q0 87 114 161q138 89 362 89h24q42 0 75.5 -6t40.5 -24z" />
    <glyph glyph-name="F" unicode="F" horiz-adv-x="726" 
d="M536 172l-172 -182q-43 -43 -96 -85q-77 -61 -106 -61q-24 0 -24 24q0 18 24 53q14 21 38 47q42 47 104 64l116 124l-148 -12q-24 0 -37.5 3.5t-14.5 10.5l-2 16q0 35 25 50.5t68 29.5q19 6 71 20l152 30q30 39 69 113q45 86 45 117q0 13 -8 16.5t-24 3.5h-8
q-14 0 -36 -3t-38 -5q-96 -17 -177 -38.5t-159 -55.5l2 -2h58q12 0 12 -8t-12 -13q-3 -1 -18 -5l-116 -36q-36 -12 -54 -12q-10 0 -16 4.5t-6 17.5q0 18 31 77q27 51 45 75q26 32 69 49q16 6 83 25q178 39 274 53q64 9 122 9q40 0 64 -8q38 -13 38 -44q0 -50 -61 -171
q-46 -92 -95 -165l66 -12l-40 -64q-7 -13 -10 -18q-7 -9 -17.5 -14.5t-40 -10.5t-40.5 -7z" />
    <glyph glyph-name="G" unicode="G" horiz-adv-x="714" 
d="M452 230l-112 -80q-55 -43 -90 -65q-62 -39 -98 -39l-8 2q-57 6 -84.5 44t-27.5 96q0 59 40 135q33 63 82 117q43 47 106 91q81 57 176 95q118 47 244 62h8q19 0 34 -18q18 -25 18 -64q0 -17 -13 -31q-7 -8 -29 -23q-69 -45 -110 -67.5t-56 -22.5q-14 0 -14 14
q0 7 10.5 15.5t17.5 12.5l42 34l-2 2q-132 -38 -250 -122q-96 -68 -161 -150q-57 -72 -57 -106l2 -4q3 -17 11 -27.5t23 -10.5t36 11q14 7 32 21l366 278q5 5 11 8.5t13 3.5q6 0 19 -7t20.5 -10.5t9.5 -5.5q13 -9 13 -21q0 -7 -6 -18.5l-8 -15.5q-27 -55 -79.5 -135.5
l-104.5 -160.5l2 -2l220 142q0 -36 -14 -53q-19 -23 -116 -91l-162 -110q-43 -60 -119 -131q-95 -89 -141 -89q-18 0 -27 12t-9 30l-2 6q0 48 55.5 104.5t130.5 93.5q74 99 107 151q28 44 53 97z" />
    <glyph glyph-name="H" unicode="H" horiz-adv-x="920" 
d="M590 174l-184 -24l-104 -122l-24 -35q-18 -23 -34 -23q-17 0 -33.5 13.5t-16.5 30.5q0 13 23 44l63 80l-30 -2q-72 0 -72 44q0 20 18 48t38 28q14 -8 22 -8q1 0 48 11q70 16 116 25q66 66 198 216q15 15 26 31q16 23 16 37q0 12 -10 17t-24 5q-43 0 -132.5 -27
t-211.5 -77q14 -7 14 -16q0 -11 -11 -18q-6 -4 -13 -6q-51 -18 -71 -27l-67 -35q-12 -6 -21.5 -10t-18.5 -4q-15 0 -22.5 14.5t-7.5 31.5q0 25 10.5 58.5t25.5 51.5q27 30 161 80q55 21 97 34q62 21 149 36.5t147 15.5q57 0 85 -31q23 -25 23 -67q0 -40 -35 -90
q-21 -29 -65 -76l-114 -120l154 18l182 228q20 26 34 42q27 30 40 30q8 0 13 -5t5 -19q0 -29 -11 -50q-15 -29 -71 -92l-108 -134q46 0 77 -4t59 -20q-73 -58 -120 -134l-52 6h-50l-32 -49q-20 -34 -20 -53q0 -13 5 -37l5 -23h-6q-14 0 -49 -17t-47 -17h-6q-22 7 -22 30
l4 20q3 25 16.5 59.5t41.5 86.5z" />
    <glyph glyph-name="I" unicode="I" horiz-adv-x="510" 
d="M184 372l26 6l24.5 4t13.5 2q8 0 8 -10t-11 -20q-14 -10 -19 -14q-18 -16 -39 -30q-32 -22 -45 -22q-23 0 -66 36q-26 22 -26 36l2 2q10 112 151.5 222t260.5 110q48 0 73 -31t25 -81q0 -61 -45 -162q-34 -76 -100 -186q-46 -75 -97 -150q2 -4 2 -18q0 -29 -26.5 -63.5
t-47.5 -34.5h-4q-15 0 -33.5 15.5t-18.5 32.5q0 10 4 19t12 21q266 379 266 484q0 16 -6 28t-20 12q-46 -5 -132 -68q-95 -69 -132 -140z" />
    <glyph glyph-name="J" unicode="J" horiz-adv-x="520" 
d="M346 94l-204 -236q-45 -48 -62 -64q-48 -44 -74 -44q-18 0 -29 14.5t-11 33.5q0 58 66 129q78 84 242 181l142 240q38 69 59 124q27 69 35 134q-111 -39 -196 -141t-108 -221q27 17 56 33q6 3 12 7q10 0 10 -8q0 -7 -21 -30q-11 -12 -29 -30q-30 -35 -49 -52
q-36 -32 -63 -32q-25 0 -31.5 21t-6.5 53q0 47 23 115q19 57 47 109q48 90 128 156q67 55 140 84q61 24 104 24q27 0 49.5 -22.5t22.5 -41.5q0 -58 -35 -144q-48 -117 -171 -324l2 -2l116 50l12 -32z" />
    <glyph glyph-name="K" unicode="K" horiz-adv-x="888" 
d="M152 58l148 192q-10 13 -13 20.5t-3 21.5q0 21 11.5 38t50.5 40l106 54l98 152q-78 -19 -140.5 -40t-116.5 -46q-13 -6 -133 -66q-17 -8 -30.5 -13t-27.5 -5q-30 0 -30 30q0 16 13 60q9 27 11 34q10 27 19.5 38t36.5 28l54 40q10 7 15 10q10 6 17 6q10 0 10 -12
q0 -6 -7.5 -13.5t-38.5 -34.5l2 -2l187 74q92 28 167 28h6q20 0 40 -26q15 -17 22.5 -32t7.5 -24q0 -10 -4.5 -19t-21.5 -33l-50 -74l2 -2l318 150l30 14q24 10 30 10q20 0 20 -20q0 -15 -34 -55q-42 -49 -80 -49l-16 4l-366 -184q-12 -9 -18 -16.5t-6 -19.5q0 -14 17 -26
l29 -16l254 -148q41 -23 62 -44q30 -31 30 -70q0 -20 -4 -31q-7 -19 -22 -19q-8 0 -25 8q-9 4 -25 14l-394 218l-80 -96q0 -35 -45 -75.5t-77 -40.5q-11 0 -19.5 5.5t-8.5 16.5q0 14 10 30q9 11 12 16z" />
    <glyph glyph-name="L" unicode="L" horiz-adv-x="692" 
d="M76 30l-22 -10q-25 -11 -38 -16q-25 -10 -42 -10t-23.5 5.5t-6.5 16.5q0 15 25 51q14 20 37 49q16 19 17 20q7 6 15 8q24 6 69.5 11t58.5 7l292 346q39 48 111 112q90 80 125 80q24 0 37 -19.5t13 -44.5q0 -49 -63 -155l-51 -83q18 -5 18 -14q0 -15 -31 -40
q-1 -1 -26 -19t-42 -29q-33 -22 -45 -22q-13 0 -17.5 8t-4.5 22q0 49 48 126q37 59 86 112l4 12l-2 6q-10 0 -46 -36q-31 -31 -122 -130l-200 -230q172 -32 200.5 -38t201.5 -46l-52 -54q-23 -23 -33 -31q-26 -21 -59 -21t-164 28q-65 13 -128 20.5t-122 7.5h-18z" />
    <glyph glyph-name="M" unicode="M" horiz-adv-x="1168" 
d="M468 156l68 90l101 144q38 56 61 100q12 21 12 32q0 10 -10 10q-6 0 -14 -4.5t-16 -15.5l-240 -260l-150 -202q-18 -27 -31 -40q-22 -22 -43 -22q-26 0 -48 43l-26 67l210 264q45 82 65 130q17 41 17 60q0 18 -12 18q-6 0 -17 -5t-15 -7q-142 -66 -220 -109
q-68 -37 -90 -37q-9 0 -17.5 7.5t-8.5 18.5l2 12q13 68 14 75q8 37 13.5 45.5t13.5 14.5q16 13 77 55q3 3 11.5 8.5t12.5 5.5q12 0 12 -10q0 -5 -11.5 -18.5t-40.5 -39.5l2 -2l112 52l83 35q84 35 105 35q17 0 26 -9q3 -3 14 -23l24 -42q12 -18 12 -38q0 -17 -16 -58
l-46 -116l2 -2l158 154q38 38 79 69q57 43 85 43q23 0 44 -15q28 -20 28 -55q0 -55 -83 -186l-65 -98l2 -2l120 106l122 106l126 106q20 17 24 20q17 12 28 12q18 0 43 -34t25 -52q0 -10 -10.5 -27.5t-31.5 -42.5l-156 -188q-48 -63 -73 -107q-41 -72 -41 -121
q0 -17 9 -32.5t25 -15.5q25 0 80 38q68 47 162 138l4 -38q-19 -55 -141 -147.5t-185 -92.5q-46 0 -69 39q-19 32 -19 83q0 78 72 191q25 39 126 169l-2 2l-159 -138q-36 -33 -79 -82l-144 -168q-25 -28 -41 -44q-32 -32 -47 -32q-27 0 -40.5 35t-13.5 67q0 18 14 42
q8 14 26 36z" />
    <glyph glyph-name="N" unicode="N" horiz-adv-x="856" 
d="M550 192l170 312l-2 2q-128 -122 -168 -164q-52 -53 -102 -118l-156 -206q-10 -17 -17.5 -23.5t-14.5 -6.5q-18 0 -48 23.5t-30 40.5q0 12 10 22q32 51 78 133q56 100 102 192q52 105 52 129q0 20 -16 20q-27 0 -107.5 -41.5t-204.5 -122.5q-7 -5 -15 -9.5t-15 -4.5
q-12 0 -15 12.5t-3 31.5q0 79 90 170q79 80 114 80q10 0 10 -8q-1 -4 -3 -7q-13 -22 -51 -57l2 -2q97 51 135 68q91 40 143 40q25 0 44.5 -14.5t19.5 -37.5v-4q0 -70 -174 -372l2 -2l177 206q28 32 125 124l67 46q48 32 61 32q17 0 47 -30q35 -35 35 -66q0 -28 -45 -97
q-152 -231 -179 -285q-15 -31 -22.5 -51.5t-7.5 -30.5q0 -18 5 -29t21 -11q26 0 103 71q63 58 97 99l4 -44q0 -9 -12 -24q-98 -127 -183 -190q-67 -50 -109 -50q-35 0 -51.5 25t-16.5 63q0 36 18 84q0 1 36 82z" />
    <glyph glyph-name="O" unicode="O" 
d="M36 200l-2 10q0 100 91 212q83 102 204.5 177t220.5 89h4q29 0 62 -34q30 -31 30 -46q0 -17 -26 -28q-17 -6 -26 -9.5t-17.5 -7.5t-24.5 -13h2l38 4q35 0 52 -14q32 -26 32 -78v-6q0 -151 -146 -304q-151 -158 -314 -158q-73 0 -121 44q-59 54 -59 162zM248 352
q-48 -48 -77 -99q-35 -62 -35 -119q0 -29 13 -47.5t41 -18.5q41 0 95 24t89 54q98 83 156 168.5t58 141.5q0 19 -10.5 33.5t-29.5 14.5q-63 0 -143 -50q-75 -47 -113 -104q-6 -8 -13.5 -17t-16.5 -9t-11.5 8t-2.5 20z" />
    <glyph glyph-name="P" unicode="P" horiz-adv-x="748" 
d="M212 166l-40 -68q8 -2 13 -6t5 -12v-4q0 -6 -13 -25l-36.5 -51.5t-25.5 -30.5q-19 -17 -35 -17q-34 0 -34 36q0 31 55 126l41 70q-28 16 -37 31t-9 33q0 28 39 52q21 13 121 46l160 210q-86 0 -178 -21l-166 -47q-16 0 -16 10q0 15 31 62q19 29 43 62q12 16 34 26
q12 5 42 14q63 19 128.5 27.5t139.5 8.5q177 0 252 -55q66 -48 66 -149q0 -143 -139.5 -238.5t-346.5 -95.5q-15 0 -46 3t-48 3zM452 504l-106 -146q12 0 34 2t28 2q16 0 16 -8q0 -9 -32 -18t-68 -18l-22 -34q25 -7 45 -8.5t57 -1.5q127 0 227 79q87 69 87 129v10
q-6 38 -108 58q-72 14 -136 14q0 -15 -3.5 -26.5t-18.5 -33.5z" />
    <glyph glyph-name="Q" unicode="Q" horiz-adv-x="714" 
d="M462 -28l-334 52l-39 -27q-27 -17 -45 -17q-24 0 -24 24q0 38 20 81.5t44 60.5q9 6 27 8t21 2h52q148 77 260 164q94 73 151 143q49 60 49 91q0 13 -13.5 17.5t-28.5 4.5q-40 0 -141 -37q-122 -45 -205 -105h72q24 0 24 -16q0 -8 -5 -12t-15 -6q-83 -15 -158 -56l-26 -8
q-12 0 -16 17.5t-4 62.5l-2 36q0 31 12 46q40 54 207 123t263 69q52 0 88 -36t36 -90q0 -73 -83 -162q-64 -69 -179 -150q-26 -18 -164 -108q122 -25 185 -35.5t93 -10.5q20 0 44 5q43 9 44 9q-13 -41 -30 -80l-24 -48q-6 -10 -19.5 -14t-36.5 -4q-19 0 -31 1q-58 5 -69 5z
" />
    <glyph glyph-name="R" unicode="R" horiz-adv-x="812" 
d="M434 452l-74 -114l248 66q51 15 103 44q73 40 73 72q0 18 -39.5 24t-80.5 6h-10l-186 -12v-6q0 -20 -11 -42q-2 -4 -23 -38zM600 12l-370 138l-86 -126v-10q0 -22 -27 -42t-47 -20q-22 0 -22 20q0 13 1.5 19t14.5 31l94 154q-15 2 -32.5 11t-17.5 21l2 4q7 43 44 71
q43 33 110 33l148 214q-69 -11 -83 -14q-70 -14 -133 -38l62.5 -6t21.5 -14q0 -5 -6.5 -7.5t-13.5 -2.5l-78 -8q-14 -2 -46 -6t-46 -4q-16 0 -26 5t-10 19q0 24 16.5 61.5t33.5 58.5q35 44 174 77t292 33q109 0 177 -21q109 -34 109 -117q0 -38 -21.5 -87.5t-50.5 -72.5
q-39 -32 -83.5 -48t-138.5 -34l-270 -50l272 -88q87 -26 128 -48q23 -12 44 -40q12 -24 12 -64q0 -22 -5.5 -35t-18.5 -13q-21 0 -80 25q-35 17 -44 21z" />
    <glyph glyph-name="S" unicode="S" horiz-adv-x="758" 
d="M246 428l-2 -4q0 -11 38 -23q51 -17 230 -59q73 -17 112 -53q36 -33 36 -73q0 -90 -95 -148q-76 -46 -205 -68q-94 -16 -192 -16q-83 0 -122.5 14.5t-39.5 45.5q0 14 19.5 45.5t32.5 42.5q8 7 42 18.5t44 11.5q8 0 8 -8q0 -9 -18 -18q-4 -3 -8 -7.5t-8 -8.5l56 -4
q155 0 261 30q137 39 137 78q0 32 -144 66q-60 14 -180 34q-48 8 -70 22q-32 21 -32 62q0 27 9.5 70t22.5 62q26 46 144 92q138 54 286 54q34 0 63.5 -3t62.5 -11q17 -3 21.5 -9.5t4.5 -22.5q0 -53 -18 -74.5t-66 -39.5q-35 -13 -55 -26l-35 -24q-4 -3 -11.5 -6.5
t-12.5 -3.5q-16 0 -16 16q4 7 8 12q23 29 64 58l-2 2q-131 0 -230 -33q-140 -47 -140 -93z" />
    <glyph glyph-name="T" unicode="T" horiz-adv-x="692" 
d="M162 428h-58q-30 0 -38 6t-8 20q0 13 2 23t8 35q11 59 17 71q13 24 57 43q78 35 175 50.5t199 15.5q45 0 80 -2.5t73.5 -10.5t52.5 -35q15 -44 28 -78v-12q0 -11 -7 -25t-29 -47l-236 -356l2 -2h8q16 0 16 -14q0 -10 -10.5 -27.5t-31.5 -42.5q-34 -46 -39 -51
q-30 -33 -51 -33t-37.5 11t-16.5 31q0 46 50 134q38 68 106 160q43 59 94 122l100 128q-257 0 -506 -76q38 -7 59 -14.5t21 -17.5q0 -12 -18 -12q-11 0 -19 1q-39 5 -43 5z" />
    <glyph glyph-name="U" unicode="U" horiz-adv-x="888" 
d="M584 208l82 138l-2 2q-364 -352 -422 -352q-49 9 -72.5 35.5t-23.5 68.5q0 41 48 110q19 27 78 98q186 217 186 218q0 10 -10 10q-4 0 -13.5 -3.5t-16.5 -6.5q-66 -28 -86 -37.5l-156 -76.5q-25 -12 -49 -20q-34 -12 -53 -12q-13 0 -20.5 4t-7.5 14l2 4q13 77 79 148
q81 87 201 106q17 2 107 23q74 17 107 17q30 0 45 -23.5t15 -56.5q0 -9 -1 -18t-3 -20q-7 -23 -21 -46q-4 -6 -57 -74q-45 -48 -128 -150q-102 -126 -102 -148q0 -18 20 -18q26 0 133 89q84 70 133 119l174 173q72 72 94 91q30 26 44 26q20 0 31 -21t11 -43v-6
q0 -16 -61 -102l-129 -182q-39 -55 -63 -101q-27 -52 -27 -77q0 -17 10.5 -28.5t27.5 -11.5q33 0 104 52q30 22 96 78q6 -27 6 -34q0 -25 -109 -102q-116 -82 -175 -82q-34 0 -56 22t-22 58q0 37 16 77q7 18 36 71z" />
    <glyph glyph-name="V" unicode="V" horiz-adv-x="736" 
d="M190 390l56 4h14q26 0 26 -10t-19 -15q-21 -4 -25 -5q-44 -9 -86.5 -25.5l-81.5 -32.5q-13 0 -17.5 18t-4.5 34q0 38 12.5 71t38 57t117.5 75q102 56 177 89q96 42 131 42q24 0 46 -31.5t22 -46.5q0 -12 -15 -39q-1 -2 -23 -37q-120 -191 -175 -298q-41 -80 -41 -106v-10
q0 -19 5 -34.5t15 -15.5l6 2q20 7 39 25q31 28 83 100q70 96 162 241l-2 10q0 43 42.5 102.5t67.5 59.5h4q18 -7 18 -36q0 -49 -53 -147q-64 -118 -195 -291q-59 -77 -81 -102q-64 -72 -99 -72q-32 0 -71 40q-43 45 -43 94l2 4q0 43 31 117q47 111 175 323l-2 2
q-88 -41 -134 -67q-72 -41 -124 -87z" />
    <glyph glyph-name="W" unicode="W" horiz-adv-x="1006" 
d="M586 296l-140 -150q-152 -164 -210 -164q-26 0 -57 43.5t-31 72.5l2 6q6 26 9 33q17 34 69 99q68 84 214 244q9 10 19.5 23.5t10.5 24.5q0 13 -10.5 19.5t-23.5 6.5q-39 0 -149 -45q-98 -40 -147 -69q-15 -8 -33.5 -16t-32.5 -8q-8 0 -14 6q-10 10 -10 28q0 16 6.5 39.5
t21.5 56.5q10 22 24 36q9 8 36 28l70 54q8 12 22 12q6 -6 6 -8l-4 -12l-28 -32l2 -2q135 46 155 51q53 13 99 13q31 0 49.5 -4t30.5 -22q13 -16 22.5 -47t9.5 -55q0 -34 -37 -92q-59 -91 -241 -302q-14 -18 -14 -26q0 -10 12 -10q9 -1 64 46q64 55 148 140q100 101 210 226
l45 55q35 37 69 37q18 0 31 -24t13 -40q0 -9 -13 -30.5t-21 -31.5q-27 -37 -76 -113q-68 -104 -99 -161q-49 -88 -49 -116l2 -4q0 -12 10 -12l4 2q72 33 163 134q104 115 167 250q-6 18 -6 38q0 23 31.5 62.5t44.5 39.5t19.5 -18.5t6.5 -33.5q0 -105 -81 -247
q-71 -124 -174.5 -228t-164.5 -113h-8q-30 0 -63 29q-37 33 -37 71q0 47 30 133q21 54 28 75z" />
    <glyph glyph-name="X" unicode="X" horiz-adv-x="736" 
d="M550 462l162 154l16 13q21 17 32 17q18 0 18 -20q0 -28 -27 -69t-55 -41l-4 2l-150 -146l-20 -232q0 -5 -2 -16t-2 -16q0 -26 28 -26q22 0 61 24l57 38l18 -26q-39 -48 -100 -94q-74 -56 -120 -56q-31 0 -43.5 26.5t-12.5 65.5l2 40l8 152l-190 -178q-45 -41 -83 -69.5
t-51 -28.5q-26 0 -26 30q0 43 58.5 96.5t107.5 63.5l192 182l10 226l-142 -48q-83 -30 -138 -60q41 -1 57.5 -2.5t16.5 -11.5q0 -7 -29 -15l-107 -31q-7 -2 -16 -4t-10 -2q-20 0 -20 20q0 21 24 70.5t42 65.5q57 49 180 88.5t202 39.5q40 0 55 -16t15 -48l-2 -34z" />
    <glyph glyph-name="Y" unicode="Y" horiz-adv-x="748" 
d="M598 332l-264 -228q-37 -32 -64 -51q-47 -33 -72 -33q-24 0 -48 18t-24 40l2 8q7 38 20 62q38 70 158 212q132 163 132 180q0 12 -12 12q-104 -51 -188 -97l-140 -77q-16 -12 -32 -12q-15 0 -18 8l-2 6q0 6 3 16.5l5 17.5l16 54q7 26 22 43q11 12 40 31q79 48 185 94
q134 58 197 58q29 0 49.5 -14t20.5 -42q0 -29 -41 -89q-20 -28 -65 -83l-146 -187q-48 -61 -48 -77t16 -16q18 0 36 18q13 11 91 73q42 33 261 233l34 30q14 10 22 10q18 0 33 -21t15 -39q0 -15 -20 -45l-168 -231l-104 -151q-22 -35 -22 -47q0 -6 8 -6l2 -2q3 0 44 25
t88 49q25 13 42.5 18.5t31.5 5.5q22 0 22 -12q0 -11 -25 -34q-18 -17 -35 -28q-75 -58 -124 -100q-81 -68 -112 -106q-37 -40 -53 -52q-22 -16 -39 -16q-20 0 -32 14t-12 36q0 46 66 160q52 90 136 209q61 86 114 153z" />
    <glyph glyph-name="Z" unicode="Z" 
d="M338 214l-104 -46q-44 -19 -68 -32.5t-32 -13.5q-16 0 -16 14q0 5 6.5 26t19.5 54q6 21 9.5 27t16.5 15q26 20 99 57l159 75q84 47 104 60q54 34 54 62q0 11 -11.5 18.5t-24.5 7.5q-74 0 -178 -45q-97 -42 -312 -165q0 105 28.5 161t117.5 107q64 38 161 65t173 27
q71 0 111 -24q49 -30 49 -96q0 -67 -53 -118q-8 -8 -197 -118q61 -11 91 -35.5t37 -80.5q42 12 58 12q8 0 16 -8q0 -13 -11.5 -21t-62.5 -27q-13 -71 -60 -141q-38 -56 -104 -115q-46 -41 -140 -91.5t-136 -50.5q-20 0 -52 21t-32 41q0 32 47 86q53 61 143 124
q107 74 244 136q0 19 -13 33q-17 19 -51 19q-35 0 -86 -20zM474 120q-118 -58 -220 -147q-88 -77 -88 -101q0 -10 12 -10q50 0 157 89q112 93 139 169z" />
    <glyph glyph-name="glyph60" horiz-adv-x="510" 
d="M352 -132h-296l216 838h292l-26 -88h-160l-172 -662h174z" />
    <glyph glyph-name="glyph61" horiz-adv-x="510" 
d="M166 706h296l-218 -838h-292l26 88h162l170 662h-172z" />
    <glyph glyph-name="underscore" unicode="_" horiz-adv-x="498" 
d="M0 -186v88h500v-88h-500z" />
    <glyph glyph-name="a" unicode="a" horiz-adv-x="498" 
d="M310 278q-160 -50 -223 -101q-45 -37 -45 -83q2 -8 3 -11q5 -11 13 -11l4 2q34 7 88 51q66 54 162 151zM256 142l-92 -74l-52 -38q-40 -28 -54 -28q-23 0 -55 39q-35 42 -35 79q0 86 144 174q134 82 230 82q30 0 49 -19q15 -15 15 -29q0 -8 -15 -16t-19 -10
q15 -7 21.5 -15t6.5 -25q0 -14 -43 -69t-43 -81q0 -24 30 -24t89 42l53 38l8 -36q-35 -42 -110 -97q-83 -61 -116 -61q-24 0 -36 15t-12 39q0 27 19 73q7 16 19 39z" />
    <glyph glyph-name="b" unicode="b" horiz-adv-x="456" 
d="M236 342l-156 -152l-4 -28.5t-2 -15.5q0 -29 13 -48.5t31 -19.5l6 2q21 3 39 20q6 6 27 32q-8 12 -11 19.5t-3 18.5q0 45 48.5 100.5t91.5 55.5q17 0 23.5 -12.5t6.5 -31.5q0 -26 -16.5 -60l-31.5 -64l16 -2q21 0 47 12q17 8 43 26l10 -32q-33 -35 -71.5 -49.5
t-88.5 -14.5q-57 -59 -105 -86q-40 -22 -75 -22q-42 0 -61 55q-13 38 -13 91q0 90 39 176q33 72 99 152q62 72 155.5 145t124.5 73q14 0 22 -11t8 -25q0 -59 -82 -162q-36 -45 -130 -142zM364 596q-80 -67 -140 -138q-66 -78 -108 -162l2 -2q91 91 152 162q48 56 70 90
q9 14 26 48z" />
    <glyph glyph-name="c" unicode="c" horiz-adv-x="390" 
d="M194 252l-84 -64q-21 -15 -28 -24q-12 -15 -12 -34q0 -21 19.5 -37.5t56.5 -16.5q50 0 117 40q35 21 105 74l12 -38q-60 -63 -122 -107q-85 -59 -146 -59q-55 0 -85.5 44t-30.5 104q0 58 24 95q17 26 72 69q40 29 95 56q66 32 103 32q44 0 44 -46q0 -40 -41 -86t-65 -46
q-15 0 -23.5 13.5t-10.5 30.5z" />
    <glyph glyph-name="d" unicode="d" horiz-adv-x="552" 
d="M502 468l-102 -158q-47 -77 -52 -86q-28 -54 -28 -96q0 -23 3.5 -36.5t18.5 -13.5q21 0 79 43l79 59l8 -32q-38 -41 -72 -72q-95 -86 -152 -86q-26 0 -39 22t-13 50q0 18 1 29t7 47q-50 -47 -83 -74q-62 -52 -91 -52t-51.5 49t-22.5 81q0 81 110 156q100 68 176 68
q13 0 23 -8q12 -13 19 -20l81 153q66 111 113 111q14 0 23 -12t9 -26q0 -20 -15 -50q-11 -22 -29 -46zM286 278q-125 -40 -166 -74q-33 -28 -38 -82l-2 -4q0 -16 16 -16q14 -2 95 66q86 72 95 110z" />
    <glyph glyph-name="e" unicode="e" horiz-adv-x="380" 
d="M362 188l10 -38q-57 -66 -121 -110q-82 -56 -149 -56q-53 0 -81.5 38.5t-28.5 93.5v4q0 95 87.5 177.5t184.5 82.5q30 0 51 -10.5t21 -37.5q0 -44 -49 -88q-63 -56 -193 -98l-2 -22l-2 -4q0 -24 18.5 -36t45.5 -12q46 0 111 42q27 18 97 74zM100 194q59 20 107 63
q41 37 41 53q0 12 -10 12q-41 -11 -79 -45t-59 -83z" />
    <glyph glyph-name="f" unicode="f" horiz-adv-x="368" 
d="M22 -168q44 30 71 76.5t27 97.5v22l-34 -2q-6 0 -16 3t-22 7q-20 -35 -31.5 -63t-14.5 -51l-2 -14q0 -14 3.5 -27t18.5 -49zM312 434l-188 -260q20 -12 33 -35q4 -6 19 -45l136 84l10 -36q-36 -32 -61 -52q-37 -29 -67 -44l2 -24l-2 -32q0 -81 -83 -160q-73 -69 -139 -80
h-4q-28 0 -43 48q-11 34 -11 72q0 43 24 103q8 21 46 99q-15 15 -21 25q-9 15 -9 31q0 27 17 43q8 7 41 25q41 22 71 58q23 26 51 78q54 100 93 161q80 125 113 125q14 0 19 -13.5t5 -30.5q0 -27 -16.5 -68.5t-35.5 -71.5z" />
    <glyph glyph-name="g" unicode="g" horiz-adv-x="466" 
d="M198 8l70 138l-2 2q-36 -40 -91 -81q-69 -51 -105 -51q-38 0 -59 42q-17 34 -17 76q0 87 118 168q99 68 178 76q26 0 39 -7t13 -19t-11 -24q-5 -5 -21 -16l-114 -62q-66 -33 -87 -49q-43 -33 -43 -75l2 -12q0 -10 16 -10l2 -2q23 0 59.5 18.5t64.5 45.5l108 118
q7 10 17.5 19t20.5 9q13 0 25.5 -18.5t12.5 -31.5q0 -10 -6.5 -23.5t-15.5 -28.5l-74 -140l2 -2l152 110l4 -42l-210 -160q-73 -114 -141 -177q-58 -53 -91 -53q-24 0 -24 24q0 47 83 131q60 60 125 107z" />
    <glyph glyph-name="h" unicode="h" horiz-adv-x="456" 
d="M64 166v-40q114 95 140 115q111 85 146 85q18 0 33 -15t15 -33q0 -13 -21 -41q-5 -7 -31 -37q-41 -48 -51.5 -64t-10.5 -24q3 -20 24 -20t69 29l67 43l4 -40q-71 -55 -107 -80q-79 -54 -115 -54q-21 0 -33.5 15.5t-12.5 38.5q0 31 24 73q9 15 82 113l-2 2
q-75 -51 -135 -110q-13 -13 -77 -82q-30 -32 -42 -32q-23 0 -31.5 35.5t-8.5 66.5q0 48 17 91q11 29 45 83q81 134 206 258q112 112 144 112q16 0 30 -7t14 -21q0 -31 -84 -135q-66 -81 -170 -193q-78 -84 -128 -132z" />
    <glyph glyph-name="i" unicode="i" horiz-adv-x="292" 
d="M274 168l8 -38q-59 -73 -120 -113q-50 -33 -88 -33q-41 0 -64.5 38.5t-23.5 81.5q0 86 70 167q65 75 116 75q17 0 30.5 -6.5t13.5 -21.5q0 -33 -54 -92q-45 -48 -86 -76l-4 -22q0 -42 56 -42q39 0 96 43zM226 366q-18 0 -29 12t-11 30q0 31 28 54.5t60 23.5t32 -32
t-24 -60t-56 -28z" />
    <glyph glyph-name="j" unicode="j" horiz-adv-x="380" 
d="M366 134l-212 -126q-49 -82 -84 -133q-66 -97 -104 -97q-13 0 -20.5 12.5t-7.5 27.5q0 48 57 114q41 47 99 90l128 248l-216 -74l34 99q9 15 86 43l75 27q55 19 77 19q19 0 31.5 -9.5t12.5 -28.5q0 -10 -8 -29.5t-14 -30.5l-104 -202l2 -2l162 96zM292 412q-18 0 -29 12
t-11 30q0 31 27.5 54.5t58.5 23.5q14 0 24 -9t10 -23q0 -31 -24.5 -59.5t-55.5 -28.5z" />
    <glyph glyph-name="k" unicode="k" horiz-adv-x="510" 
d="M478 628q0 -31 -95 -137q-71 -79 -187 -194q-132 -130 -136 -135l-2 -28q39 36 95 82q71 59 134 100q75 50 105 50q24 0 38 -22.5t14 -49.5q0 -47 -45 -88q-11 -10 -157 -96q16 -21 20 -25q18 -19 46 -19q17 0 51 19q47 27 131 93l10 -40l-79 -69q-109 -91 -159 -91
q-43 0 -84 44q-24 25 -58 80q-28 -25 -54 -68q-7 -12 -9 -15q-11 -15 -27 -15q-23 0 -33.5 45t-10.5 77q0 41 24 88q9 17 50 80q50 79 138 168q78 79 153 135.5t99 56.5q28 -4 28 -26zM214 140l94 64q27 20 30 23q18 17 18 31q0 8 -12 8q-27 0 -87 -38.5t-81 -65.5
q23 -10 26.5 -12t11.5 -10z" />
    <glyph glyph-name="l" unicode="l" horiz-adv-x="346" 
d="M110 284l2 -2q51 47 96 113q42 62 56 107l2 -2l-2 2q-38 -29 -70 -72q-39 -52 -84 -146zM304 178l14 -30q-69 -71 -105 -100q-73 -58 -129 -58q-50 0 -73 43q-17 32 -17 87q0 76 32 158q28 72 78 140q82 94 130 141q63 61 86 61q8 0 14 -9.5t6 -26.5q0 -79 -44 -154
q-55 -93 -206 -240q-10 -17 -10 -46l2 -22q9 -21 20.5 -32.5t29.5 -11.5q44 0 114 52q27 20 58 48z" />
    <glyph glyph-name="m" unicode="m" horiz-adv-x="726" 
d="M498 206l-160 -146l-29 -29q-37 -35 -63 -35q-18 0 -31 13t-13 31l-2 2q0 33 90 172l6 12q0 8 -8 8q-6 0 -19 -12.5t-19 -19.5l-79 -84q-44 -48 -77 -88q-8 -12 -19 -20t-23 -8q-32 0 -50 43q-14 34 -14 71q0 69 57.5 146.5t104.5 77.5h6q27 -3 29 -4q17 -5 17 -20
q0 -13 -15 -34q-4 -6 -25 -30l-56 -60q-12 -16 -17 -24q-11 -17 -11 -28q1 -4 2 -7t4 -3t11 7.5t9 8.5q39 41 83 82q72 68 115 100q64 48 94 48q20 0 31 -13t11 -33q0 -28 -38 -84l-56 -80l2 -2l222 174q13 11 23 17q17 11 25 11q5 0 12 -12l8 -16q8 -10 13 -20t5 -20
t-11 -26q-5 -7 -19 -24q-56 -61 -71 -84t-15 -42q0 -8 6.5 -17t13.5 -9l4 2q19 4 39 14q36 19 117 74l6 -46q-81 -64 -121 -92q-92 -64 -127 -64q-22 0 -36 17.5t-14 40.5q0 32 27 84q15 28 47 78z" />
    <glyph glyph-name="n" unicode="n" horiz-adv-x="488" 
d="M408 148l60 50l8 -44l-106 -102q-77 -68 -122 -68q-27 0 -41.5 19t-14.5 47q0 46 44 113l42 59l-2 2q-86 -62 -154 -152q-24 -30 -35 -41q-27 -27 -45 -27q-29 0 -42.5 31.5t-13.5 64.5v6q0 48 37 112t81 102q17 12 40 12q34 0 44 -6t10 -14q0 -23 -63 -89t-63 -77
q0 -12 12 -12q4 0 10 5t10 9q55 70 165 151q102 75 127 75q7 0 16 -20q5 -13 9 -24.5t7 -29.5q0 -15 -62 -80t-62 -104q0 -6 5 -12t13 -6q16 0 45 19q8 5 41 31z" />
    <glyph glyph-name="o" unicode="o" horiz-adv-x="412" 
d="M398 192l10 -42q-34 -43 -70.5 -61.5t-91.5 -18.5q-34 -36 -68 -54q-41 -22 -86 -22q-42 0 -71 37q-33 41 -33 107v4q0 50 25 92q22 37 64.5 71t93.5 54.5t95 20.5q20 0 38 -9t18 -27q0 -11 -7 -18q-3 -3 -17 -10q21 -6 28.5 -19.5t7.5 -38.5q0 -23 -6 -43.5t-32 -74.5
l10 -2q23 0 47 18.5zM214 270q-54 -32 -56 -33q-36 -22 -53 -38.5t-30 -43.5t-13 -49q0 -21 12 -29.5t32 -8.5q24 0 43 11q9 5 35 29q-12 24 -12 46q0 30 21 75l21 41v0z" />
    <glyph glyph-name="p" unicode="p" horiz-adv-x="498" 
d="M220 104l70 84q12 14 17 22q9 14 9 26q0 14 -12 14q-10 0 -37 -15t-39 -25q-25 -17 -50 -44q-20 -22 -42 -52h14q33 0 70 -10zM68 18l-96 -186q-9 -16 -18 -26q-14 -16 -26 -16q-16 0 -23 14t-7 32q0 36 15.5 74.5t46.5 83.5q36 50 75 112q31 49 87 146l-2 2l-158 -152
l-4 48l266 284q22 28 34 38q21 18 46 18q15 0 30.5 -6t15.5 -18q0 -13 -28 -45l-40 -43q-30 -32 -48 -55q-24 -31 -38 -63l2 -2q49 36 95 61q67 37 103 37q20 0 31 -14t11 -34q0 -80 -162 -222l28 -2q44 0 81 22q28 17 105 82l6 -46q-69 -67 -123 -100q-76 -46 -149 -46
q-22 0 -44 9q-17 9 -26 13q-24 -6 -46 -6t-40 6z" />
    <glyph glyph-name="q" unicode="q" horiz-adv-x="466" 
d="M230 12l-64 -90q-21 -35 -31 -56t-15 -38q48 20 96 68q54 53 54 92l-2 22h-17q-8 1 -21 2zM246 -150q-44 -44 -99 -82t-75 -38q-18 0 -30 23t-12 45q0 17 10.5 35t21.5 35q39 63 108 154l116 152l-2 2q-62 -59 -105 -96q-82 -70 -117 -70q-24 0 -49 30q-29 34 -29 78
t20 78q16 27 56 62q54 50 139 85t159 35h10q18 0 26 -8l6 -12.5t4 -13.5t-4 -10.5t-12 -13.5q24 -9 24 -36q0 -28 -51 -93q-68 -87 -69 -89q8 -4 16 -4q32 0 140 84l12 -38l-118 -102v-14q0 -34 -19 -73q-24 -49 -77 -105zM340 298h-2q-61 -16 -115.5 -39t-102.5 -55
q-34 -25 -48 -47t-14 -59l4 -2q44 0 115 49q79 54 163 153z" />
    <glyph glyph-name="r" unicode="r" horiz-adv-x="368" 
d="M174 240l-104 -22q-23 -38 -72 -81q-42 -37 -48 -43l-4 44q18 14 35 33q7 8 31 39q-28 3 -28 32q0 48 55 99q48 45 73 45q18 0 18 -18q0 -8 -3 -15.5l-5 -12.5q25 3 76 10.5t64 7.5q16 0 20 -4q21 -31 24 -54q0 -20 -12 -36q-7 -9 -30 -28q-40 -35 -61 -67
q-17 -26 -17 -47q0 -12 9 -20t21 -8q32 0 92 50l48 40l6 -38q-44 -48 -97 -92q-76 -62 -113 -62q-31 0 -49.5 23t-18.5 55q0 35 18 70q13 24 74 98z" />
    <glyph glyph-name="s" unicode="s" horiz-adv-x="368" 
d="M152 286l-144 -134q25 0 46 -20q12 -11 32 -40q48 31 62 48q18 23 18 64zM288 126l60 46l10 -38q-55 -55 -115 -95q-80 -53 -131 -53h-4q-53 0 -100 31t-60 83q-3 -3 -8 -7.5t-14 -4.5q-16 0 -16 18q0 9 9 20q4 5 15 16l218 198q0 28 14.5 47t41.5 19q22 0 29.5 -7.5
t10 -28t10.5 -58.5t8 -60q0 -56 -41 -107q-32 -39 -89 -75q16 -4 24 -4q33 0 67 18q25 13 61 42z" />
    <glyph glyph-name="t" unicode="t" horiz-adv-x="358" 
d="M286 422l62 -4q-33 -65 -42 -79q-33 -49 -104 -49l-20 2q-33 -43 -57 -87q-33 -61 -33 -99q0 -34 30 -34q26 0 172 104l4 -44q-82 -76 -115 -101q-82 -61 -137 -61q-29 0 -46.5 18.5t-17.5 49.5q0 23 7 46.5t21 53.5l-2 2l-52 -42l-12 38q49 37 86 74q41 42 68 86h-52
h-14.5t-29.5 -4l12 18q36 59 49 73q32 35 119 35q40 56 44 60q27 28 66 28q13 0 22.5 -3.5t9.5 -14.5t-16.5 -35z" />
    <glyph glyph-name="u" unicode="u" horiz-adv-x="498" 
d="M186 178l98 88q29 29 70 64q59 50 74 50q13 0 18.5 -14t5.5 -40v-4q0 -15 -15 -33q-6 -7 -27 -25q-32 -28 -63 -70q-39 -53 -39 -82q0 -22 24 -22t80 38q27 19 74 56l6 -44q-92 -88 -106 -100q-77 -64 -124 -64q-27 0 -43.5 19.5t-16.5 46.5q0 17 3.5 31t18.5 53l-2 2
q-47 -48 -75 -74q-53 -50 -87 -50t-55 31.5t-21 68.5q0 68 46 140q41 65 94 98q11 8 19.5 10t24.5 2h22q15 0 26.5 -4.5t11.5 -15.5q-1 -12 -16 -31q-10 -13 -22 -25q-26 -28 -36 -37q-15 -14 -42 -33.5t-38 -34.5q-16 -22 -16 -51q0 -16 8 -16q38 0 120 72z" />
    <glyph glyph-name="v" unicode="v" horiz-adv-x="444" 
d="M268 290q20 29 42 51q33 33 56 33q30 0 30 -34q0 -27 -32 -86q-26 -48 -52 -82q8 -6 14 -10t20 -4q19 0 55 21l31 19l6 -42q-29 -34 -55 -50q-33 -20 -73 -20q-14 0 -27 8q-16 12 -25 18q-30 -34 -79 -73q-62 -49 -89 -49q-43 0 -71.5 46t-28.5 106q0 92 66 169
q56 65 94 65q29 0 44.5 -6t15.5 -16q0 -31 -51 -94q-41 -50 -79 -82q-6 -16 -11 -33.5t-5 -26.5q0 -16 5 -27t19 -11q20 0 68 38q20 15 62 54l-2 8q0 28 16 59q12 23 36 51z" />
    <glyph glyph-name="w" unicode="w" 
d="M188 162l142 146q17 22 25 30q22 24 31 24q12 0 30 -6t18 -14q0 -10 -8 -26q-2 -4 -14 -24q-27 -42 -53 -92q-37 -71 -37 -96q0 -20 18 -20q21 0 65 42l33 32l-4 26q0 19 10 38.5t40 58.5t50 55t34 16q16 0 24 -16t8 -34q0 -38 -21 -77q-14 -27 -47 -65q8 -5 17 -9.5
t19 -4.5q16 0 41 17q18 12 37 29l2 -44q-26 -28 -49 -42q-29 -18 -61 -18q-29 0 -60 20l-82 -75q-59 -51 -94 -51q-19 0 -36 20q-10 13 -13 20q-7 19 -7 56l2 42q-43 -47 -71 -73q-52 -49 -81 -49q-42 0 -74 37t-32 93v6q0 51 23 92q17 30 61 74q57 59 85 77q20 13 39 13
q30 0 44 -9.5t14 -22.5q0 -33 -69 -103q-49 -49 -101 -89q-1 -2 -3 -15q-5 -29 -5 -41q0 -22 12 -22q11 0 50.5 33.5z" />
    <glyph glyph-name="x" unicode="x" horiz-adv-x="368" 
d="M262 256l-68 -70l-2 -42q0 -22 7.5 -34t28.5 -12q31 0 85 45l43 37l6 -40q-61 -61 -98 -94q-70 -62 -112 -62q-27 0 -37.5 22t-10.5 56l2 42l-58 -56q-25 -22 -41 -32t-25 -10q-16 0 -16 14q0 9 13 28.5t23 29.5q21 26 52 34l54 48l-2 120l-60 -31q-32 -17 -36 -17
q-12 4 -12 14q0 16 78 81t100 65q12 0 16 -10.5t4 -27.5v-14l-4 -90l90 80q15 15 25 22q17 12 31 12q9 0 14 -16v-4q0 -19 -27 -52q-31 -38 -57 -38z" />
    <glyph glyph-name="y" unicode="y" horiz-adv-x="476" 
d="M466 166l-302 -332q-9 -13 -24 -29q-20 -21 -30 -21q-13 0 -21.5 24.5t-8.5 41.5q0 10 11 30q2 4 17 30l134 226l-2 2q-60 -50 -110 -86t-58 -36q-25 0 -50 31q-30 37 -30 87v6q0 77 88 165q77 77 108 77q12 0 28 -17t16 -29q0 -24 -61 -88q-47 -49 -85 -80
q-17 -22 -20 -58q35 4 76 32q16 11 68 56l98 94q74 71 88 74q9 0 17.5 -19t8.5 -31q0 -18 -14 -46q-9 -17 -26 -42l-148 -220l2 -2l222 196z" />
    <glyph glyph-name="z" unicode="z" horiz-adv-x="390" 
d="M382 166l-160 -138q-16 -109 -107 -193q-77 -71 -139 -77h-4q-17 0 -29.5 14.5t-12.5 33.5q0 35 31 72q18 21 61 58l130 104q-7 30 -19.5 39.5t-44.5 18.5q-21 3 -24 4q-14 5 -14 16l2 6q2 18 50 52q93 66 132 98l-2 2l-122 -20l-116 -124l-10 32l70 86q-12 2 -19 8
t-7 18q0 28 42 68t66 40q13 0 19.5 -11.5t6.5 -24.5q47 7 86.5 18.5t45.5 11.5q13 0 22.5 -32.5t9.5 -47.5q0 -11 -10 -22q-6 -7 -20 -16l-128 -94q40 -28 52 -78l158 122zM150 -22l-114 -90q-29 -25 -37 -35q-16 -20 -19 -45q54 14 107.5 65.5t62.5 104.5z" />
    <glyph glyph-name="glyph89" horiz-adv-x="412" 
d="M254 164l-52 -186l-7.5 -31.5t-4.5 -26.5q0 -36 32 -52l-2 -2h-50q-79 0 -96 20q-16 16 -16 42q2 18 5.5 34t12.5 36l50 182l-20 108q33 11 50.5 35.5t31.5 72.5l44 162q24 81 48 107q38 41 126 41l52 -2q-33 -12 -51.5 -36t-32.5 -74l-46 -170l-96 -136q35 -12 38 -42
v-8q0 -13 -6 -36z" />
    <glyph glyph-name="glyph90" horiz-adv-x="412" 
d="M172 410l52 184q10 40 10 58q0 37 -30 52l2 2l60 2q69 0 86 -20q16 -16 16 -42q-2 -18 -5.5 -33.5t-12.5 -36.5l-50 -182l20 -108q-33 -11 -50.5 -35.5t-31.5 -72.5l-44 -162q-24 -82 -48 -108q-37 -40 -124 -40h-19h-16q-13 2 -19 2q33 12 51.5 36t32.5 74l46 170
l96 136q-35 12 -38 42l-2 6q0 12 6 33.5z" />
    <glyph glyph-name="quoteleft" unicode="&#x2018;" horiz-adv-x="314" 
d="M250 586q0 -32 -29.5 -64t-62.5 -32q-23 0 -31 2q-19 5 -19 20q0 19 16.5 56.5t29.5 55.5q34 39 60 55q18 11 34 11h10l-24 -33q-15 -21 -22 -35q25 -8 31.5 -15t6.5 -21z" />
    <glyph glyph-name="quoteright" unicode="&#x2019;" horiz-adv-x="314" 
d="M182 588q0 31 30.5 64.5t61.5 33.5q21 0 36.5 -4t15.5 -20q0 -18 -17.5 -56t-30.5 -54q-32 -40 -57 -56q-19 -12 -35 -12l-10 2q14 17 23 31q13 19 21 37q-24 8 -31 15t-7 19z" />
    <glyph glyph-name="quotedblleft" unicode="&#x201c;" horiz-adv-x="498" 
d="M468 586q0 -32 -29.5 -64t-62.5 -32q-23 0 -31 2q-19 5 -19 20q0 19 16.5 56.5t29.5 55.5q34 39 60 55q18 11 34 11h10l-24 -33q-15 -21 -22 -35q25 -8 31.5 -15t6.5 -21zM300 586q0 -31 -30.5 -63.5t-61.5 -32.5q-24 0 -32 2q-20 5 -20 20q0 19 17 56t31 56q33 39 58 55
q18 11 34 11h10l-24 -34t-20 -34q25 -8 31.5 -15t6.5 -21z" />
    <glyph glyph-name="quotedblright" unicode="&#x201d;" horiz-adv-x="682" 
d="M300 588q0 31 30.5 64.5t61.5 33.5q21 0 36.5 -4t15.5 -20q0 -18 -17.5 -56t-30.5 -54q-32 -40 -57 -56q-19 -12 -35 -12l-10 2q14 17 23 31q13 19 21 37q-24 8 -31 15t-7 19zM470 588q0 32 30 65t62 33q20 0 35 -4t15 -20q0 -18 -16.5 -56t-29.5 -54q-33 -39 -59 -56
q-19 -12 -35 -12l-10 2q17 21 24 31q14 19 22 37q-24 8 -31 15t-7 19z" />
    <glyph glyph-name="Aacute" unicode="&#xc1;" 
d="M444 348l62 228l-2 2l-214 -238l4 -2zM528 230l-22 -122q6 -16 24 -16q14 0 33.5 19l36.5 35l26 -26q-36 -55 -66 -83q-49 -47 -96 -47q-26 0 -45 18t-27 44q-2 2 -4 6t-2 14q0 24 26 148l-216 -6l-140 -204q-25 -40 -40.5 -54t-33.5 -14q-21 0 -30.5 5.5t-13.5 16.5v12
q0 34 31 79q36 52 87 73l50 86l-52 -2q-44 0 -50 22l-2 2q0 21 27 61q31 46 61 57q14 4 34.5 8t33.5 4q22 0 22 -6q0 -7 -33 -14t-33 -12q8 -10 20 -10l58 4l164 186q90 92 115 115q63 57 93 57q14 0 29.5 -14.5t17.5 -23.5t2.5 -15t0.5 -11q0 -11 -3 -25.5t-5 -26.5
l-54 -218q25 0 35 0.5t17 1.5l42 -6q-14 -26 -22.5 -51.5t-15.5 -62.5zM627 796l-26 -28q-22 -22 -32 -22l-2 2q-2 0 -10 -3t-12 -3q-2 0 -4.5 2t-5.5 4l-4 6v4l82 124q5 7 6 9q5 8 14 9h50q12 0 12 -14q0 -17 -31 -53q-25 -29 -37 -37z" />
    <glyph glyph-name="Agrave" unicode="&#xc0;" 
d="M444 348l62 228l-2 2l-214 -238l4 -2zM528 230l-22 -122q6 -16 24 -16q14 0 33.5 19l36.5 35l26 -26q-36 -55 -66 -83q-49 -47 -96 -47q-26 0 -45 18t-27 44q-2 2 -4 6t-2 14q0 24 26 148l-216 -6l-140 -204q-25 -40 -40.5 -54t-33.5 -14q-21 0 -30.5 5.5t-13.5 16.5v12
q0 34 31 79q36 52 87 73l50 86l-52 -2q-44 0 -50 22l-2 2q0 21 27 61q31 46 61 57q14 4 34.5 8t33.5 4q22 0 22 -6q0 -7 -33 -14t-33 -12q8 -10 20 -10l58 4l164 186q90 92 115 115q63 57 93 57q14 0 29.5 -14.5t17.5 -23.5t2.5 -15t0.5 -11q0 -11 -3 -25.5t-5 -26.5
l-54 -218q25 0 35 0.5t17 1.5l42 -6q-14 -26 -22.5 -51.5t-15.5 -62.5zM603 744q-9 -1 -32 20l-28 28q-11 8 -36 36q-32 37 -32 54q0 14 12 14h50q8 -1 12.5 -7.5l7.5 -10.5l40 -61q36 -53 42 -63v-4l-4 -6q-6 -6 -8 -6q-3 0 -12 3t-12 3z" />
    <glyph glyph-name="Oslash" unicode="&#xd8;" 
d="M444 348l62 228l-2 2l-214 -238l4 -2zM528 230l-22 -122q6 -16 24 -16q14 0 33.5 19l36.5 35l26 -26q-36 -55 -66 -83q-49 -47 -96 -47q-26 0 -45 18t-27 44q-2 2 -4 6t-2 14q0 24 26 148l-216 -6l-140 -204q-25 -40 -40.5 -54t-33.5 -14q-21 0 -30.5 5.5t-13.5 16.5v12
q0 34 31 79q36 52 87 73l50 86l-52 -2q-44 0 -50 22l-2 2q0 21 27 61q31 46 61 57q14 4 34.5 8t33.5 4q22 0 22 -6q0 -7 -33 -14t-33 -12q8 -10 20 -10l58 4l164 186q90 92 115 115q63 57 93 57q14 0 29.5 -14.5t17.5 -23.5t2.5 -15t0.5 -11q0 -11 -3 -25.5t-5 -26.5
l-54 -218q25 0 35 0.5t17 1.5l42 -6q-14 -26 -22.5 -51.5t-15.5 -62.5zM628 910q-25 0 -45 -14q-15 -11 -25 -28q16 -5 23 -9t7 -7t-4.5 -7.5t-9.5 -4.5l-22 -4l-22 4q-18 3 -18 20q0 6 5 16t11 16q12 15 45 29.5t55 14.5q34 0 67 -17.5t33 -40.5q0 -21 -12 -39
q-6 -9 -30 -33l-74 -52l-14.5 -10t-7.5 -12l6 -20q0 -10 -18 -10q-13 0 -22.5 12.5t-9.5 21.5q0 24 28 46l80 58q10 6 18 18.5t8 23.5q0 12 -17 20t-35 8z" />
    <glyph glyph-name="Oslash" unicode="&#x1ea2;" 
d="M444 348l62 228l-2 2l-214 -238l4 -2zM528 230l-22 -122q6 -16 24 -16q14 0 33.5 19l36.5 35l26 -26q-36 -55 -66 -83q-49 -47 -96 -47q-26 0 -45 18t-27 44q-2 2 -4 6t-2 14q0 24 26 148l-216 -6l-140 -204q-25 -40 -40.5 -54t-33.5 -14q-21 0 -30.5 5.5t-13.5 16.5v12
q0 34 31 79q36 52 87 73l50 86l-52 -2q-44 0 -50 22l-2 2q0 21 27 61q31 46 61 57q14 4 34.5 8t33.5 4q22 0 22 -6q0 -7 -33 -14t-33 -12q8 -10 20 -10l58 4l164 186q90 92 115 115q63 57 93 57q14 0 29.5 -14.5t17.5 -23.5t2.5 -15t0.5 -11q0 -11 -3 -25.5t-5 -26.5
l-54 -218q25 0 35 0.5t17 1.5l42 -6q-14 -26 -22.5 -51.5t-15.5 -62.5zM628 910q-25 0 -45 -14q-15 -11 -25 -28q16 -5 23 -9t7 -7t-4.5 -7.5t-9.5 -4.5l-22 -4l-22 4q-18 3 -18 20q0 6 5 16t11 16q12 15 45 29.5t55 14.5q34 0 67 -17.5t33 -40.5q0 -21 -12 -39
q-6 -9 -30 -33l-74 -52l-14.5 -10t-7.5 -12l6 -20q0 -10 -18 -10q-13 0 -22.5 12.5t-9.5 21.5q0 24 28 46l80 58q10 6 18 18.5t8 23.5q0 12 -17 20t-35 8z" />
    <glyph glyph-name="Atilde" unicode="&#xc3;" 
d="M444 348l62 228l-2 2l-214 -238l4 -2zM528 230l-22 -122q6 -16 24 -16q14 0 33.5 19l36.5 35l26 -26q-36 -55 -66 -83q-49 -47 -96 -47q-26 0 -45 18t-27 44q-2 2 -4 6t-2 14q0 24 26 148l-216 -6l-140 -204q-25 -40 -40.5 -54t-33.5 -14q-21 0 -30.5 5.5t-13.5 16.5v12
q0 34 31 79q36 52 87 73l50 86l-52 -2q-44 0 -50 22l-2 2q0 21 27 61q31 46 61 57q14 4 34.5 8t33.5 4q22 0 22 -6q0 -7 -33 -14t-33 -12q8 -10 20 -10l58 4l164 186q90 92 115 115q63 57 93 57q14 0 29.5 -14.5t17.5 -23.5t2.5 -15t0.5 -11q0 -11 -3 -25.5t-5 -26.5
l-54 -218q25 0 35 0.5t17 1.5l42 -6q-14 -26 -22.5 -51.5t-15.5 -62.5zM542 870h4q22 0 55 -26t45 -26q18 0 31 28.5t21 31.5h6q7 0 13.5 -5.5t6.5 -12.5q0 -30 -17 -62q-20 -38 -47 -38l-2 2q-19 0 -42 15q-50 33 -60 33q-18 0 -35 -29q-11 -18 -21 -23.5t-14 -5.5
q-22 0 -22 22q0 30 26 63t52 33z" />
    <glyph glyph-name="Idieresis" unicode="&#xcf;" 
d="M444 348l62 228l-2 2l-214 -238l4 -2zM528 230l-22 -122q6 -16 24 -16q14 0 33.5 19l36.5 35l26 -26q-36 -55 -66 -83q-49 -47 -96 -47q-26 0 -45 18t-27 44q-2 2 -4 6t-2 14q0 24 26 148l-216 -6l-140 -204q-25 -40 -40.5 -54t-33.5 -14q-21 0 -30.5 5.5t-13.5 16.5v12
q0 34 31 79q36 52 87 73l50 86l-52 -2q-44 0 -50 22l-2 2q0 21 27 61q31 46 61 57q14 4 34.5 8t33.5 4q22 0 22 -6q0 -7 -33 -14t-33 -12q8 -10 20 -10l58 4l164 186q90 92 115 115q63 57 93 57q14 0 29.5 -14.5t17.5 -23.5t2.5 -15t0.5 -11q0 -11 -3 -25.5t-5 -26.5
l-54 -218q25 0 35 0.5t17 1.5l42 -6q-14 -26 -22.5 -51.5t-15.5 -62.5zM175 -188q9 66 54 78q12 4 24 4q16 0 28 -8t12 -22l-2 -12q-8 -35 -37 -60q-25 -22 -49 -22q-14 0 -22 7.5t-8 24.5v10z" />
    <glyph glyph-name="Idieresis" unicode="&#x1ea0;" 
d="M444 348l62 228l-2 2l-214 -238l4 -2zM528 230l-22 -122q6 -16 24 -16q14 0 33.5 19l36.5 35l26 -26q-36 -55 -66 -83q-49 -47 -96 -47q-26 0 -45 18t-27 44q-2 2 -4 6t-2 14q0 24 26 148l-216 -6l-140 -204q-25 -40 -40.5 -54t-33.5 -14q-21 0 -30.5 5.5t-13.5 16.5v12
q0 34 31 79q36 52 87 73l50 86l-52 -2q-44 0 -50 22l-2 2q0 21 27 61q31 46 61 57q14 4 34.5 8t33.5 4q22 0 22 -6q0 -7 -33 -14t-33 -12q8 -10 20 -10l58 4l164 186q90 92 115 115q63 57 93 57q14 0 29.5 -14.5t17.5 -23.5t2.5 -15t0.5 -11q0 -11 -3 -25.5t-5 -26.5
l-54 -218q25 0 35 0.5t17 1.5l42 -6q-14 -26 -22.5 -51.5t-15.5 -62.5zM175 -188q9 66 54 78q12 4 24 4q16 0 28 -8t12 -22l-2 -12q-8 -35 -37 -60q-25 -22 -49 -22q-14 0 -22 7.5t-8 24.5v10z" />
    <glyph glyph-name="Edieresis" unicode="&#xcb;" 
d="M444 348l62 228l-2 2l-214 -238l4 -2zM528 230l-22 -122q6 -16 24 -16q14 0 33.5 19l36.5 35l26 -26q-36 -55 -66 -83q-49 -47 -96 -47q-26 0 -45 18t-27 44q-2 2 -4 6t-2 14q0 24 26 148l-216 -6l-140 -204q-25 -40 -40.5 -54t-33.5 -14q-21 0 -30.5 5.5t-13.5 16.5v12
q0 34 31 79q36 52 87 73l50 86l-52 -2q-44 0 -50 22l-2 2q0 21 27 61q31 46 61 57q14 4 34.5 8t33.5 4q22 0 22 -6q0 -7 -33 -14t-33 -12q8 -10 20 -10l58 4l164 186q90 92 115 115q63 57 93 57q14 0 29.5 -14.5t17.5 -23.5t2.5 -15t0.5 -11q0 -11 -3 -25.5t-5 -26.5
l-54 -218q25 0 35 0.5t17 1.5l42 -6q-14 -26 -22.5 -51.5t-15.5 -62.5zM725 824q-25 -35 -61.5 -59.5t-76.5 -24.5q-36 0 -72 25.5t-40 60.5q0 14 3.5 22.5t16.5 11.5h10q13 0 23.5 -8.5t14.5 -19.5q9 -19 23.5 -28.5t30.5 -9.5q22 0 46.5 16t37.5 36q9 12 28 12
q22 0 22 -16q0 -9 -6 -18z" />
    <glyph glyph-name="Edieresis" unicode="&#x102;" 
d="M444 348l62 228l-2 2l-214 -238l4 -2zM528 230l-22 -122q6 -16 24 -16q14 0 33.5 19l36.5 35l26 -26q-36 -55 -66 -83q-49 -47 -96 -47q-26 0 -45 18t-27 44q-2 2 -4 6t-2 14q0 24 26 148l-216 -6l-140 -204q-25 -40 -40.5 -54t-33.5 -14q-21 0 -30.5 5.5t-13.5 16.5v12
q0 34 31 79q36 52 87 73l50 86l-52 -2q-44 0 -50 22l-2 2q0 21 27 61q31 46 61 57q14 4 34.5 8t33.5 4q22 0 22 -6q0 -7 -33 -14t-33 -12q8 -10 20 -10l58 4l164 186q90 92 115 115q63 57 93 57q14 0 29.5 -14.5t17.5 -23.5t2.5 -15t0.5 -11q0 -11 -3 -25.5t-5 -26.5
l-54 -218q25 0 35 0.5t17 1.5l42 -6q-14 -26 -22.5 -51.5t-15.5 -62.5zM725 824q-25 -35 -61.5 -59.5t-76.5 -24.5q-36 0 -72 25.5t-40 60.5q0 14 3.5 22.5t16.5 11.5h10q13 0 23.5 -8.5t14.5 -19.5q9 -19 23.5 -28.5t30.5 -9.5q22 0 46.5 16t37.5 36q9 12 28 12
q22 0 22 -16q0 -9 -6 -18z" />
    <glyph glyph-name="Ydieresis" unicode="&#x178;" 
d="M444 348l62 228l-2 2l-214 -238l4 -2zM528 230l-22 -122q6 -16 24 -16q14 0 33.5 19l36.5 35l26 -26q-36 -55 -66 -83q-49 -47 -96 -47q-26 0 -45 18t-27 44q-2 2 -4 6t-2 14q0 24 26 148l-216 -6l-140 -204q-25 -40 -40.5 -54t-33.5 -14q-21 0 -30.5 5.5t-13.5 16.5v12
q0 34 31 79q36 52 87 73l50 86l-52 -2q-44 0 -50 22l-2 2q0 21 27 61q31 46 61 57q14 4 34.5 8t33.5 4q22 0 22 -6q0 -7 -33 -14t-33 -12q8 -10 20 -10l58 4l164 186q90 92 115 115q63 57 93 57q14 0 29.5 -14.5t17.5 -23.5t2.5 -15t0.5 -11q0 -11 -3 -25.5t-5 -26.5
l-54 -218q25 0 35 0.5t17 1.5l42 -6q-14 -26 -22.5 -51.5t-15.5 -62.5zM725 824q-25 -35 -61.5 -59.5t-76.5 -24.5q-36 0 -72 25.5t-40 60.5q0 14 3.5 22.5t16.5 11.5h10q13 0 23.5 -8.5t14.5 -19.5q9 -19 23.5 -28.5t30.5 -9.5q22 0 46.5 16t37.5 36q9 12 28 12
q22 0 22 -16q0 -9 -6 -18zM680 907l-26 -28q-22 -22 -32 -22l-2 2q-2 0 -10 -3t-12 -3q-2 0 -4.5 2t-5.5 4l-4 6v4l82 124q5 7 6 9q5 8 14 9h50q12 0 12 -14q0 -17 -31 -53q-25 -29 -37 -37z" />
    <glyph glyph-name="Ydieresis" unicode="&#x1eae;" 
d="M444 348l62 228l-2 2l-214 -238l4 -2zM528 230l-22 -122q6 -16 24 -16q14 0 33.5 19l36.5 35l26 -26q-36 -55 -66 -83q-49 -47 -96 -47q-26 0 -45 18t-27 44q-2 2 -4 6t-2 14q0 24 26 148l-216 -6l-140 -204q-25 -40 -40.5 -54t-33.5 -14q-21 0 -30.5 5.5t-13.5 16.5v12
q0 34 31 79q36 52 87 73l50 86l-52 -2q-44 0 -50 22l-2 2q0 21 27 61q31 46 61 57q14 4 34.5 8t33.5 4q22 0 22 -6q0 -7 -33 -14t-33 -12q8 -10 20 -10l58 4l164 186q90 92 115 115q63 57 93 57q14 0 29.5 -14.5t17.5 -23.5t2.5 -15t0.5 -11q0 -11 -3 -25.5t-5 -26.5
l-54 -218q25 0 35 0.5t17 1.5l42 -6q-14 -26 -22.5 -51.5t-15.5 -62.5zM725 824q-25 -35 -61.5 -59.5t-76.5 -24.5q-36 0 -72 25.5t-40 60.5q0 14 3.5 22.5t16.5 11.5h10q13 0 23.5 -8.5t14.5 -19.5q9 -19 23.5 -28.5t30.5 -9.5q22 0 46.5 16t37.5 36q9 12 28 12
q22 0 22 -16q0 -9 -6 -18zM680 907l-26 -28q-22 -22 -32 -22l-2 2q-2 0 -10 -3t-12 -3q-2 0 -4.5 2t-5.5 4l-4 6v4l82 124q5 7 6 9q5 8 14 9h50q12 0 12 -14q0 -17 -31 -53q-25 -29 -37 -37z" />
    <glyph glyph-name="exclamdown" unicode="&#xa1;" 
d="M444 348l62 228l-2 2l-214 -238l4 -2zM528 230l-22 -122q6 -16 24 -16q14 0 33.5 19l36.5 35l26 -26q-36 -55 -66 -83q-49 -47 -96 -47q-26 0 -45 18t-27 44q-2 2 -4 6t-2 14q0 24 26 148l-216 -6l-140 -204q-25 -40 -40.5 -54t-33.5 -14q-21 0 -30.5 5.5t-13.5 16.5v12
q0 34 31 79q36 52 87 73l50 86l-52 -2q-44 0 -50 22l-2 2q0 21 27 61q31 46 61 57q14 4 34.5 8t33.5 4q22 0 22 -6q0 -7 -33 -14t-33 -12q8 -10 20 -10l58 4l164 186q90 92 115 115q63 57 93 57q14 0 29.5 -14.5t17.5 -23.5t2.5 -15t0.5 -11q0 -11 -3 -25.5t-5 -26.5
l-54 -218q25 0 35 0.5t17 1.5l42 -6q-14 -26 -22.5 -51.5t-15.5 -62.5zM725 824q-25 -35 -61.5 -59.5t-76.5 -24.5q-36 0 -72 25.5t-40 60.5q0 14 3.5 22.5t16.5 11.5h10q13 0 23.5 -8.5t14.5 -19.5q9 -19 23.5 -28.5t30.5 -9.5q22 0 46.5 16t37.5 36q9 12 28 12
q22 0 22 -16q0 -9 -6 -18zM605 849q-9 -1 -32 20l-28 28q-11 8 -36 36q-32 37 -32 54q0 14 12 14h50q8 -1 12.5 -7.5l7.5 -10.5l40 -61q36 -53 42 -63v-4l-4 -6q-6 -6 -8 -6q-3 0 -12 3t-12 3z" />
    <glyph glyph-name="exclamdown" unicode="&#x1eb0;" 
d="M444 348l62 228l-2 2l-214 -238l4 -2zM528 230l-22 -122q6 -16 24 -16q14 0 33.5 19l36.5 35l26 -26q-36 -55 -66 -83q-49 -47 -96 -47q-26 0 -45 18t-27 44q-2 2 -4 6t-2 14q0 24 26 148l-216 -6l-140 -204q-25 -40 -40.5 -54t-33.5 -14q-21 0 -30.5 5.5t-13.5 16.5v12
q0 34 31 79q36 52 87 73l50 86l-52 -2q-44 0 -50 22l-2 2q0 21 27 61q31 46 61 57q14 4 34.5 8t33.5 4q22 0 22 -6q0 -7 -33 -14t-33 -12q8 -10 20 -10l58 4l164 186q90 92 115 115q63 57 93 57q14 0 29.5 -14.5t17.5 -23.5t2.5 -15t0.5 -11q0 -11 -3 -25.5t-5 -26.5
l-54 -218q25 0 35 0.5t17 1.5l42 -6q-14 -26 -22.5 -51.5t-15.5 -62.5zM725 824q-25 -35 -61.5 -59.5t-76.5 -24.5q-36 0 -72 25.5t-40 60.5q0 14 3.5 22.5t16.5 11.5h10q13 0 23.5 -8.5t14.5 -19.5q9 -19 23.5 -28.5t30.5 -9.5q22 0 46.5 16t37.5 36q9 12 28 12
q22 0 22 -16q0 -9 -6 -18zM605 849q-9 -1 -32 20l-28 28q-11 8 -36 36q-32 37 -32 54q0 14 12 14h50q8 -1 12.5 -7.5l7.5 -10.5l40 -61q36 -53 42 -63v-4l-4 -6q-6 -6 -8 -6q-3 0 -12 3t-12 3z" />
    <glyph glyph-name="germandbls" unicode="&#xdf;" 
d="M444 348l62 228l-2 2l-214 -238l4 -2zM528 230l-22 -122q6 -16 24 -16q14 0 33.5 19l36.5 35l26 -26q-36 -55 -66 -83q-49 -47 -96 -47q-26 0 -45 18t-27 44q-2 2 -4 6t-2 14q0 24 26 148l-216 -6l-140 -204q-25 -40 -40.5 -54t-33.5 -14q-21 0 -30.5 5.5t-13.5 16.5v12
q0 34 31 79q36 52 87 73l50 86l-52 -2q-44 0 -50 22l-2 2q0 21 27 61q31 46 61 57q14 4 34.5 8t33.5 4q22 0 22 -6q0 -7 -33 -14t-33 -12q8 -10 20 -10l58 4l164 186q90 92 115 115q63 57 93 57q14 0 29.5 -14.5t17.5 -23.5t2.5 -15t0.5 -11q0 -11 -3 -25.5t-5 -26.5
l-54 -218q25 0 35 0.5t17 1.5l42 -6q-14 -26 -22.5 -51.5t-15.5 -62.5zM725 824q-25 -35 -61.5 -59.5t-76.5 -24.5q-36 0 -72 25.5t-40 60.5q0 14 3.5 22.5t16.5 11.5h10q13 0 23.5 -8.5t14.5 -19.5q9 -19 23.5 -28.5t30.5 -9.5q22 0 46.5 16t37.5 36q9 12 28 12
q22 0 22 -16q0 -9 -6 -18zM664 1042q-25 0 -45 -14q-15 -11 -25 -28q16 -5 23 -9t7 -7t-4.5 -7.5t-9.5 -4.5l-22 -4l-22 4q-18 3 -18 20q0 6 5 16t11 16q12 15 45 29.5t55 14.5q34 0 67 -17.5t33 -40.5q0 -21 -12 -39q-6 -9 -30 -33l-74 -52l-14.5 -10t-7.5 -12l6 -20
q0 -10 -18 -10q-13 0 -22.5 12.5t-9.5 21.5q0 24 28 46l80 58q10 6 18 18.5t8 23.5q0 12 -17 20t-35 8z" />
    <glyph glyph-name="germandbls" unicode="&#x1eb2;" 
d="M444 348l62 228l-2 2l-214 -238l4 -2zM528 230l-22 -122q6 -16 24 -16q14 0 33.5 19l36.5 35l26 -26q-36 -55 -66 -83q-49 -47 -96 -47q-26 0 -45 18t-27 44q-2 2 -4 6t-2 14q0 24 26 148l-216 -6l-140 -204q-25 -40 -40.5 -54t-33.5 -14q-21 0 -30.5 5.5t-13.5 16.5v12
q0 34 31 79q36 52 87 73l50 86l-52 -2q-44 0 -50 22l-2 2q0 21 27 61q31 46 61 57q14 4 34.5 8t33.5 4q22 0 22 -6q0 -7 -33 -14t-33 -12q8 -10 20 -10l58 4l164 186q90 92 115 115q63 57 93 57q14 0 29.5 -14.5t17.5 -23.5t2.5 -15t0.5 -11q0 -11 -3 -25.5t-5 -26.5
l-54 -218q25 0 35 0.5t17 1.5l42 -6q-14 -26 -22.5 -51.5t-15.5 -62.5zM725 824q-25 -35 -61.5 -59.5t-76.5 -24.5q-36 0 -72 25.5t-40 60.5q0 14 3.5 22.5t16.5 11.5h10q13 0 23.5 -8.5t14.5 -19.5q9 -19 23.5 -28.5t30.5 -9.5q22 0 46.5 16t37.5 36q9 12 28 12
q22 0 22 -16q0 -9 -6 -18zM664 1042q-25 0 -45 -14q-15 -11 -25 -28q16 -5 23 -9t7 -7t-4.5 -7.5t-9.5 -4.5l-22 -4l-22 4q-18 3 -18 20q0 6 5 16t11 16q12 15 45 29.5t55 14.5q34 0 67 -17.5t33 -40.5q0 -21 -12 -39q-6 -9 -30 -33l-74 -52l-14.5 -10t-7.5 -12l6 -20
q0 -10 -18 -10q-13 0 -22.5 12.5t-9.5 21.5q0 24 28 46l80 58q10 6 18 18.5t8 23.5q0 12 -17 20t-35 8z" />
    <glyph glyph-name="Udieresis" unicode="&#xdc;" 
d="M444 348l62 228l-2 2l-214 -238l4 -2zM528 230l-22 -122q6 -16 24 -16q14 0 33.5 19l36.5 35l26 -26q-36 -55 -66 -83q-49 -47 -96 -47q-26 0 -45 18t-27 44q-2 2 -4 6t-2 14q0 24 26 148l-216 -6l-140 -204q-25 -40 -40.5 -54t-33.5 -14q-21 0 -30.5 5.5t-13.5 16.5v12
q0 34 31 79q36 52 87 73l50 86l-52 -2q-44 0 -50 22l-2 2q0 21 27 61q31 46 61 57q14 4 34.5 8t33.5 4q22 0 22 -6q0 -7 -33 -14t-33 -12q8 -10 20 -10l58 4l164 186q90 92 115 115q63 57 93 57q14 0 29.5 -14.5t17.5 -23.5t2.5 -15t0.5 -11q0 -11 -3 -25.5t-5 -26.5
l-54 -218q25 0 35 0.5t17 1.5l42 -6q-14 -26 -22.5 -51.5t-15.5 -62.5zM725 824q-25 -35 -61.5 -59.5t-76.5 -24.5q-36 0 -72 25.5t-40 60.5q0 14 3.5 22.5t16.5 11.5h10q13 0 23.5 -8.5t14.5 -19.5q9 -19 23.5 -28.5t30.5 -9.5q22 0 46.5 16t37.5 36q9 12 28 12
q22 0 22 -16q0 -9 -6 -18zM593 995h4q22 0 55 -26t45 -26q18 0 31 28.5t21 31.5h6q7 0 13.5 -5.5t6.5 -12.5q0 -30 -17 -62q-20 -38 -47 -38l-2 2q-19 0 -42 15q-50 33 -60 33q-18 0 -35 -29q-11 -18 -21 -23.5t-14 -5.5q-22 0 -22 22q0 30 26 63t52 33z" />
    <glyph glyph-name="Udieresis" unicode="&#x1eb4;" 
d="M444 348l62 228l-2 2l-214 -238l4 -2zM528 230l-22 -122q6 -16 24 -16q14 0 33.5 19l36.5 35l26 -26q-36 -55 -66 -83q-49 -47 -96 -47q-26 0 -45 18t-27 44q-2 2 -4 6t-2 14q0 24 26 148l-216 -6l-140 -204q-25 -40 -40.5 -54t-33.5 -14q-21 0 -30.5 5.5t-13.5 16.5v12
q0 34 31 79q36 52 87 73l50 86l-52 -2q-44 0 -50 22l-2 2q0 21 27 61q31 46 61 57q14 4 34.5 8t33.5 4q22 0 22 -6q0 -7 -33 -14t-33 -12q8 -10 20 -10l58 4l164 186q90 92 115 115q63 57 93 57q14 0 29.5 -14.5t17.5 -23.5t2.5 -15t0.5 -11q0 -11 -3 -25.5t-5 -26.5
l-54 -218q25 0 35 0.5t17 1.5l42 -6q-14 -26 -22.5 -51.5t-15.5 -62.5zM725 824q-25 -35 -61.5 -59.5t-76.5 -24.5q-36 0 -72 25.5t-40 60.5q0 14 3.5 22.5t16.5 11.5h10q13 0 23.5 -8.5t14.5 -19.5q9 -19 23.5 -28.5t30.5 -9.5q22 0 46.5 16t37.5 36q9 12 28 12
q22 0 22 -16q0 -9 -6 -18zM593 995h4q22 0 55 -26t45 -26q18 0 31 28.5t21 31.5h6q7 0 13.5 -5.5t6.5 -12.5q0 -30 -17 -62q-20 -38 -47 -38l-2 2q-19 0 -42 15q-50 33 -60 33q-18 0 -35 -29q-11 -18 -21 -23.5t-14 -5.5q-22 0 -22 22q0 30 26 63t52 33z" />
    <glyph glyph-name="asciitilde" unicode="~" 
d="M444 348l62 228l-2 2l-214 -238l4 -2zM528 230l-22 -122q6 -16 24 -16q14 0 33.5 19l36.5 35l26 -26q-36 -55 -66 -83q-49 -47 -96 -47q-26 0 -45 18t-27 44q-2 2 -4 6t-2 14q0 24 26 148l-216 -6l-140 -204q-25 -40 -40.5 -54t-33.5 -14q-21 0 -30.5 5.5t-13.5 16.5v12
q0 34 31 79q36 52 87 73l50 86l-52 -2q-44 0 -50 22l-2 2q0 21 27 61q31 46 61 57q14 4 34.5 8t33.5 4q22 0 22 -6q0 -7 -33 -14t-33 -12q8 -10 20 -10l58 4l164 186q90 92 115 115q63 57 93 57q14 0 29.5 -14.5t17.5 -23.5t2.5 -15t0.5 -11q0 -11 -3 -25.5t-5 -26.5
l-54 -218q25 0 35 0.5t17 1.5l42 -6q-14 -26 -22.5 -51.5t-15.5 -62.5zM725 824q-25 -35 -61.5 -59.5t-76.5 -24.5q-36 0 -72 25.5t-40 60.5q0 14 3.5 22.5t16.5 11.5h10q13 0 23.5 -8.5t14.5 -19.5q9 -19 23.5 -28.5t30.5 -9.5q22 0 46.5 16t37.5 36q9 12 28 12
q22 0 22 -16q0 -9 -6 -18zM175 -188q9 66 54 78q12 4 24 4q16 0 28 -8t12 -22l-2 -12q-8 -35 -37 -60q-25 -22 -49 -22q-14 0 -22 7.5t-8 24.5v10z" />
    <glyph glyph-name="asciitilde" unicode="&#x1eb6;" 
d="M444 348l62 228l-2 2l-214 -238l4 -2zM528 230l-22 -122q6 -16 24 -16q14 0 33.5 19l36.5 35l26 -26q-36 -55 -66 -83q-49 -47 -96 -47q-26 0 -45 18t-27 44q-2 2 -4 6t-2 14q0 24 26 148l-216 -6l-140 -204q-25 -40 -40.5 -54t-33.5 -14q-21 0 -30.5 5.5t-13.5 16.5v12
q0 34 31 79q36 52 87 73l50 86l-52 -2q-44 0 -50 22l-2 2q0 21 27 61q31 46 61 57q14 4 34.5 8t33.5 4q22 0 22 -6q0 -7 -33 -14t-33 -12q8 -10 20 -10l58 4l164 186q90 92 115 115q63 57 93 57q14 0 29.5 -14.5t17.5 -23.5t2.5 -15t0.5 -11q0 -11 -3 -25.5t-5 -26.5
l-54 -218q25 0 35 0.5t17 1.5l42 -6q-14 -26 -22.5 -51.5t-15.5 -62.5zM725 824q-25 -35 -61.5 -59.5t-76.5 -24.5q-36 0 -72 25.5t-40 60.5q0 14 3.5 22.5t16.5 11.5h10q13 0 23.5 -8.5t14.5 -19.5q9 -19 23.5 -28.5t30.5 -9.5q22 0 46.5 16t37.5 36q9 12 28 12
q22 0 22 -16q0 -9 -6 -18zM175 -188q9 66 54 78q12 4 24 4q16 0 28 -8t12 -22l-2 -12q-8 -35 -37 -60q-25 -22 -49 -22q-14 0 -22 7.5t-8 24.5v10z" />
    <glyph glyph-name="Acircumflex" unicode="&#xc2;" 
d="M444 348l62 228l-2 2l-214 -238l4 -2zM528 230l-22 -122q6 -16 24 -16q14 0 33.5 19l36.5 35l26 -26q-36 -55 -66 -83q-49 -47 -96 -47q-26 0 -45 18t-27 44q-2 2 -4 6t-2 14q0 24 26 148l-216 -6l-140 -204q-25 -40 -40.5 -54t-33.5 -14q-21 0 -30.5 5.5t-13.5 16.5v12
q0 34 31 79q36 52 87 73l50 86l-52 -2q-44 0 -50 22l-2 2q0 21 27 61q31 46 61 57q14 4 34.5 8t33.5 4q22 0 22 -6q0 -7 -33 -14t-33 -12q8 -10 20 -10l58 4l164 186q90 92 115 115q63 57 93 57q14 0 29.5 -14.5t17.5 -23.5t2.5 -15t0.5 -11q0 -11 -3 -25.5t-5 -26.5
l-54 -218q25 0 35 0.5t17 1.5l42 -6q-14 -26 -22.5 -51.5t-15.5 -62.5zM558 816q18 7 34.5 11.5t31.5 4.5h18q24 -4 32 -39q4 -41 6 -51q0 -20 -4 -24t-28 -4q-14 0 -17.5 1t-8 9.5t-9 24.5t-15.5 33q-13 -6 -54 -30q-66 -38 -96 -38t-30 8q0 5 7 12t13 10z" />
    <glyph glyph-name="Adieresis" unicode="&#xc4;" 
d="M444 348l62 228l-2 2l-214 -238l4 -2zM528 230l-22 -122q6 -16 24 -16q14 0 33.5 19l36.5 35l26 -26q-36 -55 -66 -83q-49 -47 -96 -47q-26 0 -45 18t-27 44q-2 2 -4 6t-2 14q0 24 26 148l-216 -6l-140 -204q-25 -40 -40.5 -54t-33.5 -14q-21 0 -30.5 5.5t-13.5 16.5v12
q0 34 31 79q36 52 87 73l50 86l-52 -2q-44 0 -50 22l-2 2q0 21 27 61q31 46 61 57q14 4 34.5 8t33.5 4q22 0 22 -6q0 -7 -33 -14t-33 -12q8 -10 20 -10l58 4l164 186q90 92 115 115q63 57 93 57q14 0 29.5 -14.5t17.5 -23.5t2.5 -15t0.5 -11q0 -11 -3 -25.5t-5 -26.5
l-54 -218q25 0 35 0.5t17 1.5l42 -6q-14 -26 -22.5 -51.5t-15.5 -62.5zM558 816q18 7 34.5 11.5t31.5 4.5h18q24 -4 32 -39q4 -41 6 -51q0 -20 -4 -24t-28 -4q-14 0 -17.5 1t-8 9.5t-9 24.5t-15.5 33q-13 -6 -54 -30q-66 -38 -96 -38t-30 8q0 5 7 12t13 10zM784 823l-26 -28
q-22 -22 -32 -22l-2 2q-2 0 -10 -3t-12 -3q-2 0 -4.5 2t-5.5 4l-4 6v4l82 124q5 7 6 9q5 8 14 9h50q12 0 12 -14q0 -17 -31 -53q-25 -29 -37 -37z" />
    <glyph glyph-name="Adieresis" unicode="&#x1ea4;" 
d="M444 348l62 228l-2 2l-214 -238l4 -2zM528 230l-22 -122q6 -16 24 -16q14 0 33.5 19l36.5 35l26 -26q-36 -55 -66 -83q-49 -47 -96 -47q-26 0 -45 18t-27 44q-2 2 -4 6t-2 14q0 24 26 148l-216 -6l-140 -204q-25 -40 -40.5 -54t-33.5 -14q-21 0 -30.5 5.5t-13.5 16.5v12
q0 34 31 79q36 52 87 73l50 86l-52 -2q-44 0 -50 22l-2 2q0 21 27 61q31 46 61 57q14 4 34.5 8t33.5 4q22 0 22 -6q0 -7 -33 -14t-33 -12q8 -10 20 -10l58 4l164 186q90 92 115 115q63 57 93 57q14 0 29.5 -14.5t17.5 -23.5t2.5 -15t0.5 -11q0 -11 -3 -25.5t-5 -26.5
l-54 -218q25 0 35 0.5t17 1.5l42 -6q-14 -26 -22.5 -51.5t-15.5 -62.5zM558 816q18 7 34.5 11.5t31.5 4.5h18q24 -4 32 -39q4 -41 6 -51q0 -20 -4 -24t-28 -4q-14 0 -17.5 1t-8 9.5t-9 24.5t-15.5 33q-13 -6 -54 -30q-66 -38 -96 -38t-30 8q0 5 7 12t13 10zM784 823l-26 -28
q-22 -22 -32 -22l-2 2q-2 0 -10 -3t-12 -3q-2 0 -4.5 2t-5.5 4l-4 6v4l82 124q5 7 6 9q5 8 14 9h50q12 0 12 -14q0 -17 -31 -53q-25 -29 -37 -37z" />
    <glyph glyph-name="OE" unicode="&#x152;" 
d="M444 348l62 228l-2 2l-214 -238l4 -2zM528 230l-22 -122q6 -16 24 -16q14 0 33.5 19l36.5 35l26 -26q-36 -55 -66 -83q-49 -47 -96 -47q-26 0 -45 18t-27 44q-2 2 -4 6t-2 14q0 24 26 148l-216 -6l-140 -204q-25 -40 -40.5 -54t-33.5 -14q-21 0 -30.5 5.5t-13.5 16.5v12
q0 34 31 79q36 52 87 73l50 86l-52 -2q-44 0 -50 22l-2 2q0 21 27 61q31 46 61 57q14 4 34.5 8t33.5 4q22 0 22 -6q0 -7 -33 -14t-33 -12q8 -10 20 -10l58 4l164 186q90 92 115 115q63 57 93 57q14 0 29.5 -14.5t17.5 -23.5t2.5 -15t0.5 -11q0 -11 -3 -25.5t-5 -26.5
l-54 -218q25 0 35 0.5t17 1.5l42 -6q-14 -26 -22.5 -51.5t-15.5 -62.5zM558 816q18 7 34.5 11.5t31.5 4.5h18q24 -4 32 -39q4 -41 6 -51q0 -20 -4 -24t-28 -4q-14 0 -17.5 1t-8 9.5t-9 24.5t-15.5 33q-13 -6 -54 -30q-66 -38 -96 -38t-30 8q0 5 7 12t13 10zM465 796
q-9 -1 -32 20l-28 28q-11 8 -36 36q-32 37 -32 54q0 14 12 14h50q8 -1 12.5 -7.5l7.5 -10.5l40 -61q36 -53 42 -63v-4l-4 -6q-6 -6 -8 -6q-3 0 -12 3t-12 3z" />
    <glyph glyph-name="OE" unicode="&#x1ea6;" 
d="M444 348l62 228l-2 2l-214 -238l4 -2zM528 230l-22 -122q6 -16 24 -16q14 0 33.5 19l36.5 35l26 -26q-36 -55 -66 -83q-49 -47 -96 -47q-26 0 -45 18t-27 44q-2 2 -4 6t-2 14q0 24 26 148l-216 -6l-140 -204q-25 -40 -40.5 -54t-33.5 -14q-21 0 -30.5 5.5t-13.5 16.5v12
q0 34 31 79q36 52 87 73l50 86l-52 -2q-44 0 -50 22l-2 2q0 21 27 61q31 46 61 57q14 4 34.5 8t33.5 4q22 0 22 -6q0 -7 -33 -14t-33 -12q8 -10 20 -10l58 4l164 186q90 92 115 115q63 57 93 57q14 0 29.5 -14.5t17.5 -23.5t2.5 -15t0.5 -11q0 -11 -3 -25.5t-5 -26.5
l-54 -218q25 0 35 0.5t17 1.5l42 -6q-14 -26 -22.5 -51.5t-15.5 -62.5zM558 816q18 7 34.5 11.5t31.5 4.5h18q24 -4 32 -39q4 -41 6 -51q0 -20 -4 -24t-28 -4q-14 0 -17.5 1t-8 9.5t-9 24.5t-15.5 33q-13 -6 -54 -30q-66 -38 -96 -38t-30 8q0 5 7 12t13 10zM465 796
q-9 -1 -32 20l-28 28q-11 8 -36 36q-32 37 -32 54q0 14 12 14h50q8 -1 12.5 -7.5l7.5 -10.5l40 -61q36 -53 42 -63v-4l-4 -6q-6 -6 -8 -6q-3 0 -12 3t-12 3z" />
    <glyph glyph-name="Icircumflex" unicode="&#xce;" 
d="M444 348l62 228l-2 2l-214 -238l4 -2zM528 230l-22 -122q6 -16 24 -16q14 0 33.5 19l36.5 35l26 -26q-36 -55 -66 -83q-49 -47 -96 -47q-26 0 -45 18t-27 44q-2 2 -4 6t-2 14q0 24 26 148l-216 -6l-140 -204q-25 -40 -40.5 -54t-33.5 -14q-21 0 -30.5 5.5t-13.5 16.5v12
q0 34 31 79q36 52 87 73l50 86l-52 -2q-44 0 -50 22l-2 2q0 21 27 61q31 46 61 57q14 4 34.5 8t33.5 4q22 0 22 -6q0 -7 -33 -14t-33 -12q8 -10 20 -10l58 4l164 186q90 92 115 115q63 57 93 57q14 0 29.5 -14.5t17.5 -23.5t2.5 -15t0.5 -11q0 -11 -3 -25.5t-5 -26.5
l-54 -218q25 0 35 0.5t17 1.5l42 -6q-14 -26 -22.5 -51.5t-15.5 -62.5zM558 816q18 7 34.5 11.5t31.5 4.5h18q24 -4 32 -39q4 -41 6 -51q0 -20 -4 -24t-28 -4q-14 0 -17.5 1t-8 9.5t-9 24.5t-15.5 33q-13 -6 -54 -30q-66 -38 -96 -38t-30 8q0 5 7 12t13 10zM776 972
q-25 0 -45 -14q-15 -11 -25 -28q16 -5 23 -9t7 -7t-4.5 -7.5t-9.5 -4.5l-22 -4l-22 4q-18 3 -18 20q0 6 5 16t11 16q12 15 45 29.5t55 14.5q34 0 67 -17.5t33 -40.5q0 -21 -12 -39q-6 -9 -30 -33l-74 -52l-14.5 -10t-7.5 -12l6 -20q0 -10 -18 -10q-13 0 -22.5 12.5
t-9.5 21.5q0 24 28 46l80 58q10 6 18 18.5t8 23.5q0 12 -17 20t-35 8z" />
    <glyph glyph-name="Icircumflex" unicode="&#x1ea8;" 
d="M444 348l62 228l-2 2l-214 -238l4 -2zM528 230l-22 -122q6 -16 24 -16q14 0 33.5 19l36.5 35l26 -26q-36 -55 -66 -83q-49 -47 -96 -47q-26 0 -45 18t-27 44q-2 2 -4 6t-2 14q0 24 26 148l-216 -6l-140 -204q-25 -40 -40.5 -54t-33.5 -14q-21 0 -30.5 5.5t-13.5 16.5v12
q0 34 31 79q36 52 87 73l50 86l-52 -2q-44 0 -50 22l-2 2q0 21 27 61q31 46 61 57q14 4 34.5 8t33.5 4q22 0 22 -6q0 -7 -33 -14t-33 -12q8 -10 20 -10l58 4l164 186q90 92 115 115q63 57 93 57q14 0 29.5 -14.5t17.5 -23.5t2.5 -15t0.5 -11q0 -11 -3 -25.5t-5 -26.5
l-54 -218q25 0 35 0.5t17 1.5l42 -6q-14 -26 -22.5 -51.5t-15.5 -62.5zM558 816q18 7 34.5 11.5t31.5 4.5h18q24 -4 32 -39q4 -41 6 -51q0 -20 -4 -24t-28 -4q-14 0 -17.5 1t-8 9.5t-9 24.5t-15.5 33q-13 -6 -54 -30q-66 -38 -96 -38t-30 8q0 5 7 12t13 10zM776 972
q-25 0 -45 -14q-15 -11 -25 -28q16 -5 23 -9t7 -7t-4.5 -7.5t-9.5 -4.5l-22 -4l-22 4q-18 3 -18 20q0 6 5 16t11 16q12 15 45 29.5t55 14.5q34 0 67 -17.5t33 -40.5q0 -21 -12 -39q-6 -9 -30 -33l-74 -52l-14.5 -10t-7.5 -12l6 -20q0 -10 -18 -10q-13 0 -22.5 12.5
t-9.5 21.5q0 24 28 46l80 58q10 6 18 18.5t8 23.5q0 12 -17 20t-35 8z" />
    <glyph glyph-name="threequarters" unicode="&#xbe;" 
d="M444 348l62 228l-2 2l-214 -238l4 -2zM528 230l-22 -122q6 -16 24 -16q14 0 33.5 19l36.5 35l26 -26q-36 -55 -66 -83q-49 -47 -96 -47q-26 0 -45 18t-27 44q-2 2 -4 6t-2 14q0 24 26 148l-216 -6l-140 -204q-25 -40 -40.5 -54t-33.5 -14q-21 0 -30.5 5.5t-13.5 16.5v12
q0 34 31 79q36 52 87 73l50 86l-52 -2q-44 0 -50 22l-2 2q0 21 27 61q31 46 61 57q14 4 34.5 8t33.5 4q22 0 22 -6q0 -7 -33 -14t-33 -12q8 -10 20 -10l58 4l164 186q90 92 115 115q63 57 93 57q14 0 29.5 -14.5t17.5 -23.5t2.5 -15t0.5 -11q0 -11 -3 -25.5t-5 -26.5
l-54 -218q25 0 35 0.5t17 1.5l42 -6q-14 -26 -22.5 -51.5t-15.5 -62.5zM558 816q18 7 34.5 11.5t31.5 4.5h18q24 -4 32 -39q4 -41 6 -51q0 -20 -4 -24t-28 -4q-14 0 -17.5 1t-8 9.5t-9 24.5t-15.5 33q-13 -6 -54 -30q-66 -38 -96 -38t-30 8q0 5 7 12t13 10zM585 956h4
q22 0 55 -26t45 -26q18 0 31 28.5t21 31.5h6q7 0 13.5 -5.5t6.5 -12.5q0 -30 -17 -62q-20 -38 -47 -38l-2 2q-19 0 -42 15q-50 33 -60 33q-18 0 -35 -29q-11 -18 -21 -23.5t-14 -5.5q-22 0 -22 22q0 30 26 63t52 33z" />
    <glyph glyph-name="threequarters" unicode="&#x1eaa;" 
d="M444 348l62 228l-2 2l-214 -238l4 -2zM528 230l-22 -122q6 -16 24 -16q14 0 33.5 19l36.5 35l26 -26q-36 -55 -66 -83q-49 -47 -96 -47q-26 0 -45 18t-27 44q-2 2 -4 6t-2 14q0 24 26 148l-216 -6l-140 -204q-25 -40 -40.5 -54t-33.5 -14q-21 0 -30.5 5.5t-13.5 16.5v12
q0 34 31 79q36 52 87 73l50 86l-52 -2q-44 0 -50 22l-2 2q0 21 27 61q31 46 61 57q14 4 34.5 8t33.5 4q22 0 22 -6q0 -7 -33 -14t-33 -12q8 -10 20 -10l58 4l164 186q90 92 115 115q63 57 93 57q14 0 29.5 -14.5t17.5 -23.5t2.5 -15t0.5 -11q0 -11 -3 -25.5t-5 -26.5
l-54 -218q25 0 35 0.5t17 1.5l42 -6q-14 -26 -22.5 -51.5t-15.5 -62.5zM558 816q18 7 34.5 11.5t31.5 4.5h18q24 -4 32 -39q4 -41 6 -51q0 -20 -4 -24t-28 -4q-14 0 -17.5 1t-8 9.5t-9 24.5t-15.5 33q-13 -6 -54 -30q-66 -38 -96 -38t-30 8q0 5 7 12t13 10zM585 956h4
q22 0 55 -26t45 -26q18 0 31 28.5t21 31.5h6q7 0 13.5 -5.5t6.5 -12.5q0 -30 -17 -62q-20 -38 -47 -38l-2 2q-19 0 -42 15q-50 33 -60 33q-18 0 -35 -29q-11 -18 -21 -23.5t-14 -5.5q-22 0 -22 22q0 30 26 63t52 33z" />
    <glyph glyph-name="florin" unicode="&#x192;" 
d="M444 348l62 228l-2 2l-214 -238l4 -2zM528 230l-22 -122q6 -16 24 -16q14 0 33.5 19l36.5 35l26 -26q-36 -55 -66 -83q-49 -47 -96 -47q-26 0 -45 18t-27 44q-2 2 -4 6t-2 14q0 24 26 148l-216 -6l-140 -204q-25 -40 -40.5 -54t-33.5 -14q-21 0 -30.5 5.5t-13.5 16.5v12
q0 34 31 79q36 52 87 73l50 86l-52 -2q-44 0 -50 22l-2 2q0 21 27 61q31 46 61 57q14 4 34.5 8t33.5 4q22 0 22 -6q0 -7 -33 -14t-33 -12q8 -10 20 -10l58 4l164 186q90 92 115 115q63 57 93 57q14 0 29.5 -14.5t17.5 -23.5t2.5 -15t0.5 -11q0 -11 -3 -25.5t-5 -26.5
l-54 -218q25 0 35 0.5t17 1.5l42 -6q-14 -26 -22.5 -51.5t-15.5 -62.5zM558 816q18 7 34.5 11.5t31.5 4.5h18q24 -4 32 -39q4 -41 6 -51q0 -20 -4 -24t-28 -4q-14 0 -17.5 1t-8 9.5t-9 24.5t-15.5 33q-13 -6 -54 -30q-66 -38 -96 -38t-30 8q0 5 7 12t13 10zM175 -188
q9 66 54 78q12 4 24 4q16 0 28 -8t12 -22l-2 -12q-8 -35 -37 -60q-25 -22 -49 -22q-14 0 -22 7.5t-8 24.5v10z" />
    <glyph glyph-name="florin" unicode="&#x1eac;" 
d="M444 348l62 228l-2 2l-214 -238l4 -2zM528 230l-22 -122q6 -16 24 -16q14 0 33.5 19l36.5 35l26 -26q-36 -55 -66 -83q-49 -47 -96 -47q-26 0 -45 18t-27 44q-2 2 -4 6t-2 14q0 24 26 148l-216 -6l-140 -204q-25 -40 -40.5 -54t-33.5 -14q-21 0 -30.5 5.5t-13.5 16.5v12
q0 34 31 79q36 52 87 73l50 86l-52 -2q-44 0 -50 22l-2 2q0 21 27 61q31 46 61 57q14 4 34.5 8t33.5 4q22 0 22 -6q0 -7 -33 -14t-33 -12q8 -10 20 -10l58 4l164 186q90 92 115 115q63 57 93 57q14 0 29.5 -14.5t17.5 -23.5t2.5 -15t0.5 -11q0 -11 -3 -25.5t-5 -26.5
l-54 -218q25 0 35 0.5t17 1.5l42 -6q-14 -26 -22.5 -51.5t-15.5 -62.5zM558 816q18 7 34.5 11.5t31.5 4.5h18q24 -4 32 -39q4 -41 6 -51q0 -20 -4 -24t-28 -4q-14 0 -17.5 1t-8 9.5t-9 24.5t-15.5 33q-13 -6 -54 -30q-66 -38 -96 -38t-30 8q0 5 7 12t13 10zM175 -188
q9 66 54 78q12 4 24 4q16 0 28 -8t12 -22l-2 -12q-8 -35 -37 -60q-25 -22 -49 -22q-14 0 -22 7.5t-8 24.5v10z" />
    <glyph glyph-name="Eacute" unicode="&#xc9;" horiz-adv-x="682" 
d="M746 658l2 -42v-28q0 -22 -9.5 -30.5t-43 -19.5t-70.5 -30q-69 -36 -71 -36q-12 0 -12 10q0 9 35 41t35 33l-2 -2l2 2q-155 0 -272 -52q-98 -43 -98 -78l2 -2q0 -17 26 -25q50 -15 194 -15l98 2q25 0 45.5 -3.5t20.5 -18.5q0 -14 -11.5 -34.5t-23 -30t-49.5 -17.5
l-48 -10q-170 -28 -277 -97q-85 -55 -85 -93q0 -32 84 -32l28 -2q82 0 208 36q45 14 103 47l99 59v-34q0 -40 -12 -69.5t-46 -56.5q-66 -53 -166 -85q-92 -29 -192 -29h-12q-42 0 -86 9q-9 2 -44.5 11.5t-55.5 46t-20 69.5q0 63 80 131q103 87 302 137q-155 1 -222 38
q-52 29 -52 80q0 87 114 161q138 89 362 89h24q42 0 75.5 -6t40.5 -24zM627 796l-26 -28q-22 -22 -32 -22l-2 2q-2 0 -10 -3t-12 -3q-2 0 -4.5 2t-5.5 4l-4 6v4l82 124q5 7 6 9q5 8 14 9h50q12 0 12 -14q0 -17 -31 -53q-25 -29 -37 -37z" />
    <glyph glyph-name="Egrave" unicode="&#xc8;" horiz-adv-x="682" 
d="M746 658l2 -42v-28q0 -22 -9.5 -30.5t-43 -19.5t-70.5 -30q-69 -36 -71 -36q-12 0 -12 10q0 9 35 41t35 33l-2 -2l2 2q-155 0 -272 -52q-98 -43 -98 -78l2 -2q0 -17 26 -25q50 -15 194 -15l98 2q25 0 45.5 -3.5t20.5 -18.5q0 -14 -11.5 -34.5t-23 -30t-49.5 -17.5
l-48 -10q-170 -28 -277 -97q-85 -55 -85 -93q0 -32 84 -32l28 -2q82 0 208 36q45 14 103 47l99 59v-34q0 -40 -12 -69.5t-46 -56.5q-66 -53 -166 -85q-92 -29 -192 -29h-12q-42 0 -86 9q-9 2 -44.5 11.5t-55.5 46t-20 69.5q0 63 80 131q103 87 302 137q-155 1 -222 38
q-52 29 -52 80q0 87 114 161q138 89 362 89h24q42 0 75.5 -6t40.5 -24zM603 744q-9 -1 -32 20l-28 28q-11 8 -36 36q-32 37 -32 54q0 14 12 14h50q8 -1 12.5 -7.5l7.5 -10.5l40 -61q36 -53 42 -63v-4l-4 -6q-6 -6 -8 -6q-3 0 -12 3t-12 3z" />
    <glyph glyph-name="yen" unicode="&#xa5;" horiz-adv-x="682" 
d="M746 658l2 -42v-28q0 -22 -9.5 -30.5t-43 -19.5t-70.5 -30q-69 -36 -71 -36q-12 0 -12 10q0 9 35 41t35 33l-2 -2l2 2q-155 0 -272 -52q-98 -43 -98 -78l2 -2q0 -17 26 -25q50 -15 194 -15l98 2q25 0 45.5 -3.5t20.5 -18.5q0 -14 -11.5 -34.5t-23 -30t-49.5 -17.5
l-48 -10q-170 -28 -277 -97q-85 -55 -85 -93q0 -32 84 -32l28 -2q82 0 208 36q45 14 103 47l99 59v-34q0 -40 -12 -69.5t-46 -56.5q-66 -53 -166 -85q-92 -29 -192 -29h-12q-42 0 -86 9q-9 2 -44.5 11.5t-55.5 46t-20 69.5q0 63 80 131q103 87 302 137q-155 1 -222 38
q-52 29 -52 80q0 87 114 161q138 89 362 89h24q42 0 75.5 -6t40.5 -24zM628 910q-25 0 -45 -14q-15 -11 -25 -28q16 -5 23 -9t7 -7t-4.5 -7.5t-9.5 -4.5l-22 -4l-22 4q-18 3 -18 20q0 6 5 16t11 16q12 15 45 29.5t55 14.5q34 0 67 -17.5t33 -40.5q0 -21 -12 -39
q-6 -9 -30 -33l-74 -52l-14.5 -10t-7.5 -12l6 -20q0 -10 -18 -10q-13 0 -22.5 12.5t-9.5 21.5q0 24 28 46l80 58q10 6 18 18.5t8 23.5q0 12 -17 20t-35 8z" />
    <glyph glyph-name="yen" unicode="&#x1eba;" horiz-adv-x="682" 
d="M746 658l2 -42v-28q0 -22 -9.5 -30.5t-43 -19.5t-70.5 -30q-69 -36 -71 -36q-12 0 -12 10q0 9 35 41t35 33l-2 -2l2 2q-155 0 -272 -52q-98 -43 -98 -78l2 -2q0 -17 26 -25q50 -15 194 -15l98 2q25 0 45.5 -3.5t20.5 -18.5q0 -14 -11.5 -34.5t-23 -30t-49.5 -17.5
l-48 -10q-170 -28 -277 -97q-85 -55 -85 -93q0 -32 84 -32l28 -2q82 0 208 36q45 14 103 47l99 59v-34q0 -40 -12 -69.5t-46 -56.5q-66 -53 -166 -85q-92 -29 -192 -29h-12q-42 0 -86 9q-9 2 -44.5 11.5t-55.5 46t-20 69.5q0 63 80 131q103 87 302 137q-155 1 -222 38
q-52 29 -52 80q0 87 114 161q138 89 362 89h24q42 0 75.5 -6t40.5 -24zM628 910q-25 0 -45 -14q-15 -11 -25 -28q16 -5 23 -9t7 -7t-4.5 -7.5t-9.5 -4.5l-22 -4l-22 4q-18 3 -18 20q0 6 5 16t11 16q12 15 45 29.5t55 14.5q34 0 67 -17.5t33 -40.5q0 -21 -12 -39
q-6 -9 -30 -33l-74 -52l-14.5 -10t-7.5 -12l6 -20q0 -10 -18 -10q-13 0 -22.5 12.5t-9.5 21.5q0 24 28 46l80 58q10 6 18 18.5t8 23.5q0 12 -17 20t-35 8z" />
    <glyph glyph-name="questiondown" unicode="&#xbf;" horiz-adv-x="682" 
d="M746 658l2 -42v-28q0 -22 -9.5 -30.5t-43 -19.5t-70.5 -30q-69 -36 -71 -36q-12 0 -12 10q0 9 35 41t35 33l-2 -2l2 2q-155 0 -272 -52q-98 -43 -98 -78l2 -2q0 -17 26 -25q50 -15 194 -15l98 2q25 0 45.5 -3.5t20.5 -18.5q0 -14 -11.5 -34.5t-23 -30t-49.5 -17.5
l-48 -10q-170 -28 -277 -97q-85 -55 -85 -93q0 -32 84 -32l28 -2q82 0 208 36q45 14 103 47l99 59v-34q0 -40 -12 -69.5t-46 -56.5q-66 -53 -166 -85q-92 -29 -192 -29h-12q-42 0 -86 9q-9 2 -44.5 11.5t-55.5 46t-20 69.5q0 63 80 131q103 87 302 137q-155 1 -222 38
q-52 29 -52 80q0 87 114 161q138 89 362 89h24q42 0 75.5 -6t40.5 -24zM542 870h4q22 0 55 -26t45 -26q18 0 31 28.5t21 31.5h6q7 0 13.5 -5.5t6.5 -12.5q0 -30 -17 -62q-20 -38 -47 -38l-2 2q-19 0 -42 15q-50 33 -60 33q-18 0 -35 -29q-11 -18 -21 -23.5t-14 -5.5
q-22 0 -22 22q0 30 26 63t52 33z" />
    <glyph glyph-name="questiondown" unicode="&#x1ebc;" horiz-adv-x="682" 
d="M746 658l2 -42v-28q0 -22 -9.5 -30.5t-43 -19.5t-70.5 -30q-69 -36 -71 -36q-12 0 -12 10q0 9 35 41t35 33l-2 -2l2 2q-155 0 -272 -52q-98 -43 -98 -78l2 -2q0 -17 26 -25q50 -15 194 -15l98 2q25 0 45.5 -3.5t20.5 -18.5q0 -14 -11.5 -34.5t-23 -30t-49.5 -17.5
l-48 -10q-170 -28 -277 -97q-85 -55 -85 -93q0 -32 84 -32l28 -2q82 0 208 36q45 14 103 47l99 59v-34q0 -40 -12 -69.5t-46 -56.5q-66 -53 -166 -85q-92 -29 -192 -29h-12q-42 0 -86 9q-9 2 -44.5 11.5t-55.5 46t-20 69.5q0 63 80 131q103 87 302 137q-155 1 -222 38
q-52 29 -52 80q0 87 114 161q138 89 362 89h24q42 0 75.5 -6t40.5 -24zM542 870h4q22 0 55 -26t45 -26q18 0 31 28.5t21 31.5h6q7 0 13.5 -5.5t6.5 -12.5q0 -30 -17 -62q-20 -38 -47 -38l-2 2q-19 0 -42 15q-50 33 -60 33q-18 0 -35 -29q-11 -18 -21 -23.5t-14 -5.5
q-22 0 -22 22q0 30 26 63t52 33z" />
    <glyph glyph-name="logicalnot" unicode="&#xac;" horiz-adv-x="682" 
d="M746 658l2 -42v-28q0 -22 -9.5 -30.5t-43 -19.5t-70.5 -30q-69 -36 -71 -36q-12 0 -12 10q0 9 35 41t35 33l-2 -2l2 2q-155 0 -272 -52q-98 -43 -98 -78l2 -2q0 -17 26 -25q50 -15 194 -15l98 2q25 0 45.5 -3.5t20.5 -18.5q0 -14 -11.5 -34.5t-23 -30t-49.5 -17.5
l-48 -10q-170 -28 -277 -97q-85 -55 -85 -93q0 -32 84 -32l28 -2q82 0 208 36q45 14 103 47l99 59v-34q0 -40 -12 -69.5t-46 -56.5q-66 -53 -166 -85q-92 -29 -192 -29h-12q-42 0 -86 9q-9 2 -44.5 11.5t-55.5 46t-20 69.5q0 63 80 131q103 87 302 137q-155 1 -222 38
q-52 29 -52 80q0 87 114 161q138 89 362 89h24q42 0 75.5 -6t40.5 -24zM175 -188q9 66 54 78q12 4 24 4q16 0 28 -8t12 -22l-2 -12q-8 -35 -37 -60q-25 -22 -49 -22q-14 0 -22 7.5t-8 24.5v10z" />
    <glyph glyph-name="logicalnot" unicode="&#x1eb8;" horiz-adv-x="682" 
d="M746 658l2 -42v-28q0 -22 -9.5 -30.5t-43 -19.5t-70.5 -30q-69 -36 -71 -36q-12 0 -12 10q0 9 35 41t35 33l-2 -2l2 2q-155 0 -272 -52q-98 -43 -98 -78l2 -2q0 -17 26 -25q50 -15 194 -15l98 2q25 0 45.5 -3.5t20.5 -18.5q0 -14 -11.5 -34.5t-23 -30t-49.5 -17.5
l-48 -10q-170 -28 -277 -97q-85 -55 -85 -93q0 -32 84 -32l28 -2q82 0 208 36q45 14 103 47l99 59v-34q0 -40 -12 -69.5t-46 -56.5q-66 -53 -166 -85q-92 -29 -192 -29h-12q-42 0 -86 9q-9 2 -44.5 11.5t-55.5 46t-20 69.5q0 63 80 131q103 87 302 137q-155 1 -222 38
q-52 29 -52 80q0 87 114 161q138 89 362 89h24q42 0 75.5 -6t40.5 -24zM175 -188q9 66 54 78q12 4 24 4q16 0 28 -8t12 -22l-2 -12q-8 -35 -37 -60q-25 -22 -49 -22q-14 0 -22 7.5t-8 24.5v10z" />
    <glyph glyph-name="Ecircumflex" unicode="&#xca;" horiz-adv-x="682" 
d="M746 658l2 -42v-28q0 -22 -9.5 -30.5t-43 -19.5t-70.5 -30q-69 -36 -71 -36q-12 0 -12 10q0 9 35 41t35 33l-2 -2l2 2q-155 0 -272 -52q-98 -43 -98 -78l2 -2q0 -17 26 -25q50 -15 194 -15l98 2q25 0 45.5 -3.5t20.5 -18.5q0 -14 -11.5 -34.5t-23 -30t-49.5 -17.5
l-48 -10q-170 -28 -277 -97q-85 -55 -85 -93q0 -32 84 -32l28 -2q82 0 208 36q45 14 103 47l99 59v-34q0 -40 -12 -69.5t-46 -56.5q-66 -53 -166 -85q-92 -29 -192 -29h-12q-42 0 -86 9q-9 2 -44.5 11.5t-55.5 46t-20 69.5q0 63 80 131q103 87 302 137q-155 1 -222 38
q-52 29 -52 80q0 87 114 161q138 89 362 89h24q42 0 75.5 -6t40.5 -24zM558 816q18 7 34.5 11.5t31.5 4.5h18q24 -4 32 -39q4 -41 6 -51q0 -20 -4 -24t-28 -4q-14 0 -17.5 1t-8 9.5t-9 24.5t-15.5 33q-13 -6 -54 -30q-66 -38 -96 -38t-30 8q0 5 7 12t13 10z" />
    <glyph glyph-name="uni1EBE" unicode="&#x1ebe;" horiz-adv-x="682" 
d="M746 658l2 -42v-28q0 -22 -9.5 -30.5t-43 -19.5t-70.5 -30q-69 -36 -71 -36q-12 0 -12 10q0 9 35 41t35 33l-2 -2l2 2q-155 0 -272 -52q-98 -43 -98 -78l2 -2q0 -17 26 -25q50 -15 194 -15l98 2q25 0 45.5 -3.5t20.5 -18.5q0 -14 -11.5 -34.5t-23 -30t-49.5 -17.5
l-48 -10q-170 -28 -277 -97q-85 -55 -85 -93q0 -32 84 -32l28 -2q82 0 208 36q45 14 103 47l99 59v-34q0 -40 -12 -69.5t-46 -56.5q-66 -53 -166 -85q-92 -29 -192 -29h-12q-42 0 -86 9q-9 2 -44.5 11.5t-55.5 46t-20 69.5q0 63 80 131q103 87 302 137q-155 1 -222 38
q-52 29 -52 80q0 87 114 161q138 89 362 89h24q42 0 75.5 -6t40.5 -24zM558 816q18 7 34.5 11.5t31.5 4.5h18q24 -4 32 -39q4 -41 6 -51q0 -20 -4 -24t-28 -4q-14 0 -17.5 1t-8 9.5t-9 24.5t-15.5 33q-13 -6 -54 -30q-66 -38 -96 -38t-30 8q0 5 7 12t13 10zM784 823l-26 -28
q-22 -22 -32 -22l-2 2q-2 0 -10 -3t-12 -3q-2 0 -4.5 2t-5.5 4l-4 6v4l82 124q5 7 6 9q5 8 14 9h50q12 0 12 -14q0 -17 -31 -53q-25 -29 -37 -37z" />
    <glyph glyph-name="uni1EBE" unicode="&#x2022;" horiz-adv-x="682" 
d="M746 658l2 -42v-28q0 -22 -9.5 -30.5t-43 -19.5t-70.5 -30q-69 -36 -71 -36q-12 0 -12 10q0 9 35 41t35 33l-2 -2l2 2q-155 0 -272 -52q-98 -43 -98 -78l2 -2q0 -17 26 -25q50 -15 194 -15l98 2q25 0 45.5 -3.5t20.5 -18.5q0 -14 -11.5 -34.5t-23 -30t-49.5 -17.5
l-48 -10q-170 -28 -277 -97q-85 -55 -85 -93q0 -32 84 -32l28 -2q82 0 208 36q45 14 103 47l99 59v-34q0 -40 -12 -69.5t-46 -56.5q-66 -53 -166 -85q-92 -29 -192 -29h-12q-42 0 -86 9q-9 2 -44.5 11.5t-55.5 46t-20 69.5q0 63 80 131q103 87 302 137q-155 1 -222 38
q-52 29 -52 80q0 87 114 161q138 89 362 89h24q42 0 75.5 -6t40.5 -24zM558 816q18 7 34.5 11.5t31.5 4.5h18q24 -4 32 -39q4 -41 6 -51q0 -20 -4 -24t-28 -4q-14 0 -17.5 1t-8 9.5t-9 24.5t-15.5 33q-13 -6 -54 -30q-66 -38 -96 -38t-30 8q0 5 7 12t13 10zM784 823l-26 -28
q-22 -22 -32 -22l-2 2q-2 0 -10 -3t-12 -3q-2 0 -4.5 2t-5.5 4l-4 6v4l82 124q5 7 6 9q5 8 14 9h50q12 0 12 -14q0 -17 -31 -53q-25 -29 -37 -37z" />
    <glyph glyph-name="guillemotleft" unicode="&#xab;" horiz-adv-x="682" 
d="M746 658l2 -42v-28q0 -22 -9.5 -30.5t-43 -19.5t-70.5 -30q-69 -36 -71 -36q-12 0 -12 10q0 9 35 41t35 33l-2 -2l2 2q-155 0 -272 -52q-98 -43 -98 -78l2 -2q0 -17 26 -25q50 -15 194 -15l98 2q25 0 45.5 -3.5t20.5 -18.5q0 -14 -11.5 -34.5t-23 -30t-49.5 -17.5
l-48 -10q-170 -28 -277 -97q-85 -55 -85 -93q0 -32 84 -32l28 -2q82 0 208 36q45 14 103 47l99 59v-34q0 -40 -12 -69.5t-46 -56.5q-66 -53 -166 -85q-92 -29 -192 -29h-12q-42 0 -86 9q-9 2 -44.5 11.5t-55.5 46t-20 69.5q0 63 80 131q103 87 302 137q-155 1 -222 38
q-52 29 -52 80q0 87 114 161q138 89 362 89h24q42 0 75.5 -6t40.5 -24zM558 816q18 7 34.5 11.5t31.5 4.5h18q24 -4 32 -39q4 -41 6 -51q0 -20 -4 -24t-28 -4q-14 0 -17.5 1t-8 9.5t-9 24.5t-15.5 33q-13 -6 -54 -30q-66 -38 -96 -38t-30 8q0 5 7 12t13 10zM465 796
q-9 -1 -32 20l-28 28q-11 8 -36 36q-32 37 -32 54q0 14 12 14h50q8 -1 12.5 -7.5l7.5 -10.5l40 -61q36 -53 42 -63v-4l-4 -6q-6 -6 -8 -6q-3 0 -12 3t-12 3z" />
    <glyph glyph-name="guillemotleft" unicode="&#x1ec0;" horiz-adv-x="682" 
d="M746 658l2 -42v-28q0 -22 -9.5 -30.5t-43 -19.5t-70.5 -30q-69 -36 -71 -36q-12 0 -12 10q0 9 35 41t35 33l-2 -2l2 2q-155 0 -272 -52q-98 -43 -98 -78l2 -2q0 -17 26 -25q50 -15 194 -15l98 2q25 0 45.5 -3.5t20.5 -18.5q0 -14 -11.5 -34.5t-23 -30t-49.5 -17.5
l-48 -10q-170 -28 -277 -97q-85 -55 -85 -93q0 -32 84 -32l28 -2q82 0 208 36q45 14 103 47l99 59v-34q0 -40 -12 -69.5t-46 -56.5q-66 -53 -166 -85q-92 -29 -192 -29h-12q-42 0 -86 9q-9 2 -44.5 11.5t-55.5 46t-20 69.5q0 63 80 131q103 87 302 137q-155 1 -222 38
q-52 29 -52 80q0 87 114 161q138 89 362 89h24q42 0 75.5 -6t40.5 -24zM558 816q18 7 34.5 11.5t31.5 4.5h18q24 -4 32 -39q4 -41 6 -51q0 -20 -4 -24t-28 -4q-14 0 -17.5 1t-8 9.5t-9 24.5t-15.5 33q-13 -6 -54 -30q-66 -38 -96 -38t-30 8q0 5 7 12t13 10zM465 796
q-9 -1 -32 20l-28 28q-11 8 -36 36q-32 37 -32 54q0 14 12 14h50q8 -1 12.5 -7.5l7.5 -10.5l40 -61q36 -53 42 -63v-4l-4 -6q-6 -6 -8 -6q-3 0 -12 3t-12 3z" />
    <glyph glyph-name="uni1EC2" unicode="&#x1ec2;" horiz-adv-x="682" 
d="M746 658l2 -42v-28q0 -22 -9.5 -30.5t-43 -19.5t-70.5 -30q-69 -36 -71 -36q-12 0 -12 10q0 9 35 41t35 33l-2 -2l2 2q-155 0 -272 -52q-98 -43 -98 -78l2 -2q0 -17 26 -25q50 -15 194 -15l98 2q25 0 45.5 -3.5t20.5 -18.5q0 -14 -11.5 -34.5t-23 -30t-49.5 -17.5
l-48 -10q-170 -28 -277 -97q-85 -55 -85 -93q0 -32 84 -32l28 -2q82 0 208 36q45 14 103 47l99 59v-34q0 -40 -12 -69.5t-46 -56.5q-66 -53 -166 -85q-92 -29 -192 -29h-12q-42 0 -86 9q-9 2 -44.5 11.5t-55.5 46t-20 69.5q0 63 80 131q103 87 302 137q-155 1 -222 38
q-52 29 -52 80q0 87 114 161q138 89 362 89h24q42 0 75.5 -6t40.5 -24zM558 816q18 7 34.5 11.5t31.5 4.5h18q24 -4 32 -39q4 -41 6 -51q0 -20 -4 -24t-28 -4q-14 0 -17.5 1t-8 9.5t-9 24.5t-15.5 33q-13 -6 -54 -30q-66 -38 -96 -38t-30 8q0 5 7 12t13 10zM776 972
q-25 0 -45 -14q-15 -11 -25 -28q16 -5 23 -9t7 -7t-4.5 -7.5t-9.5 -4.5l-22 -4l-22 4q-18 3 -18 20q0 6 5 16t11 16q12 15 45 29.5t55 14.5q34 0 67 -17.5t33 -40.5q0 -21 -12 -39q-6 -9 -30 -33l-74 -52l-14.5 -10t-7.5 -12l6 -20q0 -10 -18 -10q-13 0 -22.5 12.5
t-9.5 21.5q0 24 28 46l80 58q10 6 18 18.5t8 23.5q0 12 -17 20t-35 8z" />
    <glyph glyph-name="uni1EC2" unicode="&#x2039;" horiz-adv-x="682" 
d="M746 658l2 -42v-28q0 -22 -9.5 -30.5t-43 -19.5t-70.5 -30q-69 -36 -71 -36q-12 0 -12 10q0 9 35 41t35 33l-2 -2l2 2q-155 0 -272 -52q-98 -43 -98 -78l2 -2q0 -17 26 -25q50 -15 194 -15l98 2q25 0 45.5 -3.5t20.5 -18.5q0 -14 -11.5 -34.5t-23 -30t-49.5 -17.5
l-48 -10q-170 -28 -277 -97q-85 -55 -85 -93q0 -32 84 -32l28 -2q82 0 208 36q45 14 103 47l99 59v-34q0 -40 -12 -69.5t-46 -56.5q-66 -53 -166 -85q-92 -29 -192 -29h-12q-42 0 -86 9q-9 2 -44.5 11.5t-55.5 46t-20 69.5q0 63 80 131q103 87 302 137q-155 1 -222 38
q-52 29 -52 80q0 87 114 161q138 89 362 89h24q42 0 75.5 -6t40.5 -24zM558 816q18 7 34.5 11.5t31.5 4.5h18q24 -4 32 -39q4 -41 6 -51q0 -20 -4 -24t-28 -4q-14 0 -17.5 1t-8 9.5t-9 24.5t-15.5 33q-13 -6 -54 -30q-66 -38 -96 -38t-30 8q0 5 7 12t13 10zM776 972
q-25 0 -45 -14q-15 -11 -25 -28q16 -5 23 -9t7 -7t-4.5 -7.5t-9.5 -4.5l-22 -4l-22 4q-18 3 -18 20q0 6 5 16t11 16q12 15 45 29.5t55 14.5q34 0 67 -17.5t33 -40.5q0 -21 -12 -39q-6 -9 -30 -33l-74 -52l-14.5 -10t-7.5 -12l6 -20q0 -10 -18 -10q-13 0 -22.5 12.5
t-9.5 21.5q0 24 28 46l80 58q10 6 18 18.5t8 23.5q0 12 -17 20t-35 8z" />
    <glyph glyph-name="degree" unicode="&#xb0;" horiz-adv-x="682" 
d="M746 658l2 -42v-28q0 -22 -9.5 -30.5t-43 -19.5t-70.5 -30q-69 -36 -71 -36q-12 0 -12 10q0 9 35 41t35 33l-2 -2l2 2q-155 0 -272 -52q-98 -43 -98 -78l2 -2q0 -17 26 -25q50 -15 194 -15l98 2q25 0 45.5 -3.5t20.5 -18.5q0 -14 -11.5 -34.5t-23 -30t-49.5 -17.5
l-48 -10q-170 -28 -277 -97q-85 -55 -85 -93q0 -32 84 -32l28 -2q82 0 208 36q45 14 103 47l99 59v-34q0 -40 -12 -69.5t-46 -56.5q-66 -53 -166 -85q-92 -29 -192 -29h-12q-42 0 -86 9q-9 2 -44.5 11.5t-55.5 46t-20 69.5q0 63 80 131q103 87 302 137q-155 1 -222 38
q-52 29 -52 80q0 87 114 161q138 89 362 89h24q42 0 75.5 -6t40.5 -24zM558 816q18 7 34.5 11.5t31.5 4.5h18q24 -4 32 -39q4 -41 6 -51q0 -20 -4 -24t-28 -4q-14 0 -17.5 1t-8 9.5t-9 24.5t-15.5 33q-13 -6 -54 -30q-66 -38 -96 -38t-30 8q0 5 7 12t13 10zM585 956h4
q22 0 55 -26t45 -26q18 0 31 28.5t21 31.5h6q7 0 13.5 -5.5t6.5 -12.5q0 -30 -17 -62q-20 -38 -47 -38l-2 2q-19 0 -42 15q-50 33 -60 33q-18 0 -35 -29q-11 -18 -21 -23.5t-14 -5.5q-22 0 -22 22q0 30 26 63t52 33z" />
    <glyph glyph-name="degree" unicode="&#x1ec4;" horiz-adv-x="682" 
d="M746 658l2 -42v-28q0 -22 -9.5 -30.5t-43 -19.5t-70.5 -30q-69 -36 -71 -36q-12 0 -12 10q0 9 35 41t35 33l-2 -2l2 2q-155 0 -272 -52q-98 -43 -98 -78l2 -2q0 -17 26 -25q50 -15 194 -15l98 2q25 0 45.5 -3.5t20.5 -18.5q0 -14 -11.5 -34.5t-23 -30t-49.5 -17.5
l-48 -10q-170 -28 -277 -97q-85 -55 -85 -93q0 -32 84 -32l28 -2q82 0 208 36q45 14 103 47l99 59v-34q0 -40 -12 -69.5t-46 -56.5q-66 -53 -166 -85q-92 -29 -192 -29h-12q-42 0 -86 9q-9 2 -44.5 11.5t-55.5 46t-20 69.5q0 63 80 131q103 87 302 137q-155 1 -222 38
q-52 29 -52 80q0 87 114 161q138 89 362 89h24q42 0 75.5 -6t40.5 -24zM558 816q18 7 34.5 11.5t31.5 4.5h18q24 -4 32 -39q4 -41 6 -51q0 -20 -4 -24t-28 -4q-14 0 -17.5 1t-8 9.5t-9 24.5t-15.5 33q-13 -6 -54 -30q-66 -38 -96 -38t-30 8q0 5 7 12t13 10zM585 956h4
q22 0 55 -26t45 -26q18 0 31 28.5t21 31.5h6q7 0 13.5 -5.5t6.5 -12.5q0 -30 -17 -62q-20 -38 -47 -38l-2 2q-19 0 -42 15q-50 33 -60 33q-18 0 -35 -29q-11 -18 -21 -23.5t-14 -5.5q-22 0 -22 22q0 30 26 63t52 33z" />
    <glyph glyph-name="onequarter" unicode="&#xbc;" horiz-adv-x="682" 
d="M746 658l2 -42v-28q0 -22 -9.5 -30.5t-43 -19.5t-70.5 -30q-69 -36 -71 -36q-12 0 -12 10q0 9 35 41t35 33l-2 -2l2 2q-155 0 -272 -52q-98 -43 -98 -78l2 -2q0 -17 26 -25q50 -15 194 -15l98 2q25 0 45.5 -3.5t20.5 -18.5q0 -14 -11.5 -34.5t-23 -30t-49.5 -17.5
l-48 -10q-170 -28 -277 -97q-85 -55 -85 -93q0 -32 84 -32l28 -2q82 0 208 36q45 14 103 47l99 59v-34q0 -40 -12 -69.5t-46 -56.5q-66 -53 -166 -85q-92 -29 -192 -29h-12q-42 0 -86 9q-9 2 -44.5 11.5t-55.5 46t-20 69.5q0 63 80 131q103 87 302 137q-155 1 -222 38
q-52 29 -52 80q0 87 114 161q138 89 362 89h24q42 0 75.5 -6t40.5 -24zM558 816q18 7 34.5 11.5t31.5 4.5h18q24 -4 32 -39q4 -41 6 -51q0 -20 -4 -24t-28 -4q-14 0 -17.5 1t-8 9.5t-9 24.5t-15.5 33q-13 -6 -54 -30q-66 -38 -96 -38t-30 8q0 5 7 12t13 10zM175 -188
q9 66 54 78q12 4 24 4q16 0 28 -8t12 -22l-2 -12q-8 -35 -37 -60q-25 -22 -49 -22q-14 0 -22 7.5t-8 24.5v10z" />
    <glyph glyph-name="onequarter" unicode="&#x1ec6;" horiz-adv-x="682" 
d="M746 658l2 -42v-28q0 -22 -9.5 -30.5t-43 -19.5t-70.5 -30q-69 -36 -71 -36q-12 0 -12 10q0 9 35 41t35 33l-2 -2l2 2q-155 0 -272 -52q-98 -43 -98 -78l2 -2q0 -17 26 -25q50 -15 194 -15l98 2q25 0 45.5 -3.5t20.5 -18.5q0 -14 -11.5 -34.5t-23 -30t-49.5 -17.5
l-48 -10q-170 -28 -277 -97q-85 -55 -85 -93q0 -32 84 -32l28 -2q82 0 208 36q45 14 103 47l99 59v-34q0 -40 -12 -69.5t-46 -56.5q-66 -53 -166 -85q-92 -29 -192 -29h-12q-42 0 -86 9q-9 2 -44.5 11.5t-55.5 46t-20 69.5q0 63 80 131q103 87 302 137q-155 1 -222 38
q-52 29 -52 80q0 87 114 161q138 89 362 89h24q42 0 75.5 -6t40.5 -24zM558 816q18 7 34.5 11.5t31.5 4.5h18q24 -4 32 -39q4 -41 6 -51q0 -20 -4 -24t-28 -4q-14 0 -17.5 1t-8 9.5t-9 24.5t-15.5 33q-13 -6 -54 -30q-66 -38 -96 -38t-30 8q0 5 7 12t13 10zM175 -188
q9 66 54 78q12 4 24 4q16 0 28 -8t12 -22l-2 -12q-8 -35 -37 -60q-25 -22 -49 -22q-14 0 -22 7.5t-8 24.5v10z" />
    <glyph glyph-name="Oacute" unicode="&#xd3;" 
d="M36 200l-2 10q0 100 91 212q83 102 204.5 177t220.5 89h4q29 0 62 -34q30 -31 30 -46q0 -17 -26 -28q-17 -6 -26 -9.5t-17.5 -7.5t-24.5 -13h2l38 4q35 0 52 -14q32 -26 32 -78v-6q0 -151 -146 -304q-151 -158 -314 -158q-73 0 -121 44q-59 54 -59 162zM248 352
q-48 -48 -77 -99q-35 -62 -35 -119q0 -29 13 -47.5t41 -18.5q41 0 95 24t89 54q98 83 156 168.5t58 141.5q0 19 -10.5 33.5t-29.5 14.5q-63 0 -143 -50q-75 -47 -113 -104q-6 -8 -13.5 -17t-16.5 -9t-11.5 8t-2.5 20zM666 796l-26 -28q-22 -22 -32 -22l-2 2q-2 0 -10 -3
t-12 -3q-2 0 -4.5 2t-5.5 4l-4 6v4l82 124q5 7 6 9q5 8 14 9h50q12 0 12 -14q0 -17 -31 -53q-25 -29 -37 -37z" />
    <glyph glyph-name="Ograve" unicode="&#xd2;" 
d="M36 200l-2 10q0 100 91 212q83 102 204.5 177t220.5 89h4q29 0 62 -34q30 -31 30 -46q0 -17 -26 -28q-17 -6 -26 -9.5t-17.5 -7.5t-24.5 -13h2l38 4q35 0 52 -14q32 -26 32 -78v-6q0 -151 -146 -304q-151 -158 -314 -158q-73 0 -121 44q-59 54 -59 162zM248 352
q-48 -48 -77 -99q-35 -62 -35 -119q0 -29 13 -47.5t41 -18.5q41 0 95 24t89 54q98 83 156 168.5t58 141.5q0 19 -10.5 33.5t-29.5 14.5q-63 0 -143 -50q-75 -47 -113 -104q-6 -8 -13.5 -17t-16.5 -9t-11.5 8t-2.5 20zM625 744q-9 -1 -32 20l-28 28q-11 8 -36 36
q-32 37 -32 54q0 14 12 14h50q8 -1 12.5 -7.5l7.5 -10.5l40 -61q36 -53 42 -63v-4l-4 -6q-6 -6 -8 -6q-3 0 -12 3t-12 3z" />
    <glyph glyph-name="tilde" unicode="&#x2dc;" 
d="M36 200l-2 10q0 100 91 212q83 102 204.5 177t220.5 89h4q29 0 62 -34q30 -31 30 -46q0 -17 -26 -28q-17 -6 -26 -9.5t-17.5 -7.5t-24.5 -13h2l38 4q35 0 52 -14q32 -26 32 -78v-6q0 -151 -146 -304q-151 -158 -314 -158q-73 0 -121 44q-59 54 -59 162zM248 352
q-48 -48 -77 -99q-35 -62 -35 -119q0 -29 13 -47.5t41 -18.5q41 0 95 24t89 54q98 83 156 168.5t58 141.5q0 19 -10.5 33.5t-29.5 14.5q-63 0 -143 -50q-75 -47 -113 -104q-6 -8 -13.5 -17t-16.5 -9t-11.5 8t-2.5 20zM628 910q-25 0 -45 -14q-15 -11 -25 -28q16 -5 23 -9
t7 -7t-4.5 -7.5t-9.5 -4.5l-22 -4l-22 4q-18 3 -18 20q0 6 5 16t11 16q12 15 45 29.5t55 14.5q34 0 67 -17.5t33 -40.5q0 -21 -12 -39q-6 -9 -30 -33l-74 -52l-14.5 -10t-7.5 -12l6 -20q0 -10 -18 -10q-13 0 -22.5 12.5t-9.5 21.5q0 24 28 46l80 58q10 6 18 18.5t8 23.5
q0 12 -17 20t-35 8z" />
    <glyph glyph-name="tilde" unicode="&#x1ece;" 
d="M36 200l-2 10q0 100 91 212q83 102 204.5 177t220.5 89h4q29 0 62 -34q30 -31 30 -46q0 -17 -26 -28q-17 -6 -26 -9.5t-17.5 -7.5t-24.5 -13h2l38 4q35 0 52 -14q32 -26 32 -78v-6q0 -151 -146 -304q-151 -158 -314 -158q-73 0 -121 44q-59 54 -59 162zM248 352
q-48 -48 -77 -99q-35 -62 -35 -119q0 -29 13 -47.5t41 -18.5q41 0 95 24t89 54q98 83 156 168.5t58 141.5q0 19 -10.5 33.5t-29.5 14.5q-63 0 -143 -50q-75 -47 -113 -104q-6 -8 -13.5 -17t-16.5 -9t-11.5 8t-2.5 20zM628 910q-25 0 -45 -14q-15 -11 -25 -28q16 -5 23 -9
t7 -7t-4.5 -7.5t-9.5 -4.5l-22 -4l-22 4q-18 3 -18 20q0 6 5 16t11 16q12 15 45 29.5t55 14.5q34 0 67 -17.5t33 -40.5q0 -21 -12 -39q-6 -9 -30 -33l-74 -52l-14.5 -10t-7.5 -12l6 -20q0 -10 -18 -10q-13 0 -22.5 12.5t-9.5 21.5q0 24 28 46l80 58q10 6 18 18.5t8 23.5
q0 12 -17 20t-35 8z" />
    <glyph glyph-name="Otilde" unicode="&#xd5;" 
d="M36 200l-2 10q0 100 91 212q83 102 204.5 177t220.5 89h4q29 0 62 -34q30 -31 30 -46q0 -17 -26 -28q-17 -6 -26 -9.5t-17.5 -7.5t-24.5 -13h2l38 4q35 0 52 -14q32 -26 32 -78v-6q0 -151 -146 -304q-151 -158 -314 -158q-73 0 -121 44q-59 54 -59 162zM248 352
q-48 -48 -77 -99q-35 -62 -35 -119q0 -29 13 -47.5t41 -18.5q41 0 95 24t89 54q98 83 156 168.5t58 141.5q0 19 -10.5 33.5t-29.5 14.5q-63 0 -143 -50q-75 -47 -113 -104q-6 -8 -13.5 -17t-16.5 -9t-11.5 8t-2.5 20zM542 870h4q22 0 55 -26t45 -26q18 0 31 28.5t21 31.5h6
q7 0 13.5 -5.5t6.5 -12.5q0 -30 -17 -62q-20 -38 -47 -38l-2 2q-19 0 -42 15q-50 33 -60 33q-18 0 -35 -29q-11 -18 -21 -23.5t-14 -5.5q-22 0 -22 22q0 30 26 63t52 33z" />
    <glyph glyph-name="uni008D" 
d="M36 200l-2 10q0 100 91 212q83 102 204.5 177t220.5 89h4q29 0 62 -34q30 -31 30 -46q0 -17 -26 -28q-17 -6 -26 -9.5t-17.5 -7.5t-24.5 -13h2l38 4q35 0 52 -14q32 -26 32 -78v-6q0 -151 -146 -304q-151 -158 -314 -158q-73 0 -121 44q-59 54 -59 162zM248 352
q-48 -48 -77 -99q-35 -62 -35 -119q0 -29 13 -47.5t41 -18.5q41 0 95 24t89 54q98 83 156 168.5t58 141.5q0 19 -10.5 33.5t-29.5 14.5q-63 0 -143 -50q-75 -47 -113 -104q-6 -8 -13.5 -17t-16.5 -9t-11.5 8t-2.5 20zM136 -188q9 66 54 78q12 4 24 4q16 0 28 -8t12 -22
l-2 -12q-8 -35 -37 -60q-25 -22 -49 -22q-14 0 -22 7.5t-8 24.5v10z" />
    <glyph glyph-name="uni008D" unicode="&#x1ecc;" 
d="M36 200l-2 10q0 100 91 212q83 102 204.5 177t220.5 89h4q29 0 62 -34q30 -31 30 -46q0 -17 -26 -28q-17 -6 -26 -9.5t-17.5 -7.5t-24.5 -13h2l38 4q35 0 52 -14q32 -26 32 -78v-6q0 -151 -146 -304q-151 -158 -314 -158q-73 0 -121 44q-59 54 -59 162zM248 352
q-48 -48 -77 -99q-35 -62 -35 -119q0 -29 13 -47.5t41 -18.5q41 0 95 24t89 54q98 83 156 168.5t58 141.5q0 19 -10.5 33.5t-29.5 14.5q-63 0 -143 -50q-75 -47 -113 -104q-6 -8 -13.5 -17t-16.5 -9t-11.5 8t-2.5 20zM136 -188q9 66 54 78q12 4 24 4q16 0 28 -8t12 -22
l-2 -12q-8 -35 -37 -60q-25 -22 -49 -22q-14 0 -22 7.5t-8 24.5v10z" />
    <glyph glyph-name="Ocircumflex" unicode="&#xd4;" 
d="M36 200l-2 10q0 100 91 212q83 102 204.5 177t220.5 89h4q29 0 62 -34q30 -31 30 -46q0 -17 -26 -28q-17 -6 -26 -9.5t-17.5 -7.5t-24.5 -13h2l38 4q35 0 52 -14q32 -26 32 -78v-6q0 -151 -146 -304q-151 -158 -314 -158q-73 0 -121 44q-59 54 -59 162zM248 352
q-48 -48 -77 -99q-35 -62 -35 -119q0 -29 13 -47.5t41 -18.5q41 0 95 24t89 54q98 83 156 168.5t58 141.5q0 19 -10.5 33.5t-29.5 14.5q-63 0 -143 -50q-75 -47 -113 -104q-6 -8 -13.5 -17t-16.5 -9t-11.5 8t-2.5 20zM558 816q18 7 34.5 11.5t31.5 4.5h18q24 -4 32 -39
q4 -41 6 -51q0 -20 -4 -24t-28 -4q-14 0 -17.5 1t-8 9.5t-9 24.5t-15.5 33q-13 -6 -54 -30q-66 -38 -96 -38t-30 8q0 5 7 12t13 10z" />
    <glyph glyph-name="Ccedilla" unicode="&#xc7;" 
d="M36 200l-2 10q0 100 91 212q83 102 204.5 177t220.5 89h4q29 0 62 -34q30 -31 30 -46q0 -17 -26 -28q-17 -6 -26 -9.5t-17.5 -7.5t-24.5 -13h2l38 4q35 0 52 -14q32 -26 32 -78v-6q0 -151 -146 -304q-151 -158 -314 -158q-73 0 -121 44q-59 54 -59 162zM248 352
q-48 -48 -77 -99q-35 -62 -35 -119q0 -29 13 -47.5t41 -18.5q41 0 95 24t89 54q98 83 156 168.5t58 141.5q0 19 -10.5 33.5t-29.5 14.5q-63 0 -143 -50q-75 -47 -113 -104q-6 -8 -13.5 -17t-16.5 -9t-11.5 8t-2.5 20zM558 816q18 7 34.5 11.5t31.5 4.5h18q24 -4 32 -39
q4 -41 6 -51q0 -20 -4 -24t-28 -4q-14 0 -17.5 1t-8 9.5t-9 24.5t-15.5 33q-13 -6 -54 -30q-66 -38 -96 -38t-30 8q0 5 7 12t13 10zM776 823l-26 -28q-22 -22 -32 -22l-2 2q-2 0 -10 -3t-12 -3q-2 0 -4.5 2t-5.5 4l-4 6v4l82 124q5 7 6 9q5 8 14 9h50q12 0 12 -14
q0 -17 -31 -53q-25 -29 -37 -37z" />
    <glyph glyph-name="Ccedilla" unicode="&#x1ed0;" 
d="M36 200l-2 10q0 100 91 212q83 102 204.5 177t220.5 89h4q29 0 62 -34q30 -31 30 -46q0 -17 -26 -28q-17 -6 -26 -9.5t-17.5 -7.5t-24.5 -13h2l38 4q35 0 52 -14q32 -26 32 -78v-6q0 -151 -146 -304q-151 -158 -314 -158q-73 0 -121 44q-59 54 -59 162zM248 352
q-48 -48 -77 -99q-35 -62 -35 -119q0 -29 13 -47.5t41 -18.5q41 0 95 24t89 54q98 83 156 168.5t58 141.5q0 19 -10.5 33.5t-29.5 14.5q-63 0 -143 -50q-75 -47 -113 -104q-6 -8 -13.5 -17t-16.5 -9t-11.5 8t-2.5 20zM558 816q18 7 34.5 11.5t31.5 4.5h18q24 -4 32 -39
q4 -41 6 -51q0 -20 -4 -24t-28 -4q-14 0 -17.5 1t-8 9.5t-9 24.5t-15.5 33q-13 -6 -54 -30q-66 -38 -96 -38t-30 8q0 5 7 12t13 10zM776 823l-26 -28q-22 -22 -32 -22l-2 2q-2 0 -10 -3t-12 -3q-2 0 -4.5 2t-5.5 4l-4 6v4l82 124q5 7 6 9q5 8 14 9h50q12 0 12 -14
q0 -17 -31 -53q-25 -29 -37 -37z" />
    <glyph glyph-name="uni1ED2" unicode="&#x1ed2;" 
d="M36 200l-2 10q0 100 91 212q83 102 204.5 177t220.5 89h4q29 0 62 -34q30 -31 30 -46q0 -17 -26 -28q-17 -6 -26 -9.5t-17.5 -7.5t-24.5 -13h2l38 4q35 0 52 -14q32 -26 32 -78v-6q0 -151 -146 -304q-151 -158 -314 -158q-73 0 -121 44q-59 54 -59 162zM248 352
q-48 -48 -77 -99q-35 -62 -35 -119q0 -29 13 -47.5t41 -18.5q41 0 95 24t89 54q98 83 156 168.5t58 141.5q0 19 -10.5 33.5t-29.5 14.5q-63 0 -143 -50q-75 -47 -113 -104q-6 -8 -13.5 -17t-16.5 -9t-11.5 8t-2.5 20zM558 816q18 7 34.5 11.5t31.5 4.5h18q24 -4 32 -39
q4 -41 6 -51q0 -20 -4 -24t-28 -4q-14 0 -17.5 1t-8 9.5t-9 24.5t-15.5 33q-13 -6 -54 -30q-66 -38 -96 -38t-30 8q0 5 7 12t13 10zM465 796q-9 -1 -32 20l-28 28q-11 8 -36 36q-32 37 -32 54q0 14 12 14h50q8 -1 12.5 -7.5l7.5 -10.5l40 -61q36 -53 42 -63v-4l-4 -6
q-6 -6 -8 -6q-3 0 -12 3t-12 3z" />
    <glyph glyph-name="uni1ED2" unicode="&#x20ac;" 
d="M36 200l-2 10q0 100 91 212q83 102 204.5 177t220.5 89h4q29 0 62 -34q30 -31 30 -46q0 -17 -26 -28q-17 -6 -26 -9.5t-17.5 -7.5t-24.5 -13h2l38 4q35 0 52 -14q32 -26 32 -78v-6q0 -151 -146 -304q-151 -158 -314 -158q-73 0 -121 44q-59 54 -59 162zM248 352
q-48 -48 -77 -99q-35 -62 -35 -119q0 -29 13 -47.5t41 -18.5q41 0 95 24t89 54q98 83 156 168.5t58 141.5q0 19 -10.5 33.5t-29.5 14.5q-63 0 -143 -50q-75 -47 -113 -104q-6 -8 -13.5 -17t-16.5 -9t-11.5 8t-2.5 20zM558 816q18 7 34.5 11.5t31.5 4.5h18q24 -4 32 -39
q4 -41 6 -51q0 -20 -4 -24t-28 -4q-14 0 -17.5 1t-8 9.5t-9 24.5t-15.5 33q-13 -6 -54 -30q-66 -38 -96 -38t-30 8q0 5 7 12t13 10zM465 796q-9 -1 -32 20l-28 28q-11 8 -36 36q-32 37 -32 54q0 14 12 14h50q8 -1 12.5 -7.5l7.5 -10.5l40 -61q36 -53 42 -63v-4l-4 -6
q-6 -6 -8 -6q-3 0 -12 3t-12 3z" />
    <glyph glyph-name="Aring" unicode="&#xc5;" 
d="M36 200l-2 10q0 100 91 212q83 102 204.5 177t220.5 89h4q29 0 62 -34q30 -31 30 -46q0 -17 -26 -28q-17 -6 -26 -9.5t-17.5 -7.5t-24.5 -13h2l38 4q35 0 52 -14q32 -26 32 -78v-6q0 -151 -146 -304q-151 -158 -314 -158q-73 0 -121 44q-59 54 -59 162zM248 352
q-48 -48 -77 -99q-35 -62 -35 -119q0 -29 13 -47.5t41 -18.5q41 0 95 24t89 54q98 83 156 168.5t58 141.5q0 19 -10.5 33.5t-29.5 14.5q-63 0 -143 -50q-75 -47 -113 -104q-6 -8 -13.5 -17t-16.5 -9t-11.5 8t-2.5 20zM558 816q18 7 34.5 11.5t31.5 4.5h18q24 -4 32 -39
q4 -41 6 -51q0 -20 -4 -24t-28 -4q-14 0 -17.5 1t-8 9.5t-9 24.5t-15.5 33q-13 -6 -54 -30q-66 -38 -96 -38t-30 8q0 5 7 12t13 10zM776 972q-25 0 -45 -14q-15 -11 -25 -28q16 -5 23 -9t7 -7t-4.5 -7.5t-9.5 -4.5l-22 -4l-22 4q-18 3 -18 20q0 6 5 16t11 16q12 15 45 29.5
t55 14.5q34 0 67 -17.5t33 -40.5q0 -21 -12 -39q-6 -9 -30 -33l-74 -52l-14.5 -10t-7.5 -12l6 -20q0 -10 -18 -10q-13 0 -22.5 12.5t-9.5 21.5q0 24 28 46l80 58q10 6 18 18.5t8 23.5q0 12 -17 20t-35 8z" />
    <glyph glyph-name="Aring" unicode="&#x1ed4;" 
d="M36 200l-2 10q0 100 91 212q83 102 204.5 177t220.5 89h4q29 0 62 -34q30 -31 30 -46q0 -17 -26 -28q-17 -6 -26 -9.5t-17.5 -7.5t-24.5 -13h2l38 4q35 0 52 -14q32 -26 32 -78v-6q0 -151 -146 -304q-151 -158 -314 -158q-73 0 -121 44q-59 54 -59 162zM248 352
q-48 -48 -77 -99q-35 -62 -35 -119q0 -29 13 -47.5t41 -18.5q41 0 95 24t89 54q98 83 156 168.5t58 141.5q0 19 -10.5 33.5t-29.5 14.5q-63 0 -143 -50q-75 -47 -113 -104q-6 -8 -13.5 -17t-16.5 -9t-11.5 8t-2.5 20zM558 816q18 7 34.5 11.5t31.5 4.5h18q24 -4 32 -39
q4 -41 6 -51q0 -20 -4 -24t-28 -4q-14 0 -17.5 1t-8 9.5t-9 24.5t-15.5 33q-13 -6 -54 -30q-66 -38 -96 -38t-30 8q0 5 7 12t13 10zM776 972q-25 0 -45 -14q-15 -11 -25 -28q16 -5 23 -9t7 -7t-4.5 -7.5t-9.5 -4.5l-22 -4l-22 4q-18 3 -18 20q0 6 5 16t11 16q12 15 45 29.5
t55 14.5q34 0 67 -17.5t33 -40.5q0 -21 -12 -39q-6 -9 -30 -33l-74 -52l-14.5 -10t-7.5 -12l6 -20q0 -10 -18 -10q-13 0 -22.5 12.5t-9.5 21.5q0 24 28 46l80 58q10 6 18 18.5t8 23.5q0 12 -17 20t-35 8z" />
    <glyph glyph-name="uni00AD" unicode="&#xad;" 
d="M36 200l-2 10q0 100 91 212q83 102 204.5 177t220.5 89h4q29 0 62 -34q30 -31 30 -46q0 -17 -26 -28q-17 -6 -26 -9.5t-17.5 -7.5t-24.5 -13h2l38 4q35 0 52 -14q32 -26 32 -78v-6q0 -151 -146 -304q-151 -158 -314 -158q-73 0 -121 44q-59 54 -59 162zM248 352
q-48 -48 -77 -99q-35 -62 -35 -119q0 -29 13 -47.5t41 -18.5q41 0 95 24t89 54q98 83 156 168.5t58 141.5q0 19 -10.5 33.5t-29.5 14.5q-63 0 -143 -50q-75 -47 -113 -104q-6 -8 -13.5 -17t-16.5 -9t-11.5 8t-2.5 20zM558 816q18 7 34.5 11.5t31.5 4.5h18q24 -4 32 -39
q4 -41 6 -51q0 -20 -4 -24t-28 -4q-14 0 -17.5 1t-8 9.5t-9 24.5t-15.5 33q-13 -6 -54 -30q-66 -38 -96 -38t-30 8q0 5 7 12t13 10zM585 956h4q22 0 55 -26t45 -26q18 0 31 28.5t21 31.5h6q7 0 13.5 -5.5t6.5 -12.5q0 -30 -17 -62q-20 -38 -47 -38l-2 2q-19 0 -42 15
q-50 33 -60 33q-18 0 -35 -29q-11 -18 -21 -23.5t-14 -5.5q-22 0 -22 22q0 30 26 63t52 33z" />
    <glyph glyph-name="uni00AD" unicode="&#x1ed6;" 
d="M36 200l-2 10q0 100 91 212q83 102 204.5 177t220.5 89h4q29 0 62 -34q30 -31 30 -46q0 -17 -26 -28q-17 -6 -26 -9.5t-17.5 -7.5t-24.5 -13h2l38 4q35 0 52 -14q32 -26 32 -78v-6q0 -151 -146 -304q-151 -158 -314 -158q-73 0 -121 44q-59 54 -59 162zM248 352
q-48 -48 -77 -99q-35 -62 -35 -119q0 -29 13 -47.5t41 -18.5q41 0 95 24t89 54q98 83 156 168.5t58 141.5q0 19 -10.5 33.5t-29.5 14.5q-63 0 -143 -50q-75 -47 -113 -104q-6 -8 -13.5 -17t-16.5 -9t-11.5 8t-2.5 20zM558 816q18 7 34.5 11.5t31.5 4.5h18q24 -4 32 -39
q4 -41 6 -51q0 -20 -4 -24t-28 -4q-14 0 -17.5 1t-8 9.5t-9 24.5t-15.5 33q-13 -6 -54 -30q-66 -38 -96 -38t-30 8q0 5 7 12t13 10zM585 956h4q22 0 55 -26t45 -26q18 0 31 28.5t21 31.5h6q7 0 13.5 -5.5t6.5 -12.5q0 -30 -17 -62q-20 -38 -47 -38l-2 2q-19 0 -42 15
q-50 33 -60 33q-18 0 -35 -29q-11 -18 -21 -23.5t-14 -5.5q-22 0 -22 22q0 30 26 63t52 33z" />
    <glyph glyph-name="uni009D" 
d="M36 200l-2 10q0 100 91 212q83 102 204.5 177t220.5 89h4q29 0 62 -34q30 -31 30 -46q0 -17 -26 -28q-17 -6 -26 -9.5t-17.5 -7.5t-24.5 -13h2l38 4q35 0 52 -14q32 -26 32 -78v-6q0 -151 -146 -304q-151 -158 -314 -158q-73 0 -121 44q-59 54 -59 162zM248 352
q-48 -48 -77 -99q-35 -62 -35 -119q0 -29 13 -47.5t41 -18.5q41 0 95 24t89 54q98 83 156 168.5t58 141.5q0 19 -10.5 33.5t-29.5 14.5q-63 0 -143 -50q-75 -47 -113 -104q-6 -8 -13.5 -17t-16.5 -9t-11.5 8t-2.5 20zM558 816q18 7 34.5 11.5t31.5 4.5h18q24 -4 32 -39
q4 -41 6 -51q0 -20 -4 -24t-28 -4q-14 0 -17.5 1t-8 9.5t-9 24.5t-15.5 33q-13 -6 -54 -30q-66 -38 -96 -38t-30 8q0 5 7 12t13 10zM136 -188q9 66 54 78q12 4 24 4q16 0 28 -8t12 -22l-2 -12q-8 -35 -37 -60q-25 -22 -49 -22q-14 0 -22 7.5t-8 24.5v10z" />
    <glyph glyph-name="uni009D" unicode="&#x1ed8;" 
d="M36 200l-2 10q0 100 91 212q83 102 204.5 177t220.5 89h4q29 0 62 -34q30 -31 30 -46q0 -17 -26 -28q-17 -6 -26 -9.5t-17.5 -7.5t-24.5 -13h2l38 4q35 0 52 -14q32 -26 32 -78v-6q0 -151 -146 -304q-151 -158 -314 -158q-73 0 -121 44q-59 54 -59 162zM248 352
q-48 -48 -77 -99q-35 -62 -35 -119q0 -29 13 -47.5t41 -18.5q41 0 95 24t89 54q98 83 156 168.5t58 141.5q0 19 -10.5 33.5t-29.5 14.5q-63 0 -143 -50q-75 -47 -113 -104q-6 -8 -13.5 -17t-16.5 -9t-11.5 8t-2.5 20zM558 816q18 7 34.5 11.5t31.5 4.5h18q24 -4 32 -39
q4 -41 6 -51q0 -20 -4 -24t-28 -4q-14 0 -17.5 1t-8 9.5t-9 24.5t-15.5 33q-13 -6 -54 -30q-66 -38 -96 -38t-30 8q0 5 7 12t13 10zM136 -188q9 66 54 78q12 4 24 4q16 0 28 -8t12 -22l-2 -12q-8 -35 -37 -60q-25 -22 -49 -22q-14 0 -22 7.5t-8 24.5v10z" />
    <glyph glyph-name="Ntilde" unicode="&#xd1;" 
d="M646 608q0 -17 -26 -28q-17 -6 -26 -9.5t-17.5 -7.5t-24.5 -13h2l38 4q35 0 52 -14q32 -26 32 -78v-6q0 -151 -146 -304q-151 -158 -314 -158q-73 0 -121 44q-59 54 -59 162l-2 10q0 100 91 212q83 102 204.5 177t220.5 89h4q19 0 41 -16.5t35 -35.5q33 3 64 20
q-5 7 -9.5 15t-4.5 15q0 10 10 20q23 26 74 26q19 0 34 -4t24 -14q8 -6 17 -18.5t9 -21.5q0 -4 -4 -12q-13 -13 -50.5 -29t-57.5 -19q-47 -10 -68 -10q-16 4 -22 4zM248 352q-48 -48 -77 -99q-35 -62 -35 -119q0 -29 13 -47.5t41 -18.5q41 0 95 24t89 54q98 83 156 168.5
t58 141.5q0 19 -10.5 33.5t-29.5 14.5q-63 0 -143 -50q-75 -47 -113 -104q-6 -8 -13.5 -17t-16.5 -9t-11.5 8t-2.5 20z" />
    <glyph glyph-name="Ntilde" unicode="&#x1a0;" 
d="M646 608q0 -17 -26 -28q-17 -6 -26 -9.5t-17.5 -7.5t-24.5 -13h2l38 4q35 0 52 -14q32 -26 32 -78v-6q0 -151 -146 -304q-151 -158 -314 -158q-73 0 -121 44q-59 54 -59 162l-2 10q0 100 91 212q83 102 204.5 177t220.5 89h4q19 0 41 -16.5t35 -35.5q33 3 64 20
q-5 7 -9.5 15t-4.5 15q0 10 10 20q23 26 74 26q19 0 34 -4t24 -14q8 -6 17 -18.5t9 -21.5q0 -4 -4 -12q-13 -13 -50.5 -29t-57.5 -19q-47 -10 -68 -10q-16 4 -22 4zM248 352q-48 -48 -77 -99q-35 -62 -35 -119q0 -29 13 -47.5t41 -18.5q41 0 95 24t89 54q98 83 156 168.5
t58 141.5q0 19 -10.5 33.5t-29.5 14.5q-63 0 -143 -50q-75 -47 -113 -104q-6 -8 -13.5 -17t-16.5 -9t-11.5 8t-2.5 20z" />
    <glyph glyph-name="greater" unicode="&#x3e;" 
d="M646 608q0 -17 -26 -28q-17 -6 -26 -9.5t-17.5 -7.5t-24.5 -13h2l38 4q35 0 52 -14q32 -26 32 -78v-6q0 -151 -146 -304q-151 -158 -314 -158q-73 0 -121 44q-59 54 -59 162l-2 10q0 100 91 212q83 102 204.5 177t220.5 89h4q19 0 41 -16.5t35 -35.5q33 3 64 20
q-5 7 -9.5 15t-4.5 15q0 10 10 20q23 26 74 26q19 0 34 -4t24 -14q8 -6 17 -18.5t9 -21.5q0 -4 -4 -12q-13 -13 -50.5 -29t-57.5 -19q-47 -10 -68 -10q-16 4 -22 4zM248 352q-48 -48 -77 -99q-35 -62 -35 -119q0 -29 13 -47.5t41 -18.5q41 0 95 24t89 54q98 83 156 168.5
t58 141.5q0 19 -10.5 33.5t-29.5 14.5q-63 0 -143 -50q-75 -47 -113 -104q-6 -8 -13.5 -17t-16.5 -9t-11.5 8t-2.5 20zM666 796l-26 -28q-22 -22 -32 -22l-2 2q-2 0 -10 -3t-12 -3q-2 0 -4.5 2t-5.5 4l-4 6v4l82 124q5 7 6 9q5 8 14 9h50q12 0 12 -14q0 -17 -31 -53
q-25 -29 -37 -37z" />
    <glyph glyph-name="greater" unicode="&#x1eda;" 
d="M646 608q0 -17 -26 -28q-17 -6 -26 -9.5t-17.5 -7.5t-24.5 -13h2l38 4q35 0 52 -14q32 -26 32 -78v-6q0 -151 -146 -304q-151 -158 -314 -158q-73 0 -121 44q-59 54 -59 162l-2 10q0 100 91 212q83 102 204.5 177t220.5 89h4q19 0 41 -16.5t35 -35.5q33 3 64 20
q-5 7 -9.5 15t-4.5 15q0 10 10 20q23 26 74 26q19 0 34 -4t24 -14q8 -6 17 -18.5t9 -21.5q0 -4 -4 -12q-13 -13 -50.5 -29t-57.5 -19q-47 -10 -68 -10q-16 4 -22 4zM248 352q-48 -48 -77 -99q-35 -62 -35 -119q0 -29 13 -47.5t41 -18.5q41 0 95 24t89 54q98 83 156 168.5
t58 141.5q0 19 -10.5 33.5t-29.5 14.5q-63 0 -143 -50q-75 -47 -113 -104q-6 -8 -13.5 -17t-16.5 -9t-11.5 8t-2.5 20zM666 796l-26 -28q-22 -22 -32 -22l-2 2q-2 0 -10 -3t-12 -3q-2 0 -4.5 2t-5.5 4l-4 6v4l82 124q5 7 6 9q5 8 14 9h50q12 0 12 -14q0 -17 -31 -53
q-25 -29 -37 -37z" />
    <glyph glyph-name="uni1EDC" unicode="&#x1edc;" 
d="M646 608q0 -17 -26 -28q-17 -6 -26 -9.5t-17.5 -7.5t-24.5 -13h2l38 4q35 0 52 -14q32 -26 32 -78v-6q0 -151 -146 -304q-151 -158 -314 -158q-73 0 -121 44q-59 54 -59 162l-2 10q0 100 91 212q83 102 204.5 177t220.5 89h4q19 0 41 -16.5t35 -35.5q33 3 64 20
q-5 7 -9.5 15t-4.5 15q0 10 10 20q23 26 74 26q19 0 34 -4t24 -14q8 -6 17 -18.5t9 -21.5q0 -4 -4 -12q-13 -13 -50.5 -29t-57.5 -19q-47 -10 -68 -10q-16 4 -22 4zM248 352q-48 -48 -77 -99q-35 -62 -35 -119q0 -29 13 -47.5t41 -18.5q41 0 95 24t89 54q98 83 156 168.5
t58 141.5q0 19 -10.5 33.5t-29.5 14.5q-63 0 -143 -50q-75 -47 -113 -104q-6 -8 -13.5 -17t-16.5 -9t-11.5 8t-2.5 20zM603 744q-9 -1 -32 20l-28 28q-11 8 -36 36q-32 37 -32 54q0 14 12 14h50q8 -1 12.5 -7.5l7.5 -10.5l40 -61q36 -53 42 -63v-4l-4 -6q-6 -6 -8 -6
q-3 0 -12 3t-12 3z" />
    <glyph glyph-name="uni1EDC" unicode="&#x2122;" 
d="M646 608q0 -17 -26 -28q-17 -6 -26 -9.5t-17.5 -7.5t-24.5 -13h2l38 4q35 0 52 -14q32 -26 32 -78v-6q0 -151 -146 -304q-151 -158 -314 -158q-73 0 -121 44q-59 54 -59 162l-2 10q0 100 91 212q83 102 204.5 177t220.5 89h4q19 0 41 -16.5t35 -35.5q33 3 64 20
q-5 7 -9.5 15t-4.5 15q0 10 10 20q23 26 74 26q19 0 34 -4t24 -14q8 -6 17 -18.5t9 -21.5q0 -4 -4 -12q-13 -13 -50.5 -29t-57.5 -19q-47 -10 -68 -10q-16 4 -22 4zM248 352q-48 -48 -77 -99q-35 -62 -35 -119q0 -29 13 -47.5t41 -18.5q41 0 95 24t89 54q98 83 156 168.5
t58 141.5q0 19 -10.5 33.5t-29.5 14.5q-63 0 -143 -50q-75 -47 -113 -104q-6 -8 -13.5 -17t-16.5 -9t-11.5 8t-2.5 20zM603 744q-9 -1 -32 20l-28 28q-11 8 -36 36q-32 37 -32 54q0 14 12 14h50q8 -1 12.5 -7.5l7.5 -10.5l40 -61q36 -53 42 -63v-4l-4 -6q-6 -6 -8 -6
q-3 0 -12 3t-12 3z" />
    <glyph glyph-name="uni1EDE" unicode="&#x1ede;" 
d="M646 608q0 -17 -26 -28q-17 -6 -26 -9.5t-17.5 -7.5t-24.5 -13h2l38 4q35 0 52 -14q32 -26 32 -78v-6q0 -151 -146 -304q-151 -158 -314 -158q-73 0 -121 44q-59 54 -59 162l-2 10q0 100 91 212q83 102 204.5 177t220.5 89h4q19 0 41 -16.5t35 -35.5q33 3 64 20
q-5 7 -9.5 15t-4.5 15q0 10 10 20q23 26 74 26q19 0 34 -4t24 -14q8 -6 17 -18.5t9 -21.5q0 -4 -4 -12q-13 -13 -50.5 -29t-57.5 -19q-47 -10 -68 -10q-16 4 -22 4zM248 352q-48 -48 -77 -99q-35 -62 -35 -119q0 -29 13 -47.5t41 -18.5q41 0 95 24t89 54q98 83 156 168.5
t58 141.5q0 19 -10.5 33.5t-29.5 14.5q-63 0 -143 -50q-75 -47 -113 -104q-6 -8 -13.5 -17t-16.5 -9t-11.5 8t-2.5 20zM628 910q-25 0 -45 -14q-15 -11 -25 -28q16 -5 23 -9t7 -7t-4.5 -7.5t-9.5 -4.5l-22 -4l-22 4q-18 3 -18 20q0 6 5 16t11 16q12 15 45 29.5t55 14.5
q34 0 67 -17.5t33 -40.5q0 -21 -12 -39q-6 -9 -30 -33l-74 -52l-14.5 -10t-7.5 -12l6 -20q0 -10 -18 -10q-13 0 -22.5 12.5t-9.5 21.5q0 24 28 46l80 58q10 6 18 18.5t8 23.5q0 12 -17 20t-35 8z" />
    <glyph glyph-name="uni1EDE" unicode="&#x2021;" 
d="M646 608q0 -17 -26 -28q-17 -6 -26 -9.5t-17.5 -7.5t-24.5 -13h2l38 4q35 0 52 -14q32 -26 32 -78v-6q0 -151 -146 -304q-151 -158 -314 -158q-73 0 -121 44q-59 54 -59 162l-2 10q0 100 91 212q83 102 204.5 177t220.5 89h4q19 0 41 -16.5t35 -35.5q33 3 64 20
q-5 7 -9.5 15t-4.5 15q0 10 10 20q23 26 74 26q19 0 34 -4t24 -14q8 -6 17 -18.5t9 -21.5q0 -4 -4 -12q-13 -13 -50.5 -29t-57.5 -19q-47 -10 -68 -10q-16 4 -22 4zM248 352q-48 -48 -77 -99q-35 -62 -35 -119q0 -29 13 -47.5t41 -18.5q41 0 95 24t89 54q98 83 156 168.5
t58 141.5q0 19 -10.5 33.5t-29.5 14.5q-63 0 -143 -50q-75 -47 -113 -104q-6 -8 -13.5 -17t-16.5 -9t-11.5 8t-2.5 20zM628 910q-25 0 -45 -14q-15 -11 -25 -28q16 -5 23 -9t7 -7t-4.5 -7.5t-9.5 -4.5l-22 -4l-22 4q-18 3 -18 20q0 6 5 16t11 16q12 15 45 29.5t55 14.5
q34 0 67 -17.5t33 -40.5q0 -21 -12 -39q-6 -9 -30 -33l-74 -52l-14.5 -10t-7.5 -12l6 -20q0 -10 -18 -10q-13 0 -22.5 12.5t-9.5 21.5q0 24 28 46l80 58q10 6 18 18.5t8 23.5q0 12 -17 20t-35 8z" />
    <glyph glyph-name="registered" unicode="&#xae;" 
d="M646 608q0 -17 -26 -28q-17 -6 -26 -9.5t-17.5 -7.5t-24.5 -13h2l38 4q35 0 52 -14q32 -26 32 -78v-6q0 -151 -146 -304q-151 -158 -314 -158q-73 0 -121 44q-59 54 -59 162l-2 10q0 100 91 212q83 102 204.5 177t220.5 89h4q19 0 41 -16.5t35 -35.5q33 3 64 20
q-5 7 -9.5 15t-4.5 15q0 10 10 20q23 26 74 26q19 0 34 -4t24 -14q8 -6 17 -18.5t9 -21.5q0 -4 -4 -12q-13 -13 -50.5 -29t-57.5 -19q-47 -10 -68 -10q-16 4 -22 4zM248 352q-48 -48 -77 -99q-35 -62 -35 -119q0 -29 13 -47.5t41 -18.5q41 0 95 24t89 54q98 83 156 168.5
t58 141.5q0 19 -10.5 33.5t-29.5 14.5q-63 0 -143 -50q-75 -47 -113 -104q-6 -8 -13.5 -17t-16.5 -9t-11.5 8t-2.5 20zM542 870h4q22 0 55 -26t45 -26q18 0 31 28.5t21 31.5h6q7 0 13.5 -5.5t6.5 -12.5q0 -30 -17 -62q-20 -38 -47 -38l-2 2q-19 0 -42 15q-50 33 -60 33
q-18 0 -35 -29q-11 -18 -21 -23.5t-14 -5.5q-22 0 -22 22q0 30 26 63t52 33z" />
    <glyph glyph-name="registered" unicode="&#x1ee0;" 
d="M646 608q0 -17 -26 -28q-17 -6 -26 -9.5t-17.5 -7.5t-24.5 -13h2l38 4q35 0 52 -14q32 -26 32 -78v-6q0 -151 -146 -304q-151 -158 -314 -158q-73 0 -121 44q-59 54 -59 162l-2 10q0 100 91 212q83 102 204.5 177t220.5 89h4q19 0 41 -16.5t35 -35.5q33 3 64 20
q-5 7 -9.5 15t-4.5 15q0 10 10 20q23 26 74 26q19 0 34 -4t24 -14q8 -6 17 -18.5t9 -21.5q0 -4 -4 -12q-13 -13 -50.5 -29t-57.5 -19q-47 -10 -68 -10q-16 4 -22 4zM248 352q-48 -48 -77 -99q-35 -62 -35 -119q0 -29 13 -47.5t41 -18.5q41 0 95 24t89 54q98 83 156 168.5
t58 141.5q0 19 -10.5 33.5t-29.5 14.5q-63 0 -143 -50q-75 -47 -113 -104q-6 -8 -13.5 -17t-16.5 -9t-11.5 8t-2.5 20zM542 870h4q22 0 55 -26t45 -26q18 0 31 28.5t21 31.5h6q7 0 13.5 -5.5t6.5 -12.5q0 -30 -17 -62q-20 -38 -47 -38l-2 2q-19 0 -42 15q-50 33 -60 33
q-18 0 -35 -29q-11 -18 -21 -23.5t-14 -5.5q-22 0 -22 22q0 30 26 63t52 33z" />
    <glyph glyph-name="uni0090" 
d="M646 608q0 -17 -26 -28q-17 -6 -26 -9.5t-17.5 -7.5t-24.5 -13h2l38 4q35 0 52 -14q32 -26 32 -78v-6q0 -151 -146 -304q-151 -158 -314 -158q-73 0 -121 44q-59 54 -59 162l-2 10q0 100 91 212q83 102 204.5 177t220.5 89h4q19 0 41 -16.5t35 -35.5q33 3 64 20
q-5 7 -9.5 15t-4.5 15q0 10 10 20q23 26 74 26q19 0 34 -4t24 -14q8 -6 17 -18.5t9 -21.5q0 -4 -4 -12q-13 -13 -50.5 -29t-57.5 -19q-47 -10 -68 -10q-16 4 -22 4zM248 352q-48 -48 -77 -99q-35 -62 -35 -119q0 -29 13 -47.5t41 -18.5q41 0 95 24t89 54q98 83 156 168.5
t58 141.5q0 19 -10.5 33.5t-29.5 14.5q-63 0 -143 -50q-75 -47 -113 -104q-6 -8 -13.5 -17t-16.5 -9t-11.5 8t-2.5 20zM136 -188q9 66 54 78q12 4 24 4q16 0 28 -8t12 -22l-2 -12q-8 -35 -37 -60q-25 -22 -49 -22q-14 0 -22 7.5t-8 24.5v10z" />
    <glyph glyph-name="uni0090" unicode="&#x1ee2;" 
d="M646 608q0 -17 -26 -28q-17 -6 -26 -9.5t-17.5 -7.5t-24.5 -13h2l38 4q35 0 52 -14q32 -26 32 -78v-6q0 -151 -146 -304q-151 -158 -314 -158q-73 0 -121 44q-59 54 -59 162l-2 10q0 100 91 212q83 102 204.5 177t220.5 89h4q19 0 41 -16.5t35 -35.5q33 3 64 20
q-5 7 -9.5 15t-4.5 15q0 10 10 20q23 26 74 26q19 0 34 -4t24 -14q8 -6 17 -18.5t9 -21.5q0 -4 -4 -12q-13 -13 -50.5 -29t-57.5 -19q-47 -10 -68 -10q-16 4 -22 4zM248 352q-48 -48 -77 -99q-35 -62 -35 -119q0 -29 13 -47.5t41 -18.5q41 0 95 24t89 54q98 83 156 168.5
t58 141.5q0 19 -10.5 33.5t-29.5 14.5q-63 0 -143 -50q-75 -47 -113 -104q-6 -8 -13.5 -17t-16.5 -9t-11.5 8t-2.5 20zM136 -188q9 66 54 78q12 4 24 4q16 0 28 -8t12 -22l-2 -12q-8 -35 -37 -60q-25 -22 -49 -22q-14 0 -22 7.5t-8 24.5v10z" />
    <glyph glyph-name="Iacute" unicode="&#xcd;" horiz-adv-x="510" 
d="M184 372l26 6l24.5 4t13.5 2q8 0 8 -10t-11 -20q-14 -10 -19 -14q-18 -16 -39 -30q-32 -22 -45 -22q-23 0 -66 36q-26 22 -26 36l2 2q10 112 151.5 222t260.5 110q48 0 73 -31t25 -81q0 -61 -45 -162q-34 -76 -100 -186q-46 -75 -97 -150q2 -4 2 -18q0 -29 -26.5 -63.5
t-47.5 -34.5h-4q-15 0 -33.5 15.5t-18.5 32.5q0 10 4 19t12 21q266 379 266 484q0 16 -6 28t-20 12q-46 -5 -132 -68q-95 -69 -132 -140zM496 820l-36 -36q-16 -14 -24 -14q-2 1 -12.5 -1.5t-11.5 -2.5q-3 0 -5 2t-3 4l-6 6l2 4l82 124q5 7 6 9q5 8 14 9h50q12 0 12 -14
q0 -17 -31 -53q-25 -29 -37 -37z" />
    <glyph glyph-name="Igrave" unicode="&#xcc;" horiz-adv-x="510" 
d="M184 372l26 6l24.5 4t13.5 2q8 0 8 -10t-11 -20q-14 -10 -19 -14q-18 -16 -39 -30q-32 -22 -45 -22q-23 0 -66 36q-26 22 -26 36l2 2q10 112 151.5 222t260.5 110q48 0 73 -31t25 -81q0 -61 -45 -162q-34 -76 -100 -186q-46 -75 -97 -150q2 -4 2 -18q0 -29 -26.5 -63.5
t-47.5 -34.5h-4q-15 0 -33.5 15.5t-18.5 32.5q0 10 4 19t12 21q266 379 266 484q0 16 -6 28t-20 12q-46 -5 -132 -68q-95 -69 -132 -140zM454 768l-2 -2q-9 0 -31.5 23l-26.5 27q-12 8 -37 36q-33 37 -33 54q0 14 14 14h50q8 -1 12.5 -7.5l7.5 -10.5l40 -61q36 -53 42 -63
v-4l-4 -6q-2 -2 -4.5 -4t-5.5 -2t-11 3t-11 3z" />
    <glyph glyph-name="AE" unicode="&#xc6;" horiz-adv-x="510" 
d="M184 372l26 6l24.5 4t13.5 2q8 0 8 -10t-11 -20q-14 -10 -19 -14q-18 -16 -39 -30q-32 -22 -45 -22q-23 0 -66 36q-26 22 -26 36l2 2q10 112 151.5 222t260.5 110q48 0 73 -31t25 -81q0 -61 -45 -162q-34 -76 -100 -186q-46 -75 -97 -150q2 -4 2 -18q0 -29 -26.5 -63.5
t-47.5 -34.5h-4q-15 0 -33.5 15.5t-18.5 32.5q0 10 4 19t12 21q266 379 266 484q0 16 -6 28t-20 12q-46 -5 -132 -68q-95 -69 -132 -140zM550 948q-25 0 -45 -14q-15 -11 -25 -28q16 -5 23 -9t7 -7t-4.5 -7.5t-9.5 -4.5l-22 -4l-22 4q-18 3 -18 20q0 6 5 16t11 16
q12 15 45 29.5t55 14.5q34 0 67 -17.5t33 -40.5q0 -21 -12 -39q-6 -9 -30 -33l-74 -52l-14.5 -10t-7.5 -12l6 -20q0 -10 -18 -10q-13 0 -22.5 12.5t-9.5 21.5q0 24 28 46l80 58q10 6 18 18.5t8 23.5q0 12 -17 20t-35 8z" />
    <glyph glyph-name="AE" unicode="&#x1ec8;" horiz-adv-x="510" 
d="M184 372l26 6l24.5 4t13.5 2q8 0 8 -10t-11 -20q-14 -10 -19 -14q-18 -16 -39 -30q-32 -22 -45 -22q-23 0 -66 36q-26 22 -26 36l2 2q10 112 151.5 222t260.5 110q48 0 73 -31t25 -81q0 -61 -45 -162q-34 -76 -100 -186q-46 -75 -97 -150q2 -4 2 -18q0 -29 -26.5 -63.5
t-47.5 -34.5h-4q-15 0 -33.5 15.5t-18.5 32.5q0 10 4 19t12 21q266 379 266 484q0 16 -6 28t-20 12q-46 -5 -132 -68q-95 -69 -132 -140zM550 948q-25 0 -45 -14q-15 -11 -25 -28q16 -5 23 -9t7 -7t-4.5 -7.5t-9.5 -4.5l-22 -4l-22 4q-18 3 -18 20q0 6 5 16t11 16
q12 15 45 29.5t55 14.5q34 0 67 -17.5t33 -40.5q0 -21 -12 -39q-6 -9 -30 -33l-74 -52l-14.5 -10t-7.5 -12l6 -20q0 -10 -18 -10q-13 0 -22.5 12.5t-9.5 21.5q0 24 28 46l80 58q10 6 18 18.5t8 23.5q0 12 -17 20t-35 8z" />
    <glyph glyph-name="Itilde" unicode="&#x128;" horiz-adv-x="510" 
d="M184 372l26 6l24.5 4t13.5 2q8 0 8 -10t-11 -20q-14 -10 -19 -14q-18 -16 -39 -30q-32 -22 -45 -22q-23 0 -66 36q-26 22 -26 36l2 2q10 112 151.5 222t260.5 110q48 0 73 -31t25 -81q0 -61 -45 -162q-34 -76 -100 -186q-46 -75 -97 -150q2 -4 2 -18q0 -29 -26.5 -63.5
t-47.5 -34.5h-4q-15 0 -33.5 15.5t-18.5 32.5q0 10 4 19t12 21q266 379 266 484q0 16 -6 28t-20 12q-46 -5 -132 -68q-95 -69 -132 -140zM392 870q21 0 45 -16q54 -36 59 -36q18 0 31 28.5t21 31.5h6q7 0 13.5 -5.5t6.5 -12.5q0 -30 -18 -62q-21 -38 -48 -38q-23 1 -55 25.5
t-47 24.5q-18 0 -35 -29q-11 -18 -19 -23q-6 -2 -10 -3.5t-8 -2.5q-20 0 -20 22l-2 2q0 28 27 61t53 33z" />
    <glyph glyph-name="Itilde" unicode="&#x160;" horiz-adv-x="510" 
d="M184 372l26 6l24.5 4t13.5 2q8 0 8 -10t-11 -20q-14 -10 -19 -14q-18 -16 -39 -30q-32 -22 -45 -22q-23 0 -66 36q-26 22 -26 36l2 2q10 112 151.5 222t260.5 110q48 0 73 -31t25 -81q0 -61 -45 -162q-34 -76 -100 -186q-46 -75 -97 -150q2 -4 2 -18q0 -29 -26.5 -63.5
t-47.5 -34.5h-4q-15 0 -33.5 15.5t-18.5 32.5q0 10 4 19t12 21q266 379 266 484q0 16 -6 28t-20 12q-46 -5 -132 -68q-95 -69 -132 -140zM392 870q21 0 45 -16q54 -36 59 -36q18 0 31 28.5t21 31.5h6q7 0 13.5 -5.5t6.5 -12.5q0 -30 -18 -62q-21 -38 -48 -38q-23 1 -55 25.5
t-47 24.5q-18 0 -35 -29q-11 -18 -19 -23q-6 -2 -10 -3.5t-8 -2.5q-20 0 -20 22l-2 2q0 28 27 61t53 33z" />
    <glyph glyph-name="uni1ECA" unicode="&#x1eca;" horiz-adv-x="510" 
d="M184 372l26 6l24.5 4t13.5 2q8 0 8 -10t-11 -20q-14 -10 -19 -14q-18 -16 -39 -30q-32 -22 -45 -22q-23 0 -66 36q-26 22 -26 36l2 2q10 112 151.5 222t260.5 110q48 0 73 -31t25 -81q0 -61 -45 -162q-34 -76 -100 -186q-46 -75 -97 -150q2 -4 2 -18q0 -29 -26.5 -63.5
t-47.5 -34.5h-4q-15 0 -33.5 15.5t-18.5 32.5q0 10 4 19t12 21q266 379 266 484q0 16 -6 28t-20 12q-46 -5 -132 -68q-95 -69 -132 -140zM146 -164q9 66 54 78l22 4q16 0 28 -8t12 -22v-12q-8 -35 -38 -60q-26 -22 -52 -22q-28 0 -28 32z" />
    <glyph glyph-name="uni1ECA" unicode="&#x2013;" horiz-adv-x="510" 
d="M184 372l26 6l24.5 4t13.5 2q8 0 8 -10t-11 -20q-14 -10 -19 -14q-18 -16 -39 -30q-32 -22 -45 -22q-23 0 -66 36q-26 22 -26 36l2 2q10 112 151.5 222t260.5 110q48 0 73 -31t25 -81q0 -61 -45 -162q-34 -76 -100 -186q-46 -75 -97 -150q2 -4 2 -18q0 -29 -26.5 -63.5
t-47.5 -34.5h-4q-15 0 -33.5 15.5t-18.5 32.5q0 10 4 19t12 21q266 379 266 484q0 16 -6 28t-20 12q-46 -5 -132 -68q-95 -69 -132 -140zM146 -164q9 66 54 78l22 4q16 0 28 -8t12 -22v-12q-8 -35 -38 -60q-26 -22 -52 -22q-28 0 -28 32z" />
    <glyph glyph-name="Uacute" unicode="&#xda;" horiz-adv-x="888" 
d="M584 208l82 138l-2 2q-364 -352 -422 -352q-49 9 -72.5 35.5t-23.5 68.5q0 41 48 110q19 27 78 98q186 217 186 218q0 10 -10 10q-4 0 -13.5 -3.5t-16.5 -6.5q-66 -28 -86 -37.5l-156 -76.5q-25 -12 -49 -20q-34 -12 -53 -12q-13 0 -20.5 4t-7.5 14l2 4q13 77 79 148
q81 87 201 106q17 2 107 23q74 17 107 17q30 0 45 -23.5t15 -56.5q0 -9 -1 -18t-3 -20q-7 -23 -21 -46q-4 -6 -57 -74q-45 -48 -128 -150q-102 -126 -102 -148q0 -18 20 -18q26 0 133 89q84 70 133 119l174 173q72 72 94 91q30 26 44 26q20 0 31 -21t11 -43v-6
q0 -16 -61 -102l-129 -182q-39 -55 -63 -101q-27 -52 -27 -77q0 -17 10.5 -28.5t27.5 -11.5q33 0 104 52q30 22 96 78q6 -27 6 -34q0 -25 -109 -102q-116 -82 -175 -82q-34 0 -56 22t-22 58q0 37 16 77q7 18 36 71zM843 796l-26 -28q-22 -22 -32 -22l-2 2q-2 0 -10 -3
t-12 -3q-2 0 -4.5 2t-5.5 4l-4 6v4l82 124q5 7 6 9q5 8 14 9h50q12 0 12 -14q0 -17 -31 -53q-25 -29 -37 -37z" />
    <glyph glyph-name="Ugrave" unicode="&#xd9;" horiz-adv-x="888" 
d="M584 208l82 138l-2 2q-364 -352 -422 -352q-49 9 -72.5 35.5t-23.5 68.5q0 41 48 110q19 27 78 98q186 217 186 218q0 10 -10 10q-4 0 -13.5 -3.5t-16.5 -6.5q-66 -28 -86 -37.5l-156 -76.5q-25 -12 -49 -20q-34 -12 -53 -12q-13 0 -20.5 4t-7.5 14l2 4q13 77 79 148
q81 87 201 106q17 2 107 23q74 17 107 17q30 0 45 -23.5t15 -56.5q0 -9 -1 -18t-3 -20q-7 -23 -21 -46q-4 -6 -57 -74q-45 -48 -128 -150q-102 -126 -102 -148q0 -18 20 -18q26 0 133 89q84 70 133 119l174 173q72 72 94 91q30 26 44 26q20 0 31 -21t11 -43v-6
q0 -16 -61 -102l-129 -182q-39 -55 -63 -101q-27 -52 -27 -77q0 -17 10.5 -28.5t27.5 -11.5q33 0 104 52q30 22 96 78q6 -27 6 -34q0 -25 -109 -102q-116 -82 -175 -82q-34 0 -56 22t-22 58q0 37 16 77q7 18 36 71zM777 744q-9 -1 -32 20l-28 28q-11 8 -36 36q-32 37 -32 54
q0 14 12 14h50q8 -1 12.5 -7.5l7.5 -10.5l40 -61q36 -53 42 -63v-4l-4 -6q-6 -6 -8 -6q-3 0 -12 3t-12 3z" />
    <glyph glyph-name="braceleft" unicode="{" horiz-adv-x="888" 
d="M584 208l82 138l-2 2q-364 -352 -422 -352q-49 9 -72.5 35.5t-23.5 68.5q0 41 48 110q19 27 78 98q186 217 186 218q0 10 -10 10q-4 0 -13.5 -3.5t-16.5 -6.5q-66 -28 -86 -37.5l-156 -76.5q-25 -12 -49 -20q-34 -12 -53 -12q-13 0 -20.5 4t-7.5 14l2 4q13 77 79 148
q81 87 201 106q17 2 107 23q74 17 107 17q30 0 45 -23.5t15 -56.5q0 -9 -1 -18t-3 -20q-7 -23 -21 -46q-4 -6 -57 -74q-45 -48 -128 -150q-102 -126 -102 -148q0 -18 20 -18q26 0 133 89q84 70 133 119l174 173q72 72 94 91q30 26 44 26q20 0 31 -21t11 -43v-6
q0 -16 -61 -102l-129 -182q-39 -55 -63 -101q-27 -52 -27 -77q0 -17 10.5 -28.5t27.5 -11.5q33 0 104 52q30 22 96 78q6 -27 6 -34q0 -25 -109 -102q-116 -82 -175 -82q-34 0 -56 22t-22 58q0 37 16 77q7 18 36 71zM810 910q-25 0 -45 -14q-15 -11 -25 -28q16 -5 23 -9t7 -7
t-4.5 -7.5t-9.5 -4.5l-22 -4l-22 4q-18 3 -18 20q0 6 5 16t11 16q12 15 45 29.5t55 14.5q34 0 67 -17.5t33 -40.5q0 -21 -12 -39q-6 -9 -30 -33l-74 -52l-14.5 -10t-7.5 -12l6 -20q0 -10 -18 -10q-13 0 -22.5 12.5t-9.5 21.5q0 24 28 46l80 58q10 6 18 18.5t8 23.5
q0 12 -17 20t-35 8z" />
    <glyph glyph-name="braceleft" unicode="&#x1ee6;" horiz-adv-x="888" 
d="M584 208l82 138l-2 2q-364 -352 -422 -352q-49 9 -72.5 35.5t-23.5 68.5q0 41 48 110q19 27 78 98q186 217 186 218q0 10 -10 10q-4 0 -13.5 -3.5t-16.5 -6.5q-66 -28 -86 -37.5l-156 -76.5q-25 -12 -49 -20q-34 -12 -53 -12q-13 0 -20.5 4t-7.5 14l2 4q13 77 79 148
q81 87 201 106q17 2 107 23q74 17 107 17q30 0 45 -23.5t15 -56.5q0 -9 -1 -18t-3 -20q-7 -23 -21 -46q-4 -6 -57 -74q-45 -48 -128 -150q-102 -126 -102 -148q0 -18 20 -18q26 0 133 89q84 70 133 119l174 173q72 72 94 91q30 26 44 26q20 0 31 -21t11 -43v-6
q0 -16 -61 -102l-129 -182q-39 -55 -63 -101q-27 -52 -27 -77q0 -17 10.5 -28.5t27.5 -11.5q33 0 104 52q30 22 96 78q6 -27 6 -34q0 -25 -109 -102q-116 -82 -175 -82q-34 0 -56 22t-22 58q0 37 16 77q7 18 36 71zM810 910q-25 0 -45 -14q-15 -11 -25 -28q16 -5 23 -9t7 -7
t-4.5 -7.5t-9.5 -4.5l-22 -4l-22 4q-18 3 -18 20q0 6 5 16t11 16q12 15 45 29.5t55 14.5q34 0 67 -17.5t33 -40.5q0 -21 -12 -39q-6 -9 -30 -33l-74 -52l-14.5 -10t-7.5 -12l6 -20q0 -10 -18 -10q-13 0 -22.5 12.5t-9.5 21.5q0 24 28 46l80 58q10 6 18 18.5t8 23.5
q0 12 -17 20t-35 8z" />
    <glyph glyph-name="braceright" unicode="}" horiz-adv-x="888" 
d="M584 208l82 138l-2 2q-364 -352 -422 -352q-49 9 -72.5 35.5t-23.5 68.5q0 41 48 110q19 27 78 98q186 217 186 218q0 10 -10 10q-4 0 -13.5 -3.5t-16.5 -6.5q-66 -28 -86 -37.5l-156 -76.5q-25 -12 -49 -20q-34 -12 -53 -12q-13 0 -20.5 4t-7.5 14l2 4q13 77 79 148
q81 87 201 106q17 2 107 23q74 17 107 17q30 0 45 -23.5t15 -56.5q0 -9 -1 -18t-3 -20q-7 -23 -21 -46q-4 -6 -57 -74q-45 -48 -128 -150q-102 -126 -102 -148q0 -18 20 -18q26 0 133 89q84 70 133 119l174 173q72 72 94 91q30 26 44 26q20 0 31 -21t11 -43v-6
q0 -16 -61 -102l-129 -182q-39 -55 -63 -101q-27 -52 -27 -77q0 -17 10.5 -28.5t27.5 -11.5q33 0 104 52q30 22 96 78q6 -27 6 -34q0 -25 -109 -102q-116 -82 -175 -82q-34 0 -56 22t-22 58q0 37 16 77q7 18 36 71zM741 870h4q22 0 55 -26t45 -26q18 0 31 28.5t21 31.5h6
q7 0 13.5 -5.5t6.5 -12.5q0 -30 -17 -62q-20 -38 -47 -38l-2 2q-19 0 -42 15q-50 33 -60 33q-18 0 -35 -29q-11 -18 -21 -23.5t-14 -5.5q-22 0 -22 22q0 30 26 63t52 33z" />
    <glyph glyph-name="braceright" unicode="&#x168;" horiz-adv-x="888" 
d="M584 208l82 138l-2 2q-364 -352 -422 -352q-49 9 -72.5 35.5t-23.5 68.5q0 41 48 110q19 27 78 98q186 217 186 218q0 10 -10 10q-4 0 -13.5 -3.5t-16.5 -6.5q-66 -28 -86 -37.5l-156 -76.5q-25 -12 -49 -20q-34 -12 -53 -12q-13 0 -20.5 4t-7.5 14l2 4q13 77 79 148
q81 87 201 106q17 2 107 23q74 17 107 17q30 0 45 -23.5t15 -56.5q0 -9 -1 -18t-3 -20q-7 -23 -21 -46q-4 -6 -57 -74q-45 -48 -128 -150q-102 -126 -102 -148q0 -18 20 -18q26 0 133 89q84 70 133 119l174 173q72 72 94 91q30 26 44 26q20 0 31 -21t11 -43v-6
q0 -16 -61 -102l-129 -182q-39 -55 -63 -101q-27 -52 -27 -77q0 -17 10.5 -28.5t27.5 -11.5q33 0 104 52q30 22 96 78q6 -27 6 -34q0 -25 -109 -102q-116 -82 -175 -82q-34 0 -56 22t-22 58q0 37 16 77q7 18 36 71zM741 870h4q22 0 55 -26t45 -26q18 0 31 28.5t21 31.5h6
q7 0 13.5 -5.5t6.5 -12.5q0 -30 -17 -62q-20 -38 -47 -38l-2 2q-19 0 -42 15q-50 33 -60 33q-18 0 -35 -29q-11 -18 -21 -23.5t-14 -5.5q-22 0 -22 22q0 30 26 63t52 33z" />
    <glyph glyph-name="bar" unicode="|" horiz-adv-x="888" 
d="M584 208l82 138l-2 2q-364 -352 -422 -352q-49 9 -72.5 35.5t-23.5 68.5q0 41 48 110q19 27 78 98q186 217 186 218q0 10 -10 10q-4 0 -13.5 -3.5t-16.5 -6.5q-66 -28 -86 -37.5l-156 -76.5q-25 -12 -49 -20q-34 -12 -53 -12q-13 0 -20.5 4t-7.5 14l2 4q13 77 79 148
q81 87 201 106q17 2 107 23q74 17 107 17q30 0 45 -23.5t15 -56.5q0 -9 -1 -18t-3 -20q-7 -23 -21 -46q-4 -6 -57 -74q-45 -48 -128 -150q-102 -126 -102 -148q0 -18 20 -18q26 0 133 89q84 70 133 119l174 173q72 72 94 91q30 26 44 26q20 0 31 -21t11 -43v-6
q0 -16 -61 -102l-129 -182q-39 -55 -63 -101q-27 -52 -27 -77q0 -17 10.5 -28.5t27.5 -11.5q33 0 104 52q30 22 96 78q6 -27 6 -34q0 -25 -109 -102q-116 -82 -175 -82q-34 0 -56 22t-22 58q0 37 16 77q7 18 36 71zM287 -188q9 66 54 78q12 4 24 4q16 0 28 -8t12 -22l-2 -12
q-8 -35 -37 -60q-25 -22 -49 -22q-14 0 -22 7.5t-8 24.5v10z" />
    <glyph glyph-name="bar" unicode="&#x1ee4;" horiz-adv-x="888" 
d="M584 208l82 138l-2 2q-364 -352 -422 -352q-49 9 -72.5 35.5t-23.5 68.5q0 41 48 110q19 27 78 98q186 217 186 218q0 10 -10 10q-4 0 -13.5 -3.5t-16.5 -6.5q-66 -28 -86 -37.5l-156 -76.5q-25 -12 -49 -20q-34 -12 -53 -12q-13 0 -20.5 4t-7.5 14l2 4q13 77 79 148
q81 87 201 106q17 2 107 23q74 17 107 17q30 0 45 -23.5t15 -56.5q0 -9 -1 -18t-3 -20q-7 -23 -21 -46q-4 -6 -57 -74q-45 -48 -128 -150q-102 -126 -102 -148q0 -18 20 -18q26 0 133 89q84 70 133 119l174 173q72 72 94 91q30 26 44 26q20 0 31 -21t11 -43v-6
q0 -16 -61 -102l-129 -182q-39 -55 -63 -101q-27 -52 -27 -77q0 -17 10.5 -28.5t27.5 -11.5q33 0 104 52q30 22 96 78q6 -27 6 -34q0 -25 -109 -102q-116 -82 -175 -82q-34 0 -56 22t-22 58q0 37 16 77q7 18 36 71zM287 -188q9 66 54 78q12 4 24 4q16 0 28 -8t12 -22l-2 -12
q-8 -35 -37 -60q-25 -22 -49 -22q-14 0 -22 7.5t-8 24.5v10z" />
    <glyph glyph-name="Odieresis" unicode="&#xd6;" horiz-adv-x="888" 
d="M918 614q12 -18 12 -38v-6q0 -16 -61 -102l-129 -182q-39 -55 -63 -101q-27 -52 -27 -77q0 -17 10.5 -28.5t27.5 -11.5q33 0 104 52q30 22 96 78q6 -27 6 -34q0 -25 -109 -102q-116 -82 -175 -82q-34 0 -56 22t-22 58q0 37 16 77q7 18 36 71l82 138l-2 2
q-364 -352 -422 -352q-49 9 -72.5 35.5t-23.5 68.5q0 41 48 110q19 27 78 98q186 217 186 218q0 10 -10 10q-4 0 -13.5 -3.5t-16.5 -6.5q-66 -28 -86 -37.5l-156 -76.5q-25 -12 -49 -20q-34 -12 -53 -12q-13 0 -20.5 4t-7.5 14l2 4q13 77 79 148q81 87 201 106q17 2 107 23
q74 17 107 17q30 0 45 -23.5t15 -56.5q0 -9 -1 -18t-3 -20q-7 -23 -21 -46q-4 -6 -57 -74q-45 -48 -128 -150q-102 -126 -102 -148q0 -18 20 -18q26 0 133 89q84 70 133 119l174 173q72 72 94 91q30 26 44 26q10 0 14 -4q32 0 72 20q-5 7 -9.5 15t-4.5 15q0 10 10 20
q23 26 74 26q19 0 34 -4t24 -14q8 -6 17 -18.5t9 -21.5q0 -4 -4 -12q-13 -13 -50.5 -29t-56 -19l-33.5 -5.5t-26 -2.5q-12 0 -24 3.5t-16 4.5z" />
    <glyph glyph-name="Odieresis" unicode="&#x1af;" horiz-adv-x="888" 
d="M918 614q12 -18 12 -38v-6q0 -16 -61 -102l-129 -182q-39 -55 -63 -101q-27 -52 -27 -77q0 -17 10.5 -28.5t27.5 -11.5q33 0 104 52q30 22 96 78q6 -27 6 -34q0 -25 -109 -102q-116 -82 -175 -82q-34 0 -56 22t-22 58q0 37 16 77q7 18 36 71l82 138l-2 2
q-364 -352 -422 -352q-49 9 -72.5 35.5t-23.5 68.5q0 41 48 110q19 27 78 98q186 217 186 218q0 10 -10 10q-4 0 -13.5 -3.5t-16.5 -6.5q-66 -28 -86 -37.5l-156 -76.5q-25 -12 -49 -20q-34 -12 -53 -12q-13 0 -20.5 4t-7.5 14l2 4q13 77 79 148q81 87 201 106q17 2 107 23
q74 17 107 17q30 0 45 -23.5t15 -56.5q0 -9 -1 -18t-3 -20q-7 -23 -21 -46q-4 -6 -57 -74q-45 -48 -128 -150q-102 -126 -102 -148q0 -18 20 -18q26 0 133 89q84 70 133 119l174 173q72 72 94 91q30 26 44 26q10 0 14 -4q32 0 72 20q-5 7 -9.5 15t-4.5 15q0 10 10 20
q23 26 74 26q19 0 34 -4t24 -14q8 -6 17 -18.5t9 -21.5q0 -4 -4 -12q-13 -13 -50.5 -29t-56 -19l-33.5 -5.5t-26 -2.5q-12 0 -24 3.5t-16 4.5z" />
    <glyph glyph-name="Thorn" unicode="&#xde;" horiz-adv-x="888" 
d="M918 614q12 -18 12 -38v-6q0 -16 -61 -102l-129 -182q-39 -55 -63 -101q-27 -52 -27 -77q0 -17 10.5 -28.5t27.5 -11.5q33 0 104 52q30 22 96 78q6 -27 6 -34q0 -25 -109 -102q-116 -82 -175 -82q-34 0 -56 22t-22 58q0 37 16 77q7 18 36 71l82 138l-2 2
q-364 -352 -422 -352q-49 9 -72.5 35.5t-23.5 68.5q0 41 48 110q19 27 78 98q186 217 186 218q0 10 -10 10q-4 0 -13.5 -3.5t-16.5 -6.5q-66 -28 -86 -37.5l-156 -76.5q-25 -12 -49 -20q-34 -12 -53 -12q-13 0 -20.5 4t-7.5 14l2 4q13 77 79 148q81 87 201 106q17 2 107 23
q74 17 107 17q30 0 45 -23.5t15 -56.5q0 -9 -1 -18t-3 -20q-7 -23 -21 -46q-4 -6 -57 -74q-45 -48 -128 -150q-102 -126 -102 -148q0 -18 20 -18q26 0 133 89q84 70 133 119l174 173q72 72 94 91q30 26 44 26q10 0 14 -4q32 0 72 20q-5 7 -9.5 15t-4.5 15q0 10 10 20
q23 26 74 26q19 0 34 -4t24 -14q8 -6 17 -18.5t9 -21.5q0 -4 -4 -12q-13 -13 -50.5 -29t-56 -19l-33.5 -5.5t-26 -2.5q-12 0 -24 3.5t-16 4.5zM843 796l-26 -28q-22 -22 -32 -22l-2 2q-2 0 -10 -3t-12 -3q-2 0 -4.5 2t-5.5 4l-4 6v4l82 124q5 7 6 9q5 8 14 9h50q12 0 12 -14
q0 -17 -31 -53q-25 -29 -37 -37z" />
    <glyph glyph-name="Thorn" unicode="&#x1ee8;" horiz-adv-x="888" 
d="M918 614q12 -18 12 -38v-6q0 -16 -61 -102l-129 -182q-39 -55 -63 -101q-27 -52 -27 -77q0 -17 10.5 -28.5t27.5 -11.5q33 0 104 52q30 22 96 78q6 -27 6 -34q0 -25 -109 -102q-116 -82 -175 -82q-34 0 -56 22t-22 58q0 37 16 77q7 18 36 71l82 138l-2 2
q-364 -352 -422 -352q-49 9 -72.5 35.5t-23.5 68.5q0 41 48 110q19 27 78 98q186 217 186 218q0 10 -10 10q-4 0 -13.5 -3.5t-16.5 -6.5q-66 -28 -86 -37.5l-156 -76.5q-25 -12 -49 -20q-34 -12 -53 -12q-13 0 -20.5 4t-7.5 14l2 4q13 77 79 148q81 87 201 106q17 2 107 23
q74 17 107 17q30 0 45 -23.5t15 -56.5q0 -9 -1 -18t-3 -20q-7 -23 -21 -46q-4 -6 -57 -74q-45 -48 -128 -150q-102 -126 -102 -148q0 -18 20 -18q26 0 133 89q84 70 133 119l174 173q72 72 94 91q30 26 44 26q10 0 14 -4q32 0 72 20q-5 7 -9.5 15t-4.5 15q0 10 10 20
q23 26 74 26q19 0 34 -4t24 -14q8 -6 17 -18.5t9 -21.5q0 -4 -4 -12q-13 -13 -50.5 -29t-56 -19l-33.5 -5.5t-26 -2.5q-12 0 -24 3.5t-16 4.5zM843 796l-26 -28q-22 -22 -32 -22l-2 2q-2 0 -10 -3t-12 -3q-2 0 -4.5 2t-5.5 4l-4 6v4l82 124q5 7 6 9q5 8 14 9h50q12 0 12 -14
q0 -17 -31 -53q-25 -29 -37 -37z" />
    <glyph glyph-name="macron" unicode="&#xaf;" horiz-adv-x="888" 
d="M918 614q12 -18 12 -38v-6q0 -16 -61 -102l-129 -182q-39 -55 -63 -101q-27 -52 -27 -77q0 -17 10.5 -28.5t27.5 -11.5q33 0 104 52q30 22 96 78q6 -27 6 -34q0 -25 -109 -102q-116 -82 -175 -82q-34 0 -56 22t-22 58q0 37 16 77q7 18 36 71l82 138l-2 2
q-364 -352 -422 -352q-49 9 -72.5 35.5t-23.5 68.5q0 41 48 110q19 27 78 98q186 217 186 218q0 10 -10 10q-4 0 -13.5 -3.5t-16.5 -6.5q-66 -28 -86 -37.5l-156 -76.5q-25 -12 -49 -20q-34 -12 -53 -12q-13 0 -20.5 4t-7.5 14l2 4q13 77 79 148q81 87 201 106q17 2 107 23
q74 17 107 17q30 0 45 -23.5t15 -56.5q0 -9 -1 -18t-3 -20q-7 -23 -21 -46q-4 -6 -57 -74q-45 -48 -128 -150q-102 -126 -102 -148q0 -18 20 -18q26 0 133 89q84 70 133 119l174 173q72 72 94 91q30 26 44 26q10 0 14 -4q32 0 72 20q-5 7 -9.5 15t-4.5 15q0 10 10 20
q23 26 74 26q19 0 34 -4t24 -14q8 -6 17 -18.5t9 -21.5q0 -4 -4 -12q-13 -13 -50.5 -29t-56 -19l-33.5 -5.5t-26 -2.5q-12 0 -24 3.5t-16 4.5zM780 744q-9 -1 -32 20l-28 28q-11 8 -36 36q-32 37 -32 54q0 14 12 14h50q8 -1 12.5 -7.5l7.5 -10.5l40 -61q36 -53 42 -63v-4
l-4 -6q-6 -6 -8 -6q-3 0 -12 3t-12 3z" />
    <glyph glyph-name="macron" unicode="&#x1eea;" horiz-adv-x="888" 
d="M918 614q12 -18 12 -38v-6q0 -16 -61 -102l-129 -182q-39 -55 -63 -101q-27 -52 -27 -77q0 -17 10.5 -28.5t27.5 -11.5q33 0 104 52q30 22 96 78q6 -27 6 -34q0 -25 -109 -102q-116 -82 -175 -82q-34 0 -56 22t-22 58q0 37 16 77q7 18 36 71l82 138l-2 2
q-364 -352 -422 -352q-49 9 -72.5 35.5t-23.5 68.5q0 41 48 110q19 27 78 98q186 217 186 218q0 10 -10 10q-4 0 -13.5 -3.5t-16.5 -6.5q-66 -28 -86 -37.5l-156 -76.5q-25 -12 -49 -20q-34 -12 -53 -12q-13 0 -20.5 4t-7.5 14l2 4q13 77 79 148q81 87 201 106q17 2 107 23
q74 17 107 17q30 0 45 -23.5t15 -56.5q0 -9 -1 -18t-3 -20q-7 -23 -21 -46q-4 -6 -57 -74q-45 -48 -128 -150q-102 -126 -102 -148q0 -18 20 -18q26 0 133 89q84 70 133 119l174 173q72 72 94 91q30 26 44 26q10 0 14 -4q32 0 72 20q-5 7 -9.5 15t-4.5 15q0 10 10 20
q23 26 74 26q19 0 34 -4t24 -14q8 -6 17 -18.5t9 -21.5q0 -4 -4 -12q-13 -13 -50.5 -29t-56 -19l-33.5 -5.5t-26 -2.5q-12 0 -24 3.5t-16 4.5zM780 744q-9 -1 -32 20l-28 28q-11 8 -36 36q-32 37 -32 54q0 14 12 14h50q8 -1 12.5 -7.5l7.5 -10.5l40 -61q36 -53 42 -63v-4
l-4 -6q-6 -6 -8 -6q-3 0 -12 3t-12 3z" />
    <glyph glyph-name="Ucircumflex" unicode="&#xdb;" horiz-adv-x="888" 
d="M918 614q12 -18 12 -38v-6q0 -16 -61 -102l-129 -182q-39 -55 -63 -101q-27 -52 -27 -77q0 -17 10.5 -28.5t27.5 -11.5q33 0 104 52q30 22 96 78q6 -27 6 -34q0 -25 -109 -102q-116 -82 -175 -82q-34 0 -56 22t-22 58q0 37 16 77q7 18 36 71l82 138l-2 2
q-364 -352 -422 -352q-49 9 -72.5 35.5t-23.5 68.5q0 41 48 110q19 27 78 98q186 217 186 218q0 10 -10 10q-4 0 -13.5 -3.5t-16.5 -6.5q-66 -28 -86 -37.5l-156 -76.5q-25 -12 -49 -20q-34 -12 -53 -12q-13 0 -20.5 4t-7.5 14l2 4q13 77 79 148q81 87 201 106q17 2 107 23
q74 17 107 17q30 0 45 -23.5t15 -56.5q0 -9 -1 -18t-3 -20q-7 -23 -21 -46q-4 -6 -57 -74q-45 -48 -128 -150q-102 -126 -102 -148q0 -18 20 -18q26 0 133 89q84 70 133 119l174 173q72 72 94 91q30 26 44 26q10 0 14 -4q32 0 72 20q-5 7 -9.5 15t-4.5 15q0 10 10 20
q23 26 74 26q19 0 34 -4t24 -14q8 -6 17 -18.5t9 -21.5q0 -4 -4 -12q-13 -13 -50.5 -29t-56 -19l-33.5 -5.5t-26 -2.5q-12 0 -24 3.5t-16 4.5zM810 910q-25 0 -45 -14q-15 -11 -25 -28q16 -5 23 -9t7 -7t-4.5 -7.5t-9.5 -4.5l-22 -4l-22 4q-18 3 -18 20q0 6 5 16t11 16
q12 15 45 29.5t55 14.5q34 0 67 -17.5t33 -40.5q0 -21 -12 -39q-6 -9 -30 -33l-74 -52l-14.5 -10t-7.5 -12l6 -20q0 -10 -18 -10q-13 0 -22.5 12.5t-9.5 21.5q0 24 28 46l80 58q10 6 18 18.5t8 23.5q0 12 -17 20t-35 8z" />
    <glyph glyph-name="Ucircumflex" unicode="&#x1eec;" horiz-adv-x="888" 
d="M918 614q12 -18 12 -38v-6q0 -16 -61 -102l-129 -182q-39 -55 -63 -101q-27 -52 -27 -77q0 -17 10.5 -28.5t27.5 -11.5q33 0 104 52q30 22 96 78q6 -27 6 -34q0 -25 -109 -102q-116 -82 -175 -82q-34 0 -56 22t-22 58q0 37 16 77q7 18 36 71l82 138l-2 2
q-364 -352 -422 -352q-49 9 -72.5 35.5t-23.5 68.5q0 41 48 110q19 27 78 98q186 217 186 218q0 10 -10 10q-4 0 -13.5 -3.5t-16.5 -6.5q-66 -28 -86 -37.5l-156 -76.5q-25 -12 -49 -20q-34 -12 -53 -12q-13 0 -20.5 4t-7.5 14l2 4q13 77 79 148q81 87 201 106q17 2 107 23
q74 17 107 17q30 0 45 -23.5t15 -56.5q0 -9 -1 -18t-3 -20q-7 -23 -21 -46q-4 -6 -57 -74q-45 -48 -128 -150q-102 -126 -102 -148q0 -18 20 -18q26 0 133 89q84 70 133 119l174 173q72 72 94 91q30 26 44 26q10 0 14 -4q32 0 72 20q-5 7 -9.5 15t-4.5 15q0 10 10 20
q23 26 74 26q19 0 34 -4t24 -14q8 -6 17 -18.5t9 -21.5q0 -4 -4 -12q-13 -13 -50.5 -29t-56 -19l-33.5 -5.5t-26 -2.5q-12 0 -24 3.5t-16 4.5zM810 910q-25 0 -45 -14q-15 -11 -25 -28q16 -5 23 -9t7 -7t-4.5 -7.5t-9.5 -4.5l-22 -4l-22 4q-18 3 -18 20q0 6 5 16t11 16
q12 15 45 29.5t55 14.5q34 0 67 -17.5t33 -40.5q0 -21 -12 -39q-6 -9 -30 -33l-74 -52l-14.5 -10t-7.5 -12l6 -20q0 -10 -18 -10q-13 0 -22.5 12.5t-9.5 21.5q0 24 28 46l80 58q10 6 18 18.5t8 23.5q0 12 -17 20t-35 8z" />
    <glyph glyph-name="cent" unicode="&#xa2;" horiz-adv-x="888" 
d="M918 614q12 -18 12 -38v-6q0 -16 -61 -102l-129 -182q-39 -55 -63 -101q-27 -52 -27 -77q0 -17 10.5 -28.5t27.5 -11.5q33 0 104 52q30 22 96 78q6 -27 6 -34q0 -25 -109 -102q-116 -82 -175 -82q-34 0 -56 22t-22 58q0 37 16 77q7 18 36 71l82 138l-2 2
q-364 -352 -422 -352q-49 9 -72.5 35.5t-23.5 68.5q0 41 48 110q19 27 78 98q186 217 186 218q0 10 -10 10q-4 0 -13.5 -3.5t-16.5 -6.5q-66 -28 -86 -37.5l-156 -76.5q-25 -12 -49 -20q-34 -12 -53 -12q-13 0 -20.5 4t-7.5 14l2 4q13 77 79 148q81 87 201 106q17 2 107 23
q74 17 107 17q30 0 45 -23.5t15 -56.5q0 -9 -1 -18t-3 -20q-7 -23 -21 -46q-4 -6 -57 -74q-45 -48 -128 -150q-102 -126 -102 -148q0 -18 20 -18q26 0 133 89q84 70 133 119l174 173q72 72 94 91q30 26 44 26q10 0 14 -4q32 0 72 20q-5 7 -9.5 15t-4.5 15q0 10 10 20
q23 26 74 26q19 0 34 -4t24 -14q8 -6 17 -18.5t9 -21.5q0 -4 -4 -12q-13 -13 -50.5 -29t-56 -19l-33.5 -5.5t-26 -2.5q-12 0 -24 3.5t-16 4.5zM741 870h4q22 0 55 -26t45 -26q18 0 31 28.5t21 31.5h6q7 0 13.5 -5.5t6.5 -12.5q0 -30 -17 -62q-20 -38 -47 -38l-2 2
q-19 0 -42 15q-50 33 -60 33q-18 0 -35 -29q-11 -18 -21 -23.5t-14 -5.5q-22 0 -22 22q0 30 26 63t52 33z" />
    <glyph glyph-name="cent" unicode="&#x1eee;" horiz-adv-x="888" 
d="M918 614q12 -18 12 -38v-6q0 -16 -61 -102l-129 -182q-39 -55 -63 -101q-27 -52 -27 -77q0 -17 10.5 -28.5t27.5 -11.5q33 0 104 52q30 22 96 78q6 -27 6 -34q0 -25 -109 -102q-116 -82 -175 -82q-34 0 -56 22t-22 58q0 37 16 77q7 18 36 71l82 138l-2 2
q-364 -352 -422 -352q-49 9 -72.5 35.5t-23.5 68.5q0 41 48 110q19 27 78 98q186 217 186 218q0 10 -10 10q-4 0 -13.5 -3.5t-16.5 -6.5q-66 -28 -86 -37.5l-156 -76.5q-25 -12 -49 -20q-34 -12 -53 -12q-13 0 -20.5 4t-7.5 14l2 4q13 77 79 148q81 87 201 106q17 2 107 23
q74 17 107 17q30 0 45 -23.5t15 -56.5q0 -9 -1 -18t-3 -20q-7 -23 -21 -46q-4 -6 -57 -74q-45 -48 -128 -150q-102 -126 -102 -148q0 -18 20 -18q26 0 133 89q84 70 133 119l174 173q72 72 94 91q30 26 44 26q10 0 14 -4q32 0 72 20q-5 7 -9.5 15t-4.5 15q0 10 10 20
q23 26 74 26q19 0 34 -4t24 -14q8 -6 17 -18.5t9 -21.5q0 -4 -4 -12q-13 -13 -50.5 -29t-56 -19l-33.5 -5.5t-26 -2.5q-12 0 -24 3.5t-16 4.5zM741 870h4q22 0 55 -26t45 -26q18 0 31 28.5t21 31.5h6q7 0 13.5 -5.5t6.5 -12.5q0 -30 -17 -62q-20 -38 -47 -38l-2 2
q-19 0 -42 15q-50 33 -60 33q-18 0 -35 -29q-11 -18 -21 -23.5t-14 -5.5q-22 0 -22 22q0 30 26 63t52 33z" />
    <glyph glyph-name="uni1EF0" unicode="&#x1ef0;" horiz-adv-x="888" 
d="M918 614q12 -18 12 -38v-6q0 -16 -61 -102l-129 -182q-39 -55 -63 -101q-27 -52 -27 -77q0 -17 10.5 -28.5t27.5 -11.5q33 0 104 52q30 22 96 78q6 -27 6 -34q0 -25 -109 -102q-116 -82 -175 -82q-34 0 -56 22t-22 58q0 37 16 77q7 18 36 71l82 138l-2 2
q-364 -352 -422 -352q-49 9 -72.5 35.5t-23.5 68.5q0 41 48 110q19 27 78 98q186 217 186 218q0 10 -10 10q-4 0 -13.5 -3.5t-16.5 -6.5q-66 -28 -86 -37.5l-156 -76.5q-25 -12 -49 -20q-34 -12 -53 -12q-13 0 -20.5 4t-7.5 14l2 4q13 77 79 148q81 87 201 106q17 2 107 23
q74 17 107 17q30 0 45 -23.5t15 -56.5q0 -9 -1 -18t-3 -20q-7 -23 -21 -46q-4 -6 -57 -74q-45 -48 -128 -150q-102 -126 -102 -148q0 -18 20 -18q26 0 133 89q84 70 133 119l174 173q72 72 94 91q30 26 44 26q10 0 14 -4q32 0 72 20q-5 7 -9.5 15t-4.5 15q0 10 10 20
q23 26 74 26q19 0 34 -4t24 -14q8 -6 17 -18.5t9 -21.5q0 -4 -4 -12q-13 -13 -50.5 -29t-56 -19l-33.5 -5.5t-26 -2.5q-12 0 -24 3.5t-16 4.5zM287 -188q9 66 54 78q12 4 24 4q16 0 28 -8t12 -22l-2 -12q-8 -35 -37 -60q-25 -22 -49 -22q-14 0 -22 7.5t-8 24.5v10z" />
    <glyph glyph-name="uni1EF0" unicode="&#x201e;" horiz-adv-x="888" 
d="M918 614q12 -18 12 -38v-6q0 -16 -61 -102l-129 -182q-39 -55 -63 -101q-27 -52 -27 -77q0 -17 10.5 -28.5t27.5 -11.5q33 0 104 52q30 22 96 78q6 -27 6 -34q0 -25 -109 -102q-116 -82 -175 -82q-34 0 -56 22t-22 58q0 37 16 77q7 18 36 71l82 138l-2 2
q-364 -352 -422 -352q-49 9 -72.5 35.5t-23.5 68.5q0 41 48 110q19 27 78 98q186 217 186 218q0 10 -10 10q-4 0 -13.5 -3.5t-16.5 -6.5q-66 -28 -86 -37.5l-156 -76.5q-25 -12 -49 -20q-34 -12 -53 -12q-13 0 -20.5 4t-7.5 14l2 4q13 77 79 148q81 87 201 106q17 2 107 23
q74 17 107 17q30 0 45 -23.5t15 -56.5q0 -9 -1 -18t-3 -20q-7 -23 -21 -46q-4 -6 -57 -74q-45 -48 -128 -150q-102 -126 -102 -148q0 -18 20 -18q26 0 133 89q84 70 133 119l174 173q72 72 94 91q30 26 44 26q10 0 14 -4q32 0 72 20q-5 7 -9.5 15t-4.5 15q0 10 10 20
q23 26 74 26q19 0 34 -4t24 -14q8 -6 17 -18.5t9 -21.5q0 -4 -4 -12q-13 -13 -50.5 -29t-56 -19l-33.5 -5.5t-26 -2.5q-12 0 -24 3.5t-16 4.5zM287 -188q9 66 54 78q12 4 24 4q16 0 28 -8t12 -22l-2 -12q-8 -35 -37 -60q-25 -22 -49 -22q-14 0 -22 7.5t-8 24.5v10z" />
    <glyph glyph-name="Yacute" unicode="&#xdd;" horiz-adv-x="748" 
d="M598 332l-264 -228q-37 -32 -64 -51q-47 -33 -72 -33q-24 0 -48 18t-24 40l2 8q7 38 20 62q38 70 158 212q132 163 132 180q0 12 -12 12q-104 -51 -188 -97l-140 -77q-16 -12 -32 -12q-15 0 -18 8l-2 6q0 6 3 16.5l5 17.5l16 54q7 26 22 43q11 12 40 31q79 48 185 94
q134 58 197 58q29 0 49.5 -14t20.5 -42q0 -29 -41 -89q-20 -28 -65 -83l-146 -187q-48 -61 -48 -77t16 -16q18 0 36 18q13 11 91 73q42 33 261 233l34 30q14 10 22 10q18 0 33 -21t15 -39q0 -15 -20 -45l-168 -231l-104 -151q-22 -35 -22 -47q0 -6 8 -6l2 -2q3 0 44 25
t88 49q25 13 42.5 18.5t31.5 5.5q22 0 22 -12q0 -11 -25 -34q-18 -17 -35 -28q-75 -58 -124 -100q-81 -68 -112 -106q-37 -40 -53 -52q-22 -16 -39 -16q-20 0 -32 14t-12 36q0 46 66 160q52 90 136 209q61 86 114 153zM843 796l-26 -28q-22 -22 -32 -22l-2 2q-2 0 -10 -3
t-12 -3q-2 0 -4.5 2t-5.5 4l-4 6v4l82 124q5 7 6 9q5 8 14 9h50q12 0 12 -14q0 -17 -31 -53q-25 -29 -37 -37z" />
    <glyph glyph-name="brokenbar" unicode="&#xa6;" horiz-adv-x="748" 
d="M598 332l-264 -228q-37 -32 -64 -51q-47 -33 -72 -33q-24 0 -48 18t-24 40l2 8q7 38 20 62q38 70 158 212q132 163 132 180q0 12 -12 12q-104 -51 -188 -97l-140 -77q-16 -12 -32 -12q-15 0 -18 8l-2 6q0 6 3 16.5l5 17.5l16 54q7 26 22 43q11 12 40 31q79 48 185 94
q134 58 197 58q29 0 49.5 -14t20.5 -42q0 -29 -41 -89q-20 -28 -65 -83l-146 -187q-48 -61 -48 -77t16 -16q18 0 36 18q13 11 91 73q42 33 261 233l34 30q14 10 22 10q18 0 33 -21t15 -39q0 -15 -20 -45l-168 -231l-104 -151q-22 -35 -22 -47q0 -6 8 -6l2 -2q3 0 44 25
t88 49q25 13 42.5 18.5t31.5 5.5q22 0 22 -12q0 -11 -25 -34q-18 -17 -35 -28q-75 -58 -124 -100q-81 -68 -112 -106q-37 -40 -53 -52q-22 -16 -39 -16q-20 0 -32 14t-12 36q0 46 66 160q52 90 136 209q61 86 114 153zM760 744q-9 -1 -32 20l-28 28q-11 8 -36 36
q-32 37 -32 54q0 14 12 14h50q8 -1 12.5 -7.5l7.5 -10.5l40 -61q36 -53 42 -63v-4l-4 -6q-6 -6 -8 -6q-3 0 -12 3t-12 3z" />
    <glyph glyph-name="brokenbar" unicode="&#x1ef2;" horiz-adv-x="748" 
d="M598 332l-264 -228q-37 -32 -64 -51q-47 -33 -72 -33q-24 0 -48 18t-24 40l2 8q7 38 20 62q38 70 158 212q132 163 132 180q0 12 -12 12q-104 -51 -188 -97l-140 -77q-16 -12 -32 -12q-15 0 -18 8l-2 6q0 6 3 16.5l5 17.5l16 54q7 26 22 43q11 12 40 31q79 48 185 94
q134 58 197 58q29 0 49.5 -14t20.5 -42q0 -29 -41 -89q-20 -28 -65 -83l-146 -187q-48 -61 -48 -77t16 -16q18 0 36 18q13 11 91 73q42 33 261 233l34 30q14 10 22 10q18 0 33 -21t15 -39q0 -15 -20 -45l-168 -231l-104 -151q-22 -35 -22 -47q0 -6 8 -6l2 -2q3 0 44 25
t88 49q25 13 42.5 18.5t31.5 5.5q22 0 22 -12q0 -11 -25 -34q-18 -17 -35 -28q-75 -58 -124 -100q-81 -68 -112 -106q-37 -40 -53 -52q-22 -16 -39 -16q-20 0 -32 14t-12 36q0 46 66 160q52 90 136 209q61 86 114 153zM760 744q-9 -1 -32 20l-28 28q-11 8 -36 36
q-32 37 -32 54q0 14 12 14h50q8 -1 12.5 -7.5l7.5 -10.5l40 -61q36 -53 42 -63v-4l-4 -6q-6 -6 -8 -6q-3 0 -12 3t-12 3z" />
    <glyph glyph-name="Zcaron" unicode="&#x17d;" horiz-adv-x="748" 
d="M598 332l-264 -228q-37 -32 -64 -51q-47 -33 -72 -33q-24 0 -48 18t-24 40l2 8q7 38 20 62q38 70 158 212q132 163 132 180q0 12 -12 12q-104 -51 -188 -97l-140 -77q-16 -12 -32 -12q-15 0 -18 8l-2 6q0 6 3 16.5l5 17.5l16 54q7 26 22 43q11 12 40 31q79 48 185 94
q134 58 197 58q29 0 49.5 -14t20.5 -42q0 -29 -41 -89q-20 -28 -65 -83l-146 -187q-48 -61 -48 -77t16 -16q18 0 36 18q13 11 91 73q42 33 261 233l34 30q14 10 22 10q18 0 33 -21t15 -39q0 -15 -20 -45l-168 -231l-104 -151q-22 -35 -22 -47q0 -6 8 -6l2 -2q3 0 44 25
t88 49q25 13 42.5 18.5t31.5 5.5q22 0 22 -12q0 -11 -25 -34q-18 -17 -35 -28q-75 -58 -124 -100q-81 -68 -112 -106q-37 -40 -53 -52q-22 -16 -39 -16q-20 0 -32 14t-12 36q0 46 66 160q52 90 136 209q61 86 114 153zM810 910q-25 0 -45 -14q-15 -11 -25 -28q16 -5 23 -9
t7 -7t-4.5 -7.5t-9.5 -4.5l-22 -4l-22 4q-18 3 -18 20q0 6 5 16t11 16q12 15 45 29.5t55 14.5q34 0 67 -17.5t33 -40.5q0 -21 -12 -39q-6 -9 -30 -33l-74 -52l-14.5 -10t-7.5 -12l6 -20q0 -10 -18 -10q-13 0 -22.5 12.5t-9.5 21.5q0 24 28 46l80 58q10 6 18 18.5t8 23.5
q0 12 -17 20t-35 8z" />
    <glyph glyph-name="Zcaron" unicode="&#x1ef6;" horiz-adv-x="748" 
d="M598 332l-264 -228q-37 -32 -64 -51q-47 -33 -72 -33q-24 0 -48 18t-24 40l2 8q7 38 20 62q38 70 158 212q132 163 132 180q0 12 -12 12q-104 -51 -188 -97l-140 -77q-16 -12 -32 -12q-15 0 -18 8l-2 6q0 6 3 16.5l5 17.5l16 54q7 26 22 43q11 12 40 31q79 48 185 94
q134 58 197 58q29 0 49.5 -14t20.5 -42q0 -29 -41 -89q-20 -28 -65 -83l-146 -187q-48 -61 -48 -77t16 -16q18 0 36 18q13 11 91 73q42 33 261 233l34 30q14 10 22 10q18 0 33 -21t15 -39q0 -15 -20 -45l-168 -231l-104 -151q-22 -35 -22 -47q0 -6 8 -6l2 -2q3 0 44 25
t88 49q25 13 42.5 18.5t31.5 5.5q22 0 22 -12q0 -11 -25 -34q-18 -17 -35 -28q-75 -58 -124 -100q-81 -68 -112 -106q-37 -40 -53 -52q-22 -16 -39 -16q-20 0 -32 14t-12 36q0 46 66 160q52 90 136 209q61 86 114 153zM810 910q-25 0 -45 -14q-15 -11 -25 -28q16 -5 23 -9
t7 -7t-4.5 -7.5t-9.5 -4.5l-22 -4l-22 4q-18 3 -18 20q0 6 5 16t11 16q12 15 45 29.5t55 14.5q34 0 67 -17.5t33 -40.5q0 -21 -12 -39q-6 -9 -30 -33l-74 -52l-14.5 -10t-7.5 -12l6 -20q0 -10 -18 -10q-13 0 -22.5 12.5t-9.5 21.5q0 24 28 46l80 58q10 6 18 18.5t8 23.5
q0 12 -17 20t-35 8z" />
    <glyph glyph-name="uni00B3" unicode="&#xb3;" horiz-adv-x="748" 
d="M598 332l-264 -228q-37 -32 -64 -51q-47 -33 -72 -33q-24 0 -48 18t-24 40l2 8q7 38 20 62q38 70 158 212q132 163 132 180q0 12 -12 12q-104 -51 -188 -97l-140 -77q-16 -12 -32 -12q-15 0 -18 8l-2 6q0 6 3 16.5l5 17.5l16 54q7 26 22 43q11 12 40 31q79 48 185 94
q134 58 197 58q29 0 49.5 -14t20.5 -42q0 -29 -41 -89q-20 -28 -65 -83l-146 -187q-48 -61 -48 -77t16 -16q18 0 36 18q13 11 91 73q42 33 261 233l34 30q14 10 22 10q18 0 33 -21t15 -39q0 -15 -20 -45l-168 -231l-104 -151q-22 -35 -22 -47q0 -6 8 -6l2 -2q3 0 44 25
t88 49q25 13 42.5 18.5t31.5 5.5q22 0 22 -12q0 -11 -25 -34q-18 -17 -35 -28q-75 -58 -124 -100q-81 -68 -112 -106q-37 -40 -53 -52q-22 -16 -39 -16q-20 0 -32 14t-12 36q0 46 66 160q52 90 136 209q61 86 114 153zM741 870h4q22 0 55 -26t45 -26q18 0 31 28.5t21 31.5h6
q7 0 13.5 -5.5t6.5 -12.5q0 -30 -17 -62q-20 -38 -47 -38l-2 2q-19 0 -42 15q-50 33 -60 33q-18 0 -35 -29q-11 -18 -21 -23.5t-14 -5.5q-22 0 -22 22q0 30 26 63t52 33z" />
    <glyph glyph-name="uni00B3" unicode="&#x1ef8;" horiz-adv-x="748" 
d="M598 332l-264 -228q-37 -32 -64 -51q-47 -33 -72 -33q-24 0 -48 18t-24 40l2 8q7 38 20 62q38 70 158 212q132 163 132 180q0 12 -12 12q-104 -51 -188 -97l-140 -77q-16 -12 -32 -12q-15 0 -18 8l-2 6q0 6 3 16.5l5 17.5l16 54q7 26 22 43q11 12 40 31q79 48 185 94
q134 58 197 58q29 0 49.5 -14t20.5 -42q0 -29 -41 -89q-20 -28 -65 -83l-146 -187q-48 -61 -48 -77t16 -16q18 0 36 18q13 11 91 73q42 33 261 233l34 30q14 10 22 10q18 0 33 -21t15 -39q0 -15 -20 -45l-168 -231l-104 -151q-22 -35 -22 -47q0 -6 8 -6l2 -2q3 0 44 25
t88 49q25 13 42.5 18.5t31.5 5.5q22 0 22 -12q0 -11 -25 -34q-18 -17 -35 -28q-75 -58 -124 -100q-81 -68 -112 -106q-37 -40 -53 -52q-22 -16 -39 -16q-20 0 -32 14t-12 36q0 46 66 160q52 90 136 209q61 86 114 153zM741 870h4q22 0 55 -26t45 -26q18 0 31 28.5t21 31.5h6
q7 0 13.5 -5.5t6.5 -12.5q0 -30 -17 -62q-20 -38 -47 -38l-2 2q-19 0 -42 15q-50 33 -60 33q-18 0 -35 -29q-11 -18 -21 -23.5t-14 -5.5q-22 0 -22 22q0 30 26 63t52 33z" />
    <glyph glyph-name="uni00B5" unicode="&#xb5;" horiz-adv-x="748" 
d="M598 332l-264 -228q-37 -32 -64 -51q-47 -33 -72 -33q-24 0 -48 18t-24 40l2 8q7 38 20 62q38 70 158 212q132 163 132 180q0 12 -12 12q-104 -51 -188 -97l-140 -77q-16 -12 -32 -12q-15 0 -18 8l-2 6q0 6 3 16.5l5 17.5l16 54q7 26 22 43q11 12 40 31q79 48 185 94
q134 58 197 58q29 0 49.5 -14t20.5 -42q0 -29 -41 -89q-20 -28 -65 -83l-146 -187q-48 -61 -48 -77t16 -16q18 0 36 18q13 11 91 73q42 33 261 233l34 30q14 10 22 10q18 0 33 -21t15 -39q0 -15 -20 -45l-168 -231l-104 -151q-22 -35 -22 -47q0 -6 8 -6l2 -2q3 0 44 25
t88 49q25 13 42.5 18.5t31.5 5.5q22 0 22 -12q0 -11 -25 -34q-18 -17 -35 -28q-75 -58 -124 -100q-81 -68 -112 -106q-37 -40 -53 -52q-22 -16 -39 -16q-20 0 -32 14t-12 36q0 46 66 160q52 90 136 209q61 86 114 153zM104 -188q9 66 54 78q12 4 24 4q16 0 28 -8t12 -22
l-2 -12q-8 -35 -37 -60q-25 -22 -49 -22q-14 0 -22 7.5t-8 24.5v10z" />
    <glyph glyph-name="uni00B5" unicode="&#x1ef4;" horiz-adv-x="748" 
d="M598 332l-264 -228q-37 -32 -64 -51q-47 -33 -72 -33q-24 0 -48 18t-24 40l2 8q7 38 20 62q38 70 158 212q132 163 132 180q0 12 -12 12q-104 -51 -188 -97l-140 -77q-16 -12 -32 -12q-15 0 -18 8l-2 6q0 6 3 16.5l5 17.5l16 54q7 26 22 43q11 12 40 31q79 48 185 94
q134 58 197 58q29 0 49.5 -14t20.5 -42q0 -29 -41 -89q-20 -28 -65 -83l-146 -187q-48 -61 -48 -77t16 -16q18 0 36 18q13 11 91 73q42 33 261 233l34 30q14 10 22 10q18 0 33 -21t15 -39q0 -15 -20 -45l-168 -231l-104 -151q-22 -35 -22 -47q0 -6 8 -6l2 -2q3 0 44 25
t88 49q25 13 42.5 18.5t31.5 5.5q22 0 22 -12q0 -11 -25 -34q-18 -17 -35 -28q-75 -58 -124 -100q-81 -68 -112 -106q-37 -40 -53 -52q-22 -16 -39 -16q-20 0 -32 14t-12 36q0 46 66 160q52 90 136 209q61 86 114 153zM104 -188q9 66 54 78q12 4 24 4q16 0 28 -8t12 -22
l-2 -12q-8 -35 -37 -60q-25 -22 -49 -22q-14 0 -22 7.5t-8 24.5v10z" />
    <glyph glyph-name="Eth" unicode="&#xd0;" horiz-adv-x="802" 
d="M304 292l-78 -104q-15 -18 -18 -25q-6 -12 -6 -29q0 -15 14.5 -23.5t45.5 -8.5q51 0 113 12t117 32q148 52 220 128q62 65 62 140q0 83 -113 116q-69 20 -181 20q-6 -24 -8 -30q-7 -22 -26 -44l-98 -128l54 2q45 0 62.5 -6.5t17.5 -23.5q0 -26 -34 -26q-25 0 -74.5 -1
t-69.5 -1zM264 348l160 198q-52 0 -105 -12t-111 -34l28 -2q19 0 36.5 -2t17.5 -10t-12 -13q-4 -2 -20 -5l-166 -38q-38 0 -38 34q0 13 4.5 32.5l11 46.5t31.5 50q19 18 63 37q70 31 164.5 50.5t175.5 19.5q64 0 129 -12.5t109 -39.5q53 -35 81 -97q25 -56 25 -125
q0 -100 -74 -191q-62 -76 -164 -133q-81 -46 -201 -80t-211 -34q-33 0 -52.5 2t-33 9.5t-19 22.5t-5.5 32q0 49 32 104q12 20 64 90l30 36l-2 2q-21 0 -48.5 -6l-55.5 -12q-6 0 -6 10q0 11 10.5 32t27.5 24q32 6 64 10t60 4z" />
    <glyph glyph-name="Eth" unicode="&#x110;" horiz-adv-x="802" 
d="M304 292l-78 -104q-15 -18 -18 -25q-6 -12 -6 -29q0 -15 14.5 -23.5t45.5 -8.5q51 0 113 12t117 32q148 52 220 128q62 65 62 140q0 83 -113 116q-69 20 -181 20q-6 -24 -8 -30q-7 -22 -26 -44l-98 -128l54 2q45 0 62.5 -6.5t17.5 -23.5q0 -26 -34 -26q-25 0 -74.5 -1
t-69.5 -1zM264 348l160 198q-52 0 -105 -12t-111 -34l28 -2q19 0 36.5 -2t17.5 -10t-12 -13q-4 -2 -20 -5l-166 -38q-38 0 -38 34q0 13 4.5 32.5l11 46.5t31.5 50q19 18 63 37q70 31 164.5 50.5t175.5 19.5q64 0 129 -12.5t109 -39.5q53 -35 81 -97q25 -56 25 -125
q0 -100 -74 -191q-62 -76 -164 -133q-81 -46 -201 -80t-211 -34q-33 0 -52.5 2t-33 9.5t-19 22.5t-5.5 32q0 49 32 104q12 20 64 90l30 36l-2 2q-21 0 -48.5 -6l-55.5 -12q-6 0 -6 10q0 11 10.5 32t27.5 24q32 6 64 10t60 4z" />
    <glyph glyph-name="aacute" unicode="&#xe1;" horiz-adv-x="498" 
d="M310 278q-160 -50 -223 -101q-45 -37 -45 -83q2 -8 3 -11q5 -11 13 -11l4 2q34 7 88 51q66 54 162 151zM256 142l-92 -74l-52 -38q-40 -28 -54 -28q-23 0 -55 39q-35 42 -35 79q0 86 144 174q134 82 230 82q30 0 49 -19q15 -15 15 -29q0 -8 -15 -16t-19 -10
q15 -7 21.5 -15t6.5 -25q0 -14 -43 -69t-43 -81q0 -24 30 -24t89 42l53 38l8 -36q-35 -42 -110 -97q-83 -61 -116 -61q-24 0 -36 15t-12 39q0 27 19 73q7 16 19 39zM388 482l-26 -28q-22 -22 -32 -22l-2 2q-2 0 -10 -3t-12 -3q-2 0 -4.5 2t-5.5 4l-4 6v4l82 124q5 7 6 9
q5 8 14 9h50q14 0 14 -14q0 -17 -32 -53q-26 -29 -38 -37z" />
    <glyph glyph-name="agrave" unicode="&#xe0;" horiz-adv-x="498" 
d="M310 278q-160 -50 -223 -101q-45 -37 -45 -83q2 -8 3 -11q5 -11 13 -11l4 2q34 7 88 51q66 54 162 151zM256 142l-92 -74l-52 -38q-40 -28 -54 -28q-23 0 -55 39q-35 42 -35 79q0 86 144 174q134 82 230 82q30 0 49 -19q15 -15 15 -29q0 -8 -15 -16t-19 -10
q15 -7 21.5 -15t6.5 -25q0 -14 -43 -69t-43 -81q0 -24 30 -24t89 42l53 38l8 -36q-35 -42 -110 -97q-83 -61 -116 -61q-24 0 -36 15t-12 39q0 27 19 73q7 16 19 39zM367 435q-9 -1 -32 20l-28 28q-11 8 -36 36q-32 37 -32 54q0 14 12 14h50q8 -1 12.5 -7.5l7.5 -10.5l40 -61
q36 -53 42 -63l2 -4l-6 -6q-6 -6 -8 -6q-3 0 -12 3t-12 3z" />
    <glyph glyph-name="oslash" unicode="&#xf8;" horiz-adv-x="498" 
d="M310 278q-160 -50 -223 -101q-45 -37 -45 -83q2 -8 3 -11q5 -11 13 -11l4 2q34 7 88 51q66 54 162 151zM256 142l-92 -74l-52 -38q-40 -28 -54 -28q-23 0 -55 39q-35 42 -35 79q0 86 144 174q134 82 230 82q30 0 49 -19q15 -15 15 -29q0 -8 -15 -16t-19 -10
q15 -7 21.5 -15t6.5 -25q0 -14 -43 -69t-43 -81q0 -24 30 -24t89 42l53 38l8 -36q-35 -42 -110 -97q-83 -61 -116 -61q-24 0 -36 15t-12 39q0 27 19 73q7 16 19 39zM381 600q-25 0 -45 -14q-15 -11 -25 -28q16 -5 23 -9t7 -7t-4.5 -7.5t-9.5 -4.5l-22 -4l-22 4q-18 3 -18 20
q0 6 5 16t11 16q12 15 45 29.5t55 14.5q34 0 67 -17.5t33 -40.5q0 -21 -12 -39q-6 -9 -30 -33l-74 -52l-14.5 -10t-7.5 -12l6 -20q0 -10 -18 -10q-13 0 -22.5 12.5t-9.5 21.5q0 24 28 46l80 58q10 6 18 18.5t8 23.5q0 12 -17 20t-35 8z" />
    <glyph glyph-name="oslash" unicode="&#x1ea3;" horiz-adv-x="498" 
d="M310 278q-160 -50 -223 -101q-45 -37 -45 -83q2 -8 3 -11q5 -11 13 -11l4 2q34 7 88 51q66 54 162 151zM256 142l-92 -74l-52 -38q-40 -28 -54 -28q-23 0 -55 39q-35 42 -35 79q0 86 144 174q134 82 230 82q30 0 49 -19q15 -15 15 -29q0 -8 -15 -16t-19 -10
q15 -7 21.5 -15t6.5 -25q0 -14 -43 -69t-43 -81q0 -24 30 -24t89 42l53 38l8 -36q-35 -42 -110 -97q-83 -61 -116 -61q-24 0 -36 15t-12 39q0 27 19 73q7 16 19 39zM381 600q-25 0 -45 -14q-15 -11 -25 -28q16 -5 23 -9t7 -7t-4.5 -7.5t-9.5 -4.5l-22 -4l-22 4q-18 3 -18 20
q0 6 5 16t11 16q12 15 45 29.5t55 14.5q34 0 67 -17.5t33 -40.5q0 -21 -12 -39q-6 -9 -30 -33l-74 -52l-14.5 -10t-7.5 -12l6 -20q0 -10 -18 -10q-13 0 -22.5 12.5t-9.5 21.5q0 24 28 46l80 58q10 6 18 18.5t8 23.5q0 12 -17 20t-35 8z" />
    <glyph glyph-name="atilde" unicode="&#xe3;" horiz-adv-x="498" 
d="M310 278q-160 -50 -223 -101q-45 -37 -45 -83q2 -8 3 -11q5 -11 13 -11l4 2q34 7 88 51q66 54 162 151zM256 142l-92 -74l-52 -38q-40 -28 -54 -28q-23 0 -55 39q-35 42 -35 79q0 86 144 174q134 82 230 82q30 0 49 -19q15 -15 15 -29q0 -8 -15 -16t-19 -10
q15 -7 21.5 -15t6.5 -25q0 -14 -43 -69t-43 -81q0 -24 30 -24t89 42l53 38l8 -36q-35 -42 -110 -97q-83 -61 -116 -61q-24 0 -36 15t-12 39q0 27 19 73q7 16 19 39zM305 568h4q22 0 55 -26t45 -26q18 0 31 28.5t21 31.5h10q18 0 18 -18l-2 -2q0 -29 -17 -61q-20 -37 -47 -37
l-2 2q-19 0 -42 15q-50 33 -60 33q-18 0 -35 -29q-11 -18 -21 -23.5t-14 -5.5q-22 0 -22 22q0 30 26 63t52 33z" />
    <glyph glyph-name="idieresis" unicode="&#xef;" horiz-adv-x="498" 
d="M310 278q-160 -50 -223 -101q-45 -37 -45 -83q2 -8 3 -11q5 -11 13 -11l4 2q34 7 88 51q66 54 162 151zM256 142l-92 -74l-52 -38q-40 -28 -54 -28q-23 0 -55 39q-35 42 -35 79q0 86 144 174q134 82 230 82q30 0 49 -19q15 -15 15 -29q0 -8 -15 -16t-19 -10
q15 -7 21.5 -15t6.5 -25q0 -14 -43 -69t-43 -81q0 -24 30 -24t89 42l53 38l8 -36q-35 -42 -110 -97q-83 -61 -116 -61q-24 0 -36 15t-12 39q0 27 19 73q7 16 19 39zM92 -181q-17 0 -36 9.5t-19 24.5q0 16 14 38q18 29 43 29l7 -2q19 -1 32.5 -7t13.5 -20l-2 -4
q-3 -22 -15 -41q-17 -27 -38 -27z" />
    <glyph glyph-name="idieresis" unicode="&#x1ea1;" horiz-adv-x="498" 
d="M310 278q-160 -50 -223 -101q-45 -37 -45 -83q2 -8 3 -11q5 -11 13 -11l4 2q34 7 88 51q66 54 162 151zM256 142l-92 -74l-52 -38q-40 -28 -54 -28q-23 0 -55 39q-35 42 -35 79q0 86 144 174q134 82 230 82q30 0 49 -19q15 -15 15 -29q0 -8 -15 -16t-19 -10
q15 -7 21.5 -15t6.5 -25q0 -14 -43 -69t-43 -81q0 -24 30 -24t89 42l53 38l8 -36q-35 -42 -110 -97q-83 -61 -116 -61q-24 0 -36 15t-12 39q0 27 19 73q7 16 19 39zM92 -181q-17 0 -36 9.5t-19 24.5q0 16 14 38q18 29 43 29l7 -2q19 -1 32.5 -7t13.5 -20l-2 -4
q-3 -22 -15 -41q-17 -27 -38 -27z" />
    <glyph glyph-name="edieresis" unicode="&#xeb;" horiz-adv-x="498" 
d="M310 278q-160 -50 -223 -101q-45 -37 -45 -83q2 -8 3 -11q5 -11 13 -11l4 2q34 7 88 51q66 54 162 151zM256 142l-92 -74l-52 -38q-40 -28 -54 -28q-23 0 -55 39q-35 42 -35 79q0 86 144 174q134 82 230 82q30 0 49 -19q15 -15 15 -29q0 -8 -15 -16t-19 -10
q15 -7 21.5 -15t6.5 -25q0 -14 -43 -69t-43 -81q0 -24 30 -24t89 42l53 38l8 -36q-35 -42 -110 -97q-83 -61 -116 -61q-24 0 -36 15t-12 39q0 27 19 73q7 16 19 39zM507 514q-25 -35 -61.5 -59.5t-76.5 -24.5q-36 0 -72 25.5t-40 60.5q0 14 3.5 22.5t16.5 11.5h10
q13 0 23.5 -8.5t14.5 -19.5q9 -19 23.5 -28.5t30.5 -9.5q22 0 46.5 16t37.5 36q9 12 30 12q22 0 22 -16q0 -6 -8 -18z" />
    <glyph glyph-name="edieresis" unicode="&#x103;" horiz-adv-x="498" 
d="M310 278q-160 -50 -223 -101q-45 -37 -45 -83q2 -8 3 -11q5 -11 13 -11l4 2q34 7 88 51q66 54 162 151zM256 142l-92 -74l-52 -38q-40 -28 -54 -28q-23 0 -55 39q-35 42 -35 79q0 86 144 174q134 82 230 82q30 0 49 -19q15 -15 15 -29q0 -8 -15 -16t-19 -10
q15 -7 21.5 -15t6.5 -25q0 -14 -43 -69t-43 -81q0 -24 30 -24t89 42l53 38l8 -36q-35 -42 -110 -97q-83 -61 -116 -61q-24 0 -36 15t-12 39q0 27 19 73q7 16 19 39zM507 514q-25 -35 -61.5 -59.5t-76.5 -24.5q-36 0 -72 25.5t-40 60.5q0 14 3.5 22.5t16.5 11.5h10
q13 0 23.5 -8.5t14.5 -19.5q9 -19 23.5 -28.5t30.5 -9.5q22 0 46.5 16t37.5 36q9 12 30 12q22 0 22 -16q0 -6 -8 -18z" />
    <glyph glyph-name="ydieresis" unicode="&#xff;" horiz-adv-x="498" 
d="M310 278q-160 -50 -223 -101q-45 -37 -45 -83q2 -8 3 -11q5 -11 13 -11l4 2q34 7 88 51q66 54 162 151zM256 142l-92 -74l-52 -38q-40 -28 -54 -28q-23 0 -55 39q-35 42 -35 79q0 86 144 174q134 82 230 82q30 0 49 -19q15 -15 15 -29q0 -8 -15 -16t-19 -10
q15 -7 21.5 -15t6.5 -25q0 -14 -43 -69t-43 -81q0 -24 30 -24t89 42l53 38l8 -36q-35 -42 -110 -97q-83 -61 -116 -61q-24 0 -36 15t-12 39q0 27 19 73q7 16 19 39zM507 514q-25 -35 -61.5 -59.5t-76.5 -24.5q-36 0 -72 25.5t-40 60.5q0 14 3.5 22.5t16.5 11.5h10
q13 0 23.5 -8.5t14.5 -19.5q9 -19 23.5 -28.5t30.5 -9.5q22 0 46.5 16t37.5 36q9 12 30 12q22 0 22 -16q0 -6 -8 -18zM456 585l-26 -28q-22 -22 -32 -22l-2 2q-2 0 -10 -3t-12 -3q-2 0 -4.5 2t-5.5 4l-4 6v4l82 124q5 7 6 9q5 8 14 9h50q14 0 14 -14q0 -17 -32 -53
q-26 -29 -38 -37z" />
    <glyph glyph-name="ydieresis" unicode="&#x1eaf;" horiz-adv-x="498" 
d="M310 278q-160 -50 -223 -101q-45 -37 -45 -83q2 -8 3 -11q5 -11 13 -11l4 2q34 7 88 51q66 54 162 151zM256 142l-92 -74l-52 -38q-40 -28 -54 -28q-23 0 -55 39q-35 42 -35 79q0 86 144 174q134 82 230 82q30 0 49 -19q15 -15 15 -29q0 -8 -15 -16t-19 -10
q15 -7 21.5 -15t6.5 -25q0 -14 -43 -69t-43 -81q0 -24 30 -24t89 42l53 38l8 -36q-35 -42 -110 -97q-83 -61 -116 -61q-24 0 -36 15t-12 39q0 27 19 73q7 16 19 39zM507 514q-25 -35 -61.5 -59.5t-76.5 -24.5q-36 0 -72 25.5t-40 60.5q0 14 3.5 22.5t16.5 11.5h10
q13 0 23.5 -8.5t14.5 -19.5q9 -19 23.5 -28.5t30.5 -9.5q22 0 46.5 16t37.5 36q9 12 30 12q22 0 22 -16q0 -6 -8 -18zM456 585l-26 -28q-22 -22 -32 -22l-2 2q-2 0 -10 -3t-12 -3q-2 0 -4.5 2t-5.5 4l-4 6v4l82 124q5 7 6 9q5 8 14 9h50q14 0 14 -14q0 -17 -32 -53
q-26 -29 -38 -37z" />
    <glyph glyph-name="cedilla" unicode="&#xb8;" horiz-adv-x="498" 
d="M310 278q-160 -50 -223 -101q-45 -37 -45 -83q2 -8 3 -11q5 -11 13 -11l4 2q34 7 88 51q66 54 162 151zM256 142l-92 -74l-52 -38q-40 -28 -54 -28q-23 0 -55 39q-35 42 -35 79q0 86 144 174q134 82 230 82q30 0 49 -19q15 -15 15 -29q0 -8 -15 -16t-19 -10
q15 -7 21.5 -15t6.5 -25q0 -14 -43 -69t-43 -81q0 -24 30 -24t89 42l53 38l8 -36q-35 -42 -110 -97q-83 -61 -116 -61q-24 0 -36 15t-12 39q0 27 19 73q7 16 19 39zM507 514q-25 -35 -61.5 -59.5t-76.5 -24.5q-36 0 -72 25.5t-40 60.5q0 14 3.5 22.5t16.5 11.5h10
q13 0 23.5 -8.5t14.5 -19.5q9 -19 23.5 -28.5t30.5 -9.5q22 0 46.5 16t37.5 36q9 12 30 12q22 0 22 -16q0 -6 -8 -18zM390 536q-9 -1 -32 20l-28 28q-11 8 -36 36q-32 37 -32 54q0 14 12 14h50q8 -1 12.5 -7.5l7.5 -10.5l40 -61q36 -53 42 -63l2 -4l-6 -6q-6 -6 -8 -6
q-3 0 -12 3t-12 3z" />
    <glyph glyph-name="cedilla" unicode="&#x1eb1;" horiz-adv-x="498" 
d="M310 278q-160 -50 -223 -101q-45 -37 -45 -83q2 -8 3 -11q5 -11 13 -11l4 2q34 7 88 51q66 54 162 151zM256 142l-92 -74l-52 -38q-40 -28 -54 -28q-23 0 -55 39q-35 42 -35 79q0 86 144 174q134 82 230 82q30 0 49 -19q15 -15 15 -29q0 -8 -15 -16t-19 -10
q15 -7 21.5 -15t6.5 -25q0 -14 -43 -69t-43 -81q0 -24 30 -24t89 42l53 38l8 -36q-35 -42 -110 -97q-83 -61 -116 -61q-24 0 -36 15t-12 39q0 27 19 73q7 16 19 39zM507 514q-25 -35 -61.5 -59.5t-76.5 -24.5q-36 0 -72 25.5t-40 60.5q0 14 3.5 22.5t16.5 11.5h10
q13 0 23.5 -8.5t14.5 -19.5q9 -19 23.5 -28.5t30.5 -9.5q22 0 46.5 16t37.5 36q9 12 30 12q22 0 22 -16q0 -6 -8 -18zM390 536q-9 -1 -32 20l-28 28q-11 8 -36 36q-32 37 -32 54q0 14 12 14h50q8 -1 12.5 -7.5l7.5 -10.5l40 -61q36 -53 42 -63l2 -4l-6 -6q-6 -6 -8 -6
q-3 0 -12 3t-12 3z" />
    <glyph glyph-name="divide" unicode="&#xf7;" horiz-adv-x="498" 
d="M310 278q-160 -50 -223 -101q-45 -37 -45 -83q2 -8 3 -11q5 -11 13 -11l4 2q34 7 88 51q66 54 162 151zM256 142l-92 -74l-52 -38q-40 -28 -54 -28q-23 0 -55 39q-35 42 -35 79q0 86 144 174q134 82 230 82q30 0 49 -19q15 -15 15 -29q0 -8 -15 -16t-19 -10
q15 -7 21.5 -15t6.5 -25q0 -14 -43 -69t-43 -81q0 -24 30 -24t89 42l53 38l8 -36q-35 -42 -110 -97q-83 -61 -116 -61q-24 0 -36 15t-12 39q0 27 19 73q7 16 19 39zM507 514q-25 -35 -61.5 -59.5t-76.5 -24.5q-36 0 -72 25.5t-40 60.5q0 14 3.5 22.5t16.5 11.5h10
q13 0 23.5 -8.5t14.5 -19.5q9 -19 23.5 -28.5t30.5 -9.5q22 0 46.5 16t37.5 36q9 12 30 12q22 0 22 -16q0 -6 -8 -18zM438 723q-25 0 -45 -14q-15 -11 -25 -28q16 -5 23 -9t7 -7t-4.5 -7.5t-9.5 -4.5l-22 -4l-22 4q-18 3 -18 20q0 6 5 16t11 16q12 15 45 29.5t55 14.5
q34 0 67 -17.5t33 -40.5q0 -21 -12 -39q-6 -9 -30 -33l-74 -52l-14.5 -10t-7.5 -12l6 -20q0 -10 -18 -10q-13 0 -22.5 12.5t-9.5 21.5q0 24 28 46l80 58q10 6 18 18.5t8 23.5q0 12 -17 20t-35 8z" />
    <glyph glyph-name="divide" unicode="&#x1eb3;" horiz-adv-x="498" 
d="M310 278q-160 -50 -223 -101q-45 -37 -45 -83q2 -8 3 -11q5 -11 13 -11l4 2q34 7 88 51q66 54 162 151zM256 142l-92 -74l-52 -38q-40 -28 -54 -28q-23 0 -55 39q-35 42 -35 79q0 86 144 174q134 82 230 82q30 0 49 -19q15 -15 15 -29q0 -8 -15 -16t-19 -10
q15 -7 21.5 -15t6.5 -25q0 -14 -43 -69t-43 -81q0 -24 30 -24t89 42l53 38l8 -36q-35 -42 -110 -97q-83 -61 -116 -61q-24 0 -36 15t-12 39q0 27 19 73q7 16 19 39zM507 514q-25 -35 -61.5 -59.5t-76.5 -24.5q-36 0 -72 25.5t-40 60.5q0 14 3.5 22.5t16.5 11.5h10
q13 0 23.5 -8.5t14.5 -19.5q9 -19 23.5 -28.5t30.5 -9.5q22 0 46.5 16t37.5 36q9 12 30 12q22 0 22 -16q0 -6 -8 -18zM438 723q-25 0 -45 -14q-15 -11 -25 -28q16 -5 23 -9t7 -7t-4.5 -7.5t-9.5 -4.5l-22 -4l-22 4q-18 3 -18 20q0 6 5 16t11 16q12 15 45 29.5t55 14.5
q34 0 67 -17.5t33 -40.5q0 -21 -12 -39q-6 -9 -30 -33l-74 -52l-14.5 -10t-7.5 -12l6 -20q0 -10 -18 -10q-13 0 -22.5 12.5t-9.5 21.5q0 24 28 46l80 58q10 6 18 18.5t8 23.5q0 12 -17 20t-35 8z" />
    <glyph glyph-name="udieresis" unicode="&#xfc;" horiz-adv-x="498" 
d="M310 278q-160 -50 -223 -101q-45 -37 -45 -83q2 -8 3 -11q5 -11 13 -11l4 2q34 7 88 51q66 54 162 151zM256 142l-92 -74l-52 -38q-40 -28 -54 -28q-23 0 -55 39q-35 42 -35 79q0 86 144 174q134 82 230 82q30 0 49 -19q15 -15 15 -29q0 -8 -15 -16t-19 -10
q15 -7 21.5 -15t6.5 -25q0 -14 -43 -69t-43 -81q0 -24 30 -24t89 42l53 38l8 -36q-35 -42 -110 -97q-83 -61 -116 -61q-24 0 -36 15t-12 39q0 27 19 73q7 16 19 39zM507 514q-25 -35 -61.5 -59.5t-76.5 -24.5q-36 0 -72 25.5t-40 60.5q0 14 3.5 22.5t16.5 11.5h10
q13 0 23.5 -8.5t14.5 -19.5q9 -19 23.5 -28.5t30.5 -9.5q22 0 46.5 16t37.5 36q9 12 30 12q22 0 22 -16q0 -6 -8 -18zM385 687h4q22 0 55 -26t45 -26q18 0 31 28.5t21 31.5h10q18 0 18 -18l-2 -2q0 -29 -17 -61q-20 -37 -47 -37l-2 2q-19 0 -42 15q-50 33 -60 33
q-18 0 -35 -29q-11 -18 -21 -23.5t-14 -5.5q-22 0 -22 22q0 30 26 63t52 33z" />
    <glyph glyph-name="udieresis" unicode="&#x1eb5;" horiz-adv-x="498" 
d="M310 278q-160 -50 -223 -101q-45 -37 -45 -83q2 -8 3 -11q5 -11 13 -11l4 2q34 7 88 51q66 54 162 151zM256 142l-92 -74l-52 -38q-40 -28 -54 -28q-23 0 -55 39q-35 42 -35 79q0 86 144 174q134 82 230 82q30 0 49 -19q15 -15 15 -29q0 -8 -15 -16t-19 -10
q15 -7 21.5 -15t6.5 -25q0 -14 -43 -69t-43 -81q0 -24 30 -24t89 42l53 38l8 -36q-35 -42 -110 -97q-83 -61 -116 -61q-24 0 -36 15t-12 39q0 27 19 73q7 16 19 39zM507 514q-25 -35 -61.5 -59.5t-76.5 -24.5q-36 0 -72 25.5t-40 60.5q0 14 3.5 22.5t16.5 11.5h10
q13 0 23.5 -8.5t14.5 -19.5q9 -19 23.5 -28.5t30.5 -9.5q22 0 46.5 16t37.5 36q9 12 30 12q22 0 22 -16q0 -6 -8 -18zM385 687h4q22 0 55 -26t45 -26q18 0 31 28.5t21 31.5h10q18 0 18 -18l-2 -2q0 -29 -17 -61q-20 -37 -47 -37l-2 2q-19 0 -42 15q-50 33 -60 33
q-18 0 -35 -29q-11 -18 -21 -23.5t-14 -5.5q-22 0 -22 22q0 30 26 63t52 33z" />
    <glyph glyph-name="grave" unicode="`" horiz-adv-x="498" 
d="M310 278q-160 -50 -223 -101q-45 -37 -45 -83q2 -8 3 -11q5 -11 13 -11l4 2q34 7 88 51q66 54 162 151zM256 142l-92 -74l-52 -38q-40 -28 -54 -28q-23 0 -55 39q-35 42 -35 79q0 86 144 174q134 82 230 82q30 0 49 -19q15 -15 15 -29q0 -8 -15 -16t-19 -10
q15 -7 21.5 -15t6.5 -25q0 -14 -43 -69t-43 -81q0 -24 30 -24t89 42l53 38l8 -36q-35 -42 -110 -97q-83 -61 -116 -61q-24 0 -36 15t-12 39q0 27 19 73q7 16 19 39zM507 514q-25 -35 -61.5 -59.5t-76.5 -24.5q-36 0 -72 25.5t-40 60.5q0 14 3.5 22.5t16.5 11.5h10
q13 0 23.5 -8.5t14.5 -19.5q9 -19 23.5 -28.5t30.5 -9.5q22 0 46.5 16t37.5 36q9 12 30 12q22 0 22 -16q0 -6 -8 -18zM92 -181q-17 0 -36 9.5t-19 24.5q0 16 14 38q18 29 43 29l7 -2q19 -1 32.5 -7t13.5 -20l-2 -4q-3 -22 -15 -41q-17 -27 -38 -27z" />
    <glyph glyph-name="grave" unicode="&#x1eb7;" horiz-adv-x="498" 
d="M310 278q-160 -50 -223 -101q-45 -37 -45 -83q2 -8 3 -11q5 -11 13 -11l4 2q34 7 88 51q66 54 162 151zM256 142l-92 -74l-52 -38q-40 -28 -54 -28q-23 0 -55 39q-35 42 -35 79q0 86 144 174q134 82 230 82q30 0 49 -19q15 -15 15 -29q0 -8 -15 -16t-19 -10
q15 -7 21.5 -15t6.5 -25q0 -14 -43 -69t-43 -81q0 -24 30 -24t89 42l53 38l8 -36q-35 -42 -110 -97q-83 -61 -116 -61q-24 0 -36 15t-12 39q0 27 19 73q7 16 19 39zM507 514q-25 -35 -61.5 -59.5t-76.5 -24.5q-36 0 -72 25.5t-40 60.5q0 14 3.5 22.5t16.5 11.5h10
q13 0 23.5 -8.5t14.5 -19.5q9 -19 23.5 -28.5t30.5 -9.5q22 0 46.5 16t37.5 36q9 12 30 12q22 0 22 -16q0 -6 -8 -18zM92 -181q-17 0 -36 9.5t-19 24.5q0 16 14 38q18 29 43 29l7 -2q19 -1 32.5 -7t13.5 -20l-2 -4q-3 -22 -15 -41q-17 -27 -38 -27z" />
    <glyph glyph-name="acircumflex" unicode="&#xe2;" horiz-adv-x="498" 
d="M310 278q-160 -50 -223 -101q-45 -37 -45 -83q2 -8 3 -11q5 -11 13 -11l4 2q34 7 88 51q66 54 162 151zM256 142l-92 -74l-52 -38q-40 -28 -54 -28q-23 0 -55 39q-35 42 -35 79q0 86 144 174q134 82 230 82q30 0 49 -19q15 -15 15 -29q0 -8 -15 -16t-19 -10
q15 -7 21.5 -15t6.5 -25q0 -14 -43 -69t-43 -81q0 -24 30 -24t89 42l53 38l8 -36q-35 -42 -110 -97q-83 -61 -116 -61q-24 0 -36 15t-12 39q0 27 19 73q7 16 19 39zM339 526q18 7 34.5 11.5t31.5 4.5h18q24 -4 32 -39q4 -41 6 -51q0 -20 -4 -24t-28 -4q-14 0 -17.5 1t-8 9.5
t-9 24.5t-15.5 33q-13 -6 -54 -30q-66 -38 -96 -38t-30 8q0 5 7 12t13 10z" />
    <glyph glyph-name="adieresis" unicode="&#xe4;" horiz-adv-x="498" 
d="M310 278q-160 -50 -223 -101q-45 -37 -45 -83q2 -8 3 -11q5 -11 13 -11l4 2q34 7 88 51q66 54 162 151zM256 142l-92 -74l-52 -38q-40 -28 -54 -28q-23 0 -55 39q-35 42 -35 79q0 86 144 174q134 82 230 82q30 0 49 -19q15 -15 15 -29q0 -8 -15 -16t-19 -10
q15 -7 21.5 -15t6.5 -25q0 -14 -43 -69t-43 -81q0 -24 30 -24t89 42l53 38l8 -36q-35 -42 -110 -97q-83 -61 -116 -61q-24 0 -36 15t-12 39q0 27 19 73q7 16 19 39zM339 526q18 7 34.5 11.5t31.5 4.5h18q24 -4 32 -39q4 -41 6 -51q0 -20 -4 -24t-28 -4q-14 0 -17.5 1t-8 9.5
t-9 24.5t-15.5 33q-13 -6 -54 -30q-66 -38 -96 -38t-30 8q0 5 7 12t13 10zM564 530l-26 -28q-22 -22 -32 -22l-2 2q-2 0 -10 -3t-12 -3q-2 0 -4.5 2t-5.5 4l-4 6v4l82 124q5 7 6 9q5 8 14 9h50q14 0 14 -14q0 -17 -32 -53q-26 -29 -38 -37z" />
    <glyph glyph-name="adieresis" unicode="&#x1ea5;" horiz-adv-x="498" 
d="M310 278q-160 -50 -223 -101q-45 -37 -45 -83q2 -8 3 -11q5 -11 13 -11l4 2q34 7 88 51q66 54 162 151zM256 142l-92 -74l-52 -38q-40 -28 -54 -28q-23 0 -55 39q-35 42 -35 79q0 86 144 174q134 82 230 82q30 0 49 -19q15 -15 15 -29q0 -8 -15 -16t-19 -10
q15 -7 21.5 -15t6.5 -25q0 -14 -43 -69t-43 -81q0 -24 30 -24t89 42l53 38l8 -36q-35 -42 -110 -97q-83 -61 -116 -61q-24 0 -36 15t-12 39q0 27 19 73q7 16 19 39zM339 526q18 7 34.5 11.5t31.5 4.5h18q24 -4 32 -39q4 -41 6 -51q0 -20 -4 -24t-28 -4q-14 0 -17.5 1t-8 9.5
t-9 24.5t-15.5 33q-13 -6 -54 -30q-66 -38 -96 -38t-30 8q0 5 7 12t13 10zM564 530l-26 -28q-22 -22 -32 -22l-2 2q-2 0 -10 -3t-12 -3q-2 0 -4.5 2t-5.5 4l-4 6v4l82 124q5 7 6 9q5 8 14 9h50q14 0 14 -14q0 -17 -32 -53q-26 -29 -38 -37z" />
    <glyph glyph-name="oe" unicode="&#x153;" horiz-adv-x="498" 
d="M310 278q-160 -50 -223 -101q-45 -37 -45 -83q2 -8 3 -11q5 -11 13 -11l4 2q34 7 88 51q66 54 162 151zM256 142l-92 -74l-52 -38q-40 -28 -54 -28q-23 0 -55 39q-35 42 -35 79q0 86 144 174q134 82 230 82q30 0 49 -19q15 -15 15 -29q0 -8 -15 -16t-19 -10
q15 -7 21.5 -15t6.5 -25q0 -14 -43 -69t-43 -81q0 -24 30 -24t89 42l53 38l8 -36q-35 -42 -110 -97q-83 -61 -116 -61q-24 0 -36 15t-12 39q0 27 19 73q7 16 19 39zM339 526q18 7 34.5 11.5t31.5 4.5h18q24 -4 32 -39q4 -41 6 -51q0 -20 -4 -24t-28 -4q-14 0 -17.5 1t-8 9.5
t-9 24.5t-15.5 33q-13 -6 -54 -30q-66 -38 -96 -38t-30 8q0 5 7 12t13 10zM259 509q-9 -1 -32 20l-28 28q-11 8 -36 36q-32 37 -32 54q0 14 12 14h50q8 -1 12.5 -7.5l7.5 -10.5l40 -61q36 -53 42 -63l2 -4l-6 -6q-6 -6 -8 -6q-3 0 -12 3t-12 3z" />
    <glyph glyph-name="oe" unicode="&#x1ea7;" horiz-adv-x="498" 
d="M310 278q-160 -50 -223 -101q-45 -37 -45 -83q2 -8 3 -11q5 -11 13 -11l4 2q34 7 88 51q66 54 162 151zM256 142l-92 -74l-52 -38q-40 -28 -54 -28q-23 0 -55 39q-35 42 -35 79q0 86 144 174q134 82 230 82q30 0 49 -19q15 -15 15 -29q0 -8 -15 -16t-19 -10
q15 -7 21.5 -15t6.5 -25q0 -14 -43 -69t-43 -81q0 -24 30 -24t89 42l53 38l8 -36q-35 -42 -110 -97q-83 -61 -116 -61q-24 0 -36 15t-12 39q0 27 19 73q7 16 19 39zM339 526q18 7 34.5 11.5t31.5 4.5h18q24 -4 32 -39q4 -41 6 -51q0 -20 -4 -24t-28 -4q-14 0 -17.5 1t-8 9.5
t-9 24.5t-15.5 33q-13 -6 -54 -30q-66 -38 -96 -38t-30 8q0 5 7 12t13 10zM259 509q-9 -1 -32 20l-28 28q-11 8 -36 36q-32 37 -32 54q0 14 12 14h50q8 -1 12.5 -7.5l7.5 -10.5l40 -61q36 -53 42 -63l2 -4l-6 -6q-6 -6 -8 -6q-3 0 -12 3t-12 3z" />
    <glyph glyph-name="icircumflex" unicode="&#xee;" horiz-adv-x="498" 
d="M310 278q-160 -50 -223 -101q-45 -37 -45 -83q2 -8 3 -11q5 -11 13 -11l4 2q34 7 88 51q66 54 162 151zM256 142l-92 -74l-52 -38q-40 -28 -54 -28q-23 0 -55 39q-35 42 -35 79q0 86 144 174q134 82 230 82q30 0 49 -19q15 -15 15 -29q0 -8 -15 -16t-19 -10
q15 -7 21.5 -15t6.5 -25q0 -14 -43 -69t-43 -81q0 -24 30 -24t89 42l53 38l8 -36q-35 -42 -110 -97q-83 -61 -116 -61q-24 0 -36 15t-12 39q0 27 19 73q7 16 19 39zM339 526q18 7 34.5 11.5t31.5 4.5h18q24 -4 32 -39q4 -41 6 -51q0 -20 -4 -24t-28 -4q-14 0 -17.5 1t-8 9.5
t-9 24.5t-15.5 33q-13 -6 -54 -30q-66 -38 -96 -38t-30 8q0 5 7 12t13 10zM555 673q-25 0 -45 -14q-15 -11 -25 -28q16 -5 23 -9t7 -7t-4.5 -7.5t-9.5 -4.5l-22 -4l-22 4q-18 3 -18 20q0 6 5 16t11 16q12 15 45 29.5t55 14.5q34 0 67 -17.5t33 -40.5q0 -21 -12 -39
q-6 -9 -30 -33l-74 -52l-14.5 -10t-7.5 -12l6 -20q0 -10 -18 -10q-13 0 -22.5 12.5t-9.5 21.5q0 24 28 46l80 58q10 6 18 18.5t8 23.5q0 12 -17 20t-35 8z" />
    <glyph glyph-name="icircumflex" unicode="&#x1ea9;" horiz-adv-x="498" 
d="M310 278q-160 -50 -223 -101q-45 -37 -45 -83q2 -8 3 -11q5 -11 13 -11l4 2q34 7 88 51q66 54 162 151zM256 142l-92 -74l-52 -38q-40 -28 -54 -28q-23 0 -55 39q-35 42 -35 79q0 86 144 174q134 82 230 82q30 0 49 -19q15 -15 15 -29q0 -8 -15 -16t-19 -10
q15 -7 21.5 -15t6.5 -25q0 -14 -43 -69t-43 -81q0 -24 30 -24t89 42l53 38l8 -36q-35 -42 -110 -97q-83 -61 -116 -61q-24 0 -36 15t-12 39q0 27 19 73q7 16 19 39zM339 526q18 7 34.5 11.5t31.5 4.5h18q24 -4 32 -39q4 -41 6 -51q0 -20 -4 -24t-28 -4q-14 0 -17.5 1t-8 9.5
t-9 24.5t-15.5 33q-13 -6 -54 -30q-66 -38 -96 -38t-30 8q0 5 7 12t13 10zM555 673q-25 0 -45 -14q-15 -11 -25 -28q16 -5 23 -9t7 -7t-4.5 -7.5t-9.5 -4.5l-22 -4l-22 4q-18 3 -18 20q0 6 5 16t11 16q12 15 45 29.5t55 14.5q34 0 67 -17.5t33 -40.5q0 -21 -12 -39
q-6 -9 -30 -33l-74 -52l-14.5 -10t-7.5 -12l6 -20q0 -10 -18 -10q-13 0 -22.5 12.5t-9.5 21.5q0 24 28 46l80 58q10 6 18 18.5t8 23.5q0 12 -17 20t-35 8z" />
    <glyph glyph-name="uni1EAB" unicode="&#x1eab;" horiz-adv-x="498" 
d="M310 278q-160 -50 -223 -101q-45 -37 -45 -83q2 -8 3 -11q5 -11 13 -11l4 2q34 7 88 51q66 54 162 151zM256 142l-92 -74l-52 -38q-40 -28 -54 -28q-23 0 -55 39q-35 42 -35 79q0 86 144 174q134 82 230 82q30 0 49 -19q15 -15 15 -29q0 -8 -15 -16t-19 -10
q15 -7 21.5 -15t6.5 -25q0 -14 -43 -69t-43 -81q0 -24 30 -24t89 42l53 38l8 -36q-35 -42 -110 -97q-83 -61 -116 -61q-24 0 -36 15t-12 39q0 27 19 73q7 16 19 39zM339 526q18 7 34.5 11.5t31.5 4.5h18q24 -4 32 -39q4 -41 6 -51q0 -20 -4 -24t-28 -4q-14 0 -17.5 1t-8 9.5
t-9 24.5t-15.5 33q-13 -6 -54 -30q-66 -38 -96 -38t-30 8q0 5 7 12t13 10zM374 657h4q22 0 55 -26t45 -26q18 0 31 28.5t21 31.5h10q18 0 18 -18l-2 -2q0 -29 -17 -61q-20 -37 -47 -37l-2 2q-19 0 -42 15q-50 33 -60 33q-18 0 -35 -29q-11 -18 -21 -23.5t-14 -5.5
q-22 0 -22 22q0 30 26 63t52 33z" />
    <glyph glyph-name="uni1EAB" unicode="&#x2030;" horiz-adv-x="498" 
d="M310 278q-160 -50 -223 -101q-45 -37 -45 -83q2 -8 3 -11q5 -11 13 -11l4 2q34 7 88 51q66 54 162 151zM256 142l-92 -74l-52 -38q-40 -28 -54 -28q-23 0 -55 39q-35 42 -35 79q0 86 144 174q134 82 230 82q30 0 49 -19q15 -15 15 -29q0 -8 -15 -16t-19 -10
q15 -7 21.5 -15t6.5 -25q0 -14 -43 -69t-43 -81q0 -24 30 -24t89 42l53 38l8 -36q-35 -42 -110 -97q-83 -61 -116 -61q-24 0 -36 15t-12 39q0 27 19 73q7 16 19 39zM339 526q18 7 34.5 11.5t31.5 4.5h18q24 -4 32 -39q4 -41 6 -51q0 -20 -4 -24t-28 -4q-14 0 -17.5 1t-8 9.5
t-9 24.5t-15.5 33q-13 -6 -54 -30q-66 -38 -96 -38t-30 8q0 5 7 12t13 10zM374 657h4q22 0 55 -26t45 -26q18 0 31 28.5t21 31.5h10q18 0 18 -18l-2 -2q0 -29 -17 -61q-20 -37 -47 -37l-2 2q-19 0 -42 15q-50 33 -60 33q-18 0 -35 -29q-11 -18 -21 -23.5t-14 -5.5
q-22 0 -22 22q0 30 26 63t52 33z" />
    <glyph glyph-name="section" unicode="&#xa7;" horiz-adv-x="498" 
d="M310 278q-160 -50 -223 -101q-45 -37 -45 -83q2 -8 3 -11q5 -11 13 -11l4 2q34 7 88 51q66 54 162 151zM256 142l-92 -74l-52 -38q-40 -28 -54 -28q-23 0 -55 39q-35 42 -35 79q0 86 144 174q134 82 230 82q30 0 49 -19q15 -15 15 -29q0 -8 -15 -16t-19 -10
q15 -7 21.5 -15t6.5 -25q0 -14 -43 -69t-43 -81q0 -24 30 -24t89 42l53 38l8 -36q-35 -42 -110 -97q-83 -61 -116 -61q-24 0 -36 15t-12 39q0 27 19 73q7 16 19 39zM339 526q18 7 34.5 11.5t31.5 4.5h18q24 -4 32 -39q4 -41 6 -51q0 -20 -4 -24t-28 -4q-14 0 -17.5 1t-8 9.5
t-9 24.5t-15.5 33q-13 -6 -54 -30q-66 -38 -96 -38t-30 8q0 5 7 12t13 10zM92 -181q-17 0 -36 9.5t-19 24.5q0 16 14 38q18 29 43 29l7 -2q19 -1 32.5 -7t13.5 -20l-2 -4q-3 -22 -15 -41q-17 -27 -38 -27z" />
    <glyph glyph-name="section" unicode="&#x1ead;" horiz-adv-x="498" 
d="M310 278q-160 -50 -223 -101q-45 -37 -45 -83q2 -8 3 -11q5 -11 13 -11l4 2q34 7 88 51q66 54 162 151zM256 142l-92 -74l-52 -38q-40 -28 -54 -28q-23 0 -55 39q-35 42 -35 79q0 86 144 174q134 82 230 82q30 0 49 -19q15 -15 15 -29q0 -8 -15 -16t-19 -10
q15 -7 21.5 -15t6.5 -25q0 -14 -43 -69t-43 -81q0 -24 30 -24t89 42l53 38l8 -36q-35 -42 -110 -97q-83 -61 -116 -61q-24 0 -36 15t-12 39q0 27 19 73q7 16 19 39zM339 526q18 7 34.5 11.5t31.5 4.5h18q24 -4 32 -39q4 -41 6 -51q0 -20 -4 -24t-28 -4q-14 0 -17.5 1t-8 9.5
t-9 24.5t-15.5 33q-13 -6 -54 -30q-66 -38 -96 -38t-30 8q0 5 7 12t13 10zM92 -181q-17 0 -36 9.5t-19 24.5q0 16 14 38q18 29 43 29l7 -2q19 -1 32.5 -7t13.5 -20l-2 -4q-3 -22 -15 -41q-17 -27 -38 -27z" />
    <glyph glyph-name="eacute" unicode="&#xe9;" horiz-adv-x="380" 
d="M362 188l10 -38q-57 -66 -121 -110q-82 -56 -149 -56q-53 0 -81.5 38.5t-28.5 93.5v4q0 95 87.5 177.5t184.5 82.5q30 0 51 -10.5t21 -37.5q0 -44 -49 -88q-63 -56 -193 -98l-2 -22l-2 -4q0 -24 18.5 -36t45.5 -12q46 0 111 42q27 18 97 74zM100 194q59 20 107 63
q41 37 41 53q0 12 -10 12q-41 -11 -79 -45t-59 -83zM326 482l-26 -28q-22 -22 -32 -22l-2 2q-2 0 -10 -3t-12 -3q-2 0 -4.5 2t-5.5 4l-4 6v4l82 124q5 7 6 9q5 8 14 9h50q14 0 14 -14q0 -17 -32 -53q-26 -29 -38 -37z" />
    <glyph glyph-name="egrave" unicode="&#xe8;" horiz-adv-x="380" 
d="M362 188l10 -38q-57 -66 -121 -110q-82 -56 -149 -56q-53 0 -81.5 38.5t-28.5 93.5v4q0 95 87.5 177.5t184.5 82.5q30 0 51 -10.5t21 -37.5q0 -44 -49 -88q-63 -56 -193 -98l-2 -22l-2 -4q0 -24 18.5 -36t45.5 -12q46 0 111 42q27 18 97 74zM100 194q59 20 107 63
q41 37 41 53q0 12 -10 12q-41 -11 -79 -45t-59 -83zM320 435q-9 -1 -32 20l-28 28q-11 8 -36 36q-32 37 -32 54q0 14 12 14h50q8 -1 12.5 -7.5l7.5 -10.5l40 -61q36 -53 42 -63l2 -4l-6 -6q-6 -6 -8 -6q-3 0 -12 3t-12 3z" />
    <glyph glyph-name="sterling" unicode="&#xa3;" horiz-adv-x="380" 
d="M362 188l10 -38q-57 -66 -121 -110q-82 -56 -149 -56q-53 0 -81.5 38.5t-28.5 93.5v4q0 95 87.5 177.5t184.5 82.5q30 0 51 -10.5t21 -37.5q0 -44 -49 -88q-63 -56 -193 -98l-2 -22l-2 -4q0 -24 18.5 -36t45.5 -12q46 0 111 42q27 18 97 74zM100 194q59 20 107 63
q41 37 41 53q0 12 -10 12q-41 -11 -79 -45t-59 -83zM325 600q-25 0 -45 -14q-15 -11 -25 -28q16 -5 23 -9t7 -7t-4.5 -7.5t-9.5 -4.5l-22 -4l-22 4q-18 3 -18 20q0 6 5 16t11 16q12 15 45 29.5t55 14.5q34 0 67 -17.5t33 -40.5q0 -21 -12 -39q-6 -9 -30 -33l-74 -52
l-14.5 -10t-7.5 -12l6 -20q0 -10 -18 -10q-13 0 -22.5 12.5t-9.5 21.5q0 24 28 46l80 58q10 6 18 18.5t8 23.5q0 12 -17 20t-35 8z" />
    <glyph glyph-name="sterling" unicode="&#x1ebb;" horiz-adv-x="380" 
d="M362 188l10 -38q-57 -66 -121 -110q-82 -56 -149 -56q-53 0 -81.5 38.5t-28.5 93.5v4q0 95 87.5 177.5t184.5 82.5q30 0 51 -10.5t21 -37.5q0 -44 -49 -88q-63 -56 -193 -98l-2 -22l-2 -4q0 -24 18.5 -36t45.5 -12q46 0 111 42q27 18 97 74zM100 194q59 20 107 63
q41 37 41 53q0 12 -10 12q-41 -11 -79 -45t-59 -83zM325 600q-25 0 -45 -14q-15 -11 -25 -28q16 -5 23 -9t7 -7t-4.5 -7.5t-9.5 -4.5l-22 -4l-22 4q-18 3 -18 20q0 6 5 16t11 16q12 15 45 29.5t55 14.5q34 0 67 -17.5t33 -40.5q0 -21 -12 -39q-6 -9 -30 -33l-74 -52
l-14.5 -10t-7.5 -12l6 -20q0 -10 -18 -10q-13 0 -22.5 12.5t-9.5 21.5q0 24 28 46l80 58q10 6 18 18.5t8 23.5q0 12 -17 20t-35 8z" />
    <glyph glyph-name="multiply" unicode="&#xd7;" horiz-adv-x="380" 
d="M362 188l10 -38q-57 -66 -121 -110q-82 -56 -149 -56q-53 0 -81.5 38.5t-28.5 93.5v4q0 95 87.5 177.5t184.5 82.5q30 0 51 -10.5t21 -37.5q0 -44 -49 -88q-63 -56 -193 -98l-2 -22l-2 -4q0 -24 18.5 -36t45.5 -12q46 0 111 42q27 18 97 74zM100 194q59 20 107 63
q41 37 41 53q0 12 -10 12q-41 -11 -79 -45t-59 -83zM248 568h4q22 0 55 -26t45 -26q18 0 31 28.5t21 31.5h10q18 0 18 -18l-2 -2q0 -29 -17 -61q-20 -37 -47 -37l-2 2q-19 0 -42 15q-50 33 -60 33q-18 0 -35 -29q-11 -18 -21 -23.5t-14 -5.5q-22 0 -22 22q0 30 26 63t52 33z
" />
    <glyph glyph-name="multiply" unicode="&#x1ebd;" horiz-adv-x="380" 
d="M362 188l10 -38q-57 -66 -121 -110q-82 -56 -149 -56q-53 0 -81.5 38.5t-28.5 93.5v4q0 95 87.5 177.5t184.5 82.5q30 0 51 -10.5t21 -37.5q0 -44 -49 -88q-63 -56 -193 -98l-2 -22l-2 -4q0 -24 18.5 -36t45.5 -12q46 0 111 42q27 18 97 74zM100 194q59 20 107 63
q41 37 41 53q0 12 -10 12q-41 -11 -79 -45t-59 -83zM248 568h4q22 0 55 -26t45 -26q18 0 31 28.5t21 31.5h10q18 0 18 -18l-2 -2q0 -29 -17 -61q-20 -37 -47 -37l-2 2q-19 0 -42 15q-50 33 -60 33q-18 0 -35 -29q-11 -18 -21 -23.5t-14 -5.5q-22 0 -22 22q0 30 26 63t52 33z
" />
    <glyph glyph-name="dieresis" unicode="&#xa8;" horiz-adv-x="380" 
d="M362 188l10 -38q-57 -66 -121 -110q-82 -56 -149 -56q-53 0 -81.5 38.5t-28.5 93.5v4q0 95 87.5 177.5t184.5 82.5q30 0 51 -10.5t21 -37.5q0 -44 -49 -88q-63 -56 -193 -98l-2 -22l-2 -4q0 -24 18.5 -36t45.5 -12q46 0 111 42q27 18 97 74zM100 194q59 20 107 63
q41 37 41 53q0 12 -10 12q-41 -11 -79 -45t-59 -83zM75 -181q-17 0 -36 9.5t-19 24.5q0 16 14 38q18 29 43 29l7 -2q19 -1 32.5 -7t13.5 -20l-2 -4q-3 -22 -15 -41q-17 -27 -38 -27z" />
    <glyph glyph-name="dieresis" unicode="&#x1eb9;" horiz-adv-x="380" 
d="M362 188l10 -38q-57 -66 -121 -110q-82 -56 -149 -56q-53 0 -81.5 38.5t-28.5 93.5v4q0 95 87.5 177.5t184.5 82.5q30 0 51 -10.5t21 -37.5q0 -44 -49 -88q-63 -56 -193 -98l-2 -22l-2 -4q0 -24 18.5 -36t45.5 -12q46 0 111 42q27 18 97 74zM100 194q59 20 107 63
q41 37 41 53q0 12 -10 12q-41 -11 -79 -45t-59 -83zM75 -181q-17 0 -36 9.5t-19 24.5q0 16 14 38q18 29 43 29l7 -2q19 -1 32.5 -7t13.5 -20l-2 -4q-3 -22 -15 -41q-17 -27 -38 -27z" />
    <glyph glyph-name="ecircumflex" unicode="&#xea;" horiz-adv-x="380" 
d="M362 188l10 -38q-57 -66 -121 -110q-82 -56 -149 -56q-53 0 -81.5 38.5t-28.5 93.5v4q0 95 87.5 177.5t184.5 82.5q30 0 51 -10.5t21 -37.5q0 -44 -49 -88q-63 -56 -193 -98l-2 -22l-2 -4q0 -24 18.5 -36t45.5 -12q46 0 111 42q27 18 97 74zM100 194q59 20 107 63
q41 37 41 53q0 12 -10 12q-41 -11 -79 -45t-59 -83zM281 526q18 7 34.5 11.5t31.5 4.5h18q24 -4 32 -39q4 -41 6 -51q0 -20 -4 -24t-28 -4q-14 0 -17.5 1t-8 9.5t-9 24.5t-15.5 33q-13 -6 -54 -30q-66 -38 -96 -38t-30 8q0 5 7 12t13 10z" />
    <glyph glyph-name="periodcentered" unicode="&#xb7;" horiz-adv-x="380" 
d="M362 188l10 -38q-57 -66 -121 -110q-82 -56 -149 -56q-53 0 -81.5 38.5t-28.5 93.5v4q0 95 87.5 177.5t184.5 82.5q30 0 51 -10.5t21 -37.5q0 -44 -49 -88q-63 -56 -193 -98l-2 -22l-2 -4q0 -24 18.5 -36t45.5 -12q46 0 111 42q27 18 97 74zM100 194q59 20 107 63
q41 37 41 53q0 12 -10 12q-41 -11 -79 -45t-59 -83zM281 526q18 7 34.5 11.5t31.5 4.5h18q24 -4 32 -39q4 -41 6 -51q0 -20 -4 -24t-28 -4q-14 0 -17.5 1t-8 9.5t-9 24.5t-15.5 33q-13 -6 -54 -30q-66 -38 -96 -38t-30 8q0 5 7 12t13 10zM500 530l-26 -28q-22 -22 -32 -22
l-2 2q-2 0 -10 -3t-12 -3q-2 0 -4.5 2t-5.5 4l-4 6v4l82 124q5 7 6 9q5 8 14 9h50q14 0 14 -14q0 -17 -32 -53q-26 -29 -38 -37z" />
    <glyph glyph-name="periodcentered" unicode="&#x2219;" horiz-adv-x="380" 
d="M362 188l10 -38q-57 -66 -121 -110q-82 -56 -149 -56q-53 0 -81.5 38.5t-28.5 93.5v4q0 95 87.5 177.5t184.5 82.5q30 0 51 -10.5t21 -37.5q0 -44 -49 -88q-63 -56 -193 -98l-2 -22l-2 -4q0 -24 18.5 -36t45.5 -12q46 0 111 42q27 18 97 74zM100 194q59 20 107 63
q41 37 41 53q0 12 -10 12q-41 -11 -79 -45t-59 -83zM281 526q18 7 34.5 11.5t31.5 4.5h18q24 -4 32 -39q4 -41 6 -51q0 -20 -4 -24t-28 -4q-14 0 -17.5 1t-8 9.5t-9 24.5t-15.5 33q-13 -6 -54 -30q-66 -38 -96 -38t-30 8q0 5 7 12t13 10zM500 530l-26 -28q-22 -22 -32 -22
l-2 2q-2 0 -10 -3t-12 -3q-2 0 -4.5 2t-5.5 4l-4 6v4l82 124q5 7 6 9q5 8 14 9h50q14 0 14 -14q0 -17 -32 -53q-26 -29 -38 -37z" />
    <glyph glyph-name="periodcentered" unicode="&#x1ebf;" horiz-adv-x="380" 
d="M362 188l10 -38q-57 -66 -121 -110q-82 -56 -149 -56q-53 0 -81.5 38.5t-28.5 93.5v4q0 95 87.5 177.5t184.5 82.5q30 0 51 -10.5t21 -37.5q0 -44 -49 -88q-63 -56 -193 -98l-2 -22l-2 -4q0 -24 18.5 -36t45.5 -12q46 0 111 42q27 18 97 74zM100 194q59 20 107 63
q41 37 41 53q0 12 -10 12q-41 -11 -79 -45t-59 -83zM281 526q18 7 34.5 11.5t31.5 4.5h18q24 -4 32 -39q4 -41 6 -51q0 -20 -4 -24t-28 -4q-14 0 -17.5 1t-8 9.5t-9 24.5t-15.5 33q-13 -6 -54 -30q-66 -38 -96 -38t-30 8q0 5 7 12t13 10zM500 530l-26 -28q-22 -22 -32 -22
l-2 2q-2 0 -10 -3t-12 -3q-2 0 -4.5 2t-5.5 4l-4 6v4l82 124q5 7 6 9q5 8 14 9h50q14 0 14 -14q0 -17 -32 -53q-26 -29 -38 -37z" />
    <glyph glyph-name="guillemotright" unicode="&#xbb;" horiz-adv-x="380" 
d="M362 188l10 -38q-57 -66 -121 -110q-82 -56 -149 -56q-53 0 -81.5 38.5t-28.5 93.5v4q0 95 87.5 177.5t184.5 82.5q30 0 51 -10.5t21 -37.5q0 -44 -49 -88q-63 -56 -193 -98l-2 -22l-2 -4q0 -24 18.5 -36t45.5 -12q46 0 111 42q27 18 97 74zM100 194q59 20 107 63
q41 37 41 53q0 12 -10 12q-41 -11 -79 -45t-59 -83zM281 526q18 7 34.5 11.5t31.5 4.5h18q24 -4 32 -39q4 -41 6 -51q0 -20 -4 -24t-28 -4q-14 0 -17.5 1t-8 9.5t-9 24.5t-15.5 33q-13 -6 -54 -30q-66 -38 -96 -38t-30 8q0 5 7 12t13 10zM200 509q-9 -1 -32 20l-28 28
q-11 8 -36 36q-32 37 -32 54q0 14 12 14h50q8 -1 12.5 -7.5l7.5 -10.5l40 -61q36 -53 42 -63l2 -4l-6 -6q-6 -6 -8 -6q-3 0 -12 3t-12 3z" />
    <glyph glyph-name="guillemotright" unicode="&#x1ec1;" horiz-adv-x="380" 
d="M362 188l10 -38q-57 -66 -121 -110q-82 -56 -149 -56q-53 0 -81.5 38.5t-28.5 93.5v4q0 95 87.5 177.5t184.5 82.5q30 0 51 -10.5t21 -37.5q0 -44 -49 -88q-63 -56 -193 -98l-2 -22l-2 -4q0 -24 18.5 -36t45.5 -12q46 0 111 42q27 18 97 74zM100 194q59 20 107 63
q41 37 41 53q0 12 -10 12q-41 -11 -79 -45t-59 -83zM281 526q18 7 34.5 11.5t31.5 4.5h18q24 -4 32 -39q4 -41 6 -51q0 -20 -4 -24t-28 -4q-14 0 -17.5 1t-8 9.5t-9 24.5t-15.5 33q-13 -6 -54 -30q-66 -38 -96 -38t-30 8q0 5 7 12t13 10zM200 509q-9 -1 -32 20l-28 28
q-11 8 -36 36q-32 37 -32 54q0 14 12 14h50q8 -1 12.5 -7.5l7.5 -10.5l40 -61q36 -53 42 -63l2 -4l-6 -6q-6 -6 -8 -6q-3 0 -12 3t-12 3z" />
    <glyph glyph-name="uni1EC3" unicode="&#x1ec3;" horiz-adv-x="380" 
d="M362 188l10 -38q-57 -66 -121 -110q-82 -56 -149 -56q-53 0 -81.5 38.5t-28.5 93.5v4q0 95 87.5 177.5t184.5 82.5q30 0 51 -10.5t21 -37.5q0 -44 -49 -88q-63 -56 -193 -98l-2 -22l-2 -4q0 -24 18.5 -36t45.5 -12q46 0 111 42q27 18 97 74zM100 194q59 20 107 63
q41 37 41 53q0 12 -10 12q-41 -11 -79 -45t-59 -83zM281 526q18 7 34.5 11.5t31.5 4.5h18q24 -4 32 -39q4 -41 6 -51q0 -20 -4 -24t-28 -4q-14 0 -17.5 1t-8 9.5t-9 24.5t-15.5 33q-13 -6 -54 -30q-66 -38 -96 -38t-30 8q0 5 7 12t13 10zM491 673q-25 0 -45 -14
q-15 -11 -25 -28q16 -5 23 -9t7 -7t-4.5 -7.5t-9.5 -4.5l-22 -4l-22 4q-18 3 -18 20q0 6 5 16t11 16q12 15 45 29.5t55 14.5q34 0 67 -17.5t33 -40.5q0 -21 -12 -39q-6 -9 -30 -33l-74 -52l-14.5 -10t-7.5 -12l6 -20q0 -10 -18 -10q-13 0 -22.5 12.5t-9.5 21.5q0 24 28 46
l80 58q10 6 18 18.5t8 23.5q0 12 -17 20t-35 8z" />
    <glyph glyph-name="uni1EC3" unicode="&#x203a;" horiz-adv-x="380" 
d="M362 188l10 -38q-57 -66 -121 -110q-82 -56 -149 -56q-53 0 -81.5 38.5t-28.5 93.5v4q0 95 87.5 177.5t184.5 82.5q30 0 51 -10.5t21 -37.5q0 -44 -49 -88q-63 -56 -193 -98l-2 -22l-2 -4q0 -24 18.5 -36t45.5 -12q46 0 111 42q27 18 97 74zM100 194q59 20 107 63
q41 37 41 53q0 12 -10 12q-41 -11 -79 -45t-59 -83zM281 526q18 7 34.5 11.5t31.5 4.5h18q24 -4 32 -39q4 -41 6 -51q0 -20 -4 -24t-28 -4q-14 0 -17.5 1t-8 9.5t-9 24.5t-15.5 33q-13 -6 -54 -30q-66 -38 -96 -38t-30 8q0 5 7 12t13 10zM491 673q-25 0 -45 -14
q-15 -11 -25 -28q16 -5 23 -9t7 -7t-4.5 -7.5t-9.5 -4.5l-22 -4l-22 4q-18 3 -18 20q0 6 5 16t11 16q12 15 45 29.5t55 14.5q34 0 67 -17.5t33 -40.5q0 -21 -12 -39q-6 -9 -30 -33l-74 -52l-14.5 -10t-7.5 -12l6 -20q0 -10 -18 -10q-13 0 -22.5 12.5t-9.5 21.5q0 24 28 46
l80 58q10 6 18 18.5t8 23.5q0 12 -17 20t-35 8z" />
    <glyph glyph-name="ordmasculine" unicode="&#xba;" horiz-adv-x="380" 
d="M362 188l10 -38q-57 -66 -121 -110q-82 -56 -149 -56q-53 0 -81.5 38.5t-28.5 93.5v4q0 95 87.5 177.5t184.5 82.5q30 0 51 -10.5t21 -37.5q0 -44 -49 -88q-63 -56 -193 -98l-2 -22l-2 -4q0 -24 18.5 -36t45.5 -12q46 0 111 42q27 18 97 74zM100 194q59 20 107 63
q41 37 41 53q0 12 -10 12q-41 -11 -79 -45t-59 -83zM281 526q18 7 34.5 11.5t31.5 4.5h18q24 -4 32 -39q4 -41 6 -51q0 -20 -4 -24t-28 -4q-14 0 -17.5 1t-8 9.5t-9 24.5t-15.5 33q-13 -6 -54 -30q-66 -38 -96 -38t-30 8q0 5 7 12t13 10zM323 657h4q22 0 55 -26t45 -26
q18 0 31 28.5t21 31.5h10q18 0 18 -18l-2 -2q0 -29 -17 -61q-20 -37 -47 -37l-2 2q-19 0 -42 15q-50 33 -60 33q-18 0 -35 -29q-11 -18 -21 -23.5t-14 -5.5q-22 0 -22 22q0 30 26 63t52 33z" />
    <glyph glyph-name="ordmasculine" unicode="&#x1ec5;" horiz-adv-x="380" 
d="M362 188l10 -38q-57 -66 -121 -110q-82 -56 -149 -56q-53 0 -81.5 38.5t-28.5 93.5v4q0 95 87.5 177.5t184.5 82.5q30 0 51 -10.5t21 -37.5q0 -44 -49 -88q-63 -56 -193 -98l-2 -22l-2 -4q0 -24 18.5 -36t45.5 -12q46 0 111 42q27 18 97 74zM100 194q59 20 107 63
q41 37 41 53q0 12 -10 12q-41 -11 -79 -45t-59 -83zM281 526q18 7 34.5 11.5t31.5 4.5h18q24 -4 32 -39q4 -41 6 -51q0 -20 -4 -24t-28 -4q-14 0 -17.5 1t-8 9.5t-9 24.5t-15.5 33q-13 -6 -54 -30q-66 -38 -96 -38t-30 8q0 5 7 12t13 10zM323 657h4q22 0 55 -26t45 -26
q18 0 31 28.5t21 31.5h10q18 0 18 -18l-2 -2q0 -29 -17 -61q-20 -37 -47 -37l-2 2q-19 0 -42 15q-50 33 -60 33q-18 0 -35 -29q-11 -18 -21 -23.5t-14 -5.5q-22 0 -22 22q0 30 26 63t52 33z" />
    <glyph glyph-name="onehalf" unicode="&#xbd;" horiz-adv-x="380" 
d="M362 188l10 -38q-57 -66 -121 -110q-82 -56 -149 -56q-53 0 -81.5 38.5t-28.5 93.5v4q0 95 87.5 177.5t184.5 82.5q30 0 51 -10.5t21 -37.5q0 -44 -49 -88q-63 -56 -193 -98l-2 -22l-2 -4q0 -24 18.5 -36t45.5 -12q46 0 111 42q27 18 97 74zM100 194q59 20 107 63
q41 37 41 53q0 12 -10 12q-41 -11 -79 -45t-59 -83zM281 526q18 7 34.5 11.5t31.5 4.5h18q24 -4 32 -39q4 -41 6 -51q0 -20 -4 -24t-28 -4q-14 0 -17.5 1t-8 9.5t-9 24.5t-15.5 33q-13 -6 -54 -30q-66 -38 -96 -38t-30 8q0 5 7 12t13 10zM75 -181q-17 0 -36 9.5t-19 24.5
q0 16 14 38q18 29 43 29l7 -2q19 -1 32.5 -7t13.5 -20l-2 -4q-3 -22 -15 -41q-17 -27 -38 -27z" />
    <glyph glyph-name="onehalf" unicode="&#x1ec7;" horiz-adv-x="380" 
d="M362 188l10 -38q-57 -66 -121 -110q-82 -56 -149 -56q-53 0 -81.5 38.5t-28.5 93.5v4q0 95 87.5 177.5t184.5 82.5q30 0 51 -10.5t21 -37.5q0 -44 -49 -88q-63 -56 -193 -98l-2 -22l-2 -4q0 -24 18.5 -36t45.5 -12q46 0 111 42q27 18 97 74zM100 194q59 20 107 63
q41 37 41 53q0 12 -10 12q-41 -11 -79 -45t-59 -83zM281 526q18 7 34.5 11.5t31.5 4.5h18q24 -4 32 -39q4 -41 6 -51q0 -20 -4 -24t-28 -4q-14 0 -17.5 1t-8 9.5t-9 24.5t-15.5 33q-13 -6 -54 -30q-66 -38 -96 -38t-30 8q0 5 7 12t13 10zM75 -181q-17 0 -36 9.5t-19 24.5
q0 16 14 38q18 29 43 29l7 -2q19 -1 32.5 -7t13.5 -20l-2 -4q-3 -22 -15 -41q-17 -27 -38 -27z" />
    <glyph glyph-name="oacute" unicode="&#xf3;" horiz-adv-x="412" 
d="M398 192l10 -42q-34 -43 -70.5 -61.5t-91.5 -18.5q-34 -36 -68 -54q-41 -22 -86 -22q-42 0 -71 37q-33 41 -33 107v4q0 50 25 92q22 37 64.5 71t93.5 54.5t95 20.5q20 0 38 -9t18 -27q0 -11 -7 -18q-3 -3 -17 -10q21 -6 28.5 -19.5t7.5 -38.5q0 -23 -6 -43.5t-32 -74.5
l10 -2q23 0 47 18.5zM214 270q-54 -32 -56 -33q-36 -22 -53 -38.5t-30 -43.5t-13 -49q0 -21 12 -29.5t32 -8.5q24 0 43 11q9 5 35 29q-12 24 -12 46q0 30 21 75l21 41v0zM354 482l-26 -28q-22 -22 -32 -22l-2 2q-2 0 -10 -3t-12 -3q-2 0 -4.5 2t-5.5 4l-4 6v4l82 124
q5 7 6 9q5 8 14 9h50q14 0 14 -14q0 -17 -32 -53q-26 -29 -38 -37z" />
    <glyph glyph-name="ograve" unicode="&#xf2;" horiz-adv-x="412" 
d="M398 192l10 -42q-34 -43 -70.5 -61.5t-91.5 -18.5q-34 -36 -68 -54q-41 -22 -86 -22q-42 0 -71 37q-33 41 -33 107v4q0 50 25 92q22 37 64.5 71t93.5 54.5t95 20.5q20 0 38 -9t18 -27q0 -11 -7 -18q-3 -3 -17 -10q21 -6 28.5 -19.5t7.5 -38.5q0 -23 -6 -43.5t-32 -74.5
l10 -2q23 0 47 18.5zM214 270q-54 -32 -56 -33q-36 -22 -53 -38.5t-30 -43.5t-13 -49q0 -21 12 -29.5t32 -8.5q24 0 43 11q9 5 35 29q-12 24 -12 46q0 30 21 75l21 41v0zM320 435q-9 -1 -32 20l-28 28q-11 8 -36 36q-32 37 -32 54q0 14 12 14h50q8 -1 12.5 -7.5l7.5 -10.5
l40 -61q36 -53 42 -63l2 -4l-6 -6q-6 -6 -8 -6q-3 0 -12 3t-12 3z" />
    <glyph glyph-name="circumflex" unicode="&#x2c6;" horiz-adv-x="412" 
d="M398 192l10 -42q-34 -43 -70.5 -61.5t-91.5 -18.5q-34 -36 -68 -54q-41 -22 -86 -22q-42 0 -71 37q-33 41 -33 107v4q0 50 25 92q22 37 64.5 71t93.5 54.5t95 20.5q20 0 38 -9t18 -27q0 -11 -7 -18q-3 -3 -17 -10q21 -6 28.5 -19.5t7.5 -38.5q0 -23 -6 -43.5t-32 -74.5
l10 -2q23 0 47 18.5zM214 270q-54 -32 -56 -33q-36 -22 -53 -38.5t-30 -43.5t-13 -49q0 -21 12 -29.5t32 -8.5q24 0 43 11q9 5 35 29q-12 24 -12 46q0 30 21 75l21 41v0zM358 600q-25 0 -45 -14q-15 -11 -25 -28q16 -5 23 -9t7 -7t-4.5 -7.5t-9.5 -4.5l-22 -4l-22 4
q-18 3 -18 20q0 6 5 16t11 16q12 15 45 29.5t55 14.5q34 0 67 -17.5t33 -40.5q0 -21 -12 -39q-6 -9 -30 -33l-74 -52l-14.5 -10t-7.5 -12l6 -20q0 -10 -18 -10q-13 0 -22.5 12.5t-9.5 21.5q0 24 28 46l80 58q10 6 18 18.5t8 23.5q0 12 -17 20t-35 8z" />
    <glyph glyph-name="circumflex" unicode="&#x1ecf;" horiz-adv-x="412" 
d="M398 192l10 -42q-34 -43 -70.5 -61.5t-91.5 -18.5q-34 -36 -68 -54q-41 -22 -86 -22q-42 0 -71 37q-33 41 -33 107v4q0 50 25 92q22 37 64.5 71t93.5 54.5t95 20.5q20 0 38 -9t18 -27q0 -11 -7 -18q-3 -3 -17 -10q21 -6 28.5 -19.5t7.5 -38.5q0 -23 -6 -43.5t-32 -74.5
l10 -2q23 0 47 18.5zM214 270q-54 -32 -56 -33q-36 -22 -53 -38.5t-30 -43.5t-13 -49q0 -21 12 -29.5t32 -8.5q24 0 43 11q9 5 35 29q-12 24 -12 46q0 30 21 75l21 41v0zM358 600q-25 0 -45 -14q-15 -11 -25 -28q16 -5 23 -9t7 -7t-4.5 -7.5t-9.5 -4.5l-22 -4l-22 4
q-18 3 -18 20q0 6 5 16t11 16q12 15 45 29.5t55 14.5q34 0 67 -17.5t33 -40.5q0 -21 -12 -39q-6 -9 -30 -33l-74 -52l-14.5 -10t-7.5 -12l6 -20q0 -10 -18 -10q-13 0 -22.5 12.5t-9.5 21.5q0 24 28 46l80 58q10 6 18 18.5t8 23.5q0 12 -17 20t-35 8z" />
    <glyph glyph-name="otilde" unicode="&#xf5;" horiz-adv-x="412" 
d="M398 192l10 -42q-34 -43 -70.5 -61.5t-91.5 -18.5q-34 -36 -68 -54q-41 -22 -86 -22q-42 0 -71 37q-33 41 -33 107v4q0 50 25 92q22 37 64.5 71t93.5 54.5t95 20.5q20 0 38 -9t18 -27q0 -11 -7 -18q-3 -3 -17 -10q21 -6 28.5 -19.5t7.5 -38.5q0 -23 -6 -43.5t-32 -74.5
l10 -2q23 0 47 18.5zM214 270q-54 -32 -56 -33q-36 -22 -53 -38.5t-30 -43.5t-13 -49q0 -21 12 -29.5t32 -8.5q24 0 43 11q9 5 35 29q-12 24 -12 46q0 30 21 75l21 41v0zM249 568h4q22 0 55 -26t45 -26q18 0 31 28.5t21 31.5h10q18 0 18 -18l-2 -2q0 -29 -17 -61
q-20 -37 -47 -37l-2 2q-19 0 -42 15q-50 33 -60 33q-18 0 -35 -29q-11 -18 -21 -23.5t-14 -5.5q-22 0 -22 22q0 30 26 63t52 33z" />
    <glyph glyph-name="uni0081" horiz-adv-x="412" 
d="M398 192l10 -42q-34 -43 -70.5 -61.5t-91.5 -18.5q-34 -36 -68 -54q-41 -22 -86 -22q-42 0 -71 37q-33 41 -33 107v4q0 50 25 92q22 37 64.5 71t93.5 54.5t95 20.5q20 0 38 -9t18 -27q0 -11 -7 -18q-3 -3 -17 -10q21 -6 28.5 -19.5t7.5 -38.5q0 -23 -6 -43.5t-32 -74.5
l10 -2q23 0 47 18.5zM214 270q-54 -32 -56 -33q-36 -22 -53 -38.5t-30 -43.5t-13 -49q0 -21 12 -29.5t32 -8.5q24 0 43 11q9 5 35 29q-12 24 -12 46q0 30 21 75l21 41v0zM57 -181q-17 0 -36 9.5t-19 24.5q0 16 14 38q18 29 43 29l7 -2q19 -1 32.5 -7t13.5 -20l-2 -4
q-3 -22 -15 -41q-17 -27 -38 -27zM75 -181q-17 0 -36 9.5t-19 24.5q0 16 14 38q18 29 43 29l7 -2q19 -1 32.5 -7t13.5 -20l-2 -4q-3 -22 -15 -41q-17 -27 -38 -27z" />
    <glyph glyph-name="uni0081" unicode="&#x1ecd;" horiz-adv-x="412" 
d="M398 192l10 -42q-34 -43 -70.5 -61.5t-91.5 -18.5q-34 -36 -68 -54q-41 -22 -86 -22q-42 0 -71 37q-33 41 -33 107v4q0 50 25 92q22 37 64.5 71t93.5 54.5t95 20.5q20 0 38 -9t18 -27q0 -11 -7 -18q-3 -3 -17 -10q21 -6 28.5 -19.5t7.5 -38.5q0 -23 -6 -43.5t-32 -74.5
l10 -2q23 0 47 18.5zM214 270q-54 -32 -56 -33q-36 -22 -53 -38.5t-30 -43.5t-13 -49q0 -21 12 -29.5t32 -8.5q24 0 43 11q9 5 35 29q-12 24 -12 46q0 30 21 75l21 41v0zM57 -181q-17 0 -36 9.5t-19 24.5q0 16 14 38q18 29 43 29l7 -2q19 -1 32.5 -7t13.5 -20l-2 -4
q-3 -22 -15 -41q-17 -27 -38 -27zM75 -181q-17 0 -36 9.5t-19 24.5q0 16 14 38q18 29 43 29l7 -2q19 -1 32.5 -7t13.5 -20l-2 -4q-3 -22 -15 -41q-17 -27 -38 -27z" />
    <glyph glyph-name="ocircumflex" unicode="&#xf4;" horiz-adv-x="412" 
d="M398 192l10 -42q-34 -43 -70.5 -61.5t-91.5 -18.5q-34 -36 -68 -54q-41 -22 -86 -22q-42 0 -71 37q-33 41 -33 107v4q0 50 25 92q22 37 64.5 71t93.5 54.5t95 20.5q20 0 38 -9t18 -27q0 -11 -7 -18q-3 -3 -17 -10q21 -6 28.5 -19.5t7.5 -38.5q0 -23 -6 -43.5t-32 -74.5
l10 -2q23 0 47 18.5zM214 270q-54 -32 -56 -33q-36 -22 -53 -38.5t-30 -43.5t-13 -49q0 -21 12 -29.5t32 -8.5q24 0 43 11q9 5 35 29q-12 24 -12 46q0 30 21 75l21 41v0zM294 526q18 7 34.5 11.5t31.5 4.5h18q24 -4 32 -39q4 -41 6 -51q0 -20 -4 -24t-28 -4q-14 0 -17.5 1
t-8 9.5t-9 24.5t-15.5 33q-13 -6 -54 -30q-66 -38 -96 -38t-30 8q0 5 7 12t13 10z" />
    <glyph glyph-name="ccedilla" unicode="&#xe7;" horiz-adv-x="412" 
d="M398 192l10 -42q-34 -43 -70.5 -61.5t-91.5 -18.5q-34 -36 -68 -54q-41 -22 -86 -22q-42 0 -71 37q-33 41 -33 107v4q0 50 25 92q22 37 64.5 71t93.5 54.5t95 20.5q20 0 38 -9t18 -27q0 -11 -7 -18q-3 -3 -17 -10q21 -6 28.5 -19.5t7.5 -38.5q0 -23 -6 -43.5t-32 -74.5
l10 -2q23 0 47 18.5zM214 270q-54 -32 -56 -33q-36 -22 -53 -38.5t-30 -43.5t-13 -49q0 -21 12 -29.5t32 -8.5q24 0 43 11q9 5 35 29q-12 24 -12 46q0 30 21 75l21 41v0zM294 526q18 7 34.5 11.5t31.5 4.5h18q24 -4 32 -39q4 -41 6 -51q0 -20 -4 -24t-28 -4q-14 0 -17.5 1
t-8 9.5t-9 24.5t-15.5 33q-13 -6 -54 -30q-66 -38 -96 -38t-30 8q0 5 7 12t13 10zM510 530l-26 -28q-22 -22 -32 -22l-2 2q-2 0 -10 -3t-12 -3q-2 0 -4.5 2t-5.5 4l-4 6v4l82 124q5 7 6 9q5 8 14 9h50q14 0 14 -14q0 -17 -32 -53q-26 -29 -38 -37z" />
    <glyph glyph-name="ccedilla" unicode="&#x1ed1;" horiz-adv-x="412" 
d="M398 192l10 -42q-34 -43 -70.5 -61.5t-91.5 -18.5q-34 -36 -68 -54q-41 -22 -86 -22q-42 0 -71 37q-33 41 -33 107v4q0 50 25 92q22 37 64.5 71t93.5 54.5t95 20.5q20 0 38 -9t18 -27q0 -11 -7 -18q-3 -3 -17 -10q21 -6 28.5 -19.5t7.5 -38.5q0 -23 -6 -43.5t-32 -74.5
l10 -2q23 0 47 18.5zM214 270q-54 -32 -56 -33q-36 -22 -53 -38.5t-30 -43.5t-13 -49q0 -21 12 -29.5t32 -8.5q24 0 43 11q9 5 35 29q-12 24 -12 46q0 30 21 75l21 41v0zM294 526q18 7 34.5 11.5t31.5 4.5h18q24 -4 32 -39q4 -41 6 -51q0 -20 -4 -24t-28 -4q-14 0 -17.5 1
t-8 9.5t-9 24.5t-15.5 33q-13 -6 -54 -30q-66 -38 -96 -38t-30 8q0 5 7 12t13 10zM510 530l-26 -28q-22 -22 -32 -22l-2 2q-2 0 -10 -3t-12 -3q-2 0 -4.5 2t-5.5 4l-4 6v4l82 124q5 7 6 9q5 8 14 9h50q14 0 14 -14q0 -17 -32 -53q-26 -29 -38 -37z" />
    <glyph glyph-name="asciicircum" unicode="^" horiz-adv-x="412" 
d="M398 192l10 -42q-34 -43 -70.5 -61.5t-91.5 -18.5q-34 -36 -68 -54q-41 -22 -86 -22q-42 0 -71 37q-33 41 -33 107v4q0 50 25 92q22 37 64.5 71t93.5 54.5t95 20.5q20 0 38 -9t18 -27q0 -11 -7 -18q-3 -3 -17 -10q21 -6 28.5 -19.5t7.5 -38.5q0 -23 -6 -43.5t-32 -74.5
l10 -2q23 0 47 18.5zM214 270q-54 -32 -56 -33q-36 -22 -53 -38.5t-30 -43.5t-13 -49q0 -21 12 -29.5t32 -8.5q24 0 43 11q9 5 35 29q-12 24 -12 46q0 30 21 75l21 41v0zM294 526q18 7 34.5 11.5t31.5 4.5h18q24 -4 32 -39q4 -41 6 -51q0 -20 -4 -24t-28 -4q-14 0 -17.5 1
t-8 9.5t-9 24.5t-15.5 33q-13 -6 -54 -30q-66 -38 -96 -38t-30 8q0 5 7 12t13 10zM215 509q-9 -1 -32 20l-28 28q-11 8 -36 36q-32 37 -32 54q0 14 12 14h50q8 -1 12.5 -7.5l7.5 -10.5l40 -61q36 -53 42 -63l2 -4l-6 -6q-6 -6 -8 -6q-3 0 -12 3t-12 3z" />
    <glyph glyph-name="asciicircum" unicode="&#x1ed3;" horiz-adv-x="412" 
d="M398 192l10 -42q-34 -43 -70.5 -61.5t-91.5 -18.5q-34 -36 -68 -54q-41 -22 -86 -22q-42 0 -71 37q-33 41 -33 107v4q0 50 25 92q22 37 64.5 71t93.5 54.5t95 20.5q20 0 38 -9t18 -27q0 -11 -7 -18q-3 -3 -17 -10q21 -6 28.5 -19.5t7.5 -38.5q0 -23 -6 -43.5t-32 -74.5
l10 -2q23 0 47 18.5zM214 270q-54 -32 -56 -33q-36 -22 -53 -38.5t-30 -43.5t-13 -49q0 -21 12 -29.5t32 -8.5q24 0 43 11q9 5 35 29q-12 24 -12 46q0 30 21 75l21 41v0zM294 526q18 7 34.5 11.5t31.5 4.5h18q24 -4 32 -39q4 -41 6 -51q0 -20 -4 -24t-28 -4q-14 0 -17.5 1
t-8 9.5t-9 24.5t-15.5 33q-13 -6 -54 -30q-66 -38 -96 -38t-30 8q0 5 7 12t13 10zM215 509q-9 -1 -32 20l-28 28q-11 8 -36 36q-32 37 -32 54q0 14 12 14h50q8 -1 12.5 -7.5l7.5 -10.5l40 -61q36 -53 42 -63l2 -4l-6 -6q-6 -6 -8 -6q-3 0 -12 3t-12 3z" />
    </font>
</defs>
</svg>
